<svg id="Слой_1" data-name="Слой 1" xmlns="http://www.w3.org/2000/svg" viewBox="0 0 319.08 309.06"><defs><style>.cls-1{fill:#c1c7df;stroke:#775862;stroke-miterlimit:8;stroke-width:12px;}.cls-2{isolation:isolate;}.cls-3{fill:#fff;}.cls-4{fill:none;}</style></defs><g id="Слой_2" data-name="Слой 2"><g id="Слой_1-2" data-name="Слой 1-2"><circle class="cls-1" cx="119.68" cy="157.09" r="98.39"/><g class="cls-2"><path class="cls-3" d="M139,149.07c14.92,1.24,20.17,10.09,20.17,25.29,0,19.61-10.22,24.87-33.57,24.87-19.48,0-30.4-.14-43.25-1.11V102.78c11.61-1,21.55-1.1,38.83-1.1,25.7,0,34.81,5.25,34.81,24.87,0,13.68-4.83,20.59-17,21.69Zm-19.21-29.15h-12v20.86H120.5c8.43,0,10.78-2.07,10.78-10.64C131.28,121.85,128.79,119.92,119.81,119.92ZM121.06,181c9.67,0,12.16-2.21,12.16-11.75,0-10.08-2.49-12.57-12.44-12.57h-13V181Z"/></g><ellipse class="cls-4" cx="159.54" cy="154.53" rx="159.54" ry="154.53"/></g></g></svg>