<svg xmlns="http://www.w3.org/2000/svg" viewBox="0 0 320 494.61"><defs><style>.cls-1{fill:#fed2a4;}.cls-2{fill:#ffbd86;}.cls-3{fill:#fee903;}.cls-4{fill:#fed402;}.cls-5{fill:#fff;}</style></defs><g id="Слой_2" data-name="Слой 2"><g id="Слой_1-2" data-name="Слой 1"><path class="cls-1" d="M268.53,485V441L308.4,330.84a72.72,72.72,0,0,0-9.51-67.46L238,179.45l-37.34,50L149.9,472.73V485a9.66,9.66,0,0,0,9.66,9.66h99.31a9.66,9.66,0,0,0,9.66-9.66Z"/><path class="cls-2" d="M298.89,263.38,238,179.45,228.66,192l41.25,56.89a72.72,72.72,0,0,1,9.51,67.46L243.08,416.74a59.41,59.41,0,0,0-3.53,20.15,43.22,43.22,0,0,1-43.23,43.23H149.9V485a9.66,9.66,0,0,0,9.66,9.66h99.31a9.65,9.65,0,0,0,9.66-9.66V441l39.88-110.16A72.75,72.75,0,0,0,298.89,263.38Z"/><path class="cls-3" d="M216.18,304.13H37.36A30.13,30.13,0,0,1,7.24,274V37.36A30.12,30.12,0,0,1,37.36,7.25H226.2a30.11,30.11,0,0,1,30.11,30.11V264a40.12,40.12,0,0,1-40.13,40.14Z"/><path class="cls-4" d="M226.2,7.25H223a29.94,29.94,0,0,1,4.36,15.62v51c0,119.14-96.58,215.73-215.72,215.73a30.11,30.11,0,0,0,25.75,14.49H216.18A40.13,40.13,0,0,0,256.31,264V37.36A30.1,30.1,0,0,0,226.2,7.25Z"/><path class="cls-2" d="M176.07,348H83.75a21.91,21.91,0,1,1,0-43.82h92.32Z"/><path class="cls-2" d="M200.19,391.77H107.87a21.91,21.91,0,0,1,0-43.82h92.32Z"/><path class="cls-1" d="M149.9,480.12V458.06a54.92,54.92,0,0,0-7.09-27l-.22-.4A101.23,101.23,0,0,1,154.83,314l9.83-11.15a40.37,40.37,0,0,0,10-29.28l-5.74-88.87a40,40,0,0,1,19.19-36.78,20.9,20.9,0,0,1,31.17,12.92l29.31,121.37a37.44,37.44,0,0,0,16.77,23.1l6.26,3.86Z"/><path class="cls-2" d="M173.62,176.87a20.9,20.9,0,0,1,31.17,12.92L234.1,311.16c0,.11.05.22.07.32,3.73,15.13,23.83,18.4,32.38,5.38l1-1.58a7.15,7.15,0,0,0-2.22-10,37.44,37.44,0,0,1-16.77-23.1L219.28,160.81a20.9,20.9,0,0,0-31.17-12.92,40,40,0,0,0-19.2,32.33,40,40,0,0,1,4.71-3.35Z"/><path class="cls-5" d="M131.78,186.24a10.1,10.1,0,0,1-10-9.1l-9-90.46a19.09,19.09,0,1,1,38,0l-9,90.46A10.09,10.09,0,0,1,131.78,186.24Z"/><circle class="cls-5" cx="131.78" cy="230.11" r="15.56"/><path d="M267.82,315.31a7.25,7.25,0,1,0,7.6-12.34l-6.26-3.86a30,30,0,0,1-11.34-12.52,47,47,0,0,0,5.74-22.6V37.37A37.4,37.4,0,0,0,226.2,0H37.36A37.4,37.4,0,0,0,0,37.37V171.75a7.25,7.25,0,0,0,14.49,0V37.37A22.9,22.9,0,0,1,37.36,14.49H226.2a22.9,22.9,0,0,1,22.87,22.88v216l-22.75-94.22a28.14,28.14,0,0,0-42-17.42,47.17,47.17,0,0,0-22.66,43.45L167.43,274a32.82,32.82,0,0,1-7.25,22.87H37.36A22.9,22.9,0,0,1,14.49,274V200.73a7.25,7.25,0,1,0-14.49,0V274a37.4,37.4,0,0,0,37.36,37.37H58.54a29.16,29.16,0,0,0,24.14,43.79A29.16,29.16,0,0,0,107.87,399h15.95a108,108,0,0,0,12.46,35.22l.22.4a47.76,47.76,0,0,1,6.16,23.43v29.31a7.25,7.25,0,0,0,14.49,0V458.06a62.41,62.41,0,0,0-8-30.55l-.23-.4a94.08,94.08,0,0,1,11.37-108.35l9.82-11.15a47.27,47.27,0,0,0,11.8-34.53l-5.74-88.88a32.7,32.7,0,0,1,15.72-30.12,13.66,13.66,0,0,1,20.37,8.43l29.3,121.37a44.42,44.42,0,0,0,20,27.57ZM122.38,384.52H107.87a14.67,14.67,0,1,1,0-29.33h17.55a108.46,108.46,0,0,0-3,29.33ZM130,340.7H83.75a14.67,14.67,0,0,1,0-29.33h63.79A108,108,0,0,0,130,340.7Zm174.72-81.57-19-26.23A7.24,7.24,0,1,0,274,241.4l19,26.23a65.45,65.45,0,0,1,8.56,60.74c-.86,2.39-40.41,110.2-40.31,112.63v46.37a7.25,7.25,0,0,0,14.49,0v-45.1l39.45-109A79.91,79.91,0,0,0,304.76,259.13Zm-173-51.82a22.8,22.8,0,1,0,22.8,22.8A22.83,22.83,0,0,0,131.78,207.31Zm0,31.11a8.31,8.31,0,1,1,8.31-8.31A8.32,8.32,0,0,1,131.78,238.42Zm0-180a26.49,26.49,0,0,0-26.21,28.93l9,90.46a17.34,17.34,0,0,0,34.51,0l9-90.46c1.59-15.29-11-28.93-26.21-28.93ZM143.57,86l-9,90.46a2.85,2.85,0,0,1-5.67,0L120,86a11.85,11.85,0,1,1,23.58,0Z"/></g></g></svg>