<svg xmlns="http://www.w3.org/2000/svg" viewBox="0 0 257.7 257.7"><defs><style>.cls-1{fill:#888eba;stroke:#cbabc8;stroke-miterlimit:8;stroke-width:17px;}.cls-2{fill:#f0d0b4;}.cls-3{fill:#dfb28b;}.cls-4{fill:#fc6e51;}.cls-5{fill:#ff826e;}.cls-6{fill:#b4dd7f;}.cls-7{fill:#42434d;}</style></defs><g id="Слой_2" data-name="Слой 2"><g id="Слой_1-2" data-name="Слой 1"><circle class="cls-1" cx="128.85" cy="128.85" r="120.35"/><path class="cls-2" d="M123.63,56.06l2.24,29.3A34.4,34.4,0,0,0,117,88.53c-.86.44-1.72.94-2.55,1.46l-5-29.77a7,7,0,0,1-.09-1.14,6.93,6.93,0,0,1,4.72-6.54l2.82-.94a5.13,5.13,0,0,1,6.69,4.46Z"/><path class="cls-2" d="M148.22,61.13a7.76,7.76,0,0,1-.42,2.53l-7.26,21.79a33.7,33.7,0,0,0-7.54-.83,34.91,34.91,0,0,0-4.25.25l4.94-29.5a4.84,4.84,0,0,1,7.43-3.22l3.55,2.39A7.93,7.93,0,0,1,148.22,61.13Z"/><path class="cls-2" d="M167.62,74.25a5.78,5.78,0,0,1-1.3,3.63L154.48,92.07a33.84,33.84,0,0,0-9.65-5.35v0l9.65-15.42a7,7,0,0,1,5.94-3.3,6.78,6.78,0,0,1,3.13.75l.94.47a5.64,5.64,0,0,1,3.13,5Z"/><path class="cls-3" d="M105.88,97.7c-.44.56-.86,1.11-1.27,1.69a49.61,49.61,0,0,0-5.35,9.82l-9.1-1.83a30.33,30.33,0,0,0-5.93-.58h-.36A29.06,29.06,0,0,0,76,107.88,13.37,13.37,0,0,0,68.7,97.54L57.28,91.82A6,6,0,0,1,54,86.45a6.32,6.32,0,0,1,1-3.36l2.66-3.94a6.37,6.37,0,0,1,9.13-1.58L74,83a4.55,4.55,0,0,0,2.61.86,4.46,4.46,0,0,0,2-.47,4.36,4.36,0,0,0,2.27-5l-4.49-18a5.21,5.21,0,0,1-.2-1.47,6.14,6.14,0,0,1,4.66-6l5.8-1.45a5,5,0,0,1,1.27-.16,5.32,5.32,0,0,1,5.3,4.88l2.08,27.06a11,11,0,0,0,3.21,7l7.4,7.4Z"/><path class="cls-4" d="M90.16,107.38l9.1,1.83c-.5,1.27-1,2.55-1.39,3.85a49.49,49.49,0,0,0-2.33,15.08v1.5a18.52,18.52,0,0,1-18.46,18.74,29.17,29.17,0,0,1-20.55-8.51L54,137.29A30.64,30.64,0,0,1,76,107.88a29.06,29.06,0,0,1,7.85-1.08h.36A30.33,30.33,0,0,1,90.16,107.38Z"/><path class="cls-4" d="M154.48,92.07a36.75,36.75,0,0,1,6.41,6.6L153.12,100a29.37,29.37,0,0,0-13.75,6.15,28.48,28.48,0,0,1-17.74,6.21h-.47a28.44,28.44,0,0,1-19.66-7.9,47.9,47.9,0,0,1,3.11-5c.41-.58.83-1.13,1.27-1.69A34.55,34.55,0,0,1,114.45,90c.83-.52,1.69-1,2.55-1.46a34.4,34.4,0,0,1,8.87-3.17c.94-.19,1.91-.36,2.88-.49a34.91,34.91,0,0,1,4.25-.25,33.7,33.7,0,0,1,7.54.83,32.16,32.16,0,0,1,4.29,1.27,33.84,33.84,0,0,1,9.65,5.35Z"/><path class="cls-5" d="M99.26,109.21a48.22,48.22,0,0,1,2.24-4.77,28.44,28.44,0,0,0,19.66,7.9h.47a28.48,28.48,0,0,0,17.74-6.21A29.37,29.37,0,0,1,153.12,100l7.77-1.31a34.32,34.32,0,0,1,6.23,14.59l3.28,18.49,5.54,27.72a103.54,103.54,0,0,1-34.85,55l-1.38,1.14a9.44,9.44,0,0,1-5.91,2.1,11.73,11.73,0,0,1-4.27-.8c-2.77-1.11-8-3.25-13.89-5.57a123.61,123.61,0,0,1-44.55-30.64A63.34,63.34,0,0,1,54,137.51v-.22l2.58,2.58a29.17,29.17,0,0,0,20.55,8.51,18.52,18.52,0,0,0,18.46-18.74v-1.5a49.49,49.49,0,0,1,2.33-15.08c.42-1.3.89-2.58,1.39-3.85Z"/><circle class="cls-6" cx="120.49" cy="148.38" r="11.09"/><path class="cls-7" d="M185.88,145.61l-8.24,8.24-4.52-22.63-3.26-18.44a37.29,37.29,0,0,0-11.51-21l10.09-12.11a8.43,8.43,0,0,0-2.7-12.94l-.94-.47a9.89,9.89,0,0,0-4.38-1,9.75,9.75,0,0,0-8.3,4.6L144.75,81.6l5.69-17.06a10.72,10.72,0,0,0-4.22-12.31l-3.57-2.38A7.58,7.58,0,0,0,131,54.92l-3.17,19-1.39-18.08a7.91,7.91,0,0,0-7.84-7.27,7.78,7.78,0,0,0-2.49.41l-2.81.94a9.64,9.64,0,0,0-6.62,9.17,9.31,9.31,0,0,0,.13,1.59l4.67,28a37.07,37.07,0,0,0-5.69,5l-5.34-5.34A8.31,8.31,0,0,1,98,83.09L95.91,56a8.1,8.1,0,0,0-8-7.45,8,8,0,0,0-2,.25l-5.81,1.45a8.88,8.88,0,0,0-6.75,8.64,8.7,8.7,0,0,0,.27,2.16l4.51,18.05a1.59,1.59,0,0,1-2.5,1.66l-7.23-5.42A9.16,9.16,0,0,0,55.3,77.6l-2.64,4A8.8,8.8,0,0,0,56,94.31L67.45,100a10.67,10.67,0,0,1,5.3,6,33.25,33.25,0,0,0-21.57,31.23,66.09,66.09,0,0,0,17.87,45.3,127.22,127.22,0,0,0,45.57,31.3l13.89,5.57a14.24,14.24,0,0,0,5.28,1,12.15,12.15,0,0,0,7.67-2.73l1.38-1.12a107,107,0,0,0,35.58-55.7l9.76-9.76h34.89v-5.54Zm-29-72.86a4.33,4.33,0,0,1,5.49-1.55l.94.47a2.89,2.89,0,0,1,.92,4.43L154,88.3a38.12,38.12,0,0,0-5.08-2.91ZM136.42,55.83a2.11,2.11,0,0,1,3.16-1.37l3.56,2.38a5.16,5.16,0,0,1,2.3,4.31,5,5,0,0,1-.26,1.63L138.67,82.3a37.93,37.93,0,0,0-5.67-.46c-.31,0-.62,0-.93.06Zm-24.19,4a4,4,0,0,1,0-.69A4.11,4.11,0,0,1,115,55.18l2.82-.94a2.38,2.38,0,0,1,3,2l2.08,27a38.21,38.21,0,0,0-6.39,2.43ZM133,87.39a31.84,31.84,0,0,1,22.58,9.36l-2.91.49a32.68,32.68,0,0,0-15,6.71,25.74,25.74,0,0,1-16,5.62h-.46A25.5,25.5,0,0,1,105,103.84c.58-1,1.19-1.92,1.84-2.84A31.89,31.89,0,0,1,133,87.39ZM69.93,95.05l-11.41-5.7a3.23,3.23,0,0,1-1.79-2.91,3.28,3.28,0,0,1,.54-1.8l2.64-4a3.73,3.73,0,0,1,5.18-.88l7.22,5.42a7.14,7.14,0,0,0,11.21-7.44L79,59.73a3.29,3.29,0,0,1-.1-.82,3.34,3.34,0,0,1,2.54-3.26l5.82-1.45a2.57,2.57,0,0,1,3.11,2.24l2.08,27.08a13.82,13.82,0,0,0,4,8.73L102.21,98a53.18,53.18,0,0,0-4.58,8.06l-6.93-1.38a32.64,32.64,0,0,0-6.47-.65h-.37a32.33,32.33,0,0,0-5.77.55,16.19,16.19,0,0,0-8.16-9.52Zm13.93,14.52h.37a27.8,27.8,0,0,1,5.38.53l5.93,1.19a52.75,52.75,0,0,0-2.77,16.84v1.51a15.67,15.67,0,0,1-15.7,16,26.1,26.1,0,0,1-18.57-7.69l-1.72-1.72C57.35,121.42,69.26,109.57,83.86,109.57Zm55.47,102.74L138,213.43a7.42,7.42,0,0,1-7.38.87l-13.88-5.56a121.63,121.63,0,0,1-43.57-29.93,60.81,60.81,0,0,1-16-34.69,31.59,31.59,0,0,0,19.94,7,21.4,21.4,0,0,0,21.24-21.51v-1.51a47.15,47.15,0,0,1,4.14-19.29,31,31,0,0,0,18.72,6.27h.45a31.24,31.24,0,0,0,19.47-6.83,27.27,27.27,0,0,1,12.5-5.58l6-1a32,32,0,0,1,4.81,12l3.15,17.86-8,28L148.14,111l-7.69,34.61h-6.38a13.86,13.86,0,1,0,0,5.54H144.9l3.39-15.29,10.76,45.7,10.87-38.06,3.17,15.87a101.29,101.29,0,0,1-33.76,52.94Zm-10.52-63.93a8.32,8.32,0,1,1-8.32-8.32A8.33,8.33,0,0,1,128.81,148.38Z"/></g></g></svg>