<svg xmlns="http://www.w3.org/2000/svg" viewBox="0 0 257.7 257.7"><defs><style>.cls-1{fill:#888eba;stroke:#cbabc8;stroke-miterlimit:8;stroke-width:17px;}.cls-2{fill:#53b79a;}.cls-3{fill:#a770a2;}.cls-4{fill:#90588b;}.cls-5{fill:#6fceae;}.cls-6{fill:#888c8d;}.cls-7{fill:#ddd8d6;}.cls-8{fill:#5d5560;}.cls-9{fill:#aba9a0;}.cls-10{fill:#655f68;}</style></defs><g id="Слой_2" data-name="Слой 2"><g id="Слой_1-2" data-name="Слой 1"><circle class="cls-1" cx="128.85" cy="128.85" r="120.35"/><path class="cls-2" d="M134.74,42.35H124a1.44,1.44,0,1,0,0,2.87h10.76a1.43,1.43,0,0,0,1.43-1.43,1.45,1.45,0,0,0-1.45-1.44Z"/><path class="cls-2" d="M96.5,53.79H105a1.44,1.44,0,1,0,0-2.87H96.5a1.44,1.44,0,0,0,0,2.87Z"/><path class="cls-2" d="M127.81,60.59h-10.7a1.44,1.44,0,1,0,0,2.87h10.72a1.44,1.44,0,1,0,0-2.87Z"/><path class="cls-2" d="M106.42,108.89H96.32a1.44,1.44,0,1,0,0,2.87h10.1a1.44,1.44,0,0,0,0-2.87Z"/><path class="cls-2" d="M102.7,118.76H94.15a1.44,1.44,0,0,0,0,2.87h8.55a1.44,1.44,0,1,0,0-2.87Z"/><path class="cls-2" d="M148.13,114.15h7.58a1.42,1.42,0,0,0,1.42-1.43,1.44,1.44,0,0,0-1.44-1.44h-7.56a1.44,1.44,0,0,0,0,2.87Z"/><path class="cls-2" d="M156.41,128.83H145a1.44,1.44,0,0,0,0,2.87h11.45a1.42,1.42,0,0,0,1.43-1.43,1.44,1.44,0,0,0-1.44-1.44Z"/><path class="cls-3" d="M164.86,122.31c0-.06,0-.11,0-.17a20.15,20.15,0,0,1,0-2.2,27.69,27.69,0,0,1-.91-5.17l-.44,0a48.24,48.24,0,0,0-3.07-10.65L154,107.83a37.35,37.35,0,0,1,1.69,4.89,36,36,0,0,1,1.08,5.29H130.44v6h26.64a37.69,37.69,0,0,1-.66,6.24h0a38.67,38.67,0,0,1-2.41,8l6.46,2.87a48.8,48.8,0,0,0,3.43-13.23H164a19.34,19.34,0,0,1,.57-2.24A21.17,21.17,0,0,1,164.86,122.31Z"/><path class="cls-3" d="M125.89,169.55a55.77,55.77,0,0,0,18.55-32L134,136.11a42.4,42.4,0,0,1-1.29,4.32H96.46a45.85,45.85,0,0,1-2.58-15.26,46.67,46.67,0,0,1,2.44-14.85A41.72,41.72,0,0,1,99,104.08h20.76V98.67H102.34a38.49,38.49,0,0,1,12.24-11.1h0a40.65,40.65,0,0,1,16.61,18.62l9.93-4.33a54.32,54.32,0,0,0-15.25-21.07c12.4-9.9,19.76-26.1,19.76-44.58H135.29a52,52,0,0,1-.55,7.58,46.78,46.78,0,0,1-1.85,7.91H112.1v5.16h18.7a37.19,37.19,0,0,1-3,5.17,36.56,36.56,0,0,1-13.23,11.82A38,38,0,0,1,96.5,52.36a43,43,0,0,1-1.73-6.52H118.6V40.52H94.05c-.11-1.41-.17-2.84-.17-4.31H83.53c0,18.5,7.36,34.7,19.76,44.58-10.83,9-19.76,24.47-19.76,44.38s8.93,35.37,19.76,44.38c-12.4,9.89-19.76,26.09-19.76,44.58H93.88c0-1.29,0-2.56.13-3.83h41.14c.1,1.27.14,2.54.14,3.83h10.36c0-18.48-7.36-34.68-19.76-44.58ZM99,146.21H130.2a40.11,40.11,0,0,1-15.6,16.57h0A40.34,40.34,0,0,1,99,146.21Zm3.17,41a36.66,36.66,0,0,1,12.45-10.75,36.61,36.61,0,0,1,12.6,10.93l-25.17,0a1.49,1.49,0,0,0,.12-.14Zm28.55,6a44.34,44.34,0,0,1,3.73,11.4H94.75a43.86,43.86,0,0,1,3.75-11.4h32.18Z"/><path class="cls-4" d="M155.69,112.72a37.35,37.35,0,0,0-1.69-4.89l6.46-3.75a48.24,48.24,0,0,1,3.07,10.65l-.56,0,2.88,7.16c-3-.42-5.91-.91-8.65-1.44H157c-.06-.83-.14-1.63-.24-2.41A36,36,0,0,0,155.69,112.72Z"/><path class="cls-4" d="M157.08,124c0-.68,0-1.38,0-2.08,0-.52,0-1-.07-1.53h.19c1.43,2.38,2.88,4.75,4.33,7.13l2.36.39a48.8,48.8,0,0,1-3.43,13.23L154,138.29a38.67,38.67,0,0,0,2.41-8h0a37.69,37.69,0,0,0,.66-6.24Z"/><path class="cls-5" d="M157.08,122c0,.7,0,1.4,0,2.08H130.44v-6h26.33c.1.78.18,1.58.24,2.41,0,.49.06,1,.07,1.53Z"/><path class="cls-4" d="M132.71,140.43a42.4,42.4,0,0,0,1.29-4.32l10.44,1.42a55.77,55.77,0,0,1-18.55,32h0a45.07,45.07,0,0,0-9.47-5.85c-.61-.27-1.21-.59-1.81-.92a40.11,40.11,0,0,0,15.6-16.57,42.35,42.35,0,0,0,2.51-5.78Z"/><path class="cls-4" d="M141.14,101.86l-9.93,4.33A40.65,40.65,0,0,0,114.6,87.57c.6-.33,1.2-.65,1.81-.92a45.11,45.11,0,0,0,9.47-5.86h0a54.32,54.32,0,0,1,15.25,21.07Z"/><path class="cls-5" d="M135.15,210.3H94a49.66,49.66,0,0,1,.74-5.69h39.66a45.58,45.58,0,0,1,.74,5.69Z"/><path class="cls-5" d="M112.1,51.7h20.79a43.42,43.42,0,0,1-2.08,5.16H112.1Z"/><path class="cls-5" d="M96.46,140.43h36.25a42.35,42.35,0,0,1-2.51,5.78H99A42.31,42.31,0,0,1,96.46,140.43Z"/><path class="cls-5" d="M130.67,193.21H98.5a41,41,0,0,1,3.39-5.65l.12-.17,25.17,0h0a40,40,0,0,1,3.47,5.78Z"/><path class="cls-5" d="M119.76,98.67v5.41H99a45.22,45.22,0,0,1,3.34-5.41Z"/><path class="cls-5" d="M118.6,40.52v5.32H94.77a48,48,0,0,1-.72-5.32Z"/><path class="cls-4" d="M114.58,73.85c-.58.32-1.19.6-1.8.89a42.87,42.87,0,0,0-9.49,6.05c-12.4-9.88-19.76-26.08-19.76-44.58H93.88c0,1.47.06,2.9.17,4.31a48,48,0,0,0,.72,5.32,43,43,0,0,0,1.73,6.52A38,38,0,0,0,114.58,73.85Z"/><path class="cls-4" d="M112.78,175.61c.61.29,1.22.57,1.8.89a36.66,36.66,0,0,0-12.45,10.75,1.49,1.49,0,0,1-.12.14l-.12.17a41,41,0,0,0-3.39,5.65,43.86,43.86,0,0,0-3.75,11.4A49.66,49.66,0,0,0,94,210.3c-.09,1.27-.13,2.54-.13,3.83H83.53c0-18.49,7.36-34.69,19.76-44.58a42.57,42.57,0,0,0,9.49,6.06Z"/><path class="cls-6" d="M204.4,183.66l-4.47,4.13c-3,2.8-9.87.33-15.29-5.53s-7.33-12.87-4.3-15.68l4.47-4.12c-3.18,2.94-1.38,10.06,4,15.92S201.22,186.6,204.4,183.66Z"/><path class="cls-6" d="M215.93,173l-4.47,4.13c-1.31,1.21-3.29,1.42-5.61.84h0a20.55,20.55,0,0,0-5.38-10.14c5.4,5.79,12.31,8.1,15.47,5.18Z"/><path class="cls-7" d="M205.85,178c.37,2.38-.08,4.42-1.45,5.68-3.18,2.94-10.15.59-15.56-5.28s-7.21-13-4-15.92a5,5,0,0,1,3-1.25,10.6,10.6,0,0,1,4.67.87,22.38,22.38,0,0,1,7.8,5.59l.06.06.09.1A20.55,20.55,0,0,1,205.84,178Zm-5.36,1.45c1.44-1.34,0-5.28-3.26-8.79s-7.06-5.28-8.51-3.95,0,5.27,3.26,8.79S199,180.76,200.49,179.43Z"/><path class="cls-7" d="M211.9,157.08c5.41,5.86,7.21,13,4,15.93s-10.07.61-15.47-5.18l-.09-.1-.06-.06a22.85,22.85,0,0,1-5-8.27,5.61,5.61,0,0,0-.44-4.87h0a5.29,5.29,0,0,1,.58-1.62,4.31,4.31,0,0,1,.86-1.09c3.18-2.94,10.15-.59,15.56,5.27Zm.12,11.69c1.44-1.33,0-5.28-3.26-8.79s-7.06-5.27-8.5-3.94,0,5.27,3.25,8.79S210.57,170.11,212,168.77Z"/><path class="cls-6" d="M195.33,159.4a22.85,22.85,0,0,0,5,8.27,22.38,22.38,0,0,0-7.8-5.59,4.11,4.11,0,0,0,1.23-.59A4.55,4.55,0,0,0,195.33,159.4Z"/><path class="cls-6" d="M194,153.38q-5.11-3.72-10.39-8.28c-.91-.8-1.79-1.59-2.66-2.39l-5.93,5.48c1.24,1.38,2.47,2.7,3.7,4s2.19,2.29,3.28,3.4,2.34,2.33,3.5,3.45l1.16,1.13a5.47,5.47,0,0,0,1.15,1.06,10.6,10.6,0,0,1,4.67.87,4.11,4.11,0,0,0,1.23-.59,4.55,4.55,0,0,0,1.59-2.09,5.61,5.61,0,0,0-.44-4.87A5.48,5.48,0,0,0,194,153.38Z"/><path class="cls-8" d="M181,142.71c.87.8,1.75,1.59,2.66,2.39q5.27,4.58,10.39,8.28a5.48,5.48,0,0,1,.86,1.15h0a5.29,5.29,0,0,1,.58-1.62l-10.71-13.69Z"/><path class="cls-9" d="M159.66,118.28A148.3,148.3,0,0,0,181,142.71l-5.93,5.48q-4-4.35-8-9.25c-5.06-6.22-9.45-12.27-13.24-18l-1.31-2c.77-2.68,1.52-5.36,2.3-8q2.21,3.57,4.82,7.33Z"/><path class="cls-10" d="M163.31,111.75l21.46,27.46-3.79,3.5a148.3,148.3,0,0,1-21.32-24.43l3.3-7Z"/></g></g></svg>