<svg xmlns="http://www.w3.org/2000/svg" viewBox="0 0 257.7 257.7"><defs><style>.cls-1{fill:#888eba;stroke:#cbabc8;stroke-miterlimit:8;stroke-width:17px;}.cls-2{fill:#407194;}.cls-3{fill:#80b6fc;}.cls-4{fill:#ddebfd;}.cls-5{fill:#bed9fd;}.cls-6{fill:#4980ac;}.cls-7{fill:#5d91b9;}.cls-8{fill:#e27f86;}.cls-9{fill:#ffcdbe;}.cls-10{fill:#e27c48;}.cls-11{fill:#df646e;}.cls-12{fill:#be694e;}.cls-13{fill:#f5de46;}.cls-14{fill:#ecc52e;}</style></defs><g id="Слой_2" data-name="Слой 2"><g id="Слой_1-2" data-name="Слой 1"><circle class="cls-1" cx="128.85" cy="128.85" r="120.35"/><path class="cls-2" d="M68.48,190V99.1a3.43,3.43,0,0,1,3.43-3.43H187.23a3.43,3.43,0,0,1,3.43,3.43V190Z"/><path class="cls-3" d="M78.08,107v64.59a1.71,1.71,0,0,0,1.71,1.71h99.56a1.71,1.71,0,0,0,1.71-1.71V107a1.71,1.71,0,0,0-1.71-1.71H79.79A1.71,1.71,0,0,0,78.08,107Z"/><path class="cls-4" d="M53.34,184.27v2.9a8.39,8.39,0,0,0,8.39,8.38H197.41a8.39,8.39,0,0,0,8.39-8.38v-2.9a1.37,1.37,0,0,0-1.38-1.37H54.71a1.37,1.37,0,0,0-1.37,1.37Z"/><path class="cls-5" d="M197.41,189.33H61.73a8.38,8.38,0,0,1-8-6,1.35,1.35,0,0,0-.36.91v2.9a8.39,8.39,0,0,0,8.39,8.38H197.41a8.39,8.39,0,0,0,8.39-8.38v-2.9a1.35,1.35,0,0,0-.36-.91A8.39,8.39,0,0,1,197.41,189.33Z"/><path class="cls-4" d="M107.66,60.6H61a5.07,5.07,0,0,0-5.07,5.07v39A5.07,5.07,0,0,0,61,109.77H85.76a1,1,0,0,1,.72.3L97.21,121a1,1,0,0,0,1.73-.71v-9.49a1,1,0,0,1,1-1h7.71a5.07,5.07,0,0,0,5.07-5.07v-39a5.07,5.07,0,0,0-5.07-5.07Z"/><path class="cls-5" d="M107.66,60.6h-6.25a5.07,5.07,0,0,1,5.07,5.07v39a5.07,5.07,0,0,1-5.07,5.07h6.25a5.07,5.07,0,0,0,5.07-5.07v-39A5.07,5.07,0,0,0,107.66,60.6Z"/><path class="cls-6" d="M66.61,76.6V93.76a1.76,1.76,0,0,0,1.76,1.76h19a1.76,1.76,0,0,0,1.76-1.76V76.6a1.75,1.75,0,0,0-1.76-1.75h-19A1.75,1.75,0,0,0,66.61,76.6Z"/><path class="cls-7" d="M102,78.16v14a1.35,1.35,0,0,1-1.78,1.28L89.09,89.74V80.63l11.17-3.75A1.34,1.34,0,0,1,102,78.16Z"/><path class="cls-8" d="M76.38,85.76h-1a2.34,2.34,0,0,1,0-4.68h1a2.34,2.34,0,0,1,0,4.68Z"/><path class="cls-9" d="M172,130.4l-5.12-7.65a2.91,2.91,0,0,1,.65-3.92l.89-.67a2.89,2.89,0,0,1,3.94.39l2.86,3.26a2.59,2.59,0,0,0,3.31.48l11.78-7.36a2.82,2.82,0,0,1,4.07,1.26l.73,1.68a7.32,7.32,0,0,1-2.59,9l-10.94,7.45Z"/><path class="cls-10" d="M127.34,122.43h-8.13a4.82,4.82,0,0,1-4.76-4l-4.1-25A14.06,14.06,0,0,1,124.22,77h16.7a17.65,17.65,0,0,0,5.72-1L160,71.48a2.07,2.07,0,0,1,2.71,2.3l-1.82,10.7A5.36,5.36,0,0,1,155.59,89h-2.9Z"/><path class="cls-9" d="M127.34,94.58v3.36a2.54,2.54,0,0,1-2.54,2.55h-1.9a3.51,3.51,0,0,0-3.52,3.52v2.8a3.51,3.51,0,0,0,3.52,3.51h4.44v22.49h11.1V122.43h6.28a8,8,0,0,0,8-8V89H133a5.63,5.63,0,0,0-5.63,5.63Z"/><path class="cls-4" d="M172,130.4l-6.5,16.8a1.46,1.46,0,0,1-2.44.44l-12.1-13.25a4.85,4.85,0,0,0-3.59-1.58H116.65a10.49,10.49,0,0,0-10.49,10.48v30h44V148.9l7.34,8A9.81,9.81,0,0,0,173.84,154l7.69-19.74Z"/><path class="cls-5" d="M117.66,173.29V151a2,2,0,0,0-4.06,0v22.3Z"/><path class="cls-11" d="M131,132.81l-3.72,23.48a1.69,1.69,0,0,0,.47,1.45l4,4a1.67,1.67,0,0,0,2.37,0l4-4a1.66,1.66,0,0,0,.47-1.45l-3.72-23.48Z"/><path class="cls-12" d="M179.49,78.56V94.48a1.87,1.87,0,0,0,1.86,1.87h9.23a1.87,1.87,0,0,0,1.86-1.87V78.56Z"/><circle class="cls-13" cx="186.01" cy="68.59" r="16.54"/><path class="cls-14" d="M194.75,54.64a16.54,16.54,0,0,1-22.7,22.94,16.53,16.53,0,1,0,22.7-22.94Z"/><path class="cls-10" d="M186,74.31a4.34,4.34,0,0,1-3-1.23l-3-3a2,2,0,1,1,2.84-2.89l3,3a.29.29,0,0,0,.39,0l3-3A2,2,0,1,1,192,70.09l-3,3a4.3,4.3,0,0,1-3,1.23Z"/><path class="cls-14" d="M186,45.91a2,2,0,0,1-2-2V40.6a2,2,0,1,1,4.05,0v3.29A2,2,0,0,1,186,45.91Z"/><path class="cls-14" d="M168.46,53.16a2,2,0,0,1-1.44-.59l-2.32-2.32a2,2,0,1,1,2.87-2.87l2.32,2.32a2,2,0,0,1,0,2.87,2,2,0,0,1-1.43.59Z"/><path class="cls-14" d="M203.47,53.16a2,2,0,0,1-1.43-.59,2,2,0,0,1,0-2.87l2.32-2.32a2,2,0,1,1,2.87,2.87l-2.32,2.32a2,2,0,0,1-1.44.59Z"/></g></g></svg>