<svg xmlns="http://www.w3.org/2000/svg" viewBox="0 0 257.7 257.7"><defs><style>.cls-1{fill:#888eba;stroke:#cbabc8;stroke-miterlimit:8;stroke-width:17px;}.cls-2{fill:#33d6f5;}.cls-2,.cls-3,.cls-4{fill-rule:evenodd;}.cls-3{fill:#ff7b79;}.cls-4{fill:#ffbdbc;}.cls-5{fill:#42434d;}</style></defs><g id="Слой_2" data-name="Слой 2"><g id="Слой_1-2" data-name="Слой 1"><circle class="cls-1" cx="128.85" cy="128.85" r="120.35"/><path class="cls-2" d="M87.39,96.76a59.73,59.73,0,0,1-1.09,6.09A59,59,0,0,0,84.76,115a58.15,58.15,0,0,0,59.31,59.17,72.54,72.54,0,0,1,1.83-12.76,41.84,41.84,0,0,0,.88-5.34,39.92,39.92,0,0,1-24-5.21,40.69,40.69,0,0,1-8.25-6.36,39.72,39.72,0,0,1-11.59-32.21,41.31,41.31,0,0,1,.89-5.34,72.76,72.76,0,0,0,1.82-12.77c.81-16.15-4.35-31.78-18.24-42.31A9,9,0,1,0,76.5,66.1a27.49,27.49,0,0,1,6.06,6.3c4.82,7,5.89,15.72,4.83,24.36Z"/><path class="cls-3" d="M144.07,174.13c-.81,16.15,4.35,31.78,18.24,42.32a9,9,0,0,0,5.4,1.83h0a9,9,0,0,0,5.43-16.1,27.65,27.65,0,0,1-6.05-6.3c-4.82-7-5.89-15.73-4.83-24.36a54.73,54.73,0,0,1,1.1-6.09,59.12,59.12,0,0,0,1.52-12.11,57.32,57.32,0,0,0-12-36.49,9,9,0,0,0-14.13,11.06,39.58,39.58,0,0,1,8,28.13,41.71,41.71,0,0,1-.88,5.35,72.54,72.54,0,0,0-1.83,12.76Z"/><path class="cls-2" d="M162.3,171.52c8.66-1.07,17.4,0,24.43,4.81a27.43,27.43,0,0,1,6.31,6,9,9,0,0,0,14.31-10.85c-10.58-13.87-26.24-19-42.43-18.2a59.12,59.12,0,0,1-1.52,12.11,54.73,54.73,0,0,0-1.1,6.09Z"/><path class="cls-3" d="M102.91,112.25a40.08,40.08,0,0,1,9.55.19,9,9,0,1,0,2.93-17.69,59.94,59.94,0,0,0-9.76-.61,73.74,73.74,0,0,1-1.83,12.77,41.31,41.31,0,0,0-.89,5.34Z"/><path class="cls-3" d="M42.35,96.75c10.56,13.86,26.23,19,42.41,18.21a59,59,0,0,1,1.54-12.11,57.1,57.1,0,0,0,1.09-6.09c-8.66,1.06-17.4,0-24.42-4.82a27,27,0,0,1-6.32-6,9,9,0,0,0-14.3,10.85Z"/><path class="cls-3" d="M176.11,114.4a39.41,39.41,0,0,1,8.8,14.49,9,9,0,0,0,16.33-7.63,57.45,57.45,0,0,0-11.81-18.91,9,9,0,0,0-13.32,12.05Z"/><path class="cls-4" d="M174.89,59.22A9.24,9.24,0,1,0,184.13,50,9.24,9.24,0,0,0,174.89,59.22Z"/><path class="cls-4" d="M50.84,168.74a9.25,9.25,0,1,0,9.25-9.23A9.23,9.23,0,0,0,50.84,168.74Z"/><path class="cls-5" d="M210.07,169.44a48.08,48.08,0,0,0-20.55-15.7,56.83,56.83,0,0,0-21.2-3.93,60.87,60.87,0,0,0-12.7-35.08l0,0a12.42,12.42,0,0,0-17.42-2.1A12.41,12.41,0,0,0,136.06,130c.39.52.77,1,1.14,1.57l-14.93,14.89a36.73,36.73,0,0,1-16.11-31,36,36,0,0,1,5.78.34,13.45,13.45,0,0,0,2,.16,12.43,12.43,0,0,0,12.24-10.37A12.42,12.42,0,0,0,116,91.37h-.06a62.73,62.73,0,0,0-6.74-.61c0-17.2-6.83-31.89-19.7-41.65a12.42,12.42,0,0,0-17.38,2.36,12.41,12.41,0,0,0,2.36,17.37A23.41,23.41,0,0,1,78,72.12L62.69,87.38a24.63,24.63,0,0,1-3.31-3.56A12.46,12.46,0,0,0,42,81.47a12.38,12.38,0,0,0-2.36,17.36c9.66,12.69,24.39,19.58,41.74,19.63a60.7,60.7,0,0,0,8,28.07,3.43,3.43,0,1,0,6-3.41,54.28,54.28,0,0,1-5.7-39.49c4.07-17.47.14-31.77-11.06-40.26a5.56,5.56,0,0,1-1.06-7.76,5.58,5.58,0,0,1,7.79-1c14.67,11.13,20.2,29.93,15.15,51.57a43.55,43.55,0,0,0,42.31,53.51l-.21,1a78.78,78.78,0,0,0-1.68,10.08,54.53,54.53,0,0,1-25.06-7.09,3.42,3.42,0,1,0-3.39,5.95,61.3,61.3,0,0,0,28.11,8c0,17.21,6.82,31.9,19.7,41.66a12.4,12.4,0,1,0,15-19.73,24.4,24.4,0,0,1-3.55-3.29L187,180.89a24,24,0,0,1,3.31,3.55,12.4,12.4,0,0,0,22.17-5.84,12.27,12.27,0,0,0-2.41-9.16ZM81.78,78a33.2,33.2,0,0,1,2.45,15.59,33,33,0,0,1-15.62-2.45ZM45.08,94.67a5.54,5.54,0,0,1,1.05-7.74,5.59,5.59,0,0,1,7.8,1c6.66,8.75,16.76,13,29.37,12.55-.11.53-.22,1-.34,1.54a62.53,62.53,0,0,0-1.46,9.54C70.12,111.61,55.53,108.39,45.08,94.67Zm69.78,3.47a5.53,5.53,0,0,1,3.57,2.24,5.47,5.47,0,0,1,1,4.12,5.56,5.56,0,0,1-6.39,4.56l-.08,0a44.47,44.47,0,0,0-6-.41c.07-.31.13-.63.21-.94a77.42,77.42,0,0,0,1.67-10.09,55.27,55.27,0,0,1,6,.54Zm13.68,51.74,12.09-12.06a36.29,36.29,0,0,1,2.9,15A36.63,36.63,0,0,1,128.54,149.88Zm44.71,58.69a5.48,5.48,0,0,1-1.07,4.09,5.58,5.58,0,0,1-7.8,1.06c-11.81-9-17.68-22.88-16.9-39.24,0-.14,0-.29,0-.43v0a68.86,68.86,0,0,1,1.74-11.88,45.41,45.41,0,0,0,.93-5.62l0-.28a43.21,43.21,0,0,0-8.71-30.45l0,0a5.55,5.55,0,0,1,4.37-9,5.54,5.54,0,0,1,4.37,2.12,54.27,54.27,0,0,1,9.86,45.71c-4.08,17.47-.16,31.76,11.05,40.27a5.43,5.43,0,0,1,2.14,3.65Zm-5.34-18.31a33.08,33.08,0,0,1-2.44-15.6,33,33,0,0,1,15.62,2.45Zm37.78-12.58a5.5,5.5,0,0,1-2.14,3.67,5.56,5.56,0,0,1-7.78-1.06c-6.67-8.75-16.76-13-29.37-12.54.11-.54.22-1.05.34-1.54a62.69,62.69,0,0,0,1.45-9.54c11.39,0,26,3.22,36.43,16.93a5.45,5.45,0,0,1,1.07,4.08Z"/><path class="cls-5" d="M173.63,116.76a35.91,35.91,0,0,1,8,13.24,2,2,0,0,0,.14.34,12.48,12.48,0,0,0,16.54,6,12.44,12.44,0,0,0,6.05-16.4A60.29,60.29,0,0,0,191.94,100a12.44,12.44,0,0,0-17.5-.84,12.4,12.4,0,0,0-.87,17.51l.06.06Zm3.6-8.66a5.5,5.5,0,0,1,1.81-3.82,5.58,5.58,0,0,1,7.86.38l0,0A53.8,53.8,0,0,1,198,122.48l.1.24a5.58,5.58,0,0,1-2.69,7.4,5.61,5.61,0,0,1-7.37-2.54,42.53,42.53,0,0,0-9.46-15.51A5.53,5.53,0,0,1,177.23,108.1Z"/><path class="cls-5" d="M140.73,91.54a3.5,3.5,0,0,0,1.18.21,3.44,3.44,0,0,0,3.22-2.26l4.48-12.29a3.43,3.43,0,0,0-6.45-2.35l-4.47,12.29A3.43,3.43,0,0,0,140.73,91.54Z"/><path class="cls-5" d="M125.61,84.1a3.43,3.43,0,0,0,3.4,3l.46,0a3.43,3.43,0,0,0,2.94-3.85l-1.95-14.64a3.43,3.43,0,0,0-6.8.91Z"/><path class="cls-5" d="M154.79,96.42a3.42,3.42,0,0,0,2.31-.9l10.92-10a3.43,3.43,0,0,0-4.62-5.07l-10.92,10a3.43,3.43,0,0,0,2.31,6Z"/><path class="cls-5" d="M184.13,71.88a12.65,12.65,0,1,0-12.66-12.66A12.68,12.68,0,0,0,184.13,71.88Zm0-18.45a5.8,5.8,0,1,1-5.81,5.79A5.81,5.81,0,0,1,184.13,53.43Z"/><path class="cls-5" d="M60.09,156.08a12.65,12.65,0,1,0,12.67,12.66A12.68,12.68,0,0,0,60.09,156.08Zm0,18.45a5.8,5.8,0,1,1,5.82-5.79A5.81,5.81,0,0,1,60.09,174.53Z"/><path class="cls-5" d="M100.26,154.06a3.43,3.43,0,0,0-1.53,4.6v0a3.41,3.41,0,0,0,3.06,1.89,3.5,3.5,0,0,0,1.53-.36,3.44,3.44,0,0,0-3.07-6.15Z"/></g></g></svg>