<svg xmlns="http://www.w3.org/2000/svg" viewBox="0 0 257.7 257.7"><defs><style>.cls-1{fill:#888eba;stroke:#cbabc8;stroke-miterlimit:8;stroke-width:17px;}.cls-2{fill:#6c7fd8;}.cls-3{fill:#4f66d0;}.cls-4{fill:#fff9e2;}.cls-5{fill:#fff5c6;}.cls-6{fill:#8d9ca8;}.cls-7{fill:#7a8c98;}.cls-8{fill:#fd8087;}.cls-9{fill:#fe646f;}.cls-10{fill:#fd4755;}.cls-11{fill:#ef3349;}.cls-12{fill:#c8effe;}.cls-13{fill:#99e6fc;}.cls-14{fill:#62dbfb;}.cls-15{fill:#01d0fb;}</style></defs><g id="Слой_2" data-name="Слой 2"><g id="Слой_1-2" data-name="Слой 1"><circle class="cls-1" cx="128.85" cy="128.85" r="120.35"/><path class="cls-2" d="M192.2,141.46l-33.78,50.37H96.67l-7.48-11.15-26.3-39.22,24.94-38.54,7.24-11.19h65.69Z"/><path class="cls-3" d="M160.76,91.73H95.07l-7.25,11.19a19.28,19.28,0,0,1,9.37-2.44H136.4a19.19,19.19,0,0,1,14.33,6.43L179.24,139a3.63,3.63,0,0,1,0,4.81L150.73,176a19.17,19.17,0,0,1-14.33,6.44H97.19a19.17,19.17,0,0,1-8-1.75l7.48,11.15h61.75l33.78-50.37Z"/><path class="cls-4" d="M168.22,100.48l-.49,2.28-1.64,7.68a7.46,7.46,0,0,1-7,5.89H96.3a7.47,7.47,0,0,1-7.3-5.9l-2.13-10,40.67-4.74,20.73,2.41Z"/><path class="cls-5" d="M168.22,100.48l-.49,2.28-1.64,7.68a7.46,7.46,0,0,1-7,5.89H148.4c1.64,0,5.41-.54,6.66-1.45a3.49,3.49,0,0,0,.46-5.11L153,106.91c-3.64-4.09-5.83-6.43-7.1-6.43l2.4-2.33Z"/><path class="cls-5" d="M111.92,110.17a2.7,2.7,0,0,1-2.7-2.7v-7a2.7,2.7,0,0,1,5.4,0v7A2.7,2.7,0,0,1,111.92,110.17Z"/><path class="cls-5" d="M127.54,110.17a2.7,2.7,0,0,1-2.7-2.7v-7a2.7,2.7,0,0,1,5.4,0v7A2.7,2.7,0,0,1,127.54,110.17Z"/><path class="cls-5" d="M143.17,110.17a2.7,2.7,0,0,1-2.7-2.7v-7a2.7,2.7,0,0,1,5.4,0v7A2.7,2.7,0,0,1,143.17,110.17Z"/><path class="cls-6" d="M135.31,129.31l3.87.31c7,0,15.13,9.35,15.13,22.35,0,13.88-5.64,25.14-19.53,25.14H120.3a25.14,25.14,0,0,1-10.8-47.85L116,139l6.46,1.83A8.49,8.49,0,0,0,136,132.36Z"/><path class="cls-7" d="M117.75,127a25.18,25.18,0,0,0-8.25,2.31l-.58,3.46a8.48,8.48,0,0,0,13.55,8.12,8.47,8.47,0,0,1-3.16-8.12l.59-3.5a2,2,0,0,0-2.15-2.27Z"/><path class="cls-7" d="M135.31,129.31a25.15,25.15,0,0,1-10.92,47.8h10.39A25.14,25.14,0,0,0,137.42,127a2,2,0,0,0-2.11,2.35Z"/><path class="cls-8" d="M203.89,138.57,177.62,86.41a33.34,33.34,0,0,0-29.79-18.35h-5.06a11.42,11.42,0,0,0-2.11.19A11.7,11.7,0,0,0,135,71.06L129.46,76a2.88,2.88,0,0,1-2.62.65h0a2.9,2.9,0,0,1-1.22-.65l-5.48-4.94a11.72,11.72,0,0,0-7.82-3h-5.07a32.89,32.89,0,0,0-3.58.19,33.33,33.33,0,0,0-26.2,18.16L51.2,138.57a6.4,6.4,0,0,0,0,5.78l21,41.7A52.33,52.33,0,0,0,119,214.85h17.16c.62,0,1.23,0,1.84,0a52.37,52.37,0,0,0,44.93-28.77l21-41.71a6.44,6.44,0,0,0,0-5.77Zm-14,5.52L161.48,176a19.17,19.17,0,0,1-14.34,6.44h-39.2A19.17,19.17,0,0,1,93.61,176l-3.94-4.42L65.23,144.09a4,4,0,0,1,0-5.27l28.38-31.91a19.19,19.19,0,0,1,14.33-6.43h39.2a19.2,19.2,0,0,1,14.34,6.43l28.37,31.91a4,4,0,0,1,0,5.27Z"/><path class="cls-9" d="M126.84,76.65l-7,.14a7.87,7.87,0,0,1-5.24-2l-5.23-3.72a11.69,11.69,0,0,0-5.72-2.81h0a32.89,32.89,0,0,1,3.58-.19h5.07a11.72,11.72,0,0,1,7.82,3L125.62,76A2.9,2.9,0,0,0,126.84,76.65Z"/><path class="cls-9" d="M119,214.85a52.34,52.34,0,0,1-30.73-10,24.47,24.47,0,0,1-2-13.06l1.1-9a4.76,4.76,0,0,0-1.86-4.36A18.89,18.89,0,0,1,82.86,176L54.59,144.21a4.14,4.14,0,0,1,0-5.51l28.27-31.79a19.19,19.19,0,0,1,14.33-6.43h10.75a19.19,19.19,0,0,0-14.33,6.43L65.23,138.82a4,4,0,0,0,0,5.27l24.45,27.48L93.61,176a19.17,19.17,0,0,0,14.33,6.44h7.9Z"/><path class="cls-9" d="M203.89,144.34l-21,41.71A52.37,52.37,0,0,1,138,214.82c-.62,0-1.23,0-1.85,0H125.37a52.37,52.37,0,0,0,46.77-28.8l21.3-42.29a5.17,5.17,0,0,0,0-4.6L166.87,86.41a33.35,33.35,0,0,0-26.21-18.16,11.42,11.42,0,0,1,2.11-.19h5.06a33.34,33.34,0,0,1,29.79,18.35l26.27,52.16a6.44,6.44,0,0,1,0,5.77Z"/><path class="cls-10" d="M134,219.44h-12.9a24.6,24.6,0,0,1-24.42-27.61l1.73-14.14a22.13,22.13,0,0,1,22-19.44h14.34a22.13,22.13,0,0,1,22,19.44l1.74,14.14A24.62,24.62,0,0,1,134,219.44Z"/><path class="cls-11" d="M158.42,191.83l-1.74-14.14a22.13,22.13,0,0,0-22-19.44h-4.46c6.9,0,14.68,8.34,16,19.44L148,191.83a24.62,24.62,0,0,1-24.43,27.61H134A24.62,24.62,0,0,0,158.42,191.83Z"/><path class="cls-6" d="M192.56,43.53,185.14,63l-8-2-7.85-4,5.34-14a3.68,3.68,0,0,1,3.44-2.38h12.45a2.18,2.18,0,0,1,2,3Z"/><path class="cls-7" d="M181.47,40.57A2.58,2.58,0,0,1,183.23,44l-6.08,16v1l8,2,7.42-19.47a2.18,2.18,0,0,0-2-3Z"/><path class="cls-12" d="M178.23,91.67,165,91l-9.62-8,9-23.61a4,4,0,0,1,5.14-2.3l15.42,5.87a4,4,0,0,1,2.3,5.14Z"/><path class="cls-13" d="M184.93,62.91,169.51,57a4,4,0,0,0-5.14,2.3l-.16.42a4,4,0,0,1,3.06-.09l8.5,3.24a4,4,0,0,1,2.3,5.14l-7.84,20.57,1.64,2.71,6.36.34,9-23.62a4,4,0,0,0-2.3-5.14Z"/><path class="cls-13" d="M167.08,90.12a2.71,2.71,0,0,1-2.52-3.67l5.29-13.77a2.7,2.7,0,1,1,5,1.93l-5.28,13.78a2.72,2.72,0,0,1-2.53,1.73Z"/><path class="cls-14" d="M178.34,91.71l-23.08-8.8a12.72,12.72,0,0,0-16.42,7.36,5.31,5.31,0,0,0,3.07,6.85l36.94,14.08a5.31,5.31,0,0,0,6.85-3.07,12.72,12.72,0,0,0-7.36-16.42Z"/><path class="cls-15" d="M178.34,91.71l-23.08-8.8a12.71,12.71,0,0,0-9.11,0l23,8.78a12.71,12.71,0,0,1,7.36,16.42,5.37,5.37,0,0,1-1.11,1.77l3.42,1.3a5.31,5.31,0,0,0,6.85-3.07A12.72,12.72,0,0,0,178.34,91.71Z"/><path class="cls-11" d="M130.25,158.25V186.8a2.7,2.7,0,1,1-5.4,0V158.25Z"/><path class="cls-12" d="M82.72,47.92a2.71,2.71,0,0,0-3.29,1.93L78,55.57a2.7,2.7,0,0,0,1.94,3.29,3.07,3.07,0,0,0,.67.08,2.7,2.7,0,0,0,2.61-2l1.48-5.72A2.7,2.7,0,0,0,82.72,47.92Z"/><path class="cls-12" d="M66.08,53.57a2.7,2.7,0,0,0-3.81,3.82l4.17,4.16a2.7,2.7,0,0,0,3.81-3.82Z"/><path class="cls-12" d="M64.44,69.32,58.76,70.9a2.7,2.7,0,0,0,.72,5.3,2.55,2.55,0,0,0,.72-.1l5.69-1.57a2.7,2.7,0,1,0-1.45-5.21Z"/></g></g></svg>