<svg xmlns="http://www.w3.org/2000/svg" viewBox="0 0 257.7 257.7"><defs><style>.cls-1{fill:#888eba;stroke:#cbabc8;stroke-miterlimit:8;stroke-width:17px;}.cls-2{fill:#f2f2f2;}.cls-3{fill:#fff;}.cls-4{fill:#ccc;}.cls-5{fill:#ffdf5a;}.cls-6{fill:#acf;}</style></defs><g id="Слой_2" data-name="Слой 2"><g id="Слой_1-2" data-name="Слой 1"><circle class="cls-1" cx="128.85" cy="128.85" r="120.35"/><path class="cls-2" d="M155.81,60.57c23.34,0,37.61,33.5,24.22,60.08-5.63,11.14-8.54,14.92-10.37,25.73-2.55,15.14-1.31,23.94-10.18,41.17-8.23,16-22.7,12-22.7,0V171.5c0-9.32-3.27-14.56-10.88-14.56S115,162.17,115,171.5v16.05c0,12-14.46,16-22.7,0-8.87-17.23-7.63-26-10.18-41.17-1.82-10.81-4.74-14.59-10.37-25.73C58.38,94.07,72.66,60.57,96,60.57c12.69,0,22.69,6.77,29.71,7.82,9.35,1.38,13.93-7.82,30.1-7.82Z"/><path class="cls-3" d="M76.58,94.58c0,11.2,13.73,9.88,13.73,0,0-8.88,6.2-14.89,12.69-15.58,6.87-.71,4.41-6.49,1-7.36C89.21,67.83,76.58,82.19,76.58,94.58Z"/><path class="cls-4" d="M155.81,60.57a37.57,37.57,0,0,0-6.1.51c20.46,4.15,32,34.84,19.51,59.56-5.63,11.14-8.55,14.92-10.37,25.74-2.55,15.12-1.31,23.94-10.2,41.17-2.26,4.41-5,7.24-7.77,8.87,4.89,3.53,13.13,1.77,18.6-8.87,8.87-17.23,7.63-26.05,10.18-41.17,1.84-10.82,4.75-14.6,10.37-25.74,13.39-26.57-.88-60.07-24.22-60.07Z"/><path class="cls-4" d="M104.22,175.78v11.77a10.57,10.57,0,0,1-4.1,8.87c7.32,4.27,14.91-.18,14.91-8.87V171.48c0-6.67,1.72-11.2,5.47-13.27C105.89,158.21,104.31,168.93,104.22,175.78Z"/><path class="cls-5" d="M183.91,70.42a2.56,2.56,0,0,0-2.25,1.91,20.48,20.48,0,0,1-14.49,14.46,2.59,2.59,0,0,0,0,5,20.48,20.48,0,0,1,14.49,14.46,2.57,2.57,0,0,0,5,0,20.48,20.48,0,0,1,14.48-14.46,2.58,2.58,0,0,0,0-5,20.46,20.46,0,0,1-14.48-14.46,2.57,2.57,0,0,0-2.72-1.91Z"/><path class="cls-6" d="M61.58,90.42C44.64,90,27.7,91.83,27,103.21c-.86,14,22.51,35.78,80.55,58.85,52.62,20.92,105.1,25.42,116.34,11.82,8.23-10-6-27.19-40.81-46.66-2.71,2.45-5.17,7.68-6.1,11,13.94,7.54,29.24,18.11,24.33,24.38-7.84,10-55.86-.87-85.87-11.89-6.81-2.53-35.19-12-54.58-26.22-13.55-10-13.1-18,.88-19-1.07-4.34-1-12.37-.14-15.13Z"/></g></g></svg>