<svg xmlns="http://www.w3.org/2000/svg" viewBox="0 0 257.7 257.7"><defs><style>.cls-1{fill:#888eba;stroke:#cbabc8;stroke-miterlimit:8;stroke-width:17px;}.cls-2{fill:#b0da87;}.cls-3{fill:#fff;}.cls-4{fill:#4e5660;}.cls-5{fill:#8daee1;}.cls-6{fill:#6a95d6;}.cls-7{fill:#fbf1cf;}.cls-8{fill:#fae0bd;}</style></defs><g id="Слой_2" data-name="Слой 2"><g id="Слой_1-2" data-name="Слой 1"><circle class="cls-1" cx="128.85" cy="128.85" r="120.35"/><path class="cls-2" d="M106.63,40.06c29,0,53.08,9.87,53.08,40,0,12.72-4.29,21.83-11.43,28.11a4.51,4.51,0,0,0-1.4,4.57A65.89,65.89,0,0,0,152.47,127a5.18,5.18,0,0,1-4.69,7.67c-9.71-.27-20.31-4.8-28.25-13.43a4.53,4.53,0,0,0-3.69-1.47c-3,.25-6.08.36-9.21.36-29,0-53.08-9.86-53.08-40s24.12-40,53.08-40Z"/><ellipse class="cls-3" cx="71.47" cy="73.29" rx="9.64" ry="7.68"/><ellipse class="cls-3" cx="123.72" cy="73.29" rx="9.64" ry="7.68"/><path class="cls-4" d="M81.68,67.36a2.42,2.42,0,0,1-2.43-2.42,2.16,2.16,0,0,0-4.32,0,2.43,2.43,0,0,1-4.85,0,7,7,0,1,1,14,0A2.42,2.42,0,0,1,81.68,67.36Z"/><path class="cls-4" d="M122.69,67.36a2.42,2.42,0,0,1-2.42-2.42,2.17,2.17,0,0,0-4.33,0,2.43,2.43,0,0,1-4.85,0,7,7,0,1,1,14,0A2.42,2.42,0,0,1,122.69,67.36Z"/><path class="cls-4" d="M97.6,74.94a8.9,8.9,0,0,1-6.7-3,2.43,2.43,0,1,1,3.66-3.19,4,4,0,0,0,6.08,0,2.42,2.42,0,1,1,3.65,3.19A8.88,8.88,0,0,1,97.6,74.94Z"/><path class="cls-5" d="M166.12,70.67c29,0,53.08,9.86,53.08,40,0,12.72-4.29,21.82-11.43,28.1a4.53,4.53,0,0,0-1.4,4.57A66.2,66.2,0,0,0,212,157.57a5.17,5.17,0,0,1-4.68,7.67C197.57,165,187,160.45,179,151.81a4.48,4.48,0,0,0-3.69-1.46q-4.5.36-9.21.36c-29,0-53.08-9.87-53.08-40s24.13-40,53.08-40Z"/><path class="cls-6" d="M149.45,110.31c-9-5.85-20.9-9.23-35.3-10.08A47.14,47.14,0,0,0,113,110.69c0,30.15,24.13,40,53.08,40,1.21,0,2.4,0,3.58-.06,0-.21,0-.42,0-.63C169.71,132.6,162.71,118.87,149.45,110.31Z"/><path class="cls-3" d="M183.39,124.49,169.25,87a.19.19,0,0,0,0-.07,3.27,3.27,0,0,0-3-2h0a3.29,3.29,0,0,0-3,2l0,0-14.26,37.46a2.42,2.42,0,1,0,4.53,1.73l3-7.77h19.57l2.93,7.76a2.43,2.43,0,0,0,2.27,1.57,2.55,2.55,0,0,0,.86-.15,2.43,2.43,0,0,0,1.41-3.13Zm-25.19-10.9,8-21,7.91,21Z"/><path class="cls-7" d="M106.63,110c-29,0-53.08,9.86-53.08,40,0,12.71,4.29,21.82,11.43,28.1a4.53,4.53,0,0,1,1.4,4.57,66.2,66.2,0,0,1-5.59,14.21,5.17,5.17,0,0,0,4.69,7.67c9.7-.27,20.3-4.79,28.25-13.43a4.52,4.52,0,0,1,3.69-1.47c3,.25,6.07.36,9.21.36,29,0,53.08-9.86,53.08-40s-24.13-40-53.08-40Z"/><path class="cls-8" d="M85.31,112.2C66.73,116.53,53.55,127.73,53.55,150c0,12.71,4.29,21.82,11.43,28.1a4.53,4.53,0,0,1,1.4,4.57,66.2,66.2,0,0,1-5.59,14.21,5.17,5.17,0,0,0,4.69,7.67c9.7-.27,20.3-4.79,28.25-13.43a4.52,4.52,0,0,1,3.69-1.47c3,.25,6.07.36,9.21.36s6.4-.12,9.48-.38c-35.28-10.82-41-60.84-30.8-77.46Z"/><path class="cls-4" d="M123.41,133H109.09v-6.46a2.43,2.43,0,0,0-4.85,0V133H89.91a2.43,2.43,0,0,0,0,4.85H113.6c-.53,6-3.41,12.49-7.76,18.2a26.56,26.56,0,0,1-5.64-7,2.42,2.42,0,0,0-4.28,2.28,31.36,31.36,0,0,0,6.79,8.41A42.43,42.43,0,0,1,94,166.92a2.43,2.43,0,1,0,2.53,4.14,47.52,47.52,0,0,0,10-8.32,26.29,26.29,0,0,0,9.6,4,2.25,2.25,0,0,0,.44,0,2.42,2.42,0,0,0,.43-4.81,21.17,21.17,0,0,1-7.32-2.95c.77-1,1.51-2.06,2.21-3.13a38.62,38.62,0,0,0,6.55-18h4.94a2.43,2.43,0,1,0,0-4.85Z"/></g></g></svg>