<svg xmlns="http://www.w3.org/2000/svg" viewBox="0 0 257.7 257.7"><defs><style>.cls-1{fill:#888eba;stroke:#cbabc8;stroke-miterlimit:8;stroke-width:17px;}.cls-2{fill:#2d2c2c;}.cls-3{fill:#5696f4;}.cls-4{fill:#f5efca;}.cls-5{fill:#285680;}.cls-6{fill:#c03a2b;}.cls-7{fill:#d98a4a;}.cls-8{fill:#b19046;}.cls-9{fill:#ecc6a7;}.cls-10{fill:#cbb292;}.cls-11{fill:#2fa8cc;}.cls-12{fill:#4fba6f;}.cls-13{fill:#b0d3f0;}.cls-14{fill:#f29c1f;}.cls-15{fill:#e1a472;}</style></defs><g id="Слой_2" data-name="Слой 2"><g id="Слой_1-2" data-name="Слой 1"><circle class="cls-1" cx="128.85" cy="128.85" r="120.35"/><g id="_019---Languages" data-name="019---Languages"><path id="Shape" class="cls-2" d="M231.2,164.55V190H164.51a95.8,95.8,0,0,1,3.94-12.71h7c3.83,0,7-5.71,7-12.7Z"/><path id="Shape-2" data-name="Shape" class="cls-3" d="M231.2,161.38v9.52H186.74V158.2H228A3.17,3.17,0,0,1,231.2,161.38Z"/><path id="Rectangle-path" class="cls-4" d="M196.27,56.57H218.5V94.68H196.27Z"/><path id="Rectangle-path-2" data-name="Rectangle-path" class="cls-5" d="M180.39,56.57h19.06V94.68H180.39Z"/><path id="Shape-3" data-name="Shape" class="cls-6" d="M231.2,59.75V91.51A3.17,3.17,0,0,1,228,94.68h-12.7V56.57H228A3.18,3.18,0,0,1,231.2,59.75Z"/><path id="Shape-4" data-name="Shape" class="cls-4" d="M180.39,107.39H228a3.17,3.17,0,0,1,3.17,3.17v31.76A3.18,3.18,0,0,1,228,145.5H180.39Z"/><circle id="Oval" class="cls-6" cx="208.97" cy="126.44" r="6.35"/><path id="Shape-5" data-name="Shape" class="cls-7" d="M62.89,44.16l12.7,133.38a18.52,18.52,0,0,0-10.29,5.3C61.84,186.27,47,191,47,196.31V62.93A19,19,0,0,1,62.89,44.16Z"/><path id="Shape-6" data-name="Shape" class="cls-8" d="M186.74,196.31v9.53a9.54,9.54,0,0,1-9.52,9.52H174c-.51-.69-9.08-4.6-9.53-5.33a39,39,0,0,1-2.63-5.3,30.75,30.75,0,0,1-2.29-11.6Z"/><path id="Shape-7" data-name="Shape" class="cls-9" d="M186.74,50.22V170.9c0,3.5-2.85,9.53-6.35,9.53l-114.33-.29a16.6,16.6,0,0,0-3.14.29h0V44.16a16.84,16.84,0,0,1,3.17-.29H180.39A6.37,6.37,0,0,1,186.74,50.22Z"/><path id="Shape-8" data-name="Shape" class="cls-4" d="M174,214.17c-112.65,0-106.41.1-108.29-.17a17.71,17.71,0,0,1-1.35-35.29c12.37,0-42.62-.26,109.65-.26a28.6,28.6,0,0,0,0,35.72Z"/><path id="Shape-9" data-name="Shape" class="cls-10" d="M116.88,199.49h-54a3.18,3.18,0,1,1,0-6.36h54a3.18,3.18,0,0,1,0,6.36Z"/><path id="Shape-10" data-name="Shape" class="cls-11" d="M164.32,116.12a43,43,0,0,1-14.86,18.42v0a39.63,39.63,0,0,0-9.69-2,42.33,42.33,0,0,0-13.18.86,30.93,30.93,0,0,0-13.21,7.36,42.65,42.65,0,0,1-11.4-5v0a40.4,40.4,0,0,0,1.49-6.42,37.32,37.32,0,0,0-.85-9.43c-.73-6.54,3.78-11.63,4.32-18a5.17,5.17,0,0,0-3.34-5.43c-3.14-1.36-6.73-1.42-9.84-2.7A14.86,14.86,0,0,1,85.5,82.33a42.37,42.37,0,0,1,7.37-11.46,78.53,78.53,0,0,0,19.43-2.23,21,21,0,0,0,15.34-12A42.72,42.72,0,0,1,143.84,61v0l0,0a33,33,0,0,1-13.25,9.44,13.59,13.59,0,0,0-8,8.86c-1,5.81,4.54,9.33,9.43,10.41,5.81,1.31,11,4.54,11,11.09a23,23,0,0,1-1.78,8,30.81,30.81,0,0,0-2.82,9.53,6.1,6.1,0,0,0,7.59,6.06,17.73,17.73,0,0,0,7.4-3.08c.25-.16.51-.32.76-.51a30.23,30.23,0,0,1,10.16-4.76Z"/><path id="Shape-11" data-name="Shape" class="cls-12" d="M102.62,119.87a37.32,37.32,0,0,1,.85,9.43,40.4,40.4,0,0,1-1.49,6.42v0A42.91,42.91,0,0,1,85.5,82.33a14.86,14.86,0,0,0,8.26,11.46c3.11,1.28,6.7,1.34,9.84,2.7a5.17,5.17,0,0,1,3.34,5.43c-.54,6.32-5,11.41-4.32,18Z"/><path id="Shape-12" data-name="Shape" class="cls-13" d="M127.64,56.67a21,21,0,0,1-15.34,12,78.53,78.53,0,0,1-19.43,2.23,42.74,42.74,0,0,1,31.95-14.3C125.77,56.57,126.69,56.61,127.64,56.67Z"/><path id="Shape-13" data-name="Shape" class="cls-13" d="M149.46,134.51v0a42.86,42.86,0,0,1-36.08,6.22,30.93,30.93,0,0,1,13.21-7.36,42.33,42.33,0,0,1,13.18-.86,39.63,39.63,0,0,1,9.69,2Z"/><path id="Shape-14" data-name="Shape" class="cls-12" d="M167.69,99.45a43,43,0,0,1-3.37,16.67,30.23,30.23,0,0,0-10.16,4.76c-.25.19-.51.35-.76.51a17.73,17.73,0,0,1-7.4,3.08,6.1,6.1,0,0,1-7.59-6.06,30.81,30.81,0,0,1,2.82-9.53,23,23,0,0,0,1.78-8c0-6.55-5.24-9.78-11-11.09-4.89-1.08-10.48-4.6-9.43-10.41a13.59,13.59,0,0,1,8-8.86,33,33,0,0,0,13.25-9.44l0,0v0a42.88,42.88,0,0,1,23.85,38.43Z"/><path id="Shape-15" data-name="Shape" class="cls-14" d="M151.81,158.2h-54a3.18,3.18,0,0,1,0-6.35h54a3.18,3.18,0,1,1,0,6.35Z"/><path id="Shape-16" data-name="Shape" class="cls-15" d="M64,183.8c1.43-.29-6.09-.19,113.22-.19a9.56,9.56,0,0,0,9.52-9.53V170.9a6.36,6.36,0,0,1-6.35,6.35H66.06A18.87,18.87,0,0,0,52.34,209.2a20.26,20.26,0,0,0,14.2,6.16H177.22a9.54,9.54,0,0,0,9.52-9.52v-9.53a3.18,3.18,0,1,0-6.35,0v9.53a3.17,3.17,0,0,1-3.17,3.17H66.83a13.28,13.28,0,0,1-13.47-13.18A12.68,12.68,0,0,1,64,183.8Zm108.22,28.71-.35-.64Z"/><path id="Shape-17" data-name="Shape" class="cls-6" d="M96.4,227.73l-6.69-3.35a3.22,3.22,0,0,0-2.84,0l-6.68,3.35a3.18,3.18,0,0,1-4.6-2.84V196.31H101v28.58a3.18,3.18,0,0,1-4.6,2.84Z"/><path id="Shape-18" data-name="Shape" class="cls-4" d="M231.2,183.61v9.52a3.17,3.17,0,0,1-3.17,3.18H167.69a30.56,30.56,0,0,1,2.76-12.7Z"/></g></g></g></svg>