<svg xmlns="http://www.w3.org/2000/svg" viewBox="0 0 317.71 317.43"><defs><style>.cls-1{fill:#888eba;}.cls-2,.cls-3{fill:none;stroke-miterlimit:8;stroke-width:9px;}.cls-2{stroke:#cbabc8;}.cls-3{stroke:#fff;}.cls-4{fill:#fbe2cb;}.cls-5{fill:#e4c95c;}.cls-6{fill:#fff;}.cls-7{fill:#ffd542;}.cls-8{fill:#0e4a77;}.cls-9{fill:#073d6f;}.cls-10{fill:#dfe9f4;}.cls-11{fill:#afa7d4;}.cls-12{fill:#003;}</style></defs><g id="Слой_2" data-name="Слой 2"><g id="Слой_1-2" data-name="Слой 1"><path class="cls-1" d="M312,158.94c1.76-3.68,1.56-9.67-.42-13a17.07,17.07,0,0,1-1.25-12.45c1.27-3.65.33-9.1-2-11.87a14.68,14.68,0,0,1-2.8-11.28c.8-3.6-.82-8.52-3.52-10.72a13.06,13.06,0,0,1-4.2-10.13,10.86,10.86,0,0,0-4.84-9.56,11.91,11.91,0,0,1-5.44-9,10.16,10.16,0,0,0-6-8.4A11.21,11.21,0,0,1,275,54.72a9.74,9.74,0,0,0-7-7.24,10.84,10.84,0,0,1-7.48-6.67,9.58,9.58,0,0,0-7.91-6.08,10.7,10.7,0,0,1-8.28-5.51,9.56,9.56,0,0,0-8.62-4.93A10.65,10.65,0,0,1,226.69,20a9.59,9.59,0,0,0-9.19-3.77A10.68,10.68,0,0,1,208.09,13a9.74,9.74,0,0,0-9.61-2.62A10.18,10.18,0,0,1,188.8,8.3c-2.26-2.17-6.91-2.86-9.88-1.45A10.83,10.83,0,0,1,169,6c-2.64-1.9-7.06-1.91-10-.3A10.4,10.4,0,0,1,149,6a9.82,9.82,0,0,0-10,.86,10.76,10.76,0,0,1-9.87,1.44,9.3,9.3,0,0,0-9.71,2,10.75,10.75,0,0,1-9.62,2.6A9.66,9.66,0,0,0,100.37,16a10.66,10.66,0,0,1-9.2,3.75,9.61,9.61,0,0,0-8.94,4.34,10.7,10.7,0,0,1-8.64,4.93,9.56,9.56,0,0,0-8.31,5.5,10.74,10.74,0,0,1-7.92,6.08,9.68,9.68,0,0,0-7.51,6.66,11,11,0,0,1-7.05,7.24,10,10,0,0,0-6.57,7.83,11.54,11.54,0,0,1-6,8.4,10.49,10.49,0,0,0-5.47,9,12.53,12.53,0,0,1-4.86,9.57c-2.84,1.91-4.78,6.58-4.22,10.15a13.9,13.9,0,0,1-3.54,10.73c-2.55,2.47-3.85,7.67-2.82,11.31a15.89,15.89,0,0,1-2.07,11.89C5,136.46,4.45,142.2,6,145.88a18.56,18.56,0,0,1-.43,13.06"/><path class="cls-2" d="M312,158.94c1.76-3.68,1.56-9.67-.42-13a17.07,17.07,0,0,1-1.25-12.45c1.27-3.65.33-9.1-2-11.87a14.68,14.68,0,0,1-2.8-11.28c.8-3.6-.82-8.52-3.52-10.72a13.06,13.06,0,0,1-4.2-10.13,10.86,10.86,0,0,0-4.84-9.56,11.91,11.91,0,0,1-5.44-9,10.16,10.16,0,0,0-6-8.4A11.21,11.21,0,0,1,275,54.72a9.74,9.74,0,0,0-7-7.24,10.84,10.84,0,0,1-7.48-6.67,9.58,9.58,0,0,0-7.91-6.08,10.7,10.7,0,0,1-8.28-5.51,9.56,9.56,0,0,0-8.62-4.93A10.65,10.65,0,0,1,226.69,20a9.59,9.59,0,0,0-9.19-3.77A10.68,10.68,0,0,1,208.09,13a9.74,9.74,0,0,0-9.61-2.62A10.18,10.18,0,0,1,188.8,8.3c-2.26-2.17-6.91-2.86-9.88-1.45A10.83,10.83,0,0,1,169,6c-2.64-1.9-7.06-1.91-10-.3A10.4,10.4,0,0,1,149,6a9.82,9.82,0,0,0-10,.86,10.76,10.76,0,0,1-9.87,1.44,9.3,9.3,0,0,0-9.71,2,10.75,10.75,0,0,1-9.62,2.6A9.66,9.66,0,0,0,100.37,16a10.66,10.66,0,0,1-9.2,3.75,9.61,9.61,0,0,0-8.94,4.34,10.7,10.7,0,0,1-8.64,4.93,9.56,9.56,0,0,0-8.31,5.5,10.74,10.74,0,0,1-7.92,6.08,9.68,9.68,0,0,0-7.51,6.66,11,11,0,0,1-7.05,7.24,10,10,0,0,0-6.57,7.83,11.54,11.54,0,0,1-6,8.4,10.49,10.49,0,0,0-5.47,9,12.53,12.53,0,0,1-4.86,9.57c-2.84,1.91-4.78,6.58-4.22,10.15a13.9,13.9,0,0,1-3.54,10.73c-2.55,2.47-3.85,7.67-2.82,11.31a15.89,15.89,0,0,1-2.07,11.89C5,136.46,4.45,142.2,6,145.88a18.56,18.56,0,0,1-.43,13.06"/><path class="cls-1" d="M312.26,158.37a18.65,18.65,0,0,0-.44,13.07c1.51,3.69.92,9.43-1.27,12.48a15.88,15.88,0,0,0-2.07,11.9c1,3.64-.27,8.85-2.83,11.32a13.92,13.92,0,0,0-3.54,10.74c.55,3.56-1.39,8.23-4.23,10.15A12.51,12.51,0,0,0,293,237.6a10.49,10.49,0,0,1-5.47,9,11.6,11.6,0,0,0-6.05,8.41,9.94,9.94,0,0,1-6.57,7.83,11,11,0,0,0-7.06,7.24,9.65,9.65,0,0,1-7.51,6.66,10.79,10.79,0,0,0-7.93,6.09,9.6,9.6,0,0,1-8.31,5.5,10.67,10.67,0,0,0-8.65,4.92,9.59,9.59,0,0,1-8.94,4.33,10.73,10.73,0,0,0-9.22,3.76,9.69,9.69,0,0,1-9.43,3.18,10.79,10.79,0,0,0-9.63,2.59,9.3,9.3,0,0,1-9.71,2,10.75,10.75,0,0,0-9.88,1.44,9.82,9.82,0,0,1-10,.85,11.2,11.2,0,0,0-10,.28,9.48,9.48,0,0,1-10-.26,10.82,10.82,0,0,0-10-.88c-3,1.41-7.62.72-9.88-1.46a10.2,10.2,0,0,0-9.68-2.07,9.71,9.71,0,0,1-9.6-2.62,10.71,10.71,0,0,0-9.42-3.19A9.61,9.61,0,0,1,91,297.37,10.66,10.66,0,0,0,82,293a9.54,9.54,0,0,1-8.62-4.93,10.7,10.7,0,0,0-8.28-5.51,9.55,9.55,0,0,1-7.9-6.09,10.84,10.84,0,0,0-7.49-6.66,9.77,9.77,0,0,1-7-7.25,11.22,11.22,0,0,0-6.53-7.82,10.12,10.12,0,0,1-6-8.4,11.93,11.93,0,0,0-5.44-9c-2.95-1.65-5.17-6-4.84-9.55a13,13,0,0,0-4.19-10.13C13,215.5,11.4,210.58,12.2,207A14.7,14.7,0,0,0,9.4,195.7c-2.37-2.76-3.31-8.21-2-11.87a17,17,0,0,0-1.24-12.44c-2-3.35-2.17-9.33-.42-13"/><path class="cls-2" d="M312.26,158.37a18.65,18.65,0,0,0-.44,13.07c1.51,3.69.92,9.43-1.27,12.48a15.88,15.88,0,0,0-2.07,11.9c1,3.64-.27,8.85-2.83,11.32a13.92,13.92,0,0,0-3.54,10.74c.55,3.56-1.39,8.23-4.23,10.15A12.51,12.51,0,0,0,293,237.6a10.49,10.49,0,0,1-5.47,9,11.6,11.6,0,0,0-6.05,8.41,9.94,9.94,0,0,1-6.57,7.83,11,11,0,0,0-7.06,7.24,9.65,9.65,0,0,1-7.51,6.66,10.79,10.79,0,0,0-7.93,6.09,9.6,9.6,0,0,1-8.31,5.5,10.67,10.67,0,0,0-8.65,4.92,9.59,9.59,0,0,1-8.94,4.33,10.73,10.73,0,0,0-9.22,3.76,9.69,9.69,0,0,1-9.43,3.18,10.79,10.79,0,0,0-9.63,2.59,9.3,9.3,0,0,1-9.71,2,10.75,10.75,0,0,0-9.88,1.44,9.82,9.82,0,0,1-10,.85,11.2,11.2,0,0,0-10,.28,9.48,9.48,0,0,1-10-.26,10.82,10.82,0,0,0-10-.88c-3,1.41-7.62.72-9.88-1.46a10.2,10.2,0,0,0-9.68-2.07,9.71,9.71,0,0,1-9.6-2.62,10.71,10.71,0,0,0-9.42-3.19A9.61,9.61,0,0,1,91,297.37,10.66,10.66,0,0,0,82,293a9.54,9.54,0,0,1-8.62-4.93,10.7,10.7,0,0,0-8.28-5.51,9.55,9.55,0,0,1-7.9-6.09,10.84,10.84,0,0,0-7.49-6.66,9.77,9.77,0,0,1-7-7.25,11.22,11.22,0,0,0-6.53-7.82,10.12,10.12,0,0,1-6-8.4,11.93,11.93,0,0,0-5.44-9c-2.95-1.65-5.17-6-4.84-9.55a13,13,0,0,0-4.19-10.13C13,215.5,11.4,210.58,12.2,207A14.7,14.7,0,0,0,9.4,195.7c-2.37-2.76-3.31-8.21-2-11.87a17,17,0,0,0-1.24-12.44c-2-3.35-2.17-9.33-.42-13"/><path class="cls-3" d="M312,158.94c1.76-3.68,1.56-9.67-.42-13a17.07,17.07,0,0,1-1.25-12.45c1.27-3.65.33-9.1-2-11.87a14.68,14.68,0,0,1-2.8-11.28c.8-3.6-.82-8.52-3.52-10.72a13.06,13.06,0,0,1-4.2-10.13,10.86,10.86,0,0,0-4.84-9.56,11.91,11.91,0,0,1-5.44-9,10.16,10.16,0,0,0-6-8.4A11.21,11.21,0,0,1,275,54.72a9.74,9.74,0,0,0-7-7.24,10.84,10.84,0,0,1-7.48-6.67,9.58,9.58,0,0,0-7.91-6.08,10.7,10.7,0,0,1-8.28-5.51,9.56,9.56,0,0,0-8.62-4.93A10.65,10.65,0,0,1,226.69,20a9.59,9.59,0,0,0-9.19-3.77A10.68,10.68,0,0,1,208.09,13a9.74,9.74,0,0,0-9.61-2.62A10.18,10.18,0,0,1,188.8,8.3c-2.26-2.17-6.91-2.86-9.88-1.45A10.83,10.83,0,0,1,169,6c-2.64-1.9-7.06-1.91-10-.3A10.4,10.4,0,0,1,149,6a9.82,9.82,0,0,0-10,.86,10.76,10.76,0,0,1-9.87,1.44,9.3,9.3,0,0,0-9.71,2,10.75,10.75,0,0,1-9.62,2.6A9.66,9.66,0,0,0,100.37,16a10.66,10.66,0,0,1-9.2,3.75,9.61,9.61,0,0,0-8.94,4.34,10.7,10.7,0,0,1-8.64,4.93,9.56,9.56,0,0,0-8.31,5.5,10.74,10.74,0,0,1-7.92,6.08,9.68,9.68,0,0,0-7.51,6.66,11,11,0,0,1-7.05,7.24,10,10,0,0,0-6.57,7.83,11.54,11.54,0,0,1-6,8.4,10.49,10.49,0,0,0-5.47,9,12.53,12.53,0,0,1-4.86,9.57c-2.84,1.91-4.78,6.58-4.22,10.15a13.9,13.9,0,0,1-3.54,10.73c-2.55,2.47-3.85,7.67-2.82,11.31a15.89,15.89,0,0,1-2.07,11.89C5,136.46,4.45,142.2,6,145.88a18.56,18.56,0,0,1-.43,13.06"/><path class="cls-3" d="M312.26,158.37a18.65,18.65,0,0,0-.44,13.07c1.51,3.69.92,9.43-1.27,12.48a15.88,15.88,0,0,0-2.07,11.9c1,3.64-.27,8.85-2.83,11.32a13.92,13.92,0,0,0-3.54,10.74c.55,3.56-1.39,8.23-4.23,10.15A12.51,12.51,0,0,0,293,237.6a10.49,10.49,0,0,1-5.47,9,11.6,11.6,0,0,0-6.05,8.41,9.94,9.94,0,0,1-6.57,7.83,11,11,0,0,0-7.06,7.24,9.65,9.65,0,0,1-7.51,6.66,10.79,10.79,0,0,0-7.93,6.09,9.6,9.6,0,0,1-8.31,5.5,10.67,10.67,0,0,0-8.65,4.92,9.59,9.59,0,0,1-8.94,4.33,10.73,10.73,0,0,0-9.22,3.76,9.69,9.69,0,0,1-9.43,3.18,10.79,10.79,0,0,0-9.63,2.59,9.3,9.3,0,0,1-9.71,2,10.75,10.75,0,0,0-9.88,1.44,9.82,9.82,0,0,1-10,.85,11.2,11.2,0,0,0-10,.28,9.48,9.48,0,0,1-10-.26,10.82,10.82,0,0,0-10-.88c-3,1.41-7.62.72-9.88-1.46a10.2,10.2,0,0,0-9.68-2.07,9.71,9.71,0,0,1-9.6-2.62,10.71,10.71,0,0,0-9.42-3.19A9.61,9.61,0,0,1,91,297.37,10.66,10.66,0,0,0,82,293a9.54,9.54,0,0,1-8.62-4.93,10.7,10.7,0,0,0-8.28-5.51,9.55,9.55,0,0,1-7.9-6.09,10.84,10.84,0,0,0-7.49-6.66,9.77,9.77,0,0,1-7-7.25,11.22,11.22,0,0,0-6.53-7.82,10.12,10.12,0,0,1-6-8.4,11.93,11.93,0,0,0-5.44-9c-2.95-1.65-5.17-6-4.84-9.55a13,13,0,0,0-4.19-10.13C13,215.5,11.4,210.58,12.2,207A14.7,14.7,0,0,0,9.4,195.7c-2.37-2.76-3.31-8.21-2-11.87a17,17,0,0,0-1.24-12.44c-2-3.35-2.17-9.33-.42-13"/><circle class="cls-4" cx="158.68" cy="161.45" r="113.33"/><path class="cls-5" d="M266.45,60.22l-2.92.8a5.33,5.33,0,0,0-3.73,3.74L259,67.67l-.8-2.91A5.36,5.36,0,0,0,254.45,61l-2.91-.8,2.91-.81a5.35,5.35,0,0,0,3.74-3.73l.8-2.92.81,2.92a5.32,5.32,0,0,0,3.73,3.73Z"/><path class="cls-5" d="M269.69,203.43l-1.57.44a2.91,2.91,0,0,0-2,2l-.43,1.58-.44-1.58a2.88,2.88,0,0,0-2-2l-1.57-.44,1.57-.43a2.88,2.88,0,0,0,2-2l.44-1.58.43,1.58a2.91,2.91,0,0,0,2,2Z"/><path class="cls-5" d="M65.05,61.52l-2,.55a3.68,3.68,0,0,0-2.56,2.55l-.55,2-.55-2a3.64,3.64,0,0,0-2.55-2.55l-2-.55,2-.55a3.64,3.64,0,0,0,2.55-2.56l.55-2,.55,2A3.67,3.67,0,0,0,63.06,61Z"/><path class="cls-5" d="M149.85,61.22l-.72.2a1.34,1.34,0,0,0-.93.93l-.2.73-.2-.73a1.33,1.33,0,0,0-.93-.92l-.73-.21.73-.2a1.32,1.32,0,0,0,.93-.93l.2-.72.2.72a1.31,1.31,0,0,0,.93.93Z"/><path class="cls-5" d="M267.52,165.88l-.73.2a1.34,1.34,0,0,0-.93.93l-.2.73-.2-.73a1.36,1.36,0,0,0-.93-.93l-.73-.2.73-.2a1.36,1.36,0,0,0,.93-.93l.2-.73.2.73a1.34,1.34,0,0,0,.93.93Z"/><path class="cls-5" d="M53.23,167.74l-.72.2a1.29,1.29,0,0,0-.93.93l-.2.72-.2-.72a1.32,1.32,0,0,0-.93-.93l-.73-.2.73-.2a1.36,1.36,0,0,0,.93-.93l.2-.73.2.73a1.32,1.32,0,0,0,.93.93Z"/><path class="cls-5" d="M190.75,61.22l-.19.06a.37.37,0,0,0-.24.23l0,.19-.05-.19a.33.33,0,0,0-.23-.23l-.19-.06.19,0a.33.33,0,0,0,.23-.23l.05-.19,0,.19a.37.37,0,0,0,.24.23Z"/><path class="cls-6" d="M147.84,195.43l-28.79,64"/><path class="cls-6" d="M170.67,195.43l28.79,64"/><path class="cls-7" d="M115.88,97.93v11.61H102.82V97.93a6.53,6.53,0,0,1,13.06,0Z"/><path class="cls-8" d="M127.12,95.66l-2.34,4.69a9.39,9.39,0,0,1-8.39,5.2H105.21a12,12,0,0,0-11.95,12v50.6a12,12,0,0,0,11.95,12H207.12a12,12,0,0,0,12-12V102.42a12,12,0,0,0-12-12H135.51a9.35,9.35,0,0,0-8.39,5.2Z"/><path class="cls-9" d="M219.08,102.41v65.7a11.94,11.94,0,0,1-12,11.95H105.2A12,12,0,0,1,93.28,168.9a12,12,0,0,0,2.52.26H197.7a12,12,0,0,0,12-11.95V91.54c0-.27,0-.56,0-.82a12,12,0,0,1,9.43,11.69Z"/><path class="cls-10" d="M121.74,103.78a9.27,9.27,0,0,1-5.35,1.77H105.21a12,12,0,0,0-11.95,12v50.6a12,12,0,0,0,11.95,12h16.53Z"/><path class="cls-11" d="M193.47,90.47H142.8L147,80.71a8.07,8.07,0,0,1,7.42-4.9h27.47a8.08,8.08,0,0,1,7.42,4.9Z"/><circle class="cls-11" cx="171.14" cy="135.23" r="33.91" transform="translate(-33.12 58.73) rotate(-17.78)"/><circle class="cls-8" cx="171.14" cy="135.23" r="18.16"/><path class="cls-10" d="M178.6,135.26a7.48,7.48,0,0,1-14.87,1.21,6.26,6.26,0,0,1-.11-1.21,7.48,7.48,0,0,1,7.49-7.5,5.63,5.63,0,0,1,.84.06,7.47,7.47,0,0,1,6.65,7.44Z"/><path class="cls-12" d="M172.65,130.68a6.34,6.34,0,0,1-6.34,6.35,6.23,6.23,0,0,1-2.58-.56,6.26,6.26,0,0,1-.11-1.21,7.48,7.48,0,0,1,7.49-7.5,5.63,5.63,0,0,1,.84.06,6.17,6.17,0,0,1,.7,2.86Z"/><path class="cls-8" d="M184.75,180.05V189a6.46,6.46,0,0,1-6.46,6.46H140.23a6.46,6.46,0,0,1-6.46-6.46v-8.92Z"/><path class="cls-12" d="M219.08,124.4a2.92,2.92,0,0,0,2.92-2.92V102.41a14.89,14.89,0,0,0-14.87-14.87H195.39l-3.42-8a10.94,10.94,0,0,0-10.11-6.66H165.44a2.92,2.92,0,1,0,0,5.84h16.42a5.14,5.14,0,0,1,4.74,3.13L189,87.53H147.24l2.43-5.66a5.14,5.14,0,0,1,4.73-3.13h3a2.92,2.92,0,1,0,0-5.84h-3a11,11,0,0,0-10.11,6.66l-3.42,8H135.5a12.27,12.27,0,0,0-11,6.83l-2.31,4.68a6.73,6.73,0,0,1-2,2.27c-.06,0-.12,0-.17.06a5.37,5.37,0,0,1-1.26.65V97.94a9.45,9.45,0,0,0-18.9,0v5.72a14.83,14.83,0,0,0-9.56,13.85v50.6A14.91,14.91,0,0,0,105.2,183h25.65v6a9.39,9.39,0,0,0,9.38,9.38h3.1l-26.94,59.86a2.88,2.88,0,0,0,1.46,3.85,2.79,2.79,0,0,0,1.2.26,2.93,2.93,0,0,0,2.66-1.72l28-62.25h6.6v61a2.92,2.92,0,0,0,5.84,0v-61h6.6l28,62.25a2.94,2.94,0,0,0,2.69,1.72,3,3,0,0,0,1.2-.26,2.93,2.93,0,0,0,1.46-3.85L175.2,198.35h3.1a9.39,9.39,0,0,0,9.38-9.38v-6h19.45A14.89,14.89,0,0,0,222,168.11V135.27a2.92,2.92,0,1,0-5.84,0v32.84a9.05,9.05,0,0,1-9,9H124.66v-51.3a2.92,2.92,0,1,0-5.84,0v51.3H105.2a9,9,0,0,1-9-9v-50.6a9,9,0,0,1,9-9h11.19a13,13,0,0,0,2.34-.26h.09v7.51a2.92,2.92,0,0,0,5.84,0V105.24a12,12,0,0,0,2.75-3.59L129.74,97a6.38,6.38,0,0,1,5.76-3.59h71.63a9.05,9.05,0,0,1,9,9v19.07a2.92,2.92,0,0,0,2.92,2.92ZM136.7,183h45.13v6a3.54,3.54,0,0,1-3.53,3.53H140.23A3.52,3.52,0,0,1,136.7,189v-6ZM113,102.64h-7.22v-4.7a3.61,3.61,0,0,1,7.22,0v4.7Z"/><path class="cls-12" d="M199.67,153.76a2.91,2.91,0,0,0,4-1.2,36.8,36.8,0,1,0-7.39,9.63,2.93,2.93,0,0,0-4-4.28,30.85,30.85,0,1,1,6.23-8.1,2.91,2.91,0,0,0,1.2,3.95Z"/><path class="cls-12" d="M150,135.26a21.08,21.08,0,1,0,21.08-21.08A21.1,21.1,0,0,0,150,135.26Zm36.31,0A15.24,15.24,0,1,1,171.11,120a15.24,15.24,0,0,1,15.23,15.24Z"/><path class="cls-12" d="M160.69,135.26a8.58,8.58,0,0,0,.16,1.66,10.31,10.31,0,0,0,10.26,8.75,10.41,10.41,0,0,0,1.24-20.74,8.22,8.22,0,0,0-1.24-.09,10.43,10.43,0,0,0-10.42,10.42Zm10.42-4.57a3.89,3.89,0,0,1,.53,0,4.53,4.53,0,0,1,4,4.53,4.56,4.56,0,0,1-9.08.66,3.68,3.68,0,0,1-.06-.66,4.58,4.58,0,0,1,4.57-4.57Z"/><path class="cls-12" d="M209.66,103.6a4.17,4.17,0,1,0-4.16,4.16A4.15,4.15,0,0,0,209.66,103.6Z"/></g></g></svg>