<svg xmlns="http://www.w3.org/2000/svg" viewBox="0 0 257.7 257.7"><defs><style>.cls-1{fill:#888eba;stroke:#cbabc8;stroke-miterlimit:8;stroke-width:17px;}.cls-2{fill:#5b69aa;}.cls-3{fill:#efefef;}.cls-4{fill:#f9f9f9;}.cls-5{fill:#ffccbd;}.cls-6{fill:#ffbda9;}.cls-7{fill:#ff5f96;}.cls-8{fill:#ffddce;}.cls-9{fill:#ff8fb8;}</style></defs><g id="Слой_2" data-name="Слой 2"><g id="Слой_1-2" data-name="Слой 1"><circle class="cls-1" cx="128.85" cy="128.85" r="120.35"/><path class="cls-2" d="M147.71,238.76a110,110,0,0,0,91.78-123L214.2,90.48l-30.14,1L159,104.55H99.57L83.07,92.84,54,94.29,42.1,109.82l1.37,23.85s68.41,69.49,104.24,105.09Z"/><path class="cls-3" d="M176.58,136.31a23.06,23.06,0,0,1-20.09-11l5.7-3.67c7.74,12,20.92,6.87,21.48,6.64l2.58,6.27a26.14,26.14,0,0,1-9.67,1.81Z"/><path class="cls-4" d="M84.38,136.31a26.18,26.18,0,0,1-9.67-1.81l2.6-6.26L76,131.37l1.28-3.14c.56.23,13.74,5.38,21.48-6.64l5.7,3.67a23,23,0,0,1-20.09,11Z"/><path class="cls-5" d="M204,142.56l-4.76-12.69c9-3.37,13.43-10.34,11.93-18.64a18.34,18.34,0,0,0-18.38-15.09c-23.17,0-32.4,15.23-32.49,15.38l-11.69-6.87c.53-.9,13.33-22.08,44.17-22.08a31.78,31.78,0,0,1,21.41,8,32.16,32.16,0,0,1,10.32,18.28c2.69,14.82-5.36,28.07-20.51,33.75Z"/><circle class="cls-6" cx="195.79" cy="132.9" r="13.96"/><circle class="cls-7" cx="195.79" cy="132.9" r="9.48"/><path class="cls-8" d="M57,142.56c-15.15-5.68-23.2-18.93-20.51-33.75A32.16,32.16,0,0,1,46.8,90.53a31.78,31.78,0,0,1,21.41-8c30.84,0,43.64,21.18,44.17,22.08l-11.69,6.87,0,0c-.39-.63-9.69-15.43-32.51-15.43a18.35,18.35,0,0,0-18.39,15.09c-1.5,8.3,3,15.27,11.93,18.64Z"/><circle class="cls-5" cx="65.18" cy="132.9" r="13.96"/><circle class="cls-9" cx="65.18" cy="132.9" r="9.48"/><path class="cls-8" d="M140.51,128.16l-10.6-45.52A33.39,33.39,0,0,0,96.52,116c0,.62,0,1.23,0,1.83-.19,4.74-.13,17.88,5.42,29.42,5,10.45,11.05,14.95,11.05,30.29,0,18.51,5.1,21.47,16.87,21.5h.16Z"/><path class="cls-5" d="M163.3,116a33.39,33.39,0,0,0-33.39-33.39V199.07h.16c11.77,0,16.87-3,16.87-21.5,0-15.34,6-19.84,11.05-30.29C164.91,132.9,163.3,116,163.3,116Z"/><path class="cls-7" d="M163.25,101.36A140.62,140.62,0,0,1,130,105.88v86.49h4.93V163.8A32.83,32.83,0,0,1,140.19,146l2.52-3.89a33.08,33.08,0,0,0,5-13.17l1.05-7.19A26.1,26.1,0,0,1,159,104.55Z"/><path class="cls-9" d="M96.73,101.36A140.72,140.72,0,0,0,130,105.88v86.49h-4.93V163.8A32.83,32.83,0,0,0,119.79,146l-2.52-3.89a33.08,33.08,0,0,1-5-13.17l-1-7.19A26.1,26.1,0,0,0,101,104.55Z"/></g></g></svg>