<svg xmlns="http://www.w3.org/2000/svg" viewBox="0 0 317.71 317.43"><defs><style>.cls-1{fill:#888eba;}.cls-2,.cls-3{fill:none;stroke-miterlimit:8;stroke-width:9px;}.cls-2{stroke:#cbabc8;}.cls-3{stroke:#fff;}.cls-4{fill:#fbe2cb;}.cls-5{fill:#e4c95c;}.cls-6{fill:#e8f3ff;}.cls-7{fill:#c3cce9;}.cls-8{fill:#fff;}.cls-9{fill:#2d346a;}</style></defs><g id="Слой_2" data-name="Слой 2"><g id="Слой_1-2" data-name="Слой 1"><path class="cls-1" d="M312,158.94c1.76-3.68,1.56-9.67-.42-13a17.07,17.07,0,0,1-1.25-12.45c1.28-3.65.33-9.1-2-11.86a14.72,14.72,0,0,1-2.8-11.29c.8-3.6-.82-8.52-3.52-10.72a13.06,13.06,0,0,1-4.2-10.13c.34-3.51-1.89-7.9-4.84-9.55a11.93,11.93,0,0,1-5.44-9,10.16,10.16,0,0,0-6-8.4A11.21,11.21,0,0,1,275,54.72a9.74,9.74,0,0,0-7-7.24,10.84,10.84,0,0,1-7.48-6.67,9.58,9.58,0,0,0-7.91-6.08,10.68,10.68,0,0,1-8.28-5.51,9.56,9.56,0,0,0-8.62-4.93A10.63,10.63,0,0,1,226.69,20a9.59,9.59,0,0,0-9.19-3.77A10.68,10.68,0,0,1,208.09,13a9.71,9.71,0,0,0-9.61-2.61A10.19,10.19,0,0,1,188.8,8.3c-2.26-2.17-6.91-2.86-9.88-1.45A10.83,10.83,0,0,1,169,6c-2.64-1.9-7.06-1.91-10-.3A10.4,10.4,0,0,1,149,6a9.82,9.82,0,0,0-10,.86,10.74,10.74,0,0,1-9.87,1.44,9.32,9.32,0,0,0-9.71,2,10.75,10.75,0,0,1-9.62,2.6A9.66,9.66,0,0,0,100.37,16a10.69,10.69,0,0,1-9.2,3.76,9.57,9.57,0,0,0-8.94,4.34,10.69,10.69,0,0,1-8.64,4.92,9.53,9.53,0,0,0-8.3,5.5,10.77,10.77,0,0,1-7.93,6.08,9.68,9.68,0,0,0-7.51,6.66,11,11,0,0,1-7.05,7.24,10,10,0,0,0-6.57,7.83,11.54,11.54,0,0,1-6,8.4,10.49,10.49,0,0,0-5.47,9,12.51,12.51,0,0,1-4.86,9.57c-2.84,1.91-4.78,6.58-4.22,10.15a13.9,13.9,0,0,1-3.54,10.73c-2.55,2.47-3.85,7.67-2.82,11.31a15.89,15.89,0,0,1-2.07,11.89C5,136.46,4.45,142.2,6,145.89a18.48,18.48,0,0,1-.43,13.05"/><path class="cls-2" d="M312,158.94c1.76-3.68,1.56-9.67-.42-13a17.07,17.07,0,0,1-1.25-12.45c1.28-3.65.33-9.1-2-11.86a14.72,14.72,0,0,1-2.8-11.29c.8-3.6-.82-8.52-3.52-10.72a13.06,13.06,0,0,1-4.2-10.13c.34-3.51-1.89-7.9-4.84-9.55a11.93,11.93,0,0,1-5.44-9,10.16,10.16,0,0,0-6-8.4A11.21,11.21,0,0,1,275,54.72a9.74,9.74,0,0,0-7-7.24,10.84,10.84,0,0,1-7.48-6.67,9.58,9.58,0,0,0-7.91-6.08,10.68,10.68,0,0,1-8.28-5.51,9.56,9.56,0,0,0-8.62-4.93A10.63,10.63,0,0,1,226.69,20a9.59,9.59,0,0,0-9.19-3.77A10.68,10.68,0,0,1,208.09,13a9.71,9.71,0,0,0-9.61-2.61A10.19,10.19,0,0,1,188.8,8.3c-2.26-2.17-6.91-2.86-9.88-1.45A10.83,10.83,0,0,1,169,6c-2.64-1.9-7.06-1.91-10-.3A10.4,10.4,0,0,1,149,6a9.82,9.82,0,0,0-10,.86,10.74,10.74,0,0,1-9.87,1.44,9.32,9.32,0,0,0-9.71,2,10.75,10.75,0,0,1-9.62,2.6A9.66,9.66,0,0,0,100.37,16a10.69,10.69,0,0,1-9.2,3.76,9.57,9.57,0,0,0-8.94,4.34,10.69,10.69,0,0,1-8.64,4.92,9.53,9.53,0,0,0-8.3,5.5,10.77,10.77,0,0,1-7.93,6.08,9.68,9.68,0,0,0-7.51,6.66,11,11,0,0,1-7.05,7.24,10,10,0,0,0-6.57,7.83,11.54,11.54,0,0,1-6,8.4,10.49,10.49,0,0,0-5.47,9,12.51,12.51,0,0,1-4.86,9.57c-2.84,1.91-4.78,6.58-4.22,10.15a13.9,13.9,0,0,1-3.54,10.73c-2.55,2.47-3.85,7.67-2.82,11.31a15.89,15.89,0,0,1-2.07,11.89C5,136.46,4.45,142.2,6,145.89a18.48,18.48,0,0,1-.43,13.05"/><path class="cls-1" d="M312.26,158.37a18.65,18.65,0,0,0-.44,13.07c1.51,3.69.92,9.42-1.27,12.48a15.88,15.88,0,0,0-2.07,11.9c1,3.65-.27,8.85-2.83,11.32a13.93,13.93,0,0,0-3.54,10.74c.55,3.57-1.39,8.23-4.23,10.15A12.51,12.51,0,0,0,293,237.6a10.49,10.49,0,0,1-5.47,9,11.56,11.56,0,0,0-6,8.41,10,10,0,0,1-6.58,7.83,11,11,0,0,0-7.06,7.24,9.68,9.68,0,0,1-7.51,6.67,10.75,10.75,0,0,0-7.93,6.08,9.6,9.6,0,0,1-8.31,5.5,10.67,10.67,0,0,0-8.65,4.92,9.61,9.61,0,0,1-8.94,4.34,10.7,10.7,0,0,0-9.22,3.75,9.66,9.66,0,0,1-9.43,3.18,10.76,10.76,0,0,0-9.63,2.6,9.31,9.31,0,0,1-9.71,1.95,10.75,10.75,0,0,0-9.88,1.44,9.84,9.84,0,0,1-10,.86,11.2,11.2,0,0,0-10,.27,9.51,9.51,0,0,1-10-.25,10.8,10.8,0,0,0-10-.89c-3,1.41-7.62.72-9.88-1.46a10.2,10.2,0,0,0-9.68-2.07,9.69,9.69,0,0,1-9.6-2.62,10.71,10.71,0,0,0-9.42-3.19A9.61,9.61,0,0,1,91,297.37,10.66,10.66,0,0,0,82,293a9.54,9.54,0,0,1-8.62-4.93,10.7,10.7,0,0,0-8.28-5.51,9.55,9.55,0,0,1-7.9-6.09,10.84,10.84,0,0,0-7.49-6.66,9.77,9.77,0,0,1-7-7.25,11.22,11.22,0,0,0-6.53-7.82,10.12,10.12,0,0,1-6-8.4,11.93,11.93,0,0,0-5.44-9c-2.95-1.65-5.17-6-4.84-9.55a13,13,0,0,0-4.19-10.13C13,215.5,11.4,210.58,12.2,207A14.7,14.7,0,0,0,9.4,195.7c-2.37-2.76-3.31-8.21-2-11.87a17,17,0,0,0-1.24-12.44c-2-3.35-2.17-9.33-.42-13"/><path class="cls-2" d="M312.26,158.37a18.65,18.65,0,0,0-.44,13.07c1.51,3.69.92,9.42-1.27,12.48a15.88,15.88,0,0,0-2.07,11.9c1,3.65-.27,8.85-2.83,11.32a13.93,13.93,0,0,0-3.54,10.74c.55,3.57-1.39,8.23-4.23,10.15A12.51,12.51,0,0,0,293,237.6a10.49,10.49,0,0,1-5.47,9,11.56,11.56,0,0,0-6,8.41,10,10,0,0,1-6.58,7.83,11,11,0,0,0-7.06,7.24,9.68,9.68,0,0,1-7.51,6.67,10.75,10.75,0,0,0-7.93,6.08,9.6,9.6,0,0,1-8.31,5.5,10.67,10.67,0,0,0-8.65,4.92,9.61,9.61,0,0,1-8.94,4.34,10.7,10.7,0,0,0-9.22,3.75,9.66,9.66,0,0,1-9.43,3.18,10.76,10.76,0,0,0-9.63,2.6,9.31,9.31,0,0,1-9.71,1.95,10.75,10.75,0,0,0-9.88,1.44,9.84,9.84,0,0,1-10,.86,11.2,11.2,0,0,0-10,.27,9.51,9.51,0,0,1-10-.25,10.8,10.8,0,0,0-10-.89c-3,1.41-7.62.72-9.88-1.46a10.2,10.2,0,0,0-9.68-2.07,9.69,9.69,0,0,1-9.6-2.62,10.71,10.71,0,0,0-9.42-3.19A9.61,9.61,0,0,1,91,297.37,10.66,10.66,0,0,0,82,293a9.54,9.54,0,0,1-8.62-4.93,10.7,10.7,0,0,0-8.28-5.51,9.55,9.55,0,0,1-7.9-6.09,10.84,10.84,0,0,0-7.49-6.66,9.77,9.77,0,0,1-7-7.25,11.22,11.22,0,0,0-6.53-7.82,10.12,10.12,0,0,1-6-8.4,11.93,11.93,0,0,0-5.44-9c-2.95-1.65-5.17-6-4.84-9.55a13,13,0,0,0-4.19-10.13C13,215.5,11.4,210.58,12.2,207A14.7,14.7,0,0,0,9.4,195.7c-2.37-2.76-3.31-8.21-2-11.87a17,17,0,0,0-1.24-12.44c-2-3.35-2.17-9.33-.42-13"/><path class="cls-3" d="M312,158.94c1.76-3.68,1.56-9.67-.42-13a17.07,17.07,0,0,1-1.25-12.45c1.28-3.65.33-9.1-2-11.86a14.72,14.72,0,0,1-2.8-11.29c.8-3.6-.82-8.52-3.52-10.72a13.06,13.06,0,0,1-4.2-10.13c.34-3.51-1.89-7.9-4.84-9.55a11.93,11.93,0,0,1-5.44-9,10.16,10.16,0,0,0-6-8.4A11.21,11.21,0,0,1,275,54.72a9.74,9.74,0,0,0-7-7.24,10.84,10.84,0,0,1-7.48-6.67,9.58,9.58,0,0,0-7.91-6.08,10.68,10.68,0,0,1-8.28-5.51,9.56,9.56,0,0,0-8.62-4.93A10.63,10.63,0,0,1,226.69,20a9.59,9.59,0,0,0-9.19-3.77A10.68,10.68,0,0,1,208.09,13a9.71,9.71,0,0,0-9.61-2.61A10.19,10.19,0,0,1,188.8,8.3c-2.26-2.17-6.91-2.86-9.88-1.45A10.83,10.83,0,0,1,169,6c-2.64-1.9-7.06-1.91-10-.3A10.4,10.4,0,0,1,149,6a9.82,9.82,0,0,0-10,.86,10.74,10.74,0,0,1-9.87,1.44,9.32,9.32,0,0,0-9.71,2,10.75,10.75,0,0,1-9.62,2.6A9.66,9.66,0,0,0,100.37,16a10.69,10.69,0,0,1-9.2,3.76,9.57,9.57,0,0,0-8.94,4.34,10.69,10.69,0,0,1-8.64,4.92,9.53,9.53,0,0,0-8.3,5.5,10.77,10.77,0,0,1-7.93,6.08,9.68,9.68,0,0,0-7.51,6.66,11,11,0,0,1-7.05,7.24,10,10,0,0,0-6.57,7.83,11.54,11.54,0,0,1-6,8.4,10.49,10.49,0,0,0-5.47,9,12.51,12.51,0,0,1-4.86,9.57c-2.84,1.91-4.78,6.58-4.22,10.15a13.9,13.9,0,0,1-3.54,10.73c-2.55,2.47-3.85,7.67-2.82,11.31a15.89,15.89,0,0,1-2.07,11.89C5,136.46,4.45,142.2,6,145.89a18.48,18.48,0,0,1-.43,13.05"/><path class="cls-3" d="M312.26,158.37a18.65,18.65,0,0,0-.44,13.07c1.51,3.69.92,9.42-1.27,12.48a15.88,15.88,0,0,0-2.07,11.9c1,3.65-.27,8.85-2.83,11.32a13.93,13.93,0,0,0-3.54,10.74c.55,3.57-1.39,8.23-4.23,10.15A12.51,12.51,0,0,0,293,237.6a10.49,10.49,0,0,1-5.47,9,11.56,11.56,0,0,0-6,8.41,10,10,0,0,1-6.58,7.83,11,11,0,0,0-7.06,7.24,9.68,9.68,0,0,1-7.51,6.67,10.75,10.75,0,0,0-7.93,6.08,9.6,9.6,0,0,1-8.31,5.5,10.67,10.67,0,0,0-8.65,4.92,9.61,9.61,0,0,1-8.94,4.34,10.7,10.7,0,0,0-9.22,3.75,9.66,9.66,0,0,1-9.43,3.18,10.76,10.76,0,0,0-9.63,2.6,9.31,9.31,0,0,1-9.71,1.95,10.75,10.75,0,0,0-9.88,1.44,9.84,9.84,0,0,1-10,.86,11.2,11.2,0,0,0-10,.27,9.51,9.51,0,0,1-10-.25,10.8,10.8,0,0,0-10-.89c-3,1.41-7.62.72-9.88-1.46a10.2,10.2,0,0,0-9.68-2.07,9.69,9.69,0,0,1-9.6-2.62,10.71,10.71,0,0,0-9.42-3.19A9.61,9.61,0,0,1,91,297.37,10.66,10.66,0,0,0,82,293a9.54,9.54,0,0,1-8.62-4.93,10.7,10.7,0,0,0-8.28-5.51,9.55,9.55,0,0,1-7.9-6.09,10.84,10.84,0,0,0-7.49-6.66,9.77,9.77,0,0,1-7-7.25,11.22,11.22,0,0,0-6.53-7.82,10.12,10.12,0,0,1-6-8.4,11.93,11.93,0,0,0-5.44-9c-2.95-1.65-5.17-6-4.84-9.55a13,13,0,0,0-4.19-10.13C13,215.5,11.4,210.58,12.2,207A14.7,14.7,0,0,0,9.4,195.7c-2.37-2.76-3.31-8.21-2-11.87a17,17,0,0,0-1.24-12.44c-2-3.35-2.17-9.33-.42-13"/><circle class="cls-4" cx="159.8" cy="157.5" r="97.18"/><path class="cls-5" d="M252.22,70.69l-2.5.69a4.6,4.6,0,0,0-3.21,3.2l-.68,2.5-.7-2.5a4.57,4.57,0,0,0-3.2-3.2l-2.5-.69,2.5-.69a4.59,4.59,0,0,0,3.2-3.2l.7-2.5.68,2.5a4.62,4.62,0,0,0,3.21,3.2Z"/><path class="cls-5" d="M255,193.5l-1.35.38a2.47,2.47,0,0,0-1.73,1.73l-.38,1.35-.37-1.35a2.47,2.47,0,0,0-1.73-1.73l-1.36-.38,1.36-.37a2.47,2.47,0,0,0,1.73-1.73l.37-1.35.38,1.35a2.47,2.47,0,0,0,1.73,1.73Z"/><path class="cls-5" d="M79.51,71.8l-1.71.47a3.14,3.14,0,0,0-2.19,2.2l-.47,1.71-.48-1.71a3.11,3.11,0,0,0-2.19-2.19l-1.71-.48,1.71-.47a3.11,3.11,0,0,0,2.19-2.19l.48-1.71.47,1.71a3.11,3.11,0,0,0,2.19,2.19Z"/><path class="cls-5" d="M152.23,71.55l-.62.17a1.15,1.15,0,0,0-.8.8l-.17.62-.17-.62a1.15,1.15,0,0,0-.8-.8l-.62-.17.62-.17a1.15,1.15,0,0,0,.8-.8l.17-.62.17.62a1.15,1.15,0,0,0,.8.8Z"/><path class="cls-5" d="M253.13,161.3l-.62.17a1.15,1.15,0,0,0-.8.8l-.17.62-.17-.62a1.15,1.15,0,0,0-.8-.8l-.62-.17.62-.17a1.15,1.15,0,0,0,.8-.8l.17-.62.17.62a1.15,1.15,0,0,0,.8.8Z"/><path class="cls-5" d="M69.37,162.89l-.62.17a1.15,1.15,0,0,0-.8.8l-.17.62-.17-.62a1.15,1.15,0,0,0-.8-.8l-.62-.17.62-.17a1.15,1.15,0,0,0,.8-.8l.17-.62.17.62a1.15,1.15,0,0,0,.8.8Z"/><path class="cls-5" d="M187.3,71.55l-.16,0a.3.3,0,0,0-.2.21l-.05.16,0-.16a.3.3,0,0,0-.2-.21l-.16,0,.16,0a.3.3,0,0,0,.2-.21l0-.16.05.16a.3.3,0,0,0,.2.21Z"/><path class="cls-6" d="M222.06,171.1l-30.84-6.71L158.3,173l-33-8.64L94.5,171.1a3,3,0,0,1-3.6-3.68l5.83-24.21-8.64-25.52,8.64-25.54L90.9,67.91a3,3,0,0,1,3.59-3.68l30.85,6.71,32.92-8.65,33,8.65,30.85-6.71a3,3,0,0,1,3.6,3.68l-5.83,24.2,8.64,25.53-8.63,25.74,5.82,24a3,3,0,0,1-3.6,3.69Z"/><path class="cls-7" d="M108.58,88.58H208v58.17H108.58Z"/><path class="cls-8" d="M108.58,146.74l38.26-33.68,13.36,33.68,19.38-29.08L208,146.74Z"/><circle class="cls-5" cx="165.77" cy="106.1" r="4.23"/><circle class="cls-5" cx="95.93" cy="196.73" r="9.06"/><circle class="cls-5" cx="158.67" cy="196.73" r="9.06"/><circle class="cls-5" cx="221.47" cy="196.73" r="9.06"/><path class="cls-9" d="M256.71,252.17H224.47V214a34.43,34.43,0,0,0,28.33,14.91,3,3,0,0,0,0-6.08,28.29,28.29,0,0,1-25.3-15.61,12.1,12.1,0,1,0-12.11,0,28.31,28.31,0,0,1-50.63,0,12.09,12.09,0,1,0-11.27.49,28.31,28.31,0,0,1-52.36,0,12.09,12.09,0,1,0-9.75.3,28.34,28.34,0,0,1-26.2,17.56,3,3,0,1,0,0,6.07,34.39,34.39,0,0,0,27.72-14v34.65H61a3,3,0,0,0,0,6.07H256.71a3,3,0,0,0,0-6.07Zm-41.26-55.46a6,6,0,1,1,6,6A6,6,0,0,1,215.45,196.71Zm-25.39,32.17a34.37,34.37,0,0,0,28.33-14.95v38.24H161.72V214a34.45,34.45,0,0,0,28.34,14.91Zm-37.42-32.17a6,6,0,1,1,6,6A6,6,0,0,1,152.64,196.71Zm-62.74,0a6,6,0,1,1,6,6A6,6,0,0,1,89.9,196.71ZM99,216.33a34.35,34.35,0,0,0,56.67,0v35.87H99Z"/><path class="cls-9" d="M93.57,143.36l-5.63,23.36a6.07,6.07,0,0,0,7.21,7.34l30.14-6.55L157.51,176a3,3,0,0,0,1.54,0l32.22-8.47,30.13,6.55a6.06,6.06,0,0,0,7.2-7.35l-5.6-23.2,8.35-24.9a3.07,3.07,0,0,0,0-1.94L223,92l5.63-23.35a6.09,6.09,0,0,0-7.22-7.35l-6.1,1.33a3,3,0,1,0,1.3,5.94l6.11-1.34-5.83,24.2a3.13,3.13,0,0,0,.08,1.69l8.3,24.57L217,142.4a3.1,3.1,0,0,0-.08,1.68l5.82,24-30.86-6.71a3.1,3.1,0,0,0-1.42,0l-32.15,8.45-32.15-8.45a3.06,3.06,0,0,0-1.41,0l-30.87,6.71,5.83-24.2a3,3,0,0,0-.08-1.69l-8.3-24.53,8.3-24.57a3,3,0,0,0,.08-1.68L93.86,67.19l30.83,6.71a2.81,2.81,0,0,0,1.41,0l32.15-8.45,32.18,8.45a3,3,0,0,0,1.42,0L200.66,72a3,3,0,1,0-1.29-5.93l-8.1,1.75L159,59.34a3.13,3.13,0,0,0-1.55,0l-32.21,8.47L95.12,61.25A6.11,6.11,0,0,0,89.48,63a6,6,0,0,0-1.54,5.63L93.57,92l-8.35,24.71a3.1,3.1,0,0,0,0,2Z"/><path class="cls-9" d="M105.54,88.6v58.13a3.05,3.05,0,0,0,3,3.06H208a3,3,0,0,0,3-3.06V88.6a3,3,0,0,0-3-3H108.57A3,3,0,0,0,105.54,88.6Zm11.08,55.12,29-25.51,10.14,25.51Zm49.26,0L180,122.46l20.74,21.26ZM111.61,91.63h93.33v47.65l-23.2-23.74a3.05,3.05,0,0,0-2.43-.89,2.94,2.94,0,0,0-2.25,1.34l-16.19,24.24L149.67,112a3.12,3.12,0,0,0-2.13-1.85,3,3,0,0,0-2.7.7L111.61,140V91.63Z"/></g></g></svg>