<svg xmlns="http://www.w3.org/2000/svg" viewBox="0 0 257.7 257.7"><defs><style>.cls-1{fill:#888eba;stroke:#cbabc8;stroke-miterlimit:8;stroke-width:17px;}.cls-2{fill:#ecc6a7;}.cls-3{fill:#e1a472;}.cls-4{fill:#395d6e;}.cls-5{fill:#fbb19c;}.cls-6{fill:#f9805e;}.cls-7{fill:#ff5a58;}.cls-8{fill:#ffcca9;}.cls-9{fill:#f5eef3;}</style></defs><g id="Слой_2" data-name="Слой 2"><g id="Слой_1-2" data-name="Слой 1"><circle class="cls-1" cx="128.85" cy="128.85" r="120.35"/><path class="cls-2" d="M42.64,82v95.79a6,6,0,0,0,6,6H207.17a6,6,0,0,0,6-6V82a6,6,0,0,0-6-6H48.68A6,6,0,0,0,42.64,82Z"/><path class="cls-3" d="M56.34,76.34a13.91,13.91,0,0,0-13.5,4.12,6.25,6.25,0,0,0-.2,1.51v38c4.77-3.28,18.08-12.92,22.17-21S66,78.87,56.34,76.34Z"/><path class="cls-3" d="M207.17,75.93h-9.66a6,6,0,0,1,6,6v95.8a6,6,0,0,1-6,6h9.66a6,6,0,0,0,6-6V82A6,6,0,0,0,207.17,75.93Z"/><path class="cls-3" d="M92.49,107.89c-8-2.1-17.53,1.66-21.45,9a.66.66,0,0,1-1.17,0c-3.93-7.3-13.47-11.06-21.46-9a18.55,18.55,0,0,0-5.77,2.63V149c9.28,10.25,23.67,20.11,27.07,22.39a1.33,1.33,0,0,0,1.48,0c4.38-2.93,26.94-18.42,33.41-31.12C110.53,128.68,106.23,111.51,92.49,107.89Z"/><path class="cls-4" d="M130,175.75a2.93,2.93,0,0,1-1.32-5.54V89.53A2.93,2.93,0,0,1,130,84a4.55,4.55,0,0,1,4.54,4.54v82.7A4.54,4.54,0,0,1,130,175.75Zm0-85.91Z"/><path class="cls-5" d="M63.88,164.18a1.33,1.33,0,0,0,1.48,0c4.38-2.93,26.93-18.42,33.41-31.12,5.92-11.63,1.63-28.8-12.11-32.41-8-2.11-17.53,1.66-21.46,9a.66.66,0,0,1-1.17,0c-3.92-7.3-13.47-11.07-21.45-9-13.74,3.61-18,20.78-12.11,32.41C36.94,145.76,59.5,161.25,63.88,164.18Z"/><path class="cls-6" d="M60.42,105.08a20,20,0,0,0-17.84-4.43,19.17,19.17,0,0,0-13,12c4.79,4,9.35,7.08,10.85,8.08a.92.92,0,0,0,1,0C43.83,119.19,53.93,112.26,60.42,105.08Z"/><path class="cls-7" d="M38.39,110.79a.94.94,0,0,0,1,0C42.49,108.74,58.27,97.9,62.8,89c4.15-8.13,1.14-20.14-8.47-22.67-5.59-1.47-12.27,1.16-15,6.26a.46.46,0,0,1-.82,0c-2.74-5.1-9.42-7.73-15-6.26C13.88,68.88,10.88,80.89,15,89,19.55,97.9,35.33,108.74,38.39,110.79Z"/><path class="cls-8" d="M183.49,92.6v18a2.9,2.9,0,0,0,2.9,2.9h10.52a2.89,2.89,0,0,0,2.89-2.9v-18a2.89,2.89,0,0,0-2.89-2.9H186.39A2.9,2.9,0,0,0,183.49,92.6Z"/><path class="cls-4" d="M172.41,99.85a8.58,8.58,0,0,1-6.61-3.26c-1.06-1.11-1.43-1.45-2.38-1.45s-1.33.34-2.38,1.45a8.35,8.35,0,0,1-13.24,0c-1.05-1.11-1.43-1.45-2.38-1.45a2.93,2.93,0,1,1,0-5.86A8.61,8.61,0,0,1,152,92.54c1.05,1.1,1.43,1.45,2.38,1.45s1.33-.35,2.38-1.45a8.34,8.34,0,0,1,13.23,0c1.06,1.1,1.43,1.45,2.38,1.45a2.93,2.93,0,1,1,0,5.86Z"/><path class="cls-4" d="M172.41,113.88a8.59,8.59,0,0,1-6.61-3.27c-1.06-1.1-1.43-1.45-2.38-1.45s-1.33.35-2.38,1.45a8.34,8.34,0,0,1-13.24,0c-1.05-1.1-1.43-1.45-2.38-1.45a2.93,2.93,0,1,1,0-5.86,8.61,8.61,0,0,1,6.62,3.27c1.05,1.1,1.43,1.45,2.38,1.45s1.33-.35,2.38-1.45a8.33,8.33,0,0,1,13.23,0c1.06,1.1,1.43,1.45,2.38,1.45a2.93,2.93,0,0,1,0,5.86Z"/><path class="cls-9" d="M196.65,147.39H146.6a2.93,2.93,0,0,1,0-5.86h50.05a2.93,2.93,0,1,1,0,5.86Z"/><path class="cls-9" d="M196.65,159.69H146.6a2.93,2.93,0,0,1,0-5.86h50.05a2.93,2.93,0,1,1,0,5.86Z"/><path class="cls-9" d="M172.41,172H146.6a2.93,2.93,0,0,1,0-5.86h25.81a2.93,2.93,0,1,1,0,5.86Z"/></g></g></svg>