<svg xmlns="http://www.w3.org/2000/svg" viewBox="0 0 257.7 257.7"><defs><style>.cls-1{fill:#888eba;stroke:#cbabc8;stroke-miterlimit:8;stroke-width:17px;}.cls-2{fill:#e2e7f6;}.cls-3{fill:#f2f2f2;}.cls-4{fill:#686868;}.cls-5{fill:#b5b5b5;}.cls-6{fill:#fbe1ca;}.cls-7{fill:#5e87ca;}.cls-8{fill:#ccc;}.cls-9{fill:#939393;}.cls-10{fill:#c8cded;}.cls-11{fill:#78a0d4;}.cls-12{fill:#8cb4e0;}</style></defs><g id="Слой_2" data-name="Слой 2"><g id="Слой_1-2" data-name="Слой 1"><circle class="cls-1" cx="128.85" cy="128.85" r="120.35"/><g id="Layer_28" data-name="Layer 28"><path class="cls-2" d="M46.79,78.44H206.34a8.8,8.8,0,0,1,8.86,8.76v90.47a8.8,8.8,0,0,1-8.86,8.75H46.79a8.81,8.81,0,0,1-8.86-8.75V87.2A8.81,8.81,0,0,1,46.79,78.44Z"/><path class="cls-3" d="M46.79,78.44a8.81,8.81,0,0,0-8.86,8.76v75.88H194.52a8.81,8.81,0,0,0,8.87-8.76V78.44Z"/><path class="cls-4" d="M144.29,198.1l-2.95-11.68H111.79l-3,11.68Z"/><path class="cls-5" d="M215.2,171.83v5.84a8.8,8.8,0,0,1-8.86,8.75H46.79a8.81,8.81,0,0,1-8.86-8.75v-5.84Z"/><ellipse class="cls-6" cx="126.57" cy="98.87" rx="8.86" ry="8.76"/><path class="cls-7" d="M111.79,125.14v-2.92a14.78,14.78,0,0,1,29.55,0v2.92"/><ellipse class="cls-6" cx="126.57" cy="145.57" rx="8.86" ry="8.76"/><path class="cls-7" d="M111.79,171.83v-2.92a14.78,14.78,0,0,1,29.55,0v2.92"/><ellipse class="cls-6" cx="185.66" cy="145.57" rx="8.86" ry="8.76"/><path class="cls-7" d="M170.89,171.83v-2.92a14.77,14.77,0,0,1,29.54,0v2.92"/><ellipse class="cls-6" cx="67.48" cy="145.57" rx="8.86" ry="8.76"/><path class="cls-7" d="M52.7,171.83v-2.92a14.78,14.78,0,0,1,29.55,0v2.92"/><ellipse class="cls-6" cx="67.48" cy="98.87" rx="8.86" ry="8.76"/><path class="cls-7" d="M52.7,125.14v-2.92a14.78,14.78,0,0,1,29.55,0v2.92"/><path class="cls-5" d="M100,198.1h53.18a5.87,5.87,0,0,1,5.91,5.84v8.75h-65v-8.75A5.87,5.87,0,0,1,100,198.1Z"/><path class="cls-8" d="M150.37,202.48V198.1H100a5.87,5.87,0,0,0-5.91,5.84v1.46h53.35A2.94,2.94,0,0,0,150.37,202.48Z"/><path class="cls-9" d="M109.83,194.18H134a2.93,2.93,0,0,0,3-2.92v-4.84H111.79Z"/><path class="cls-8" d="M206.34,171.83H37.93v5.84a8.58,8.58,0,0,0,.54,2.92H203.39a2.94,2.94,0,0,0,3-2.92Z"/><path class="cls-10" d="M215.2,122.22H159.07V93.11h-5.91v29.11H100V78.44H94.07v43.78H37.93v5.83H94.07v43.78H100V128.05h53.18v43.78h5.91V128.05H215.2Z"/><path class="cls-11" d="M206.34,66.77c0-16.12-17.19-29.19-38.41-29.19s-38.41,13.07-38.41,29.19c0,14.53,14,26.55,32.3,28.78l6.11,12.07L174,95.55C192.35,93.32,206.34,81.3,206.34,66.77Z"/><path class="cls-12" d="M167.93,37.58c-21.21,0-38.41,13.07-38.41,29.19a24,24,0,0,0,5.29,14.75A45,45,0,0,0,162,90.11c21.22,0,38.41-13.06,38.41-29.18a24,24,0,0,0-5.28-14.76A45.11,45.11,0,0,0,167.93,37.58Z"/><path class="cls-3" d="M147.25,63.85h5.91v5.83h-5.91Z"/><path class="cls-3" d="M159.07,63.85H165v5.83h-5.91Z"/><path class="cls-3" d="M170.89,63.85h5.91v5.83h-5.91Z"/><path class="cls-3" d="M182.7,63.85h5.91v5.83H182.7Z"/></g></g></g></svg>