<svg xmlns="http://www.w3.org/2000/svg" viewBox="0 0 257.7 257.7"><defs><style>.cls-1{fill:#888eba;stroke:#cbabc8;stroke-miterlimit:8;stroke-width:17px;}.cls-2{fill:#ffc269;}.cls-3{fill:#ffa95f;}.cls-4{fill:#ff8b5a;}.cls-5{fill:#95d6a4;}.cls-6{fill:#78c2a4;}.cls-7{fill:#f7d291;}.cls-8{fill:#ecbd83;}.cls-9{fill:#eceaec;}.cls-10{fill:#dad8db;}.cls-11{fill:#ffe1a0;}.cls-12{fill:#fff;}.cls-13{fill:#c3ddff;}.cls-14{fill:#a4ccff;}.cls-15{fill:#9b959d;}.cls-16{fill:#857e87;}.cls-17{fill:#f5b97d;}.cls-18{fill:#e3aa75;}.cls-19{fill:#9f6e50;}.cls-20{fill:#785353;}</style></defs><g id="Слой_2" data-name="Слой 2"><g id="Слой_1-2" data-name="Слой 1"><circle class="cls-1" cx="128.85" cy="128.85" r="120.35"/><circle class="cls-2" cx="66.32" cy="68.24" r="16.66"/><path class="cls-3" d="M113.44,90.46c0-16.87-10.81-30.55-27.68-30.55a30.45,30.45,0,0,0-21.23,8.58s-3,10.56-3,19.19c0,13.88,7.4,25,24.27,25s27.68-8.33,27.68-22.22Z"/><path class="cls-4" d="M74.65,79.35A25.36,25.36,0,0,1,64.53,68.49a30.45,30.45,0,0,0-9.32,22c0,13.81,13.54,22.12,30.28,22.21Z"/><path class="cls-5" d="M94.09,129.34H74.65a22.22,22.22,0,0,0-22.22,22.22v36.11H108V143.23a13.89,13.89,0,0,0-13.89-13.89Z"/><path class="cls-6" d="M74.65,129.34H71.87a22.21,22.21,0,0,0-22.21,22.22v36.11h5.55V151.56A16.66,16.66,0,0,1,71.87,134.9h2.78Z"/><path class="cls-7" d="M83,140.45a11.11,11.11,0,0,1-11.11-11.11v-3.7L94.09,128v1.31A11.1,11.1,0,0,1,83,140.45Z"/><path class="cls-8" d="M71.87,125.64A27.63,27.63,0,0,0,94.09,128V115.46H71.87Z"/><path class="cls-9" d="M119.09,182.57H71.74A5.56,5.56,0,0,1,66.18,177V151.56L69.1,146h50a5.55,5.55,0,0,1,5.56,5.55v27.78Z"/><path class="cls-10" d="M69.1,146a5.55,5.55,0,0,0-5.56,5.55v27.78a5.56,5.56,0,0,0,5.56,5.55h50a5.56,5.56,0,0,0,5.56-5.55H77.43A8.33,8.33,0,0,1,69.1,171Z"/><path class="cls-11" d="M74.56,79.35c8.83,6.26,21.44,8.29,28.35,9a5.53,5.53,0,0,1,5,5.52v7.75a22.22,22.22,0,0,1-19.34,22,30.55,30.55,0,0,1-3.31,0c-12.27,0-19.57-9.73-19.57-22h0c0-5.86-.21-11.52,3.43-16.08.33-.42.66-.84,1-1.24Z"/><path class="cls-7" d="M69.1,101.57V85.48a21.45,21.45,0,0,0-5.56,14.41v1.68a22.22,22.22,0,0,0,22.22,22.22,21.43,21.43,0,0,0,2.79-.19,22.22,22.22,0,0,1-19.45-22Z"/><circle class="cls-12" cx="94.09" cy="165.45" r="5.55"/><path class="cls-12" d="M88.45,113.81a16.42,16.42,0,0,1-6.7-1.38A2.77,2.77,0,1,1,84,107.37a11.68,11.68,0,0,0,8.83,0,2.77,2.77,0,1,1,2.28,5.06,16.4,16.4,0,0,1-6.69,1.38Z"/><circle class="cls-6" cx="80.21" cy="97.4" r="2.78"/><circle class="cls-6" cx="96.87" cy="97.4" r="2.78"/><path class="cls-8" d="M141.31,184.89H44.1a2.78,2.78,0,0,0,0,5.56h97.21Z"/><path class="cls-13" d="M201.83,129.05l-10.52-5.26-13.8-2.17L158,123.79l-16.07,8A11,11,0,0,0,138,135l3.29,50.6H208V139A11.11,11.11,0,0,0,201.83,129.05Z"/><path class="cls-14" d="M155.2,155.46A13.89,13.89,0,0,0,150,144.61L138,135a11.13,11.13,0,0,0-2.27,6.72v48.69a5.56,5.56,0,0,0,5.56,5.55H155.2V155.46Z"/><path class="cls-15" d="M205.19,157.12H171.86c-6.13,0-14.29,3.66-15.54,11.44L160.75,196h50a5.56,5.56,0,0,0,5.56-5.55V168.23a11.1,11.1,0,0,0-11.11-11.11Z"/><path class="cls-16" d="M171.86,157.12h-5.55a11.1,11.1,0,0,0-11.11,11.11V196h5.55V168.23A11.11,11.11,0,0,1,171.86,157.12Z"/><path class="cls-17" d="M160.75,112.51v8.17a2.78,2.78,0,0,1-1.53,2.49l-1.25.62h33.34l-2.49-1.25a5.55,5.55,0,0,1-3.07-5V71H146.24V93.24C146.24,103.59,151.17,110,160.75,112.51Z"/><path class="cls-18" d="M149.64,93.24V71h-5.55V93.24a22.21,22.21,0,0,0,19.06,22,2.8,2.8,0,0,0,3.16-2.77,2.76,2.76,0,0,0-2.37-2.73A16.66,16.66,0,0,1,149.64,93.24Z"/><path class="cls-19" d="M174.64,54.35H155.2c-7.67,0-12.55,5.12-12.55,12.79a5.56,5.56,0,0,0,5.56,5.56c4.6,0,7,4.82,7,9.43v8.33a13.88,13.88,0,0,0,13.88,13.89H183a11.11,11.11,0,0,0,11.11-11.11V73.79A19.44,19.44,0,0,0,174.64,54.35Z"/><path class="cls-20" d="M152.42,54.35a13.89,13.89,0,0,0-13.89,13.89,5.55,5.55,0,0,0,5.56,5.55h2.77a8.33,8.33,0,0,1,8.34,8.34V54.35Z"/></g></g></svg>