<svg xmlns="http://www.w3.org/2000/svg" viewBox="0 0 257.7 257.7"><defs><style>.cls-1{fill:#888eba;stroke:#cbabc8;stroke-miterlimit:8;stroke-width:17px;}.cls-2{fill:#cbcbcb;}.cls-3{fill:#27c5a7;}.cls-4{fill:#6ee7f5;}.cls-5{fill:#fbb540;}.cls-6{fill:#43dcfe;}.cls-7{fill:#02a437;}.cls-8{fill:#0bafea;}.cls-9{fill:#e82f3e;}.cls-10{fill:#dc651e;}.cls-11{fill:#eaeae8;}.cls-12{fill:#fdc9a6;}.cls-13{fill:#ea9d2d;}.cls-14{fill:#683b0d;}.cls-15{fill:#0a9acd;}</style></defs><g id="Слой_2" data-name="Слой 2"><g id="Слой_1-2" data-name="Слой 1"><circle class="cls-1" cx="128.85" cy="128.85" r="120.35"/><g id="flat"><path class="cls-2" d="M152.65,67.09h-47l2.94-8.82h41.16Z"/><rect class="cls-3" x="43.87" y="67.09" width="170.52" height="111.72" rx="5.88"/><path class="cls-4" d="M129.13,123H43.87v50a5.88,5.88,0,0,0,5.88,5.88h79.38Z"/><path class="cls-5" d="M129.13,123h85.26v50a5.88,5.88,0,0,1-5.88,5.88H129.13Z"/><path class="cls-6" d="M129.13,123h85.26V73a5.88,5.88,0,0,0-5.88-5.88H129.13Z"/><path class="cls-7" d="M79.15,105.31,71.86,109a8.09,8.09,0,0,0-4.47,7.23V123h35.28v-6.76A8.09,8.09,0,0,0,98.2,109l-7.29-3.65Z"/><path class="cls-8" d="M79.15,161.17l-7.29,3.65a8.09,8.09,0,0,0-4.47,7.23v6.76h35.28v-6.76a8.09,8.09,0,0,0-4.47-7.23l-7.29-3.65Z"/><path class="cls-9" d="M164.41,105.31,157.12,109a8.09,8.09,0,0,0-4.47,7.23V123h35.28v-6.76a8.09,8.09,0,0,0-4.47-7.23l-7.29-3.65Z"/><path class="cls-10" d="M164.41,161.17l-7.29,3.65a8.09,8.09,0,0,0-4.47,7.23v6.76h35.28v-6.76a8.09,8.09,0,0,0-4.47-7.23l-7.29-3.65Z"/><path class="cls-11" d="M99,202.33h60.27a5.15,5.15,0,0,1,5.14,5.15v6.61H93.85v-6.61A5.16,5.16,0,0,1,99,202.33Z"/><path class="cls-2" d="M152.65,178.81h-15.2a8.82,8.82,0,1,1-16.63,0H105.61l-2.94,23.52h52.92Z"/><path class="cls-12" d="M85,84.73h0a8.82,8.82,0,0,1,8.82,8.82v5.88A8.81,8.81,0,0,1,85,108.25h0a8.82,8.82,0,0,1-8.82-8.82V93.55A8.82,8.82,0,0,1,85,84.73Z"/><path class="cls-13" d="M76.21,96.49l5.88-2.94,11.76,2.94V93.55a8.82,8.82,0,0,0-17.64,0Z"/><path class="cls-12" d="M85,140.59h0a8.82,8.82,0,0,1,8.82,8.82v5.88A8.81,8.81,0,0,1,85,164.11h0a8.82,8.82,0,0,1-8.82-8.82v-5.88A8.82,8.82,0,0,1,85,140.59Z"/><path class="cls-14" d="M76.21,152.35l5.88-2.94H88l5.88,2.94v-2.94a8.82,8.82,0,1,0-17.64,0Z"/><circle class="cls-14" cx="85.03" cy="137.65" r="5.88"/><path class="cls-12" d="M170.29,84.73h0a8.82,8.82,0,0,1,8.82,8.82v5.88a8.81,8.81,0,0,1-8.82,8.82h0a8.82,8.82,0,0,1-8.82-8.82V93.55A8.82,8.82,0,0,1,170.29,84.73Z"/><path class="cls-12" d="M170.29,140.59h0a8.82,8.82,0,0,1,8.82,8.82v5.88a8.81,8.81,0,0,1-8.82,8.82h0a8.82,8.82,0,0,1-8.82-8.82v-5.88A8.82,8.82,0,0,1,170.29,140.59Z"/><path class="cls-14" d="M179.11,152.35l-5.88-2.94h-5.88l-5.88,2.94-3.54-7.08a7.25,7.25,0,0,1,11.61-8.37h0l.75.75.67-.33a8.1,8.1,0,0,1,10.35,11.74Z"/><path class="cls-7" d="M105.61,78.85h11.76V90.61H105.61Z"/><path class="cls-10" d="M190.87,134.71h11.76v11.76H190.87Z"/><circle class="cls-8" cx="111.49" cy="140.59" r="5.88"/><circle class="cls-9" cx="196.75" cy="84.73" r="5.88"/><circle class="cls-11" cx="129.06" cy="58.2" r="14.62"/><circle class="cls-15" cx="129.13" cy="58.27" r="5.88"/><circle class="cls-8" cx="129.13" cy="58.27" r="2.94"/><path class="cls-13" d="M170.29,84.73a8.82,8.82,0,0,1,8.82,8.82v2.94H161.47V93.55A8.82,8.82,0,0,1,170.29,84.73Z"/><path class="cls-14" d="M179.11,99.43H152.65a2.94,2.94,0,1,1,0-5.88h26.46a2.94,2.94,0,0,1,0,5.88Z"/></g></g></g></svg>