<svg xmlns="http://www.w3.org/2000/svg" viewBox="0 0 257.7 257.7"><defs><style>.cls-1{fill:#888eba;stroke:#cbabc8;stroke-miterlimit:8;stroke-width:17px;}.cls-2,.cls-4{fill:#4fc122;}.cls-3{fill:#80d261;}.cls-10,.cls-11,.cls-3,.cls-4,.cls-5,.cls-6,.cls-7,.cls-8,.cls-9{fill-rule:evenodd;}.cls-12,.cls-5{fill:#44a91f;}.cls-6{fill:#fd8087;}.cls-7{fill:#fe636e;}.cls-8{fill:#fece85;}.cls-9{fill:#fdb440;}.cls-10{fill:#c3c6dd;}.cls-11{fill:#6f7cb5;}.cls-13{fill:#f8f2f0;}</style></defs><g id="Слой_2" data-name="Слой 2"><g id="Слой_1-2" data-name="Слой 1"><circle class="cls-1" cx="128.85" cy="128.85" r="120.35"/><path class="cls-2" d="M217.71,98.67a14.58,14.58,0,0,0-12.82-6.3l6.94-6.94A2.45,2.45,0,1,0,208.36,82l-6.93,6.93a14.58,14.58,0,0,0-6.3-12.81A2.46,2.46,0,1,0,192.19,80c5,3.73,5.67,9.19,2,16.23a2.46,2.46,0,0,0,2.17,3.61,2.49,2.49,0,0,0,1-.23l.12-.06c7-3.63,12.5-2.94,16.24,2.05a2.46,2.46,0,1,0,3.93-3Z"/><path class="cls-3" d="M94.68,130.33l20.14,6.93.84-19.5c0-.84-16.06-12.54-18.19-14.66l-8.86,13.22C93,121,93.83,124.21,94.68,130.33Z"/><path class="cls-4" d="M51.85,92.19a14,14,0,0,0,3.85,7.57A12.36,12.36,0,0,0,62,103.21c2,6.32,8,10.13,14,9a10,10,0,0,0,10.09,4.93,9.14,9.14,0,0,0,2.5-.8,10.14,10.14,0,0,0,5-5.68,20.63,20.63,0,0,0,12.8,2l.52-.1c2.29-.15,26.21,1,26.46.9,2.31-.62,15-33.15,18.08-32.94a14.51,14.51,0,0,0,.06-5.18,13.3,13.3,0,0,0-10.12-11c-1.23-7.25-7.62-12.21-14.28-11.08a11.65,11.65,0,0,0-2.38.68,20.91,20.91,0,0,0-10.37-7.59,29,29,0,0,0-18.47,0A20.84,20.84,0,0,0,83.8,56a20,20,0,0,0-11.52,7.51c-10.27-2.07-17,8.37-14.49,15a12.21,12.21,0,0,0-4.52,4.77,14,14,0,0,0-1.42,9Z"/><path class="cls-5" d="M97.47,45.79c13.88,5.78,24,23.43,24,44.31,0,.94,0,1.88-.07,2.81a27,27,0,0,1,11.68-3h1a12.52,12.52,0,0,1,8.95-8.81,26.7,26.7,0,0,1,8.4-.63,14.51,14.51,0,0,0,.06-5.18,13.3,13.3,0,0,0-10.12-11c-1.23-7.25-7.62-12.21-14.28-11.07a11,11,0,0,0-2.38.67,21,21,0,0,0-10.37-7.59,29.13,29.13,0,0,0-16.9-.52Z"/><path class="cls-6" d="M106.92,112.54a24.46,24.46,0,0,0-.33,2.87,27.14,27.14,0,0,0,3.3,14.92h38.65L162.8,124,160,109.7a27.2,27.2,0,0,0-6.25-11.06c-2.95-5.16-11.4-8.61-19.62-8.7h-1a27.27,27.27,0,0,0-26.15,22.59Z"/><path class="cls-3" d="M166,85.59c-1.68,5.1-7.06,10.1-12.29,13a23,23,0,0,1-5.36,2.28,12.56,12.56,0,0,1-8.38-.59,11.94,11.94,0,0,1-4.91-3.9A7.06,7.06,0,0,1,134,94.17a7.37,7.37,0,0,1-.17-2.49,11.19,11.19,0,0,1,.31-1.74,12.53,12.53,0,0,1,8.95-8.81,26.7,26.7,0,0,1,8.4-.63c5.36.37,11.13,2,14.56,5.09Z"/><path class="cls-7" d="M142.18,101.06a67.72,67.72,0,0,1,.35,6.94c0,8.76-1.65,16.69-4.32,22.33h10.33a86.5,86.5,0,0,1,7-14c1.4-2.27,2.89-4.51,4.48-6.64a27.06,27.06,0,0,0-6.25-11.07,23,23,0,0,1-5.36,2.28,12.68,12.68,0,0,1-6.19.14Z"/><path class="cls-4" d="M160.73,82.49c-1.92,4.73-6.86,9.28-11.72,12.09a1.82,1.82,0,0,1-.27.15,23.75,23.75,0,0,1-5.36,2.3l-.11,0a12.42,12.42,0,0,1-8.15-.58,11.87,11.87,0,0,0,4.87,3.86,12.23,12.23,0,0,0,2.19.73,12.68,12.68,0,0,0,6.19-.14,23,23,0,0,0,5.36-2.28c5.23-3,10.61-8,12.29-13.06a17.44,17.44,0,0,0-5.29-3.09Z"/><path class="cls-8" d="M196.36,122c-.37.5-.77,1-1.18,1.51-.62.76-1.29,1.51-2,2.26a62.29,62.29,0,0,1-4.74,4.55l-30.31,8.19-9.61-8.19a83.12,83.12,0,0,1,5.7-11.85q.62-1.07,1.26-2.13c.43-.69.86-1.39,1.31-2.08q1.51-2.34,3.17-4.56a66,66,0,0,1,8.85-9.84c.62-.56,1.25-1.08,1.88-1.59s1.35-1,2-1.52c7.84-5.48,16.28-6.74,23.65.64,7.68,7.68,6,16.5,0,24.61Z"/><path class="cls-9" d="M183.88,109.38c-2.92,9-7.37,16.48-12,21h16.59a57.53,57.53,0,0,0,6.73-6.81c7-8.52,9.35-18,1.2-26.12a16.36,16.36,0,0,0-9.47-5A60.59,60.59,0,0,1,183.88,109.38Z"/><path class="cls-10" d="M170.94,191.49l-35.82-5.92-36.54,5.92h0v8a8,8,0,0,0,8,8H163a8,8,0,0,0,8-8v-8Z"/><path class="cls-8" d="M68.44,145.83c0,19.12,12,35.93,30.13,45.66h72.37c18.15-9.73,30.14-26.54,30.14-45.66L134.62,141Z"/><path class="cls-9" d="M68.44,145.83a44.86,44.86,0,0,0,1.1,9.94H173.78c5.55,0,7.65-.45,6.42,6-2,10.71-9.18,20.49-17,28.41-.44.44-.88.86-1.33,1.29h9.12c18.15-9.73,30.14-26.54,30.14-45.66Z"/><path class="cls-11" d="M152.22,191.49v8a8,8,0,0,1-8,8H163a8,8,0,0,0,8-8v-8H152.22Z"/><path class="cls-10" d="M64.39,130.33a7.75,7.75,0,0,0,0,15.5H205.13a7.75,7.75,0,0,0,0-15.5Z"/><path class="cls-11" d="M194.14,138.08a7.74,7.74,0,0,1-4.3,6.92,7.56,7.56,0,0,1-3.44.83h18.73a7.75,7.75,0,0,0,0-15.5H186.4A7.76,7.76,0,0,1,194.14,138.08Z"/><path class="cls-12" d="M146.74,93.48l-11.66,3A7.06,7.06,0,0,1,134,94.17a7.37,7.37,0,0,1-.17-2.49l11.74-3a2.45,2.45,0,0,1,1.2,4.76Z"/><path class="cls-13" d="M193.2,125.78l-.14-.13-5.6-5.6a2.46,2.46,0,1,1,3.47-3.48l5.43,5.43Z"/><path class="cls-13" d="M179.45,105.26a2.44,2.44,0,0,1-3.45.39l-6.82-5.45a2.2,2.2,0,0,1-.35-.33c.62-.56,1.25-1.08,1.88-1.59s1.35-1,2-1.52l6.32,5a2.44,2.44,0,0,1,.39,3.45Z"/><path class="cls-13" d="M163.74,122.44a2.46,2.46,0,0,1-3.44.52l-6.06-4.48q.62-1.07,1.26-2.13c.43-.69.86-1.39,1.31-2.08l.15.1,6.26,4.63a2.46,2.46,0,0,1,.52,3.44Z"/></g></g></svg>