<svg xmlns="http://www.w3.org/2000/svg" viewBox="0 0 257.7 257.7"><defs><style>.cls-1{fill:#888eba;stroke:#cbabc8;stroke-miterlimit:8;stroke-width:17px;}.cls-2{fill:#2b4478;}.cls-3{fill:#554fb2;}.cls-4{fill:#01b1bc;}.cls-5{fill:#3ac7cf;}.cls-6{fill:#98d3f3;}.cls-7{fill:#74dce2;}.cls-8{fill:#adf2f5;}.cls-9{fill:#736dd9;}.cls-10{fill:#83b3f1;}.cls-11{fill:#928bff;}</style></defs><g id="Слой_2" data-name="Слой 2"><g id="Слой_1-2" data-name="Слой 1"><circle class="cls-1" cx="128.85" cy="128.85" r="120.35"/><path class="cls-2" d="M184.7,51.57H175V170.23l9.72-19.43a9.74,9.74,0,0,0,9.71-9.71V61.29A9.75,9.75,0,0,0,184.7,51.57Z"/><path class="cls-3" d="M175,51.57H72.33a9.75,9.75,0,0,0-9.72,9.72v79.8a9.74,9.74,0,0,0,9.72,9.71l56.18,19.43L175,150.8a9.74,9.74,0,0,0,9.72-9.71V61.29A9.75,9.75,0,0,0,175,51.57Z"/><path class="cls-4" d="M188.73,170.23v24.29h10.54A9.72,9.72,0,0,0,209,184.8Z"/><path class="cls-5" d="M73.48,175.09,48,184.8a9.72,9.72,0,0,0,9.71,9.72h53.76l17-15.51,17,15.51h43.22a9.72,9.72,0,0,0,9.71-9.72v-9.71Z"/><path class="cls-6" d="M111.51,175.09h34v19.43h-34Z"/><path class="cls-7" d="M196.94,156.69A9.73,9.73,0,0,0,188,150.8H177.46l21,34H209Z"/><path class="cls-8" d="M186.39,156.69l1.62,3.83-7.62,4.85,11.8,4.86,6.25,14.57H48l12.05-28.11A9.72,9.72,0,0,1,69,150.8H177.46a9.72,9.72,0,0,1,8.93,5.89Z"/><path class="cls-2" d="M192.19,170.23,188,160.52H69l-4.17,9.71Z"/><path class="cls-9" d="M94.62,83.15h35.72V88H94.62Z"/><path class="cls-9" d="M87.94,73.43H137v4.86H87.94Z"/><path class="cls-9" d="M86.09,63.72h52.79v4.86H86.09Z"/><path class="cls-9" d="M86.09,133.8h52.79v4.86H86.09Z"/><path class="cls-9" d="M94.62,114.37h35.72v4.86H94.62Z"/><path class="cls-9" d="M87.94,124.09H137v4.85H87.94Z"/><path class="cls-6" d="M116.76,98.23l-1.53-1c-12.07-8.27-23.47-16.07-23.47-31a4.86,4.86,0,0,0-9.72,0c0,19.29,13.58,29.35,26.16,38q2.13-1.48,4.28-3c1.43-1,2.86-2,4.28-3Z"/><path class="cls-6" d="M128.9,107.43h-8.18v5.78c7.19,6,12.49,12.83,12.49,23a4.86,4.86,0,1,0,9.71,0c0-13-6.16-21.8-14-28.8Z"/><path class="cls-10" d="M116.76,98.23c-1.42,1-2.85,2-4.28,3s-2.86,2-4.28,3l1.54,1.06c3.84,2.63,7.62,5.22,11,8,2.6-1.78,5.38-3.69,8.18-5.78a123,123,0,0,0-12.14-9.2Z"/><path class="cls-11" d="M142.92,66.15a4.86,4.86,0,1,0-9.71,0c0,15-11.4,22.76-23.47,31-13,8.89-27.7,19-27.7,39a4.86,4.86,0,1,0,9.72,0c0-15,11.4-22.77,23.47-31C128.21,96.31,142.92,86.23,142.92,66.15Z"/><path class="cls-10" d="M175,73.43H152.64a2.43,2.43,0,1,1,0-4.85H175a2.43,2.43,0,1,1,0,4.85Z"/><path class="cls-6" d="M175,83.15H152.64a2.43,2.43,0,1,1,0-4.86H175a2.43,2.43,0,1,1,0,4.86Z"/><path class="cls-6" d="M175,92.86H152.64a2.43,2.43,0,1,1,0-4.85H175a2.43,2.43,0,1,1,0,4.85Z"/><path class="cls-6" d="M175,102.58H152.64a2.43,2.43,0,1,1,0-4.86H175a2.43,2.43,0,1,1,0,4.86Z"/></g></g></svg>