<svg xmlns="http://www.w3.org/2000/svg" viewBox="0 0 257.7 257.7"><defs><style>.cls-1{fill:#888eba;stroke:#cbabc8;stroke-miterlimit:8;stroke-width:17px;}.cls-2{fill:#bdd3dd;}.cls-3{fill:#f9eae0;}.cls-4{fill:#abc4d6;}.cls-5{fill:#a0c8ff;}.cls-6{fill:#f9f5f3;}</style></defs><g id="Слой_2" data-name="Слой 2"><g id="Слой_1-2" data-name="Слой 1"><circle class="cls-1" cx="128.85" cy="128.85" r="120.35"/><path class="cls-2" d="M143.49,166.87l23.81,15-10-28-18-17.42Z"/><path class="cls-3" d="M57,56.61,157.27,153.9l-37.61,35.68a2.42,2.42,0,0,1-3.88-.78Z"/><path class="cls-3" d="M57,56.61l146.52,48.84a2.42,2.42,0,0,1,.89,4.06l-32.13,30.24Z"/><path class="cls-4" d="M157.27,153.9l10,28,5-42.16L57,56.61Z"/><path class="cls-5" d="M202.38,169.14a2.26,2.26,0,0,1-1.6-.66l-20.05-20a2.27,2.27,0,1,1,3.21-3.21L204,165.27a2.27,2.27,0,0,1-1.61,3.87Z"/><path class="cls-5" d="M167.3,204.23a2.23,2.23,0,0,1-1.61-.67l-20.05-20a2.27,2.27,0,0,1,3.21-3.21l20.05,20.05a2.25,2.25,0,0,1,0,3.2,2.23,2.23,0,0,1-1.6.67Z"/><path class="cls-5" d="M202.38,204.23a2.23,2.23,0,0,1-1.6-.67l-20.05-20a2.27,2.27,0,0,1,3.21-3.21L204,200.36a2.27,2.27,0,0,1-1.61,3.87Z"/><path class="cls-6" d="M205.12,107.12a2.39,2.39,0,0,0-1.57-1.67L57,56.61l85.2,61.45Z"/><path class="cls-6" d="M117.59,190.2l14.62-60.62L57,56.61,115.78,188.8a2.38,2.38,0,0,0,1.81,1.4Z"/></g></g></svg>