<svg xmlns="http://www.w3.org/2000/svg" xmlns:xlink="http://www.w3.org/1999/xlink" viewBox="0 0 257.7 257.7"><defs><style>.cls-1,.cls-2{fill:#888eba;}.cls-1{stroke:#cbabc8;stroke-miterlimit:8;stroke-width:17px;}.cls-3{isolation:isolate;opacity:0.49;fill:url(#Безымянный_градиент_2);}.cls-4{fill:#ff0b53;}.cls-4,.cls-5{fill-rule:evenodd;}.cls-5{fill:#00f0e9;}</style><linearGradient id="Безымянный_градиент_2" x1="88.5" y1="-6221.68" x2="206.5" y2="-6339.68" gradientTransform="matrix(1, 0, 0, -1, 0, -6129.59)" gradientUnits="userSpaceOnUse"><stop offset="0" stop-color="#1d1d1b"/><stop offset="0.37" stop-color="#1d1d1b" stop-opacity="0.86"/><stop offset="0.75" stop-color="#1d1d1b" stop-opacity="0.43"/><stop offset="1" stop-color="#1d1d1b" stop-opacity="0"/></linearGradient></defs><g id="Слой_2" data-name="Слой 2"><g id="Слой_1-2" data-name="Слой 1"><circle class="cls-1" cx="128.85" cy="128.85" r="120.35"/><circle class="cls-2" cx="128.85" cy="128.85" r="112.35"/><path class="cls-3" d="M241.21,128.85c0-.12,0-.24,0-.36L162.59,50a4.71,4.71,0,0,0-3.34-1.38H133.92a4.71,4.71,0,0,0-4.73,4.7h0v66.77l-14.72-14.72a4.71,4.71,0,0,0-3.35-1.37,52.75,52.75,0,0,0-52.85,52.52,52.18,52.18,0,0,0,15.5,37.12L121,240.93c2.58.18,5.18.28,7.81.28A112.37,112.37,0,0,0,241.21,128.85Z"/><path class="cls-4" d="M167.46,56.85a4.72,4.72,0,0,1,4.73,4.7h0a30.67,30.67,0,0,0,30.73,30.54,4.72,4.72,0,0,1,4.73,4.7V122a4.71,4.71,0,0,1-4.73,4.7h0a65.29,65.29,0,0,1-30.73-7.59v45.68a52.86,52.86,0,1,1-52.86-52.52,4.71,4.71,0,0,1,4.73,4.7V142.1a4.71,4.71,0,0,1-4.73,4.7h0a18,18,0,1,0,18.07,17.95V61.55a4.73,4.73,0,0,1,4.73-4.7h25.33Z"/><path class="cls-5" d="M159.25,48.64a4.71,4.71,0,0,1,4.73,4.7h0A30.66,30.66,0,0,0,194.7,83.88a4.71,4.71,0,0,1,4.73,4.7h0v25.17a4.71,4.71,0,0,1-4.73,4.7h0A65.25,65.25,0,0,1,164,110.86v45.68A52.86,52.86,0,1,1,111.12,104a4.71,4.71,0,0,1,4.73,4.7v25.17a4.72,4.72,0,0,1-4.73,4.7h0a18,18,0,1,0,18.07,17.95V53.34a4.71,4.71,0,0,1,4.73-4.7Z"/><path d="M164,156.54V110.86a65.37,65.37,0,0,0,30.72,7.59,4.71,4.71,0,0,0,4.73-4.7V91.89a30.8,30.8,0,0,1-22-13.32,30.54,30.54,0,0,1-13.22-21.72H142.13a4.73,4.73,0,0,0-4.73,4.7h0v103.2a18.08,18.08,0,0,1-34.3,7.87,17.93,17.93,0,0,1,8-34,4.71,4.71,0,0,0,4.73-4.7h0V112.34a52.74,52.74,0,0,0-49.37,52.41A52.09,52.09,0,0,0,78,197.42a52.9,52.9,0,0,0,86-40.88Z"/></g></g></svg>