<svg xmlns="http://www.w3.org/2000/svg" viewBox="0 0 257.7 257.7"><defs><style>.cls-1{fill:#888eba;stroke:#cbabc8;stroke-miterlimit:8;stroke-width:17px;}.cls-2{fill:#e6e7e8;}.cls-3{fill:#6dc9f7;}.cls-4{fill:#d4fbff;}.cls-5{fill:#0089ef;}.cls-6{fill:#fa759e;}.cls-7{fill:#fff;}.cls-8{fill:#3a2c60;}.cls-9{fill:#ffd7e5;}</style></defs><g id="Слой_2" data-name="Слой 2"><g id="Слой_1-2" data-name="Слой 1"><circle class="cls-1" cx="128.85" cy="128.85" r="120.35"/><path class="cls-2" d="M197.76,53.4H96.29A7.28,7.28,0,0,0,89,60.68V89.43H68.6A5.58,5.58,0,0,0,63,95v4.43a5.58,5.58,0,0,0,4.49,5.47v25.8A2.34,2.34,0,0,1,66,132.87a40.3,40.3,0,0,0,12.43,77.62c.88,0,1.75.08,2.63.08a39.9,39.9,0,0,0,25.83-9.4h52.36l-1.16,4.52a1.44,1.44,0,0,0,.53,1.52,1.45,1.45,0,0,0,1.62.09l6.24-3.69,3.7,6.24a1.44,1.44,0,0,0,1.25.72l.2,0a1.45,1.45,0,0,0,1.21-1.08l.7-2.73.7,2.73a1.45,1.45,0,0,0,1.21,1.08l.2,0a1.44,1.44,0,0,0,1.25-.72l3.7-6.24,6.24,3.69a1.45,1.45,0,0,0,1.62-.09,1.44,1.44,0,0,0,.53-1.52l-1.16-4.52h9.91a7.29,7.29,0,0,0,7.28-7.29V60.68a7.28,7.28,0,0,0-7.28-7.28Z"/><path class="cls-3" d="M197.76,188.05a5.83,5.83,0,0,1-5.82,5.83H90.47a5.83,5.83,0,0,1-5.83-5.83V54.86A5.83,5.83,0,0,1,90.47,49H191.94a5.83,5.83,0,0,1,5.82,5.83V188.05Z"/><path class="cls-4" d="M190,56.77V186.14H92.39V56.77Z"/><path class="cls-3" d="M164.48,87.22H115.14a4.31,4.31,0,0,1,0-8.61h49.34a4.31,4.31,0,1,1,0,8.61Z"/><path class="cls-5" d="M172.88,182a6.44,6.44,0,0,1-11.38-.46,6.38,6.38,0,0,1-3,.06l-4.77,18.59,7.5-4.44,4.43,7.5,2.12-8.23,2.11,8.23,4.43-7.5,7.5,4.44-4.66-18.18a6.49,6.49,0,0,1-4.24,0Z"/><path class="cls-6" d="M184.91,168.5a6.44,6.44,0,0,0-3.21-5.57,6.43,6.43,0,0,0-7.73-8.36,6.43,6.43,0,0,0-11.37-.46,6.43,6.43,0,0,0-8.37,7.73,6.44,6.44,0,0,0-.46,11.38,6.43,6.43,0,0,0,7.73,8.36,6.44,6.44,0,0,0,11.38.46,6.43,6.43,0,0,0,8.36-7.73A6.42,6.42,0,0,0,184.91,168.5Z"/><path class="cls-7" d="M89.59,128.35a3.63,3.63,0,0,1-2.3-3.38V97.74H63.14v27.15a3.75,3.75,0,0,1-2.35,3.49,38.83,38.83,0,1,0,28.8,0Z"/><path class="cls-6" d="M49.47,158.59a4.14,4.14,0,0,0-4.14,3.81c0,.72-.08,1.46-.08,2.2a30,30,0,0,0,59.94,0c0-.74,0-1.48-.09-2.2a4.14,4.14,0,0,0-4.14-3.81Z"/><path class="cls-7" d="M49.61,164.6c0-.74,0-1.48.09-2.2a4.14,4.14,0,0,1,4.14-3.81H49.47a4.14,4.14,0,0,0-4.14,3.81c0,.72-.08,1.46-.08,2.2a30,30,0,0,0,30,30c.74,0,1.46,0,2.18-.11A30,30,0,0,1,49.61,164.6Z"/><path class="cls-7" d="M87.66,97.74H62.77a4.13,4.13,0,0,1-4.12-4.13V89.18a4.13,4.13,0,0,1,4.12-4.12H87.66a4.12,4.12,0,0,1,4.13,4.12v4.44A4.13,4.13,0,0,1,87.66,97.74Z"/><path class="cls-8" d="M191.94,47.57H90.47a7.3,7.3,0,0,0-7.29,7.29V83.6H62.77a5.59,5.59,0,0,0-5.58,5.58v4.43a5.6,5.6,0,0,0,4.5,5.48v25.8A2.3,2.3,0,0,1,60.25,127a40.3,40.3,0,0,0,12.37,77.63c.88.06,1.76.08,2.63.08a39.85,39.85,0,0,0,25.84-9.4h52.35l-1.16,4.52a1.46,1.46,0,0,0,2.15,1.62l6.24-3.7,3.7,6.25a1.43,1.43,0,0,0,1.25.71h.21a1.44,1.44,0,0,0,1.2-1.08l.7-2.73.7,2.73a1.47,1.47,0,0,0,1.21,1.08h.21a1.45,1.45,0,0,0,1.25-.71l3.69-6.25,6.25,3.7a1.46,1.46,0,0,0,2.15-1.62L182,195.34h9.9a7.29,7.29,0,0,0,7.28-7.28V115.6a1.46,1.46,0,1,0-2.91,0v72.45a4.37,4.37,0,0,1-4.37,4.37H181.28l-2.45-9.55a8.06,8.06,0,0,0,1.78-1.32,7.93,7.93,0,0,0,2.25-6.49,7.88,7.88,0,0,0,.51-12.74,7.88,7.88,0,0,0-8.65-9.37,7.88,7.88,0,0,0-12.74-.51,7.88,7.88,0,0,0-9.37,8.65,7.88,7.88,0,0,0-.51,12.74,8,8,0,0,0,2.15,7.12,7.74,7.74,0,0,0,2.46,1.64l-2.52,9.83h-50a40.33,40.33,0,0,0,5.43-48.95h65.16a1.46,1.46,0,0,0,0-2.91H107.7A40.27,40.27,0,0,0,90.13,127a2.17,2.17,0,0,1-1.38-2V99.09a5.59,5.59,0,0,0,4.49-5.48V89.18a5.59,5.59,0,0,0-5.58-5.58H86.1V54.86a4.37,4.37,0,0,1,4.37-4.37H191.94a4.37,4.37,0,0,1,4.37,4.37V91a1.46,1.46,0,0,0,2.91,0V54.86a7.3,7.3,0,0,0-7.28-7.29ZM179.49,197.18,175,194.54a1.45,1.45,0,0,0-2,.51l-2.65,4.47-3.29-12.82h.22a7.91,7.91,0,0,0,6.18-3,7.65,7.65,0,0,0,2.57.06ZM155.15,173.7a1.45,1.45,0,0,0-.65-1.74,5,5,0,0,1-2.49-4.31,5,5,0,0,1,2.85-4.5,1.46,1.46,0,0,0,.78-1.69,5,5,0,0,1,6.47-6,1.47,1.47,0,0,0,1.75-.65,5,5,0,0,1,8.8.36,1.45,1.45,0,0,0,1.69.78,5,5,0,0,1,6,6.47,1.47,1.47,0,0,0,.65,1.75,5,5,0,0,1,2.49,4.31,4.94,4.94,0,0,1-2.85,4.49,1.45,1.45,0,0,0-.77,1.69,5,5,0,0,1-1.29,4.81,5,5,0,0,1-5.19,1.16,1.46,1.46,0,0,0-1.74.65,5,5,0,0,1-8.81-.36,1.45,1.45,0,0,0-1.31-.82,1.24,1.24,0,0,0-.38.05,5,5,0,0,1-6-6.48Zm4.41,9.53a6.79,6.79,0,0,0,1.19,0,8,8,0,0,0,3.13,2.7l2.35,9.16-1.14,4.46-2.65-4.47a1.45,1.45,0,0,0-1.25-.72,1.52,1.52,0,0,0-.74.2L156,197.18ZM89.05,129.71a37.39,37.39,0,1,1-27.72,0,5.17,5.17,0,0,0,3.27-4.84V99.2H85.84v4.49h-9.3a1.46,1.46,0,0,0,0,2.92h9.3v4.14h-9.3a1.46,1.46,0,1,0,0,2.91h9.3v4.15h-9.3a1.46,1.46,0,1,0,0,2.91h9.3V125a5.08,5.08,0,0,0,3.21,4.74Zm1.28-40.53v4.43a2.67,2.67,0,0,1-2.67,2.67H62.77a2.66,2.66,0,0,1-2.66-2.67V89.18a2.67,2.67,0,0,1,2.66-2.67H87.66a2.68,2.68,0,0,1,2.67,2.67Z"/><path class="cls-8" d="M197.76,96.28a1.46,1.46,0,0,0-1.45,1.46v11.47a1.46,1.46,0,1,0,2.91,0V97.74A1.46,1.46,0,0,0,197.76,96.28Z"/><path class="cls-8" d="M174.81,109.86H107.6a1.46,1.46,0,1,0,0,2.91h67.21a1.46,1.46,0,0,0,0-2.91Z"/><path class="cls-8" d="M174.81,124.92H107.6a1.46,1.46,0,1,0,0,2.91h67.21a1.46,1.46,0,0,0,0-2.91Z"/><path class="cls-8" d="M43.88,162.28c-.06.77-.09,1.54-.09,2.32a31.43,31.43,0,0,0,62.86,0c0-.78,0-1.55-.1-2.32a5.62,5.62,0,0,0-5.59-5.14H49.47a5.62,5.62,0,0,0-5.59,5.14Zm59.77.23c.06.69.08,1.39.08,2.09a28.52,28.52,0,1,1-57,0c0-.7,0-1.4.09-2.09a2.68,2.68,0,0,1,2.68-2.46H101a2.7,2.7,0,0,1,2.68,2.46Z"/><circle class="cls-7" cx="70.01" cy="171.43" r="4.64"/><circle class="cls-7" cx="82.66" cy="176.07" r="4.64"/><circle class="cls-9" cx="167.74" cy="168.07" r="10.34"/></g></g></svg>