<svg xmlns="http://www.w3.org/2000/svg" viewBox="0 0 257.7 257.7"><defs><style>.cls-1{fill:#888eba;stroke:#cbabc8;stroke-miterlimit:8;stroke-width:17px;}.cls-2{fill:#e4e9ee;}.cls-3{fill:#8fd5f3;}.cls-4{fill:#fff;}.cls-5{fill:#e67e95;}.cls-6{fill:#42434d;}</style></defs><g id="Слой_2" data-name="Слой 2"><g id="Слой_1-2" data-name="Слой 1"><circle class="cls-1" cx="128.85" cy="128.85" r="120.35"/><path class="cls-2" d="M169.88,51.91h-59L99.22,74.69h82.3Z"/><path class="cls-3" d="M197.45,74.69H59.39A13.41,13.41,0,0,0,46,88.1v88.46A13.41,13.41,0,0,0,59.39,190H197.45a13.4,13.4,0,0,0,13.4-13.41V88.1A13.4,13.4,0,0,0,197.45,74.69Z"/><circle class="cls-2" cx="140.37" cy="132.33" r="42.89"/><circle class="cls-3" cx="140.37" cy="132.33" r="28.15"/><circle class="cls-4" cx="72.12" cy="100.28" r="6.72"/><path class="cls-5" d="M77.15,61.29H67.09a3,3,0,0,0-3,3V74.69H80.16V64.3A3,3,0,0,0,77.15,61.29Z"/><path class="cls-6" d="M197.45,71.34H183.57l-10.7-21a3.36,3.36,0,0,0-3-1.83h-59a3.36,3.36,0,0,0-3,1.83l-10.7,21H83.51v-7a6.36,6.36,0,0,0-6.36-6.36H67.09a6.36,6.36,0,0,0-6.36,6.36v7H59.39A16.78,16.78,0,0,0,42.63,88.1v88.46a16.78,16.78,0,0,0,16.76,16.76H197.45a16.77,16.77,0,0,0,16.75-16.76V88.1A16.77,16.77,0,0,0,197.45,71.34ZM112.91,55.26h54.92l8.22,16.08H104.69ZM67.43,64.64h9.38v6.7H67.43ZM207.5,176.56a10.07,10.07,0,0,1-10.05,10.06H59.39a10.07,10.07,0,0,1-10.06-10.06V88.1A10.07,10.07,0,0,1,59.39,78H197.45A10.07,10.07,0,0,1,207.5,88.1Z"/><path class="cls-6" d="M140.37,86.09A46.25,46.25,0,0,0,97,116.33a3.35,3.35,0,0,0,6.29,2.32,39.54,39.54,0,1,1,0,27.37A3.35,3.35,0,1,0,97,148.34a46.25,46.25,0,1,0,43.4-62.25Z"/><path class="cls-6" d="M140.37,163.83a31.5,31.5,0,1,0-31.5-31.5A31.53,31.53,0,0,0,140.37,163.83Zm0-56.3a24.8,24.8,0,1,1-24.8,24.8A24.83,24.83,0,0,1,140.37,107.53Z"/><path class="cls-6" d="M140.37,123.75a8.59,8.59,0,0,1,8.58,8.58,3.35,3.35,0,1,0,6.7,0,15.29,15.29,0,0,0-15.28-15.28,3.35,3.35,0,1,0,0,6.7Z"/><path class="cls-6" d="M72.12,90.21a10.07,10.07,0,1,0,10.07,10.07A10.08,10.08,0,0,0,72.12,90.21Zm0,13.44a3.37,3.37,0,1,1,3.37-3.37A3.37,3.37,0,0,1,72.12,103.65Z"/><circle class="cls-6" cx="97.48" cy="132.33" r="3.35"/></g></g></svg>