<svg xmlns="http://www.w3.org/2000/svg" viewBox="0 0 257.7 257.7"><defs><style>.cls-1{fill:#888eba;stroke:#cbabc8;stroke-miterlimit:8;stroke-width:17px;}.cls-2{fill:#da364c;}.cls-3{fill:#ef5261;}</style></defs><g id="Слой_2" data-name="Слой 2"><g id="Слой_1-2" data-name="Слой 1"><circle class="cls-1" cx="128.85" cy="128.85" r="120.35"/><path class="cls-2" d="M156.23,35.16c-18.61-9.28-32.34-8.89-51,0a17.08,17.08,0,0,0-9.94,12.11c-.65,3.66-1,12.55-1.33,16.92q36.3-22.38,72.6,0a103.78,103.78,0,0,0-1.25-18.38A16.74,16.74,0,0,0,156.23,35.16Z"/><path class="cls-3" d="M188.2,188.71l-19.35,29.81c-12.93-16.86-25.17-33.44-36.39-49.55-8.52-12.15-16.34-24.1-23.54-35.72-4-6.44-7.82-12.89-11.38-19.13a83.54,83.54,0,0,1-11.7-37.66A52.26,52.26,0,0,1,99.93,38.73c-5.34,8.93,8.21,37.26,27.73,66.93,7.66,11.69,16,23.58,23.92,34.58,19.44,26.92,36.62,48.47,36.62,48.47Z"/><path class="cls-2" d="M153.7,143.3Q145,157,134.58,172c-8.52-12.15-21.26-31.13-28.46-42.74,6.49-9.27,12.85-18.6,18.74-27.6,7.66,11.69,21,30.6,28.84,41.61Z"/><path class="cls-3" d="M91.59,218.53c28.19-36.7,52.88-71.9,71.33-104.43a84.07,84.07,0,0,0,11.66-37.63A54.41,54.41,0,0,0,160.2,37.81c12.59,21-88,150.93-88,150.93Z"/></g></g></svg>