<svg xmlns="http://www.w3.org/2000/svg" viewBox="0 0 257.7 257.7"><defs><style>.cls-1{fill:#888eba;stroke:#cbabc8;stroke-miterlimit:8;stroke-width:17px;}.cls-2{fill:#bac7e5;}.cls-3{fill:#fff;}.cls-4{fill:#7988b7;}.cls-5{fill:#ffbe71;}.cls-6{fill:#c9ceed;}.cls-7{fill:#ff5f89;}.cls-8{fill:#e87b31;}.cls-9{fill:#3c3c4f;}</style></defs><g id="Слой_2" data-name="Слой 2"><g id="Слой_1-2" data-name="Слой 1"><circle class="cls-1" cx="128.85" cy="128.85" r="120.35"/><path class="cls-2" d="M126.16,174.2c2.85-33.45,4.48-64.95,0-86.71,0,0-35.14-17.68-71.32-1.27a4.56,4.56,0,0,0-2.65,4.16V174.2Z"/><path class="cls-3" d="M126.16,174.2c2.23-36.35,4.38-74.4,7.77-89.79,12.43-4.2,38-10,64,1.81a4.59,4.59,0,0,1,2.66,4.16V174.2Z"/><path class="cls-2" d="M133.93,84.41a67.49,67.49,0,0,0-7.77,3.08V174.2h7.77Z"/><path class="cls-4" d="M122.05,172.43c-10.6-4.15-40.16-13.08-69.86,1.77v13.74c33.89-9.62,60.42-4,70.05-1.27a14.21,14.21,0,0,0,7.84,0c9.71-2.76,36.55-8.38,70.5,1.26V174.2c-29.74-14.87-59.62-5.9-70.31-1.75a11.32,11.32,0,0,1-8.22,0Z"/><path class="cls-3" d="M121,167.08c-7.25-8.49-22.52-22-48.39-25.68a5.17,5.17,0,0,1-4.47-5.11V58.53A3.84,3.84,0,0,1,72,54.69a3.24,3.24,0,0,1,.44,0c40,4.71,53.75,32.78,53.75,32.78v77.68a2.94,2.94,0,0,1-5.17,1.91Z"/><path class="cls-2" d="M85,119.47a38.85,38.85,0,0,1,10.61,5.13V112A37.5,37.5,0,0,0,85,106.78Z"/><path class="cls-5" d="M178.75,85.83a6.2,6.2,0,0,0-4.44,1.71A7,7,0,0,0,172,92.75c.88,3.67,2.72,5.72,5.17,6.68a7.42,7.42,0,0,0,6.65-3.74c0-.19.07-.39.1-.59,1.12-7.75-2.55-9.19-5.14-9.27Z"/><path class="cls-4" d="M179,39.1a2.93,2.93,0,0,1,2.89,2.45c1.16,6.84,4.05,26.74,1.68,43.4a3.34,3.34,0,0,1-3.3,2.88h-3.1A3.33,3.33,0,0,1,173.9,85c-1.06-7.14-2.64-25.74,2.31-43.82A2.9,2.9,0,0,1,179,39.1Z"/><path class="cls-6" d="M178.87,122.81c-11.71-2.17-15.66-10.7-17-15.82a8.66,8.66,0,0,0-8-6.58h-.2a8.65,8.65,0,0,0-7,3.37,31.39,31.39,0,0,0-6.67,20.43c.53,16.47,13.93,29.66,30.38,30.46,15.32.75,19.92-9.8,19.49-17.11-.19-3.16-.62-6.28-1.7-8.25a13.3,13.3,0,0,0-9.36-6.49Z"/><circle class="cls-4" cx="157.51" cy="133.9" r="5.7"/><circle class="cls-3" cx="151.69" cy="118.24" r="4.19"/><circle class="cls-7" cx="175.23" cy="140.81" r="6.37"/><path class="cls-8" d="M183.78,95.69A5.54,5.54,0,0,1,181.27,97a.83.83,0,0,1-1-.64s0-.08,0-.13a10.06,10.06,0,0,0-1.06-3.59.81.81,0,0,0-1.09-.36.76.76,0,0,0-.31.28,8.11,8.11,0,0,1-3.31,2.57.6.6,0,0,1-.77-.26,8.14,8.14,0,0,0-1.78-2.1,8.51,8.51,0,0,0,.2,1.81,8.36,8.36,0,0,1,.21,2.23h0a6.27,6.27,0,0,1-.7,2.61,2.51,2.51,0,0,0,2.08,3.75c3.25-.07,7.09-1,9-4.55h0a10,10,0,0,0,1-2.9Z"/><path class="cls-9" d="M96.55,110.66a39.41,39.41,0,0,0-11.12-5.45,1.57,1.57,0,0,0-2,1,1.39,1.39,0,0,0-.08.61v12.69A1.63,1.63,0,0,0,84.52,121a37.78,37.78,0,0,1,10.11,4.88,1.67,1.67,0,0,0,2.59-1.32V112a1.62,1.62,0,0,0-.67-1.31Zm-2.59,11a40.28,40.28,0,0,0-7.35-3.35v-9.23A35.89,35.89,0,0,1,94,112.81Z"/><path class="cls-9" d="M84.62,73.45c.51.11,1.79.42,1.93.42a1.63,1.63,0,0,0,.41-3.2c-1.27-.38-3.13-.94-3.56.83A1.63,1.63,0,0,0,84.62,73.45Z"/><path class="cls-9" d="M95.79,77.48a61.13,61.13,0,0,1,18,12.8c1.32,1.23,3.92-.26,2.4-2.2A63.33,63.33,0,0,0,97.11,74.5a1.63,1.63,0,0,0-1.32,3Z"/><path class="cls-9" d="M84.62,85.47c16.39,3.72,29.09,16.74,29.23,16.87a1.63,1.63,0,0,0,2.34-2.26c-.54-.57-13.49-13.85-30.85-17.78A1.63,1.63,0,0,0,84.62,85.47Z"/><path class="cls-9" d="M84.62,97.5c16.39,3.71,29.1,16.73,29.23,16.86a1.85,1.85,0,0,0,2.3,0,1.57,1.57,0,0,0,.09-2.24l0-.06c-.54-.56-13.49-13.84-30.85-17.77a1.63,1.63,0,0,0-.72,3.17Z"/><path class="cls-9" d="M104.4,114.71a1.63,1.63,0,0,0-1.59,2.85,52.87,52.87,0,0,1,11,8.8,1.84,1.84,0,0,0,2.3.09,1.61,1.61,0,0,0,.1-2.28l0,0a55.14,55.14,0,0,0-11.81-9.44Z"/><path class="cls-9" d="M116.13,138.48a1.63,1.63,0,0,0,.09-2.3h0a54.81,54.81,0,0,0-11.81-9.44,1.63,1.63,0,0,0-1.59,2.84,52.76,52.76,0,0,1,11,8.81,1.85,1.85,0,0,0,2.3.09Z"/><path class="cls-9" d="M201.31,86a75.15,75.15,0,0,0-8.1-3.49,1.63,1.63,0,1,0-1.11,3.06h0A73.52,73.52,0,0,1,199,88.5v83.12c-26.38-11.71-51.63-7.64-71.16.07V88.53c5.27-2.9,25.31-8.25,36.86-7.64a1.63,1.63,0,1,0,0-3.26c-11.5-.62-32.18,4.7-37.79,7.75-11.34-17.18-27.93-29.8-58.6-32.7a1.61,1.61,0,0,0-1.74,1.49.66.66,0,0,0,0,.14v26a82.92,82.92,0,0,0-15.09,5.7,1.63,1.63,0,0,0-.85,1.44V187.88a1.66,1.66,0,0,0,1.66,1.67,1.4,1.4,0,0,0,.41-.05c40.25-11.26,67.56-1.46,73.52,0,6-1.36,33.71-11.26,74,0,1.34.25,2.07-.43,2.07-1.61V87.49a1.58,1.58,0,0,0-.89-1.45ZM53.81,88.48A82.05,82.05,0,0,1,66.5,83.74v57.13A1.63,1.63,0,0,0,68,142.5c28.51,2.92,42.3,12.91,54.17,28.23-20.21-7.1-42-10.43-68.37.89Zm70.72,97.18c-20.47-5.71-41.2-7.2-70.72.14v-3.48c31.62-13.79,65.63-2,70.72,0Zm0-6.85c-19-6.52-45.35-10.32-70.72,0v-3.56c25.44-12.31,52.77-7.78,70.72,0Zm0-10.42c-2.11-3-16.93-26.27-54.77-29V56.07c27.81,2.65,45.62,16.43,54.77,31.82ZM199,185.8c-22.93-7.14-56.19-5.27-71.16-.13v-3.35c4.79-1.81,39.33-13.88,71.16,0Zm0-7c-25.32-10.32-52.18-6.44-71.16.07v-3.61c5.81-2.58,38.64-15.75,71.16,0Z"/><path class="cls-9" d="M183.53,41.28c-.69-4.7-7.68-5.1-8.89-.54-5.48,21.78-3.35,40.16-1.85,46-4.61,5.07-.85,7.85-2.56,11.88-1.47,2.58.52,6.29,3.55,6.14,6.71-.14,10.87-3.5,11.72-9.45.51-3.49.14-6.21-1.06-8.12,4.15-15.92.07-38.32-.91-45.93Zm-5.75.32a1.33,1.33,0,0,1,2.54.22c1.27,7.5,4,26.69,1.67,42.9a1.71,1.71,0,0,1-1.69,1.49h-3.1a1.7,1.7,0,0,1-1.69-1.46C175,81,172.43,61.12,177.78,41.6Zm4.5,53.27c-.63,4.37-3.43,6.55-8.56,6.65a.64.64,0,0,1-.57-.34,1,1,0,0,1,0-1c2.35-3.73-1.27-7.9,2-11.15a5,5,0,0,0,2,.45c1.07,0,3.63.16,4.62-.25.66,1.24.82,3.16.46,5.66Z"/><path class="cls-9" d="M191.55,137.45c-.23-9.12-4-14.35-12.38-16.24C158.93,117,168.41,100.15,154,98.78c-11-.32-15.92,16.53-15.55,25.47.51,17.65,15.59,32.09,33.48,32.08,11.56.31,20.2-7.67,19.63-18.88Zm-7.25,11.22c-3.16,3.19-7.8,4.66-13.78,4.37-15.67-.76-28.33-13.45-28.83-28.89-.44-6.8,3.74-22.34,12.17-22.12a7,7,0,0,1,6.46,5.37c1.38,5.34,5.58,14.66,18.25,17a11.63,11.63,0,0,1,8.23,5.68c2.3,4.92,2.33,14.15-2.5,18.58Z"/></g></g></svg>