<svg xmlns="http://www.w3.org/2000/svg" viewBox="0 0 257.7 257.7"><defs><style>.cls-1{fill:#888eba;stroke:#cbabc8;stroke-miterlimit:8;stroke-width:17px;}.cls-2{fill:#ffba4a;}.cls-2,.cls-3,.cls-4,.cls-5{fill-rule:evenodd;}.cls-3{fill:#f2f2f2;}.cls-4{fill:#a3bfee;}.cls-5{fill:#00c9af;}.cls-6{fill:#42434d;}</style></defs><g id="Слой_2" data-name="Слой 2"><g id="Слой_1-2" data-name="Слой 1"><circle class="cls-1" cx="128.85" cy="128.85" r="120.35"/><path class="cls-2" d="M110.2,101.91H216.39v-6a7.59,7.59,0,0,0-7.56-7.57H83.73a7.6,7.6,0,0,0-7.57,7.57v12.86h27.23A6.83,6.83,0,0,0,110.2,101.91Z"/><path class="cls-3" d="M208.83,190.4a7.58,7.58,0,0,0,7.56-7.56V101.91H110.2a6.83,6.83,0,0,1-6.81,6.81H76.16v74.12a7.59,7.59,0,0,0,7.57,7.56Z"/><path class="cls-3" d="M83.73,88.29H189.16V70.59H83a6.83,6.83,0,0,1-6.81,6.81H48.93v74.12a7.6,7.6,0,0,0,7.57,7.57H76.16V95.86A7.6,7.6,0,0,1,83.73,88.29Z"/><path class="cls-2" d="M83,70.59H189.16v-6A7.58,7.58,0,0,0,181.6,57H56.5a7.59,7.59,0,0,0-7.57,7.56V77.4H76.16A6.83,6.83,0,0,0,83,70.59Z"/><path class="cls-4" d="M134.7,147.52a5.46,5.46,0,0,1,5.45-5.45h14.3a14.5,14.5,0,0,0-10-3.94,17.67,17.67,0,0,0-35.33,0,10.91,10.91,0,0,0-10.29,14.54H97.05a7.27,7.27,0,1,0,0,14.54H134.7Z"/><path class="cls-5" d="M140.15,142.07a5.45,5.45,0,1,0,0,10.89h43.57a5.45,5.45,0,0,0,0-10.89Z"/><path class="cls-5" d="M183.72,153H140.15a5.46,5.46,0,0,1-5.45-5.44v23.82a5.46,5.46,0,0,0,5.45,5.45h43.57a5.46,5.46,0,0,0,5.44-5.45V147.52A5.46,5.46,0,0,1,183.72,153Z"/><path class="cls-5" d="M134.7,195.17a5.46,5.46,0,0,0,5.45,5.44h43.57a5.46,5.46,0,0,0,5.44-5.44V171.34a5.46,5.46,0,0,1-5.44,5.45H140.15a5.46,5.46,0,0,1-5.45-5.45Z"/><path class="cls-5" d="M183.72,200.61H140.15a5.46,5.46,0,0,1-5.45-5.44V219a5.46,5.46,0,0,0,5.45,5.45h43.57a5.46,5.46,0,0,0,5.44-5.45V195.17A5.46,5.46,0,0,1,183.72,200.61Z"/><path class="cls-6" d="M70,60.38h.09a3.41,3.41,0,1,0,0-6.81H70a3.41,3.41,0,0,0,0,6.81Z"/><path class="cls-6" d="M208.83,84.89H192.57V64.54a11,11,0,0,0-11-11H83.72a3.41,3.41,0,0,0,0,6.81H181.6a4.17,4.17,0,0,1,4.16,4.16v2.65H83a3.41,3.41,0,0,0-3.41,3.4A3.41,3.41,0,0,1,76.16,74H52.34V64.54a4.16,4.16,0,0,1,4.16-4.16h3.75a3.41,3.41,0,0,0,0-6.81H56.5a11,11,0,0,0-11,11v87a11,11,0,0,0,11,11H72.76v20.35a11,11,0,0,0,11,11H131.3V219a8.86,8.86,0,0,0,8.85,8.85h43.57a8.86,8.86,0,0,0,8.85-8.85V193.81h16.26a11,11,0,0,0,11-11v-87A11,11,0,0,0,208.83,84.89Zm4.16,11V98.5H110.2a3.41,3.41,0,0,0-3.4,3.41,3.41,3.41,0,0,1-3.41,3.4H79.57V95.86a4.16,4.16,0,0,1,4.16-4.16h125.1A4.16,4.16,0,0,1,213,95.86ZM56.5,155.68a4.16,4.16,0,0,1-4.16-4.16V80.8H76.16A10.23,10.23,0,0,0,85.79,74h100V84.89h-102a11,11,0,0,0-11,11v59.82Zm45.58-4.15a7.52,7.52,0,0,1,7.08-10,3.41,3.41,0,0,0,3.41-3.4,14.26,14.26,0,0,1,28.52,0,4.9,4.9,0,0,0,0,.54h-1a8.86,8.86,0,0,0-8.85,8.85v16.29H97.05a3.87,3.87,0,0,1,0-7.74h1.82a3.41,3.41,0,0,0,3.21-4.54Zm83.68,19.81a2.07,2.07,0,0,1-2,2H140.15a2.06,2.06,0,0,1-2-2V156.13a9.11,9.11,0,0,0,2,.24h43.57a9.18,9.18,0,0,0,2-.24ZM138.11,180a8.57,8.57,0,0,0,2,.24h43.57a8.63,8.63,0,0,0,2-.24v15.22a2.08,2.08,0,0,1-2,2H140.15a2.07,2.07,0,0,1-2-2Zm45.61-30.39H140.15a2,2,0,0,1,0-4.09h43.57a2,2,0,0,1,0,4.09Zm0,71.48H140.15a2.07,2.07,0,0,1-2-2V203.78a9.11,9.11,0,0,0,2,.24h43.57a9.18,9.18,0,0,0,2-.24V219A2.08,2.08,0,0,1,183.72,221Zm25.11-34H192.57V147.52a8.86,8.86,0,0,0-8.85-8.85h-28a17.87,17.87,0,0,0-8.06-3.67,21.07,21.07,0,0,0-41.68.08A14.34,14.34,0,0,0,94.85,149c0,.16,0,.31,0,.46a10.67,10.67,0,0,0,2.19,21.12H131.3V187H83.73a4.16,4.16,0,0,1-4.16-4.16V112.12h23.82a10.23,10.23,0,0,0,9.63-6.81H213v77.53A4.17,4.17,0,0,1,208.83,187Z"/><path class="cls-6" d="M121.17,202h-.08a3.41,3.41,0,1,0,0,6.81h.08a3.41,3.41,0,0,0,0-6.81Z"/><path class="cls-6" d="M111,202h-.08a3.41,3.41,0,1,0,0,6.81H111a3.41,3.41,0,0,0,0-6.81Z"/><path class="cls-6" d="M100.75,202h-.08a3.41,3.41,0,1,0,0,6.81h.08a3.41,3.41,0,0,0,0-6.81Z"/><path class="cls-6" d="M202.78,112.12h-.08a3.41,3.41,0,1,0,0,6.81h.08a3.41,3.41,0,0,0,0-6.81Z"/><path class="cls-6" d="M192.57,112.12h-.09a3.41,3.41,0,0,0,0,6.81h.09a3.41,3.41,0,0,0,0-6.81Z"/><path class="cls-6" d="M182.36,112.12h-.09a3.41,3.41,0,0,0,0,6.81h.09a3.41,3.41,0,0,0,0-6.81Z"/><path class="cls-6" d="M168.74,161.47H155.13a3.41,3.41,0,1,0,0,6.81h13.61a3.41,3.41,0,0,0,0-6.81Z"/><path class="cls-6" d="M155.13,192.1h13.61a3.4,3.4,0,0,0,0-6.8H155.13a3.4,3.4,0,1,0,0,6.8Z"/><path class="cls-6" d="M168.74,209.12H155.13a3.41,3.41,0,1,0,0,6.81h13.61a3.41,3.41,0,0,0,0-6.81Z"/></g></g></svg>