<svg xmlns="http://www.w3.org/2000/svg" viewBox="0 0 257.7 257.7"><defs><style>.cls-1{fill:#888eba;stroke:#cbabc8;stroke-miterlimit:8;stroke-width:17px;}.cls-2{fill:#ccd7f2;}.cls-3{fill:#bccced;}.cls-4{fill:#f7b594;}.cls-5{fill:#f0a479;}.cls-6{fill:#e5966e;}.cls-7{fill:#fc6870;}.cls-8{fill:#f94862;}.cls-9{fill:#8ae058;}.cls-10{fill:#80ce4d;}.cls-11{fill:#dde4f7;}</style></defs><g id="Слой_2" data-name="Слой 2"><g id="Слой_1-2" data-name="Слой 1"><circle class="cls-1" cx="128.85" cy="128.85" r="120.35"/><path class="cls-2" d="M171.92,49.41C140.53,23.57,104,41.85,104,41.85c17.3,5,106.19,29,84.76,105.72C211.78,112.93,202.19,74.33,171.92,49.41Z"/><path class="cls-3" d="M198.7,88.25c-16.11-23.78-45.92-36.39-64.17-42.5a4.32,4.32,0,0,1,.4-8.3c2.17-.49,4.54-.94,7.09-1.27A71.53,71.53,0,0,0,104,41.85c17.3,5,106.19,29,84.76,105.72C201.75,128,204.35,107.17,198.7,88.25Z"/><path class="cls-4" d="M120,131a16,16,0,1,0-16,16A16,16,0,0,0,120,131Z"/><path class="cls-4" d="M142.37,168.56H115.16a9.6,9.6,0,0,0-9.59,9.59v9.3a9.6,9.6,0,0,0,9.59,9.59h27.21a9.6,9.6,0,0,0,9.58-9.59v-9.3A9.6,9.6,0,0,0,142.37,168.56Z"/><path class="cls-4" d="M155.63,114.93a16,16,0,1,0,16,16A16,16,0,0,0,155.63,114.93Z"/><path class="cls-5" d="M100.75,131a16.06,16.06,0,0,1,9.63-14.69,16,16,0,1,0,0,29.37A16,16,0,0,1,100.75,131Z"/><path class="cls-5" d="M118.38,187.45v-9.3a9.6,9.6,0,0,1,9.58-9.59h-12.8a9.6,9.6,0,0,0-9.59,9.59v9.3a9.6,9.6,0,0,0,9.59,9.59H128A9.6,9.6,0,0,1,118.38,187.45Z"/><path class="cls-5" d="M152.41,131A16.05,16.05,0,0,1,162,116.27a16,16,0,1,0,0,29.37A16,16,0,0,1,152.41,131Z"/><path class="cls-6" d="M96.9,136.24a24.9,24.9,0,0,1-8.4-6.48,2.85,2.85,0,0,1,4.5-3.5c.4.5,9.4,11.61,22.91,3a2.85,2.85,0,0,1,3,4.81C112,138.55,104.31,139.71,96.9,136.24Z"/><path class="cls-6" d="M140.85,134.12a2.85,2.85,0,0,1,3.05-4.81c13.52,8.57,22.53-2.57,22.91-3a2.85,2.85,0,0,1,4.49,3.5,24.93,24.93,0,0,1-8.39,6.48C155.48,139.71,147.83,138.54,140.85,134.12Z"/><path class="cls-7" d="M142.81,179.93H114.72a1,1,0,0,0-.64,1.86c4.69,3.74,9.69,5.61,14.68,5.61s10-1.87,14.69-5.61A1,1,0,0,0,142.81,179.93Z"/><path class="cls-8" d="M124.92,181.79a1,1,0,0,1,.64-1.86H114.72a1,1,0,0,0-.64,1.86c4.69,3.73,9.69,5.61,14.68,5.61a20.08,20.08,0,0,0,5.42-.75A25.89,25.89,0,0,1,124.92,181.79Z"/><path class="cls-9" d="M185.8,131.26c0-28.7-43-55.47-57-63.42-14,8-57,34.72-57,63.42,0,6.29,0,18.64,0,24.87,0,1-.11,49.44,51,67.09a18.81,18.81,0,0,0,12.33,0c51.05-17.65,50.74-66.1,50.79-67.09ZM88.52,131A15.46,15.46,0,1,1,104,146.41,15.46,15.46,0,0,1,88.52,131Zm62.87,56.49a9,9,0,0,1-9,9H115.16a9,9,0,0,1-9-9v-9.3a9,9,0,0,1,9-9h27.21a9,9,0,0,1,9,9v9.3Zm4.24-41A15.46,15.46,0,1,1,171.08,131,15.45,15.45,0,0,1,155.63,146.41Z"/><path class="cls-10" d="M134.28,223.22c-51-17.65-50.9-66.1-50.95-67.09,0-6.23,0-18.58,0-24.87,0-25.44,33.79-49.36,51.23-60-2.23-1.37-4.2-2.52-5.8-3.42-14,8-57,34.72-57,63.42,0,6.29,0,18.64,0,24.87,0,1-.11,49.44,51,67.09a18.9,18.9,0,0,0,12,.12Z"/><path class="cls-11" d="M129.93,70.12l-1.17-.67L102.92,56.52l-16.8-7s-53.7,26-17.26,98c1,1.89,1.91,3.65,2.86,5.3V134.3C71.72,107.06,113.68,79.64,129.93,70.12Z"/><path class="cls-2" d="M71.72,134.3a28.08,28.08,0,0,1,.46-5c-15.62-46.57,9.7-69.66,20.48-77.05l-6.54-2.72s-53.7,26-17.26,98c1,1.9,1.91,3.66,2.86,5.31Z"/><path class="cls-2" d="M129.93,70.12l-1.17-.67-19.22-9.62C46.19,89,71.72,156.11,71.72,156.11h0V134.3C71.72,107.06,113.68,79.64,129.93,70.12Z"/><path class="cls-3" d="M71.72,134.3c0-7.33,3-14.68,7.81-21.68,3.46-17.44,13.71-36,38.68-48.45l-8.67-4.34C46.19,89,71.72,156.11,71.72,156.11h0Z"/><path class="cls-11" d="M101.56,41.36c-10.38-1.3-15.44,8.18-15.44,8.18l42.64,21.33c14,8,57,34.73,57,63.43v21.81h0C221.88,62.65,101.56,41.36,101.56,41.36Z"/><path class="cls-2" d="M189.84,104.33C176,88.49,155.49,75.91,146.62,70.87L110.14,52.63a5.21,5.21,0,0,1-.59-9c.17-.12.35-.23.53-.34-5.27-1.37-8.52-2-8.52-2-10.38-1.3-15.44,8.18-15.44,8.18l42.64,21.33c14,8,57,34.73,57,63.43v21.81h0C193.75,135.53,194.11,118.45,189.84,104.33Z"/><path class="cls-10" d="M128.76,165.21a10.21,10.21,0,0,1-10.2-10.2,2.85,2.85,0,0,1,5.7,0,4.51,4.51,0,1,0,9,0,2.85,2.85,0,1,1,5.69,0A10.2,10.2,0,0,1,128.76,165.21Z"/></g></g></svg>