<svg xmlns="http://www.w3.org/2000/svg" viewBox="0 0 317.71 317.43"><defs><style>.cls-1{fill:#888eba;}.cls-2,.cls-3{fill:none;stroke-miterlimit:8;stroke-width:9px;}.cls-2{stroke:#cbabc8;}.cls-3{stroke:#fff;}.cls-4{fill:#fbe2cb;}.cls-5{fill:#e4c95c;}.cls-6{fill:#f00044;}.cls-7{fill:#08fff9;}</style></defs><g id="Слой_2" data-name="Слой 2"><g id="Слой_1-2" data-name="Слой 1"><path class="cls-1" d="M312,158.94c1.76-3.68,1.56-9.67-.42-13a17.07,17.07,0,0,1-1.25-12.45c1.28-3.65.33-9.1-2-11.86a14.72,14.72,0,0,1-2.8-11.29c.8-3.6-.82-8.52-3.52-10.72a13.06,13.06,0,0,1-4.2-10.13c.34-3.51-1.89-7.9-4.84-9.55a11.93,11.93,0,0,1-5.44-9,10.16,10.16,0,0,0-6-8.4A11.21,11.21,0,0,1,275,54.72a9.76,9.76,0,0,0-7-7.24,10.84,10.84,0,0,1-7.48-6.67,9.58,9.58,0,0,0-7.91-6.08,10.68,10.68,0,0,1-8.28-5.51,9.54,9.54,0,0,0-8.62-4.92A10.66,10.66,0,0,1,226.69,20a9.59,9.59,0,0,0-9.19-3.77A10.68,10.68,0,0,1,208.09,13a9.71,9.71,0,0,0-9.61-2.61A10.21,10.21,0,0,1,188.8,8.3c-2.26-2.17-6.91-2.86-9.88-1.45A10.83,10.83,0,0,1,169,6c-2.64-1.9-7.06-1.91-10-.3A10.4,10.4,0,0,1,149,6a9.82,9.82,0,0,0-10,.86,10.76,10.76,0,0,1-9.87,1.44,9.32,9.32,0,0,0-9.71,2,10.75,10.75,0,0,1-9.62,2.6A9.66,9.66,0,0,0,100.37,16a10.69,10.69,0,0,1-9.2,3.76,9.57,9.57,0,0,0-8.94,4.34,10.69,10.69,0,0,1-8.64,4.92,9.56,9.56,0,0,0-8.31,5.5,10.74,10.74,0,0,1-7.92,6.08,9.67,9.67,0,0,0-7.51,6.66,11,11,0,0,1-7.05,7.25,9.94,9.94,0,0,0-6.57,7.82,11.54,11.54,0,0,1-6,8.4,10.49,10.49,0,0,0-5.47,9,12.51,12.51,0,0,1-4.86,9.57c-2.84,1.92-4.78,6.58-4.22,10.15a13.9,13.9,0,0,1-3.54,10.73c-2.55,2.47-3.85,7.67-2.82,11.31a15.89,15.89,0,0,1-2.07,11.89C5,136.46,4.45,142.2,6,145.89a18.54,18.54,0,0,1-.43,13.05"/><path class="cls-2" d="M312,158.94c1.76-3.68,1.56-9.67-.42-13a17.07,17.07,0,0,1-1.25-12.45c1.28-3.65.33-9.1-2-11.86a14.72,14.72,0,0,1-2.8-11.29c.8-3.6-.82-8.52-3.52-10.72a13.06,13.06,0,0,1-4.2-10.13c.34-3.51-1.89-7.9-4.84-9.55a11.93,11.93,0,0,1-5.44-9,10.16,10.16,0,0,0-6-8.4A11.21,11.21,0,0,1,275,54.72a9.76,9.76,0,0,0-7-7.24,10.84,10.84,0,0,1-7.48-6.67,9.58,9.58,0,0,0-7.91-6.08,10.68,10.68,0,0,1-8.28-5.51,9.54,9.54,0,0,0-8.62-4.92A10.66,10.66,0,0,1,226.69,20a9.59,9.59,0,0,0-9.19-3.77A10.68,10.68,0,0,1,208.09,13a9.71,9.71,0,0,0-9.61-2.61A10.21,10.21,0,0,1,188.8,8.3c-2.26-2.17-6.91-2.86-9.88-1.45A10.83,10.83,0,0,1,169,6c-2.64-1.9-7.06-1.91-10-.3A10.4,10.4,0,0,1,149,6a9.82,9.82,0,0,0-10,.86,10.76,10.76,0,0,1-9.87,1.44,9.32,9.32,0,0,0-9.71,2,10.75,10.75,0,0,1-9.62,2.6A9.66,9.66,0,0,0,100.37,16a10.69,10.69,0,0,1-9.2,3.76,9.57,9.57,0,0,0-8.94,4.34,10.69,10.69,0,0,1-8.64,4.92,9.56,9.56,0,0,0-8.31,5.5,10.74,10.74,0,0,1-7.92,6.08,9.67,9.67,0,0,0-7.51,6.66,11,11,0,0,1-7.05,7.25,9.94,9.94,0,0,0-6.57,7.82,11.54,11.54,0,0,1-6,8.4,10.49,10.49,0,0,0-5.47,9,12.51,12.51,0,0,1-4.86,9.57c-2.84,1.92-4.78,6.58-4.22,10.15a13.9,13.9,0,0,1-3.54,10.73c-2.55,2.47-3.85,7.67-2.82,11.31a15.89,15.89,0,0,1-2.07,11.89C5,136.46,4.45,142.2,6,145.89a18.54,18.54,0,0,1-.43,13.05"/><path class="cls-1" d="M312.26,158.37a18.65,18.65,0,0,0-.44,13.07c1.51,3.69.92,9.43-1.27,12.48a15.88,15.88,0,0,0-2.07,11.9c1,3.65-.27,8.85-2.83,11.32a13.93,13.93,0,0,0-3.54,10.74c.55,3.57-1.39,8.23-4.23,10.15a12.51,12.51,0,0,0-4.87,9.58,10.49,10.49,0,0,1-5.47,9,11.6,11.6,0,0,0-6.05,8.41,9.94,9.94,0,0,1-6.57,7.83,11,11,0,0,0-7.06,7.24,9.68,9.68,0,0,1-7.51,6.67,10.75,10.75,0,0,0-7.93,6.08,9.6,9.6,0,0,1-8.31,5.5,10.67,10.67,0,0,0-8.65,4.92,9.61,9.61,0,0,1-8.94,4.34,10.7,10.7,0,0,0-9.22,3.75,9.66,9.66,0,0,1-9.43,3.18,10.76,10.76,0,0,0-9.63,2.6,9.32,9.32,0,0,1-9.71,1.95,10.78,10.78,0,0,0-9.88,1.44,9.84,9.84,0,0,1-10,.86,11.17,11.17,0,0,0-10,.27,9.51,9.51,0,0,1-10-.25,10.8,10.8,0,0,0-10-.89c-3,1.41-7.61.72-9.88-1.46a10.21,10.21,0,0,0-9.68-2.07,9.69,9.69,0,0,1-9.6-2.62,10.71,10.71,0,0,0-9.42-3.19A9.61,9.61,0,0,1,91,297.37,10.66,10.66,0,0,0,82,293a9.53,9.53,0,0,1-8.62-4.93,10.7,10.7,0,0,0-8.28-5.51,9.55,9.55,0,0,1-7.9-6.09,10.84,10.84,0,0,0-7.49-6.66,9.77,9.77,0,0,1-7-7.25,11.22,11.22,0,0,0-6.53-7.82,10.14,10.14,0,0,1-6-8.4,11.93,11.93,0,0,0-5.44-9c-2.95-1.64-5.17-6-4.84-9.55a13.06,13.06,0,0,0-4.19-10.13C13,215.51,11.4,210.58,12.2,207A14.7,14.7,0,0,0,9.4,195.7c-2.37-2.76-3.31-8.21-2-11.87a17,17,0,0,0-1.24-12.44c-2-3.35-2.17-9.33-.42-13"/><path class="cls-2" d="M312.26,158.37a18.65,18.65,0,0,0-.44,13.07c1.51,3.69.92,9.43-1.27,12.48a15.88,15.88,0,0,0-2.07,11.9c1,3.65-.27,8.85-2.83,11.32a13.93,13.93,0,0,0-3.54,10.74c.55,3.57-1.39,8.23-4.23,10.15a12.51,12.51,0,0,0-4.87,9.58,10.49,10.49,0,0,1-5.47,9,11.6,11.6,0,0,0-6.05,8.41,9.94,9.94,0,0,1-6.57,7.83,11,11,0,0,0-7.06,7.24,9.68,9.68,0,0,1-7.51,6.67,10.75,10.75,0,0,0-7.93,6.08,9.6,9.6,0,0,1-8.31,5.5,10.67,10.67,0,0,0-8.65,4.92,9.61,9.61,0,0,1-8.94,4.34,10.7,10.7,0,0,0-9.22,3.75,9.66,9.66,0,0,1-9.43,3.18,10.76,10.76,0,0,0-9.63,2.6,9.32,9.32,0,0,1-9.71,1.95,10.78,10.78,0,0,0-9.88,1.44,9.84,9.84,0,0,1-10,.86,11.17,11.17,0,0,0-10,.27,9.51,9.51,0,0,1-10-.25,10.8,10.8,0,0,0-10-.89c-3,1.41-7.61.72-9.88-1.46a10.21,10.21,0,0,0-9.68-2.07,9.69,9.69,0,0,1-9.6-2.62,10.71,10.71,0,0,0-9.42-3.19A9.61,9.61,0,0,1,91,297.37,10.66,10.66,0,0,0,82,293a9.53,9.53,0,0,1-8.62-4.93,10.7,10.7,0,0,0-8.28-5.51,9.55,9.55,0,0,1-7.9-6.09,10.84,10.84,0,0,0-7.49-6.66,9.77,9.77,0,0,1-7-7.25,11.22,11.22,0,0,0-6.53-7.82,10.14,10.14,0,0,1-6-8.4,11.93,11.93,0,0,0-5.44-9c-2.95-1.64-5.17-6-4.84-9.55a13.06,13.06,0,0,0-4.19-10.13C13,215.51,11.4,210.58,12.2,207A14.7,14.7,0,0,0,9.4,195.7c-2.37-2.76-3.31-8.21-2-11.87a17,17,0,0,0-1.24-12.44c-2-3.35-2.17-9.33-.42-13"/><path class="cls-3" d="M312,158.94c1.76-3.68,1.56-9.67-.42-13a17.07,17.07,0,0,1-1.25-12.45c1.28-3.65.33-9.1-2-11.86a14.72,14.72,0,0,1-2.8-11.29c.8-3.6-.82-8.52-3.52-10.72a13.06,13.06,0,0,1-4.2-10.13c.34-3.51-1.89-7.9-4.84-9.55a11.93,11.93,0,0,1-5.44-9,10.16,10.16,0,0,0-6-8.4A11.21,11.21,0,0,1,275,54.72a9.76,9.76,0,0,0-7-7.24,10.84,10.84,0,0,1-7.48-6.67,9.58,9.58,0,0,0-7.91-6.08,10.68,10.68,0,0,1-8.28-5.51,9.54,9.54,0,0,0-8.62-4.92A10.66,10.66,0,0,1,226.69,20a9.59,9.59,0,0,0-9.19-3.77A10.68,10.68,0,0,1,208.09,13a9.71,9.71,0,0,0-9.61-2.61A10.21,10.21,0,0,1,188.8,8.3c-2.26-2.17-6.91-2.86-9.88-1.45A10.83,10.83,0,0,1,169,6c-2.64-1.9-7.06-1.91-10-.3A10.4,10.4,0,0,1,149,6a9.82,9.82,0,0,0-10,.86,10.76,10.76,0,0,1-9.87,1.44,9.32,9.32,0,0,0-9.71,2,10.75,10.75,0,0,1-9.62,2.6A9.66,9.66,0,0,0,100.37,16a10.69,10.69,0,0,1-9.2,3.76,9.57,9.57,0,0,0-8.94,4.34,10.69,10.69,0,0,1-8.64,4.92,9.56,9.56,0,0,0-8.31,5.5,10.74,10.74,0,0,1-7.92,6.08,9.67,9.67,0,0,0-7.51,6.66,11,11,0,0,1-7.05,7.25,9.94,9.94,0,0,0-6.57,7.82,11.54,11.54,0,0,1-6,8.4,10.49,10.49,0,0,0-5.47,9,12.51,12.51,0,0,1-4.86,9.57c-2.84,1.92-4.78,6.58-4.22,10.15a13.9,13.9,0,0,1-3.54,10.73c-2.55,2.47-3.85,7.67-2.82,11.31a15.89,15.89,0,0,1-2.07,11.89C5,136.46,4.45,142.2,6,145.89a18.54,18.54,0,0,1-.43,13.05"/><path class="cls-3" d="M312.26,158.37a18.65,18.65,0,0,0-.44,13.07c1.51,3.69.92,9.43-1.27,12.48a15.88,15.88,0,0,0-2.07,11.9c1,3.65-.27,8.85-2.83,11.32a13.93,13.93,0,0,0-3.54,10.74c.55,3.57-1.39,8.23-4.23,10.15a12.51,12.51,0,0,0-4.87,9.58,10.49,10.49,0,0,1-5.47,9,11.6,11.6,0,0,0-6.05,8.41,9.94,9.94,0,0,1-6.57,7.83,11,11,0,0,0-7.06,7.24,9.68,9.68,0,0,1-7.51,6.67,10.75,10.75,0,0,0-7.93,6.08,9.6,9.6,0,0,1-8.31,5.5,10.67,10.67,0,0,0-8.65,4.92,9.61,9.61,0,0,1-8.94,4.34,10.7,10.7,0,0,0-9.22,3.75,9.66,9.66,0,0,1-9.43,3.18,10.76,10.76,0,0,0-9.63,2.6,9.32,9.32,0,0,1-9.71,1.95,10.78,10.78,0,0,0-9.88,1.44,9.84,9.84,0,0,1-10,.86,11.17,11.17,0,0,0-10,.27,9.51,9.51,0,0,1-10-.25,10.8,10.8,0,0,0-10-.89c-3,1.41-7.61.72-9.88-1.46a10.21,10.21,0,0,0-9.68-2.07,9.69,9.69,0,0,1-9.6-2.62,10.71,10.71,0,0,0-9.42-3.19A9.61,9.61,0,0,1,91,297.37,10.66,10.66,0,0,0,82,293a9.53,9.53,0,0,1-8.62-4.93,10.7,10.7,0,0,0-8.28-5.51,9.55,9.55,0,0,1-7.9-6.09,10.84,10.84,0,0,0-7.49-6.66,9.77,9.77,0,0,1-7-7.25,11.22,11.22,0,0,0-6.53-7.82,10.14,10.14,0,0,1-6-8.4,11.93,11.93,0,0,0-5.44-9c-2.95-1.64-5.17-6-4.84-9.55a13.06,13.06,0,0,0-4.19-10.13C13,215.51,11.4,210.58,12.2,207A14.7,14.7,0,0,0,9.4,195.7c-2.37-2.76-3.31-8.21-2-11.87a17,17,0,0,0-1.24-12.44c-2-3.35-2.17-9.33-.42-13"/><circle class="cls-4" cx="156.62" cy="159.51" r="107.27"/><path class="cls-5" d="M258.62,63.69l-2.76.76A5.1,5.1,0,0,0,252.33,68l-.76,2.76L250.81,68a5.09,5.09,0,0,0-3.54-3.54l-2.76-.76,2.76-.76a5.1,5.1,0,0,0,3.54-3.53l.76-2.76.76,2.76a5.1,5.1,0,0,0,3.53,3.53Z"/><path class="cls-5" d="M261.7,199.25l-1.49.41a2.76,2.76,0,0,0-1.92,1.91l-.41,1.5-.41-1.5a2.74,2.74,0,0,0-1.91-1.91l-1.5-.41,1.5-.41a2.74,2.74,0,0,0,1.91-1.91l.41-1.5.41,1.5a2.76,2.76,0,0,0,1.92,1.91Z"/><path class="cls-5" d="M68,64.92l-1.89.52a3.51,3.51,0,0,0-2.42,2.42l-.52,1.89-.52-1.89a3.49,3.49,0,0,0-2.42-2.42l-1.89-.52,1.89-.52A3.46,3.46,0,0,0,62.65,62l.52-1.89L63.69,62a3.47,3.47,0,0,0,2.42,2.42Z"/><path class="cls-5" d="M148.27,64.64l-.69.19a1.26,1.26,0,0,0-.88.88l-.19.69-.19-.69a1.26,1.26,0,0,0-.88-.88l-.69-.19.69-.19a1.24,1.24,0,0,0,.88-.88l.19-.68.19.68a1.24,1.24,0,0,0,.88.88Z"/><path class="cls-5" d="M259.64,163.7l-.69.19a1.26,1.26,0,0,0-.88.88l-.19.69-.19-.69a1.26,1.26,0,0,0-.88-.88l-.69-.19.69-.19a1.24,1.24,0,0,0,.88-.88l.19-.68.19.68a1.24,1.24,0,0,0,.88.88Z"/><path class="cls-5" d="M56.81,165.46l-.69.19a1.28,1.28,0,0,0-.88.88l-.19.69-.19-.69a1.24,1.24,0,0,0-.88-.88l-.68-.19.68-.19a1.24,1.24,0,0,0,.88-.88l.19-.69.19.69a1.28,1.28,0,0,0,.88.88Z"/><path class="cls-5" d="M187,64.64l-.17,0a.33.33,0,0,0-.23.23l0,.17-.05-.17a.33.33,0,0,0-.23-.23l-.17,0,.17,0a.32.32,0,0,0,.23-.22l.05-.17,0,.17a.32.32,0,0,0,.23.22Z"/><path class="cls-6" d="M137,161a21.91,21.91,0,0,0-11.39,40.82,21.56,21.56,0,0,1-3.51-11.51A22.08,22.08,0,0,1,144.32,168a23,23,0,0,1,7,1.09V144.5a47.74,47.74,0,0,0-7-.52H144v18.07A23,23,0,0,0,137,161Z"/><path class="cls-6" d="M190.57,87.26H184a37.53,37.53,0,0,0,14.19,22.62A37.79,37.79,0,0,1,190.57,87.26Z"/><path class="cls-6" d="M227.93,124.66a38.67,38.67,0,0,1-7-.67l-37.54,4.82L144,228.36a49.16,49.16,0,0,1-7,.52,46.38,46.38,0,0,1-28.49-9.65,40.35,40.35,0,0,0,3,3.2,46.51,46.51,0,0,0,32.87,13.47,49.16,49.16,0,0,0,7-.52,46.29,46.29,0,0,0,25.89-12.95,45.39,45.39,0,0,0,13.61-32.29l-.45-54.31A60,60,0,0,0,204,143.77a61.4,61.4,0,0,0,23.93,4.85"/><path class="cls-7" d="M111.38,157.5A46.49,46.49,0,0,1,144,144v-6.5a47.74,47.74,0,0,0-7-.52,46.4,46.4,0,0,0-32.94,13.52,45.85,45.85,0,0,0,4.42,68.78A45.52,45.52,0,0,1,97.8,190,46.06,46.06,0,0,1,111.38,157.5Z"/><path class="cls-7" d="M220.91,124v-6.54h-.06a37.22,37.22,0,0,1-22.59-7.57A37.28,37.28,0,0,0,220.91,124Z"/><path class="cls-7" d="M143.07,211.87a22.84,22.84,0,0,0,8.24-1.07A22,22,0,0,0,166.55,190l0-36.32V87.26H184a37.81,37.81,0,0,1-.74-7H159.25v66.34l0,36.32A22,22,0,0,1,144,203.75a21.68,21.68,0,0,1-8.25,1.07,22.34,22.34,0,0,1-10.13-3.08,22.23,22.23,0,0,0,17.46,10.13Z"/><path d="M144,228.36a46.36,46.36,0,0,0,25.88-13,45.42,45.42,0,0,0,13.62-32.29l-.12-54.31A60,60,0,0,0,197,136.75a61.4,61.4,0,0,0,23.93,4.85V124a37.28,37.28,0,0,1-22.65-14.11,37.39,37.39,0,0,1-14.19-22.62H166.58V153.6l0,36.32a22,22,0,0,1-15.24,20.85,21.6,21.6,0,0,1-8.24,1.07,22.26,22.26,0,0,1-17.46-10.1A21.91,21.91,0,0,1,137,160.92a23,23,0,0,1,7,1.1V144a46.49,46.49,0,0,0-32.61,13.52,45.76,45.76,0,0,0-13.55,32.45,45.19,45.19,0,0,0,10.68,29.28A46.44,46.44,0,0,0,137,228.84a43.91,43.91,0,0,0,7-.48Z"/></g></g></svg>