<svg xmlns="http://www.w3.org/2000/svg" viewBox="0 0 317.71 317.43"><defs><style>.cls-1{fill:#888eba;}.cls-2,.cls-3{fill:none;stroke-miterlimit:8;stroke-width:9px;}.cls-2{stroke:#cbabc8;}.cls-3{stroke:#fff;}.cls-4{fill:#fbe2cb;}.cls-5{fill:#e4c95c;}.cls-6{fill:#54528e;}.cls-7{fill:#fba58e;}.cls-8{fill:#eff4f9;}.cls-9{fill:#f37;}.cls-10{fill:#2fe6a9;}.cls-11{fill:#d8e5ef;}</style></defs><g id="Слой_2" data-name="Слой 2"><g id="Слой_1-2" data-name="Слой 1"><path class="cls-1" d="M312,158.94c1.75-3.68,1.55-9.67-.43-13a17.07,17.07,0,0,1-1.25-12.45c1.28-3.65.33-9.1-2-11.86a14.72,14.72,0,0,1-2.8-11.29c.8-3.6-.82-8.52-3.52-10.72a13.06,13.06,0,0,1-4.2-10.13c.34-3.51-1.89-7.9-4.84-9.55a11.93,11.93,0,0,1-5.44-9,10.16,10.16,0,0,0-6-8.4A11.21,11.21,0,0,1,275,54.72a9.74,9.74,0,0,0-7-7.24,10.84,10.84,0,0,1-7.48-6.67,9.6,9.6,0,0,0-7.91-6.08,10.7,10.7,0,0,1-8.28-5.51,9.54,9.54,0,0,0-8.62-4.92A10.66,10.66,0,0,1,226.69,20a9.59,9.59,0,0,0-9.19-3.77A10.68,10.68,0,0,1,208.09,13a9.71,9.71,0,0,0-9.61-2.61A10.21,10.21,0,0,1,188.8,8.3c-2.26-2.17-6.91-2.86-9.88-1.45A10.83,10.83,0,0,1,169,6c-2.64-1.9-7.06-1.91-10-.3A10.4,10.4,0,0,1,149,6a9.84,9.84,0,0,0-10,.86,10.74,10.74,0,0,1-9.87,1.44,9.34,9.34,0,0,0-9.71,2,10.75,10.75,0,0,1-9.62,2.6A9.66,9.66,0,0,0,100.37,16a10.69,10.69,0,0,1-9.2,3.76,9.59,9.59,0,0,0-8.94,4.34,10.69,10.69,0,0,1-8.64,4.92,9.55,9.55,0,0,0-8.3,5.5,10.77,10.77,0,0,1-7.93,6.08,9.68,9.68,0,0,0-7.51,6.66,11,11,0,0,1-7.05,7.25,9.94,9.94,0,0,0-6.57,7.82,11.54,11.54,0,0,1-6,8.4,10.49,10.49,0,0,0-5.47,9,12.53,12.53,0,0,1-4.86,9.57c-2.84,1.92-4.78,6.58-4.22,10.15a13.9,13.9,0,0,1-3.54,10.73c-2.55,2.47-3.85,7.67-2.82,11.31a15.89,15.89,0,0,1-2.07,11.89C5,136.46,4.45,142.2,6,145.89a18.54,18.54,0,0,1-.43,13.05"/><path class="cls-2" d="M312,158.94c1.75-3.68,1.55-9.67-.43-13a17.07,17.07,0,0,1-1.25-12.45c1.28-3.65.33-9.1-2-11.86a14.72,14.72,0,0,1-2.8-11.29c.8-3.6-.82-8.52-3.52-10.72a13.06,13.06,0,0,1-4.2-10.13c.34-3.51-1.89-7.9-4.84-9.55a11.93,11.93,0,0,1-5.44-9,10.16,10.16,0,0,0-6-8.4A11.21,11.21,0,0,1,275,54.72a9.74,9.74,0,0,0-7-7.24,10.84,10.84,0,0,1-7.48-6.67,9.6,9.6,0,0,0-7.91-6.08,10.7,10.7,0,0,1-8.28-5.51,9.54,9.54,0,0,0-8.62-4.92A10.66,10.66,0,0,1,226.69,20a9.59,9.59,0,0,0-9.19-3.77A10.68,10.68,0,0,1,208.09,13a9.71,9.71,0,0,0-9.61-2.61A10.21,10.21,0,0,1,188.8,8.3c-2.26-2.17-6.91-2.86-9.88-1.45A10.83,10.83,0,0,1,169,6c-2.64-1.9-7.06-1.91-10-.3A10.4,10.4,0,0,1,149,6a9.84,9.84,0,0,0-10,.86,10.74,10.74,0,0,1-9.87,1.44,9.34,9.34,0,0,0-9.71,2,10.75,10.75,0,0,1-9.62,2.6A9.66,9.66,0,0,0,100.37,16a10.69,10.69,0,0,1-9.2,3.76,9.59,9.59,0,0,0-8.94,4.34,10.69,10.69,0,0,1-8.64,4.92,9.55,9.55,0,0,0-8.3,5.5,10.77,10.77,0,0,1-7.93,6.08,9.68,9.68,0,0,0-7.51,6.66,11,11,0,0,1-7.05,7.25,9.94,9.94,0,0,0-6.57,7.82,11.54,11.54,0,0,1-6,8.4,10.49,10.49,0,0,0-5.47,9,12.53,12.53,0,0,1-4.86,9.57c-2.84,1.92-4.78,6.58-4.22,10.15a13.9,13.9,0,0,1-3.54,10.73c-2.55,2.47-3.85,7.67-2.82,11.31a15.89,15.89,0,0,1-2.07,11.89C5,136.46,4.45,142.2,6,145.89a18.54,18.54,0,0,1-.43,13.05"/><path class="cls-1" d="M312.26,158.37a18.65,18.65,0,0,0-.44,13.07c1.51,3.69.92,9.43-1.27,12.48a15.88,15.88,0,0,0-2.07,11.9c1,3.65-.27,8.85-2.83,11.32a13.93,13.93,0,0,0-3.54,10.74c.56,3.57-1.39,8.23-4.23,10.15A12.51,12.51,0,0,0,293,237.6a10.49,10.49,0,0,1-5.47,9,11.56,11.56,0,0,0-6,8.41,10,10,0,0,1-6.58,7.83,11,11,0,0,0-7.06,7.24,9.66,9.66,0,0,1-7.51,6.67,10.75,10.75,0,0,0-7.93,6.08,9.6,9.6,0,0,1-8.31,5.5,10.67,10.67,0,0,0-8.65,4.92,9.61,9.61,0,0,1-8.94,4.34,10.7,10.7,0,0,0-9.22,3.75,9.69,9.69,0,0,1-9.43,3.18,10.76,10.76,0,0,0-9.63,2.6,9.32,9.32,0,0,1-9.71,1.95,10.75,10.75,0,0,0-9.88,1.44,9.84,9.84,0,0,1-10,.86,11.17,11.17,0,0,0-10,.27,9.51,9.51,0,0,1-10-.25,10.8,10.8,0,0,0-10-.89c-3,1.41-7.61.72-9.88-1.46a10.2,10.2,0,0,0-9.68-2.07,9.69,9.69,0,0,1-9.6-2.62,10.71,10.71,0,0,0-9.42-3.19A9.63,9.63,0,0,1,91,297.37,10.66,10.66,0,0,0,82,293a9.53,9.53,0,0,1-8.62-4.93,10.7,10.7,0,0,0-8.28-5.51,9.55,9.55,0,0,1-7.9-6.09,10.86,10.86,0,0,0-7.49-6.66,9.77,9.77,0,0,1-7-7.25,11.22,11.22,0,0,0-6.53-7.82,10.13,10.13,0,0,1-6-8.4,12,12,0,0,0-5.44-9c-2.95-1.64-5.17-6-4.84-9.55a13,13,0,0,0-4.19-10.13C13,215.5,11.4,210.58,12.2,207A14.7,14.7,0,0,0,9.4,195.7c-2.37-2.76-3.31-8.21-2-11.87a17,17,0,0,0-1.24-12.44c-2-3.35-2.17-9.33-.42-13"/><path class="cls-2" d="M312.26,158.37a18.65,18.65,0,0,0-.44,13.07c1.51,3.69.92,9.43-1.27,12.48a15.88,15.88,0,0,0-2.07,11.9c1,3.65-.27,8.85-2.83,11.32a13.93,13.93,0,0,0-3.54,10.74c.56,3.57-1.39,8.23-4.23,10.15A12.51,12.51,0,0,0,293,237.6a10.49,10.49,0,0,1-5.47,9,11.56,11.56,0,0,0-6,8.41,10,10,0,0,1-6.58,7.83,11,11,0,0,0-7.06,7.24,9.66,9.66,0,0,1-7.51,6.67,10.75,10.75,0,0,0-7.93,6.08,9.6,9.6,0,0,1-8.31,5.5,10.67,10.67,0,0,0-8.65,4.92,9.61,9.61,0,0,1-8.94,4.34,10.7,10.7,0,0,0-9.22,3.75,9.69,9.69,0,0,1-9.43,3.18,10.76,10.76,0,0,0-9.63,2.6,9.32,9.32,0,0,1-9.71,1.95,10.75,10.75,0,0,0-9.88,1.44,9.84,9.84,0,0,1-10,.86,11.17,11.17,0,0,0-10,.27,9.51,9.51,0,0,1-10-.25,10.8,10.8,0,0,0-10-.89c-3,1.41-7.61.72-9.88-1.46a10.2,10.2,0,0,0-9.68-2.07,9.69,9.69,0,0,1-9.6-2.62,10.71,10.71,0,0,0-9.42-3.19A9.63,9.63,0,0,1,91,297.37,10.66,10.66,0,0,0,82,293a9.53,9.53,0,0,1-8.62-4.93,10.7,10.7,0,0,0-8.28-5.51,9.55,9.55,0,0,1-7.9-6.09,10.86,10.86,0,0,0-7.49-6.66,9.77,9.77,0,0,1-7-7.25,11.22,11.22,0,0,0-6.53-7.82,10.13,10.13,0,0,1-6-8.4,12,12,0,0,0-5.44-9c-2.95-1.64-5.17-6-4.84-9.55a13,13,0,0,0-4.19-10.13C13,215.5,11.4,210.58,12.2,207A14.7,14.7,0,0,0,9.4,195.7c-2.37-2.76-3.31-8.21-2-11.87a17,17,0,0,0-1.24-12.44c-2-3.35-2.17-9.33-.42-13"/><path class="cls-3" d="M312,158.94c1.75-3.68,1.55-9.67-.43-13a17.07,17.07,0,0,1-1.25-12.45c1.28-3.65.33-9.1-2-11.86a14.72,14.72,0,0,1-2.8-11.29c.8-3.6-.82-8.52-3.52-10.72a13.06,13.06,0,0,1-4.2-10.13c.34-3.51-1.89-7.9-4.84-9.55a11.93,11.93,0,0,1-5.44-9,10.16,10.16,0,0,0-6-8.4A11.21,11.21,0,0,1,275,54.72a9.74,9.74,0,0,0-7-7.24,10.84,10.84,0,0,1-7.48-6.67,9.6,9.6,0,0,0-7.91-6.08,10.7,10.7,0,0,1-8.28-5.51,9.54,9.54,0,0,0-8.62-4.92A10.66,10.66,0,0,1,226.69,20a9.59,9.59,0,0,0-9.19-3.77A10.68,10.68,0,0,1,208.09,13a9.71,9.71,0,0,0-9.61-2.61A10.21,10.21,0,0,1,188.8,8.3c-2.26-2.17-6.91-2.86-9.88-1.45A10.83,10.83,0,0,1,169,6c-2.64-1.9-7.06-1.91-10-.3A10.4,10.4,0,0,1,149,6a9.84,9.84,0,0,0-10,.86,10.74,10.74,0,0,1-9.87,1.44,9.34,9.34,0,0,0-9.71,2,10.75,10.75,0,0,1-9.62,2.6A9.66,9.66,0,0,0,100.37,16a10.69,10.69,0,0,1-9.2,3.76,9.59,9.59,0,0,0-8.94,4.34,10.69,10.69,0,0,1-8.64,4.92,9.55,9.55,0,0,0-8.3,5.5,10.77,10.77,0,0,1-7.93,6.08,9.68,9.68,0,0,0-7.51,6.66,11,11,0,0,1-7.05,7.25,9.94,9.94,0,0,0-6.57,7.82,11.54,11.54,0,0,1-6,8.4,10.49,10.49,0,0,0-5.47,9,12.53,12.53,0,0,1-4.86,9.57c-2.84,1.92-4.78,6.58-4.22,10.15a13.9,13.9,0,0,1-3.54,10.73c-2.55,2.47-3.85,7.67-2.82,11.31a15.89,15.89,0,0,1-2.07,11.89C5,136.46,4.45,142.2,6,145.89a18.54,18.54,0,0,1-.43,13.05"/><path class="cls-3" d="M312.26,158.37a18.65,18.65,0,0,0-.44,13.07c1.51,3.69.92,9.43-1.27,12.48a15.88,15.88,0,0,0-2.07,11.9c1,3.65-.27,8.85-2.83,11.32a13.93,13.93,0,0,0-3.54,10.74c.56,3.57-1.39,8.23-4.23,10.15A12.51,12.51,0,0,0,293,237.6a10.49,10.49,0,0,1-5.47,9,11.56,11.56,0,0,0-6,8.41,10,10,0,0,1-6.58,7.83,11,11,0,0,0-7.06,7.24,9.66,9.66,0,0,1-7.51,6.67,10.75,10.75,0,0,0-7.93,6.08,9.6,9.6,0,0,1-8.31,5.5,10.67,10.67,0,0,0-8.65,4.92,9.61,9.61,0,0,1-8.94,4.34,10.7,10.7,0,0,0-9.22,3.75,9.69,9.69,0,0,1-9.43,3.18,10.76,10.76,0,0,0-9.63,2.6,9.32,9.32,0,0,1-9.71,1.95,10.75,10.75,0,0,0-9.88,1.44,9.84,9.84,0,0,1-10,.86,11.17,11.17,0,0,0-10,.27,9.51,9.51,0,0,1-10-.25,10.8,10.8,0,0,0-10-.89c-3,1.41-7.61.72-9.88-1.46a10.2,10.2,0,0,0-9.68-2.07,9.69,9.69,0,0,1-9.6-2.62,10.71,10.71,0,0,0-9.42-3.19A9.63,9.63,0,0,1,91,297.37,10.66,10.66,0,0,0,82,293a9.53,9.53,0,0,1-8.62-4.93,10.7,10.7,0,0,0-8.28-5.51,9.55,9.55,0,0,1-7.9-6.09,10.86,10.86,0,0,0-7.49-6.66,9.77,9.77,0,0,1-7-7.25,11.22,11.22,0,0,0-6.53-7.82,10.13,10.13,0,0,1-6-8.4,12,12,0,0,0-5.44-9c-2.95-1.64-5.17-6-4.84-9.55a13,13,0,0,0-4.19-10.13C13,215.5,11.4,210.58,12.2,207A14.7,14.7,0,0,0,9.4,195.7c-2.37-2.76-3.31-8.21-2-11.87a17,17,0,0,0-1.24-12.44c-2-3.35-2.17-9.33-.42-13"/><circle class="cls-4" cx="157.9" cy="164.45" r="113.33"/><path class="cls-5" d="M265.67,63.22l-2.92.8A5.35,5.35,0,0,0,259,67.76l-.8,2.91-.81-2.91A5.32,5.32,0,0,0,253.68,64l-2.92-.81,2.92-.81a5.34,5.34,0,0,0,3.73-3.73l.81-2.91.8,2.91a5.37,5.37,0,0,0,3.73,3.74Z"/><path class="cls-5" d="M268.92,206.43l-1.58.44a2.9,2.9,0,0,0-2,2l-.44,1.58-.43-1.58a2.9,2.9,0,0,0-2-2l-1.58-.44,1.58-.43a2.9,2.9,0,0,0,2-2l.43-1.58.44,1.58a2.9,2.9,0,0,0,2,2Z"/><path class="cls-5" d="M64.28,64.52l-2,.55a3.64,3.64,0,0,0-2.55,2.55l-.55,2-.55-2a3.68,3.68,0,0,0-2.56-2.55l-2-.55,2-.55a3.67,3.67,0,0,0,2.56-2.56l.55-2,.55,2A3.64,3.64,0,0,0,62.28,64Z"/><path class="cls-5" d="M149.08,64.23l-.73.2a1.32,1.32,0,0,0-.93.93l-.2.72-.2-.72a1.31,1.31,0,0,0-.93-.93l-.72-.2.72-.21a1.31,1.31,0,0,0,.93-.92l.2-.73.2.73a1.36,1.36,0,0,0,.93.93Z"/><path class="cls-5" d="M266.74,168.88l-.73.2a1.36,1.36,0,0,0-.93.93l-.2.73-.2-.73a1.32,1.32,0,0,0-.93-.93l-.72-.2.72-.2a1.31,1.31,0,0,0,.93-.93l.2-.73.2.73a1.34,1.34,0,0,0,.93.93Z"/><path class="cls-5" d="M52.46,170.74l-.73.2a1.32,1.32,0,0,0-.93.93l-.2.72-.2-.72a1.31,1.31,0,0,0-.93-.93l-.73-.2.73-.2a1.34,1.34,0,0,0,.93-.93l.2-.73.2.73a1.36,1.36,0,0,0,.93.93Z"/><path class="cls-5" d="M190,64.23l-.18,0a.33.33,0,0,0-.24.23l-.05.19-.05-.19a.33.33,0,0,0-.24-.23l-.18,0,.18-.06a.33.33,0,0,0,.24-.23l.05-.19.05.19a.33.33,0,0,0,.24.23Z"/><path class="cls-6" d="M217.24,83.77h-23V99.15H121.89V83.77h-23a7,7,0,0,0-7,7V239.68a7,7,0,0,0,7,7H217.24a7,7,0,0,0,7-7V90.76A7,7,0,0,0,217.24,83.77Z"/><path class="cls-7" d="M128.88,72.58h58.38a7,7,0,0,1,7,7V99.16H121.89V79.57A7,7,0,0,1,128.88,72.58Z"/><path class="cls-8" d="M103.1,99.16H213V235.49H103.1Z"/><path class="cls-9" d="M133.08,83.77h50V99.16h-50Z"/><path class="cls-10" d="M114.29,184h13.85v14.39H114.29Z"/><path class="cls-10" d="M114.29,209.91h13.85V224.3H114.29Z"/><path class="cls-9" d="M163.66,152.39H152.48V137.62h5.59a7.79,7.79,0,1,0-7.78-7.79H139.1A19,19,0,1,1,163.66,148Z"/><path class="cls-9" d="M152.48,161.91h11.18V172.1H152.48Z"/><path class="cls-11" d="M201.86,188.12h-62a2.45,2.45,0,0,1,0-4.89h62a2.45,2.45,0,0,1,0,4.89Z"/><path class="cls-11" d="M189.36,199.08H139.89a2.45,2.45,0,0,1,0-4.89h49.47a2.45,2.45,0,1,1,0,4.89Z"/><path class="cls-11" d="M201.86,214.07h-62a2.45,2.45,0,0,1,0-4.89h62a2.45,2.45,0,0,1,0,4.89Z"/><path class="cls-11" d="M189.36,225H139.89a2.45,2.45,0,0,1,0-4.89h49.47a2.45,2.45,0,1,1,0,4.89Z"/></g></g></svg>