<svg xmlns="http://www.w3.org/2000/svg" viewBox="0 0 257.7 257.7"><defs><style>.cls-1{fill:#888eba;stroke:#cbabc8;stroke-miterlimit:8;stroke-width:17px;}.cls-2{fill:#c3c6dd;}.cls-3{fill:#ecc6a7;}.cls-4{fill:#e1a472;}.cls-5{fill:#bd2e07;}.cls-6{fill:#f7f3f1;}.cls-7{fill:#6e75ab;}.cls-8{fill:#6dc17d;}.cls-9{fill:#5ea570;}.cls-10{fill:#5b69aa;}</style></defs><g id="Слой_2" data-name="Слой 2"><g id="Слой_1-2" data-name="Слой 1"><circle class="cls-1" cx="128.85" cy="128.85" r="120.35"/><path class="cls-2" d="M72.23,96.7a2.64,2.64,0,0,1-2-4.34l51.24-61.59a2.65,2.65,0,1,1,4.07,3.39L74.27,95.75a2.64,2.64,0,0,1-2,1Z"/><path class="cls-3" d="M92.33,161,56.84,99.59a3.56,3.56,0,0,1,1.3-4.86L152.62,40.2a3.55,3.55,0,0,1,4.85,1.3L193,103a3.54,3.54,0,0,1-1.3,4.85L97.19,162.34a3.55,3.55,0,0,1-4.86-1.3Z"/><path class="cls-4" d="M193,103,157.47,41.5a3.55,3.55,0,0,0-4.85-1.3l-7.53,4.34a3.53,3.53,0,0,1,4.81,1.33l35.49,61.46a3.51,3.51,0,0,1-1.25,4.82l7.52-4.34A3.54,3.54,0,0,0,193,103Z"/><path class="cls-5" d="M160.81,91.05a7.22,7.22,0,1,0,9.86,2.64,7.22,7.22,0,0,0-9.86-2.64Z"/><path class="cls-6" d="M144.49,62.79a7.22,7.22,0,1,0,9.86,2.64A7.22,7.22,0,0,0,144.49,62.79Z"/><path class="cls-7" d="M76.71,104.65l21.17,36.66a2.37,2.37,0,0,0,3.23.87L146,116.24a2.35,2.35,0,0,0,.86-3.22L125.73,76.35a2.36,2.36,0,0,0-3.23-.86L77.57,101.42A2.37,2.37,0,0,0,76.71,104.65Z"/><path class="cls-8" d="M66.16,205,53.23,130.2l72.24-7.06,71.11,7.06L183.64,205a3.53,3.53,0,0,1-3.47,2.93H69.64A3.55,3.55,0,0,1,66.16,205Z"/><path class="cls-9" d="M186,130.2,173.05,205a3.53,3.53,0,0,1-3.48,2.93h10.6a3.53,3.53,0,0,0,3.47-2.93l12.94-74.77Z"/><path class="cls-6" d="M135.51,152.11l-5.08-8.79a6.38,6.38,0,0,0-11.06,0l-8,13.85-.91-3a2.65,2.65,0,0,0-5.08,1.52l2.49,8.27a3.31,3.31,0,0,0,1.53,1.93h0l.08,0a3.29,3.29,0,0,0,2.37.32l8.4-2a2.65,2.65,0,1,0-1.22-5.15l-3.08.72L124,146a1.05,1.05,0,0,1,.94-.54,1.07,1.07,0,0,1,.95.54l5.07,8.79a2.65,2.65,0,0,0,4.59-2.64Z"/><path class="cls-6" d="M120.46,180a2.65,2.65,0,0,0-3.86,3.63l2.17,2.3h-16a1.07,1.07,0,0,1-1-.54,1.08,1.08,0,0,1,0-1.09l5.08-8.79a2.65,2.65,0,0,0-4.59-2.65l-5.07,8.79a6.39,6.39,0,0,0,5.53,9.58h16l-2.17,2.3a2.65,2.65,0,0,0,3.86,3.63l5.92-6.28a3.36,3.36,0,0,0,0-4.6Z"/><path class="cls-6" d="M152.56,181.63l-8-13.85,3.08.73a2.65,2.65,0,1,0,1.22-5.15l-8.4-2a3.37,3.37,0,0,0-2.45.36,3.33,3.33,0,0,0-1.53,1.94L134,171.94a2.65,2.65,0,0,0,5.08,1.52l.91-3,8,13.85a1.09,1.09,0,0,1-.94,1.63H136.88a2.65,2.65,0,0,0,0,5.3H147a6.39,6.39,0,0,0,5.53-9.58Z"/><path class="cls-2" d="M42.6,116v12.39a1.77,1.77,0,0,0,1.77,1.77H205.44a1.76,1.76,0,0,0,1.76-1.77V116a1.76,1.76,0,0,0-1.76-1.77H44.37A1.77,1.77,0,0,0,42.6,116Z"/><path class="cls-10" d="M205.44,114.27H194.85a1.76,1.76,0,0,1,1.76,1.77v12.39a1.76,1.76,0,0,1-1.76,1.77h10.59a1.76,1.76,0,0,0,1.76-1.77V116a1.76,1.76,0,0,0-1.76-1.77Z"/></g></g></svg>