<svg xmlns="http://www.w3.org/2000/svg" viewBox="0 0 257.7 257.7"><defs><style>.cls-1{fill:#888eba;stroke:#cbabc8;stroke-miterlimit:8;stroke-width:17px;}.cls-2{fill:#e79098;}.cls-3{fill:#e3f6fc;}.cls-4{fill:#cfeffc;}.cls-5{fill:#fbe88c;}.cls-6{fill:#c5e97d;}.cls-7{fill:#e17983;}</style></defs><g id="Слой_2" data-name="Слой 2"><g id="Слой_1-2" data-name="Слой 1"><circle class="cls-1" cx="128.85" cy="128.85" r="120.35"/><path class="cls-2" d="M136.18,98.73h19.49a33.48,33.48,0,0,1,33.47,33.87c-.21,18.4-15.49,33.08-33.9,33.08h-50a5.75,5.75,0,1,0,0,11.5h10.86a16.76,16.76,0,0,1,16.76,16.76v28.72a4,4,0,0,1-4,4h-5a4,4,0,0,1-4-4V194.33a4.9,4.9,0,0,0-4.91-4.9H88.43a31.33,31.33,0,1,1,0-62.66H84.1a26.86,26.86,0,0,1-27-26.51,26.6,26.6,0,0,1,26.6-26.7h43.53V44.71a5.83,5.83,0,0,1,5.83-5.83h16.77a5.84,5.84,0,0,1,5.84,5.83V79.25a19.49,19.49,0,0,1-19.49,19.48Z"/><circle class="cls-3" cx="183.68" cy="168.61" r="39.52"/><path class="cls-4" d="M160,168.61a39.54,39.54,0,0,1,31.6-38.73,39.52,39.52,0,1,0,0,77.46A39.53,39.53,0,0,1,160,168.61Z"/><circle class="cls-2" cx="186.95" cy="150.39" r="7.18"/><circle class="cls-2" cx="172.19" cy="174.74" r="10.67"/><path class="cls-5" d="M200,168.6a2.83,2.83,0,0,1-2.74-2.16l-.92-3.72a2.83,2.83,0,1,1,5.5-1.35l.92,3.72a2.83,2.83,0,0,1-2.08,3.42,2.65,2.65,0,0,1-.68.09Z"/><path class="cls-6" d="M199.47,182a2.83,2.83,0,0,1-.3-5.65l4.67-.49a2.83,2.83,0,0,1,.59,5.63l-4.66.49-.3,0Z"/><path class="cls-5" d="M187,195.23a2.83,2.83,0,0,1-1.86-5l3.19-2.77a2.84,2.84,0,1,1,3.72,4.28l-3.19,2.77A2.86,2.86,0,0,1,187,195.23Z"/><path class="cls-6" d="M165.46,153.22a2.8,2.8,0,0,1-.8-.11,2.83,2.83,0,0,1-1.92-3.52l.89-3a2.83,2.83,0,0,1,5.43,1.59l-.88,3a2.83,2.83,0,0,1-2.72,2Z"/><path class="cls-7" d="M149.81,38.88H133.09a5.86,5.86,0,0,0-5.86,5.86v28.8s0,0,0,0H83.7A26.6,26.6,0,0,0,57.11,99.39c-.43,15.06,12,27.38,27,27.38h4.29a31.33,31.33,0,1,0,0,62.66H115a4.93,4.93,0,0,1,4.93,4.92v28.28a4,4,0,0,0,4,4h5a4,4,0,0,0,4-4v-3.08s0,0,0,0h-3a4,4,0,0,1-4-4V191.61a9.31,9.31,0,0,0-9.31-9.31s-23.6,0-24.32-.08a9.93,9.93,0,0,1-6.31-2.89l0,0A31.33,31.33,0,0,1,101,126.62a.47.47,0,0,0,.37-.46.48.48,0,0,0-.43-.47c-13.48-1.34-24-9.45-24.1-23.26a36,36,0,0,1,.39-5.57,17.88,17.88,0,0,1,9.24-11.09,24.76,24.76,0,0,1,10.84-2.49H129a10.56,10.56,0,0,0,10.56-10.56V54.08a5.78,5.78,0,0,1,5.66-5.91h10.45a0,0,0,0,0,0,0v-3.4a5.86,5.86,0,0,0-5.86-5.86Z"/></g></g></svg>