<svg xmlns="http://www.w3.org/2000/svg" viewBox="0 0 257.7 257.7"><defs><style>.cls-1{fill:#888eba;stroke:#cbabc8;stroke-miterlimit:8;stroke-width:17px;}.cls-2{fill:#fac3c8;}.cls-3{fill:#f58caa;}.cls-4{fill:#9b5faa;}.cls-5{fill:#faa019;}.cls-6{fill:#ffd205;}.cls-7{fill:#fab991;}.cls-8{fill:#463c4b;}.cls-9{fill:#f0915a;}</style></defs><g id="Слой_2" data-name="Слой 2"><g id="Слой_1-2" data-name="Слой 1"><circle class="cls-1" cx="128.85" cy="128.85" r="120.35"/><path class="cls-2" d="M187.41,69.41a14.62,14.62,0,0,0-12.87-21.56,14.31,14.31,0,0,0-3.67.47c0-.16,0-.31,0-.47a14.62,14.62,0,0,0-24-11.19,14.62,14.62,0,0,0-25.06,0,14.61,14.61,0,0,0-24,11.19c0,.16,0,.31,0,.47a14.31,14.31,0,0,0-3.67-.47A14.64,14.64,0,0,0,81.23,69.41a14.62,14.62,0,1,0,20.19,21,14.61,14.61,0,0,0,21.94,0,14.6,14.6,0,0,0,21.93,0,14.6,14.6,0,0,0,21.93,0,14.62,14.62,0,1,0,20.19-21Z"/><path class="cls-3" d="M187.41,69.41a14.62,14.62,0,0,0-12.87-21.56,14.31,14.31,0,0,0-3.67.47c0-.16,0-.31,0-.47a14.62,14.62,0,0,0-24-11.19,14.62,14.62,0,0,0-25.06,0,14.61,14.61,0,0,0-24,11.19c0,.16,0,.31,0,.47a14.31,14.31,0,0,0-3.67-.47A14.64,14.64,0,0,0,81.23,69.41a14.62,14.62,0,1,0,20.19,21,14.61,14.61,0,0,0,21.94,0,14.6,14.6,0,0,0,21.93,0,14.6,14.6,0,0,0,21.93,0,14.62,14.62,0,1,0,20.19-21Z"/><path class="cls-2" d="M123.35,90.42a14.62,14.62,0,0,1,1.75-21A14.64,14.64,0,0,1,138,47.85a14.37,14.37,0,0,1,3.67.47c0-.16,0-.31,0-.47a14.58,14.58,0,0,1,5.22-11.19h0a14.62,14.62,0,0,0-25.06,0,14.61,14.61,0,0,0-24,11.19c0,.16,0,.31,0,.47a14.31,14.31,0,0,0-3.67-.47A14.64,14.64,0,0,0,81.23,69.41a14.62,14.62,0,1,0,20.19,21,14.6,14.6,0,0,0,21.93,0Z"/><path class="cls-3" d="M96.82,63.36a1.52,1.52,0,0,1-1.08-.45A10.51,10.51,0,1,1,110.6,48a1.54,1.54,0,0,1-2.17,2.18A7.44,7.44,0,0,0,97.91,60.73a1.55,1.55,0,0,1,0,2.18,1.53,1.53,0,0,1-1.09.45Z"/><path class="cls-2" d="M141.82,63.36a1.55,1.55,0,0,1-1.09-.45A10.51,10.51,0,1,1,155.6,48a1.54,1.54,0,0,1-2.18,2.18,7.43,7.43,0,1,0-10.51,10.51,1.54,1.54,0,0,1-1.09,2.63Z"/><path class="cls-2" d="M184.79,80.53a1.54,1.54,0,0,1-1.09-2.63,7.44,7.44,0,0,0,0-10.51,7.42,7.42,0,0,0-10.51,0A1.54,1.54,0,0,1,171,65.21a10.51,10.51,0,0,1,14.87,14.87,1.55,1.55,0,0,1-1.09.45Z"/><path class="cls-3" d="M101.42,92a9.73,9.73,0,0,1-9.71-9.71,1.54,1.54,0,0,1,3.08,0,6.64,6.64,0,0,0,13.27,0,1.54,1.54,0,1,1,3.08,0A9.73,9.73,0,0,1,101.42,92Z"/><circle class="cls-4" cx="134.32" cy="84.99" r="30.78"/><path class="cls-5" d="M143.69,67.54a12.32,12.32,0,0,0-9.35,4.17A12.35,12.35,0,0,0,125,67.54,12.55,12.55,0,0,0,112.84,81.2c.86,11.9,13,21.74,17.63,25.12a6.64,6.64,0,0,0,7.73,0c4.67-3.38,16.77-13.22,17.64-25.12A12.56,12.56,0,0,0,143.69,67.54Z"/><path class="cls-6" d="M134.34,71.71A12.35,12.35,0,0,0,125,67.54a12.49,12.49,0,0,0-12.17,12.32h24.73a6.15,6.15,0,0,0,6.15-6.16V67.54a12.32,12.32,0,0,0-9.35,4.17Z"/><path class="cls-7" d="M195.89,103.46h-117V214.28h61.57V195.81h36.94a24.63,24.63,0,0,0,24.63-24.63V109.62A6.16,6.16,0,0,0,195.89,103.46Z"/><path class="cls-8" d="M174.34,177.34h6.16a9.24,9.24,0,0,0,9.24-9.23H165.11A9.23,9.23,0,0,0,174.34,177.34Z"/><path class="cls-8" d="M72.75,103.46a6.15,6.15,0,0,0-6.15,6.16v61.56A12.31,12.31,0,0,0,78.91,183.5H109.7A12.31,12.31,0,0,0,122,171.18V140.4a18.47,18.47,0,0,0,18.47-18.47V103.46Z"/><path class="cls-9" d="M122,121.93a18.47,18.47,0,1,0,0,36.94Z"/><path class="cls-9" d="M140.48,214.28H78.91a18.47,18.47,0,0,1,18.47-18.47h43.1Z"/><path class="cls-9" d="M183.58,158.87a9.24,9.24,0,0,1-9.24-9.23V128.09a18.47,18.47,0,0,1,18.47,18.47v3.08A9.23,9.23,0,0,1,183.58,158.87Z"/><circle class="cls-8" cx="189.74" cy="121.93" r="6.16"/><circle class="cls-8" cx="158.95" cy="121.93" r="6.16"/></g></g></svg>