<svg xmlns="http://www.w3.org/2000/svg" viewBox="0 0 257.7 257.7"><defs><style>.cls-1{fill:#888eba;stroke:#cbabc8;stroke-miterlimit:8;stroke-width:17px;}.cls-2{fill:#d16161;}.cls-3{fill:#ae3244;}.cls-4{fill:#ff8086;}.cls-5{fill:#f5fcff;}.cls-6{fill:#dce6eb;}</style></defs><g id="Слой_2" data-name="Слой 2"><g id="Слой_1-2" data-name="Слой 1"><circle class="cls-1" cx="128.85" cy="128.85" r="120.35"/><path class="cls-2" d="M215.09,174.64,155.75,136.5V116.24l56.81-36.52,2.53-1.63a5.51,5.51,0,0,1,8.48,4.63v81.79C223.57,173.86,218.75,177,215.09,174.64Z"/><path class="cls-3" d="M215.09,169.14,155.75,131v11l59.34,38.15a5.51,5.51,0,0,0,8.48-4.63v-11A5.51,5.51,0,0,1,215.09,169.14Z"/><path class="cls-4" d="M178.36,78.67a11,11,0,0,0-11-11H52.21a10.93,10.93,0,0,0-3.67.64L46.71,185.07l131-1.83a10.93,10.93,0,0,0,.64-3.67Z"/><path class="cls-2" d="M48.54,177.73V68.3A11.05,11.05,0,0,0,41.2,78.67v100.9a11,11,0,0,0,11,11H167.35a11,11,0,0,0,10.37-7.33H54.05A5.53,5.53,0,0,1,48.54,177.73Z"/><path class="cls-5" d="M139.52,124.49,91.93,93.9a5.47,5.47,0,0,0-1.14-.56l-3.67,68.07a2.57,2.57,0,0,0,4,2.16l50.94-34A5.45,5.45,0,0,0,139.52,124.49Z"/><path class="cls-6" d="M90.79,157.74V93.34a5.51,5.51,0,0,0-7.34,5.19v61.18a5.51,5.51,0,0,0,8.48,4.63l47.59-30.59a5.47,5.47,0,0,0,2.5-4.23L94.75,159.91a2.57,2.57,0,0,1-4-2.17Z"/></g></g></svg>