<svg xmlns="http://www.w3.org/2000/svg" viewBox="0 0 257.7 257.7"><defs><style>.cls-1{fill:#888eba;stroke:#cbabc8;stroke-miterlimit:8;stroke-width:17px;}.cls-2{fill:#fff08a;}.cls-3{fill:#ff7d97;}.cls-4{fill:#faf7f5;}.cls-5{fill:#ff9eb1;}.cls-6{fill:#42434d;}</style></defs><g id="Слой_2" data-name="Слой 2"><g id="Слой_1-2" data-name="Слой 1"><circle class="cls-1" cx="128.85" cy="128.85" r="120.35"/><ellipse class="cls-2" cx="128.44" cy="129.27" rx="79.53" ry="79.52"/><path class="cls-3" d="M170.84,133.51v6.92a42.48,42.48,0,1,1-85,0v-6.92Z"/><path class="cls-4" d="M170.84,133.51v7a10.42,10.42,0,0,1-10.45,10.34H96.33a10.42,10.42,0,0,1-10.45-10.34v-7Z"/><path class="cls-5" d="M154.75,173.71a42.49,42.49,0,0,1-52.78,0,34.32,34.32,0,0,1,52.78,0Z"/><path class="cls-6" d="M196.71,82.24a3.23,3.23,0,1,0-5.33,3.66A76.36,76.36,0,1,1,171.44,66a3.23,3.23,0,0,0,3.65-5.34,82.81,82.81,0,1,0,21.62,21.6Z"/><path class="cls-6" d="M181.46,74.74a3.23,3.23,0,1,0,1.19-3.93A3.26,3.26,0,0,0,181.46,74.74Z"/><path class="cls-6" d="M82.65,140.44v.24A45.55,45.55,0,0,0,100,176.24h0a45.74,45.74,0,0,0,56.81,0h0a45.57,45.57,0,0,0,17.3-35.57v-7.16a3.22,3.22,0,0,0-3.23-3.23h-85a3.22,3.22,0,0,0-3.23,3.23v6.92h0Zm45.71,39.22a38.78,38.78,0,0,1-21.54-6.43,31.09,31.09,0,0,1,43.08,0A38.78,38.78,0,0,1,128.36,179.66ZM155,169.21a37.54,37.54,0,0,0-53.34,0,39.67,39.67,0,0,1-10.47-16.09,13.6,13.6,0,0,0,5.11,1h64.06a13.56,13.56,0,0,0,5.11-1A39.57,39.57,0,0,1,155,169.21Zm12.57-32.46v3.9a7.18,7.18,0,0,1-7.21,7H96.33a7.18,7.18,0,0,1-7.21-7v-3.88Z"/><path class="cls-6" d="M175.67,115.42a17.7,17.7,0,0,0-35.39,0,3.24,3.24,0,0,0,6.47,0,11.22,11.22,0,1,1,22.44,0,3.24,3.24,0,0,0,6.48,0Z"/><path class="cls-6" d="M87.53,115.42a11.22,11.22,0,0,1,22.44,0,3.24,3.24,0,0,0,6.47,0,17.69,17.69,0,0,0-35.38,0,3.24,3.24,0,0,0,6.47,0Z"/></g></g></svg>