<svg xmlns="http://www.w3.org/2000/svg" xmlns:xlink="http://www.w3.org/1999/xlink" viewBox="0 0 295.17 1475.06"><defs><style>.cls-1,.cls-2,.cls-5{fill:none;}.cls-1{clip-rule:evenodd;}.cls-12,.cls-13,.cls-2,.cls-3,.cls-4,.cls-7,.cls-8,.cls-9{fill-rule:evenodd;}.cls-3{fill:#fff;}.cls-4{fill:#e9bd9a;}.cls-5{stroke:#1d1e1c;stroke-miterlimit:8;stroke-width:3px;}.cls-6{clip-path:url(#clip-path);}.cls-7{fill:#f3a28d;}.cls-8{fill:#159f84;opacity:0.57;}.cls-9{fill:#bc8380;}.cls-10{clip-path:url(#clip-path-10);}.cls-11{clip-path:url(#clip-path-19);}.cls-13{fill:#efa289;}.cls-14{clip-path:url(#clip-path-28);}.cls-15{clip-path:url(#clip-path-37);}.cls-16{clip-path:url(#clip-path-46);}.cls-17{clip-path:url(#clip-path-55);}.cls-18{clip-path:url(#clip-path-64);}</style><clipPath id="clip-path" transform="translate(-24.41 -29.7)"><polygon class="cls-1" points="288.64 282.15 179.31 245.3 141.6 357.16 250.93 394.02 288.64 282.15 288.64 282.15"/></clipPath><clipPath id="clip-path-10" transform="translate(-24.41 -29.7)"><polygon class="cls-1" points="102.54 0 55.78 105.48 163.7 153.32 210.46 47.84 102.54 0 102.54 0"/></clipPath><clipPath id="clip-path-19" transform="translate(-24.41 -29.7)"><polygon class="cls-1" points="1.78 230.05 56.45 274.89 102.33 218.95 47.66 174.11 1.78 230.05 1.78 230.05"/></clipPath><clipPath id="clip-path-28" transform="translate(-24.41 -29.7)"><polygon class="cls-1" points="0 1306.69 83.02 1371.92 149.76 1286.98 66.74 1221.75 0 1306.69 0 1306.69"/></clipPath><clipPath id="clip-path-37" transform="translate(-24.41 -29.7)"><polygon class="cls-1" points="111.99 631.45 202.09 576.41 145.77 484.22 55.67 539.26 111.99 631.45 111.99 631.45"/></clipPath><clipPath id="clip-path-46" transform="translate(-24.41 -29.7)"><polygon class="cls-1" points="22.44 890.54 124.08 919.12 153.32 815.12 51.68 786.55 22.44 890.54 22.44 890.54"/></clipPath><clipPath id="clip-path-55" transform="translate(-24.41 -29.7)"><polygon class="cls-1" points="226.05 1397.95 157.58 1478.13 240.33 1548.79 308.8 1468.6 226.05 1397.95 226.05 1397.95"/></clipPath><clipPath id="clip-path-64" transform="translate(-24.41 -29.7)"><polygon class="cls-1" points="260.21 1169.27 246.69 1064.56 139.55 1078.39 153.07 1183.1 260.21 1169.27 260.21 1169.27"/></clipPath></defs><g id="Слой_2" data-name="Слой 2"><g id="Слой_1-2" data-name="Слой 1"><path class="cls-3" d="M258.79,362.42a30.39,30.39,0,0,1-35.59,19.37A29.3,29.3,0,0,1,205,368.3a30.71,30.71,0,0,1-3.38-23.5c2.74-10.78-3.87-22-18.61-31.72a30.37,30.37,0,0,1-11.56-36.18,32,32,0,0,1,3-6A30.47,30.47,0,0,1,193.8,257.3a29.17,29.17,0,0,1,22.31,4.13c54.48,35.75,47.2,83.9,43.67,97.81a29.26,29.26,0,0,1-1,3.18Z" transform="translate(-24.41 -29.7)"/><path class="cls-4" d="M258.79,362.42a30.39,30.39,0,0,1-35.59,19.37A29.3,29.3,0,0,1,205,368.3a30.71,30.71,0,0,1-3.38-23.5c2.74-10.78-3.87-22-18.61-31.72a30.37,30.37,0,0,1-11.56-36.18,32,32,0,0,1,3-6A30.47,30.47,0,0,1,193.8,257.3a29.17,29.17,0,0,1,22.31,4.13c54.48,35.75,47.2,83.9,43.67,97.81a29.26,29.26,0,0,1-1,3.18Z" transform="translate(-24.41 -29.7)"/><path class="cls-5" d="M258.79,362.42a30.39,30.39,0,0,1-35.59,19.37A29.3,29.3,0,0,1,205,368.3a30.71,30.71,0,0,1-3.38-23.5c2.74-10.78-3.87-22-18.61-31.72a30.37,30.37,0,0,1-11.56-36.18,32,32,0,0,1,3-6A30.47,30.47,0,0,1,193.8,257.3a29.17,29.17,0,0,1,22.31,4.13c54.48,35.75,47.2,83.9,43.67,97.81a29.26,29.26,0,0,1-1,3.18Z" transform="translate(-24.41 -29.7)"/><g class="cls-6"><path class="cls-7" d="M248.73,357.9a20.16,20.16,0,0,1-23.56,13,19.13,19.13,0,0,1-11.9-8.83A20.49,20.49,0,0,1,211,346.33c2.14-8.46,2.14-25-22-40.84a20.45,20.45,0,0,1-7.58-24.08,21.22,21.22,0,0,1,2-4.05,20.35,20.35,0,0,1,12.9-9.08A19.06,19.06,0,0,1,211,271c47.68,31.29,41.47,72.79,38.43,84.76a19.33,19.33,0,0,1-.67,2.16Z" transform="translate(-24.41 -29.7)"/><g class="cls-6"><path class="cls-8" d="M210.74,288.24a7.45,7.45,0,1,1-9.57,4.41,7.45,7.45,0,0,1,9.57-4.41Z" transform="translate(-24.41 -29.7)"/><g class="cls-6"><path class="cls-9" d="M230.67,347.22a5.59,5.59,0,1,1-7.18,3.31,5.59,5.59,0,0,1,7.18-3.31Z" transform="translate(-24.41 -29.7)"/><g class="cls-6"><path class="cls-8" d="M229.13,303a5.59,5.59,0,1,1-7.18,3.31,5.58,5.58,0,0,1,7.18-3.31Z" transform="translate(-24.41 -29.7)"/><g class="cls-6"><path class="cls-8" d="M225.34,329.37a2,2,0,0,1-.39.61,2.28,2.28,0,0,1-.58.44,1.71,1.71,0,0,1-.71.15,1.81,1.81,0,0,1-1.77-1.07,2.37,2.37,0,0,1-.16-.71,1.91,1.91,0,0,1,1.08-1.77,2,2,0,0,1,1.42,0,1.91,1.91,0,0,1,.62.39,1.94,1.94,0,0,1,.44.58,2,2,0,0,1,.05,1.43Z" transform="translate(-24.41 -29.7)"/><g class="cls-6"><path class="cls-8" d="M239.78,338.67a1.69,1.69,0,0,1-.38.61,2.07,2.07,0,0,1-.58.44,2,2,0,0,1-.71.16,1.94,1.94,0,0,1-.72-.11,2,2,0,0,1-1-1,2.22,2.22,0,0,1-.16-.72,1.92,1.92,0,0,1,1.07-1.77,2,2,0,0,1,1.43-.05,1.77,1.77,0,0,1,.61.39,1.82,1.82,0,0,1,.45.58,2,2,0,0,1,0,1.43Z" transform="translate(-24.41 -29.7)"/><g class="cls-6"><path class="cls-8" d="M238.41,326.25a2.15,2.15,0,0,1-.38.61,2.22,2.22,0,0,1-.58.44,2,2,0,0,1-.72.16,1.92,1.92,0,0,1-.71-.11,2,2,0,0,1-1.06-1,2.2,2.2,0,0,1-.15-.72,1.92,1.92,0,0,1,1.07-1.77,2,2,0,0,1,1.43,0,1.87,1.87,0,0,1,.61.39,1.94,1.94,0,0,1,.44.58,2,2,0,0,1,0,1.43Z" transform="translate(-24.41 -29.7)"/><g class="cls-6"><path class="cls-8" d="M192.43,289.42a2.07,2.07,0,0,1-.38.62,2.47,2.47,0,0,1-.58.44,2,2,0,0,1-.72.15,1.91,1.91,0,0,1-.71-.1,2,2,0,0,1-1-1,1.91,1.91,0,0,1,.91-2.48,2,2,0,0,1,1.43-.05,1.87,1.87,0,0,1,.61.39,1.94,1.94,0,0,1,.44.58,1.89,1.89,0,0,1,.05,1.42Z" transform="translate(-24.41 -29.7)"/><g class="cls-6"><path class="cls-8" d="M203.94,279.77a1.77,1.77,0,0,1-.39.61,2.07,2.07,0,0,1-.58.44,1.93,1.93,0,0,1-.71.16,2,2,0,0,1-.72-.11,1.94,1.94,0,0,1-1-1,2.52,2.52,0,0,1-.16-.71,1.85,1.85,0,0,1,2.5-1.82,2,2,0,0,1,1.06,1,2,2,0,0,1,.05,1.43Z" transform="translate(-24.41 -29.7)"/></g></g></g></g></g></g></g></g></g><path class="cls-9" d="M238.65,336.2a2,2,0,1,1-2.5,1.16,2,2,0,0,1,2.5-1.16Z" transform="translate(-24.41 -29.7)"/><path class="cls-9" d="M237.25,323.78a2,2,0,1,1-2.51,1.16,2,2,0,0,1,2.51-1.16Z" transform="translate(-24.41 -29.7)"/><path class="cls-9" d="M224.29,326.91a2,2,0,1,1-1.35,3.66,2,2,0,0,1,1.35-3.66Z" transform="translate(-24.41 -29.7)"/><path class="cls-9" d="M191.35,287a2,2,0,1,1-2.51,1.16,2,2,0,0,1,2.51-1.16Z" transform="translate(-24.41 -29.7)"/><path class="cls-9" d="M210.9,288.24a7.58,7.58,0,1,1-9.74,4.49,7.59,7.59,0,0,1,9.74-4.49Z" transform="translate(-24.41 -29.7)"/><path class="cls-9" d="M229.28,302.86a5.72,5.72,0,1,1-7.35,3.39,5.71,5.71,0,0,1,7.35-3.39Z" transform="translate(-24.41 -29.7)"/><path class="cls-9" d="M202.86,277.26a2,2,0,1,1-2.51,1.15,1.94,1.94,0,0,1,2.51-1.15Z" transform="translate(-24.41 -29.7)"/><path class="cls-3" d="M179.72,37.11a30.39,30.39,0,0,1,16,37.22,29.29,29.29,0,0,1-15.1,16.9,30.65,30.65,0,0,1-23.71,1.2c-10.49-3.71-22.31,1.83-33.3,15.62a30.38,30.38,0,0,1-37.09,8.18,32,32,0,0,1-5.72-3.52A30.48,30.48,0,0,1,69.06,92.15a29.22,29.22,0,0,1,6.17-21.83c40.61-51,87.89-39.29,101.41-34.49a30.73,30.73,0,0,1,3.08,1.28Z" transform="translate(-24.41 -29.7)"/><path class="cls-4" d="M179.72,37.11a30.38,30.38,0,0,1,16,37.22,29.29,29.29,0,0,1-15.1,16.9,30.65,30.65,0,0,1-23.71,1.2c-10.49-3.71-22.31,1.83-33.3,15.62a30.4,30.4,0,0,1-37.1,8.18,32.24,32.24,0,0,1-5.71-3.52A30.48,30.48,0,0,1,69.06,92.15a29.22,29.22,0,0,1,6.17-21.83c40.61-51,87.89-39.29,101.41-34.49a30.73,30.73,0,0,1,3.08,1.28Z" transform="translate(-24.41 -29.7)"/><path class="cls-5" d="M179.72,37.11a30.38,30.38,0,0,1,16,37.22,29.29,29.29,0,0,1-15.1,16.9,30.65,30.65,0,0,1-23.71,1.2c-10.49-3.71-22.31,1.83-33.3,15.62a30.4,30.4,0,0,1-37.1,8.18,32.24,32.24,0,0,1-5.71-3.52A30.48,30.48,0,0,1,69.06,92.15a29.22,29.22,0,0,1,6.17-21.83c40.61-51,87.89-39.29,101.41-34.49a30.73,30.73,0,0,1,3.08,1.28Z" transform="translate(-24.41 -29.7)"/><g class="cls-10"><path class="cls-7" d="M174.29,46.71A20.17,20.17,0,0,1,185,71.36a19.13,19.13,0,0,1-9.88,11,20.51,20.51,0,0,1-15.86.78c-8.22-2.92-24.72-4.44-42.68,18.12A20.45,20.45,0,0,1,92,106.63a21.5,21.5,0,0,1-3.86-2.37,20.36,20.36,0,0,1-7.85-13.69,19.06,19.06,0,0,1,4-14.25c35.55-44.6,76.3-34.61,88-30.48a19.86,19.86,0,0,1,2.08.87Z" transform="translate(-24.41 -29.7)"/><g class="cls-10"><path class="cls-8" d="M101.43,78.13a7.45,7.45,0,1,1,3.51,9.94,7.46,7.46,0,0,1-3.51-9.94Z" transform="translate(-24.41 -29.7)"/><g class="cls-10"><path class="cls-9" d="M162,63.71a5.59,5.59,0,1,1,2.64,7.45A5.58,5.58,0,0,1,162,63.71Z" transform="translate(-24.41 -29.7)"/><g class="cls-10"><path class="cls-8" d="M117.79,61.17a5.59,5.59,0,1,1,2.63,7.45,5.59,5.59,0,0,1-2.63-7.45Z" transform="translate(-24.41 -29.7)"/><g class="cls-10"><path class="cls-8" d="M143.73,67.38a2,2,0,0,1,.57.44,2.32,2.32,0,0,1,.39.62,2.19,2.19,0,0,1,.09.72,1.91,1.91,0,0,1-.18.7,1.87,1.87,0,0,1-1,1,1.81,1.81,0,0,1-.73.09,1.87,1.87,0,0,1-1.66-1.23,2,2,0,0,1,.08-1.42,1.94,1.94,0,0,1,.44-.58,2.07,2.07,0,0,1,.62-.38,2,2,0,0,1,1.43.08Z" transform="translate(-24.41 -29.7)"/><g class="cls-10"><path class="cls-8" d="M154.32,53.85a2.07,2.07,0,0,1,1,1.06,2.16,2.16,0,0,1,.09.72,1.89,1.89,0,0,1-.17.7,1.92,1.92,0,0,1-1.06,1,2.23,2.23,0,0,1-.72.09,1.91,1.91,0,0,1-1.67-1.23,2,2,0,0,1,.08-1.42,1.94,1.94,0,0,1,.44-.58,1.89,1.89,0,0,1,.62-.38,1.91,1.91,0,0,1,1.43.08Z" transform="translate(-24.41 -29.7)"/><g class="cls-10"><path class="cls-8" d="M141.82,54.07a1.94,1.94,0,0,1,.58.44,2.35,2.35,0,0,1,.38.62,1.79,1.79,0,0,1,.09.73,1.89,1.89,0,0,1-.17.7,2,2,0,0,1-1.06,1,2.19,2.19,0,0,1-.72.09A1.87,1.87,0,0,1,140.4,54a2,2,0,0,1,1.42.08Z" transform="translate(-24.41 -29.7)"/><g class="cls-10"><path class="cls-8" d="M100.93,96.47a1.89,1.89,0,0,1,.57.44,2.1,2.1,0,0,1,.39.62,2.19,2.19,0,0,1,.09.72,1.94,1.94,0,0,1-.17.71,1.76,1.76,0,0,1-1.79,1,1.9,1.9,0,0,1-1.66-1.22,2,2,0,0,1,.08-1.43,2.07,2.07,0,0,1,1.06-1,2,2,0,0,1,1.43.08Z" transform="translate(-24.41 -29.7)"/><g class="cls-10"><path class="cls-8" d="M92.37,84.13a1.94,1.94,0,0,1,.58.44,2.07,2.07,0,0,1,.38.62,1.74,1.74,0,0,1,.09.72,1.89,1.89,0,0,1-.17.7,2,2,0,0,1-1.06,1,2.19,2.19,0,0,1-.72.09A1.85,1.85,0,0,1,89.89,85a1.94,1.94,0,0,1,.44-.58,1.73,1.73,0,0,1,.62-.38,1.89,1.89,0,0,1,1.42.08Z" transform="translate(-24.41 -29.7)"/></g></g></g></g></g></g></g></g></g><path class="cls-9" d="M151.76,54.75a2,2,0,1,1,.92,2.6,1.95,1.95,0,0,1-.92-2.6Z" transform="translate(-24.41 -29.7)"/><path class="cls-9" d="M139.26,55a2,2,0,1,1,.92,2.61,2,2,0,0,1-.92-2.61Z" transform="translate(-24.41 -29.7)"/><path class="cls-9" d="M141.19,68.19a2,2,0,1,1,.92,2.61,2,2,0,0,1-.92-2.61Z" transform="translate(-24.41 -29.7)"/><path class="cls-9" d="M98.37,97.32a2,2,0,1,1,.92,2.6,2,2,0,0,1-.92-2.6Z" transform="translate(-24.41 -29.7)"/><path class="cls-9" d="M101.45,78A7.58,7.58,0,1,1,105,88.08,7.59,7.59,0,0,1,101.45,78Z" transform="translate(-24.41 -29.7)"/><path class="cls-9" d="M117.69,61a5.73,5.73,0,1,1,2.7,7.63,5.74,5.74,0,0,1-2.7-7.63Z" transform="translate(-24.41 -29.7)"/><path class="cls-9" d="M89.77,85a2,2,0,0,1,3.52,1.68A2,2,0,1,1,89.77,85Z" transform="translate(-24.41 -29.7)"/><path class="cls-3" d="M36.3,190.52a18.61,18.61,0,0,1,24.6-3.38,17.94,17.94,0,0,1,7.52,11.68A18.86,18.86,0,0,1,65.26,213c-3.91,5.59-2.56,13.48,3.79,22.21a18.63,18.63,0,0,1-1.23,23.25,19,19,0,0,1-3,2.8,18.68,18.68,0,0,1-14.06,3.59,18,18,0,0,1-11.89-7.21C15.39,225.35,30,199.33,35,192.13a17.86,17.86,0,0,1,1.26-1.61Z" transform="translate(-24.41 -29.7)"/><path class="cls-4" d="M36.3,190.52a18.61,18.61,0,0,1,24.6-3.38,17.94,17.94,0,0,1,7.52,11.68A18.86,18.86,0,0,1,65.26,213c-3.91,5.59-2.56,13.48,3.79,22.21a18.63,18.63,0,0,1-1.23,23.25,19,19,0,0,1-3,2.8,18.68,18.68,0,0,1-14.06,3.59,18,18,0,0,1-11.89-7.21C15.39,225.35,30,199.33,35,192.13a17.86,17.86,0,0,1,1.26-1.61Z" transform="translate(-24.41 -29.7)"/><path class="cls-5" d="M36.3,190.52a18.61,18.61,0,0,1,24.6-3.38,17.94,17.94,0,0,1,7.52,11.68A18.86,18.86,0,0,1,65.26,213c-3.91,5.59-2.56,13.48,3.79,22.21a18.63,18.63,0,0,1-1.23,23.25,19,19,0,0,1-3,2.8,18.68,18.68,0,0,1-14.06,3.59,18,18,0,0,1-11.89-7.21C15.39,225.35,30,199.33,35,192.13a17.86,17.86,0,0,1,1.26-1.61Z" transform="translate(-24.41 -29.7)"/><g class="cls-11"><path class="cls-7" d="M41.08,195.29A12.37,12.37,0,0,1,57.4,193a11.75,11.75,0,0,1,4.91,7.65,12.56,12.56,0,0,1-2.13,9.49c-3.06,4.38-6.66,13.87,3.73,28.17A12.53,12.53,0,0,1,63,253.71a13,13,0,0,1-2,1.89,12.43,12.43,0,0,1-9.37,2.4,11.64,11.64,0,0,1-7.76-4.7c-20.54-28.28-8-50.72-3.65-56.92.27-.38.55-.74.85-1.09Z" transform="translate(-24.41 -29.7)"/><g class="cls-11"><path class="cls-8" d="M47.75,243.46a4.57,4.57,0,1,1,6.44-.45,4.57,4.57,0,0,1-6.44.45Z" transform="translate(-24.41 -29.7)"/><g class="cls-11"><path class="cls-9" d="M49.12,205.33A3.42,3.42,0,1,1,54,205a3.42,3.42,0,0,1-4.83.34Z" transform="translate(-24.41 -29.7)"/><g class="cls-11"><path class="cls-8" d="M40.41,231a3.42,3.42,0,1,1,4.83-.34,3.42,3.42,0,0,1-4.83.34Z" transform="translate(-24.41 -29.7)"/><g class="cls-11"><path class="cls-8" d="M48.31,216.72a1.31,1.31,0,0,1,.35-.27,1.53,1.53,0,0,1,.43-.13,1.31,1.31,0,0,1,.44.07,1.26,1.26,0,0,1,.39.22,1.22,1.22,0,0,1,.39.78,1.61,1.61,0,0,1-.06.44,1.17,1.17,0,0,1-1,.78,1.15,1.15,0,0,1-.83-.28,1.31,1.31,0,0,1-.27-.35,1.33,1.33,0,0,1-.13-.43,1.21,1.21,0,0,1,.29-.83Z" transform="translate(-24.41 -29.7)"/><g class="cls-11"><path class="cls-8" d="M42,208.25a1,1,0,0,1,.36-.26,1.21,1.21,0,0,1,.42-.13,1.18,1.18,0,0,1,.45.07,1,1,0,0,1,.38.21,1.19,1.19,0,0,1,.4.78,1.31,1.31,0,0,1-.07.44,1.16,1.16,0,0,1-1,.79,1.22,1.22,0,0,1-.82-.28,1,1,0,0,1-.27-.36,1.09,1.09,0,0,1,.15-1.26Z" transform="translate(-24.41 -29.7)"/><g class="cls-11"><path class="cls-8" d="M40.14,215.67a1.31,1.31,0,0,1,.35-.27,1.25,1.25,0,0,1,.43-.12,1.09,1.09,0,0,1,.44.06,1.26,1.26,0,0,1,.39.22,1.22,1.22,0,0,1,.39.78,1.61,1.61,0,0,1-.06.44,1.14,1.14,0,0,1-1.83.5,1.31,1.31,0,0,1-.27-.35,1.33,1.33,0,0,1-.13-.43,1.21,1.21,0,0,1,.29-.83Z" transform="translate(-24.41 -29.7)"/><g class="cls-11"><path class="cls-8" d="M58.5,246.75a1.22,1.22,0,0,1,.36-.27,1.53,1.53,0,0,1,.43-.13,1.39,1.39,0,0,1,.44.07,1.11,1.11,0,0,1,.38.22,1.19,1.19,0,0,1,.4.78,1.31,1.31,0,0,1-.07.44,1.17,1.17,0,0,1-1,.78,1.23,1.23,0,0,1-.83-.28,1.14,1.14,0,0,1-.27-.35,1.33,1.33,0,0,1-.13-.43,1.25,1.25,0,0,1,.28-.83Z" transform="translate(-24.41 -29.7)"/><g class="cls-11"><path class="cls-8" d="M49.82,249.79a1.14,1.14,0,0,1,.35-.27,1.26,1.26,0,0,1,.43-.13,1.31,1.31,0,0,1,.44.07,1.23,1.23,0,0,1,.39.21,1.25,1.25,0,0,1,.39.79,1.67,1.67,0,0,1-.06.44,1.17,1.17,0,0,1-1,.78,1.25,1.25,0,0,1-.83-.28,1.3,1.3,0,0,1-.4-.78,1.19,1.19,0,0,1,.29-.83Z" transform="translate(-24.41 -29.7)"/></g></g></g></g></g></g></g></g></g><path class="cls-9" d="M42.16,209.91a1.19,1.19,0,1,1,1.68-.12,1.18,1.18,0,0,1-1.68.12Z" transform="translate(-24.41 -29.7)"/><path class="cls-9" d="M40.27,217.34a1.2,1.2,0,1,1,1.68-.12,1.19,1.19,0,0,1-1.68.12Z" transform="translate(-24.41 -29.7)"/><path class="cls-9" d="M48.37,218.35a1.19,1.19,0,1,1,1.69-.12,1.19,1.19,0,0,1-1.69.12Z" transform="translate(-24.41 -29.7)"/><path class="cls-9" d="M58.59,248.4a1.2,1.2,0,1,1,1.68-.12,1.19,1.19,0,0,1-1.68.12Z" transform="translate(-24.41 -29.7)"/><path class="cls-9" d="M47.66,243.42a4.65,4.65,0,1,1,6.56-.46,4.65,4.65,0,0,1-6.56.46Z" transform="translate(-24.41 -29.7)"/><path class="cls-9" d="M40.29,231.06a3.51,3.51,0,1,1,5-.35,3.51,3.51,0,0,1-5,.35Z" transform="translate(-24.41 -29.7)"/><path class="cls-9" d="M49.89,251.46a1.19,1.19,0,1,1,1.57-1.8,1.19,1.19,0,0,1,.12,1.68,1.2,1.2,0,0,1-1.69.12Z" transform="translate(-24.41 -29.7)"/><path class="cls-12" d="M315.59,224.57c-1.06,3.32-4.85,5.65-7.89,7.75s-6.77,3.29-10.35,4.87-8.64,3.95-11.11,4.66-2.8.19-3.67-.42-.31-.43-1.52-3.26-4.89-10.73-5.69-13.72-.33-3,.9-4.19,7.49-2.28,6.5-3-9.2.54-12.42-1.51-5.39-6.54-6.9-10.77-3.37-10.6-2.12-14.66,7.67-8.11,9.62-9.71c-3.86-.33-9.25.06-12.24-2.12s-4.16-7.08-5.7-10.91a59.08,59.08,0,0,1-3.54-12.1,9.41,9.41,0,0,1,1.21-6.54c.94-1.62,2.23-2.35,4.73-4.09s8-3.94,11.31-5.55c4.43-1.27,9.67-4.95,12.59-5.2s2.42.52,3.76,2.55,3.19,7,4.25,9.67a37.14,37.14,0,0,1,2.23,6.43c.24,1.53.27,1.81-.8,2.74s-5.81,2.25-5.61,2.8,4.7.09,6.78.51a14.48,14.48,0,0,1,5.68,2,14.32,14.32,0,0,1,4.29,5.06,52.7,52.7,0,0,1,2.95,8.46c.78,2.6,2,4.73,1.71,7.11s-1.92,5.1-3.26,7.12-4.32,4.12-4.78,5,.59.15,2,.43,4.59.11,6.56,1.27a13.5,13.5,0,0,1,5.26,5.68,52.57,52.57,0,0,1,3.71,11.49c.88,3.94,2.6,8.85,1.54,12.16Z" transform="translate(-24.41 -29.7)"/><path class="cls-13" d="M279.05,140.71c-6.42,2.1-13.08,5.59-15.25,6.41s-6.39,4.61-7.61,8.48c2.64,1.39,8.65,3,10.76,2.68,4.5-.63,10.53-3.89,16.25-6.44-1.85-5.94,0,0-4.15-11.13Z" transform="translate(-24.41 -29.7)"/><path class="cls-13" d="M286.66,234.86a102.11,102.11,0,0,0,15.55-6.31c4.44-2.27,6.89-4.63,7.69-9.29-2.65-1.38-8.28-2.08-11.14-2-4.52,1.78-10.51,4.39-16.24,6.94,1.86,5.94-.12.32,4.14,10.62Z" transform="translate(-24.41 -29.7)"/><path class="cls-13" d="M258.24,162.64c.15-1.25-1.21.94,3.75,1.27s20.7.15,26,.73,4.39.86,6,2.75,2.48,6.86,3.41,8.59.53-.78-4-1-18.31-.19-23.15-.38-4.37-.21-5.89-.74-2.24-.72-3.24-2.44-3-7.52-2.87-8.77Z" transform="translate(-24.41 -29.7)"/><path class="cls-13" d="M268.44,198.77c.27-1.11-1.14,1,3.75,1.27s20.2-.14,25.62.44,5.24,1,6.87,3,3.06,8,2.88,9.27.58-1.4-4-1.67-18.44.24-23.29.08-4.28-.52-5.8-1a6.74,6.74,0,0,1-3.93-3.46c-.6-1.61-2.4-6.79-2.13-7.89Z" transform="translate(-24.41 -29.7)"/><path class="cls-13" d="M298,181.77c-1.34-1.33-10.07-1.09-13.89-.46s-6.27,2.34-9,4.28-8.56,6-7.45,7.38,10.05,1.36,14.11.85a22.77,22.77,0,0,0,10.41-4.53c2.71-2,7.18-6.19,5.84-7.52Z" transform="translate(-24.41 -29.7)"/><path class="cls-12" d="M265.05,762.16c-.82,3.38-4.44,6-7.33,8.27s-6.52,3.75-10,5.59-8.35,4.54-10.75,5.41-2.79.39-3.7-.16-.34-.4-1.74-3.14-5.63-10.37-6.64-13.29-.54-3,.61-4.24,7.31-2.8,6.28-3.49-9.15,1.18-12.51-.64-5.83-6.14-7.63-10.27-4.1-10.33-3.14-14.46,7.09-8.63,8.92-10.36c-3.87-.07-9.23.7-12.36-1.26s-4.65-6.78-6.45-10.49a58.61,58.61,0,0,1-4.37-11.83,9.45,9.45,0,0,1,.75-6.6c.83-1.68,2.06-2.5,4.43-4.41s7.68-4.49,10.89-6.32c4.34-1.58,9.31-5.62,12.2-6.08s2.46.35,3.93,2.29,3.67,6.78,4.92,9.35a36.75,36.75,0,0,1,2.67,6.26c.35,1.5.39,1.78-.61,2.78s-5.64,2.65-5.4,3.19,4.7-.24,6.8,0a12.11,12.11,0,0,1,10.44,6.34,51.34,51.34,0,0,1,3.53,8.24c1,2.53,2.29,4.58,2.2,7s-1.55,5.23-2.75,7.34-4,4.41-4.42,5.35.6.11,2,.29,4.58-.21,6.63.81a13.39,13.39,0,0,1,5.64,5.29,52.37,52.37,0,0,1,4.51,11.2c1.15,3.88,3.21,8.65,2.38,12Z" transform="translate(-24.41 -29.7)"/><path class="cls-13" d="M222.75,681.05c-6.26,2.54-12.66,6.48-14.77,7.45s-6,5-7,9c2.74,1.19,8.85,2.4,10.93,1.91,4.44-.94,10.22-4.61,15.76-7.55-2.27-5.8,0,0-4.92-10.81Z" transform="translate(-24.41 -29.7)"/><path class="cls-13" d="M236.91,774.44A102.65,102.65,0,0,0,252,767.05c4.26-2.57,6.55-5.09,7-9.8-2.73-1.19-8.39-1.49-11.25-1.18-4.37,2.1-10.17,5.12-15.71,8.06,2.27,5.79-.1.33,4.87,10.31Z" transform="translate(-24.41 -29.7)"/><path class="cls-13" d="M203.52,704.38c.06-1.26-1.14,1,3.83,1s20.66-1.29,26-1.09,4.45.55,6.14,2.32,3,6.68,4,8.34.48-.81-4.05-.73-18.29,1.09-23.13,1.24-4.37.09-5.92-.33-2.29-.56-3.41-2.21-3.53-7.28-3.47-8.54Z" transform="translate(-24.41 -29.7)"/><path class="cls-13" d="M216.22,739.7c.19-1.12-1.07,1.06,3.83,1s20.14-1.55,25.58-1.35,5.3.6,7.06,2.53,3.62,7.76,3.53,9,.47-1.44-4.08-1.38-18.38,1.52-23.22,1.7-4.31-.22-5.86-.64a6.71,6.71,0,0,1-4.16-3.19c-.71-1.56-2.88-6.6-2.68-7.72Z" transform="translate(-24.41 -29.7)"/><path class="cls-13" d="M244.51,720.68c-1.43-1.23-10.13-.39-13.89.52s-6.09,2.76-8.69,4.89S213.8,732.68,215,734s10.12.66,14.13-.13a22.86,22.86,0,0,0,10.07-5.25c2.56-2.19,6.73-6.67,5.3-7.91Z" transform="translate(-24.41 -29.7)"/><path class="cls-12" d="M239.34,1345.24c-3.48-.1-6.75-3.11-9.61-5.45s-5-5.61-7.54-8.61-6.17-7.22-7.53-9.4-.95-2.64-.6-3.64.32-.42,2.71-2.36,9-7.66,11.62-9.25,2.78-1.14,4.28-.28,4.25,6.57,4.71,5.41-3-8.7-2-12.36,4.81-7,8.47-9.59,9.25-6.16,13.5-6.08,9.91,5.14,12,6.59c-.73-3.81-2.6-8.89-1.33-12.36s5.67-5.95,8.93-8.49a58.41,58.41,0,0,1,10.66-6.72,9.38,9.38,0,0,1,6.61-.64c1.82.46,2.88,1.5,5.24,3.42s6,6.58,8.44,9.35c2.45,3.91,7.43,7.93,8.47,10.67s.17,2.47-1.42,4.32-5.87,5-8.12,6.74a37.47,37.47,0,0,1-5.57,3.92c-1.41.65-1.67.75-2.85,0s-3.77-5-4.24-4.63,1.2,4.55,1.37,6.66a14.41,14.41,0,0,1-.36,6,14.19,14.19,0,0,1-3.68,5.51,52,52,0,0,1-7.32,5.17c-2.29,1.46-4,3.19-6.36,3.59s-5.44-.43-7.75-1.16-5.15-3-6.15-3.22,0,.61.14,2.06,1.15,4.45.58,6.66a13.46,13.46,0,0,1-4,6.62,52.76,52.76,0,0,1-10,6.73c-3.55,1.93-7.79,4.93-11.28,4.82Z" transform="translate(-24.41 -29.7)"/><path class="cls-13" d="M309.91,1287c-3.78-5.59-9-11-10.35-12.9s-6.19-4.87-10.25-5c-.6,2.92-.52,9.15.39,11.08,1.84,4.16,6.64,9,10.66,13.86,5.2-3.42,0,0,9.55-7.06Z" transform="translate(-24.41 -29.7)"/><path class="cls-13" d="M221.49,1320.26a104.5,104.5,0,0,0,10.35,13.22c3.4,3.64,6.35,5.35,11,4.83.6-2.93-.28-8.53-1.18-11.25-3-3.85-7.12-8.89-11.14-13.7-5.2,3.42-.35,0-9.08,6.9Z" transform="translate(-24.41 -29.7)"/><path class="cls-13" d="M283.11,1273.07c1.24-.2-1.24-.91-.19,4s5.55,19.94,6.46,25.23.39,4.46-1,6.48-5.92,4.28-7.33,5.64.9.3-.12-4.11-4.86-17.67-6-22.37-1-4.26-.91-5.87.07-2.34,1.46-3.78,6.39-5,7.64-5.17Z" transform="translate(-24.41 -29.7)"/><path class="cls-13" d="M251.18,1292.81c1.14,0-1.26-.82-.19,4s5.69,19.38,6.63,24.75.51,5.3-1,7.43-6.85,5.15-8.11,5.32,1.5.17.5-4.27-5.3-17.66-6.48-22.37-.68-4.25-.59-5.86a6.69,6.69,0,0,1,2.25-4.73c1.38-1,5.87-4.18,7-4.23Z" transform="translate(-24.41 -29.7)"/><path class="cls-13" d="M275.65,1316.55c.91-1.66-1.71-10-3.38-13.48s-4-5.39-6.59-7.49-8.13-6.58-9.14-5.14,1.45,10,3.06,13.8a22.77,22.77,0,0,0,7.22,8.76c2.67,2,7.93,5.21,8.83,3.55Z" transform="translate(-24.41 -29.7)"/><path class="cls-12" d="M74.86,695.59c-1.75,1.09-4.36.67-6.54.45a38.33,38.33,0,0,1-6.55-1.79,70.87,70.87,0,0,1-6.8-2.19c-1.38-.63-1.34-1-1.49-1.6s0-.31.57-2.05S56,681.68,56.77,680s1-1.47,2-1.54,4.26,1.86,4.1,1.14-4.35-3.31-5-5.47.09-5,1.05-7.52,2.56-6.08,4.69-7.43,6.59-.7,8.08-.67c-1.61-1.64-4.19-3.54-4.7-5.68s.85-4.79,1.64-7.12a34.51,34.51,0,0,1,3.07-6.82,5.61,5.61,0,0,1,3.06-2.48c1-.36,1.92-.2,3.71,0a61.48,61.48,0,0,1,7.24,1.86c2.49,1.14,6.27,1.49,7.68,2.51s.9,1.16.72,2.6a46.25,46.25,0,0,1-1.81,6,22.69,22.69,0,0,1-1.48,3.76c-.48.78-.58.92-1.41.92s-3.49-1.22-3.62-.9S87.88,655,88.65,656a7.19,7.19,0,0,1,1.78,7,31.33,31.33,0,0,1-1.93,5c-.65,1.47-.94,2.89-2,3.86a10.92,10.92,0,0,1-4.22,2c-1.38.4-3.53.19-4.09.42s.21.3.74,1,2,1.82,2.47,3.1a8,8,0,0,1,.19,4.58,31.2,31.2,0,0,1-2.76,6.62c-1.12,2.11-2.24,5-4,6.08Z" transform="translate(-24.41 -29.7)"/><path class="cls-13" d="M90.72,643.68c-3.71-1.53-8.06-2.52-9.35-3a9.57,9.57,0,0,0-6.7.89c.66,1.65,2.74,4.7,3.82,5.36,2.27,1.45,6.24,2.3,9.81,3.36,1.45-3.39,0,0,2.42-6.62Z" transform="translate(-24.41 -29.7)"/><path class="cls-13" d="M57.85,689.07a60.19,60.19,0,0,0,9.45,3.15c2.87.69,4.89.57,7-1.22a16.74,16.74,0,0,0-4.27-5.18c-2.72-.94-6.43-2.07-10-3.13-1.45,3.39-.18.1-2.23,6.38Z" transform="translate(-24.41 -29.7)"/><path class="cls-13" d="M72.88,645.55c.55-.51-.91,0,1.2,2s9.27,8,11.46,10.36,1.65,2.08,1.62,3.53-1.52,4.06-1.77,5.2.54-.15-1.41-2-8.19-7.15-10.3-9.1-1.89-1.78-2.37-2.6a2.72,2.72,0,0,1-.52-2.35,17.56,17.56,0,0,1,2.09-5.06Z" transform="translate(-24.41 -29.7)"/><path class="cls-13" d="M63.55,665.77c.55-.39-.89,0,1.2,2s9.16,7.73,11.38,10.08,2,2.45,1.94,4a12.56,12.56,0,0,1-2.27,5.29c-.57.5.8-.41-1.15-2.28s-8.41-7-10.53-8.94-1.73-1.88-2.21-2.71a4,4,0,0,1-.44-3.08c.35-.95,1.53-4,2.08-4.38Z" transform="translate(-24.41 -29.7)"/><path class="cls-13" d="M83.43,669.5c-.09-1.12-4.12-4.38-6.09-5.56a12.08,12.08,0,0,0-5.71-1.55c-2-.18-6.18-.59-6.21.46s4,4.48,6,5.82a13.54,13.54,0,0,0,6.44,2c2,.14,5.62,0,5.53-1.14Z" transform="translate(-24.41 -29.7)"/><path class="cls-12" d="M254.78,981.38c-1.34,2.55-4.76,3.91-7.54,5.2s-6,1.72-9.13,2.51-7.62,2-9.73,2.23-2.32-.24-2.94-.86-.19-.39-.77-2.87-2.48-9.46-2.71-12,.15-2.49,1.33-3.29,6.44-.8,5.74-1.56-7.59-.87-9.93-3-3.48-6.1-4.1-9.78-1.26-9.12.34-12.26,7.41-5.53,9.23-6.56c-3.11-.82-7.57-1.27-9.7-3.46s-2.39-6.37-3.1-9.72a48.54,48.54,0,0,1-1.18-10.38,7.86,7.86,0,0,1,1.91-5.16c1-1.19,2.16-1.61,4.44-2.68s7.07-2.08,10-2.92c3.8-.41,8.6-2.68,11-2.47s1.91.77,2.71,2.62a62,62,0,0,1,2.1,8.49,31,31,0,0,1,.91,5.57c0,1.28,0,1.52-1,2.12s-5.06,1-5,1.49,3.83.74,5.46,1.38a11.87,11.87,0,0,1,4.36,2.44,11.62,11.62,0,0,1,2.78,4.73,42.81,42.81,0,0,1,1.22,7.33c.26,2.23.93,4.14.38,6s-2.28,3.89-3.66,5.36-4.11,2.75-4.62,3.42.46.21,1.59.64,3.73.74,5.17,2a11.07,11.07,0,0,1,3.49,5.38,43.62,43.62,0,0,1,1.41,9.91c.16,3.34.86,7.59-.47,10.15Z" transform="translate(-24.41 -29.7)"/><path class="cls-13" d="M236.83,907.75c-5.54.81-11.47,2.71-13.36,3.07a13.34,13.34,0,0,0-7.41,5.85c2,1.5,6.64,3.69,8.41,3.7,3.76.13,9.14-1.68,14.17-3-.67-5.11,0,0-1.81-9.67Z" transform="translate(-24.41 -29.7)"/><path class="cls-13" d="M229.71,985.68a86.69,86.69,0,0,0,13.59-2.95c3.94-1.23,6.28-2.81,7.59-6.5-2-1.5-6.46-2.86-8.82-3.17-3.93.81-9.2,2.09-14.23,3.36.67,5.11-.15.25,1.87,9.26Z" transform="translate(-24.41 -29.7)"/><path class="cls-13" d="M216.74,922.71c.29-1-1.12.59,2.88,1.56s16.87,3.06,21.14,4.28,3.47,1.32,4.47,3.09,1.06,6,1.57,7.49.55-.56-3.11-1.39-14.93-2.75-18.85-3.58-3.54-.8-4.7-1.44a3.76,3.76,0,0,1-2.3-2.45c-.58-1.56-1.4-6.57-1.1-7.56Z" transform="translate(-24.41 -29.7)"/><path class="cls-13" d="M220,953.64c.37-.87-1.07.64,2.88,1.56s16.51,2.75,20.85,4,4.14,1.53,5.18,3.43,1.37,7,1,8,.67-1.06-3-1.92-15.09-2.41-19-3.23-3.41-1-4.58-1.68a5.58,5.58,0,0,1-2.72-3.38c-.26-1.4-1-5.88-.62-6.74Z" transform="translate(-24.41 -29.7)"/><path class="cls-13" d="M246.48,944c-.91-1.28-8.07-2.32-11.28-2.35s-5.45,1-8,2.22-7.84,3.69-7.13,5,8,2.53,11.39,2.69a18.9,18.9,0,0,0,9.14-2.22c2.5-1.26,6.74-4,5.84-5.31Z" transform="translate(-24.41 -29.7)"/><path class="cls-12" d="M95.45,1079.85c-.4,1.94-2.39,3.48-4,4.84a35.14,35.14,0,0,1-5.53,3.38c-1.92,1.11-4.63,2.75-6,3.29s-1.57.28-2.1,0-.2-.22-1.05-1.74-3.41-5.75-4-7.39-.37-1.66.25-2.41,4.09-1.74,3.48-2.11-5.15.86-7.09-.09-3.43-3.36-4.54-5.66-2.54-5.76-2.08-8.12,3.83-5,4.83-6.06c-2.19,0-5.21.6-7-.45s-2.77-3.73-3.87-5.8a33,33,0,0,1-2.72-6.6,5.37,5.37,0,0,1,.28-3.76c.43-1,1.12-1.46,2.42-2.59a58.71,58.71,0,0,1,6-3.81c2.42-1,5.15-3.38,6.78-3.69s1.4.14,2.27,1.21a42,42,0,0,1,3,5.18,21.45,21.45,0,0,1,1.65,3.49c.23.85.26,1-.29,1.59s-3.13,1.62-3,1.92,2.66-.23,3.85-.12a8.1,8.1,0,0,1,3.32.78,8,8,0,0,1,2.73,2.59,29.38,29.38,0,0,1,2.17,4.59c.6,1.41,1.4,2.54,1.39,3.89a10.28,10.28,0,0,1-1.4,4.22c-.63,1.22-2.18,2.58-2.38,3.12s.34,0,1.16.12,2.59-.22,3.77.32a7.6,7.6,0,0,1,3.31,2.87,30.25,30.25,0,0,1,2.79,6.25c.73,2.17,2,4.83,1.6,6.76Z" transform="translate(-24.41 -29.7)"/><path class="cls-13" d="M69.78,1034.83c-3.49,1.57-7,3.94-8.2,4.53a9.13,9.13,0,0,0-3.77,5.24c1.57.62,5,1.18,6.22.86,2.5-.63,5.69-2.83,8.77-4.62-1.41-3.23,0,0-3-6Z" transform="translate(-24.41 -29.7)"/><path class="cls-13" d="M79.78,1087.4a58.61,58.61,0,0,0,8.38-4.5c2.36-1.54,3.6-3,3.76-5.7a16.23,16.23,0,0,0-6.39-.42c-2.44,1.27-5.65,3.11-8.73,4.89,1.41,3.23,0,.19,3,5.73Z" transform="translate(-24.41 -29.7)"/><path class="cls-13" d="M59.39,1048.44c0-.71-.63.61,2.19.49s11.67-1.17,14.7-1.17,2.53.22,3.53,1.19,1.82,3.72,2.44,4.63.25-.47-2.31-.32-10.33,1-13.07,1.19-2.47.14-3.36-.06a2.59,2.59,0,0,1-2-1.18,16.59,16.59,0,0,1-2.15-4.77Z" transform="translate(-24.41 -29.7)"/><path class="cls-13" d="M67.33,1068.18c.08-.64-.59.62,2.19.48s11.37-1.3,14.45-1.3,3,.23,4,1.28a11.89,11.89,0,0,1,2.19,5c0,.73.24-.82-2.33-.69s-10.38,1.25-13.12,1.45-2.44,0-3.33-.24a3.75,3.75,0,0,1-2.42-1.71c-.44-.87-1.77-3.68-1.68-4.31Z" transform="translate(-24.41 -29.7)"/><path class="cls-13" d="M82.94,1056.81c-.83-.67-5.74,0-7.85.58a11.67,11.67,0,0,0-4.82,3c-1.43,1.26-4.46,3.9-3.75,4.61s5.74.16,8-.38a12.89,12.89,0,0,0,5.59-3.18c1.4-1.3,3.67-3.92,2.83-4.59Z" transform="translate(-24.41 -29.7)"/><path class="cls-12" d="M105.77,1484.2c0,2-1.63,3.88-2.91,5.54a34.61,34.61,0,0,1-4.73,4.43c-1.65,1.48-4,3.63-5.18,4.44s-1.48.59-2,.41-.24-.17-1.38-1.49-4.51-4.93-5.46-6.41-.7-1.55-.24-2.41,3.64-2.53,3-2.77-4.88,1.89-7,1.34-4-2.58-5.59-4.61-3.66-5.12-3.69-7.53,2.72-5.71,3.5-6.91c-2.14.49-5,1.64-7,1s-3.48-3.1-5-4.9a33.06,33.06,0,0,1-4-5.91,5.33,5.33,0,0,1-.49-3.73c.23-1,.8-1.66,1.84-3a58.58,58.58,0,0,1,5.13-5c2.17-1.45,4.36-4.35,5.89-5s1.39-.15,2.47.72a43.24,43.24,0,0,1,4,4.47,20.55,20.55,0,0,1,2.32,3.08c.4.79.46.93,0,1.62s-2.74,2.22-2.54,2.49,2.55-.77,3.74-.91a8.3,8.3,0,0,1,3.41.09,8.15,8.15,0,0,1,3.2,2,29.32,29.32,0,0,1,3.06,4c.87,1.27,1.88,2.21,2.15,3.54a10.31,10.31,0,0,1-.51,4.41c-.37,1.32-1.61,3-1.7,3.54s.34,0,1.16-.12,2.49-.74,3.76-.45a7.6,7.6,0,0,1,3.82,2.14,30.19,30.19,0,0,1,4,5.55c1.16,2,2.94,4.32,2.94,6.3Z" transform="translate(-24.41 -29.7)"/><path class="cls-13" d="M71.49,1445.33c-3.1,2.25-6.08,5.28-7.11,6.1a9.15,9.15,0,0,0-2.63,5.9c1.67.29,5.19.12,6.27-.43,2.32-1.12,5-3.92,7.64-6.3-2-2.87,0,0-4.17-5.27Z" transform="translate(-24.41 -29.7)"/><path class="cls-13" d="M92,1494.77a58.31,58.31,0,0,0,7.29-6.1c2-2,2.91-3.7,2.53-6.35a16.07,16.07,0,0,0-6.35.88c-2.12,1.74-4.9,4.19-7.54,6.56,2,2.88,0,.2,4.07,5Z" transform="translate(-24.41 -29.7)"/><path class="cls-13" d="M64.08,1460.77c-.14-.7-.49.72,2.25,0s11.18-3.51,14.16-4.13,2.52-.3,3.69.45,2.53,3.27,3.33,4,.15-.51-2.33.15-9.91,3.08-12.55,3.82-2.39.64-3.31.62a2.56,2.56,0,0,1-2.17-.75,17.17,17.17,0,0,1-3.07-4.23Z" transform="translate(-24.41 -29.7)"/><path class="cls-13" d="M75.86,1478.48c0-.64-.44.73,2.25,0S89,1474.93,92,1474.3s3-.4,4.22.43a11.87,11.87,0,0,1,3.17,4.49c.12.71.07-.85-2.43-.21s-9.9,3.34-12.54,4.09-2.4.47-3.31.45a3.84,3.84,0,0,1-2.73-1.19c-.6-.76-2.47-3.24-2.52-3.88Z" transform="translate(-24.41 -29.7)"/><path class="cls-13" d="M88.84,1464.17c-1-.48-5.62,1.17-7.57,2.17a11.68,11.68,0,0,0-4.12,3.88c-1.14,1.52-3.57,4.72-2.73,5.27s5.66-1,7.75-2a12.93,12.93,0,0,0,4.83-4.25c1.11-1.56,2.8-4.59,1.84-5.08Z" transform="translate(-24.41 -29.7)"/><path class="cls-3" d="M50.3,1246.59a27.81,27.81,0,0,1,36.62-5.81A26.82,26.82,0,0,1,98.51,1258a28.06,28.06,0,0,1-4.28,21.3c-5.65,8.47-3.4,20.2,6.35,33a27.8,27.8,0,0,1-1.1,34.75,29.21,29.21,0,0,1-4.41,4.27,27.91,27.91,0,0,1-20.88,5.79,26.71,26.71,0,0,1-18-10.39c-36-47.5-15-86.8-7.75-97.72.57-.84,1.18-1.66,1.83-2.44Z" transform="translate(-24.41 -29.7)"/><path class="cls-4" d="M50.3,1246.59a27.81,27.81,0,0,1,36.62-5.81A26.82,26.82,0,0,1,98.51,1258a28.06,28.06,0,0,1-4.28,21.3c-5.65,8.47-3.4,20.2,6.35,33a27.8,27.8,0,0,1-1.1,34.75,29.21,29.21,0,0,1-4.41,4.27,27.91,27.91,0,0,1-20.88,5.79,26.71,26.71,0,0,1-18-10.39c-36-47.5-15-86.8-7.75-97.72.57-.84,1.18-1.66,1.83-2.44Z" transform="translate(-24.41 -29.7)"/><path class="cls-5" d="M50.3,1246.59a27.81,27.81,0,0,1,36.62-5.81A26.82,26.82,0,0,1,98.51,1258a28.06,28.06,0,0,1-4.28,21.3c-5.65,8.47-3.4,20.2,6.35,33a27.8,27.8,0,0,1-1.1,34.75,29.21,29.21,0,0,1-4.41,4.27,27.91,27.91,0,0,1-20.88,5.79,26.71,26.71,0,0,1-18-10.39c-36-47.5-15-86.8-7.75-97.72.57-.84,1.18-1.66,1.83-2.44Z" transform="translate(-24.41 -29.7)"/><g class="cls-14"><path class="cls-7" d="M57.59,1253.57a18.46,18.46,0,0,1,24.29-4,17.51,17.51,0,0,1,7.56,11.25,18.78,18.78,0,0,1-2.88,14.24c-4.44,6.64-9.5,20.92,6.45,41.94a18.69,18.69,0,0,1-.82,23.08,19.4,19.4,0,0,1-3,2.89,18.6,18.6,0,0,1-13.9,3.88,17.46,17.46,0,0,1-11.74-6.78c-31.55-41.58-13.5-75.47-7.22-84.87.39-.57.8-1.12,1.24-1.65Z" transform="translate(-24.41 -29.7)"/><g class="cls-14"><path class="cls-8" d="M69.05,1325.27a6.82,6.82,0,1,1,9.6-.87,6.81,6.81,0,0,1-9.6.87Z" transform="translate(-24.41 -29.7)"/><g class="cls-14"><path class="cls-9" d="M69.9,1268.31a5.11,5.11,0,1,1,7.2-.66,5.12,5.12,0,0,1-7.2.66Z" transform="translate(-24.41 -29.7)"/><g class="cls-14"><path class="cls-8" d="M57.69,1306.94a5.12,5.12,0,1,1,7.2-.65,5.12,5.12,0,0,1-7.2.65Z" transform="translate(-24.41 -29.7)"/><g class="cls-14"><path class="cls-8" d="M69,1285.34a1.6,1.6,0,0,1,.52-.41,2,2,0,0,1,.63-.21,1.9,1.9,0,0,1,.67.09,1.63,1.63,0,0,1,.58.31,1.77,1.77,0,0,1,.61,1.15,1.82,1.82,0,0,1-.08.66,1.72,1.72,0,0,1-1.46,1.2,1.82,1.82,0,0,1-1.25-.39,1.72,1.72,0,0,1-.41-.52,1.79,1.79,0,0,1-.21-.64,1.85,1.85,0,0,1,.4-1.24Z" transform="translate(-24.41 -29.7)"/><g class="cls-14"><path class="cls-8" d="M59.43,1272.89a1.84,1.84,0,0,1,.51-.41,2.07,2.07,0,0,1,.64-.2,1.85,1.85,0,0,1,.66.09,1.6,1.6,0,0,1,.59.31,1.77,1.77,0,0,1,.61,1.15,1.85,1.85,0,0,1-.09.66,1.74,1.74,0,0,1-1.46,1.2,1.67,1.67,0,0,1-1.66-.91,2.07,2.07,0,0,1-.2-.64,1.79,1.79,0,0,1,.4-1.25Z" transform="translate(-24.41 -29.7)"/><g class="cls-14"><path class="cls-8" d="M56.81,1284a1.72,1.72,0,0,1,.52-.41,1.8,1.8,0,0,1,.63-.21,1.9,1.9,0,0,1,.67.09,1.63,1.63,0,0,1,.58.31,1.83,1.83,0,0,1,.62,1.15,2.07,2.07,0,0,1-.09.66,1.72,1.72,0,0,1-1.46,1.2,1.82,1.82,0,0,1-1.25-.39,1.72,1.72,0,0,1-.41-.52,1.6,1.6,0,0,1-.2-.64,1.79,1.79,0,0,1,.39-1.24Z" transform="translate(-24.41 -29.7)"/><g class="cls-14"><path class="cls-8" d="M85.2,1329.85a1.72,1.72,0,0,1,.52-.41,2,2,0,0,1,.64-.2,1.67,1.67,0,0,1,.66.08,1.63,1.63,0,0,1,.58.31,1.85,1.85,0,0,1,.62,1.16,2.15,2.15,0,0,1-.09.66,1.72,1.72,0,0,1-1.46,1.19,1.77,1.77,0,0,1-1.25-.39,1.85,1.85,0,0,1-.61-1.15,1.82,1.82,0,0,1,.39-1.25Z" transform="translate(-24.41 -29.7)"/><g class="cls-14"><path class="cls-8" d="M72.33,1334.66a1.68,1.68,0,0,1,.51-.41,1.49,1.49,0,0,1,1.3-.12,1.67,1.67,0,0,1,.59.31,1.77,1.77,0,0,1,.61,1.15,2.06,2.06,0,0,1-.08.66,1.73,1.73,0,0,1-1.47,1.2,1.83,1.83,0,0,1-1.25-.39,2.09,2.09,0,0,1-.41-.52,2,2,0,0,1-.2-.64,1.75,1.75,0,0,1,.4-1.24Z" transform="translate(-24.41 -29.7)"/></g></g></g></g></g></g></g></g></g><path class="cls-9" d="M59.65,1275.37a1.79,1.79,0,1,1,2.51-.23,1.79,1.79,0,0,1-2.51.23Z" transform="translate(-24.41 -29.7)"/><path class="cls-9" d="M57.06,1286.51a1.79,1.79,0,1,1,2.51-.23,1.79,1.79,0,0,1-2.51.23Z" transform="translate(-24.41 -29.7)"/><path class="cls-9" d="M69.19,1287.77a1.79,1.79,0,1,1,2.51-.23,1.78,1.78,0,0,1-2.51.23Z" transform="translate(-24.41 -29.7)"/><path class="cls-9" d="M85.38,1332.31a1.78,1.78,0,1,1,2.51-.23,1.78,1.78,0,0,1-2.51.23Z" transform="translate(-24.41 -29.7)"/><path class="cls-9" d="M68.91,1325.22a6.94,6.94,0,1,1,9.77-.89,6.94,6.94,0,0,1-9.77.89Z" transform="translate(-24.41 -29.7)"/><path class="cls-9" d="M57.53,1307a5.24,5.24,0,1,1,7.37-.67,5.24,5.24,0,0,1-7.37.67Z" transform="translate(-24.41 -29.7)"/><path class="cls-9" d="M72.49,1337.15a1.78,1.78,0,1,1,2.51-.23,1.78,1.78,0,0,1-2.51.23Z" transform="translate(-24.41 -29.7)"/><path class="cls-3" d="M73.22,563.34A27.81,27.81,0,0,1,80.55,527a26.78,26.78,0,0,1,20.17-4.85,28.11,28.11,0,0,1,18.47,11.43c6,8.26,17.74,10.24,33.18,5.59a27.79,27.79,0,0,1,32.18,13.15,28.35,28.35,0,0,1,2.46,5.62,27.84,27.84,0,0,1-1.86,21.59,26.67,26.67,0,0,1-16,13.22C112.05,610,82.56,576.55,74.87,565.9c-.59-.82-1.14-1.68-1.65-2.56Z" transform="translate(-24.41 -29.7)"/><path class="cls-4" d="M73.22,563.34A27.81,27.81,0,0,1,80.55,527a26.78,26.78,0,0,1,20.17-4.85,28.11,28.11,0,0,1,18.47,11.43c6,8.26,17.74,10.24,33.18,5.59a27.79,27.79,0,0,1,32.18,13.15,28.35,28.35,0,0,1,2.46,5.62,27.84,27.84,0,0,1-1.86,21.59,26.64,26.64,0,0,1-16,13.22C112.05,610,82.56,576.55,74.87,565.9c-.59-.82-1.14-1.68-1.65-2.56Z" transform="translate(-24.41 -29.7)"/><path class="cls-5" d="M73.22,563.34A27.81,27.81,0,0,1,80.55,527a26.78,26.78,0,0,1,20.17-4.85,28.11,28.11,0,0,1,18.47,11.43c6,8.26,17.74,10.24,33.18,5.59a27.79,27.79,0,0,1,32.18,13.15,28.35,28.35,0,0,1,2.46,5.62,27.84,27.84,0,0,1-1.86,21.59,26.64,26.64,0,0,1-16,13.22C112.05,610,82.56,576.55,74.87,565.9c-.59-.82-1.14-1.68-1.65-2.56Z" transform="translate(-24.41 -29.7)"/><g class="cls-15"><path class="cls-7" d="M82.3,558.94a18.46,18.46,0,0,1,4.75-24.15,17.52,17.52,0,0,1,13.19-3.16,18.72,18.72,0,0,1,12.33,7.67c4.68,6.47,16.29,16.21,41.56,8.58a18.72,18.72,0,0,1,21.34,8.83,19.49,19.49,0,0,1,1.67,3.8,18.56,18.56,0,0,1-1.22,14.38,17.44,17.44,0,0,1-10.45,8.64c-50,15.05-75.43-13.69-82-22.85-.4-.56-.77-1.14-1.12-1.74Z" transform="translate(-24.41 -29.7)"/><g class="cls-15"><path class="cls-8" d="M153.5,573.22a6.82,6.82,0,1,1,2.53-9.3,6.82,6.82,0,0,1-2.53,9.3Z" transform="translate(-24.41 -29.7)"/><g class="cls-15"><path class="cls-9" d="M100.41,552.55a5.12,5.12,0,1,1,1.9-7,5.12,5.12,0,0,1-1.9,7Z" transform="translate(-24.41 -29.7)"/><g class="cls-15"><path class="cls-8" d="M132.36,577.47a5.12,5.12,0,1,1,1.89-7,5.12,5.12,0,0,1-1.89,7Z" transform="translate(-24.41 -29.7)"/><g class="cls-15"><path class="cls-8" d="M116.07,559.3a1.6,1.6,0,0,1-.2-.63,1.88,1.88,0,0,1,0-.67,1.87,1.87,0,0,1,.8-1,1.79,1.79,0,0,1,1.3-.17,2,2,0,0,1,.59.31,1.72,1.72,0,0,1,.61,1.79,1.83,1.83,0,0,1-.8,1,1.6,1.6,0,0,1-.63.2,1.88,1.88,0,0,1-.67,0,1.83,1.83,0,0,1-1-.8Z" transform="translate(-24.41 -29.7)"/><g class="cls-15"><path class="cls-8" d="M101.05,564a1.86,1.86,0,0,1-.2-.63,1.84,1.84,0,0,1,0-.66,1.75,1.75,0,0,1,.31-.59,1.62,1.62,0,0,1,.5-.44,1.75,1.75,0,0,1,1.29-.17,1.59,1.59,0,0,1,.59.31,1.75,1.75,0,0,1,.62,1.79,1.81,1.81,0,0,1-.81,1,1.94,1.94,0,0,1-.63.2,1.89,1.89,0,0,1-.67,0,1.81,1.81,0,0,1-1-.81Z" transform="translate(-24.41 -29.7)"/><g class="cls-15"><path class="cls-8" d="M110.57,570.3a2,2,0,0,1-.2-.63,1.89,1.89,0,0,1,0-.67,2,2,0,0,1,.31-.59,1.93,1.93,0,0,1,.5-.44,1.72,1.72,0,0,1,2.5,1.93,1.81,1.81,0,0,1-.81,1,1.55,1.55,0,0,1-.63.2,1.52,1.52,0,0,1-.67,0,1.79,1.79,0,0,1-1-.8Z" transform="translate(-24.41 -29.7)"/><g class="cls-15"><path class="cls-8" d="M163.42,559.68a1.94,1.94,0,0,1-.2-.63,1.83,1.83,0,0,1,0-.66,1.75,1.75,0,0,1,.31-.59,1.62,1.62,0,0,1,.5-.44,1.81,1.81,0,0,1,1.29-.18,2.22,2.22,0,0,1,.59.31,1.7,1.7,0,0,1-.82,3,1.89,1.89,0,0,1-.67,0,1.81,1.81,0,0,1-1-.81Z" transform="translate(-24.41 -29.7)"/><g class="cls-15"><path class="cls-8" d="M163.44,573.43a1.8,1.8,0,0,1-.21-.63,2.14,2.14,0,0,1,0-.67,1.73,1.73,0,0,1,2.1-1.2,1.9,1.9,0,0,1,.6.31,1.76,1.76,0,0,1,.61,1.79,1.81,1.81,0,0,1-.81,1,1.55,1.55,0,0,1-.63.2,1.83,1.83,0,0,1-.66,0,1.8,1.8,0,0,1-1-.8Z" transform="translate(-24.41 -29.7)"/></g></g></g></g></g></g></g></g></g><path class="cls-9" d="M103.45,564.62a1.79,1.79,0,1,1,.66-2.44,1.79,1.79,0,0,1-.66,2.44Z" transform="translate(-24.41 -29.7)"/><path class="cls-9" d="M113,570.93a1.79,1.79,0,1,1,.66-2.43,1.78,1.78,0,0,1-.66,2.43Z" transform="translate(-24.41 -29.7)"/><path class="cls-9" d="M118.4,560a1.78,1.78,0,1,1,.67-2.43,1.77,1.77,0,0,1-.67,2.43Z" transform="translate(-24.41 -29.7)"/><path class="cls-9" d="M165.79,560.37a1.78,1.78,0,1,1,.66-2.43,1.77,1.77,0,0,1-.66,2.43Z" transform="translate(-24.41 -29.7)"/><path class="cls-9" d="M153.4,573.33a6.94,6.94,0,1,1,2.57-9.46,6.94,6.94,0,0,1-2.57,9.46Z" transform="translate(-24.41 -29.7)"/><path class="cls-9" d="M132.35,577.64a5.24,5.24,0,1,1,1.94-7.15,5.24,5.24,0,0,1-1.94,7.15Z" transform="translate(-24.41 -29.7)"/><path class="cls-9" d="M165.83,574.14a1.78,1.78,0,1,1,.66-2.43,1.77,1.77,0,0,1-.66,2.43Z" transform="translate(-24.41 -29.7)"/><path class="cls-3" d="M46,815.79A27.81,27.81,0,0,1,77.6,796.43,26.81,26.81,0,0,1,94.87,807.9a28.09,28.09,0,0,1,4.19,21.32c-2,10,4.57,20,18.49,28.12a27.8,27.8,0,0,1,12.26,32.53,28.15,28.15,0,0,1-2.45,5.63,27.85,27.85,0,0,1-17.08,13.33,26.71,26.71,0,0,1-20.58-2.74C38.24,876,42.64,831.62,45.22,818.74a30.34,30.34,0,0,1,.75-3Z" transform="translate(-24.41 -29.7)"/><path class="cls-4" d="M46,815.79A27.81,27.81,0,0,1,77.6,796.43,26.81,26.81,0,0,1,94.87,807.9a28.09,28.09,0,0,1,4.19,21.32c-2,10,4.57,20,18.49,28.12a27.8,27.8,0,0,1,12.26,32.53,28.15,28.15,0,0,1-2.45,5.63,27.85,27.85,0,0,1-17.08,13.33,26.71,26.71,0,0,1-20.58-2.74C38.24,876,42.64,831.62,45.22,818.74a30.34,30.34,0,0,1,.75-3Z" transform="translate(-24.41 -29.7)"/><path class="cls-5" d="M46,815.79A27.81,27.81,0,0,1,77.6,796.43,26.81,26.81,0,0,1,94.87,807.9a28.09,28.09,0,0,1,4.19,21.32c-2,10,4.57,20,18.49,28.12a27.8,27.8,0,0,1,12.26,32.53,28.15,28.15,0,0,1-2.45,5.63,27.85,27.85,0,0,1-17.08,13.33,26.71,26.71,0,0,1-20.58-2.74C38.24,876,42.64,831.62,45.22,818.74a30.34,30.34,0,0,1,.75-3Z" transform="translate(-24.41 -29.7)"/><g class="cls-16"><path class="cls-7" d="M55.38,819.45a18.45,18.45,0,0,1,20.92-13A17.51,17.51,0,0,1,87.59,814a18.81,18.81,0,0,1,2.78,14.26c-1.57,7.83-.8,23,22,36.29a18.72,18.72,0,0,1,8.06,21.65,20,20,0,0,1-1.65,3.8,18.59,18.59,0,0,1-11.37,8.9A17.46,17.46,0,0,1,94,897.13c-45-26.37-41.3-64.59-39.08-75.67a17.4,17.4,0,0,1,.51-2Z" transform="translate(-24.41 -29.7)"/><g class="cls-16"><path class="cls-8" d="M93.35,881.34a6.82,6.82,0,1,1,8.54-4.47,6.81,6.81,0,0,1-8.54,4.47Z" transform="translate(-24.41 -29.7)"/><g class="cls-16"><path class="cls-9" d="M72.38,828.37A5.11,5.11,0,1,1,78.79,825a5.12,5.12,0,0,1-6.41,3.36Z" transform="translate(-24.41 -29.7)"/><g class="cls-16"><path class="cls-8" d="M75.86,868.74a5.11,5.11,0,1,1,6.4-3.36,5.11,5.11,0,0,1-6.4,3.36Z" transform="translate(-24.41 -29.7)"/><g class="cls-16"><path class="cls-8" d="M78.09,844.44a1.83,1.83,0,0,1,.32-.58,2.33,2.33,0,0,1,.51-.43,1.65,1.65,0,0,1,.65-.17,1.85,1.85,0,0,1,.66.06,1.75,1.75,0,0,1,1,.83,1.85,1.85,0,0,1,.18.65,1.71,1.71,0,0,1-.9,1.66,1.77,1.77,0,0,1-1.3.11,1.51,1.51,0,0,1-.58-.32,1.63,1.63,0,0,1-.54-1.81Z" transform="translate(-24.41 -29.7)"/><g class="cls-16"><path class="cls-8" d="M64.45,836.61a1.93,1.93,0,0,1,.84-1,1.8,1.8,0,0,1,.64-.18,1.85,1.85,0,0,1,.66.06,1.78,1.78,0,0,1,1,.84,2,2,0,0,1,.17.64,1.74,1.74,0,0,1-.89,1.67,1.8,1.8,0,0,1-1.31.11,1.83,1.83,0,0,1-.58-.32,2.08,2.08,0,0,1-.43-.51,1.91,1.91,0,0,1-.11-1.31Z" transform="translate(-24.41 -29.7)"/><g class="cls-16"><path class="cls-8" d="M66.29,847.9a1.83,1.83,0,0,1,.32-.58,2.33,2.33,0,0,1,.51-.43,1.6,1.6,0,0,1,.64-.17,1.68,1.68,0,0,1,1.67.89,1.85,1.85,0,0,1,.18.65,1.75,1.75,0,0,1-.9,1.66,1.77,1.77,0,0,1-1.3.11,1.51,1.51,0,0,1-.58-.32,1.63,1.63,0,0,1-.54-1.81Z" transform="translate(-24.41 -29.7)"/><g class="cls-16"><path class="cls-8" d="M110,879.4a1.78,1.78,0,0,1,.32-.57,2.08,2.08,0,0,1,.51-.43,1.8,1.8,0,0,1,.65-.18,1.66,1.66,0,0,1,.66.07,1.78,1.78,0,0,1,1,.83,1.8,1.8,0,0,1,.18.64,1.69,1.69,0,0,1-2.2,1.78,1.83,1.83,0,0,1-.58-.32,1.91,1.91,0,0,1-.43-.51,1.8,1.8,0,0,1-.11-1.31Z" transform="translate(-24.41 -29.7)"/><g class="cls-16"><path class="cls-8" d="M100,888.76a1.78,1.78,0,0,1,.32-.57,1.91,1.91,0,0,1,.51-.43,1.8,1.8,0,0,1,.64-.18,1.67,1.67,0,0,1,1.67.9,2.34,2.34,0,0,1,.18.64,1.75,1.75,0,0,1-.9,1.67,1.78,1.78,0,0,1-1.3.11,1.73,1.73,0,0,1-.58-.32,1.75,1.75,0,0,1-.43-.51,1.8,1.8,0,0,1-.11-1.31Z" transform="translate(-24.41 -29.7)"/></g></g></g></g></g></g></g></g></g><path class="cls-9" d="M65.6,838.81a1.78,1.78,0,1,1,2.24-1.17,1.78,1.78,0,0,1-2.24,1.17Z" transform="translate(-24.41 -29.7)"/><path class="cls-9" d="M67.47,850.1a1.79,1.79,0,1,1,2.23-1.18,1.79,1.79,0,0,1-2.23,1.18Z" transform="translate(-24.41 -29.7)"/><path class="cls-9" d="M79.16,846.63a1.79,1.79,0,0,1,1.06-3.41,1.79,1.79,0,1,1-1.06,3.41Z" transform="translate(-24.41 -29.7)"/><path class="cls-9" d="M111.13,881.61a1.79,1.79,0,1,1,2.24-1.17,1.79,1.79,0,0,1-2.24,1.17Z" transform="translate(-24.41 -29.7)"/><path class="cls-9" d="M93.21,881.35a6.93,6.93,0,1,1,8.69-4.56,6.92,6.92,0,0,1-8.69,4.56Z" transform="translate(-24.41 -29.7)"/><path class="cls-9" d="M75.72,868.85a5.24,5.24,0,1,1,6.56-3.44,5.24,5.24,0,0,1-6.56,3.44Z" transform="translate(-24.41 -29.7)"/><path class="cls-9" d="M101.07,891a1.79,1.79,0,1,1,2.24-1.17,1.78,1.78,0,0,1-2.24,1.17Z" transform="translate(-24.41 -29.7)"/><path class="cls-3" d="M284.48,1451A27.91,27.91,0,0,1,289,1488a26.55,26.55,0,0,1-17.68,10.82,28.31,28.31,0,0,1-21.2-5.23c-8.29-6-20.14-4.32-33.39,4.86a28,28,0,0,1-34.8-2.66,29.15,29.15,0,0,1-4.13-4.61,28.09,28.09,0,0,1-5-21.17,26.46,26.46,0,0,1,11.08-17.53c49-34,87.61-11.15,98.29-3.35a27.59,27.59,0,0,1,2.38,1.94Z" transform="translate(-24.41 -29.7)"/><path class="cls-4" d="M284.48,1451A27.91,27.91,0,0,1,289,1488a26.55,26.55,0,0,1-17.68,10.82,28.31,28.31,0,0,1-21.2-5.23c-8.29-6-20.14-4.32-33.39,4.86a28,28,0,0,1-34.8-2.66,29.15,29.15,0,0,1-4.13-4.61,28.09,28.09,0,0,1-5-21.17,26.46,26.46,0,0,1,11.08-17.53c49-34,87.61-11.15,98.29-3.35a27.59,27.59,0,0,1,2.38,1.94Z" transform="translate(-24.41 -29.7)"/><path class="cls-5" d="M284.48,1451A27.91,27.91,0,0,1,289,1488a26.55,26.55,0,0,1-17.68,10.82,28.31,28.31,0,0,1-21.2-5.23c-8.29-6-20.14-4.32-33.39,4.86a28,28,0,0,1-34.8-2.66,29.15,29.15,0,0,1-4.13-4.61,28.09,28.09,0,0,1-5-21.17,26.46,26.46,0,0,1,11.08-17.53c49-34,87.61-11.15,98.29-3.35a27.59,27.59,0,0,1,2.38,1.94Z" transform="translate(-24.41 -29.7)"/><g class="cls-17"><path class="cls-7" d="M277.22,1458a18.52,18.52,0,0,1,3.1,24.49,17.39,17.39,0,0,1-11.57,7.07,18.91,18.91,0,0,1-14.17-3.53c-6.5-4.74-20.64-10.46-42.3,4.58a18.84,18.84,0,0,1-23.12-1.87,19.63,19.63,0,0,1-2.79-3.11,18.7,18.7,0,0,1-3.38-14.1,17.32,17.32,0,0,1,7.23-11.45c42.86-29.71,76.19-10.11,85.38-3.4a20.29,20.29,0,0,1,1.62,1.32Z" transform="translate(-24.41 -29.7)"/><g class="cls-17"><path class="cls-8" d="M204.88,1466.25a6.87,6.87,0,1,1,.53,9.65,6.84,6.84,0,0,1-.53-9.65Z" transform="translate(-24.41 -29.7)"/><g class="cls-17"><path class="cls-9" d="M262,1469.67a5.15,5.15,0,1,1,.4,7.24,5.13,5.13,0,0,1-.4-7.24Z" transform="translate(-24.41 -29.7)"/><g class="cls-17"><path class="cls-8" d="M223.68,1455.7a5.15,5.15,0,1,1,.4,7.24,5.13,5.13,0,0,1-.4-7.24Z" transform="translate(-24.41 -29.7)"/><g class="cls-17"><path class="cls-8" d="M244.94,1468a1.78,1.78,0,0,1,.39.54,2.34,2.34,0,0,1,.18.64,1.83,1.83,0,0,1-.11.66,1.81,1.81,0,0,1-.33.57,1.78,1.78,0,0,1-1.18.56,1.83,1.83,0,0,1-.66-.11,1.7,1.7,0,0,1-.71-2.75,1.63,1.63,0,0,1,.54-.39,1.6,1.6,0,0,1,.64-.17,1.84,1.84,0,0,1,1.24.45Z" transform="translate(-24.41 -29.7)"/><g class="cls-17"><path class="cls-8" d="M257.77,1459a1.74,1.74,0,0,1,.39.54,1.8,1.8,0,0,1,.18.64,1.64,1.64,0,0,1-.11.66,1.68,1.68,0,0,1-.33.58,1.78,1.78,0,0,1-1.18.56,1.84,1.84,0,0,1-.66-.12,1.76,1.76,0,0,1-1.15-1.52,1.67,1.67,0,0,1,1-1.62,2,2,0,0,1,.64-.17,1.83,1.83,0,0,1,1.24.45Z" transform="translate(-24.41 -29.7)"/><g class="cls-17"><path class="cls-8" d="M246.7,1455.85a1.91,1.91,0,0,1,.39.54,1.8,1.8,0,0,1,.18.65,1.62,1.62,0,0,1-.11.65,1.68,1.68,0,0,1-.33.58,1.62,1.62,0,0,1-1.84.44,1.74,1.74,0,0,1-1.15-1.52,1.79,1.79,0,0,1,.44-1.23,1.6,1.6,0,0,1,.54-.38,1.8,1.8,0,0,1,.64-.18,1.83,1.83,0,0,1,1.24.45Z" transform="translate(-24.41 -29.7)"/><g class="cls-17"><path class="cls-8" d="M199.7,1482.22a1.69,1.69,0,0,1,.39.53,1.92,1.92,0,0,1,.18.65,1.67,1.67,0,0,1-.11.66,1.64,1.64,0,0,1-.33.57,1.78,1.78,0,0,1-1.18.56,2.08,2.08,0,0,1-.66-.11,1.7,1.7,0,0,1-.71-2.75,1.5,1.5,0,0,1,.54-.39,1.8,1.8,0,0,1,.64-.18,1.83,1.83,0,0,1,1.24.46Z" transform="translate(-24.41 -29.7)"/><g class="cls-17"><path class="cls-8" d="M195.35,1469.11a1.63,1.63,0,0,1,.39.54,1.8,1.8,0,0,1,.18.64,1.86,1.86,0,0,1-.44,1.23,1.78,1.78,0,0,1-1.18.56,2.08,2.08,0,0,1-.66-.11,1.77,1.77,0,0,1-1.15-1.52,1.79,1.79,0,0,1,.44-1.23,1.5,1.5,0,0,1,.54-.39,1.6,1.6,0,0,1,.64-.17,1.83,1.83,0,0,1,1.24.45Z" transform="translate(-24.41 -29.7)"/></g></g></g></g></g></g></g></g></g><path class="cls-9" d="M255.28,1459.08a1.8,1.8,0,1,1,.14,2.53,1.8,1.8,0,0,1-.14-2.53Z" transform="translate(-24.41 -29.7)"/><path class="cls-9" d="M244.2,1456a1.8,1.8,0,1,1,.14,2.53,1.8,1.8,0,0,1-.14-2.53Z" transform="translate(-24.41 -29.7)"/><path class="cls-9" d="M242.49,1468.08a1.8,1.8,0,1,1,.14,2.53,1.8,1.8,0,0,1-.14-2.53Z" transform="translate(-24.41 -29.7)"/><path class="cls-9" d="M197.22,1482.28a1.8,1.8,0,1,1,.14,2.53,1.79,1.79,0,0,1-.14-2.53Z" transform="translate(-24.41 -29.7)"/><path class="cls-9" d="M204.94,1466.12a7,7,0,1,1,.53,9.82,7,7,0,0,1-.53-9.82Z" transform="translate(-24.41 -29.7)"/><path class="cls-9" d="M223.64,1455.54a5.27,5.27,0,1,1,.4,7.41,5.25,5.25,0,0,1-.4-7.41Z" transform="translate(-24.41 -29.7)"/><path class="cls-9" d="M192.84,1469.16a1.8,1.8,0,1,1,.14,2.52,1.79,1.79,0,0,1-.14-2.52Z" transform="translate(-24.41 -29.7)"/><path class="cls-3" d="M182.22,1176.9A27.81,27.81,0,0,1,152,1155.38,26.82,26.82,0,0,1,155.8,1135a28.09,28.09,0,0,1,18-12.2c10-2.07,16.58-12,18.63-28a27.8,27.8,0,0,1,25.13-24,29.31,29.31,0,0,1,6.14,0,27.88,27.88,0,0,1,18.95,10.5,26.7,26.7,0,0,1,5.54,20c-7.56,59.15-50.09,72.47-62.94,75.14a28.05,28.05,0,0,1-3,.46Z" transform="translate(-24.41 -29.7)"/><path class="cls-4" d="M182.22,1176.9A27.81,27.81,0,0,1,152,1155.38,26.82,26.82,0,0,1,155.8,1135a28.09,28.09,0,0,1,18-12.2c10-2.07,16.58-12,18.63-28a27.8,27.8,0,0,1,25.13-24,29.31,29.31,0,0,1,6.14,0,27.88,27.88,0,0,1,18.95,10.5,26.7,26.7,0,0,1,5.54,20c-7.56,59.15-50.09,72.47-62.94,75.14a28.05,28.05,0,0,1-3,.46Z" transform="translate(-24.41 -29.7)"/><path class="cls-5" d="M182.22,1176.9A27.81,27.81,0,0,1,152,1155.38,26.82,26.82,0,0,1,155.8,1135a28.09,28.09,0,0,1,18-12.2c10-2.07,16.58-12,18.63-28a27.8,27.8,0,0,1,25.13-24,29.31,29.31,0,0,1,6.14,0,27.88,27.88,0,0,1,18.95,10.5,26.7,26.7,0,0,1,5.54,20c-7.56,59.15-50.09,72.47-62.94,75.14a28.05,28.05,0,0,1-3,.46Z" transform="translate(-24.41 -29.7)"/><g class="cls-18"><path class="cls-7" d="M181.9,1166.82a18.48,18.48,0,0,1-20.12-14.19,17.56,17.56,0,0,1,2.49-13.33,18.78,18.78,0,0,1,12-8.13c7.82-1.63,21.44-8.27,24.78-34.45a18.73,18.73,0,0,1,16.77-15.89,19.76,19.76,0,0,1,4.14,0,18.58,18.58,0,0,1,12.64,7,17.41,17.41,0,0,1,3.62,13.06c-6.62,51.77-43.25,63.3-54.32,65.6a20.12,20.12,0,0,1-2,.32Z" transform="translate(-24.41 -29.7)"/><g class="cls-18"><path class="cls-8" d="M224,1107.63a6.82,6.82,0,1,1-7.46-6.1,6.82,6.82,0,0,1,7.46,6.1Z" transform="translate(-24.41 -29.7)"/><g class="cls-18"><path class="cls-9" d="M183.45,1147.67a5.12,5.12,0,1,1-5.6-4.57,5.12,5.12,0,0,1,5.6,4.57Z" transform="translate(-24.41 -29.7)"/><g class="cls-18"><path class="cls-8" d="M219.23,1128.66a5.12,5.12,0,1,1-5.6-4.57,5.12,5.12,0,0,1,5.6,4.57Z" transform="translate(-24.41 -29.7)"/><g class="cls-18"><path class="cls-8" d="M196,1136.13a1.86,1.86,0,0,1-.66-.07,2.19,2.19,0,0,1-.59-.3,1.76,1.76,0,0,1-.41-.53,1.55,1.55,0,0,1-.2-.63,1.75,1.75,0,0,1,.37-1.25,1.92,1.92,0,0,1,.52-.42,1.74,1.74,0,0,1,1.89.18,1.77,1.77,0,0,1,.61,1.15,1.7,1.7,0,0,1-1.53,1.87Z" transform="translate(-24.41 -29.7)"/><g class="cls-18"><path class="cls-8" d="M194.13,1151.74a1.66,1.66,0,0,1-.66-.07,1.94,1.94,0,0,1-.59-.3,1.72,1.72,0,0,1-.41-.52,1.6,1.6,0,0,1-.2-.63,1.79,1.79,0,0,1,.37-1.26,2.29,2.29,0,0,1,.52-.41,1.75,1.75,0,0,1,1.89.17,1.79,1.79,0,0,1,.61,1.15,1.81,1.81,0,0,1-.07.66,1.88,1.88,0,0,1-.3.6,1.81,1.81,0,0,1-1.16.61Z" transform="translate(-24.41 -29.7)"/><g class="cls-18"><path class="cls-8" d="M203.8,1145.63a1.64,1.64,0,0,1-.66-.07,2.19,2.19,0,0,1-.59-.3,1.92,1.92,0,0,1-.42-.52,2,2,0,0,1-.2-.63,1.84,1.84,0,0,1,.37-1.26,2.15,2.15,0,0,1,.53-.41,1.74,1.74,0,0,1,1.88.17,1.85,1.85,0,0,1,.62,1.16,1.6,1.6,0,0,1-.08.65,1.69,1.69,0,0,1-.3.6,1.77,1.77,0,0,1-1.15.61Z" transform="translate(-24.41 -29.7)"/><g class="cls-18"><path class="cls-8" d="M215.66,1093.05a1.81,1.81,0,0,1-.66-.07,1.9,1.9,0,0,1-.6-.31,1.6,1.6,0,0,1-.41-.52,1.55,1.55,0,0,1-.2-.63,1.75,1.75,0,0,1,.37-1.25,2.09,2.09,0,0,1,.52-.42,1.74,1.74,0,0,1,1.89.18,1.77,1.77,0,0,1,.61,1.15,1.83,1.83,0,0,1-.37,1.25,1.8,1.8,0,0,1-1.15.62Z" transform="translate(-24.41 -29.7)"/><g class="cls-18"><path class="cls-8" d="M228.21,1098.64a1.84,1.84,0,0,1-.66-.07,2.19,2.19,0,0,1-.59-.3,2,2,0,0,1-.42-.53,1.66,1.66,0,0,1-.2-.63,1.82,1.82,0,0,1,.37-1.25,1.76,1.76,0,0,1,.53-.41,1.72,1.72,0,0,1,1.88.17,1.77,1.77,0,0,1,.61,1.15,1.62,1.62,0,0,1-.07.66,1.69,1.69,0,0,1-.3.6,1.77,1.77,0,0,1-1.15.61Z" transform="translate(-24.41 -29.7)"/></g></g></g></g></g></g></g></g></g><path class="cls-9" d="M195.71,1149.82a1.78,1.78,0,1,1-2-1.6,1.79,1.79,0,0,1,2,1.6Z" transform="translate(-24.41 -29.7)"/><path class="cls-9" d="M205.36,1143.69a1.78,1.78,0,1,1-2-1.6,1.78,1.78,0,0,1,2,1.6Z" transform="translate(-24.41 -29.7)"/><path class="cls-9" d="M197.59,1134.28a1.78,1.78,0,1,1-2-1.59,1.79,1.79,0,0,1,2,1.59Z" transform="translate(-24.41 -29.7)"/><path class="cls-9" d="M217.25,1091.17a1.78,1.78,0,1,1-1.95-1.6,1.78,1.78,0,0,1,1.95,1.6Z" transform="translate(-24.41 -29.7)"/><path class="cls-9" d="M224,1107.76a6.93,6.93,0,1,1-7.59-6.21,6.94,6.94,0,0,1,7.59,6.21Z" transform="translate(-24.41 -29.7)"/><path class="cls-9" d="M219.38,1128.75a5.24,5.24,0,1,1-5.73-4.69,5.24,5.24,0,0,1,5.73,4.69Z" transform="translate(-24.41 -29.7)"/><path class="cls-9" d="M229.84,1096.74a1.78,1.78,0,1,1-2-1.59,1.79,1.79,0,0,1,2,1.59Z" transform="translate(-24.41 -29.7)"/><path class="cls-12" d="M282.07,476.45c3.16-1.82,7.74-.94,11.57-.41s7.56,2.24,11.44,3.54,9.48,3.05,11.88,4.25,2.3,1.83,2.54,2.92-.06.55-1.13,3.59-3.8,11.76-5.29,14.63-1.85,2.54-3.66,2.6-7.4-3.53-7.17-2.25,7.49,6.09,8.54,9.95-.46,8.87-2.29,13.2-4.88,10.57-8.71,12.83-11.66.85-14.3.71c2.74,3,7.19,6.5,8,10.29s-1.79,8.41-3.31,12.47a61.43,61.43,0,0,1-5.82,11.85,9.91,9.91,0,0,1-5.55,4.2c-1.87.58-3.39.23-6.55-.18s-8.94-2.59-12.65-3.71c-4.33-2.15-11-3-13.41-4.87s-1.52-2.11-1.11-4.63,2.49-7.68,3.55-10.48a38.17,38.17,0,0,1,2.82-6.55c.89-1.35,1.07-1.58,2.55-1.54s6.08,2.36,6.32,1.79-3.57-3.39-4.88-5.18A12.66,12.66,0,0,1,252.7,533a54.09,54.09,0,0,1,3.69-8.63c1.24-2.56,1.83-5.05,3.7-6.7s5.09-2.59,7.56-3.21,6.25-.13,7.25-.51-.36-.53-1.26-1.76-3.47-3.33-4.17-5.61a14,14,0,0,1-.06-8.11,54.89,54.89,0,0,1,5.25-11.5c2.11-3.67,4.25-8.68,7.41-10.49Z" transform="translate(-24.41 -29.7)"/><path class="cls-13" d="M251.06,567.09c6.44,2.91,14.06,4.93,16.31,5.83s8.2,1,11.88-1.18c-1.07-2.94-4.56-8.45-6.43-9.68-3.92-2.69-10.88-4.43-17.11-6.5-2.76,5.9,0,0-4.65,11.53Z" transform="translate(-24.41 -29.7)"/><path class="cls-13" d="M311.7,488.94a107.62,107.62,0,0,0-16.48-6.12c-5-1.38-8.6-1.29-12.51,1.76,1.07,2.93,4.93,7.45,7.23,9.38,4.75,1.81,11.22,4,17.45,6.11,2.76-5.9.32-.16,4.31-11.13Z" transform="translate(-24.41 -29.7)"/><path class="cls-13" d="M282.64,564.84c-1,.86,1.6.13-2-3.63s-15.9-14.74-19.61-19-2.79-3.77-2.66-6.33,2.92-7.07,3.43-9.06-1,.23,2.38,3.6,14,13.1,17.63,16.66,3.22,3.25,4,4.74,1.23,2.13.79,4.17-3,7.94-4,8.8Z" transform="translate(-24.41 -29.7)"/><path class="cls-13" d="M300.28,529.71c-1,.66,1.58,0-2-3.63s-15.71-14.17-19.49-18.44-3.37-4.46-3.18-7.19,3.28-8.34,4.32-9.2-1.44.68,1.89,4.09,14.42,12.85,18.05,16.4,2.95,3.42,3.75,4.91a7,7,0,0,1,.59,5.45c-.68,1.67-2.94,6.95-3.93,7.61Z" transform="translate(-24.41 -29.7)"/><path class="cls-13" d="M265.42,522c.1,2,7,8,10.42,10.17s6.5,2.62,10,3.06,10.86,1.41,11-.44-6.81-8.15-10.31-10.62a23.85,23.85,0,0,0-11.24-3.86c-3.52-.36-9.93-.29-9.84,1.69Z" transform="translate(-24.41 -29.7)"/><path class="cls-12" d="M44.92,356.9c.83-3.09,4.21-5.37,6.9-7.41s6.07-3.29,9.27-4.89,7.75-4,10-4.71,2.56-.29,3.37.23.31.38,1.53,2.92,4.92,9.63,5.77,12.33.43,2.71-.65,3.87-6.77,2.39-5.83,3,8.4-.87,11.43.88,5.2,5.76,6.75,9.58S97,382.29,96,386.06s-6.68,7.74-8.41,9.28c3.55.15,8.47-.43,11.3,1.44s4.09,6.31,5.66,9.76a54,54,0,0,1,3.73,10.92,8.65,8.65,0,0,1-.84,6c-.8,1.52-2,2.25-4.16,3.94s-7.14,3.93-10.12,5.54c-4,1.34-8.65,4.93-11.31,5.28s-2.24-.38-3.55-2.19-3.2-6.29-4.28-8.67a33.81,33.81,0,0,1-2.31-5.8c-.28-1.38-.31-1.64.63-2.53s5.22-2.3,5-2.8-4.31.11-6.23-.19a13,13,0,0,1-5.28-1.6A13,13,0,0,1,61.7,410a47.31,47.31,0,0,1-3.05-7.62c-.82-2.34-2-4.25-1.85-6.43s1.54-4.75,2.68-6.66,3.79-3.94,4.17-4.8-.54-.11-1.86-.31-4.2.09-6-.89a12.33,12.33,0,0,1-5.05-5A48,48,0,0,1,46.82,368c-1-3.57-2.73-8-1.9-11.07Z" transform="translate(-24.41 -29.7)"/><path class="cls-13" d="M81.78,432.15c5.79-2.19,11.75-5.65,13.7-6.49a14.78,14.78,0,0,0,6.62-8.07c-2.48-1.16-8-2.41-10-2-4.1.76-9.48,4-14.61,6.56,1.94,5.35,0,0,4.25,10Z" transform="translate(-24.41 -29.7)"/><path class="cls-13" d="M71,346.3a94.41,94.41,0,0,0-14,6.41c-4,2.26-6.12,4.52-6.66,8.82,2.48,1.15,7.66,1.56,10.28,1.33,4.06-1.81,9.43-4.44,14.57-7-1.94-5.36.1-.3-4.21-9.55Z" transform="translate(-24.41 -29.7)"/><path class="cls-13" d="M99.93,411.23c-.08,1.15,1.07-.91-3.49-1s-18.94.71-23.84.4S68.54,410,67,408.35s-2.55-6.18-3.47-7.73-.45.74,3.7.76,16.77-.57,21.2-.6,4,0,5.42.44a4.21,4.21,0,0,1,3.07,2.1c1,1.54,3.06,6.76,3,7.91Z" transform="translate(-24.41 -29.7)"/><path class="cls-13" d="M89.12,378.59c-.2,1,1-.95-3.48-1s-18.48.94-23.46.64-4.84-.67-6.41-2.48-3.13-7.19-3-8.36-.47,1.3,3.7,1.36,16.87-1,21.31-1,3.93.3,5.35.72a6.2,6.2,0,0,1,3.74,3c.61,1.45,2.47,6.12,2.27,7.14Z" transform="translate(-24.41 -29.7)"/><path class="cls-13" d="M62.77,395.35c1.28,1.16,9.26.59,12.73-.15s5.65-2.39,8.08-4.28,7.59-5.85,6.52-7.06-9.26-.84-12.95-.2a20.86,20.86,0,0,0-9.34,4.57c-2.4,1.94-6.32,6-5,7.12Z" transform="translate(-24.41 -29.7)"/></g></g></svg>