<svg xmlns="http://www.w3.org/2000/svg" xmlns:xlink="http://www.w3.org/1999/xlink" viewBox="0 0 315.48 1694.27"><defs><style>.cls-1,.cls-2,.cls-5{fill:none;}.cls-1{clip-rule:evenodd;}.cls-12,.cls-13,.cls-2,.cls-3,.cls-4,.cls-7,.cls-8,.cls-9{fill-rule:evenodd;}.cls-3{fill:#fff;}.cls-4{fill:#e9bd9a;}.cls-5{stroke:#1d1e1c;stroke-miterlimit:8;stroke-width:3px;}.cls-6{clip-path:url(#clip-path);}.cls-7{fill:#f3a28d;}.cls-8{fill:#159f84;opacity:0.57;}.cls-9{fill:#bc8380;}.cls-10{clip-path:url(#clip-path-10);}.cls-11{clip-path:url(#clip-path-19);}.cls-13{fill:#efa289;}.cls-14{clip-path:url(#clip-path-28);}.cls-15{clip-path:url(#clip-path-37);}.cls-16{clip-path:url(#clip-path-46);}.cls-17{clip-path:url(#clip-path-55);}.cls-18{clip-path:url(#clip-path-64);}</style><clipPath id="clip-path" transform="translate(-1.68 -2.22)"><polygon class="cls-1" points="147.04 272.77 37.71 235.92 0 347.78 109.33 384.64 147.04 272.77 147.04 272.77"/></clipPath><clipPath id="clip-path-10" transform="translate(-1.68 -2.22)"><polygon class="cls-1" points="317.04 123.78 207.71 86.92 170 198.78 279.33 235.64 317.04 123.78 317.04 123.78"/></clipPath><clipPath id="clip-path-19" transform="translate(-1.68 -2.22)"><polygon class="cls-1" points="67.61 7.96 75.39 78.23 147.3 70.28 139.52 0 67.61 7.96 67.61 7.96"/></clipPath><clipPath id="clip-path-28" transform="translate(-1.68 -2.22)"><polygon class="cls-1" points="1.4 1378.31 84.42 1443.54 151.16 1358.6 68.14 1293.37 1.4 1378.31 1.4 1378.31"/></clipPath><clipPath id="clip-path-37" transform="translate(-1.68 -2.22)"><polygon class="cls-1" points="234.48 658.42 300.44 575.97 216.08 508.49 150.13 590.93 234.48 658.42 234.48 658.42"/></clipPath><clipPath id="clip-path-46" transform="translate(-1.68 -2.22)"><polygon class="cls-1" points="4.84 1039.16 106.48 1067.74 135.72 963.74 34.08 935.17 4.84 1039.16 4.84 1039.16"/></clipPath><clipPath id="clip-path-55" transform="translate(-1.68 -2.22)"><polygon class="cls-1" points="212.5 1589.29 202.37 1694.24 310.69 1704.69 320.81 1599.73 212.5 1589.29 212.5 1589.29"/></clipPath><clipPath id="clip-path-64" transform="translate(-1.68 -2.22)"><polygon class="cls-1" points="271.61 1271.89 258.09 1167.18 150.95 1181.01 164.47 1285.72 271.61 1271.89 271.61 1271.89"/></clipPath></defs><g id="Слой_2" data-name="Слой 2"><g id="Слой_1-2" data-name="Слой 1"><path class="cls-3" d="M117.19,353A30.39,30.39,0,0,1,81.6,372.41a29.3,29.3,0,0,1-18.22-13.49A30.71,30.71,0,0,1,60,335.42c2.74-10.78-3.87-22.05-18.61-31.72a30.38,30.38,0,0,1-11.56-36.18,31.73,31.73,0,0,1,3-6A30.47,30.47,0,0,1,52.2,247.92a29.17,29.17,0,0,1,22.31,4.13c54.48,35.75,47.2,83.9,43.67,97.81a29.26,29.26,0,0,1-1,3.18Z" transform="translate(-1.68 -2.22)"/><path class="cls-4" d="M117.19,353A30.39,30.39,0,0,1,81.6,372.41a29.3,29.3,0,0,1-18.22-13.49A30.71,30.71,0,0,1,60,335.42c2.74-10.78-3.87-22.05-18.61-31.72a30.38,30.38,0,0,1-11.56-36.18,31.73,31.73,0,0,1,3-6A30.47,30.47,0,0,1,52.2,247.92a29.17,29.17,0,0,1,22.31,4.13c54.48,35.75,47.2,83.9,43.67,97.81a29.26,29.26,0,0,1-1,3.18Z" transform="translate(-1.68 -2.22)"/><path class="cls-5" d="M117.19,353A30.39,30.39,0,0,1,81.6,372.41a29.3,29.3,0,0,1-18.22-13.49A30.71,30.71,0,0,1,60,335.42c2.74-10.78-3.87-22.05-18.61-31.72a30.38,30.38,0,0,1-11.56-36.18,31.73,31.73,0,0,1,3-6A30.47,30.47,0,0,1,52.2,247.92a29.17,29.17,0,0,1,22.31,4.13c54.48,35.75,47.2,83.9,43.67,97.81a29.26,29.26,0,0,1-1,3.18Z" transform="translate(-1.68 -2.22)"/><g class="cls-6"><path class="cls-7" d="M107.13,348.52a20.17,20.17,0,0,1-23.56,13,19.13,19.13,0,0,1-11.9-8.83A20.49,20.49,0,0,1,69.44,337c2.14-8.46,2.14-25-22-40.84A20.45,20.45,0,0,1,39.89,272a21.22,21.22,0,0,1,2-4,20.35,20.35,0,0,1,12.9-9.08,19.06,19.06,0,0,1,14.57,2.7c47.68,31.29,41.47,72.79,38.43,84.76a20.72,20.72,0,0,1-.67,2.16Z" transform="translate(-1.68 -2.22)"/><g class="cls-6"><path class="cls-8" d="M69.14,278.86a7.45,7.45,0,1,1-9.57,4.41,7.45,7.45,0,0,1,9.57-4.41Z" transform="translate(-1.68 -2.22)"/><g class="cls-6"><path class="cls-9" d="M89.07,337.84a5.59,5.59,0,1,1-7.18,3.31,5.59,5.59,0,0,1,7.18-3.31Z" transform="translate(-1.68 -2.22)"/><g class="cls-6"><path class="cls-8" d="M87.53,293.59a5.59,5.59,0,1,1-7.18,3.3,5.58,5.58,0,0,1,7.18-3.3Z" transform="translate(-1.68 -2.22)"/><g class="cls-6"><path class="cls-8" d="M83.74,320a1.91,1.91,0,0,1-.39.62,2.28,2.28,0,0,1-.58.44,1.92,1.92,0,0,1-.71.15,1.81,1.81,0,0,1-1.77-1.07,2.44,2.44,0,0,1-.16-.71,1.91,1.91,0,0,1,1.08-1.77,2,2,0,0,1,1.42-.05,1.91,1.91,0,0,1,.62.39,1.94,1.94,0,0,1,.44.58,2,2,0,0,1,0,1.42Z" transform="translate(-1.68 -2.22)"/><g class="cls-6"><path class="cls-8" d="M98.18,329.29a1.78,1.78,0,0,1-.38.61,2.07,2.07,0,0,1-.58.44,2,2,0,0,1-.71.16,1.85,1.85,0,0,1-1.77-1.08,2.1,2.1,0,0,1-.16-.71,1.92,1.92,0,0,1,1.07-1.77,2,2,0,0,1,1.43-.05,1.77,1.77,0,0,1,.61.39,1.82,1.82,0,0,1,.45.58,2,2,0,0,1,0,1.43Z" transform="translate(-1.68 -2.22)"/><g class="cls-6"><path class="cls-8" d="M96.81,316.87a2.15,2.15,0,0,1-.38.61,2.22,2.22,0,0,1-.58.44,1.79,1.79,0,0,1-.72.15,1.73,1.73,0,0,1-.71-.1,2,2,0,0,1-1.06-1,2.09,2.09,0,0,1-.15-.71,1.92,1.92,0,0,1,1.07-1.77,2,2,0,0,1,1.43,0,1.87,1.87,0,0,1,.61.39,1.94,1.94,0,0,1,.44.58,2,2,0,0,1,0,1.43Z" transform="translate(-1.68 -2.22)"/><g class="cls-6"><path class="cls-8" d="M50.83,280a2.07,2.07,0,0,1-.38.62,2.77,2.77,0,0,1-.58.44,2,2,0,0,1-.72.15,1.91,1.91,0,0,1-.71-.1,2,2,0,0,1-1-1,2,2,0,0,1-.16-.71,1.92,1.92,0,0,1,1.07-1.77,2,2,0,0,1,1.43-.05,1.87,1.87,0,0,1,.61.39,1.94,1.94,0,0,1,.44.58,1.89,1.89,0,0,1,0,1.42Z" transform="translate(-1.68 -2.22)"/><g class="cls-6"><path class="cls-8" d="M62.34,270.39A1.87,1.87,0,0,1,62,271a2.07,2.07,0,0,1-.58.44,1.93,1.93,0,0,1-.71.16,2,2,0,0,1-.72-.11,1.94,1.94,0,0,1-1-1,2.51,2.51,0,0,1-.16-.72,1.85,1.85,0,0,1,2.5-1.81,1.73,1.73,0,0,1,.62.38,2.07,2.07,0,0,1,.44.58,2,2,0,0,1,.05,1.43Z" transform="translate(-1.68 -2.22)"/></g></g></g></g></g></g></g></g></g><path class="cls-9" d="M97.05,326.82a2,2,0,1,1-2.5,1.16,2,2,0,0,1,2.5-1.16Z" transform="translate(-1.68 -2.22)"/><path class="cls-9" d="M95.65,314.4a2,2,0,1,1-2.51,1.16,2,2,0,0,1,2.51-1.16Z" transform="translate(-1.68 -2.22)"/><path class="cls-9" d="M82.69,317.53a2,2,0,1,1-1.35,3.66,2,2,0,0,1,1.35-3.66Z" transform="translate(-1.68 -2.22)"/><path class="cls-9" d="M49.75,277.57a2,2,0,1,1-2.51,1.16,2,2,0,0,1,2.51-1.16Z" transform="translate(-1.68 -2.22)"/><path class="cls-9" d="M69.3,278.86a7.58,7.58,0,1,1-9.74,4.49,7.59,7.59,0,0,1,9.74-4.49Z" transform="translate(-1.68 -2.22)"/><path class="cls-9" d="M87.68,293.48a5.72,5.72,0,1,1-7.35,3.39,5.71,5.71,0,0,1,7.35-3.39Z" transform="translate(-1.68 -2.22)"/><path class="cls-9" d="M61.26,267.88A2,2,0,1,1,58.75,269a1.94,1.94,0,0,1,2.51-1.15Z" transform="translate(-1.68 -2.22)"/><path class="cls-3" d="M287.19,204a30.39,30.39,0,0,1-35.59,19.37,29.3,29.3,0,0,1-18.22-13.49,30.71,30.71,0,0,1-3.38-23.5c2.74-10.78-3.87-22-18.61-31.72a30.38,30.38,0,0,1-11.56-36.18,31.73,31.73,0,0,1,3-6A30.47,30.47,0,0,1,222.2,98.92a29.17,29.17,0,0,1,22.31,4.13c54.48,35.75,47.2,83.9,43.67,97.81a29.26,29.26,0,0,1-1,3.18Z" transform="translate(-1.68 -2.22)"/><path class="cls-4" d="M287.19,204a30.39,30.39,0,0,1-35.59,19.37,29.3,29.3,0,0,1-18.22-13.49,30.71,30.71,0,0,1-3.38-23.5c2.74-10.78-3.87-22-18.61-31.72a30.38,30.38,0,0,1-11.56-36.18,31.73,31.73,0,0,1,3-6A30.47,30.47,0,0,1,222.2,98.92a29.17,29.17,0,0,1,22.31,4.13c54.48,35.75,47.2,83.9,43.67,97.81a29.26,29.26,0,0,1-1,3.18Z" transform="translate(-1.68 -2.22)"/><path class="cls-5" d="M287.19,204a30.39,30.39,0,0,1-35.59,19.37,29.3,29.3,0,0,1-18.22-13.49,30.71,30.71,0,0,1-3.38-23.5c2.74-10.78-3.87-22-18.61-31.72a30.38,30.38,0,0,1-11.56-36.18,31.73,31.73,0,0,1,3-6A30.47,30.47,0,0,1,222.2,98.92a29.17,29.17,0,0,1,22.31,4.13c54.48,35.75,47.2,83.9,43.67,97.81a29.26,29.26,0,0,1-1,3.18Z" transform="translate(-1.68 -2.22)"/><g class="cls-10"><path class="cls-7" d="M277.13,199.52a20.17,20.17,0,0,1-23.56,13,19.13,19.13,0,0,1-11.9-8.83A20.49,20.49,0,0,1,239.44,188c2.14-8.46,2.14-25-22-40.84A20.45,20.45,0,0,1,209.89,123a21.22,21.22,0,0,1,2-4,20.35,20.35,0,0,1,12.9-9.08,19.06,19.06,0,0,1,14.57,2.7c47.68,31.29,41.47,72.79,38.43,84.76a20.72,20.72,0,0,1-.67,2.16Z" transform="translate(-1.68 -2.22)"/><g class="cls-10"><path class="cls-8" d="M239.14,129.86a7.45,7.45,0,1,1-9.57,4.41,7.45,7.45,0,0,1,9.57-4.41Z" transform="translate(-1.68 -2.22)"/><g class="cls-10"><path class="cls-9" d="M259.07,188.84a5.59,5.59,0,1,1-7.18,3.31,5.59,5.59,0,0,1,7.18-3.31Z" transform="translate(-1.68 -2.22)"/><g class="cls-10"><path class="cls-8" d="M257.53,144.59a5.59,5.59,0,1,1-7.18,3.3,5.58,5.58,0,0,1,7.18-3.3Z" transform="translate(-1.68 -2.22)"/><g class="cls-10"><path class="cls-8" d="M253.74,171a1.91,1.91,0,0,1-.39.62,2.28,2.28,0,0,1-.58.44,1.92,1.92,0,0,1-.71.15,1.81,1.81,0,0,1-1.77-1.07,2.44,2.44,0,0,1-.16-.71,1.91,1.91,0,0,1,1.08-1.77,2,2,0,0,1,1.42,0,1.91,1.91,0,0,1,.62.39,1.94,1.94,0,0,1,.44.58,2,2,0,0,1,.05,1.42Z" transform="translate(-1.68 -2.22)"/><g class="cls-10"><path class="cls-8" d="M268.18,180.29a1.78,1.78,0,0,1-.38.61,2.07,2.07,0,0,1-.58.44,2,2,0,0,1-.71.16,1.85,1.85,0,0,1-1.77-1.08,2.1,2.1,0,0,1-.16-.71,1.92,1.92,0,0,1,1.07-1.77,2,2,0,0,1,1.43-.05,1.77,1.77,0,0,1,.61.39,1.82,1.82,0,0,1,.45.58,2,2,0,0,1,0,1.43Z" transform="translate(-1.68 -2.22)"/><g class="cls-10"><path class="cls-8" d="M266.81,167.87a2.15,2.15,0,0,1-.38.61,2.22,2.22,0,0,1-.58.44,1.79,1.79,0,0,1-.72.15,1.73,1.73,0,0,1-.71-.1,2,2,0,0,1-1.06-1,2.09,2.09,0,0,1-.15-.71,1.92,1.92,0,0,1,1.07-1.77,2,2,0,0,1,1.43-.05,1.87,1.87,0,0,1,.61.39,1.94,1.94,0,0,1,.44.58,2,2,0,0,1,.05,1.43Z" transform="translate(-1.68 -2.22)"/><g class="cls-10"><path class="cls-8" d="M220.83,131a2.07,2.07,0,0,1-.38.62,2.77,2.77,0,0,1-.58.44,2,2,0,0,1-.72.15,1.91,1.91,0,0,1-.71-.1,2,2,0,0,1-1.05-1,2,2,0,0,1-.16-.71,1.92,1.92,0,0,1,1.07-1.77,2,2,0,0,1,1.43,0,1.87,1.87,0,0,1,.61.39,1.94,1.94,0,0,1,.44.58,1.89,1.89,0,0,1,.05,1.42Z" transform="translate(-1.68 -2.22)"/><g class="cls-10"><path class="cls-8" d="M232.34,121.39a1.87,1.87,0,0,1-.39.61,2.07,2.07,0,0,1-.58.44,1.93,1.93,0,0,1-.71.16,2,2,0,0,1-.72-.11,1.94,1.94,0,0,1-1.05-1,2.51,2.51,0,0,1-.16-.72,1.85,1.85,0,0,1,2.5-1.81,1.73,1.73,0,0,1,.62.38,2.07,2.07,0,0,1,.44.58,2,2,0,0,1,.05,1.43Z" transform="translate(-1.68 -2.22)"/></g></g></g></g></g></g></g></g></g><path class="cls-9" d="M267.05,177.82a2,2,0,1,1-2.5,1.16,2,2,0,0,1,2.5-1.16Z" transform="translate(-1.68 -2.22)"/><path class="cls-9" d="M265.65,165.4a2,2,0,1,1-2.51,1.16,2,2,0,0,1,2.51-1.16Z" transform="translate(-1.68 -2.22)"/><path class="cls-9" d="M252.69,168.53a2,2,0,1,1-1.35,3.66,2,2,0,0,1,1.35-3.66Z" transform="translate(-1.68 -2.22)"/><path class="cls-9" d="M219.75,128.57a2,2,0,1,1-2.51,1.16,2,2,0,0,1,2.51-1.16Z" transform="translate(-1.68 -2.22)"/><path class="cls-9" d="M239.3,129.86a7.58,7.58,0,1,1-9.74,4.49,7.59,7.59,0,0,1,9.74-4.49Z" transform="translate(-1.68 -2.22)"/><path class="cls-9" d="M257.68,144.48a5.72,5.72,0,1,1-7.35,3.39,5.71,5.71,0,0,1,7.35-3.39Z" transform="translate(-1.68 -2.22)"/><path class="cls-9" d="M231.26,118.88a2,2,0,1,1-2.51,1.15,1.94,1.94,0,0,1,2.51-1.15Z" transform="translate(-1.68 -2.22)"/><path class="cls-3" d="M119.93,3.8a18.62,18.62,0,0,1,20,14.77,17.92,17.92,0,0,1-2.79,13.61,18.75,18.75,0,0,1-12.18,8c-6.7,1.27-11.25,7.85-12.81,18.54A18.63,18.63,0,0,1,95,74.45a19.47,19.47,0,0,1-4.11-.11,18.63,18.63,0,0,1-12.57-7.26,17.88,17.88,0,0,1-3.46-13.46c5.78-39.51,34.41-47.91,43.06-49.55a19.59,19.59,0,0,1,2-.27Z" transform="translate(-1.68 -2.22)"/><path class="cls-4" d="M119.93,3.8a18.62,18.62,0,0,1,20,14.77,17.92,17.92,0,0,1-2.79,13.61,18.75,18.75,0,0,1-12.18,8c-6.7,1.27-11.25,7.85-12.81,18.54A18.63,18.63,0,0,1,95,74.45a19.47,19.47,0,0,1-4.11-.11,18.63,18.63,0,0,1-12.57-7.26,17.88,17.88,0,0,1-3.46-13.46c5.78-39.51,34.41-47.91,43.06-49.55a19.59,19.59,0,0,1,2-.27Z" transform="translate(-1.68 -2.22)"/><path class="cls-5" d="M119.93,3.8a18.62,18.62,0,0,1,20,14.77,17.92,17.92,0,0,1-2.79,13.61,18.75,18.75,0,0,1-12.18,8c-6.7,1.27-11.25,7.85-12.81,18.54A18.63,18.63,0,0,1,95,74.45a19.47,19.47,0,0,1-4.11-.11,18.63,18.63,0,0,1-12.57-7.26,17.88,17.88,0,0,1-3.46-13.46c5.78-39.51,34.41-47.91,43.06-49.55a19.59,19.59,0,0,1,2-.27Z" transform="translate(-1.68 -2.22)"/><g class="cls-11"><path class="cls-7" d="M120,10.56a12.35,12.35,0,0,1,13.29,9.74,11.71,11.71,0,0,1-1.83,8.89,12.54,12.54,0,0,1-8.15,5.3c-5.26,1-14.46,5.28-17,22.76A12.53,12.53,0,0,1,94.9,67.69a12.81,12.81,0,0,1-2.77-.07,12.44,12.44,0,0,1-8.38-4.82A11.7,11.7,0,0,1,81.48,54c5.06-34.58,29.73-41.86,37.17-43.27a12.52,12.52,0,0,1,1.37-.18Z" transform="translate(-1.68 -2.22)"/><g class="cls-11"><path class="cls-8" d="M91.13,49.67a4.57,4.57,0,1,1,4.92,4.18,4.56,4.56,0,0,1-4.92-4.18Z" transform="translate(-1.68 -2.22)"/><g class="cls-11"><path class="cls-9" d="M118.75,23.35a3.43,3.43,0,1,1,3.69,3.14,3.43,3.43,0,0,1-3.69-3.14Z" transform="translate(-1.68 -2.22)"/><g class="cls-11"><path class="cls-8" d="M94.56,35.65a3.43,3.43,0,1,1,3.69,3.13,3.43,3.43,0,0,1-3.69-3.13Z" transform="translate(-1.68 -2.22)"/><g class="cls-11"><path class="cls-8" d="M110.21,30.93a1.09,1.09,0,0,1,.44.06,1.23,1.23,0,0,1,.39.21,1,1,0,0,1,.27.35,1.08,1.08,0,0,1,.13.43,1.18,1.18,0,0,1-.26.83,1.54,1.54,0,0,1-.36.27,1.14,1.14,0,0,1-1.26-.14,1.19,1.19,0,0,1-.4-.78,1.12,1.12,0,0,1,.06-.44,1.06,1.06,0,0,1,.21-.39,1.19,1.19,0,0,1,.78-.4Z" transform="translate(-1.68 -2.22)"/><g class="cls-11"><path class="cls-8" d="M111.64,20.5a1.09,1.09,0,0,1,.44.06,1.16,1.16,0,0,1,.4.2,1.36,1.36,0,0,1,.27.36,1.06,1.06,0,0,1,.12.43,1.2,1.2,0,0,1-.26.83,1.22,1.22,0,0,1-.36.27,1.14,1.14,0,0,1-1.25-.14,1.19,1.19,0,0,1-.4-.78,1.3,1.3,0,0,1,.05-.44,1.33,1.33,0,0,1,.21-.39,1.19,1.19,0,0,1,.78-.4Z" transform="translate(-1.68 -2.22)"/><g class="cls-11"><path class="cls-8" d="M105.1,24.47a1.12,1.12,0,0,1,.44.06,1.47,1.47,0,0,1,.39.21,1.31,1.31,0,0,1,.27.35,1.33,1.33,0,0,1,.13.43,1.19,1.19,0,0,1-.27.83,1.31,1.31,0,0,1-.35.27,1.16,1.16,0,0,1-1.26-.13,1.21,1.21,0,0,1-.4-.78,1.09,1.09,0,0,1,.06-.44,1,1,0,0,1,.21-.4,1.23,1.23,0,0,1,.78-.4Z" transform="translate(-1.68 -2.22)"/><g class="cls-11"><path class="cls-8" d="M96.52,59.54a1.09,1.09,0,0,1,.44.06,1.11,1.11,0,0,1,.39.2,1,1,0,0,1,.27.36,1.08,1.08,0,0,1,.13.42,1.21,1.21,0,0,1-.26.84,1.36,1.36,0,0,1-.36.27,1.16,1.16,0,0,1-1.26-.14,1.22,1.22,0,0,1-.39-.78,1.09,1.09,0,0,1,0-.44,1.13,1.13,0,0,1,.21-.39,1.19,1.19,0,0,1,.78-.4Z" transform="translate(-1.68 -2.22)"/><g class="cls-11"><path class="cls-8" d="M88.18,55.64a1.09,1.09,0,0,1,.44.06,1.28,1.28,0,0,1,.4.21,1.31,1.31,0,0,1,.27.35,1.06,1.06,0,0,1,.12.43,1.18,1.18,0,0,1-.26.83,1.22,1.22,0,0,1-.36.27,1.14,1.14,0,0,1-1.26-.14,1.22,1.22,0,0,1-.39-.78,1.32,1.32,0,0,1,0-.44A1.47,1.47,0,0,1,87.4,56a1.19,1.19,0,0,1,.78-.4Z" transform="translate(-1.68 -2.22)"/></g></g></g></g></g></g></g></g></g><path class="cls-9" d="M110.57,21.77a1.19,1.19,0,0,1,2.38-.2,1.19,1.19,0,0,1-2.38.2Z" transform="translate(-1.68 -2.22)"/><path class="cls-9" d="M104,25.76a1.19,1.19,0,1,1,1.29,1.09A1.2,1.2,0,0,1,104,25.76Z" transform="translate(-1.68 -2.22)"/><path class="cls-9" d="M109.12,32.15a1.19,1.19,0,0,1,2.38-.2,1.19,1.19,0,0,1-2.38.2Z" transform="translate(-1.68 -2.22)"/><path class="cls-9" d="M95.43,60.78a1.18,1.18,0,0,1,1.09-1.29,1.19,1.19,0,1,1,.2,2.38,1.18,1.18,0,0,1-1.29-1.09Z" transform="translate(-1.68 -2.22)"/><path class="cls-9" d="M91.09,49.59a4.65,4.65,0,1,1,5,4.24,4.64,4.64,0,0,1-5-4.24Z" transform="translate(-1.68 -2.22)"/><path class="cls-9" d="M94.46,35.59a3.51,3.51,0,1,1,3.78,3.21,3.51,3.51,0,0,1-3.78-3.21Z" transform="translate(-1.68 -2.22)"/><path class="cls-9" d="M87.07,56.89a1.19,1.19,0,1,1,2.38-.19,1.19,1.19,0,1,1-2.38.19Z" transform="translate(-1.68 -2.22)"/><path class="cls-12" d="M95.75,132.6c.74,3.4-1.38,7.31-3,10.65s-4.22,6.24-6.52,9.4-5.5,7.74-7.28,9.59-2.34,1.57-3.39,1.47-.49-.21-2.95-2.06-9.61-6.84-11.8-9-1.78-2.42-1.31-4.08,5.35-5.72,4.11-5.88-7.7,5.07-11.51,4.91-7.94-3-11.37-5.88-8.22-7.48-9.17-11.63,2.59-10.86,3.48-13.22c-3.51,1.64-8,4.68-11.67,4.3s-7.14-4.06-10.39-6.61a59.09,59.09,0,0,1-9.12-8.7,9.44,9.44,0,0,1-2.22-6.27c0-1.87.75-3.15,2-5.91s4.94-7.4,7-10.45c3.2-3.33,5.89-9.14,8.3-10.81s2.36-.77,4.53.33S29.84,77.2,32.09,79a37.24,37.24,0,0,1,5.15,4.45c1,1.21,1.14,1.44.67,2.77S34,91,34.46,91.42s4.11-2.28,6.12-3a14.27,14.27,0,0,1,5.92-1.11,14.36,14.36,0,0,1,6.25,2.23,51.88,51.88,0,0,1,6.79,5.85c2,1.86,4.07,3.11,5,5.3s.89,5.37.75,7.8-1.68,5.72-1.62,6.74.58-.17,2-.64,4-2.19,6.31-2.18a13.46,13.46,0,0,1,7.4,2.28,53.2,53.2,0,0,1,9,8.09c2.73,3,6.68,6.37,7.42,9.77Z" transform="translate(-1.68 -2.22)"/><path class="cls-13" d="M22.15,78.27c-4.5,5-8.53,11.38-10,13.18s-3.22,7.19-2.34,11.16c3-.13,9-1.73,10.66-3.08,3.58-2.79,7.16-8.63,10.85-13.7-4.58-4.21,0,0-9.17-7.56Z" transform="translate(-1.68 -2.22)"/><path class="cls-13" d="M75.85,156a103.37,103.37,0,0,0,10.31-13.25c2.7-4.18,3.65-7.45,2-11.88-3,.12-8.2,2.34-10.62,3.87-3,3.8-6.9,9.06-10.59,14.13,4.58,4.22.06.34,8.9,7.13Z" transform="translate(-1.68 -2.22)"/><path class="cls-13" d="M15.11,107.67c-.5-1.15-.58,1.42,3.88-.77s18-10.23,22.9-12.4,4.23-1.46,6.53-.6,5.59,4.7,7.26,5.73.07-.94-4,1.13-16,9-20.24,11.26-3.88,2-5.47,2.3-2.29.5-4-.49-6.37-5-6.87-6.16Z" transform="translate(-1.68 -2.22)"/><path class="cls-13" d="M42,133.85c-.31-1.09-.49,1.42,3.89-.78s17.42-10.22,22.4-12.43,5-1.79,7.45-.83,6.66,5.39,7.13,6.58-.2-1.5-4.26.54-15.85,9.43-20.13,11.72-4,1.69-5.54,2a6.74,6.74,0,0,1-5.14-1c-1.32-1.09-5.48-4.67-5.8-5.76Z" transform="translate(-1.68 -2.22)"/><path class="cls-13" d="M59.1,104.34c-1.83-.48-9.27,4.1-12.26,6.56s-4.26,5.16-5.67,8.21-4.4,9.49-2.76,10.12,9.39-3.85,12.64-6.32a22.79,22.79,0,0,0,6.75-9.13c1.34-3.09,3.12-9,1.3-9.44Z" transform="translate(-1.68 -2.22)"/><path class="cls-12" d="M97.75,791.6c.74,3.4-1.38,7.31-3,10.65s-4.22,6.24-6.52,9.4-5.5,7.74-7.28,9.59-2.34,1.57-3.39,1.47-.49-.21-2.95-2.06-9.61-6.84-11.8-9-1.78-2.42-1.31-4.08,5.35-5.72,4.11-5.88-7.7,5.07-11.51,4.91-7.94-3-11.37-5.88-8.22-7.48-9.17-11.63,2.59-10.86,3.48-13.22c-3.51,1.64-8,4.68-11.67,4.3s-7.14-4.06-10.39-6.61a59.09,59.09,0,0,1-9.12-8.7,9.44,9.44,0,0,1-2.22-6.27c0-1.87.75-3.15,2-5.91s4.94-7.4,7-10.45c3.2-3.33,5.89-9.14,8.3-10.81s2.36-.77,4.53.33,6.27,4.48,8.52,6.24a37.24,37.24,0,0,1,5.15,4.45c1,1.21,1.14,1.44.67,2.77S36,750,36.46,750.42s4.11-2.28,6.12-2.95a14.27,14.27,0,0,1,5.92-1.11,14.36,14.36,0,0,1,6.25,2.23,51.88,51.88,0,0,1,6.79,5.85c2,1.86,4.07,3.11,5,5.3s.89,5.37.75,7.8-1.68,5.72-1.62,6.74.58-.17,2-.64,4-2.19,6.31-2.18a13.46,13.46,0,0,1,7.4,2.28,53.2,53.2,0,0,1,9,8.09c2.73,3,6.68,6.37,7.42,9.77Z" transform="translate(-1.68 -2.22)"/><path class="cls-13" d="M24.15,737.27c-4.5,5-8.53,11.38-10,13.18s-3.22,7.19-2.34,11.16c3-.13,9-1.73,10.66-3.08,3.58-2.79,7.16-8.63,10.85-13.7-4.58-4.21,0,0-9.17-7.56Z" transform="translate(-1.68 -2.22)"/><path class="cls-13" d="M77.85,815a103.37,103.37,0,0,0,10.31-13.25c2.7-4.18,3.65-7.45,2-11.88-3,.12-8.2,2.34-10.62,3.87-3,3.8-6.9,9.06-10.59,14.13,4.58,4.22.06.34,8.9,7.13Z" transform="translate(-1.68 -2.22)"/><path class="cls-13" d="M17.11,766.67c-.5-1.15-.58,1.42,3.88-.77s18-10.23,22.9-12.4,4.23-1.46,6.53-.6,5.59,4.7,7.26,5.73.07-.94-4,1.13-16,9-20.24,11.26-3.88,2-5.47,2.3-2.29.5-4-.49-6.37-5-6.87-6.16Z" transform="translate(-1.68 -2.22)"/><path class="cls-13" d="M44,792.85c-.31-1.09-.49,1.42,3.89-.78s17.42-10.22,22.4-12.43,5-1.79,7.45-.83,6.66,5.39,7.13,6.58-.2-1.5-4.26.54-15.85,9.43-20.13,11.72-4,1.69-5.54,2a6.74,6.74,0,0,1-5.14-1c-1.32-1.09-5.48-4.67-5.8-5.76Z" transform="translate(-1.68 -2.22)"/><path class="cls-13" d="M61.1,763.34c-1.83-.48-9.27,4.1-12.26,6.56s-4.26,5.16-5.67,8.21-4.4,9.49-2.76,10.12,9.39-3.85,12.64-6.32a22.79,22.79,0,0,0,6.75-9.13c1.34-3.09,3.12-9,1.3-9.44Z" transform="translate(-1.68 -2.22)"/><path class="cls-12" d="M260.75,1466.6c.74,3.4-1.38,7.31-3,10.65s-4.22,6.24-6.52,9.4-5.5,7.74-7.28,9.59-2.34,1.57-3.39,1.47-.49-.21-2.95-2.06-9.61-6.84-11.8-9-1.78-2.42-1.31-4.08,5.35-5.72,4.11-5.88-7.7,5.07-11.51,4.91-7.94-3-11.37-5.88-8.22-7.48-9.17-11.63,2.59-10.86,3.48-13.22c-3.51,1.64-8,4.68-11.67,4.3s-7.14-4.06-10.39-6.61a59.09,59.09,0,0,1-9.12-8.7,9.44,9.44,0,0,1-2.22-6.27c0-1.87.75-3.15,2-5.91s4.94-7.4,7-10.45c3.2-3.33,5.89-9.14,8.3-10.81s2.36-.77,4.53.33,6.27,4.48,8.52,6.24a37.24,37.24,0,0,1,5.15,4.45c1,1.21,1.14,1.44.67,2.77s-3.9,4.86-3.45,5.24,4.11-2.28,6.12-3a12.13,12.13,0,0,1,12.17,1.12,51.88,51.88,0,0,1,6.79,5.85c2,1.86,4.07,3.11,5,5.3s.89,5.37.75,7.8-1.68,5.72-1.62,6.74.58-.17,2-.64,4-2.19,6.31-2.18a13.46,13.46,0,0,1,7.4,2.28,53.2,53.2,0,0,1,9,8.09c2.73,3,6.68,6.37,7.42,9.77Z" transform="translate(-1.68 -2.22)"/><path class="cls-13" d="M187.15,1412.27c-4.5,5-8.53,11.38-10,13.18s-3.22,7.19-2.34,11.16c3-.13,9-1.73,10.66-3.08,3.58-2.79,7.16-8.63,10.85-13.7-4.58-4.21,0,0-9.17-7.56Z" transform="translate(-1.68 -2.22)"/><path class="cls-13" d="M240.85,1490a103.37,103.37,0,0,0,10.31-13.25c2.7-4.18,3.65-7.45,2-11.88-3,.12-8.2,2.34-10.62,3.87-3,3.8-6.9,9.06-10.59,14.13,4.58,4.22.06.34,8.9,7.13Z" transform="translate(-1.68 -2.22)"/><path class="cls-13" d="M180.11,1441.67c-.5-1.15-.58,1.42,3.88-.77s18-10.23,22.9-12.4,4.23-1.46,6.53-.6,5.59,4.7,7.26,5.73.07-.94-4,1.13-16,9-20.24,11.26-3.88,2-5.47,2.3-2.29.5-4-.49-6.37-5-6.87-6.16Z" transform="translate(-1.68 -2.22)"/><path class="cls-13" d="M207,1467.85c-.31-1.09-.49,1.42,3.89-.78s17.42-10.22,22.4-12.43,5-1.79,7.45-.83,6.66,5.39,7.13,6.58-.2-1.5-4.26.54-15.85,9.43-20.13,11.72-4,1.69-5.54,2a6.74,6.74,0,0,1-5.14-1c-1.32-1.09-5.48-4.67-5.8-5.76Z" transform="translate(-1.68 -2.22)"/><path class="cls-13" d="M224.1,1438.34c-1.83-.48-9.27,4.1-12.26,6.56s-4.26,5.16-5.67,8.21-4.4,9.49-2.76,10.12,9.39-3.85,12.64-6.32a22.79,22.79,0,0,0,6.75-9.13c1.34-3.09,3.12-9,1.3-9.44Z" transform="translate(-1.68 -2.22)"/><path class="cls-12" d="M264.26,786.21c-1.75,1.08-4.36.67-6.54.45a38.33,38.33,0,0,1-6.55-1.79c-2.22-.67-5.42-1.56-6.8-2.19s-1.34-1-1.49-1.6,0-.31.57-2.05,1.93-6.74,2.72-8.39,1-1.47,2-1.54,4.26,1.86,4.1,1.14-4.35-3.31-5-5.48.09-5,1-7.51,2.56-6.08,4.69-7.43,6.59-.7,8.08-.67c-1.61-1.64-4.19-3.54-4.7-5.68s.85-4.79,1.64-7.12a34.25,34.25,0,0,1,3.07-6.82,5.61,5.61,0,0,1,3.06-2.48c1-.37,1.92-.2,3.71,0a61.48,61.48,0,0,1,7.24,1.86c2.49,1.13,6.27,1.49,7.68,2.5s.9,1.17.72,2.61a46.25,46.25,0,0,1-1.81,6,22.69,22.69,0,0,1-1.48,3.76c-.48.78-.58.92-1.42.92s-3.48-1.22-3.61-.9,2.09,1.86,2.86,2.85a8.28,8.28,0,0,1,1.79,3.09,8.4,8.4,0,0,1,0,3.93,31.33,31.33,0,0,1-1.93,5c-.65,1.47-.94,2.89-2,3.86a10.92,10.92,0,0,1-4.22,2c-1.38.4-3.53.19-4.09.42s.21.3.74,1,2,1.82,2.47,3.1a8,8,0,0,1,.19,4.58,31.2,31.2,0,0,1-2.76,6.62c-1.12,2.11-2.24,5-4,6.08Z" transform="translate(-1.68 -2.22)"/><path class="cls-13" d="M280.12,734.3c-3.71-1.53-8.06-2.53-9.35-3a9.51,9.51,0,0,0-6.7.89c.65,1.65,2.74,4.7,3.82,5.36,2.27,1.45,6.24,2.3,9.81,3.36,1.45-3.39,0,0,2.42-6.62Z" transform="translate(-1.68 -2.22)"/><path class="cls-13" d="M247.25,779.69a60.19,60.19,0,0,0,9.45,3.15c2.87.69,4.89.57,7.05-1.22a16.74,16.74,0,0,0-4.27-5.18c-2.72-.94-6.43-2.07-10-3.13-1.45,3.39-.18.1-2.23,6.38Z" transform="translate(-1.68 -2.22)"/><path class="cls-13" d="M262.28,736.17c.55-.51-.91,0,1.2,2s9.27,8,11.46,10.36,1.65,2.08,1.62,3.53-1.52,4.06-1.77,5.19.54-.14-1.41-2-8.19-7.15-10.3-9.1-1.89-1.78-2.37-2.6a2.72,2.72,0,0,1-.52-2.35,17.56,17.56,0,0,1,2.09-5.06Z" transform="translate(-1.68 -2.22)"/><path class="cls-13" d="M253,756.39c.55-.39-.89,0,1.2,2s9.16,7.73,11.38,10.07,2,2.46,1.94,4a12.56,12.56,0,0,1-2.27,5.29c-.57.5.8-.41-1.15-2.28s-8.41-7-10.53-8.94-1.73-1.88-2.21-2.71a4,4,0,0,1-.44-3.08c.35-.95,1.53-4,2.08-4.38Z" transform="translate(-1.68 -2.22)"/><path class="cls-13" d="M272.83,760.12c-.09-1.12-4.12-4.38-6.09-5.56A12.11,12.11,0,0,0,261,753c-2-.18-6.18-.59-6.21.45s4,4.49,6,5.83a13.54,13.54,0,0,0,6.44,2c2,.14,5.62,0,5.53-1.14Z" transform="translate(-1.68 -2.22)"/><path class="cls-12" d="M40.26,1570.21c-1.75,1.08-4.36.67-6.54.45a38.33,38.33,0,0,1-6.55-1.79c-2.22-.67-5.42-1.56-6.8-2.19s-1.34-1-1.49-1.6,0-.31.57-2,1.93-6.74,2.72-8.39,1-1.47,2-1.54,4.26,1.86,4.1,1.14-4.35-3.31-5-5.48.09-5,1.05-7.51,2.56-6.08,4.69-7.43,6.59-.7,8.08-.67c-1.61-1.64-4.19-3.54-4.7-5.68s.85-4.79,1.64-7.12a34.25,34.25,0,0,1,3.07-6.82,5.61,5.61,0,0,1,3.06-2.48c1.05-.37,1.92-.2,3.71,0a61.48,61.48,0,0,1,7.24,1.86c2.49,1.13,6.27,1.49,7.68,2.5s.9,1.17.72,2.61a46.25,46.25,0,0,1-1.81,6,22.69,22.69,0,0,1-1.48,3.76c-.48.78-.58.92-1.42.92s-3.48-1.22-3.61-.9,2.09,1.86,2.86,2.85a8.28,8.28,0,0,1,1.79,3.09,8.4,8.4,0,0,1,0,3.93,31.33,31.33,0,0,1-1.93,5c-.65,1.47-.94,2.89-2,3.86a10.92,10.92,0,0,1-4.22,2c-1.38.4-3.53.19-4.09.42s.21.3.74,1,2,1.82,2.47,3.1a8,8,0,0,1,.19,4.58,31.2,31.2,0,0,1-2.76,6.62c-1.12,2.11-2.24,5-4,6.08Z" transform="translate(-1.68 -2.22)"/><path class="cls-13" d="M56.12,1518.3c-3.71-1.53-8.06-2.53-9.35-3a9.51,9.51,0,0,0-6.7.89c.65,1.65,2.74,4.7,3.82,5.36,2.27,1.45,6.24,2.3,9.81,3.36,1.45-3.39,0,0,2.42-6.62Z" transform="translate(-1.68 -2.22)"/><path class="cls-13" d="M23.25,1563.69a60.19,60.19,0,0,0,9.45,3.15c2.87.69,4.89.57,7-1.22a16.74,16.74,0,0,0-4.27-5.18c-2.72-.94-6.43-2.07-10-3.13-1.45,3.39-.18.1-2.23,6.38Z" transform="translate(-1.68 -2.22)"/><path class="cls-13" d="M38.28,1520.17c.55-.51-.91-.05,1.2,2s9.27,8,11.46,10.36,1.65,2.08,1.62,3.53-1.52,4.06-1.77,5.19.54-.14-1.41-2-8.19-7.15-10.3-9.1-1.89-1.78-2.37-2.6a2.72,2.72,0,0,1-.52-2.35,17.56,17.56,0,0,1,2.09-5.06Z" transform="translate(-1.68 -2.22)"/><path class="cls-13" d="M29,1540.39c.55-.39-.89,0,1.2,2s9.16,7.73,11.38,10.07,2,2.46,1.94,4a12.56,12.56,0,0,1-2.27,5.29c-.57.5.8-.41-1.15-2.28s-8.41-7-10.53-8.94-1.73-1.88-2.21-2.71a4,4,0,0,1-.44-3.08c.35-1,1.53-4,2.08-4.38Z" transform="translate(-1.68 -2.22)"/><path class="cls-13" d="M48.83,1544.12c-.09-1.12-4.12-4.38-6.09-5.56A12.11,12.11,0,0,0,37,1537c-2-.18-6.18-.59-6.21.45s4,4.49,6,5.83a13.54,13.54,0,0,0,6.44,2c2,.14,5.62,0,5.53-1.14Z" transform="translate(-1.68 -2.22)"/><path class="cls-12" d="M218.18,977c-1.34,2.56-4.76,3.92-7.54,5.21s-6,1.72-9.13,2.51-7.62,2-9.73,2.23-2.32-.24-2.94-.86-.19-.39-.77-2.87-2.48-9.46-2.71-12,.15-2.49,1.33-3.29,6.44-.8,5.74-1.56-7.59-.87-9.93-3-3.48-6.1-4.1-9.77-1.26-9.12.34-12.26,7.41-5.53,9.23-6.56c-3.11-.82-7.57-1.27-9.7-3.47s-2.39-6.36-3.1-9.71A48.54,48.54,0,0,1,174,911.2,7.78,7.78,0,0,1,175.9,906c1-1.19,2.16-1.61,4.44-2.68s7.07-2.08,10-2.92c3.8-.41,8.59-2.68,11-2.47s1.91.77,2.71,2.62a62,62,0,0,1,2.1,8.49,31,31,0,0,1,.91,5.57c0,1.28,0,1.52-1,2.12s-5.06,1-5,1.49,3.83.74,5.46,1.38a10,10,0,0,1,7.14,7.17,42.81,42.81,0,0,1,1.22,7.33c.26,2.23.93,4.14.38,6s-2.28,3.89-3.66,5.36S207.5,948.29,207,949s.46.21,1.59.64,3.73.74,5.17,2a11.07,11.07,0,0,1,3.49,5.38,43.62,43.62,0,0,1,1.41,9.91c.15,3.34.86,7.59-.47,10.14Z" transform="translate(-1.68 -2.22)"/><path class="cls-13" d="M200.23,903.37c-5.54.81-11.47,2.71-13.36,3.07a13.34,13.34,0,0,0-7.41,5.85c2,1.5,6.64,3.68,8.41,3.7,3.76.13,9.14-1.68,14.17-3-.67-5.11,0,0-1.81-9.67Z" transform="translate(-1.68 -2.22)"/><path class="cls-13" d="M193.11,981.3a86.69,86.69,0,0,0,13.59-2.95c3.94-1.23,6.28-2.81,7.59-6.5-2-1.5-6.46-2.87-8.82-3.17-3.93.81-9.2,2.09-14.23,3.36.67,5.11-.15.25,1.87,9.26Z" transform="translate(-1.68 -2.22)"/><path class="cls-13" d="M180.14,918.32c.29-1-1.12.6,2.88,1.57s16.87,3.05,21.14,4.28,3.47,1.32,4.47,3.09,1.06,6,1.57,7.49.55-.56-3.11-1.39-14.93-2.75-18.85-3.58-3.54-.8-4.7-1.44a3.76,3.76,0,0,1-2.3-2.45c-.58-1.56-1.4-6.57-1.1-7.57Z" transform="translate(-1.68 -2.22)"/><path class="cls-13" d="M183.35,949.25c.37-.86-1.07.65,2.88,1.57s16.51,2.75,20.85,4,4.14,1.53,5.18,3.43,1.37,7,1,8,.67-1.06-3-1.92-15.09-2.41-19-3.23-3.41-1-4.58-1.68A5.57,5.57,0,0,1,184,956c-.26-1.4-1-5.88-.62-6.75Z" transform="translate(-1.68 -2.22)"/><path class="cls-13" d="M209.88,939.57c-.91-1.28-8.07-2.32-11.28-2.35s-5.45,1-8,2.22-7.84,3.69-7.13,5,8,2.53,11.39,2.69a18.9,18.9,0,0,0,9.14-2.22c2.5-1.26,6.74-4,5.84-5.31Z" transform="translate(-1.68 -2.22)"/><path class="cls-12" d="M58.7,1170.75c.81,1.8.08,4.22-.41,6.25a35.59,35.59,0,0,1-2.53,6c-.91,2-2.16,4.93-2.93,6.16s-1.11,1.14-1.71,1.21-.29-.06-1.87-.8-6.12-2.69-7.59-3.65-1.27-1.13-1.2-2.11,2.31-3.79,1.6-3.74-3.68,3.71-5.82,4.06-4.74-.73-7-1.95-5.42-3.2-6.43-5.39.18-6.32.4-7.73c-1.76,1.31-3.89,3.52-6,3.73s-4.43-1.42-6.53-2.46a33.5,33.5,0,0,1-6.06-3.78,5.4,5.4,0,0,1-2-3.21c-.21-1,.06-1.84.45-3.52a60.24,60.24,0,0,1,2.69-6.61c1.39-2.21,2.21-5.75,3.35-7s1.22-.7,2.55-.34a42.26,42.26,0,0,1,5.45,2.47,20.68,20.68,0,0,1,3.37,1.88c.68.55.8.66.69,1.46s-1.6,3.14-1.31,3.3,2-1.74,3.06-2.35a8.19,8.19,0,0,1,3.16-1.3,8.14,8.14,0,0,1,3.72.52,30,30,0,0,1,4.44,2.46c1.31.8,2.62,1.26,3.4,2.35a10.38,10.38,0,0,1,1.32,4.24c.2,1.37-.27,3.38-.12,3.93s.3-.16,1-.58,2-1.68,3.24-1.94a7.7,7.7,0,0,1,4.37.41,30.52,30.52,0,0,1,5.91,3.45c1.86,1.34,4.43,2.76,5.24,4.56Z" transform="translate(-1.68 -2.22)"/><path class="cls-13" d="M11.6,1149.13c-1.92,3.31-3.42,7.3-4,8.47a9.08,9.08,0,0,0,0,6.45c1.64-.41,4.79-2,5.55-2.93,1.67-2,3-5.62,4.43-8.86-3-1.81,0,0-6-3.13Z" transform="translate(-1.68 -2.22)"/><path class="cls-13" d="M50.37,1186a57.38,57.38,0,0,0,4.18-8.54c1-2.63,1.17-4.55-.26-6.82a15.82,15.82,0,0,0-5.44,3.38c-1.24,2.45-2.78,5.82-4.24,9.06,3,1.8.07.18,5.76,2.92Z" transform="translate(-1.68 -2.22)"/><path class="cls-13" d="M11.09,1166.25c-.41-.58-.16.86,2.07-.88s8.79-7.75,11.26-9.52,2.18-1.3,3.56-1.09,3.64,2,4.68,2.34-.07-.53-2.07,1.08-7.81,6.84-9.92,8.59-1.92,1.56-2.77,1.91a2.58,2.58,0,0,1-2.29.19,16.92,16.92,0,0,1-4.52-2.62Z" transform="translate(-1.68 -2.22)"/><path class="cls-13" d="M29,1177.66c-.3-.57-.11.85,2.07-.88s8.48-7.69,11-9.49,2.58-1.57,4-1.32a12.05,12.05,0,0,1,4.72,2.82c.4.61-.29-.81-2.31.8s-7.7,7.06-9.8,8.83-2,1.39-2.85,1.74a3.74,3.74,0,0,1-3,0c-.86-.45-3.58-2-3.88-2.52Z" transform="translate(-1.68 -2.22)"/><path class="cls-13" d="M35.1,1159.32c-1.06-.06-4.66,3.34-6,5a11.72,11.72,0,0,0-2.19,5.21c-.42,1.86-1.35,5.77-.36,5.93s4.76-3.22,6.28-5a13,13,0,0,0,2.69-5.85c.38-1.87.69-5.33-.38-5.38Z" transform="translate(-1.68 -2.22)"/><path class="cls-12" d="M75.52,1648.58c-2,.21-4-1.23-5.81-2.33a35.1,35.1,0,0,1-4.89-4.26c-1.64-1.49-4-3.58-4.94-4.7s-.74-1.41-.62-2,.15-.26,1.34-1.53,4.46-5,5.83-6.08,1.47-.85,2.38-.49,2.88,3.37,3,2.69-2.37-4.66-2-6.79,2.16-4.29,4-6,4.73-4.17,7.12-4.44,6,2.13,7.23,2.78c-.71-2.08-2.14-4.79-1.69-6.84s2.72-3.77,4.36-5.44a33.62,33.62,0,0,1,5.47-4.59,5.37,5.37,0,0,1,3.67-.86c1.06.12,1.73.62,3.2,1.52a58,58,0,0,1,5.45,4.61c1.67,2,4.78,3.89,5.57,5.34s.28,1.38-.47,2.54a41.55,41.55,0,0,1-4,4.4,20.14,20.14,0,0,1-2.83,2.62c-.73.48-.87.55-1.6.21s-2.49-2.5-2.73-2.27,1,2.46,1.28,3.63a6.89,6.89,0,0,1-1.39,6.78,29.34,29.34,0,0,1-3.72,3.46c-1.17,1-2,2.1-3.3,2.5A10.4,10.4,0,0,1,91,1633c-1.35-.24-3.12-1.31-3.69-1.34s0,.34.23,1.15,1,2.4.84,3.69a7.58,7.58,0,0,1-1.75,4,29.7,29.7,0,0,1-5.11,4.54c-1.85,1.36-4,3.36-6,3.57Z" transform="translate(-1.68 -2.22)"/><path class="cls-13" d="M110.71,1610.53c-2.55-2.85-5.87-5.52-6.79-6.45a9.13,9.13,0,0,0-6.14-2c-.12,1.69.41,5.18,1.06,6.19,1.36,2.2,4.42,4.58,7,7,2.65-2.32,0,0,4.82-4.69Z" transform="translate(-1.68 -2.22)"/><path class="cls-13" d="M63.6,1635.91a59.1,59.1,0,0,0,6.81,6.64c2.19,1.78,4,2.52,6.57,1.87a15.91,15.91,0,0,0-1.52-6.23c-1.95-1.93-4.67-4.45-7.29-6.84-2.66,2.31-.2,0-4.57,4.56Z" transform="translate(-1.68 -2.22)"/><path class="cls-13" d="M94.6,1604.73c.68-.21-.77-.42.19,2.23s4.64,10.77,5.55,13.67.56,2.48-.07,3.72-3,2.85-3.68,3.72.52.1-.39-2.3-4.07-9.55-5.07-12.1-.89-2.31-1-3.22a2.58,2.58,0,0,1,.53-2.24,16.8,16.8,0,0,1,3.9-3.48Z" transform="translate(-1.68 -2.22)"/><path class="cls-13" d="M78.18,1618.24c.63-.11-.77-.37.19,2.24s4.67,10.45,5.6,13.39.7,2.94,0,4.25a12,12,0,0,1-4.15,3.6c-.7.2.85,0,0-2.43s-4.32-9.52-5.34-12.07-.7-2.33-.77-3.24a3.76,3.76,0,0,1,.9-2.83c.7-.68,3-2.8,3.61-2.91Z" transform="translate(-1.68 -2.22)"/><path class="cls-13" d="M93.72,1629.71c.39-1-1.72-5.48-2.92-7.32a11.68,11.68,0,0,0-4.27-3.7c-1.64-1-5.07-3.07-5.53-2.19s1.58,5.53,2.77,7.52a13,13,0,0,0,4.72,4.37c1.66.94,4.85,2.31,5.23,1.32Z" transform="translate(-1.68 -2.22)"/><path class="cls-3" d="M51.7,1318.21a27.8,27.8,0,0,1,36.62-5.81,26.77,26.77,0,0,1,11.59,17.2,28.06,28.06,0,0,1-4.28,21.3c-5.65,8.47-3.4,20.2,6.35,33a27.79,27.79,0,0,1-1.1,34.74,28.8,28.8,0,0,1-4.41,4.28,27.91,27.91,0,0,1-20.88,5.79,26.71,26.71,0,0,1-18-10.39c-36-47.5-15-86.8-7.75-97.72.57-.84,1.18-1.66,1.83-2.44Z" transform="translate(-1.68 -2.22)"/><path class="cls-4" d="M51.7,1318.21a27.8,27.8,0,0,1,36.62-5.81,26.77,26.77,0,0,1,11.59,17.2,28.06,28.06,0,0,1-4.28,21.3c-5.65,8.47-3.4,20.2,6.35,33a27.79,27.79,0,0,1-1.1,34.74,28.8,28.8,0,0,1-4.41,4.28,27.91,27.91,0,0,1-20.88,5.79,26.71,26.71,0,0,1-18-10.39c-36-47.5-15-86.8-7.75-97.72.57-.84,1.18-1.66,1.83-2.44Z" transform="translate(-1.68 -2.22)"/><path class="cls-5" d="M51.7,1318.21a27.8,27.8,0,0,1,36.62-5.81,26.77,26.77,0,0,1,11.59,17.2,28.06,28.06,0,0,1-4.28,21.3c-5.65,8.47-3.4,20.2,6.35,33a27.79,27.79,0,0,1-1.1,34.74,28.8,28.8,0,0,1-4.41,4.28,27.91,27.91,0,0,1-20.88,5.79,26.71,26.71,0,0,1-18-10.39c-36-47.5-15-86.8-7.75-97.72.57-.84,1.18-1.66,1.83-2.44Z" transform="translate(-1.68 -2.22)"/><g class="cls-14"><path class="cls-7" d="M59,1325.19a18.46,18.46,0,0,1,24.29-4,17.51,17.51,0,0,1,7.56,11.25A18.79,18.79,0,0,1,88,1346.7c-4.44,6.64-9.5,20.92,6.45,41.94a18.69,18.69,0,0,1-.82,23.08,19.86,19.86,0,0,1-3,2.89,18.6,18.6,0,0,1-13.9,3.88A17.46,17.46,0,0,1,65,1411.71c-31.55-41.58-13.5-75.47-7.22-84.87.39-.57.8-1.12,1.24-1.65Z" transform="translate(-1.68 -2.22)"/><g class="cls-14"><path class="cls-8" d="M70.45,1396.89a6.82,6.82,0,1,1,9.6-.87,6.81,6.81,0,0,1-9.6.87Z" transform="translate(-1.68 -2.22)"/><g class="cls-14"><path class="cls-9" d="M71.3,1339.93a5.11,5.11,0,1,1,7.2-.66,5.12,5.12,0,0,1-7.2.66Z" transform="translate(-1.68 -2.22)"/><g class="cls-14"><path class="cls-8" d="M59.09,1378.56a5.12,5.12,0,1,1,7.2-.66,5.12,5.12,0,0,1-7.2.66Z" transform="translate(-1.68 -2.22)"/><g class="cls-14"><path class="cls-8" d="M70.44,1357a1.6,1.6,0,0,1,.52-.41,1.8,1.8,0,0,1,.63-.21,1.9,1.9,0,0,1,.67.09,1.63,1.63,0,0,1,.58.31,1.77,1.77,0,0,1,.61,1.15,1.82,1.82,0,0,1-.08.66,1.72,1.72,0,0,1-1.47,1.2,1.79,1.79,0,0,1-1.24-.39,1.72,1.72,0,0,1-.41-.52,1.79,1.79,0,0,1-.21-.64,1.85,1.85,0,0,1,.4-1.24Z" transform="translate(-1.68 -2.22)"/><g class="cls-14"><path class="cls-8" d="M60.82,1344.51a1.85,1.85,0,0,1,.52-.41,2.07,2.07,0,0,1,.64-.2,1.84,1.84,0,0,1,.66.08,1.79,1.79,0,0,1,.59.32,1.77,1.77,0,0,1,.61,1.15,1.85,1.85,0,0,1-.09.66,1.74,1.74,0,0,1-1.46,1.2,1.67,1.67,0,0,1-1.66-.91,2.07,2.07,0,0,1-.2-.64,1.82,1.82,0,0,1,.39-1.25Z" transform="translate(-1.68 -2.22)"/><g class="cls-14"><path class="cls-8" d="M58.21,1355.65a1.72,1.72,0,0,1,.52-.41,1.8,1.8,0,0,1,.63-.21,1.9,1.9,0,0,1,.67.09,1.63,1.63,0,0,1,.58.31,1.77,1.77,0,0,1,.61,1.15,1.84,1.84,0,0,1-.08.66,1.72,1.72,0,0,1-1.46,1.2,1.82,1.82,0,0,1-1.25-.39,1.72,1.72,0,0,1-.41-.52,1.6,1.6,0,0,1-.2-.64,1.79,1.79,0,0,1,.39-1.24Z" transform="translate(-1.68 -2.22)"/><g class="cls-14"><path class="cls-8" d="M86.6,1401.47a1.72,1.72,0,0,1,.52-.41,2,2,0,0,1,.64-.2,1.67,1.67,0,0,1,.66.08,1.63,1.63,0,0,1,.58.31,1.85,1.85,0,0,1,.62,1.15,2.17,2.17,0,0,1-.09.67,1.72,1.72,0,0,1-1.46,1.19,1.82,1.82,0,0,1-1.25-.39,1.85,1.85,0,0,1-.61-1.15,1.82,1.82,0,0,1,.39-1.25Z" transform="translate(-1.68 -2.22)"/><g class="cls-14"><path class="cls-8" d="M73.73,1406.28a1.68,1.68,0,0,1,.51-.41,1.49,1.49,0,0,1,1.3-.12,1.67,1.67,0,0,1,.59.31,1.77,1.77,0,0,1,.61,1.15,2.06,2.06,0,0,1-.08.66,1.73,1.73,0,0,1-1.47,1.2,1.83,1.83,0,0,1-1.25-.39,2.09,2.09,0,0,1-.41-.52,2.07,2.07,0,0,1-.2-.64,1.75,1.75,0,0,1,.4-1.24Z" transform="translate(-1.68 -2.22)"/></g></g></g></g></g></g></g></g></g><path class="cls-9" d="M61.05,1347a1.79,1.79,0,1,1,2.51-.23,1.79,1.79,0,0,1-2.51.23Z" transform="translate(-1.68 -2.22)"/><path class="cls-9" d="M58.46,1358.13a1.79,1.79,0,1,1,2.51-.23,1.79,1.79,0,0,1-2.51.23Z" transform="translate(-1.68 -2.22)"/><path class="cls-9" d="M70.59,1359.39a1.78,1.78,0,1,1,2.51-.23,1.78,1.78,0,0,1-2.51.23Z" transform="translate(-1.68 -2.22)"/><path class="cls-9" d="M86.78,1403.93a1.78,1.78,0,1,1,2.51-.23,1.78,1.78,0,0,1-2.51.23Z" transform="translate(-1.68 -2.22)"/><path class="cls-9" d="M70.31,1396.84a6.94,6.94,0,1,1,9.77-.89,6.94,6.94,0,0,1-9.77.89Z" transform="translate(-1.68 -2.22)"/><path class="cls-9" d="M58.93,1378.61a5.24,5.24,0,1,1,7.37-.67,5.24,5.24,0,0,1-7.37.67Z" transform="translate(-1.68 -2.22)"/><path class="cls-9" d="M73.89,1408.77a1.78,1.78,0,1,1,2.51-.23,1.78,1.78,0,0,1-2.51.23Z" transform="translate(-1.68 -2.22)"/><path class="cls-3" d="M174.83,607.6a27.82,27.82,0,0,1-5.5-36.68,26.79,26.79,0,0,1,17.31-11.43A28.05,28.05,0,0,1,207.9,564c8.41,5.73,20.17,3.58,33.1-6.06a27.81,27.81,0,0,1,34.74,1.4,29.21,29.21,0,0,1,4.23,4.45,27.86,27.86,0,0,1,5.61,20.93A26.71,26.71,0,0,1,275,602.55c-47.81,35.64-86.93,14.29-97.78,6.89a29.07,29.07,0,0,1-2.42-1.84Z" transform="translate(-1.68 -2.22)"/><path class="cls-4" d="M174.83,607.6a27.82,27.82,0,0,1-5.5-36.68,26.79,26.79,0,0,1,17.31-11.43A28.05,28.05,0,0,1,207.9,564c8.41,5.73,20.17,3.58,33.1-6.06a27.81,27.81,0,0,1,34.74,1.4,29.21,29.21,0,0,1,4.23,4.45,27.86,27.86,0,0,1,5.61,20.93A26.71,26.71,0,0,1,275,602.55c-47.81,35.64-86.93,14.29-97.78,6.89a29.07,29.07,0,0,1-2.42-1.84Z" transform="translate(-1.68 -2.22)"/><path class="cls-5" d="M174.83,607.6a27.82,27.82,0,0,1-5.5-36.68,26.79,26.79,0,0,1,17.31-11.43A28.05,28.05,0,0,1,207.9,564c8.41,5.73,20.17,3.58,33.1-6.06a27.81,27.81,0,0,1,34.74,1.4,29.21,29.21,0,0,1,4.23,4.45,27.86,27.86,0,0,1,5.61,20.93A26.71,26.71,0,0,1,275,602.55c-47.81,35.64-86.93,14.29-97.78,6.89a29.07,29.07,0,0,1-2.42-1.84Z" transform="translate(-1.68 -2.22)"/><g class="cls-15"><path class="cls-7" d="M181.87,600.36A18.45,18.45,0,0,1,178.1,576a17.48,17.48,0,0,1,11.32-7.46,18.74,18.74,0,0,1,14.21,3c6.6,4.5,20.84,9.69,42-6.08a18.7,18.7,0,0,1,23.07,1,19.39,19.39,0,0,1,2.86,3,18.59,18.59,0,0,1,3.76,13.93,17.45,17.45,0,0,1-6.88,11.68c-41.85,31.18-75.59,12.84-84.93,6.47a16.5,16.5,0,0,1-1.64-1.25Z" transform="translate(-1.68 -2.22)"/><g class="cls-15"><path class="cls-8" d="M253.67,589.53a6.81,6.81,0,1,1-.79-9.61,6.82,6.82,0,0,1,.79,9.61Z" transform="translate(-1.68 -2.22)"/><g class="cls-15"><path class="cls-9" d="M196.71,588.18a5.11,5.11,0,1,1-.59-7.2,5.12,5.12,0,0,1,.59,7.2Z" transform="translate(-1.68 -2.22)"/><g class="cls-15"><path class="cls-8" d="M235.24,600.73a5.11,5.11,0,1,1-.59-7.21,5.12,5.12,0,0,1,.59,7.21Z" transform="translate(-1.68 -2.22)"/><g class="cls-15"><path class="cls-8" d="M213.73,589.19a1.72,1.72,0,0,1-.4-.52,2.07,2.07,0,0,1-.2-.64,1.85,1.85,0,0,1,.09-.66,1.65,1.65,0,0,1,.32-.58,1.74,1.74,0,0,1,1.16-.6,1.88,1.88,0,0,1,.66.09,1.73,1.73,0,0,1,1.18,1.47,1.78,1.78,0,0,1-.4,1.24,1.76,1.76,0,0,1-.53.41,1.72,1.72,0,0,1-.63.2,1.83,1.83,0,0,1-1.25-.41Z" transform="translate(-1.68 -2.22)"/><g class="cls-15"><path class="cls-8" d="M201.21,598.7a1.76,1.76,0,0,1-.41-.53,1.94,1.94,0,0,1-.2-.63,1.82,1.82,0,0,1,.09-.66,2,2,0,0,1,.32-.59,1.8,1.8,0,0,1,1.16-.6,1.85,1.85,0,0,1,.66.09,1.75,1.75,0,0,1,1.19,1.48,1.81,1.81,0,0,1-.41,1.24,1.72,1.72,0,0,1-.52.41,1.82,1.82,0,0,1-.64.19,1.8,1.8,0,0,1-1.24-.4Z" transform="translate(-1.68 -2.22)"/><g class="cls-15"><path class="cls-8" d="M212.32,601.41a1.72,1.72,0,0,1-.41-.52,2.07,2.07,0,0,1-.2-.64,1.85,1.85,0,0,1,.09-.66,1.73,1.73,0,0,1,1.48-1.19,2.44,2.44,0,0,1,.66.09,1.76,1.76,0,0,1,1.19,1.48,1.81,1.81,0,0,1-.41,1.24,1.72,1.72,0,0,1-.52.41,2.07,2.07,0,0,1-.64.2,1.81,1.81,0,0,1-1.24-.41Z" transform="translate(-1.68 -2.22)"/><g class="cls-15"><path class="cls-8" d="M258.39,573.42a1.6,1.6,0,0,1-.41-.52,2.07,2.07,0,0,1-.2-.64,1.85,1.85,0,0,1,.09-.66,1.83,1.83,0,0,1,.32-.58,1.76,1.76,0,0,1,1.16-.6,1.85,1.85,0,0,1,.66.09,1.71,1.71,0,0,1,1.18,1.47,1.74,1.74,0,0,1-.4,1.24,1.72,1.72,0,0,1-.52.41,1.84,1.84,0,0,1-.64.2,1.81,1.81,0,0,1-1.24-.41Z" transform="translate(-1.68 -2.22)"/><g class="cls-15"><path class="cls-8" d="M263.08,586.34a1.76,1.76,0,0,1-.6-1.16,1.85,1.85,0,0,1,.09-.66,1.63,1.63,0,0,1,.31-.58,1.81,1.81,0,0,1,1.16-.61,2.07,2.07,0,0,1,.66.09,1.75,1.75,0,0,1,1.19,1.48,1.81,1.81,0,0,1-.41,1.24,1.6,1.6,0,0,1-.52.41,1.76,1.76,0,0,1-.64.19,1.8,1.8,0,0,1-1.24-.4Z" transform="translate(-1.68 -2.22)"/></g></g></g></g></g></g></g></g></g><path class="cls-9" d="M203.68,598.5a1.78,1.78,0,1,1-.21-2.52,1.79,1.79,0,0,1,.21,2.52Z" transform="translate(-1.68 -2.22)"/><path class="cls-9" d="M214.8,601.18a1.78,1.78,0,1,1-.21-2.51,1.78,1.78,0,0,1,.21,2.51Z" transform="translate(-1.68 -2.22)"/><path class="cls-9" d="M216.17,589.06a1.78,1.78,0,1,1-.21-2.51,1.78,1.78,0,0,1,.21,2.51Z" transform="translate(-1.68 -2.22)"/><path class="cls-9" d="M260.85,573.27a1.78,1.78,0,1,1-.21-2.52,1.79,1.79,0,0,1,.21,2.52Z" transform="translate(-1.68 -2.22)"/><path class="cls-9" d="M253.62,589.67a6.94,6.94,0,1,1-.81-9.78,6.94,6.94,0,0,1,.81,9.78Z" transform="translate(-1.68 -2.22)"/><path class="cls-9" d="M235.29,600.89a5.24,5.24,0,1,1-.61-7.38,5.24,5.24,0,0,1,.61,7.38Z" transform="translate(-1.68 -2.22)"/><path class="cls-9" d="M265.58,586.2a1.79,1.79,0,1,1-.21-2.52,1.8,1.8,0,0,1,.21,2.52Z" transform="translate(-1.68 -2.22)"/><path class="cls-3" d="M28.37,964.41A27.81,27.81,0,0,1,60,945.05a26.77,26.77,0,0,1,17.27,11.47,28.09,28.09,0,0,1,4.19,21.32c-2,10,4.57,20,18.49,28.12a27.8,27.8,0,0,1,12.26,32.53,28.15,28.15,0,0,1-2.45,5.63,27.85,27.85,0,0,1-17.08,13.33,26.71,26.71,0,0,1-20.58-2.74C20.64,1024.58,25,980.24,27.62,967.36a30.34,30.34,0,0,1,.75-3Z" transform="translate(-1.68 -2.22)"/><path class="cls-4" d="M28.37,964.41A27.81,27.81,0,0,1,60,945.05a26.77,26.77,0,0,1,17.27,11.47,28.09,28.09,0,0,1,4.19,21.32c-2,10,4.57,20,18.49,28.12a27.8,27.8,0,0,1,12.26,32.53,28.15,28.15,0,0,1-2.45,5.63,27.85,27.85,0,0,1-17.08,13.33,26.71,26.71,0,0,1-20.58-2.74C20.64,1024.58,25,980.24,27.62,967.36a30.34,30.34,0,0,1,.75-3Z" transform="translate(-1.68 -2.22)"/><path class="cls-5" d="M28.37,964.41A27.81,27.81,0,0,1,60,945.05a26.77,26.77,0,0,1,17.27,11.47,28.09,28.09,0,0,1,4.19,21.32c-2,10,4.57,20,18.49,28.12a27.8,27.8,0,0,1,12.26,32.53,28.15,28.15,0,0,1-2.45,5.63,27.85,27.85,0,0,1-17.08,13.33,26.71,26.71,0,0,1-20.58-2.74C20.64,1024.58,25,980.24,27.62,967.36a30.34,30.34,0,0,1,.75-3Z" transform="translate(-1.68 -2.22)"/><g class="cls-16"><path class="cls-7" d="M37.78,968.07a18.44,18.44,0,0,1,20.92-13A17.51,17.51,0,0,1,70,962.63a18.81,18.81,0,0,1,2.78,14.26c-1.57,7.83-.8,23,22,36.29a18.72,18.72,0,0,1,8.06,21.65,20,20,0,0,1-1.65,3.8,18.59,18.59,0,0,1-11.37,8.9,17.46,17.46,0,0,1-13.44-1.78c-45-26.37-41.3-64.59-39.09-75.67a19.76,19.76,0,0,1,.52-2Z" transform="translate(-1.68 -2.22)"/><g class="cls-16"><path class="cls-8" d="M75.75,1030a6.81,6.81,0,1,1,8.54-4.47,6.81,6.81,0,0,1-8.54,4.47Z" transform="translate(-1.68 -2.22)"/><g class="cls-16"><path class="cls-9" d="M54.78,977a5.11,5.11,0,1,1,6.41-3.36A5.12,5.12,0,0,1,54.78,977Z" transform="translate(-1.68 -2.22)"/><g class="cls-16"><path class="cls-8" d="M58.26,1017.36a5.11,5.11,0,1,1,6.4-3.36,5.11,5.11,0,0,1-6.4,3.36Z" transform="translate(-1.68 -2.22)"/><g class="cls-16"><path class="cls-8" d="M60.49,993.06a1.83,1.83,0,0,1,.32-.58,2.33,2.33,0,0,1,.51-.43,1.94,1.94,0,0,1,1.31-.11,1.75,1.75,0,0,1,1,.83,1.85,1.85,0,0,1,.18.65,1.71,1.71,0,0,1-.9,1.66,1.77,1.77,0,0,1-1.3.11,1.65,1.65,0,0,1-.58-.32,1.63,1.63,0,0,1-.54-1.81Z" transform="translate(-1.68 -2.22)"/><g class="cls-16"><path class="cls-8" d="M46.85,985.23a1.68,1.68,0,0,1,.33-.58,1.94,1.94,0,0,1,.51-.43,2,2,0,0,1,.64-.17,1.85,1.85,0,0,1,.66.06,1.78,1.78,0,0,1,1,.84,2,2,0,0,1,.17.64,1.74,1.74,0,0,1-.89,1.67,1.8,1.8,0,0,1-1.31.11,1.68,1.68,0,0,1-.58-.33,1.77,1.77,0,0,1-.43-.51,1.88,1.88,0,0,1-.11-1.3Z" transform="translate(-1.68 -2.22)"/><g class="cls-16"><path class="cls-8" d="M48.69,996.52a1.83,1.83,0,0,1,.32-.58,2.33,2.33,0,0,1,.51-.43,1.9,1.9,0,0,1,1.3-.11,1.81,1.81,0,0,1,1,.83,1.85,1.85,0,0,1,.18.65,1.75,1.75,0,0,1-.9,1.66,1.77,1.77,0,0,1-1.3.11,1.51,1.51,0,0,1-.58-.32,1.63,1.63,0,0,1-.54-1.81Z" transform="translate(-1.68 -2.22)"/><g class="cls-16"><path class="cls-8" d="M92.43,1028a1.78,1.78,0,0,1,.32-.57,1.88,1.88,0,0,1,.51-.43,1.8,1.8,0,0,1,.65-.18,1.67,1.67,0,0,1,1.66.9,1.8,1.8,0,0,1,.18.64,1.69,1.69,0,0,1-2.2,1.78,1.83,1.83,0,0,1-.58-.32,1.91,1.91,0,0,1-.43-.51,1.8,1.8,0,0,1-.11-1.31Z" transform="translate(-1.68 -2.22)"/><g class="cls-16"><path class="cls-8" d="M82.37,1037.38a1.78,1.78,0,0,1,.32-.57,1.75,1.75,0,0,1,.51-.43,1.8,1.8,0,0,1,.64-.18,1.83,1.83,0,0,1,.66.06,1.78,1.78,0,0,1,1,.84,2.34,2.34,0,0,1,.18.64,1.69,1.69,0,0,1-2.2,1.78,1.73,1.73,0,0,1-.58-.32,1.75,1.75,0,0,1-.43-.51,1.8,1.8,0,0,1-.11-1.31Z" transform="translate(-1.68 -2.22)"/></g></g></g></g></g></g></g></g></g><path class="cls-9" d="M48,987.43a1.78,1.78,0,1,1,2.24-1.17A1.78,1.78,0,0,1,48,987.43Z" transform="translate(-1.68 -2.22)"/><path class="cls-9" d="M49.87,998.72a1.79,1.79,0,1,1,2.23-1.18,1.79,1.79,0,0,1-2.23,1.18Z" transform="translate(-1.68 -2.22)"/><path class="cls-9" d="M61.56,995.25a1.79,1.79,0,0,1,1.06-3.41,1.79,1.79,0,1,1-1.06,3.41Z" transform="translate(-1.68 -2.22)"/><path class="cls-9" d="M93.53,1030.23a1.79,1.79,0,1,1,2.24-1.17,1.79,1.79,0,0,1-2.24,1.17Z" transform="translate(-1.68 -2.22)"/><path class="cls-9" d="M75.61,1030a6.93,6.93,0,1,1,8.69-4.56,6.92,6.92,0,0,1-8.69,4.56Z" transform="translate(-1.68 -2.22)"/><path class="cls-9" d="M58.12,1017.47a5.24,5.24,0,1,1,6.56-3.44,5.24,5.24,0,0,1-6.56,3.44Z" transform="translate(-1.68 -2.22)"/><path class="cls-9" d="M83.47,1039.63a1.79,1.79,0,1,1,2.24-1.17,1.78,1.78,0,0,1-2.24,1.17Z" transform="translate(-1.68 -2.22)"/><path class="cls-3" d="M290.8,1599.27A27.92,27.92,0,0,1,315.66,1627a26.61,26.61,0,0,1-8.29,19,28.38,28.38,0,0,1-20.38,7.87c-10.25-.21-19,8-24.55,23.12a28,28,0,0,1-30.05,17.77,29,29,0,0,1-6-1.41,28.09,28.09,0,0,1-16.27-14.45,26.44,26.44,0,0,1-1-20.71c20.64-55.9,65.38-59.37,78.61-59.1a28.62,28.62,0,0,1,3.06.22Z" transform="translate(-1.68 -2.22)"/><path class="cls-4" d="M290.8,1599.27A27.92,27.92,0,0,1,315.66,1627a26.61,26.61,0,0,1-8.29,19,28.38,28.38,0,0,1-20.38,7.87c-10.25-.21-19,8-24.55,23.12a28,28,0,0,1-30.05,17.77,29,29,0,0,1-6-1.41,28.09,28.09,0,0,1-16.27-14.45,26.44,26.44,0,0,1-1-20.71c20.64-55.9,65.38-59.37,78.61-59.1a28.62,28.62,0,0,1,3.06.22Z" transform="translate(-1.68 -2.22)"/><path class="cls-5" d="M290.8,1599.27A27.92,27.92,0,0,1,315.66,1627a26.61,26.61,0,0,1-8.29,19,28.38,28.38,0,0,1-20.38,7.87c-10.25-.21-19,8-24.55,23.12a28,28,0,0,1-30.05,17.77,29,29,0,0,1-6-1.41,28.09,28.09,0,0,1-16.27-14.45,26.44,26.44,0,0,1-1-20.71c20.64-55.9,65.38-59.37,78.61-59.1a28.62,28.62,0,0,1,3.06.22Z" transform="translate(-1.68 -2.22)"/><g class="cls-17"><path class="cls-7" d="M288.86,1609.16a18.52,18.52,0,0,1,16.58,18.29,17.4,17.4,0,0,1-5.42,12.42,19,19,0,0,1-13.64,5.24c-8-.16-22.9,3.26-32,28a18.82,18.82,0,0,1-20,11.73,19.48,19.48,0,0,1-4.06-.95,18.75,18.75,0,0,1-10.86-9.62,17.31,17.31,0,0,1-.64-13.52c18.08-48.92,56.62-52,68-51.74a18.18,18.18,0,0,1,2.08.15Z" transform="translate(-1.68 -2.22)"/><g class="cls-17"><path class="cls-8" d="M234.31,1657.39a6.87,6.87,0,1,1,6,7.6,6.84,6.84,0,0,1-6-7.6Z" transform="translate(-1.68 -2.22)"/><g class="cls-17"><path class="cls-9" d="M283.06,1627.45a5.15,5.15,0,1,1,4.48,5.7,5.13,5.13,0,0,1-4.48-5.7Z" transform="translate(-1.68 -2.22)"/><g class="cls-17"><path class="cls-8" d="M243.67,1638a5.15,5.15,0,1,1,4.48,5.7,5.13,5.13,0,0,1-4.48-5.7Z" transform="translate(-1.68 -2.22)"/><g class="cls-17"><path class="cls-8" d="M268.16,1635.89a1.8,1.8,0,0,1,.63.21,2.12,2.12,0,0,1,.51.43,1.52,1.52,0,0,1,.29.6,1.83,1.83,0,0,1,.06.66,1.75,1.75,0,0,1-.65,1.14,1.93,1.93,0,0,1-.6.28,1.7,1.7,0,0,1-2.16-1.85,1.7,1.7,0,0,1,.22-.62,1.63,1.63,0,0,1,.43-.51,1.78,1.78,0,0,1,1.27-.34Z" transform="translate(-1.68 -2.22)"/><g class="cls-17"><path class="cls-8" d="M273.47,1621.1a1.75,1.75,0,0,1,.63.22,1.92,1.92,0,0,1,.52.42,2,2,0,0,1,.29.6,1.64,1.64,0,0,1,0,.66,1.76,1.76,0,0,1-.64,1.14,2,2,0,0,1-.61.29,1.69,1.69,0,0,1-2.15-1.85,1.8,1.8,0,0,1,.21-.63,1.91,1.91,0,0,1,.43-.51,1.81,1.81,0,0,1,1.27-.34Z" transform="translate(-1.68 -2.22)"/><g class="cls-17"><path class="cls-8" d="M262.61,1624.89a1.69,1.69,0,0,1,.63.22,1.92,1.92,0,0,1,.52.42,1.72,1.72,0,0,1,.29.61,1.78,1.78,0,0,1,.06.65,1.81,1.81,0,0,1-.65,1.14,1.91,1.91,0,0,1-.61.29,1.69,1.69,0,0,1-2.15-1.85,1.64,1.64,0,0,1,.22-.63,1.71,1.71,0,0,1,.42-.51,1.81,1.81,0,0,1,1.27-.34Z" transform="translate(-1.68 -2.22)"/><g class="cls-17"><path class="cls-8" d="M239.22,1673.44a1.58,1.58,0,0,1,.63.22,1.92,1.92,0,0,1,.52.42,2,2,0,0,1,.29.6,1.64,1.64,0,0,1,.05.66,1.78,1.78,0,0,1-.64,1.14,2,2,0,0,1-.61.28,1.75,1.75,0,0,1-1.81-.58,1.86,1.86,0,0,1-.35-1.26,1.75,1.75,0,0,1,.22-.63,1.63,1.63,0,0,1,.43-.51,1.8,1.8,0,0,1,1.27-.34Z" transform="translate(-1.68 -2.22)"/><g class="cls-17"><path class="cls-8" d="M228.14,1665.19a1.75,1.75,0,0,1,.63.22,1.51,1.51,0,0,1,.81,1,1.62,1.62,0,0,1,0,.66,1.76,1.76,0,0,1-.64,1.13,2,2,0,0,1-.61.29,1.77,1.77,0,0,1-1.81-.59,1.83,1.83,0,0,1-.35-1.26,2.06,2.06,0,0,1,.22-.63,1.91,1.91,0,0,1,.43-.51,1.86,1.86,0,0,1,1.27-.34Z" transform="translate(-1.68 -2.22)"/></g></g></g></g></g></g></g></g></g><path class="cls-9" d="M271.5,1622.62a1.79,1.79,0,1,1,1.56,2,1.79,1.79,0,0,1-1.56-2Z" transform="translate(-1.68 -2.22)"/><path class="cls-9" d="M260.65,1626.44a1.8,1.8,0,1,1,1.56,2,1.79,1.79,0,0,1-1.56-2Z" transform="translate(-1.68 -2.22)"/><path class="cls-9" d="M266.18,1637.32a1.79,1.79,0,1,1,1.56,2,1.79,1.79,0,0,1-1.56-2Z" transform="translate(-1.68 -2.22)"/><path class="cls-9" d="M237.23,1674.91a1.8,1.8,0,1,1,1.56,2,1.79,1.79,0,0,1-1.56-2Z" transform="translate(-1.68 -2.22)"/><path class="cls-9" d="M234.28,1657.25a7,7,0,1,1,6.07,7.73,7,7,0,0,1-6.07-7.73Z" transform="translate(-1.68 -2.22)"/><path class="cls-9" d="M243.54,1637.85a5.28,5.28,0,1,1,4.58,5.85,5.25,5.25,0,0,1-4.58-5.85Z" transform="translate(-1.68 -2.22)"/><path class="cls-9" d="M226.11,1666.67a1.8,1.8,0,1,1,1.57,2,1.79,1.79,0,0,1-1.57-2Z" transform="translate(-1.68 -2.22)"/><path class="cls-3" d="M193.61,1279.52a27.81,27.81,0,0,1-30.2-21.52,26.82,26.82,0,0,1,3.79-20.39,28.09,28.09,0,0,1,18-12.2c10-2.07,16.58-12,18.63-28a27.78,27.78,0,0,1,25.13-24,29.31,29.31,0,0,1,6.14,0,27.88,27.88,0,0,1,18.95,10.5,26.7,26.7,0,0,1,5.54,20c-7.56,59.15-50.09,72.47-62.94,75.14-1,.2-2,.36-3,.46Z" transform="translate(-1.68 -2.22)"/><path class="cls-4" d="M193.61,1279.52a27.81,27.81,0,0,1-30.2-21.52,26.82,26.82,0,0,1,3.79-20.39,28.09,28.09,0,0,1,18-12.2c10-2.07,16.58-12,18.63-28a27.78,27.78,0,0,1,25.13-24,29.31,29.31,0,0,1,6.14,0,27.88,27.88,0,0,1,18.95,10.5,26.7,26.7,0,0,1,5.54,20c-7.56,59.15-50.09,72.47-62.94,75.14-1,.2-2,.36-3,.46Z" transform="translate(-1.68 -2.22)"/><path class="cls-5" d="M193.61,1279.52a27.81,27.81,0,0,1-30.2-21.52,26.82,26.82,0,0,1,3.79-20.39,28.09,28.09,0,0,1,18-12.2c10-2.07,16.58-12,18.63-28a27.78,27.78,0,0,1,25.13-24,29.31,29.31,0,0,1,6.14,0,27.88,27.88,0,0,1,18.95,10.5,26.7,26.7,0,0,1,5.54,20c-7.56,59.15-50.09,72.47-62.94,75.14-1,.2-2,.36-3,.46Z" transform="translate(-1.68 -2.22)"/><g class="cls-18"><path class="cls-7" d="M193.3,1269.43a18.46,18.46,0,0,1-20.12-14.18,17.56,17.56,0,0,1,2.49-13.33,18.78,18.78,0,0,1,12-8.13c7.82-1.63,21.44-8.27,24.78-34.45a18.73,18.73,0,0,1,16.77-15.89,19.11,19.11,0,0,1,4.14,0,18.58,18.58,0,0,1,12.64,7,17.39,17.39,0,0,1,3.62,13.06c-6.62,51.77-43.25,63.3-54.32,65.6a20.09,20.09,0,0,1-2,.31Z" transform="translate(-1.68 -2.22)"/><g class="cls-18"><path class="cls-8" d="M235.37,1210.25a6.82,6.82,0,1,1-7.46-6.1,6.82,6.82,0,0,1,7.46,6.1Z" transform="translate(-1.68 -2.22)"/><g class="cls-18"><path class="cls-9" d="M194.85,1250.29a5.12,5.12,0,1,1-5.6-4.57,5.12,5.12,0,0,1,5.6,4.57Z" transform="translate(-1.68 -2.22)"/><g class="cls-18"><path class="cls-8" d="M230.63,1231.28a5.12,5.12,0,1,1-5.6-4.57,5.12,5.12,0,0,1,5.6,4.57Z" transform="translate(-1.68 -2.22)"/><g class="cls-18"><path class="cls-8" d="M207.39,1238.75a1.86,1.86,0,0,1-.66-.07,2.19,2.19,0,0,1-.59-.3,1.76,1.76,0,0,1-.41-.53,1.55,1.55,0,0,1-.2-.63,1.75,1.75,0,0,1,.37-1.25,1.92,1.92,0,0,1,.52-.42,1.74,1.74,0,0,1,1.89.18,1.77,1.77,0,0,1,.61,1.15,1.7,1.7,0,0,1-1.53,1.87Z" transform="translate(-1.68 -2.22)"/><g class="cls-18"><path class="cls-8" d="M205.53,1254.36a1.66,1.66,0,0,1-.66-.07,2.19,2.19,0,0,1-.59-.3,1.72,1.72,0,0,1-.41-.52,1.6,1.6,0,0,1-.2-.64,1.77,1.77,0,0,1,.37-1.25,1.89,1.89,0,0,1,.52-.41,1.75,1.75,0,0,1,1.89.17,1.79,1.79,0,0,1,.61,1.15,1.81,1.81,0,0,1-.07.66,1.88,1.88,0,0,1-.3.6,1.81,1.81,0,0,1-1.16.61Z" transform="translate(-1.68 -2.22)"/><g class="cls-18"><path class="cls-8" d="M215.2,1248.25a1.64,1.64,0,0,1-.66-.07,2.19,2.19,0,0,1-.59-.3,1.92,1.92,0,0,1-.42-.52,2,2,0,0,1-.2-.63,1.84,1.84,0,0,1,.37-1.26,1.93,1.93,0,0,1,.53-.41,1.74,1.74,0,0,1,1.88.17,1.79,1.79,0,0,1,.61,1.16,1.59,1.59,0,0,1-.07.65,1.69,1.69,0,0,1-.3.6,1.77,1.77,0,0,1-1.15.61Z" transform="translate(-1.68 -2.22)"/><g class="cls-18"><path class="cls-8" d="M227.05,1195.67a1.6,1.6,0,0,1-.65-.08,1.69,1.69,0,0,1-.6-.3,1.6,1.6,0,0,1-.41-.52,1.55,1.55,0,0,1-.2-.63,1.75,1.75,0,0,1,.37-1.25,2.09,2.09,0,0,1,.52-.42,1.75,1.75,0,0,1,1.89.17,1.81,1.81,0,0,1,.61,1.16,1.83,1.83,0,0,1-.37,1.25,1.8,1.8,0,0,1-1.16.62Z" transform="translate(-1.68 -2.22)"/><g class="cls-18"><path class="cls-8" d="M239.61,1201.26a1.84,1.84,0,0,1-.66-.07,2.19,2.19,0,0,1-.59-.3,2,2,0,0,1-.42-.53,1.72,1.72,0,0,1-.2-.63,1.82,1.82,0,0,1,.37-1.25,1.76,1.76,0,0,1,.53-.41,1.72,1.72,0,0,1,1.88.17,1.77,1.77,0,0,1,.61,1.15,1.64,1.64,0,0,1-.07.66,1.69,1.69,0,0,1-.3.6,1.77,1.77,0,0,1-1.15.61Z" transform="translate(-1.68 -2.22)"/></g></g></g></g></g></g></g></g></g><path class="cls-9" d="M207.11,1252.44a1.78,1.78,0,1,1-2-1.6,1.79,1.79,0,0,1,2,1.6Z" transform="translate(-1.68 -2.22)"/><path class="cls-9" d="M216.76,1246.31a1.78,1.78,0,1,1-1.95-1.6,1.78,1.78,0,0,1,1.95,1.6Z" transform="translate(-1.68 -2.22)"/><path class="cls-9" d="M209,1236.9a1.78,1.78,0,1,1-2-1.59,1.79,1.79,0,0,1,2,1.59Z" transform="translate(-1.68 -2.22)"/><path class="cls-9" d="M228.65,1193.79a1.78,1.78,0,1,1-2-1.6,1.78,1.78,0,0,1,2,1.6Z" transform="translate(-1.68 -2.22)"/><path class="cls-9" d="M235.43,1210.38a6.93,6.93,0,1,1-7.59-6.21,6.94,6.94,0,0,1,7.59,6.21Z" transform="translate(-1.68 -2.22)"/><path class="cls-9" d="M230.78,1231.37a5.24,5.24,0,1,1-5.73-4.69,5.24,5.24,0,0,1,5.73,4.69Z" transform="translate(-1.68 -2.22)"/><path class="cls-9" d="M241.24,1199.36a1.78,1.78,0,1,1-2-1.59,1.79,1.79,0,0,1,2,1.59Z" transform="translate(-1.68 -2.22)"/><path class="cls-12" d="M40.47,481.07c3.16-1.82,7.74-.94,11.57-.42s7.56,2.25,11.44,3.55,9.47,3.05,11.88,4.25,2.3,1.83,2.54,2.92-.06.55-1.13,3.58-3.8,11.77-5.29,14.64-1.85,2.54-3.66,2.6-7.4-3.53-7.17-2.25,7.49,6.09,8.54,9.95-.46,8.86-2.29,13.2S62,543.66,58.19,545.92s-11.66.85-14.3.7c2.74,3,7.19,6.5,8,10.3s-1.79,8.41-3.31,12.46a60.86,60.86,0,0,1-5.82,11.85,9.89,9.89,0,0,1-5.55,4.21c-1.87.58-3.39.23-6.55-.18s-8.94-2.59-12.65-3.71c-4.33-2.15-11-3-13.42-4.87s-1.51-2.11-1.1-4.63S6,564.37,7,561.57A38.17,38.17,0,0,1,9.83,555c.89-1.35,1.07-1.59,2.55-1.54s6.08,2.36,6.32,1.79-3.57-3.39-4.88-5.18a12.66,12.66,0,0,1-2.72-12.5A54.09,54.09,0,0,1,14.79,529c1.24-2.56,1.83-5.05,3.7-6.7s5.09-2.59,7.56-3.21,6.25-.13,7.25-.51-.36-.53-1.26-1.76-3.47-3.33-4.17-5.61a14,14,0,0,1-.06-8.11,54.67,54.67,0,0,1,5.25-11.5c2.11-3.67,4.25-8.68,7.41-10.49Z" transform="translate(-1.68 -2.22)"/><path class="cls-13" d="M9.46,571.71c6.44,2.91,14.06,4.93,16.31,5.83s8.2,1,11.88-1.18c-1.07-2.94-4.56-8.45-6.43-9.68-3.92-2.69-10.88-4.43-17.11-6.5-2.76,5.9,0,0-4.65,11.53Z" transform="translate(-1.68 -2.22)"/><path class="cls-13" d="M70.1,493.56a107.62,107.62,0,0,0-16.48-6.12c-5-1.38-8.6-1.29-12.51,1.75,1.07,2.94,4.93,7.46,7.23,9.39,4.75,1.81,11.22,4,17.45,6.11,2.76-5.9.32-.16,4.31-11.13Z" transform="translate(-1.68 -2.22)"/><path class="cls-13" d="M41,569.46c-1,.86,1.6.13-2-3.63s-15.9-14.74-19.61-19-2.79-3.77-2.66-6.33,2.92-7.07,3.43-9.06-1,.23,2.38,3.6,14,13.1,17.63,16.66,3.22,3.25,4,4.73,1.23,2.14.79,4.18-3,7.94-4,8.8Z" transform="translate(-1.68 -2.22)"/><path class="cls-13" d="M58.68,534.33c-1,.66,1.58,0-2-3.63S41,516.53,37.19,512.26s-3.37-4.46-3.18-7.19,3.28-8.34,4.32-9.2-1.44.68,1.89,4.09,14.42,12.85,18.05,16.4,2.95,3.42,3.75,4.91a7,7,0,0,1,.59,5.45c-.68,1.67-2.94,6.95-3.93,7.61Z" transform="translate(-1.68 -2.22)"/><path class="cls-13" d="M23.82,526.59c.1,2,7,8,10.42,10.17s6.5,2.62,10,3.06,10.86,1.41,11-.44-6.81-8.15-10.31-10.62a23.85,23.85,0,0,0-11.24-3.86c-3.52-.36-9.93-.29-9.84,1.69Z" transform="translate(-1.68 -2.22)"/><path class="cls-12" d="M218.32,313.51c.83-3.08,4.21-5.36,6.9-7.4s6.07-3.29,9.27-4.89,7.75-4,10-4.71,2.56-.29,3.37.23.31.38,1.53,2.92,4.92,9.63,5.77,12.32.43,2.72-.65,3.88-6.77,2.39-5.83,3,8.4-.87,11.43.88,5.2,5.76,6.75,9.58,3.52,9.55,2.54,13.32S262.7,350.42,261,352c3.55.15,8.47-.43,11.3,1.44s4.09,6.31,5.66,9.76a54.61,54.61,0,0,1,3.73,10.92,8.65,8.65,0,0,1-.84,6c-.8,1.52-1.95,2.25-4.16,3.94s-7.14,3.93-10.12,5.54c-4,1.34-8.65,4.93-11.31,5.28s-2.24-.38-3.55-2.19-3.2-6.29-4.28-8.67a33.81,33.81,0,0,1-2.31-5.8c-.28-1.38-.32-1.64.63-2.53s5.22-2.3,5-2.8-4.31.11-6.23-.19a11.09,11.09,0,0,1-9.41-6.05,47.31,47.31,0,0,1-3-7.62c-.82-2.34-2-4.25-1.85-6.43s1.54-4.75,2.68-6.66,3.79-3.95,4.17-4.8-.54-.11-1.86-.31-4.2.09-6.05-.89a12.33,12.33,0,0,1-5-5,48,48,0,0,1-3.87-10.36c-1-3.58-2.73-8-1.9-11.08Z" transform="translate(-1.68 -2.22)"/><path class="cls-13" d="M255.18,388.76c5.79-2.18,11.75-5.64,13.7-6.48a14.78,14.78,0,0,0,6.62-8.07c-2.48-1.16-8.05-2.41-10-2-4.1.76-9.48,4-14.61,6.55,1.94,5.36,0,0,4.25,10Z" transform="translate(-1.68 -2.22)"/><path class="cls-13" d="M244.38,302.92a93.93,93.93,0,0,0-14,6.41c-4,2.26-6.12,4.52-6.66,8.82,2.48,1.15,7.66,1.56,10.28,1.33,4.06-1.81,9.43-4.44,14.57-7-1.94-5.36.1-.3-4.21-9.55Z" transform="translate(-1.68 -2.22)"/><path class="cls-13" d="M273.33,367.85c-.08,1.15,1.07-.91-3.49-1s-18.94.71-23.84.39-4.06-.6-5.57-2.26-2.56-6.18-3.47-7.73-.45.73,3.7.76,16.77-.57,21.2-.6,4,0,5.42.44a4.19,4.19,0,0,1,3.07,2.1c1,1.54,3.06,6.76,3,7.91Z" transform="translate(-1.68 -2.22)"/><path class="cls-13" d="M262.52,335.21c-.2,1,1-.95-3.49-1s-18.48.94-23.45.64-4.84-.67-6.41-2.48-3.13-7.19-3-8.36-.47,1.3,3.7,1.36,16.87-1,21.31-1,3.93.3,5.35.72a6.2,6.2,0,0,1,3.74,3c.61,1.45,2.47,6.11,2.27,7.14Z" transform="translate(-1.68 -2.22)"/><path class="cls-13" d="M236.17,352c1.28,1.16,9.26.59,12.73-.15s5.64-2.39,8.08-4.28,7.59-5.85,6.52-7.06-9.26-.84-12.95-.2a20.86,20.86,0,0,0-9.34,4.57c-2.4,1.94-6.32,5.95-5,7.12Z" transform="translate(-1.68 -2.22)"/></g></g></svg>