<svg xmlns="http://www.w3.org/2000/svg" viewBox="0 0 324.8 324.8"><defs><style>.cls-1{fill:#888eba;stroke:#cbabc8;stroke-miterlimit:8;stroke-width:17px;}.cls-2{fill:#fc90d4;}.cls-3{fill:#fc7bcc;}.cls-4{fill:#fc5dc2;}.cls-5{fill:#fc44b9;}.cls-6{fill:#ffbfe7;}.cls-7{fill:#74e0e0;}.cls-8{fill:#e1f7f7;}.cls-9{fill:#cdf7f7;}</style></defs><g id="Слой_2" data-name="Слой 2"><g id="Слой_1-2" data-name="Слой 1"><circle class="cls-1" cx="162.4" cy="162.4" r="153.9"/><path class="cls-2" d="M164.85,175.33h-7.08l-42.92-57.54,50-67.37,50,67.37L172,175.33Z"/><path class="cls-3" d="M205.6,130.21l9.25-12.42-50-67.37-9.23,12.44Z"/><path class="cls-4" d="M164.85,50.42V175.33h-7.08l-42.92-57.54Z"/><path class="cls-5" d="M133.32,117.79l31.53-42.48V50.42l-50,67.37,8.08,10.83Z"/><path class="cls-6" d="M157.77,175.33l-49.94-22.15L96.62,111.92l31.89-44.25Z"/><path class="cls-6" d="M172,175.33l49.94-22.15,11.21-41.26L201.26,67.67Z"/><path class="cls-7" d="M157.77,175.33H172l9.86,104.55h-34Z"/><path class="cls-8" d="M181.86,279.88h-34L96.62,171.68l83.19,86.44Z"/><path class="cls-9" d="M179.81,258.12,96.62,171.68l17.92,37.82,46.8,48.62,2,21.76h18.47Z"/></g></g></svg>