<svg xmlns="http://www.w3.org/2000/svg" viewBox="0 0 324.8 324.8"><defs><style>.cls-1{fill:#888eba;stroke:#cbabc8;stroke-miterlimit:8;stroke-width:17px;}.cls-2{fill:#8e8ef9;}.cls-3{fill:#9c91ec;}.cls-4{fill:#5b69aa;}.cls-5{fill:#fba58e;}.cls-6{fill:#fa948e;}.cls-7{fill:#e5d5e4;}.cls-8{fill:#fff;}</style></defs><g id="Слой_2" data-name="Слой 2"><g id="Слой_1-2" data-name="Слой 1"><circle class="cls-1" cx="162.4" cy="162.4" r="153.9"/><g id="flat"><path class="cls-2" d="M126.82,39.63h66.36a8.29,8.29,0,0,1,8.29,8.29V64.51H118.53V47.92A8.29,8.29,0,0,1,126.82,39.63Z"/><path class="cls-3" d="M114.38,64.51h91.24A12.44,12.44,0,0,1,218.06,77h0A12.44,12.44,0,0,1,205.62,89.4H114.38A12.44,12.44,0,0,1,101.94,77h0A12.44,12.44,0,0,1,114.38,64.51Z"/><path class="cls-4" d="M118.53,89.4h82.94V238.7a41.47,41.47,0,1,1-82.94,0V89.4Z"/><path class="cls-5" d="M135.12,176.49h49.77v8.29H135.12Z"/><path class="cls-6" d="M139.27,159.9h41.47v8.3H139.27Z"/><path class="cls-6" d="M139.27,193.08h41.47v8.29H139.27Z"/><path class="cls-5" d="M139.27,126.72h41.47V135H139.27Z"/><path class="cls-6" d="M135.12,110.13h49.77v8.3H135.12Z"/><path class="cls-6" d="M139.27,226.26h41.47v8.29H139.27Z"/><path class="cls-5" d="M135.12,242.85h49.77v8.29H135.12Z"/><circle class="cls-7" cx="230.51" cy="114.28" r="12.44"/><circle class="cls-7" cx="93.64" cy="155.75" r="8.29"/><path class="cls-8" d="M139.27,259.44H131V247c0-20.64,13.86-28.13,26.07-34.74,12.72-6.87,23.7-12.8,23.7-31.61,0-18.62-10.86-23.59-23.44-29.34C145,145.66,131,139.26,131,118.43V101.84h8.3v16.59c0,15.5,9.47,19.84,21.47,25.33,12.61,5.77,28.29,12.93,28.29,36.88,0,23.75-14.89,31.81-28,38.91-11.66,6.29-21.72,11.75-21.72,27.44Z"/><path class="cls-8" d="M189,259.44h-8.29V247c0-15.69-10.07-21.15-21.73-27.44-13.14-7.1-28-15.16-28-38.91,0-23.95,15.69-31.11,28.29-36.88,12-5.49,21.48-9.83,21.48-25.33V101.84H189v16.59c0,20.83-14,27.23-26.32,32.87-12.58,5.75-23.44,10.72-23.44,29.34,0,18.81,11,24.74,23.69,31.61C175.18,218.86,189,226.35,189,247Z"/></g></g></g></svg>