<svg xmlns="http://www.w3.org/2000/svg" viewBox="0 0 352.34 121.2"><defs><style>.cls-1,.cls-2{fill-rule:evenodd;}.cls-2{fill:#efa289;}.cls-3{fill:#fff;}</style></defs><g id="Слой_2" data-name="Слой 2"><g id="Слой_1-2" data-name="Слой 1"><path class="cls-1" d="M329,12.8c2-1.13,4.8-.58,7.19-.25s4.69,1.39,7.11,2.2,5.88,1.9,7.37,2.64,1.43,1.14,1.58,1.81,0,.34-.7,2.23-2.36,7.31-3.29,9.09-1.15,1.58-2.27,1.62-4.6-2.2-4.46-1.4,4.66,3.79,5.31,6.18-.28,5.51-1.42,8.21-3,6.57-5.41,8-7.25.53-8.89.43c1.71,1.86,4.47,4,4.95,6.4s-1.11,5.23-2.05,7.75A38.53,38.53,0,0,1,330.44,75,6.11,6.11,0,0,1,327,77.65c-1.16.36-2.1.15-4.06-.11s-5.57-1.61-7.87-2.3c-2.69-1.34-6.82-1.87-8.33-3s-.94-1.31-.69-2.88a49,49,0,0,1,2.2-6.51A24.21,24.21,0,0,1,310,58.75c.55-.84.66-1,1.58-1s3.78,1.47,3.93,1.12-2.22-2.11-3-3.22a9.32,9.32,0,0,1-1.85-3.46,9.25,9.25,0,0,1,.16-4.31,34,34,0,0,1,2.29-5.36c.77-1.59,1.14-3.14,2.3-4.16a12,12,0,0,1,4.69-2c1.54-.38,3.89-.08,4.51-.31s-.22-.33-.78-1.1-2.16-2.07-2.59-3.49a8.68,8.68,0,0,1,0-5,34.5,34.5,0,0,1,3.26-7.15c1.31-2.28,2.64-5.39,4.61-6.52Z"/><path class="cls-2" d="M309.77,69.12c4,1.81,8.73,3.06,10.13,3.62a10.53,10.53,0,0,0,7.39-.73c-.67-1.83-2.84-5.25-4-6-2.44-1.68-6.76-2.76-10.63-4-1.72,3.67,0,0-2.89,7.17Z"/><path class="cls-2" d="M347.45,20.56a68.11,68.11,0,0,0-10.24-3.8c-3.13-.85-5.35-.8-7.77,1.09a18.34,18.34,0,0,0,4.49,5.83c2.95,1.13,7,2.51,10.84,3.8,1.72-3.67.2-.1,2.68-6.92Z"/><path class="cls-2" d="M329.39,67.72c-.62.54,1,.09-1.24-2.25S318.27,56.31,316,53.69s-1.74-2.34-1.66-3.93,1.82-4.39,2.13-5.63-.59.14,1.48,2.24,8.71,8.13,10.95,10.35,2,2,2.51,2.94a3,3,0,0,1,.48,2.6c-.27,1.27-1.85,4.93-2.47,5.46Z"/><path class="cls-2" d="M340.35,45.9c-.61.41,1,0-1.24-2.26S329.35,34.83,327,32.18s-2.1-2.77-2-4.46A13.8,13.8,0,0,1,327.7,22c.65-.53-.89.42,1.18,2.54s9,8,11.22,10.19,1.83,2.13,2.32,3.05a4.35,4.35,0,0,1,.37,3.39c-.42,1-1.83,4.31-2.44,4.73Z"/><path class="cls-2" d="M318.69,41.08c.06,1.23,4.36,5,6.48,6.32a13.31,13.31,0,0,0,6.2,1.91c2.17.27,6.75.87,6.82-.27S334,44,331.79,42.43a14.81,14.81,0,0,0-7-2.39c-2.18-.23-6.17-.18-6.11,1Z"/><path class="cls-3" d="M36.27,7.36A8.19,8.19,0,0,0,28.39,0C23-.34,19,4.35,16.72,8.7,13,15.8,12.34,23.54,13,31.39c.88,11.13,9,18,18.82,21.92,11.35,4.59,24,6.75,36.13,7.41A129,129,0,0,0,105.55,57c12.53-3,24.82-7.28,37.6-9.27,11.54-1.81,23.46-1.61,34.22,3.4,9.54,4.45,17.34,11.65,25.85,17.67,11.3,8,22.46,11,36.28,10,8.57-.63,35.2-6.36,35.78,8l-.1-5.56C274.42,90.14,266,95,258.93,98.91a114.18,114.18,0,0,1-24.45,10c-17.2,4.87-35.25,6.22-53.06,5.58-40-1.44-79.15-12.31-119.24-12.75-21.29-.24-42.64,2.49-62,11.75-.57.27.52,4.34.11,4.5,43.14-15.89,88.1-8.9,132.29-2.24C174,122,219.16,127,257.63,106.19c7.41-4,17.27-9.24,17.72-18.73.28-5.89.22-12.57-6.16-15.13-9.61-3.86-21.73-.8-31.67-.18-10.73.66-20.29-1.11-29.52-6.71-7.69-4.67-14.4-10.73-21.81-15.79C177.94,44,169,40.42,159,39.8,137.61,38.48,117.4,48,96.79,51.85a128.62,128.62,0,0,1-38.12,1.37c-10.91-1.26-22.75-3.5-32.5-8.81-4.67-2.54-8.94-6.08-11.29-10.95-1.9-3.9-2-5.8-1.47-8.81a37,37,0,0,1,2.49-8.29C17.76,12,20.73,7.18,25.49,5.64c4.41-1.42,10.25.53,10.85,5.63-.11-.95.06-2.7-.07-3.91Z"/></g></g></svg>