<svg xmlns="http://www.w3.org/2000/svg" viewBox="0 0 475.34 758"><defs><style>.cls-1,.cls-3{fill:#fdd2c6;}.cls-1,.cls-2{fill-rule:evenodd;}.cls-2{fill:#fcc7b8;}.cls-4{fill:#fdddd5;}.cls-5{fill:#2dd2e3;}.cls-6{fill:#87e0ec;}.cls-7{fill:#d5f3f7;}.cls-8{fill:#5b69aa;}.cls-9{fill:#cbabc8;}.cls-10{fill:#b98db5;}.cls-11{fill:#e1a472;}.cls-12{fill:#d98a4a;}.cls-13{fill:#a770a2;}.cls-14{fill:#fff;}.cls-15{fill:#ed3a09;}.cls-16{fill:#f75a2f;}.cls-17{fill:#decadc;}.cls-18{fill:#4d5b96;}.cls-19{fill:#424e81;}.cls-20{fill:#eef6ff;}.cls-21{fill:#bd2e07;}.cls-22{fill:#d9eafc;}.cls-23{fill:#52bbef;}.cls-24{fill:#1e99d6;}.cls-25{fill:#ffe2b8;}.cls-26{fill:#ffc987;}.cls-27{fill:#1a2b63;}.cls-28{fill:#aec1ed;}.cls-29{fill:#eabe9b;}.cls-30{fill:#eeefee;}</style></defs><g id="Слой_2" data-name="Слой 2"><g id="Слой_1-2" data-name="Слой 1"><g id="Layer_1" data-name="Layer 1"><path class="cls-1" d="M23.6,224.33a18.1,18.1,0,0,1,3.95,4.9c.26.74-4.1,5.92-2.74,10.54s3.48,9.32,5.17,9.09,5-7.17,5.08-13-1.45-16.78,3.16-18.5,14.77-1.09,15.76-4,5.43-10.29,6.78-15.25c1-3.57,6.33-8.9,10-11.45,3.14-2.16-13-11.21-19.6-10-8.89,1.67-12.56,2-15.78,5.36s-7.78,2.81-9.7,4.43-3.82,5.35-4.33,7.3-.18,2.55-4.39,2.7S3.84,193,4.49,196.53s4.84,5.42,6.56,7.31,3.49,4.94,3.22,6.21-4.74,2.71-4.08,4.62c2.9,8.37,9.52,6.3,13.41,9.66Z"/><path class="cls-2" d="M23.6,224.33a18.1,18.1,0,0,1,3.95,4.9c.26.74-4.1,5.92-2.74,10.54s3.48,9.33,5.17,9.09,5-7.17,5.08-13c0-2.74-.27-6.62-.14-10.13-2.09,0-5.25,1-6.61.29-1.93-1.05-2.63-4.88-3.21-6.08s-4.6-1.54-6.5-4.32,4.07-3.6,3.76-5.84-6.75-5-4.56-9.53,4.95-.15,6.27-3.58,2.9-3.83,3.41-7.29a14.19,14.19,0,0,1,1.92-4.33,9.63,9.63,0,0,0-3.68,1.39c-1.93,1.61-3.83,5.35-4.33,7.3s-.18,2.54-4.39,2.7S3.84,193,4.49,196.52s4.84,5.43,6.56,7.31,3.49,4.95,3.22,6.22-4.74,2.71-4.08,4.61c2.9,8.38,9.52,6.31,13.41,9.67Z"/><path class="cls-1" d="M48.17,164.59c1.68-1.81.62-8.79,3.56-7.36s6.18.92,8,2.75,5.63,5.26,6.06,6.88,4,6.72-.77,5.23-7-3.55-9.54-3.77-5.89.48-6.52-.73a9.49,9.49,0,0,1-.76-3Z"/><path class="cls-1" d="M0,153.36c1.7.47,11.26-1.3,12.59-2.59s5.83-6.4,6.78-9.1,5.58-9.51,6.9-6.06,2.05,5.91,5.57,4.46,8.35.53,9.53,1.9,4.25,6.45,5.72,7.6-3.23,2.65-6.06,4.7-5.37,3.64-5.36,7.42-2.58,8.94-4.48,9.6-6.88-2.1-7.6-5.88S22,157,19,157.19s-7.62,1.23-9.6,1.32-7.6.27-9.36-5.15Z"/><path class="cls-1" d="M76.23,169.5c1.83,1.86,8.11,3.58,10,4.23s1.93,4.89,4.13,8.15,2.43,4.61,3.75,5.69,7.59-3.7,9.42-1.5,5,5.24,7.83,4.5,5.32-1.72,5-4.8-2.34-9.12,1.32-10.16,9.87-2.59,11.15,1.1-2.29,6-.66,9.35,4,9.24,3.3,15.65.76,18.56,1.92,18.15,2.2-8,8.17-11.94,13.9-5.3,14.56-8.84,3-13.12,6.21-10.08,13.1-.11,17.9,2.66,2.44,5.13,8.21,3,7.2-1.08,13.51.05,11.07,6.33,16.77,9.45,2.24,1.35,8.92,4.24,6.52,3.77,10.17,4.75,6.54-.26,9.24-5.45,8.55-11.84,11-9.86,12,.1,13.81,1.25,5.5-1.2,3.7-6.38.76-13.16.57-14.39-6.88-4.84,1.28-8.26,13.71-6.18,10.52-7.2-8-.64-11.69-4.35-22.72-22.17-22.91-22.7-.88-8.33-5-8.81-8.13.1-9.32-1.62-1.2-20.88-13.46-22.78-13.23-6.07-7.11-14.34S235.1,72.79,239,73.09s9.22-3.43,6.65-10.83-4.3-16.49-2.69-18,10.09-4.68,9-8.45-6.7-4.3-8.8-5.94-.41,1.92-3.35,4.36-2.46,4.16-6.41,4.71-16.88,4.2-21.39,5.88-9.5,3.65-14.14,3.25-7.67-5.39-11.55-4.63-30.24,2.2-35.11,5.2A75.47,75.47,0,0,0,137.5,59.55c-3.11,3.33-5.37,6.36-9.88,7.69s-13,3.55-13,3.55S98.77,84.71,93.9,85.68s-13.81,3.85-14.23,7.07-1.57,7.41-3.25,9.06-6.91,4.29-8.89,7.11-9.58,12-7.85,20.35,5.7,9.62,8.52,8.88,2.88,9.65,3.13,12.41,3.57,8.93,3.57,8.93-3.46,6.41,1.33,10Z"/><path class="cls-2" d="M76.23,169.5c1.83,1.86,8.11,3.58,10,4.23s1.93,4.89,4.13,8.15,2.43,4.61,3.75,5.69,7.59-3.7,9.42-1.5,5,5.25,7.83,4.5,5.32-1.72,5-4.8-2.34-9.12,1.32-10.16,9.87-2.59,11.15,1.1-2.29,6-.66,9.35,4,9.24,3.3,15.65.76,18.56,1.92,18.15,2.2-8,8.16-11.94,13.9-5.3,14.57-8.84,3-13.12,6.21-10.08,13.1-.11,17.9,2.66,2.44,5.13,8.21,3,7.2-1.08,13.51.05,11.07,6.33,16.76,9.45,2.25,1.35,8.93,4.24,6.52,3.77,10.17,4.75,6.54-.25,9.23-5.45,8.56-11.84,11-9.86,12,.1,13.81,1.25c1.64,1,4.79-.77,4.08-4.93a147.26,147.26,0,0,0-18.44-5.39c-6.3-1.4-6.3,3.14-11.08,3.1-5.65,0-15.64-4.52-16.73-4.4-3.68.4-7.23,3.69-9.79,2.23s-4.38-6.7-16.57-13.92-15.13,3.78-17.07,3.28a119.51,119.51,0,0,0-13.17-1.6c-4.22-.3-6.89-3.77-10.69-6.27s-9.13,13.44-9.13,13.44a17.61,17.61,0,0,1-7.42-11.22c-1.5-7.7-14.45-12.89-16.66-14.18s-9.35,2.66-12.28,6.9-5.63,5.77-7.65,5.89-7.32-3.33-10.61-6.89-9.25-.35-14.18,2.28-3.73-4-5.83-10.89S83.11,144.1,82,141s1.93-7.13,1.91-8.88-3.75-5.74-5.86-5.89-3.12-4.79-2.73-8.74,3-3.11,3.7-5.39,4.32-5.32,8.3-9.93,8.29-3.17,13.16-6.91,13,2,15.11,2.09,3.69-6.27,8.8-11.86,7.66,2.63,7.6-9.38,2.59-3.54,11.89-10.59c6.63-5,7.53-11.45,11.22-18.18a14.4,14.4,0,0,0-3.88,1.34A75.15,75.15,0,0,0,137.5,59.56c-3.11,3.32-5.37,6.36-9.88,7.69s-13,3.55-13,3.55S98.77,84.71,93.9,85.69s-13.81,3.85-14.23,7.07-1.57,7.41-3.25,9-6.91,4.3-8.89,7.11-9.58,12-7.85,20.36,5.7,9.62,8.52,8.88,2.88,9.65,3.12,12.4,3.58,8.94,3.58,8.94-3.46,6.4,1.33,10Z"/><path class="cls-1" d="M185.87,149.16s-5.86.85,2,10.65,10.25,11.83,13.83,15.32,3.78-3.44.72-10.9-6-14.49-6.42-15.76-10.17.69-10.17.69Z"/></g><path class="cls-3" d="M255.67,640.92A117.08,117.08,0,1,1,138.59,523.84,117.08,117.08,0,0,1,255.67,640.92Z"/><path class="cls-4" d="M244.23,642.33a95.62,95.62,0,1,1-95.62-95.62,95.63,95.63,0,0,1,95.62,95.62Z"/><path class="cls-5" d="M174.39,555.22A25.15,25.15,0,1,1,133,530.47a.3.3,0,0,1,.5.28A25.15,25.15,0,0,0,174,554.93a.28.28,0,0,1,.44.29Z"/><path class="cls-6" d="M174.42,542.9a25,25,0,0,1-.06,12.43A25.15,25.15,0,0,1,133,530.5a25.15,25.15,0,0,1,41.44,12.4Z"/><path class="cls-5" d="M150.23,545.56l-17.51,4.38a3.43,3.43,0,0,1-1.67-6.66l17.51-4.38a3.43,3.43,0,0,1,1.67,6.66Zm17.05,6a3.43,3.43,0,0,0-4.16-2.5l-5,1.25a3.43,3.43,0,0,0,1.67,6.66l5-1.25A3.43,3.43,0,0,0,167.28,551.6ZM158,530.19a3.43,3.43,0,0,0-4.16-2.5l-1.6.4a3.43,3.43,0,0,0,1.67,6.66l1.59-.4A3.43,3.43,0,0,0,158,530.19Z"/><path class="cls-7" d="M181.71,544.61,120,560a3.43,3.43,0,0,1-1.66-6.66L180.05,538a3.43,3.43,0,1,1,1.66,6.65Z"/><path class="cls-8" d="M243.61,695.75a3.45,3.45,0,0,1-2.54,3,3.33,3.33,0,0,1-1.14.11l-43.45-3.31,16.23,34.75a3.43,3.43,0,0,1-5.56,3.85,3.55,3.55,0,0,1-.65-1l-18.17-38.88a3.41,3.41,0,0,1-1.26-2.71l-1.66-3.56a3.43,3.43,0,1,1,6.21-2.9l1.53,3.27,47.3,3.6a3.44,3.44,0,0,1,3.16,3.68Z"/><path class="cls-9" d="M255,607.44l-22.4,37.18a2.28,2.28,0,0,1-2,1.11H23.8a2.29,2.29,0,0,1-2.29-2.29V569.08a2.29,2.29,0,0,1,2.29-2.29H230.59a2.28,2.28,0,0,1,2,1.11L255,605.08A2.27,2.27,0,0,1,255,607.44Z"/><path class="cls-10" d="M36,645.73H23.8a2.29,2.29,0,0,1-2.29-2.29V569.08a2.29,2.29,0,0,1,2.29-2.29H36a2.29,2.29,0,0,0-2.28,2.29v74.36A2.29,2.29,0,0,0,36,645.73Z"/><path class="cls-11" d="M195.3,637.82V692.7A2.29,2.29,0,0,1,193,695H60.38a2.28,2.28,0,0,1-2.28-2.28V637.82a2.28,2.28,0,0,1,2.28-2.29H193a2.29,2.29,0,0,1,2.29,2.29Z"/><path class="cls-12" d="M72,695H60.38a2.28,2.28,0,0,1-2.28-2.28V637.82a2.28,2.28,0,0,1,2.28-2.29H72a2.28,2.28,0,0,0-2.28,2.29V692.7A2.28,2.28,0,0,0,72,695Z"/><path class="cls-13" d="M171.34,588l.29,29.88a3.55,3.55,0,0,1-2.39,3.55,3.4,3.4,0,0,1-3.83-1.43L150,597.59v21.32a3,3,0,1,1-5.94,0V588.05a3,3,0,0,1,5.41-1.69l16.17,23.42L165.39,588a3,3,0,0,1,6-.06ZM108,585a3,3,0,0,0-3,3v30.92a3,3,0,1,0,5.94,0V588A3,3,0,0,0,108,585Zm26.88,6.23a3,3,0,0,0,0-6H122a3,3,0,0,0-3,3v30.64a3,3,0,0,0,3,3h12.91a3,3,0,0,0,0-5.95H125v-9.37h9a3,3,0,0,0,0-6h-9v-9.37Zm94.69,24.69h-9.94v-9.37h9a3,3,0,0,0,0-6h-9v-9.37h9.94a3,3,0,0,0,0-6H216.69a3,3,0,0,0-3,3v30.64a3,3,0,0,0,3,3H229.6a3,3,0,0,0,0-5.95ZM97,612.27a3,3,0,0,0-4.19.37,8.8,8.8,0,0,1-1,1,9.47,9.47,0,0,1-6.51,2.32,12.49,12.49,0,1,1,0-25,12.38,12.38,0,0,1,7,2.14,3,3,0,1,0,3.33-4.93,18.43,18.43,0,1,0-10.31,33.72,15.42,15.42,0,0,0,10.46-3.83,15.73,15.73,0,0,0,1.56-1.6,3,3,0,0,0-.37-4.19Zm110.87,0a3,3,0,0,0-4.19.37,9.88,9.88,0,0,1-1,1,9.43,9.43,0,0,1-6.5,2.32,12.49,12.49,0,1,1,7-22.84,3,3,0,0,0,3.32-4.93,18.43,18.43,0,1,0-10.3,33.72,15.46,15.46,0,0,0,10.46-3.83,15.63,15.63,0,0,0,1.55-1.6,3,3,0,0,0-.36-4.19ZM54.7,600.91c-3.94-1.46-7.6-3-8.57-3.47A3,3,0,0,1,45,594.53,4.08,4.08,0,0,1,48,591.32c4.84-1.45,9.23,2,9.34,2.14a3,3,0,0,0,3.81-4.57c-.27-.23-6.87-5.67-14.86-3.26a10,10,0,0,0-7.26,8,9,9,0,0,0,4,8.86,3.23,3.23,0,0,0,.41.22c.18.08,4.41,2,9.18,3.72,3.31,1.23,5,3.12,4.63,5.21s-2.83,4.25-6.28,4.25a11.67,11.67,0,0,1-8.58-3.61,3,3,0,0,0-4.4,4,17.65,17.65,0,0,0,13,5.56c6,0,11.2-3.93,12.13-9.15.71-4-1.14-9.14-8.42-11.82Z"/><path class="cls-14" d="M118.51,649.18l0-.08a3.67,3.67,0,0,0-3.4-2.28h0a3.68,3.68,0,0,0-3.4,2.29l0,.06-11.61,30.49a3,3,0,0,0,5.55,2.12l2.16-5.68h14.56l2.14,5.67a3,3,0,0,0,5.56-2.1Zm-8.48,21,5-13.24,5,13.24Zm32.25-20.35v30.92a3,3,0,0,1-5.95,0V649.8a3,3,0,1,1,5.95,0Zm-44.2.22a3,3,0,0,1-3,3H85.64v9.11h8.48a3,3,0,1,1,0,5.94H85.64v12.67a3,3,0,0,1-6,0V650a3,3,0,0,1,3-3H95.1a3,3,0,0,1,3,3Zm66.67,18.68a11,11,0,0,0-1.87-21.88h-8.23a3,3,0,0,0-3,3v30.92a3,3,0,0,0,5.95,0V669.6l11.51,13.08a3,3,0,1,0,4.46-3.93Zm-1.87-15.93a5.08,5.08,0,1,1,0,10.13l-5.2,0c0-1.79,0-3.92,0-5.09,0-1,0-3.2,0-5.06Z"/><path class="cls-15" d="M204.85,698.44a13.72,13.72,0,1,1-18.63-18.57.16.16,0,0,1,.22.21,13.59,13.59,0,0,0-1.22,5.84,13.76,13.76,0,0,0,13.55,13.55,13.57,13.57,0,0,0,5.88-1.24A.15.15,0,0,1,204.85,698.44Zm43,2.86a11.43,11.43,0,1,1-15.53-15.47.13.13,0,0,1,.19.17,11.44,11.44,0,0,0,15.18,15.13.12.12,0,0,1,.16.17Zm-28.82,36.52a11.43,11.43,0,1,1-15.52-15.48.14.14,0,0,1,.19.18,11.44,11.44,0,0,0,15.17,15.13.12.12,0,0,1,.16.17Zm-54.56,1.75a9.15,9.15,0,1,1-12.42-12.38.11.11,0,0,1,.15.14,9.15,9.15,0,0,0,12.14,12.1.1.1,0,0,1,.13.14Z"/><path class="cls-16" d="M206.49,691.92a13.74,13.74,0,0,1-1.67,6.58,13.74,13.74,0,0,1-20.3-12,13.62,13.62,0,0,1,1.68-6.57,13.71,13.71,0,0,1,20.29,12Zm42.77,4a11.35,11.35,0,0,1-1.4,5.48,11.43,11.43,0,0,1-15.51-15.51,11.43,11.43,0,0,1,16.91,10Zm-28.82,36.52a11.4,11.4,0,0,1-1.39,5.48,11.44,11.44,0,0,1-15.52-15.52,11.44,11.44,0,0,1,16.91,10Zm-54.83,2.84a9.11,9.11,0,0,1-1.12,4.38,9.14,9.14,0,0,1-12.41-12.41,9.14,9.14,0,0,1,13.53,8Z"/><path class="cls-5" d="M231.19,667.33A9.15,9.15,0,1,1,218.77,655a.11.11,0,0,1,.16.14,9.14,9.14,0,0,0,12.13,12.1A.1.1,0,0,1,231.19,667.33Zm-94.51,51.82a9.15,9.15,0,1,1-12.42-12.38.11.11,0,0,1,.15.14A9.16,9.16,0,0,0,136.55,719,.1.1,0,0,1,136.68,719.15Z"/><path class="cls-6" d="M232.29,663a9.11,9.11,0,0,1-1.12,4.38A9.14,9.14,0,0,1,218.76,655a9.14,9.14,0,0,1,13.53,8Zm-94.51,51.82a9.11,9.11,0,0,1-1.12,4.38,9.14,9.14,0,0,1-12.41-12.41,9.14,9.14,0,0,1,13.53,8Z"/><path class="cls-6" d="M99.14,727.42l-6.42,11.11a4.57,4.57,0,0,1-6.24,1.67l-4.69-2.7a30.55,30.55,0,0,1-8.18,4.73v5.4A4.57,4.57,0,0,1,69,752.2H56.21a4.58,4.58,0,0,1-4.57-4.57v-5.4a30.55,30.55,0,0,1-8.18-4.73l-4.68,2.7a4.58,4.58,0,0,1-6.25-1.67l-6.42-11.11a4.58,4.58,0,0,1,1.68-6.25l4.68-2.7a30.35,30.35,0,0,1,0-9.45l-4.68-2.7a4.58,4.58,0,0,1-1.68-6.25L32.53,689a4.58,4.58,0,0,1,6.25-1.68L43.46,690a30.28,30.28,0,0,1,8.18-4.73v-5.4a4.58,4.58,0,0,1,4.57-4.58H69a4.57,4.57,0,0,1,4.57,4.58v5.4A30.28,30.28,0,0,1,81.79,690l4.69-2.71A4.57,4.57,0,0,1,92.72,689l6.42,11.11a4.58,4.58,0,0,1-1.68,6.25L92.78,709a30.35,30.35,0,0,1,0,9.45l4.68,2.7a4.58,4.58,0,0,1,1.68,6.25Z"/><path class="cls-5" d="M84.6,713.74l-11,19h-22l-11-19,11-19h22Z"/><path class="cls-3" d="M76.06,713.74l-6.72,11.63H55.91L49.2,713.74l6.71-11.63H69.34Z"/><circle class="cls-17" cx="342.01" cy="375.23" r="122.35"/><path class="cls-18" d="M248.13,324H230.9a121.82,121.82,0,0,0-11.23,51.27c0,2.17.05,4.33.17,6.48h28.29Z"/><path class="cls-19" d="M427.09,413.31H416.36v40.38h10.73a5,5,0,0,0,5-5V418.3A5,5,0,0,0,427.09,413.31Z"/><polygon class="cls-20" points="360.34 411.43 360.34 455.57 401.66 480.22 401.66 386.78 360.34 411.43"/><path class="cls-15" d="M416.86,488.12a2.51,2.51,0,0,1-2.5,2.5H403.65a2.51,2.51,0,0,1-2.49-2.5V378.88a2.5,2.5,0,0,1,2.49-2.5h10.71a2.51,2.51,0,0,1,2.5,2.5Z"/><path class="cls-21" d="M409.73,488.12V378.88a2.51,2.51,0,0,1,2.5-2.5h-8.58a2.5,2.5,0,0,0-2.49,2.5V488.12a2.51,2.51,0,0,0,2.49,2.5h8.58A2.51,2.51,0,0,1,409.73,488.12Z"/><path class="cls-20" d="M315,415H303.43a2.51,2.51,0,0,0-2.5,2.5v32a2.51,2.51,0,0,0,2.5,2.5H315Z"/><path class="cls-22" d="M308.18,449.5v-32a2.51,2.51,0,0,1,2.49-2.5h-7.24a2.51,2.51,0,0,0-2.5,2.5v32a2.51,2.51,0,0,0,2.5,2.49h7.24A2.5,2.5,0,0,1,308.18,449.5Z"/><path class="cls-15" d="M360.84,455.81a2.51,2.51,0,0,1-2.5,2.5H317a2.51,2.51,0,0,1-2.49-2.5V411.19a2.5,2.5,0,0,1,2.49-2.5h41.34a2.5,2.5,0,0,1,2.5,2.5Z"/><path class="cls-21" d="M324.41,455.81V411.19a2.51,2.51,0,0,1,2.5-2.5H317a2.5,2.5,0,0,0-2.49,2.5v44.62a2.51,2.51,0,0,0,2.49,2.5h9.91A2.51,2.51,0,0,1,324.41,455.81Z"/><path class="cls-23" d="M461.62,286.66a2.51,2.51,0,0,0-2.49-2.5H391a2.51,2.51,0,0,0-2.5,2.5v47.42a2.51,2.51,0,0,0,2.5,2.5h20.57a5.63,5.63,0,0,1,4,2l8,10.72a1.77,1.77,0,0,0,3,0l8-10.72a5.61,5.61,0,0,1,4-2h20.57a2.51,2.51,0,0,0,2.49-2.5V286.66Z"/><path class="cls-24" d="M398.4,334.08V286.66a2.51,2.51,0,0,1,2.5-2.5H391a2.51,2.51,0,0,0-2.5,2.5v47.42a2.51,2.51,0,0,0,2.5,2.5h9.91A2.51,2.51,0,0,1,398.4,334.08Z"/><path class="cls-14" d="M446.45,302.69H403.66a3.75,3.75,0,0,1,0-7.49h42.79a3.75,3.75,0,1,1,0,7.49Z"/><path class="cls-14" d="M446.45,314.3H403.66a3.75,3.75,0,0,1,0-7.49h42.79a3.75,3.75,0,1,1,0,7.49Z"/><path class="cls-14" d="M425.14,325.91H403.66a3.75,3.75,0,0,1,0-7.49h21.48a3.75,3.75,0,1,1,0,7.49Z"/><circle class="cls-15" cx="353.5" cy="274.16" r="27.77"/><path class="cls-21" d="M335.64,274.16a27.77,27.77,0,0,1,22.81-27.32,27.77,27.77,0,1,0,0,54.64A27.77,27.77,0,0,1,335.64,274.16Z"/><path class="cls-14" d="M353.45,289.45a1.67,1.67,0,0,1-1.19-.5l-13.12-13.23a8.52,8.52,0,0,1,0-12,8.35,8.35,0,0,1,11.86,0l2.5,2.53,2.5-2.53a8.35,8.35,0,0,1,11.86,0,8.52,8.52,0,0,1,0,12L354.64,289A1.67,1.67,0,0,1,353.45,289.45Z"/><path class="cls-15" d="M258.2,428.13a1.37,1.37,0,0,1-1-.43l-11.08-11.16a7.18,7.18,0,0,1,0-10.09,7,7,0,0,1,10,0l2.11,2.13,2.12-2.13a7,7,0,0,1,10,0,7.16,7.16,0,0,1,0,10.09l-11.15,11.17A1.42,1.42,0,0,1,258.2,428.13Z"/><path class="cls-21" d="M251.7,414.21a7.18,7.18,0,0,1-.23-9.84h-.34a7,7,0,0,0-5,2.09,7.18,7.18,0,0,0,0,10.09L257.2,427.7a1.42,1.42,0,0,0,2,0l3-3Z"/><path class="cls-25" d="M312.63,385.08v-6.89a7,7,0,0,1,7-7h1.61a.5.5,0,0,0,.5-.5.5.5,0,0,0-.5-.5,7,7,0,0,1-7-7v-6.89a7,7,0,0,1,7-7,.5.5,0,0,0,.5-.5.5.5,0,0,0-.5-.5,7,7,0,0,1-7-7v-6.9a7,7,0,0,1,7-7,.5.5,0,0,0,.5-.5.5.5,0,0,0-.5-.5h-3.08a7,7,0,0,1-7-7v-6.89a7,7,0,0,1,5.74-6.87V278.86a7.51,7.51,0,0,0-7.49-7.49H297.76a8.86,8.86,0,0,0-8.51,7.42l-4.69,34.44c-.55,4.06-3.49,7.39-6.54,7.42v64.92h34.64C312.65,385.41,312.63,385.25,312.63,385.08Z"/><path class="cls-26" d="M309.41,271.37H297.76a8.86,8.86,0,0,0-8.51,7.42l-4.69,34.44c-.55,4.06-3.49,7.39-6.54,7.42v9.91h9.88c3.06,0,6-3.34,6.57-7.42l4.69-34.44a8.86,8.86,0,0,1,8.5-7.42h9.24v-2.42A7.51,7.51,0,0,0,309.41,271.37Z"/><path class="cls-25" d="M319.63,392.58a7.52,7.52,0,0,1-7.49-7.5v-6.89a7.51,7.51,0,0,1,7.49-7.49h40.62a7.51,7.51,0,0,1,7.49,7.49v6.89a7.52,7.52,0,0,1-7.49,7.5Z"/><path class="cls-19" d="M250.13,393.69a2.5,2.5,0,0,1-2.5-2.49V314.47a2.51,2.51,0,0,1,2.5-2.5H276a2.51,2.51,0,0,1,2.49,2.5V391.2a2.5,2.5,0,0,1-2.49,2.49Z"/><path class="cls-27" d="M257.54,391.2V314.47A2.51,2.51,0,0,1,260,312h-9.91a2.51,2.51,0,0,0-2.5,2.5V391.2a2.5,2.5,0,0,0,2.5,2.49H260A2.5,2.5,0,0,1,257.54,391.2Z"/><circle class="cls-28" cx="263.08" cy="324.2" r="6.68"/><path class="cls-25" d="M318.16,327a7.51,7.51,0,0,1-7.49-7.49v-6.89a7.51,7.51,0,0,1,7.49-7.49h42.09a7.51,7.51,0,0,1,7.49,7.49v6.89a7.51,7.51,0,0,1-7.49,7.49Z"/><path class="cls-25" d="M321.24,348.83a7.51,7.51,0,0,1-7.49-7.49v-6.9a7.51,7.51,0,0,1,7.49-7.49h40.83a7.51,7.51,0,0,1,7.49,7.49v6.9a7.51,7.51,0,0,1-7.49,7.49Z"/><path class="cls-25" d="M321.24,370.7a7.51,7.51,0,0,1-7.49-7.49v-6.89a7.51,7.51,0,0,1,7.49-7.49h40.83a7.51,7.51,0,0,1,7.49,7.49v6.89a7.51,7.51,0,0,1-7.49,7.49Z"/><path class="cls-26" d="M327.34,384.86a7.51,7.51,0,0,1-7.49-7.49V370.7h-.22a7.51,7.51,0,0,0-7.49,7.49v6.9a7.52,7.52,0,0,0,7.49,7.49h40.62a7.52,7.52,0,0,0,7.49-7.49v-.23Z"/><path class="cls-26" d="M325.87,319.24a7.51,7.51,0,0,1-7.49-7.49v-6.67h-.22a7.51,7.51,0,0,0-7.49,7.49v6.89a7.51,7.51,0,0,0,7.49,7.49h42.09a7.51,7.51,0,0,0,7.49-7.49v-.22Z"/><path class="cls-26" d="M329,341.12a7.51,7.51,0,0,1-7.49-7.49V327h-.22a7.51,7.51,0,0,0-7.49,7.49v6.9a7.51,7.51,0,0,0,7.49,7.49h40.83a7.51,7.51,0,0,0,7.49-7.49v-.22Z"/><path class="cls-26" d="M329,363a7.51,7.51,0,0,1-7.49-7.49v-6.67h-.22a7.51,7.51,0,0,0-7.49,7.49v6.89a7.51,7.51,0,0,0,7.49,7.49h40.83a7.51,7.51,0,0,0,7.49-7.49V363Z"/><path class="cls-11" d="M280.58,438.72H235.91a1,1,0,0,0-1,1v28.66a1,1,0,0,0,1,1h44.67a1,1,0,0,0,1-1V439.72A1,1,0,0,0,280.58,438.72Z"/><path class="cls-12" d="M244.83,468.38V446.55l-9.67-7.47a.71.71,0,0,1,.15-.15,1,1,0,0,0-.39.79v28.66a1,1,0,0,0,1,1h9.91A1,1,0,0,1,244.83,468.38Z"/><path class="cls-29" d="M280.58,438.72H235.91a1,1,0,0,0-.75.36l22.3,17.24a1.37,1.37,0,0,0,1.57,0l22.3-17.24A1,1,0,0,0,280.58,438.72Z"/><path class="cls-11" d="M474.35,360.07H429.68a1,1,0,0,0-1,1v28.67a1,1,0,0,0,1,1h44.67a1,1,0,0,0,1-1V361.07A1,1,0,0,0,474.35,360.07Z"/><path class="cls-12" d="M438.59,389.74V367.9l-9.67-7.47.15-.14a1,1,0,0,0-.38.78v28.67a1,1,0,0,0,1,1h9.91A1,1,0,0,1,438.59,389.74Z"/><path class="cls-29" d="M474.35,360.07H429.68a1,1,0,0,0-.76.36l22.31,17.24a1.37,1.37,0,0,0,1.57,0l22.3-17.24A1,1,0,0,0,474.35,360.07Z"/><path class="cls-13" d="M258.85,12.59c0,15-12.59,26.15-12.59,26.15S233.67,27.6,233.67,12.59a12.59,12.59,0,0,1,25.18,0Z"/><circle class="cls-30" cx="246.26" cy="12.59" r="7.62"/><path class="cls-13" d="M225.85,114.59c0,15-12.59,26.15-12.59,26.15s-12.59-11.14-12.59-26.15a12.59,12.59,0,0,1,25.18,0Z"/><circle class="cls-30" cx="213.26" cy="114.59" r="7.62"/><path class="cls-13" d="M167.85,90.59c0,15-12.59,26.15-12.59,26.15s-12.59-11.14-12.59-26.15a12.59,12.59,0,0,1,25.18,0Z"/><circle class="cls-30" cx="155.26" cy="90.59" r="7.62"/><path class="cls-13" d="M260.77,149.84c0,15-12.59,26.15-12.59,26.15s-12.59-11.14-12.59-26.15a12.59,12.59,0,1,1,25.18,0Z"/><circle class="cls-30" cx="248.18" cy="149.84" r="7.62"/></g></g></svg>