<svg xmlns="http://www.w3.org/2000/svg" xmlns:xlink="http://www.w3.org/1999/xlink" viewBox="0 0 543.95 1573.02"><defs><style>.cls-1,.cls-2,.cls-5{fill:none;}.cls-1{clip-rule:evenodd;}.cls-12,.cls-13,.cls-2,.cls-3,.cls-4,.cls-7,.cls-8,.cls-9{fill-rule:evenodd;}.cls-3{fill:#fff;}.cls-4{fill:#e9bd9a;}.cls-5{stroke:#1d1e1c;stroke-miterlimit:8;stroke-width:3px;}.cls-6{clip-path:url(#clip-path);}.cls-7{fill:#f3a28d;}.cls-8{fill:#159f84;opacity:0.57;}.cls-9{fill:#bc8380;}.cls-10{clip-path:url(#clip-path-10);}.cls-11{clip-path:url(#clip-path-19);}.cls-13{fill:#efa289;}.cls-14{clip-path:url(#clip-path-28);}.cls-15{clip-path:url(#clip-path-37);}.cls-16{clip-path:url(#clip-path-46);}.cls-17{clip-path:url(#clip-path-55);}.cls-18{clip-path:url(#clip-path-64);}</style><clipPath id="clip-path" transform="translate(-5.54)"><polygon class="cls-1" points="451.43 211.31 342.1 174.45 304.39 286.32 413.72 323.17 451.43 211.31 451.43 211.31"/></clipPath><clipPath id="clip-path-10" transform="translate(-5.54)"><polygon class="cls-1" points="574.43 43.31 465.1 6.45 427.39 118.32 536.72 155.17 574.43 43.31 574.43 43.31"/></clipPath><clipPath id="clip-path-19" transform="translate(-5.54)"><polygon class="cls-1" points="0 9.49 7.78 79.77 79.68 71.81 71.91 1.53 0 9.49 0 9.49"/></clipPath><clipPath id="clip-path-28" transform="translate(-5.54)"><polygon class="cls-1" points="105.79 568.84 188.8 634.07 255.55 549.13 172.53 483.9 105.79 568.84 105.79 568.84"/></clipPath><clipPath id="clip-path-37" transform="translate(-5.54)"><polygon class="cls-1" points="460.87 617.95 526.82 535.51 442.47 468.02 376.51 550.46 460.87 617.95 460.87 617.95"/></clipPath><clipPath id="clip-path-46" transform="translate(-5.54)"><polygon class="cls-1" points="235.23 998.7 336.87 1027.27 366.11 923.28 264.47 894.7 235.23 998.7 235.23 998.7"/></clipPath><clipPath id="clip-path-55" transform="translate(-5.54)"><polygon class="cls-1" points="442.88 1465.82 432.76 1570.78 541.07 1581.22 551.2 1476.27 442.88 1465.82 442.88 1465.82"/></clipPath><clipPath id="clip-path-64" transform="translate(-5.54)"><polygon class="cls-1" points="531 1193.43 517.48 1088.72 410.34 1102.55 423.86 1207.26 531 1193.43 531 1193.43"/></clipPath></defs><g id="Слой_2" data-name="Слой 2"><g id="Слой_1-2" data-name="Слой 1"><path class="cls-3" d="M421.58,291.57A30.38,30.38,0,0,1,386,310.94a29.3,29.3,0,0,1-18.21-13.48,30.67,30.67,0,0,1-3.38-23.5c2.73-10.79-3.87-22-18.61-31.72a30.39,30.39,0,0,1-11.56-36.19,32,32,0,0,1,3-6,30.47,30.47,0,0,1,19.39-13.59,29.18,29.18,0,0,1,22.31,4.14c54.48,35.75,47.2,83.89,43.67,97.81a32.29,32.29,0,0,1-1,3.17Z" transform="translate(-5.54)"/><path class="cls-4" d="M421.58,291.57A30.38,30.38,0,0,1,386,310.94a29.3,29.3,0,0,1-18.21-13.48,30.67,30.67,0,0,1-3.38-23.5c2.73-10.79-3.87-22-18.61-31.72a30.39,30.39,0,0,1-11.56-36.19,32,32,0,0,1,3-6,30.47,30.47,0,0,1,19.39-13.59,29.18,29.18,0,0,1,22.31,4.14c54.48,35.75,47.2,83.89,43.67,97.81a32.29,32.29,0,0,1-1,3.17Z" transform="translate(-5.54)"/><path class="cls-5" d="M421.58,291.57A30.38,30.38,0,0,1,386,310.94a29.3,29.3,0,0,1-18.21-13.48,30.67,30.67,0,0,1-3.38-23.5c2.73-10.79-3.87-22-18.61-31.72a30.39,30.39,0,0,1-11.56-36.19,32,32,0,0,1,3-6,30.47,30.47,0,0,1,19.39-13.59,29.18,29.18,0,0,1,22.31,4.14c54.48,35.75,47.2,83.89,43.67,97.81a32.29,32.29,0,0,1-1,3.17Z" transform="translate(-5.54)"/><g class="cls-6"><path class="cls-7" d="M411.52,287.06A20.18,20.18,0,0,1,388,300a19.16,19.16,0,0,1-11.9-8.83,20.47,20.47,0,0,1-2.23-15.72c2.14-8.46,2.14-25-22-40.84a20.46,20.46,0,0,1-7.59-24.07,21.35,21.35,0,0,1,2-4.06,20.27,20.27,0,0,1,12.9-9.07,19,19,0,0,1,14.57,2.69c47.68,31.3,41.47,72.79,38.43,84.77-.19.73-.41,1.45-.67,2.16Z" transform="translate(-5.54)"/><g class="cls-6"><path class="cls-8" d="M373.53,217.39A7.45,7.45,0,1,1,364,221.8a7.46,7.46,0,0,1,9.57-4.41Z" transform="translate(-5.54)"/><g class="cls-6"><path class="cls-9" d="M393.46,276.37a5.59,5.59,0,1,1-7.18,3.31,5.59,5.59,0,0,1,7.18-3.31Z" transform="translate(-5.54)"/><g class="cls-6"><path class="cls-8" d="M391.92,232.12a5.59,5.59,0,1,1-7.18,3.31,5.6,5.6,0,0,1,7.18-3.31Z" transform="translate(-5.54)"/><g class="cls-6"><path class="cls-8" d="M388.12,258.52a1.84,1.84,0,0,1-.38.61,2.07,2.07,0,0,1-.58.44,2,2,0,0,1-.71.16,1.86,1.86,0,0,1-1.77-1.07,2,2,0,0,1-.16-.72,1.92,1.92,0,0,1,1.07-1.77,2,2,0,0,1,1.43,0,1.61,1.61,0,0,1,.61.38,1.66,1.66,0,0,1,.44.58,1.91,1.91,0,0,1,.05,1.43Z" transform="translate(-5.54)"/><g class="cls-6"><path class="cls-8" d="M402.57,267.82a1.91,1.91,0,0,1-.38.61,2.22,2.22,0,0,1-.58.44,2,2,0,0,1-.72.16,1.73,1.73,0,0,1-.71-.11,2,2,0,0,1-1.06-1,2.2,2.2,0,0,1-.15-.71,1.85,1.85,0,0,1,2.5-1.82,2,2,0,0,1,.61.38,2.07,2.07,0,0,1,.44.58,2,2,0,0,1,.05,1.43Z" transform="translate(-5.54)"/><g class="cls-6"><path class="cls-8" d="M401.2,255.4a1.77,1.77,0,0,1-.39.61,1.94,1.94,0,0,1-.58.44,1.89,1.89,0,0,1-.71.16,1.71,1.71,0,0,1-.71-.11,2,2,0,0,1-1.06-1,2.2,2.2,0,0,1-.15-.71,1.85,1.85,0,0,1,3.11-1.44,2.07,2.07,0,0,1,.44.58,2,2,0,0,1,.05,1.43Z" transform="translate(-5.54)"/><g class="cls-6"><path class="cls-8" d="M355.22,218.58a2,2,0,0,1-.39.61,1.94,1.94,0,0,1-.58.44,1.94,1.94,0,0,1-1.42.05,2,2,0,0,1-1.06-1,2.2,2.2,0,0,1-.15-.72,1.88,1.88,0,0,1,1.07-1.77,2,2,0,0,1,1.43,0,2,2,0,0,1,.61.39,1.94,1.94,0,0,1,.44.58,2,2,0,0,1,.05,1.43Z" transform="translate(-5.54)"/><g class="cls-6"><path class="cls-8" d="M366.72,208.92a2.07,2.07,0,0,1-.38.62,2.77,2.77,0,0,1-.58.44,2,2,0,0,1-.71.15,1.93,1.93,0,0,1-.72-.1,2,2,0,0,1-1.05-1,2,2,0,0,1-.16-.71,1.92,1.92,0,0,1,1.07-1.77,2,2,0,0,1,1.43-.05,1.77,1.77,0,0,1,.61.39,1.66,1.66,0,0,1,.44.58,1.89,1.89,0,0,1,.05,1.42Z" transform="translate(-5.54)"/></g></g></g></g></g></g></g></g></g><path class="cls-9" d="M401.44,265.35a2,2,0,1,1-2.5,1.16,2,2,0,0,1,2.5-1.16Z" transform="translate(-5.54)"/><path class="cls-9" d="M400,252.94a2,2,0,1,1-2.51,1.15,1.94,1.94,0,0,1,2.51-1.15Z" transform="translate(-5.54)"/><path class="cls-9" d="M387.08,256.07a2,2,0,0,1-1.35,3.66,2,2,0,1,1,1.35-3.66Z" transform="translate(-5.54)"/><path class="cls-9" d="M354.14,216.11a2,2,0,1,1-2.51,1.15,1.94,1.94,0,0,1,2.51-1.15Z" transform="translate(-5.54)"/><path class="cls-9" d="M373.68,217.4a7.58,7.58,0,1,1-9.73,4.48,7.57,7.57,0,0,1,9.73-4.48Z" transform="translate(-5.54)"/><path class="cls-9" d="M392.07,232a5.72,5.72,0,1,1-7.35,3.39,5.73,5.73,0,0,1,7.35-3.39Z" transform="translate(-5.54)"/><path class="cls-9" d="M365.64,206.41a2,2,0,1,1-1.35,3.66,2,2,0,0,1,1.35-3.66Z" transform="translate(-5.54)"/><path class="cls-3" d="M544.58,123.57A30.38,30.38,0,0,1,509,142.94a29.3,29.3,0,0,1-18.21-13.48,30.67,30.67,0,0,1-3.38-23.5c2.73-10.79-3.87-22-18.61-31.72a30.39,30.39,0,0,1-11.56-36.19,32,32,0,0,1,3-6,30.47,30.47,0,0,1,19.39-13.59,29.18,29.18,0,0,1,22.31,4.14c54.48,35.75,47.2,83.89,43.67,97.81a32.29,32.29,0,0,1-1,3.17Z" transform="translate(-5.54)"/><path class="cls-4" d="M544.58,123.57A30.38,30.38,0,0,1,509,142.94a29.3,29.3,0,0,1-18.21-13.48,30.67,30.67,0,0,1-3.38-23.5c2.73-10.79-3.87-22-18.61-31.72a30.39,30.39,0,0,1-11.56-36.19,32,32,0,0,1,3-6,30.47,30.47,0,0,1,19.39-13.59,29.18,29.18,0,0,1,22.31,4.14c54.48,35.75,47.2,83.89,43.67,97.81a32.29,32.29,0,0,1-1,3.17Z" transform="translate(-5.54)"/><path class="cls-5" d="M544.58,123.57A30.38,30.38,0,0,1,509,142.94a29.3,29.3,0,0,1-18.21-13.48,30.67,30.67,0,0,1-3.38-23.5c2.73-10.79-3.87-22-18.61-31.72a30.39,30.39,0,0,1-11.56-36.19,32,32,0,0,1,3-6,30.47,30.47,0,0,1,19.39-13.59,29.18,29.18,0,0,1,22.31,4.14c54.48,35.75,47.2,83.89,43.67,97.81a32.29,32.29,0,0,1-1,3.17Z" transform="translate(-5.54)"/><g class="cls-10"><path class="cls-7" d="M534.52,119.06A20.18,20.18,0,0,1,511,132a19.16,19.16,0,0,1-11.9-8.83,20.47,20.47,0,0,1-2.23-15.72c2.14-8.46,2.14-25-22-40.84a20.46,20.46,0,0,1-7.59-24.07,21.35,21.35,0,0,1,2-4.06,20.27,20.27,0,0,1,12.9-9.07,19,19,0,0,1,14.57,2.69c47.68,31.3,41.47,72.79,38.43,84.77-.19.73-.41,1.45-.67,2.16Z" transform="translate(-5.54)"/><g class="cls-10"><path class="cls-8" d="M496.53,49.39A7.45,7.45,0,1,1,487,53.8a7.46,7.46,0,0,1,9.57-4.41Z" transform="translate(-5.54)"/><g class="cls-10"><path class="cls-9" d="M516.46,108.37a5.59,5.59,0,1,1-7.18,3.31,5.59,5.59,0,0,1,7.18-3.31Z" transform="translate(-5.54)"/><g class="cls-10"><path class="cls-8" d="M514.92,64.12a5.59,5.59,0,1,1-7.18,3.31,5.6,5.6,0,0,1,7.18-3.31Z" transform="translate(-5.54)"/><g class="cls-10"><path class="cls-8" d="M511.12,90.52a1.84,1.84,0,0,1-.38.61,2.07,2.07,0,0,1-.58.44,2,2,0,0,1-.71.16,1.86,1.86,0,0,1-1.77-1.07,2,2,0,0,1-.16-.72,1.92,1.92,0,0,1,1.07-1.77,2,2,0,0,1,1.43,0,1.61,1.61,0,0,1,.61.38,1.66,1.66,0,0,1,.44.58,1.91,1.91,0,0,1,.05,1.43Z" transform="translate(-5.54)"/><g class="cls-10"><path class="cls-8" d="M525.57,99.82a1.91,1.91,0,0,1-.38.61,2.22,2.22,0,0,1-.58.44,2,2,0,0,1-.72.16,1.73,1.73,0,0,1-.71-.11,2,2,0,0,1-1.06-1,2.2,2.2,0,0,1-.15-.71,1.85,1.85,0,0,1,2.5-1.82,2,2,0,0,1,.61.38,2.07,2.07,0,0,1,.44.58,2,2,0,0,1,.05,1.43Z" transform="translate(-5.54)"/><g class="cls-10"><path class="cls-8" d="M524.2,87.4a1.77,1.77,0,0,1-.39.61,1.94,1.94,0,0,1-.58.44,1.89,1.89,0,0,1-.71.16,1.71,1.71,0,0,1-.71-.11,2,2,0,0,1-1.06-1,2.2,2.2,0,0,1-.15-.71,1.85,1.85,0,0,1,3.11-1.44,2.07,2.07,0,0,1,.44.58,2,2,0,0,1,.05,1.43Z" transform="translate(-5.54)"/><g class="cls-10"><path class="cls-8" d="M478.22,50.58a2,2,0,0,1-.39.61,1.94,1.94,0,0,1-.58.44,1.94,1.94,0,0,1-1.42,0,2,2,0,0,1-1.06-1,2.2,2.2,0,0,1-.15-.72,1.88,1.88,0,0,1,1.07-1.77,2,2,0,0,1,1.43,0,2,2,0,0,1,.61.39,1.94,1.94,0,0,1,.44.58,2,2,0,0,1,.05,1.43Z" transform="translate(-5.54)"/><g class="cls-10"><path class="cls-8" d="M489.72,40.92a2.07,2.07,0,0,1-.38.62,2.77,2.77,0,0,1-.58.44,2,2,0,0,1-.71.15,1.93,1.93,0,0,1-.72-.1,2,2,0,0,1-1.05-1,2,2,0,0,1-.16-.71,1.92,1.92,0,0,1,1.07-1.77,2,2,0,0,1,1.43,0,1.77,1.77,0,0,1,.61.39,1.66,1.66,0,0,1,.44.58,1.89,1.89,0,0,1,.05,1.42Z" transform="translate(-5.54)"/></g></g></g></g></g></g></g></g></g><path class="cls-9" d="M524.44,97.35a2,2,0,1,1-2.5,1.16,2,2,0,0,1,2.5-1.16Z" transform="translate(-5.54)"/><path class="cls-9" d="M523,84.94a2,2,0,1,1-2.51,1.15A1.94,1.94,0,0,1,523,84.94Z" transform="translate(-5.54)"/><path class="cls-9" d="M510.08,88.07a2,2,0,0,1-1.35,3.66,2,2,0,1,1,1.35-3.66Z" transform="translate(-5.54)"/><path class="cls-9" d="M477.14,48.11a2,2,0,1,1-2.51,1.15,1.94,1.94,0,0,1,2.51-1.15Z" transform="translate(-5.54)"/><path class="cls-9" d="M496.68,49.4A7.58,7.58,0,1,1,487,53.88a7.57,7.57,0,0,1,9.73-4.48Z" transform="translate(-5.54)"/><path class="cls-9" d="M515.07,64a5.72,5.72,0,1,1-7.35,3.39A5.73,5.73,0,0,1,515.07,64Z" transform="translate(-5.54)"/><path class="cls-9" d="M488.64,38.41a2,2,0,1,1-1.35,3.66,2,2,0,0,1,1.35-3.66Z" transform="translate(-5.54)"/><path class="cls-3" d="M52.31,5.33a18.63,18.63,0,0,1,20,14.78,17.94,17.94,0,0,1-2.79,13.6,18.76,18.76,0,0,1-12.18,7.95c-6.7,1.27-11.25,7.86-12.82,18.54A18.61,18.61,0,0,1,27.38,76a19.58,19.58,0,0,1-4.12-.1A18.71,18.71,0,0,1,10.7,68.62,18,18,0,0,1,7.23,55.15C13,15.64,41.65,7.24,50.29,5.61a20,20,0,0,1,2-.28Z" transform="translate(-5.54)"/><path class="cls-4" d="M52.31,5.33a18.63,18.63,0,0,1,20,14.78,17.94,17.94,0,0,1-2.79,13.6,18.76,18.76,0,0,1-12.18,7.95c-6.7,1.27-11.25,7.86-12.82,18.54A18.61,18.61,0,0,1,27.38,76a19.58,19.58,0,0,1-4.12-.1A18.71,18.71,0,0,1,10.7,68.62,18,18,0,0,1,7.23,55.15C13,15.64,41.65,7.24,50.29,5.61a20,20,0,0,1,2-.28Z" transform="translate(-5.54)"/><path class="cls-5" d="M52.31,5.33a18.63,18.63,0,0,1,20,14.78,17.94,17.94,0,0,1-2.79,13.6,18.76,18.76,0,0,1-12.18,7.95c-6.7,1.27-11.25,7.86-12.82,18.54A18.61,18.61,0,0,1,27.38,76a19.58,19.58,0,0,1-4.12-.1A18.71,18.71,0,0,1,10.7,68.62,18,18,0,0,1,7.23,55.15C13,15.64,41.65,7.24,50.29,5.61a20,20,0,0,1,2-.28Z" transform="translate(-5.54)"/><g class="cls-11"><path class="cls-7" d="M52.4,12.09a12.36,12.36,0,0,1,13.3,9.74,11.7,11.7,0,0,1-1.83,8.89A12.51,12.51,0,0,1,55.72,36c-5.26,1-14.46,5.27-17,22.76A12.52,12.52,0,0,1,27.28,69.22a12.83,12.83,0,0,1-2.77-.06,12.49,12.49,0,0,1-8.38-4.83,11.67,11.67,0,0,1-2.27-8.79C18.93,21,43.59,13.68,51,12.28a12.88,12.88,0,0,1,1.37-.19Z" transform="translate(-5.54)"/><g class="cls-11"><path class="cls-8" d="M23.52,51.21a4.57,4.57,0,1,1,4.92,4.18,4.56,4.56,0,0,1-4.92-4.18Z" transform="translate(-5.54)"/><g class="cls-11"><path class="cls-9" d="M51.14,24.89A3.42,3.42,0,1,1,54.83,28a3.42,3.42,0,0,1-3.69-3.13Z" transform="translate(-5.54)"/><g class="cls-11"><path class="cls-8" d="M27,37.18a3.42,3.42,0,1,1,3.69,3.13A3.41,3.41,0,0,1,27,37.18Z" transform="translate(-5.54)"/><g class="cls-11"><path class="cls-8" d="M42.59,32.47a1.3,1.3,0,0,1,.44.05,1.39,1.39,0,0,1,.4.21,1.3,1.3,0,0,1,.4.78,1.23,1.23,0,0,1-.27.84,1.31,1.31,0,0,1-.35.27,1.14,1.14,0,0,1-1.66-.92,1.09,1.09,0,0,1,.06-.44,1.16,1.16,0,0,1,.2-.4,1.25,1.25,0,0,1,.78-.39Z" transform="translate(-5.54)"/><g class="cls-11"><path class="cls-8" d="M44,22a1.09,1.09,0,0,1,.44.06,1.33,1.33,0,0,1,.39.21,1,1,0,0,1,.27.35,1.13,1.13,0,0,1,.13.43,1.18,1.18,0,0,1-.26.83,1.54,1.54,0,0,1-.36.27,1.16,1.16,0,0,1-1.26-.13,1.23,1.23,0,0,1-.4-.78,1.09,1.09,0,0,1,.06-.44,1,1,0,0,1,.21-.4A1.23,1.23,0,0,1,44,22Z" transform="translate(-5.54)"/><g class="cls-11"><path class="cls-8" d="M37.48,26a1.3,1.3,0,0,1,.44,0,1.39,1.39,0,0,1,.4.21,1.22,1.22,0,0,1,.27.36,1,1,0,0,1,.12.42,1.22,1.22,0,0,1-.26.84,1.31,1.31,0,0,1-.35.27A1.19,1.19,0,0,1,36.83,28a1.22,1.22,0,0,1-.39-.78,1.3,1.3,0,0,1,.05-.44,1.53,1.53,0,0,1,.21-.4,1.22,1.22,0,0,1,.78-.39Z" transform="translate(-5.54)"/><g class="cls-11"><path class="cls-8" d="M28.91,61.07a1.12,1.12,0,0,1,.44.06,1.47,1.47,0,0,1,.39.21,1.31,1.31,0,0,1,.27.35,1.33,1.33,0,0,1,.13.43,1.19,1.19,0,0,1-.27.83,1.31,1.31,0,0,1-.35.27,1.16,1.16,0,0,1-1.26-.13,1.21,1.21,0,0,1-.4-.78,1.09,1.09,0,0,1,.06-.44,1,1,0,0,1,.21-.4,1.19,1.19,0,0,1,.78-.4Z" transform="translate(-5.54)"/><g class="cls-11"><path class="cls-8" d="M20.57,57.18a1.3,1.3,0,0,1,.44,0,1.47,1.47,0,0,1,.39.21,1,1,0,0,1,.27.36,1,1,0,0,1,.13.42,1.22,1.22,0,0,1-.26.84,1.54,1.54,0,0,1-.36.27,1.18,1.18,0,0,1-1.26-.14,1.23,1.23,0,0,1-.4-.78,1.09,1.09,0,0,1,.06-.44,1,1,0,0,1,.21-.4,1.22,1.22,0,0,1,.78-.39Z" transform="translate(-5.54)"/></g></g></g></g></g></g></g></g></g><path class="cls-9" d="M43,23.3a1.19,1.19,0,0,1,2.38-.2,1.19,1.19,0,0,1-2.38.2Z" transform="translate(-5.54)"/><path class="cls-9" d="M36.41,27.29a1.2,1.2,0,1,1,1.29,1.09,1.2,1.2,0,0,1-1.29-1.09Z" transform="translate(-5.54)"/><path class="cls-9" d="M41.5,33.68a1.2,1.2,0,1,1,1.29,1.09,1.19,1.19,0,0,1-1.29-1.09Z" transform="translate(-5.54)"/><path class="cls-9" d="M27.81,62.31a1.2,1.2,0,1,1,1.29,1.1,1.21,1.21,0,0,1-1.29-1.1Z" transform="translate(-5.54)"/><path class="cls-9" d="M23.48,51.12a4.65,4.65,0,1,1,5,4.25,4.64,4.64,0,0,1-5-4.25Z" transform="translate(-5.54)"/><path class="cls-9" d="M26.85,37.12a3.51,3.51,0,1,1,3.78,3.21,3.5,3.5,0,0,1-3.78-3.21Z" transform="translate(-5.54)"/><path class="cls-9" d="M19.45,58.43a1.2,1.2,0,1,1,1.29,1.09,1.2,1.2,0,0,1-1.29-1.09Z" transform="translate(-5.54)"/><path class="cls-12" d="M315.13,61.13c.75,3.41-1.37,7.32-2.95,10.66S308,78,305.66,81.19s-5.51,7.74-7.29,9.58S296,92.34,295,92.24s-.48-.2-2.94-2-9.61-6.85-11.8-9-1.78-2.42-1.31-4.08,5.34-5.72,4.11-5.89-7.7,5.07-11.52,4.91-7.94-3-11.36-5.88S251.94,62.74,251,58.6s2.58-10.86,3.48-13.22c-3.52,1.63-8,4.67-11.67,4.29s-7.14-4.05-10.4-6.6a58.55,58.55,0,0,1-9.11-8.71,9.49,9.49,0,0,1-2.23-6.26c0-1.88.76-3.16,2.05-5.91s4.93-7.4,7-10.46C233.33,8.41,236,2.6,238.42.92s2.36-.76,4.54.33,6.27,4.48,8.51,6.24A36.79,36.79,0,0,1,256.63,12c1,1.2,1.13,1.43.67,2.77s-3.9,4.85-3.46,5.23S258,17.68,260,17a12.08,12.08,0,0,1,12.16,1.13,51.87,51.87,0,0,1,6.8,5.84c2,1.86,4.06,3.12,5,5.3s.89,5.38.75,7.8-1.68,5.73-1.63,6.75.59-.17,2-.64,4-2.2,6.31-2.18a13.35,13.35,0,0,1,7.39,2.28,52,52,0,0,1,9,8.09c2.73,3,6.67,6.36,7.41,9.76Z" transform="translate(-5.54)"/><path class="cls-13" d="M241.54,6.81c-4.51,5-8.53,11.38-10,13.17s-3.23,7.19-2.35,11.16c3-.13,9-1.72,10.66-3.07,3.59-2.8,7.17-8.63,10.85-13.71-4.58-4.21,0,0-9.16-7.55Z" transform="translate(-5.54)"/><path class="cls-13" d="M295.23,84.52a103.16,103.16,0,0,0,10.31-13.25c2.71-4.19,3.65-7.46,2-11.89-3,.13-8.2,2.34-10.63,3.88-3,3.8-6.9,9.05-10.58,14.13,4.58,4.21.05.34,8.89,7.13Z" transform="translate(-5.54)"/><path class="cls-13" d="M234.49,36.21c-.49-1.16-.58,1.41,3.89-.78s18-10.23,22.9-12.39,4.23-1.46,6.53-.61,5.59,4.7,7.25,5.74.07-.94-4,1.12-16,9-20.24,11.26-3.89,2-5.47,2.3-2.29.5-4-.49-6.37-5-6.87-6.15Z" transform="translate(-5.54)"/><path class="cls-13" d="M261.4,62.38c-.32-1.09-.5,1.42,3.88-.78s17.43-10.22,22.4-12.43,5-1.79,7.46-.83,6.65,5.39,7.13,6.58-.2-1.5-4.26.54-15.85,9.44-20.13,11.72-4,1.7-5.55,2a6.72,6.72,0,0,1-5.13-1c-1.33-1.09-5.48-4.67-5.8-5.76Z" transform="translate(-5.54)"/><path class="cls-13" d="M278.48,32.88c-1.82-.48-9.27,4.09-12.25,6.55s-4.26,5.16-5.67,8.22-4.41,9.48-2.76,10.11,9.38-3.85,12.64-6.32a22.72,22.72,0,0,0,6.75-9.13c1.34-3.09,3.12-9,1.29-9.43Z" transform="translate(-5.54)"/><path class="cls-12" d="M331.13,759.13c.75,3.41-1.37,7.32-2.95,10.66s-4.22,6.23-6.52,9.4-5.51,7.74-7.29,9.58-2.33,1.57-3.39,1.47-.48-.2-2.94-2-9.61-6.85-11.8-9-1.78-2.42-1.31-4.08,5.34-5.72,4.11-5.89-7.7,5.07-11.52,4.91-7.94-3-11.36-5.88-8.22-7.48-9.17-11.62,2.58-10.86,3.48-13.22c-3.52,1.63-8,4.67-11.67,4.29s-7.14-4-10.4-6.6a58.55,58.55,0,0,1-9.11-8.71,9.49,9.49,0,0,1-2.23-6.26c0-1.88.76-3.16,2.05-5.91s4.93-7.4,7-10.46c3.2-3.32,5.89-9.13,8.29-10.81s2.36-.76,4.54.33,6.27,4.48,8.51,6.24a36.79,36.79,0,0,1,5.16,4.46c1,1.2,1.13,1.43.67,2.77s-3.9,4.85-3.46,5.23,4.12-2.27,6.13-3a12.08,12.08,0,0,1,12.16,1.13,51.87,51.87,0,0,1,6.8,5.84c2,1.86,4.06,3.12,5,5.3s.89,5.38.75,7.8-1.68,5.73-1.63,6.75.59-.17,2-.64,4-2.2,6.31-2.18a13.35,13.35,0,0,1,7.39,2.28,52,52,0,0,1,9,8.09c2.73,3,6.67,6.36,7.41,9.76Z" transform="translate(-5.54)"/><path class="cls-13" d="M257.54,704.81c-4.51,5-8.53,11.38-10,13.17s-3.23,7.19-2.35,11.16c3-.13,9-1.72,10.66-3.07,3.59-2.8,7.17-8.63,10.85-13.71-4.58-4.21,0,0-9.16-7.55Z" transform="translate(-5.54)"/><path class="cls-13" d="M311.23,782.52a103.16,103.16,0,0,0,10.31-13.25c2.71-4.19,3.65-7.46,2-11.89-3,.13-8.2,2.34-10.63,3.88-3,3.8-6.9,9-10.58,14.13,4.58,4.21.05.34,8.89,7.13Z" transform="translate(-5.54)"/><path class="cls-13" d="M250.49,734.21c-.49-1.16-.58,1.41,3.89-.78s18-10.23,22.9-12.39,4.23-1.46,6.53-.61,5.59,4.7,7.25,5.74.07-.94-4,1.12-16,9-20.24,11.26-3.89,2-5.47,2.3-2.29.5-4-.49-6.37-5-6.87-6.15Z" transform="translate(-5.54)"/><path class="cls-13" d="M277.4,760.38c-.32-1.09-.5,1.42,3.88-.78s17.43-10.22,22.4-12.43,5-1.79,7.46-.83,6.65,5.39,7.13,6.58-.2-1.5-4.26.54-15.85,9.44-20.13,11.72-4,1.7-5.55,2a6.72,6.72,0,0,1-5.13-1c-1.33-1.09-5.48-4.67-5.8-5.76Z" transform="translate(-5.54)"/><path class="cls-13" d="M294.48,730.88c-1.82-.48-9.27,4.09-12.25,6.55s-4.26,5.16-5.67,8.22-4.41,9.48-2.76,10.11,9.38-3.85,12.64-6.32a22.72,22.72,0,0,0,6.75-9.13c1.34-3.09,3.12-8.95,1.29-9.43Z" transform="translate(-5.54)"/><path class="cls-12" d="M501.13,1391.13c.75,3.41-1.37,7.32-2.95,10.66s-4.22,6.23-6.52,9.4-5.51,7.74-7.29,9.58-2.33,1.57-3.39,1.47-.48-.2-2.94-2-9.61-6.85-11.8-9-1.78-2.42-1.31-4.08,5.34-5.72,4.11-5.89-7.7,5.07-11.52,4.91-7.94-3-11.36-5.88-8.22-7.48-9.17-11.62,2.58-10.86,3.48-13.22c-3.52,1.63-8,4.67-11.67,4.29s-7.14-4.05-10.4-6.6a58.55,58.55,0,0,1-9.11-8.71,9.49,9.49,0,0,1-2.23-6.26c0-1.88.76-3.16,2.05-5.91s4.93-7.4,7-10.46c3.2-3.32,5.89-9.13,8.29-10.81s2.36-.76,4.54.33,6.27,4.48,8.51,6.24a36.79,36.79,0,0,1,5.16,4.46c1,1.2,1.13,1.43.67,2.77s-3.9,4.85-3.46,5.23,4.12-2.27,6.13-3a12.08,12.08,0,0,1,12.16,1.13,51.87,51.87,0,0,1,6.8,5.84c2,1.86,4.06,3.12,5,5.3s.89,5.38.75,7.8-1.68,5.73-1.63,6.75.59-.17,2-.64,4-2.2,6.31-2.18a13.35,13.35,0,0,1,7.39,2.28,52,52,0,0,1,9,8.09c2.73,3,6.67,6.36,7.41,9.76Z" transform="translate(-5.54)"/><path class="cls-13" d="M427.54,1336.81c-4.51,5-8.53,11.38-10,13.17s-3.23,7.19-2.35,11.16c3-.13,9-1.72,10.66-3.07,3.59-2.8,7.17-8.63,10.85-13.71-4.58-4.21,0,0-9.16-7.55Z" transform="translate(-5.54)"/><path class="cls-13" d="M481.23,1414.52a103.16,103.16,0,0,0,10.31-13.25c2.71-4.19,3.65-7.46,2-11.89-3,.13-8.2,2.34-10.63,3.88-3,3.8-6.9,9-10.58,14.13,4.58,4.21.05.34,8.89,7.13Z" transform="translate(-5.54)"/><path class="cls-13" d="M420.49,1366.21c-.49-1.16-.58,1.41,3.89-.78s18-10.23,22.9-12.39,4.23-1.46,6.53-.61,5.59,4.7,7.25,5.74.07-.94-4,1.12-16,9-20.24,11.26-3.89,2-5.47,2.3-2.29.5-4-.49-6.37-5-6.87-6.15Z" transform="translate(-5.54)"/><path class="cls-13" d="M447.4,1392.38c-.32-1.09-.5,1.42,3.88-.78s17.43-10.22,22.4-12.43,5-1.79,7.46-.83,6.65,5.39,7.13,6.58-.2-1.5-4.26.54-15.85,9.44-20.13,11.72-4,1.7-5.55,2a6.72,6.72,0,0,1-5.13-1c-1.33-1.09-5.48-4.67-5.8-5.76Z" transform="translate(-5.54)"/><path class="cls-13" d="M464.48,1362.88c-1.82-.48-9.27,4.09-12.25,6.55s-4.26,5.16-5.67,8.22-4.41,9.48-2.76,10.11,9.38-3.85,12.64-6.32a22.72,22.72,0,0,0,6.75-9.13c1.34-3.09,3.12-9,1.29-9.43Z" transform="translate(-5.54)"/><path class="cls-12" d="M500.65,773.74c-1.76,1.09-4.36.67-6.54.45a37,37,0,0,1-6.55-1.79c-2.23-.66-5.42-1.55-6.8-2.18s-1.34-1-1.5-1.61,0-.31.57-2.05,1.93-6.73,2.72-8.39,1-1.47,2-1.54,4.25,1.86,4.1,1.14-4.36-3.31-5-5.47.09-5,1-7.52,2.57-6.08,4.7-7.43,6.58-.7,8.08-.66c-1.61-1.65-4.2-3.55-4.71-5.68s.86-4.8,1.64-7.12a35.15,35.15,0,0,1,3.07-6.82,5.58,5.58,0,0,1,3.07-2.48c1.05-.37,1.91-.2,3.71,0a63.38,63.38,0,0,1,7.23,1.86c2.5,1.14,6.28,1.5,7.69,2.51s.89,1.17.71,2.6a44.74,44.74,0,0,1-1.81,6,22,22,0,0,1-1.47,3.76c-.48.78-.58.92-1.42.92s-3.49-1.22-3.61-.9,2.09,1.86,2.86,2.85a7.17,7.17,0,0,1,1.77,7,30.24,30.24,0,0,1-1.92,4.95c-.65,1.47-.94,2.89-2,3.86a10.77,10.77,0,0,1-4.22,2c-1.38.4-3.54.19-4.09.43s.21.29.74,1,2,1.82,2.47,3.1a8,8,0,0,1,.18,4.59,31.07,31.07,0,0,1-2.75,6.61c-1.13,2.12-2.24,5-4,6.08Z" transform="translate(-5.54)"/><path class="cls-13" d="M516.5,721.84c-3.7-1.53-8.05-2.53-9.34-3a9.65,9.65,0,0,0-6.71.89c.66,1.65,2.74,4.7,3.83,5.36,2.27,1.45,6.24,2.3,9.81,3.36,1.45-3.39,0,0,2.41-6.61Z" transform="translate(-5.54)"/><path class="cls-13" d="M483.64,767.23a61.52,61.52,0,0,0,9.44,3.15c2.88.68,4.9.57,7.05-1.23a16.86,16.86,0,0,0-4.27-5.18c-2.72-.94-6.43-2.07-10-3.13-1.46,3.39-.18.1-2.23,6.39Z" transform="translate(-5.54)"/><path class="cls-13" d="M498.66,723.7c.55-.5-.9,0,1.21,2s9.27,8,11.45,10.36,1.66,2.08,1.63,3.54-1.52,4-1.77,5.19.54-.15-1.42-2-8.18-7.14-10.29-9.1-1.89-1.77-2.37-2.6a2.69,2.69,0,0,1-.52-2.35,18,18,0,0,1,2.08-5.06Z" transform="translate(-5.54)"/><path class="cls-13" d="M489.34,743.93c.54-.4-.9,0,1.2,2s9.16,7.73,11.38,10.08,2,2.46,1.94,4a12.62,12.62,0,0,1-2.28,5.29c-.57.5.8-.41-1.14-2.28s-8.41-7-10.54-8.95-1.73-1.88-2.21-2.71a4,4,0,0,1-.43-3.07c.35-1,1.53-4,2.08-4.38Z" transform="translate(-5.54)"/><path class="cls-13" d="M509.22,747.65c-.1-1.11-4.12-4.37-6.09-5.56a12.35,12.35,0,0,0-5.72-1.55c-2-.18-6.17-.59-6.2.46s4,4.49,6,5.82a13.61,13.61,0,0,0,6.44,2c2,.14,5.63,0,5.54-1.14Z" transform="translate(-5.54)"/><path class="cls-12" d="M512.57,948.53c-1.34,2.56-4.76,3.92-7.54,5.2s-6,1.73-9.14,2.52-7.61,2-9.72,2.22-2.32-.24-2.94-.86-.2-.39-.78-2.87-2.48-9.46-2.71-12,.16-2.48,1.34-3.29,6.43-.8,5.73-1.56-7.59-.86-9.92-3-3.48-6.1-4.11-9.77-1.25-9.13.34-12.26,7.41-5.54,9.23-6.57c-3.1-.82-7.56-1.26-9.69-3.46s-2.4-6.37-3.11-9.72a49.13,49.13,0,0,1-1.17-10.38,7.81,7.81,0,0,1,1.91-5.16c1-1.19,2.16-1.6,4.44-2.67s7.07-2.09,10-2.93c3.8-.41,8.6-2.67,11-2.46s1.9.76,2.71,2.61a62.15,62.15,0,0,1,2.1,8.5,30.8,30.8,0,0,1,.91,5.56c0,1.29,0,1.52-1,2.12s-5.06,1-5,1.5,3.82.74,5.46,1.37a10.06,10.06,0,0,1,7.14,7.18,42.69,42.69,0,0,1,1.21,7.32c.27,2.23.94,4.14.39,6s-2.29,3.89-3.67,5.36-4.11,2.75-4.61,3.43.46.2,1.59.63,3.73.74,5.17,2a11.18,11.18,0,0,1,3.49,5.37,43.7,43.7,0,0,1,1.41,9.91c.15,3.34.86,7.59-.47,10.15Z" transform="translate(-5.54)"/><path class="cls-13" d="M494.62,874.91c-5.54.8-11.48,2.7-13.36,3.06a13.44,13.44,0,0,0-7.42,5.85c2,1.51,6.64,3.69,8.41,3.71,3.77.12,9.14-1.69,14.18-3-.67-5.11,0,0-1.81-9.66Z" transform="translate(-5.54)"/><path class="cls-13" d="M487.49,952.83a85.57,85.57,0,0,0,13.59-3c3.95-1.22,6.28-2.8,7.59-6.49-2-1.51-6.46-2.87-8.81-3.18-3.94.81-9.2,2.09-14.24,3.36.68,5.11-.14.25,1.87,9.26Z" transform="translate(-5.54)"/><path class="cls-13" d="M474.52,889.86c.3-1-1.12.59,2.89,1.57s16.87,3.05,21.14,4.28S502,897,503,898.79s1.06,6,1.57,7.5.54-.56-3.12-1.39-14.92-2.75-18.85-3.59-3.53-.79-4.7-1.44a3.81,3.81,0,0,1-2.3-2.45c-.57-1.55-1.39-6.56-1.1-7.56Z" transform="translate(-5.54)"/><path class="cls-13" d="M477.73,920.79c.38-.86-1.07.64,2.89,1.57s16.5,2.75,20.84,4,4.15,1.53,5.18,3.44,1.37,7,1.05,8,.66-1.06-3-1.92-15.08-2.42-19-3.24-3.42-1-4.58-1.67a5.56,5.56,0,0,1-2.72-3.39c-.26-1.4-1-5.88-.63-6.74Z" transform="translate(-5.54)"/><path class="cls-13" d="M504.26,911.1c-.9-1.28-8.06-2.32-11.27-2.34s-5.45,1-8,2.21-7.83,3.69-7.12,5,8,2.54,11.39,2.69a18.84,18.84,0,0,0,9.14-2.22c2.49-1.25,6.74-4,5.83-5.31Z" transform="translate(-5.54)"/><path class="cls-12" d="M273.09,1100.29c.8,1.8.08,4.21-.41,6.25a35.85,35.85,0,0,1-2.53,6c-.91,2-2.16,4.93-2.93,6.16s-1.12,1.14-1.71,1.21-.3-.06-1.87-.8-6.13-2.68-7.59-3.64-1.27-1.14-1.2-2.11,2.3-3.8,1.6-3.74-3.69,3.7-5.82,4.05-4.75-.72-7-2-5.43-3.2-6.43-5.38.17-6.32.39-7.74c-1.75,1.32-3.89,3.52-6,3.73s-4.43-1.42-6.53-2.46a33.7,33.7,0,0,1-6.06-3.77,5.35,5.35,0,0,1-2-3.22c-.21-1,.06-1.84.45-3.51a59.27,59.27,0,0,1,2.68-6.61c1.4-2.22,2.22-5.75,3.36-7s1.22-.7,2.55-.34a43,43,0,0,1,5.45,2.48,22.06,22.06,0,0,1,3.37,1.87c.67.56.79.67.69,1.46s-1.6,3.14-1.31,3.3,2-1.73,3.06-2.34a6.84,6.84,0,0,1,6.87-.78,29.14,29.14,0,0,1,4.45,2.45c1.3.8,2.61,1.26,3.4,2.36a10.38,10.38,0,0,1,1.32,4.24c.2,1.36-.27,3.37-.12,3.93s.3-.16,1-.58,2-1.69,3.25-1.94a7.54,7.54,0,0,1,4.37.41,29.48,29.48,0,0,1,5.9,3.45c1.86,1.33,4.44,2.75,5.25,4.56Z" transform="translate(-5.54)"/><path class="cls-13" d="M226,1078.67c-1.92,3.31-3.42,7.29-4,8.46a9.16,9.16,0,0,0,0,6.46c1.64-.42,4.8-2,5.56-2.94,1.66-2,3-5.61,4.43-8.85-3-1.81,0,0-5.95-3.13Z" transform="translate(-5.54)"/><path class="cls-13" d="M264.75,1115.56a59,59,0,0,0,4.19-8.54c1-2.64,1.16-4.56-.26-6.83a16.27,16.27,0,0,0-5.45,3.38c-1.23,2.46-2.78,5.82-4.23,9.06,3,1.81.07.18,5.75,2.93Z" transform="translate(-5.54)"/><path class="cls-13" d="M225.48,1095.79c-.41-.59-.16.85,2.06-.88s8.8-7.76,11.27-9.52,2.18-1.3,3.55-1.1,3.65,2,4.69,2.35-.07-.53-2.07,1.08-7.81,6.83-9.92,8.58-1.93,1.56-2.77,1.91a2.58,2.58,0,0,1-2.29.2,17,17,0,0,1-4.52-2.62Z" transform="translate(-5.54)"/><path class="cls-13" d="M243.43,1107.19c-.3-.57-.11.85,2.06-.88s8.48-7.68,11-9.48,2.58-1.58,4-1.33a11.83,11.83,0,0,1,4.71,2.83c.41.6-.28-.81-2.3.79s-7.7,7.07-9.81,8.83-2,1.4-2.84,1.75a3.83,3.83,0,0,1-3,0c-.86-.45-3.58-2-3.88-2.53Z" transform="translate(-5.54)"/><path class="cls-13" d="M249.49,1088.85c-1.07,0-4.67,3.34-6,5.06a11.57,11.57,0,0,0-2.19,5.21c-.43,1.85-1.35,5.77-.36,5.93s4.76-3.22,6.28-5a12.85,12.85,0,0,0,2.68-5.84c.39-1.87.7-5.33-.37-5.39Z" transform="translate(-5.54)"/><path class="cls-12" d="M336.91,1526.11c-2,.21-4-1.23-5.82-2.33a35.53,35.53,0,0,1-4.88-4.25c-1.64-1.5-4-3.59-4.94-4.71s-.74-1.41-.62-2,.15-.26,1.34-1.53,4.46-5,5.82-6.08,1.48-.85,2.38-.48,2.89,3.37,3.06,2.68-2.38-4.65-2.05-6.79,2.17-4.29,4-6,4.73-4.16,7.12-4.44,6,2.13,7.23,2.78c-.7-2.08-2.13-4.79-1.69-6.83s2.73-3.77,4.37-5.45a33,33,0,0,1,5.47-4.58,5.37,5.37,0,0,1,3.67-.87c1.05.12,1.73.63,3.2,1.52a60.92,60.92,0,0,1,5.45,4.61c1.67,2,4.77,3.89,5.57,5.35s.28,1.37-.47,2.53a42.71,42.71,0,0,1-4.05,4.41,20.78,20.78,0,0,1-2.83,2.62c-.74.47-.88.55-1.6.2s-2.49-2.5-2.73-2.27,1,2.46,1.28,3.64a8.23,8.23,0,0,1,.25,3.4,7.89,7.89,0,0,1-1.65,3.37,28.58,28.58,0,0,1-3.71,3.46c-1.17,1-2,2.1-3.3,2.51a10.41,10.41,0,0,1-4.44-.07c-1.36-.23-3.12-1.3-3.7-1.33s.06.34.24,1.14,1,2.41.83,3.69a7.57,7.57,0,0,1-1.74,4,29.82,29.82,0,0,1-5.12,4.55c-1.84,1.35-4,3.36-6,3.56Z" transform="translate(-5.54)"/><path class="cls-13" d="M372.1,1488.07c-2.55-2.86-5.88-5.52-6.8-6.46a9.1,9.1,0,0,0-6.13-2c-.12,1.69.4,5.18,1.06,6.2,1.35,2.19,4.41,4.57,7,7,2.66-2.31,0,0,4.83-4.68Z" transform="translate(-5.54)"/><path class="cls-13" d="M325,1513.45a58.14,58.14,0,0,0,6.82,6.63c2.19,1.78,4,2.52,6.57,1.87a16,16,0,0,0-1.52-6.22c-2-1.94-4.67-4.46-7.3-6.85-2.65,2.32-.19,0-4.57,4.57Z" transform="translate(-5.54)"/><path class="cls-13" d="M356,1482.26c.68-.21-.76-.41.2,2.24s4.63,10.77,5.54,13.66.56,2.48-.06,3.72-3,2.86-3.68,3.73.52.1-.39-2.3-4.07-9.55-5.08-12.11-.88-2.31-.95-3.22a2.59,2.59,0,0,1,.53-2.24,17,17,0,0,1,3.89-3.48Z" transform="translate(-5.54)"/><path class="cls-13" d="M339.56,1495.78c.64-.11-.77-.37.2,2.23s4.67,10.45,5.6,13.39.69,2.94,0,4.25a12,12,0,0,1-4.15,3.61c-.7.19.86,0,0-2.44s-4.32-9.51-5.34-12.06-.71-2.34-.78-3.25a3.82,3.82,0,0,1,.91-2.83c.69-.68,3-2.79,3.6-2.9Z" transform="translate(-5.54)"/><path class="cls-13" d="M355.11,1507.24c.38-1-1.73-5.48-2.93-7.31a11.55,11.55,0,0,0-4.27-3.71c-1.63-1-5.06-3.07-5.52-2.18s1.58,5.52,2.77,7.51a12.92,12.92,0,0,0,4.72,4.37c1.66.95,4.85,2.32,5.23,1.32Z" transform="translate(-5.54)"/><path class="cls-3" d="M156.08,508.75a27.81,27.81,0,0,1,36.63-5.82,26.8,26.8,0,0,1,11.58,17.21,28.11,28.11,0,0,1-4.27,21.3c-5.66,8.46-3.41,20.2,6.35,33a27.82,27.82,0,0,1-1.1,34.75,29.18,29.18,0,0,1-4.41,4.27A27.85,27.85,0,0,1,180,619.29a26.72,26.72,0,0,1-18-10.39c-36-47.5-15-86.8-7.74-97.71a27.12,27.12,0,0,1,1.82-2.44Z" transform="translate(-5.54)"/><path class="cls-4" d="M156.08,508.75a27.81,27.81,0,0,1,36.63-5.82,26.8,26.8,0,0,1,11.58,17.21,28.11,28.11,0,0,1-4.27,21.3c-5.66,8.46-3.41,20.2,6.35,33a27.82,27.82,0,0,1-1.1,34.75,29.18,29.18,0,0,1-4.41,4.27A27.85,27.85,0,0,1,180,619.29a26.72,26.72,0,0,1-18-10.39c-36-47.5-15-86.8-7.74-97.71a27.12,27.12,0,0,1,1.82-2.44Z" transform="translate(-5.54)"/><path class="cls-5" d="M156.08,508.75a27.81,27.81,0,0,1,36.63-5.82,26.8,26.8,0,0,1,11.58,17.21,28.11,28.11,0,0,1-4.27,21.3c-5.66,8.46-3.41,20.2,6.35,33a27.82,27.82,0,0,1-1.1,34.75,29.18,29.18,0,0,1-4.41,4.27A27.85,27.85,0,0,1,180,619.29a26.72,26.72,0,0,1-18-10.39c-36-47.5-15-86.8-7.74-97.71a27.12,27.12,0,0,1,1.82-2.44Z" transform="translate(-5.54)"/><g class="cls-14"><path class="cls-7" d="M163.38,515.72a18.46,18.46,0,0,1,24.29-4A17.53,17.53,0,0,1,195.23,523a18.75,18.75,0,0,1-2.88,14.23c-4.44,6.64-9.51,20.93,6.45,41.94a18.74,18.74,0,0,1-.82,23.09,19.8,19.8,0,0,1-3,2.88A18.62,18.62,0,0,1,181.09,609a17.4,17.4,0,0,1-11.73-6.78c-31.55-41.57-13.5-75.47-7.22-84.86a18.36,18.36,0,0,1,1.24-1.66Z" transform="translate(-5.54)"/><g class="cls-14"><path class="cls-8" d="M174.83,587.43a6.82,6.82,0,1,1,9.61-.88,6.83,6.83,0,0,1-9.61.88Z" transform="translate(-5.54)"/><g class="cls-14"><path class="cls-9" d="M175.69,530.46a5.11,5.11,0,1,1,7.2-.66,5.11,5.11,0,0,1-7.2.66Z" transform="translate(-5.54)"/><g class="cls-14"><path class="cls-8" d="M163.48,569.1a5.11,5.11,0,1,1,7.2-.66,5.12,5.12,0,0,1-7.2.66Z" transform="translate(-5.54)"/><g class="cls-14"><path class="cls-8" d="M174.83,547.49a1.6,1.6,0,0,1,.52-.41,1.94,1.94,0,0,1,.63-.2,1.64,1.64,0,0,1,.66.08,1.85,1.85,0,0,1,.59.31,1.79,1.79,0,0,1,.61,1.16,2.13,2.13,0,0,1-.08.66,1.76,1.76,0,0,1-1.47,1.2,1.73,1.73,0,0,1-1.66-.92,1.94,1.94,0,0,1-.2-.63,1.78,1.78,0,0,1,.4-1.25Z" transform="translate(-5.54)"/><g class="cls-14"><path class="cls-8" d="M165.21,535.05a1.72,1.72,0,0,1,.52-.41,2,2,0,0,1,.64-.21,1.88,1.88,0,0,1,.66.09,1.63,1.63,0,0,1,.58.31,1.78,1.78,0,0,1,.62,1.15,1.82,1.82,0,0,1-.09.66,1.72,1.72,0,0,1-1.46,1.2,1.82,1.82,0,0,1-1.25-.39,1.72,1.72,0,0,1-.41-.52,1.6,1.6,0,0,1-.2-.64,1.79,1.79,0,0,1,.39-1.24Z" transform="translate(-5.54)"/><g class="cls-14"><path class="cls-8" d="M162.6,546.18a1.6,1.6,0,0,1,.52-.41,1.94,1.94,0,0,1,.63-.2,1.64,1.64,0,0,1,.66.08,1.85,1.85,0,0,1,.59.31,1.79,1.79,0,0,1,.61,1.16,2.13,2.13,0,0,1-.08.66,1.76,1.76,0,0,1-1.47,1.2,1.8,1.8,0,0,1-1.24-.4,1.6,1.6,0,0,1-.41-.52,1.8,1.8,0,0,1-.21-.63,1.78,1.78,0,0,1,.4-1.25Z" transform="translate(-5.54)"/><g class="cls-14"><path class="cls-8" d="M191,592a1.6,1.6,0,0,1,.52-.41,2,2,0,0,1,.63-.2,1.82,1.82,0,0,1,.66.08,1.75,1.75,0,0,1,.59.31,1.81,1.81,0,0,1,.61,1.16,2.1,2.1,0,0,1-.08.66,1.68,1.68,0,0,1-2.71.8,1.6,1.6,0,0,1-.41-.52,1.74,1.74,0,0,1-.21-.63A1.78,1.78,0,0,1,191,592Z" transform="translate(-5.54)"/><g class="cls-14"><path class="cls-8" d="M178.11,596.81a1.72,1.72,0,0,1,.52-.41,2,2,0,0,1,.64-.2,1.67,1.67,0,0,1,.66.08,1.63,1.63,0,0,1,.58.31,1.8,1.8,0,0,1,.62,1.15,1.9,1.9,0,0,1-.09.67,1.72,1.72,0,0,1-1.46,1.19,1.82,1.82,0,0,1-1.25-.39,1.85,1.85,0,0,1-.61-1.15,1.82,1.82,0,0,1,.39-1.25Z" transform="translate(-5.54)"/></g></g></g></g></g></g></g></g></g><path class="cls-9" d="M165.43,537.52a1.79,1.79,0,1,1,2.52-.23,1.78,1.78,0,0,1-2.52.23Z" transform="translate(-5.54)"/><path class="cls-9" d="M162.84,548.66a1.79,1.79,0,1,1,2.52-.23,1.78,1.78,0,0,1-2.52.23Z" transform="translate(-5.54)"/><path class="cls-9" d="M175,549.92a1.78,1.78,0,1,1,2.51-.22,1.78,1.78,0,0,1-2.51.22Z" transform="translate(-5.54)"/><path class="cls-9" d="M191.16,594.46a1.79,1.79,0,1,1,2.52-.23,1.78,1.78,0,0,1-2.52.23Z" transform="translate(-5.54)"/><path class="cls-9" d="M174.7,587.37a6.94,6.94,0,1,1,9.77-.89,6.93,6.93,0,0,1-9.77.89Z" transform="translate(-5.54)"/><path class="cls-9" d="M163.31,569.14a5.24,5.24,0,1,1,7.38-.67,5.23,5.23,0,0,1-7.38.67Z" transform="translate(-5.54)"/><path class="cls-9" d="M178.27,599.31a1.79,1.79,0,1,1,2.52-.23,1.79,1.79,0,0,1-2.52.23Z" transform="translate(-5.54)"/><path class="cls-3" d="M401.21,567.13a27.82,27.82,0,0,1-5.49-36.68A26.79,26.79,0,0,1,413,519a28.1,28.1,0,0,1,21.26,4.46c8.41,5.73,20.17,3.58,33.1-6.06a27.8,27.8,0,0,1,34.73,1.41,28.73,28.73,0,0,1,4.24,4.44,27.92,27.92,0,0,1,5.6,20.94,26.72,26.72,0,0,1-10.54,17.88c-47.82,35.63-86.93,14.28-97.78,6.88a28.7,28.7,0,0,1-2.43-1.84Z" transform="translate(-5.54)"/><path class="cls-4" d="M401.21,567.13a27.82,27.82,0,0,1-5.49-36.68A26.79,26.79,0,0,1,413,519a28.1,28.1,0,0,1,21.26,4.46c8.41,5.73,20.17,3.58,33.1-6.06a27.8,27.8,0,0,1,34.73,1.41,28.73,28.73,0,0,1,4.24,4.44,27.92,27.92,0,0,1,5.6,20.94,26.72,26.72,0,0,1-10.54,17.88c-47.82,35.63-86.93,14.28-97.78,6.88a28.7,28.7,0,0,1-2.43-1.84Z" transform="translate(-5.54)"/><path class="cls-5" d="M401.21,567.13a27.82,27.82,0,0,1-5.49-36.68A26.79,26.79,0,0,1,413,519a28.1,28.1,0,0,1,21.26,4.46c8.41,5.73,20.17,3.58,33.1-6.06a27.8,27.8,0,0,1,34.73,1.41,28.73,28.73,0,0,1,4.24,4.44,27.92,27.92,0,0,1,5.6,20.94,26.72,26.72,0,0,1-10.54,17.88c-47.82,35.63-86.93,14.28-97.78,6.88a28.7,28.7,0,0,1-2.43-1.84Z" transform="translate(-5.54)"/><g class="cls-15"><path class="cls-7" d="M408.25,559.9a18.48,18.48,0,0,1-3.76-24.33,17.56,17.56,0,0,1,11.32-7.46,18.74,18.74,0,0,1,14.21,3c6.6,4.49,20.84,9.68,42-6.09a18.72,18.72,0,0,1,23.08,1,19.34,19.34,0,0,1,2.86,3A18.56,18.56,0,0,1,501.7,543a17.41,17.41,0,0,1-6.88,11.68c-41.85,31.18-75.58,12.83-84.92,6.47-.57-.39-1.12-.81-1.65-1.25Z" transform="translate(-5.54)"/><g class="cls-15"><path class="cls-8" d="M480.05,549.07a6.82,6.82,0,1,1-.79-9.61,6.81,6.81,0,0,1,.79,9.61Z" transform="translate(-5.54)"/><g class="cls-15"><path class="cls-9" d="M423.1,547.72a5.12,5.12,0,1,1-.6-7.21,5.12,5.12,0,0,1,.6,7.21Z" transform="translate(-5.54)"/><g class="cls-15"><path class="cls-8" d="M461.63,560.26a5.11,5.11,0,1,1-.6-7.2,5.12,5.12,0,0,1,.6,7.2Z" transform="translate(-5.54)"/><g class="cls-15"><path class="cls-8" d="M440.12,548.73a1.93,1.93,0,0,1-.41-.53,2,2,0,0,1-.19-.63,1.63,1.63,0,0,1,.09-.66,1.67,1.67,0,0,1,.31-.59,1.64,1.64,0,0,1,1.82-.51,1.74,1.74,0,0,1,1.19,1.48,1.81,1.81,0,0,1-.41,1.24,1.58,1.58,0,0,1-.52.4,1.6,1.6,0,0,1-.64.2,1.8,1.8,0,0,1-1.24-.4Z" transform="translate(-5.54)"/><g class="cls-15"><path class="cls-8" d="M427.59,558.23a1.72,1.72,0,0,1-.4-.52,2.07,2.07,0,0,1-.2-.64,1.85,1.85,0,0,1,.09-.66,1.65,1.65,0,0,1,.32-.58,1.74,1.74,0,0,1,1.16-.6,1.88,1.88,0,0,1,.66.09,1.73,1.73,0,0,1,1.18,1.47A1.8,1.8,0,0,1,430,558a1.76,1.76,0,0,1-.53.41,1.72,1.72,0,0,1-.63.2,1.83,1.83,0,0,1-1.25-.41Z" transform="translate(-5.54)"/><g class="cls-15"><path class="cls-8" d="M438.7,560.94a1.72,1.72,0,0,1-.4-.52,2,2,0,0,1-.2-.64,1.88,1.88,0,0,1,.09-.66,1.65,1.65,0,0,1,.32-.58,1.78,1.78,0,0,1,1.15-.6,1.9,1.9,0,0,1,.67.09,1.73,1.73,0,0,1,1.18,1.47,1.82,1.82,0,0,1-.4,1.25,1.9,1.9,0,0,1-.53.4,1.55,1.55,0,0,1-.63.2,1.83,1.83,0,0,1-1.25-.41Z" transform="translate(-5.54)"/><g class="cls-15"><path class="cls-8" d="M484.77,533a1.9,1.9,0,0,1-.4-.53,2,2,0,0,1-.2-.63,1.82,1.82,0,0,1,.09-.66,1.61,1.61,0,0,1,.32-.59,1.78,1.78,0,0,1,1.16-.6,1.88,1.88,0,0,1,.66.09,1.74,1.74,0,0,1,1.18,1.47,1.81,1.81,0,0,1-.4,1.25,1.73,1.73,0,0,1-.53.4,1.55,1.55,0,0,1-.63.2,1.82,1.82,0,0,1-1.25-.4Z" transform="translate(-5.54)"/><g class="cls-15"><path class="cls-8" d="M489.47,545.87a1.6,1.6,0,0,1-.41-.52,2.07,2.07,0,0,1-.2-.64,1.85,1.85,0,0,1,.09-.66,1.83,1.83,0,0,1,.32-.58,1.76,1.76,0,0,1,1.16-.6,1.85,1.85,0,0,1,.66.09,1.71,1.71,0,0,1,1.18,1.47,1.74,1.74,0,0,1-.4,1.24,1.72,1.72,0,0,1-.52.41,1.84,1.84,0,0,1-.64.2,1.81,1.81,0,0,1-1.24-.41Z" transform="translate(-5.54)"/></g></g></g></g></g></g></g></g></g><path class="cls-9" d="M430.07,558a1.78,1.78,0,1,1-.21-2.51,1.79,1.79,0,0,1,.21,2.51Z" transform="translate(-5.54)"/><path class="cls-9" d="M441.19,560.72a1.79,1.79,0,1,1-.21-2.52,1.79,1.79,0,0,1,.21,2.52Z" transform="translate(-5.54)"/><path class="cls-9" d="M442.56,548.6a1.79,1.79,0,1,1-.21-2.52,1.79,1.79,0,0,1,.21,2.52Z" transform="translate(-5.54)"/><path class="cls-9" d="M487.24,532.8a1.79,1.79,0,1,1-.21-2.52,1.8,1.8,0,0,1,.21,2.52Z" transform="translate(-5.54)"/><path class="cls-9" d="M480,549.2a6.94,6.94,0,1,1-.81-9.77,6.94,6.94,0,0,1,.81,9.77Z" transform="translate(-5.54)"/><path class="cls-9" d="M461.67,560.43a5.24,5.24,0,1,1-.61-7.38,5.24,5.24,0,0,1,.61,7.38Z" transform="translate(-5.54)"/><path class="cls-9" d="M492,545.73a1.78,1.78,0,1,1-.2-2.51,1.78,1.78,0,0,1,.2,2.51Z" transform="translate(-5.54)"/><path class="cls-3" d="M258.76,924a27.81,27.81,0,0,1,31.63-19.37,26.78,26.78,0,0,1,17.27,11.48,28.08,28.08,0,0,1,4.19,21.32c-2,10,4.57,20,18.49,28.11A27.79,27.79,0,0,1,342.59,998a29,29,0,0,1-2.44,5.64A27.88,27.88,0,0,1,323.06,1017a26.67,26.67,0,0,1-20.58-2.74C251,984.12,255.43,939.78,258,926.9a25,25,0,0,1,.75-2.95Z" transform="translate(-5.54)"/><path class="cls-4" d="M258.76,924a27.81,27.81,0,0,1,31.63-19.37,26.78,26.78,0,0,1,17.27,11.48,28.08,28.08,0,0,1,4.19,21.32c-2,10,4.57,20,18.49,28.11A27.8,27.8,0,0,1,342.59,998a29,29,0,0,1-2.44,5.64A27.88,27.88,0,0,1,323.06,1017a26.67,26.67,0,0,1-20.58-2.74C251,984.12,255.43,939.78,258,926.9a25,25,0,0,1,.75-2.95Z" transform="translate(-5.54)"/><path class="cls-5" d="M258.76,924a27.81,27.81,0,0,1,31.63-19.37,26.78,26.78,0,0,1,17.27,11.48,28.08,28.08,0,0,1,4.19,21.32c-2,10,4.57,20,18.49,28.11A27.8,27.8,0,0,1,342.59,998a29,29,0,0,1-2.44,5.64A27.88,27.88,0,0,1,323.06,1017a26.67,26.67,0,0,1-20.58-2.74C251,984.12,255.43,939.78,258,926.9a25,25,0,0,1,.75-2.95Z" transform="translate(-5.54)"/><g class="cls-16"><path class="cls-7" d="M268.16,927.61a18.46,18.46,0,0,1,20.93-13,17.55,17.55,0,0,1,11.29,7.51,18.76,18.76,0,0,1,2.77,14.26c-1.56,7.83-.79,23,22,36.3a18.71,18.71,0,0,1,8.05,21.65,19.08,19.08,0,0,1-1.65,3.8,18.56,18.56,0,0,1-11.37,8.89,17.39,17.39,0,0,1-13.43-1.78c-45-26.37-41.31-64.59-39.09-75.67.14-.68.31-1.35.51-2Z" transform="translate(-5.54)"/><g class="cls-16"><path class="cls-8" d="M306.14,989.5a6.82,6.82,0,1,1,8.54-4.48,6.83,6.83,0,0,1-8.54,4.48Z" transform="translate(-5.54)"/><g class="cls-16"><path class="cls-9" d="M285.17,936.53a5.12,5.12,0,1,1,6.4-3.36,5.12,5.12,0,0,1-6.4,3.36Z" transform="translate(-5.54)"/><g class="cls-16"><path class="cls-8" d="M288.64,976.9a5.12,5.12,0,1,1,6.41-3.36,5.11,5.11,0,0,1-6.41,3.36Z" transform="translate(-5.54)"/><g class="cls-16"><path class="cls-8" d="M290.88,952.59a1.78,1.78,0,0,1,.32-.57,2.13,2.13,0,0,1,.51-.44,2,2,0,0,1,.64-.17,1.81,1.81,0,0,1,.66.06,1.78,1.78,0,0,1,1,.84,1.8,1.8,0,0,1,.18.64,1.69,1.69,0,0,1-2.2,1.78,1.68,1.68,0,0,1-.58-.33,1.87,1.87,0,0,1-.43-.5,1.8,1.8,0,0,1-.11-1.31Z" transform="translate(-5.54)"/><g class="cls-16"><path class="cls-8" d="M277.24,944.77a1.73,1.73,0,0,1,.32-.58,2.08,2.08,0,0,1,.51-.43,1.8,1.8,0,0,1,.65-.18,1.59,1.59,0,0,1,.65.07,1.77,1.77,0,0,1,1,.83,1.8,1.8,0,0,1,.18.64,1.75,1.75,0,0,1-.9,1.67,1.77,1.77,0,0,1-1.3.11,1.83,1.83,0,0,1-.58-.32,1.91,1.91,0,0,1-.43-.51,1.78,1.78,0,0,1-.11-1.3Z" transform="translate(-5.54)"/><g class="cls-16"><path class="cls-8" d="M279.08,956.05a1.47,1.47,0,0,1,.32-.57,1.75,1.75,0,0,1,.51-.43,1.8,1.8,0,0,1,.64-.18,1.83,1.83,0,0,1,.66.06,1.78,1.78,0,0,1,1,.84,2,2,0,0,1,.17.64,1.74,1.74,0,0,1-.89,1.67,1.8,1.8,0,0,1-1.31.11,1.78,1.78,0,0,1-.57-.32,1.88,1.88,0,0,1-.43-.51,1.8,1.8,0,0,1-.11-1.31Z" transform="translate(-5.54)"/><g class="cls-16"><path class="cls-8" d="M322.82,987.56a1.65,1.65,0,0,1,.32-.58,1.91,1.91,0,0,1,.51-.43,1.6,1.6,0,0,1,.64-.17,1.48,1.48,0,0,1,.66.06,1.81,1.81,0,0,1,1,.83,2,2,0,0,1,.17.64,1.73,1.73,0,0,1-.89,1.67,1.78,1.78,0,0,1-1.3.11,1.73,1.73,0,0,1-.58-.32,1.63,1.63,0,0,1-.43-.51,1.77,1.77,0,0,1-.11-1.3Z" transform="translate(-5.54)"/><g class="cls-16"><path class="cls-8" d="M312.75,996.92a1.68,1.68,0,0,1,.33-.58,1.77,1.77,0,0,1,.51-.43,1.6,1.6,0,0,1,.64-.17,1.49,1.49,0,0,1,.66.06,1.81,1.81,0,0,1,1,.83,2,2,0,0,1,.17.64,1.73,1.73,0,0,1-.89,1.67,1.8,1.8,0,0,1-1.31.11,1.68,1.68,0,0,1-.57-.32,1.66,1.66,0,0,1-.44-.51,1.88,1.88,0,0,1-.11-1.3Z" transform="translate(-5.54)"/></g></g></g></g></g></g></g></g></g><path class="cls-9" d="M278.39,947a1.79,1.79,0,1,1,2.23-1.18,1.79,1.79,0,0,1-2.23,1.18Z" transform="translate(-5.54)"/><path class="cls-9" d="M280.25,958.25a1.79,1.79,0,1,1,2.24-1.17,1.79,1.79,0,0,1-2.24,1.17Z" transform="translate(-5.54)"/><path class="cls-9" d="M292,954.79a1.79,1.79,0,1,1,1.06-3.41,1.79,1.79,0,0,1-1.06,3.41Z" transform="translate(-5.54)"/><path class="cls-9" d="M323.92,989.76a1.78,1.78,0,1,1,2.24-1.17,1.77,1.77,0,0,1-2.24,1.17Z" transform="translate(-5.54)"/><path class="cls-9" d="M306,989.5a6.93,6.93,0,1,1,8.68-4.56A6.94,6.94,0,0,1,306,989.5Z" transform="translate(-5.54)"/><path class="cls-9" d="M288.51,977a5.24,5.24,0,1,1,6.56-3.44,5.24,5.24,0,0,1-6.56,3.44Z" transform="translate(-5.54)"/><path class="cls-9" d="M313.86,999.16a1.79,1.79,0,1,1,2.23-1.17,1.79,1.79,0,0,1-2.23,1.17Z" transform="translate(-5.54)"/><path class="cls-3" d="M521.19,1475.8A27.92,27.92,0,0,1,546,1503.49a26.6,26.6,0,0,1-8.28,19,28.35,28.35,0,0,1-20.38,7.87c-10.25-.2-19,8-24.56,23.13a28,28,0,0,1-30,17.77,29.69,29.69,0,0,1-6-1.41,28,28,0,0,1-16.26-14.46,26.44,26.44,0,0,1-1-20.71c20.64-55.89,65.38-59.37,78.6-59.1a28.62,28.62,0,0,1,3.07.22Z" transform="translate(-5.54)"/><path class="cls-4" d="M521.19,1475.8A27.92,27.92,0,0,1,546,1503.49a26.6,26.6,0,0,1-8.28,19,28.35,28.35,0,0,1-20.38,7.87c-10.25-.2-19,8-24.56,23.13a28,28,0,0,1-30,17.77,29.69,29.69,0,0,1-6-1.41,28,28,0,0,1-16.26-14.46,26.44,26.44,0,0,1-1-20.71c20.64-55.89,65.38-59.37,78.6-59.1a28.62,28.62,0,0,1,3.07.22Z" transform="translate(-5.54)"/><path class="cls-5" d="M521.19,1475.8A27.92,27.92,0,0,1,546,1503.49a26.6,26.6,0,0,1-8.28,19,28.35,28.35,0,0,1-20.38,7.87c-10.25-.2-19,8-24.56,23.13a28,28,0,0,1-30,17.77,29.69,29.69,0,0,1-6-1.41,28,28,0,0,1-16.26-14.46,26.44,26.44,0,0,1-1-20.71c20.64-55.89,65.38-59.37,78.6-59.1a28.62,28.62,0,0,1,3.07.22Z" transform="translate(-5.54)"/><g class="cls-17"><path class="cls-7" d="M519.24,1485.69a18.53,18.53,0,0,1,16.59,18.3,17.4,17.4,0,0,1-5.43,12.42,18.9,18.9,0,0,1-13.63,5.23c-8-.16-22.91,3.27-32,28a18.83,18.83,0,0,1-20,11.73,19.57,19.57,0,0,1-4.07-.95,18.74,18.74,0,0,1-10.85-9.61,17.29,17.29,0,0,1-.64-13.53c18.07-48.91,56.62-52,68-51.74.7,0,1.39.07,2.08.15Z" transform="translate(-5.54)"/><g class="cls-17"><path class="cls-8" d="M464.7,1533.92a6.87,6.87,0,1,1,6,7.61,6.85,6.85,0,0,1-6-7.61Z" transform="translate(-5.54)"/><g class="cls-17"><path class="cls-9" d="M513.45,1504a5.15,5.15,0,1,1,4.47,5.71,5.13,5.13,0,0,1-4.47-5.71Z" transform="translate(-5.54)"/><g class="cls-17"><path class="cls-8" d="M474.06,1514.5a5.15,5.15,0,1,1,4.47,5.71,5.13,5.13,0,0,1-4.47-5.71Z" transform="translate(-5.54)"/><g class="cls-17"><path class="cls-8" d="M498.54,1512.42a1.69,1.69,0,0,1,.63.22,1.92,1.92,0,0,1,.52.42,1.76,1.76,0,0,1,.29.6,1.64,1.64,0,0,1,0,.66,1.76,1.76,0,0,1-.64,1.14,1.91,1.91,0,0,1-.61.29,1.69,1.69,0,0,1-2.15-1.85,1.8,1.8,0,0,1,.21-.63,1.91,1.91,0,0,1,.43-.51,1.81,1.81,0,0,1,1.27-.34Z" transform="translate(-5.54)"/><g class="cls-17"><path class="cls-8" d="M503.86,1497.64a1.74,1.74,0,0,1,.63.21,2.13,2.13,0,0,1,.52.43,1.65,1.65,0,0,1,.28.6,1.48,1.48,0,0,1,.06.66,1.81,1.81,0,0,1-.64,1.14,2.25,2.25,0,0,1-.61.28,1.73,1.73,0,0,1-1.81-.59,1.78,1.78,0,0,1-.35-1.26,1.7,1.7,0,0,1,.22-.62,1.78,1.78,0,0,1,.43-.52,1.84,1.84,0,0,1,1.27-.33Z" transform="translate(-5.54)"/><g class="cls-17"><path class="cls-8" d="M493,1501.43a1.74,1.74,0,0,1,.63.21,2,2,0,0,1,.52.43,1.86,1.86,0,0,1,.29.6,1.63,1.63,0,0,1,.05.66,1.81,1.81,0,0,1-.64,1.14,2.25,2.25,0,0,1-.61.28,1.73,1.73,0,0,1-1.81-.59,1.83,1.83,0,0,1-.35-1.26,1.7,1.7,0,0,1,.22-.62,1.63,1.63,0,0,1,.43-.51,1.8,1.8,0,0,1,1.27-.34Z" transform="translate(-5.54)"/><g class="cls-17"><path class="cls-8" d="M469.61,1550a1.82,1.82,0,0,1,.63.22,1.88,1.88,0,0,1,.51.42,1.63,1.63,0,0,1,.29.61,1.81,1.81,0,0,1,.06.66,1.73,1.73,0,0,1-.65,1.13,2,2,0,0,1-.6.29,1.79,1.79,0,0,1-1.82-.59,1.77,1.77,0,0,1-.34-1.26,1.54,1.54,0,0,1,.22-.62,1.66,1.66,0,0,1,.43-.52,1.78,1.78,0,0,1,1.27-.34Z" transform="translate(-5.54)"/><g class="cls-17"><path class="cls-8" d="M458.53,1541.73a1.8,1.8,0,0,1,.63.21,2.13,2.13,0,0,1,.52.43,1.65,1.65,0,0,1,.28.6,1.63,1.63,0,0,1,.06.66,1.75,1.75,0,0,1-.65,1.14,1.93,1.93,0,0,1-.6.28,1.71,1.71,0,0,1-2.16-1.85,1.7,1.7,0,0,1,.22-.62,1.63,1.63,0,0,1,.43-.51,1.8,1.8,0,0,1,1.27-.34Z" transform="translate(-5.54)"/></g></g></g></g></g></g></g></g></g><path class="cls-9" d="M501.88,1499.15a1.8,1.8,0,1,1,1.57,2,1.79,1.79,0,0,1-1.57-2Z" transform="translate(-5.54)"/><path class="cls-9" d="M491,1503a1.8,1.8,0,1,1,1.57,2,1.8,1.8,0,0,1-1.57-2Z" transform="translate(-5.54)"/><path class="cls-9" d="M496.56,1513.86a1.8,1.8,0,1,1,1.56,2,1.79,1.79,0,0,1-1.56-2Z" transform="translate(-5.54)"/><path class="cls-9" d="M467.62,1551.45a1.8,1.8,0,1,1,1.56,2,1.79,1.79,0,0,1-1.56-2Z" transform="translate(-5.54)"/><path class="cls-9" d="M464.67,1533.78a7,7,0,1,1,6.07,7.74,7,7,0,0,1-6.07-7.74Z" transform="translate(-5.54)"/><path class="cls-9" d="M473.93,1514.39a5.27,5.27,0,1,1,4.58,5.84,5.25,5.25,0,0,1-4.58-5.84Z" transform="translate(-5.54)"/><path class="cls-9" d="M456.5,1543.21a1.8,1.8,0,1,1,1.56,2,1.79,1.79,0,0,1-1.56-2Z" transform="translate(-5.54)"/><path class="cls-3" d="M453,1201.05a27.79,27.79,0,0,1-30.2-21.51,26.77,26.77,0,0,1,3.79-20.39,28.05,28.05,0,0,1,18-12.2c10-2.08,16.59-12,18.63-28a27.82,27.82,0,0,1,25.13-24,28.63,28.63,0,0,1,6.14,0,27.84,27.84,0,0,1,19,10.5,26.69,26.69,0,0,1,5.54,20c-7.57,59.14-50.09,72.46-63,75.13a27.67,27.67,0,0,1-3,.46Z" transform="translate(-5.54)"/><path class="cls-4" d="M453,1201.05a27.8,27.8,0,0,1-30.2-21.51,26.77,26.77,0,0,1,3.79-20.39,28.05,28.05,0,0,1,18-12.2c10-2.08,16.59-12,18.63-28a27.82,27.82,0,0,1,25.13-24,28.63,28.63,0,0,1,6.14,0,27.84,27.84,0,0,1,19,10.5,26.69,26.69,0,0,1,5.54,20c-7.57,59.14-50.09,72.46-63,75.13a27.67,27.67,0,0,1-3,.46Z" transform="translate(-5.54)"/><path class="cls-5" d="M453,1201.05a27.8,27.8,0,0,1-30.2-21.51,26.77,26.77,0,0,1,3.79-20.39,28.05,28.05,0,0,1,18-12.2c10-2.08,16.59-12,18.63-28a27.82,27.82,0,0,1,25.13-24,28.63,28.63,0,0,1,6.14,0,27.84,27.84,0,0,1,19,10.5,26.69,26.69,0,0,1,5.54,20c-7.57,59.14-50.09,72.46-63,75.13a27.67,27.67,0,0,1-3,.46Z" transform="translate(-5.54)"/><g class="cls-18"><path class="cls-7" d="M452.68,1191a18.46,18.46,0,0,1-20.11-14.18,17.56,17.56,0,0,1,2.49-13.33,18.78,18.78,0,0,1,12-8.14c7.82-1.63,21.45-8.27,24.79-34.44A18.7,18.7,0,0,1,488.64,1105a19.1,19.1,0,0,1,4.14,0,18.54,18.54,0,0,1,12.64,7,17.46,17.46,0,0,1,3.63,13.06c-6.63,51.77-43.25,63.3-54.32,65.6a20.31,20.31,0,0,1-2.05.32Z" transform="translate(-5.54)"/><g class="cls-18"><path class="cls-8" d="M494.76,1131.78a6.82,6.82,0,1,1-7.47-6.1,6.83,6.83,0,0,1,7.47,6.1Z" transform="translate(-5.54)"/><g class="cls-18"><path class="cls-9" d="M454.23,1171.83a5.11,5.11,0,1,1-5.6-4.58,5.12,5.12,0,0,1,5.6,4.58Z" transform="translate(-5.54)"/><g class="cls-18"><path class="cls-8" d="M490,1152.82a5.12,5.12,0,1,1-5.6-4.58,5.12,5.12,0,0,1,5.6,4.58Z" transform="translate(-5.54)"/><g class="cls-18"><path class="cls-8" d="M466.78,1160.28a1.64,1.64,0,0,1-.66-.07,2.19,2.19,0,0,1-.59-.3,2.09,2.09,0,0,1-.42-.52,2,2,0,0,1-.2-.64,1.82,1.82,0,0,1,.37-1.25,1.76,1.76,0,0,1,.53-.41,1.74,1.74,0,0,1,1.88.17,1.85,1.85,0,0,1,.62,1.15,1.82,1.82,0,0,1-.08.66,1.69,1.69,0,0,1-.3.6,1.77,1.77,0,0,1-1.15.61Z" transform="translate(-5.54)"/><g class="cls-18"><path class="cls-8" d="M464.92,1175.89a1.64,1.64,0,0,1-.66-.07,1.74,1.74,0,0,1-.59-.3,1.78,1.78,0,0,1-.42-.52,2,2,0,0,1-.2-.63,1.84,1.84,0,0,1,.37-1.26,2.15,2.15,0,0,1,.53-.41,1.74,1.74,0,0,1,1.88.17,1.65,1.65,0,0,1,.54,1.82,1.74,1.74,0,0,1-.3.59,1.77,1.77,0,0,1-1.15.61Z" transform="translate(-5.54)"/><g class="cls-18"><path class="cls-8" d="M474.59,1169.78a1.62,1.62,0,0,1-.66-.07,1.69,1.69,0,0,1-.6-.3,1.85,1.85,0,0,1-.61-1.15,1.75,1.75,0,0,1,.37-1.25,2.09,2.09,0,0,1,.52-.42,1.75,1.75,0,0,1,1.89.17,1.81,1.81,0,0,1,.61,1.16,1.83,1.83,0,0,1-.37,1.25,1.79,1.79,0,0,1-1.15.61Z" transform="translate(-5.54)"/><g class="cls-18"><path class="cls-8" d="M486.44,1117.2a1.86,1.86,0,0,1-.66-.07,2.19,2.19,0,0,1-.59-.3,1.76,1.76,0,0,1-.41-.53,1.55,1.55,0,0,1-.2-.63,1.77,1.77,0,0,1,.37-1.25,1.72,1.72,0,0,1,.52-.41,1.7,1.7,0,0,1,2.5,1.32,1.84,1.84,0,0,1-.07.66,1.88,1.88,0,0,1-.3.6,1.81,1.81,0,0,1-1.16.61Z" transform="translate(-5.54)"/><g class="cls-18"><path class="cls-8" d="M499,1122.79a1.59,1.59,0,0,1-.65-.07,1.88,1.88,0,0,1-.6-.3,1.72,1.72,0,0,1-.41-.52,1.6,1.6,0,0,1-.2-.63,1.79,1.79,0,0,1,.37-1.26,2.29,2.29,0,0,1,.52-.41,1.75,1.75,0,0,1,1.89.17,1.81,1.81,0,0,1,.61,1.16,1.59,1.59,0,0,1-.07.65,1.69,1.69,0,0,1-.3.6,1.79,1.79,0,0,1-1.16.61Z" transform="translate(-5.54)"/></g></g></g></g></g></g></g></g></g><path class="cls-9" d="M466.49,1174a1.78,1.78,0,1,1-1.95-1.6,1.78,1.78,0,0,1,1.95,1.6Z" transform="translate(-5.54)"/><path class="cls-9" d="M476.15,1167.84a1.79,1.79,0,1,1-2-1.6,1.8,1.8,0,0,1,2,1.6Z" transform="translate(-5.54)"/><path class="cls-9" d="M468.38,1158.44a1.78,1.78,0,1,1-2-1.6,1.78,1.78,0,0,1,2,1.6Z" transform="translate(-5.54)"/><path class="cls-9" d="M488,1115.32a1.78,1.78,0,1,1-2-1.6,1.78,1.78,0,0,1,2,1.6Z" transform="translate(-5.54)"/><path class="cls-9" d="M494.82,1131.91a6.94,6.94,0,1,1-7.6-6.2,6.94,6.94,0,0,1,7.6,6.2Z" transform="translate(-5.54)"/><path class="cls-9" d="M490.17,1152.9a5.24,5.24,0,1,1-5.74-4.69,5.24,5.24,0,0,1,5.74,4.69Z" transform="translate(-5.54)"/><path class="cls-9" d="M500.63,1120.9a1.78,1.78,0,1,1-2-1.6,1.78,1.78,0,0,1,2,1.6Z" transform="translate(-5.54)"/><path class="cls-12" d="M297.86,391.6c3.16-1.82,7.73-.93,11.57-.41s7.55,2.24,11.44,3.54,9.47,3.06,11.87,4.25,2.31,1.84,2.54,2.92,0,.55-1.12,3.59-3.8,11.76-5.29,14.63-1.86,2.54-3.66,2.6-7.4-3.53-7.18-2.25,7.5,6.1,8.54,9.95-.45,8.87-2.28,13.21-4.88,10.57-8.71,12.82-11.66.86-14.3.71c2.74,3,7.19,6.5,8,10.29s-1.79,8.42-3.31,12.47a62.61,62.61,0,0,1-5.82,11.85,9.94,9.94,0,0,1-5.55,4.2c-1.88.58-3.39.24-6.55-.18s-8.95-2.59-12.66-3.7c-4.33-2.15-11-3-13.41-4.88s-1.51-2.11-1.1-4.63,2.49-7.67,3.54-10.47a38.61,38.61,0,0,1,2.82-6.55c.9-1.35,1.08-1.59,2.56-1.55s6.07,2.36,6.31,1.8-3.57-3.4-4.88-5.19a15,15,0,0,1-3-5.56,14.77,14.77,0,0,1,.26-6.94c.65-2.59,2.46-6.07,3.69-8.63s1.83-5,3.7-6.69,5.09-2.6,7.55-3.22,6.25-.13,7.25-.51-.35-.53-1.26-1.75S286,424,285.25,421.7a14.07,14.07,0,0,1-.05-8.1,54.89,54.89,0,0,1,5.24-11.51c2.11-3.67,4.25-8.67,7.42-10.49Z" transform="translate(-5.54)"/><path class="cls-13" d="M266.84,482.24c6.45,2.92,14.06,4.93,16.32,5.83s8.19.95,11.88-1.18c-1.07-2.94-4.56-8.45-6.43-9.67-3.93-2.7-10.89-4.43-17.12-6.51-2.76,5.9,0,0-4.65,11.53Z" transform="translate(-5.54)"/><path class="cls-13" d="M327.49,404.09A107.54,107.54,0,0,0,311,398c-5-1.38-8.59-1.29-12.5,1.75,1.07,2.94,4.93,7.45,7.23,9.38,4.74,1.82,11.22,4,17.45,6.11,2.76-5.9.32-.16,4.31-11.13Z" transform="translate(-5.54)"/><path class="cls-13" d="M298.43,480c-1,.86,1.59.13-2-3.64s-15.89-14.73-19.6-18.95-2.8-3.77-2.67-6.33,2.93-7.07,3.44-9.06-1,.23,2.37,3.61,14,13.09,17.63,16.65,3.23,3.25,4,4.74,1.23,2.13.78,4.18-3,7.93-4,8.8Z" transform="translate(-5.54)"/><path class="cls-13" d="M316.07,444.86c-1,.67,1.57.05-2-3.63s-15.71-14.17-19.48-18.44-3.38-4.45-3.19-7.18,3.29-8.35,4.32-9.2-1.43.67,1.89,4.09,14.43,12.84,18.06,16.39,2.94,3.43,3.74,4.91a7,7,0,0,1,.59,5.46c-.67,1.66-2.94,6.94-3.92,7.6Z" transform="translate(-5.54)"/><path class="cls-13" d="M281.21,437.12c.1,2,7,8,10.42,10.17s6.49,2.63,10,3.07,10.86,1.4,11-.44-6.8-8.16-10.3-10.63A23.87,23.87,0,0,0,291,435.44c-3.51-.37-9.93-.29-9.83,1.68Z" transform="translate(-5.54)"/><path class="cls-12" d="M474.71,275.05c.83-3.08,4.21-5.36,6.9-7.41s6.06-3.29,9.27-4.89,7.75-4,10-4.71,2.56-.29,3.38.24.31.37,1.52,2.91,4.92,9.63,5.78,12.33.42,2.72-.66,3.87-6.76,2.39-5.83,3,8.41-.86,11.44.88,5.2,5.76,6.75,9.58,3.52,9.56,2.54,13.32-6.69,7.74-8.41,9.28c3.55.15,8.47-.43,11.29,1.44s4.1,6.31,5.66,9.76A53.44,53.44,0,0,1,538,335.62a8.61,8.61,0,0,1-.83,6c-.8,1.52-2,2.24-4.16,3.94s-7.14,3.93-10.13,5.53c-4,1.35-8.65,4.93-11.3,5.28s-2.25-.37-3.55-2.18-3.21-6.29-4.29-8.68a33.57,33.57,0,0,1-2.3-5.79c-.28-1.39-.32-1.65.62-2.54s5.22-2.29,5-2.79-4.31.11-6.22-.19a13.09,13.09,0,0,1-5.28-1.6,12.9,12.9,0,0,1-4.13-4.46,47.34,47.34,0,0,1-3.06-7.62c-.81-2.34-2-4.25-1.85-6.43s1.55-4.75,2.69-6.66,3.79-3.94,4.17-4.79-.55-.11-1.87-.31-4.2.08-6.05-.9a12.26,12.26,0,0,1-5-5,47.8,47.8,0,0,1-3.87-10.36c-1-3.57-2.74-8-1.9-11.07Z" transform="translate(-5.54)"/><path class="cls-13" d="M511.57,350.3c5.79-2.18,11.74-5.64,13.69-6.48a14.77,14.77,0,0,0,6.62-8.08c-2.47-1.16-8-2.41-10-2-4.09.76-9.47,4-14.61,6.56,1.94,5.36,0,0,4.26,10Z" transform="translate(-5.54)"/><path class="cls-13" d="M500.76,264.45a95.45,95.45,0,0,0-14,6.41c-4,2.26-6.11,4.52-6.65,8.82,2.48,1.16,7.66,1.56,10.28,1.34,4-1.82,9.43-4.45,14.57-7-1.94-5.35.1-.3-4.22-9.55Z" transform="translate(-5.54)"/><path class="cls-13" d="M529.72,329.38c-.09,1.15,1.07-.91-3.49-1s-18.94.71-23.84.4-4.06-.6-5.57-2.27-2.56-6.18-3.47-7.73-.46.74,3.69.77,16.77-.58,21.21-.6,4,0,5.42.44a4.18,4.18,0,0,1,3.07,2.1c1,1.54,3.06,6.75,3,7.9Z" transform="translate(-5.54)"/><path class="cls-13" d="M518.91,296.74c-.2,1,1-.95-3.49-1s-18.48.95-23.46.64-4.84-.67-6.41-2.47-3.13-7.2-3-8.37-.47,1.31,3.69,1.36,16.87-1,21.32-1,3.93.3,5.34.72a6.16,6.16,0,0,1,3.74,3c.62,1.44,2.48,6.11,2.28,7.13Z" transform="translate(-5.54)"/><path class="cls-13" d="M492.56,313.5c1.28,1.16,9.26.59,12.73-.15s5.64-2.39,8.07-4.28,7.59-5.85,6.52-7.06-9.25-.83-12.94-.2a20.81,20.81,0,0,0-9.34,4.57c-2.4,1.95-6.33,6-5,7.12Z" transform="translate(-5.54)"/></g></g></svg>