<svg xmlns="http://www.w3.org/2000/svg" viewBox="0 0 575.79 22.83"><defs><style>.cls-1{fill:none;stroke:#fff;stroke-miterlimit:8;stroke-width:4px;}</style></defs><g id="Слой_2" data-name="Слой 2"><g id="Слой_1-2" data-name="Слой 1"><path class="cls-1" d="M1.42,11.05a31.16,31.16,0,0,0,44.07,0,31.17,31.17,0,0,1,44.07.05,31.17,31.17,0,0,0,44.08.06,31.15,31.15,0,0,1,44.07,0,31.17,31.17,0,0,0,44.08.05,31.17,31.17,0,0,1,44.07,0,31.17,31.17,0,0,0,44.08.06,31.15,31.15,0,0,1,44.07.05,31.16,31.16,0,0,0,44.07,0,31.17,31.17,0,0,1,44.08.05,31.16,31.16,0,0,0,44.07.06,31.16,31.16,0,0,1,44.08,0,31.16,31.16,0,0,0,44.07.05"/></g></g></svg>