<svg xmlns="http://www.w3.org/2000/svg" xmlns:xlink="http://www.w3.org/1999/xlink" viewBox="0 0 1266.16 1573.02"><defs><style>.cls-1,.cls-2,.cls-35{fill:none;}.cls-1{clip-rule:evenodd;}.cls-2,.cls-3,.cls-33,.cls-34,.cls-37,.cls-38,.cls-39,.cls-4,.cls-42,.cls-43{fill-rule:evenodd;}.cls-3,.cls-5{fill:#fdd2c6;}.cls-4{fill:#fcc7b8;}.cls-6{fill:#fdddd5;}.cls-7{fill:#2dd2e3;}.cls-8{fill:#87e0ec;}.cls-9{fill:#d5f3f7;}.cls-10{fill:#5b69aa;}.cls-11{fill:#cbabc8;}.cls-12{fill:#b98db5;}.cls-13{fill:#e1a472;}.cls-14{fill:#d98a4a;}.cls-15{fill:#a770a2;}.cls-16,.cls-33{fill:#fff;}.cls-17{fill:#ed3a09;}.cls-18{fill:#f75a2f;}.cls-19{fill:#decadc;}.cls-20{fill:#4d5b96;}.cls-21{fill:#424e81;}.cls-22{fill:#eef6ff;}.cls-23{fill:#bd2e07;}.cls-24{fill:#d9eafc;}.cls-25{fill:#52bbef;}.cls-26{fill:#1e99d6;}.cls-27{fill:#ffe2b8;}.cls-28{fill:#ffc987;}.cls-29{fill:#1a2b63;}.cls-30{fill:#aec1ed;}.cls-31{fill:#eabe9b;}.cls-32{fill:#eeefee;}.cls-34{fill:#e9bd9a;}.cls-35{stroke:#1d1e1c;stroke-miterlimit:8;stroke-width:3px;}.cls-36{clip-path:url(#clip-path);}.cls-37{fill:#f3a28d;}.cls-38{fill:#159f84;opacity:0.57;}.cls-39{fill:#bc8380;}.cls-40{clip-path:url(#clip-path-10);}.cls-41{clip-path:url(#clip-path-19);}.cls-43{fill:#efa289;}.cls-44{clip-path:url(#clip-path-28);}.cls-45{clip-path:url(#clip-path-37);}.cls-46{clip-path:url(#clip-path-46);}.cls-47{clip-path:url(#clip-path-55);}.cls-48{clip-path:url(#clip-path-64);}</style><clipPath id="clip-path"><polygon class="cls-1" points="1168.1 211.31 1058.77 174.45 1021.06 286.32 1130.39 323.17 1168.1 211.31 1168.1 211.31"/></clipPath><clipPath id="clip-path-10"><polygon class="cls-1" points="1291.1 43.31 1181.77 6.45 1144.06 118.32 1253.39 155.17 1291.1 43.31 1291.1 43.31"/></clipPath><clipPath id="clip-path-19"><polygon class="cls-1" points="716.67 9.49 724.45 79.77 796.36 71.81 788.58 1.53 716.67 9.49 716.67 9.49"/></clipPath><clipPath id="clip-path-28"><polygon class="cls-1" points="822.46 568.84 905.48 634.07 972.22 549.13 889.2 483.9 822.46 568.84 822.46 568.84"/></clipPath><clipPath id="clip-path-37"><polygon class="cls-1" points="1177.54 617.95 1243.49 535.51 1159.14 468.02 1093.18 550.46 1177.54 617.95 1177.54 617.95"/></clipPath><clipPath id="clip-path-46"><polygon class="cls-1" points="951.9 998.7 1053.54 1027.27 1082.78 923.28 981.14 894.7 951.9 998.7 951.9 998.7"/></clipPath><clipPath id="clip-path-55"><polygon class="cls-1" points="1159.56 1465.82 1149.43 1570.78 1257.74 1581.22 1267.87 1476.27 1159.56 1465.82 1159.56 1465.82"/></clipPath><clipPath id="clip-path-64"><polygon class="cls-1" points="1247.67 1193.43 1234.15 1088.72 1127.01 1102.55 1140.53 1207.26 1247.67 1193.43 1247.67 1193.43"/></clipPath></defs><g id="Слой_2" data-name="Слой 2"><g id="Слой_1-2" data-name="Слой 1"><g id="Layer_1" data-name="Layer 1"><path class="cls-3" d="M23.6,433.25a18.1,18.1,0,0,1,3.95,4.9c.26.74-4.1,5.92-2.74,10.53s3.48,9.33,5.17,9.1,5-7.17,5.08-13-1.45-16.78,3.16-18.5,14.77-1.1,15.76-4S59.41,412,60.76,407c1-3.57,6.33-8.91,10-11.45,3.14-2.16-13-11.21-19.6-10-8.89,1.66-12.56,2-15.78,5.35s-7.78,2.82-9.7,4.44-3.82,5.35-4.33,7.3-.18,2.54-4.39,2.7-13.16-3.48-12.51.08,4.84,5.42,6.56,7.31,3.49,4.95,3.22,6.22-4.74,2.71-4.08,4.61c2.9,8.38,9.52,6.31,13.41,9.67Z"/><path class="cls-4" d="M23.6,433.25a18.1,18.1,0,0,1,3.95,4.9c.26.74-4.1,5.92-2.74,10.54S28.29,458,30,457.78s5-7.17,5.08-13c0-2.74-.27-6.62-.14-10.13-2.09,0-5.25,1-6.61.29-1.93-1.05-2.63-4.88-3.21-6.09s-4.6-1.53-6.5-4.31,4.07-3.6,3.76-5.84-6.75-5-4.56-9.53,4.95-.16,6.27-3.59,2.9-3.82,3.41-7.28A14,14,0,0,1,29.4,394a9.8,9.8,0,0,0-3.68,1.38,17.38,17.38,0,0,0-4.33,7.31c-.51,1.95-.18,2.54-4.39,2.7s-13.16-3.48-12.51.08,4.84,5.42,6.56,7.31,3.49,4.94,3.22,6.22-4.74,2.71-4.08,4.61c2.9,8.38,9.52,6.31,13.41,9.67Z"/><path class="cls-3" d="M48.17,373.51c1.68-1.81.62-8.79,3.56-7.36s6.18.92,8,2.75,5.63,5.25,6.06,6.88,4,6.72-.77,5.23-7-3.55-9.54-3.77-5.89.48-6.52-.73a9.49,9.49,0,0,1-.76-3Z"/><path class="cls-3" d="M0,362.28c1.7.47,11.26-1.31,12.59-2.59s5.83-6.4,6.78-9.1,5.58-9.51,6.9-6.06,2.05,5.91,5.57,4.45,8.35.54,9.53,1.9,4.25,6.46,5.72,7.61-3.23,2.65-6.06,4.7-5.37,3.64-5.36,7.42-2.58,8.94-4.48,9.6-6.88-2.11-7.6-5.88S22,365.9,19,366.11s-7.62,1.23-9.6,1.32-7.6.27-9.36-5.15Z"/><path class="cls-3" d="M76.23,378.42c1.83,1.85,8.11,3.58,10,4.23s1.93,4.89,4.13,8.15,2.43,4.6,3.75,5.68,7.59-3.69,9.42-1.49,5,5.24,7.83,4.5,5.32-1.73,5-4.8-2.34-9.13,1.32-10.16,9.87-2.6,11.15,1.1-2.29,6-.66,9.34,4,9.25,3.3,15.66.76,18.55,1.92,18.15,2.2-8,8.17-11.94,13.9-5.3,14.56-8.84,3-13.12,6.21-10.09,13.1-.1,17.9,2.67,2.44,5.13,8.21,3,7.2-1.08,13.51.05S213,410,218.68,413.08s2.24,1.36,8.92,4.25,6.52,3.77,10.17,4.75,6.54-.26,9.24-5.45,8.55-11.85,11-9.86,12,.1,13.81,1.25,5.5-1.2,3.7-6.38.76-13.16.57-14.4-6.88-4.83,1.28-8.25,13.71-6.18,10.52-7.2-8-.64-11.69-4.35-22.72-22.17-22.91-22.7-.88-8.33-5-8.82-8.13.1-9.32-1.61-1.2-20.88-13.46-22.79-13.23-6.06-7.11-14.34S235.1,281.71,239,282s9.22-3.43,6.65-10.83-4.3-16.49-2.69-18,10.09-4.68,9-8.45-6.7-4.3-8.8-5.94-.41,1.91-3.35,4.35-2.46,4.17-6.41,4.71-16.88,4.21-21.39,5.89-9.5,3.65-14.14,3.25-7.67-5.39-11.55-4.64-30.24,2.21-35.11,5.21a75.47,75.47,0,0,0-13.73,10.91c-3.11,3.33-5.37,6.36-9.88,7.69s-13,3.55-13,3.55S98.77,293.62,93.9,294.6s-13.81,3.85-14.23,7.07-1.57,7.41-3.25,9.06-6.91,4.29-8.89,7.11-9.58,12-7.85,20.35,5.7,9.62,8.52,8.88,2.88,9.65,3.13,12.41,3.57,8.93,3.57,8.93-3.46,6.41,1.33,10Z"/><path class="cls-4" d="M76.23,378.42c1.83,1.85,8.11,3.58,10,4.23s1.93,4.89,4.13,8.15,2.43,4.6,3.75,5.68,7.59-3.69,9.42-1.49,5,5.24,7.83,4.5,5.32-1.72,5-4.8-2.34-9.13,1.32-10.16,9.87-2.6,11.15,1.1-2.29,6-.66,9.34,4,9.25,3.3,15.66.76,18.55,1.92,18.15,2.2-8,8.16-11.94,13.9-5.3,14.57-8.84,3-13.12,6.21-10.09,13.1-.1,17.9,2.67,2.44,5.13,8.21,3,7.2-1.08,13.51.05S213,410,218.67,413.09s2.25,1.35,8.93,4.24,6.52,3.77,10.17,4.75,6.54-.26,9.23-5.45,8.56-11.84,11-9.86,12,.1,13.81,1.25c1.64,1,4.79-.77,4.08-4.94a149,149,0,0,0-18.44-5.38c-6.3-1.4-6.3,3.14-11.08,3.1-5.65-.05-15.64-4.52-16.73-4.4-3.68.4-7.23,3.68-9.79,2.22s-4.38-6.7-16.57-13.91-15.13,3.78-17.07,3.27a122.42,122.42,0,0,0-13.17-1.59c-4.22-.3-6.89-3.77-10.69-6.27s-9.13,13.44-9.13,13.44a17.61,17.61,0,0,1-7.42-11.22c-1.5-7.7-14.45-12.89-16.66-14.18s-9.35,2.66-12.28,6.9-5.63,5.77-7.65,5.88-7.32-3.33-10.61-6.88-9.25-.35-14.18,2.28-3.73-4-5.83-10.9S83.11,353,82,349.88s1.93-7.13,1.91-8.88-3.75-5.74-5.86-5.89-3.12-4.79-2.73-8.74,3-3.11,3.7-5.4,4.32-5.31,8.3-9.92,8.29-3.17,13.16-6.91,13,1.94,15.11,2.09,3.69-6.27,8.8-11.86S132.06,297,132,285s2.59-3.54,11.89-10.58c6.63-5,7.53-11.45,11.22-18.18a14.4,14.4,0,0,0-3.88,1.34,74.73,74.73,0,0,0-13.73,10.92c-3.11,3.32-5.37,6.36-9.88,7.68s-13,3.56-13,3.56S98.77,293.63,93.9,294.61s-13.81,3.84-14.23,7.07-1.57,7.41-3.25,9.05-6.91,4.29-8.89,7.11-9.58,12-7.85,20.36,5.7,9.62,8.52,8.87,2.88,9.66,3.12,12.41,3.58,8.94,3.58,8.94-3.46,6.4,1.33,10Z"/><path class="cls-3" d="M185.87,358.08s-5.86.85,2,10.65,10.25,11.82,13.83,15.32,3.78-3.44.72-10.9-6-14.5-6.42-15.76-10.17.69-10.17.69Z"/></g><path class="cls-5" d="M255.67,849.84A117.08,117.08,0,1,1,138.59,732.76,117.08,117.08,0,0,1,255.67,849.84Z"/><path class="cls-6" d="M244.23,851.25a95.62,95.62,0,1,1-95.62-95.62,95.62,95.62,0,0,1,95.62,95.62Z"/><path class="cls-7" d="M174.39,764.14A25.15,25.15,0,1,1,133,739.39a.3.3,0,0,1,.5.28A25.15,25.15,0,0,0,174,763.85a.28.28,0,0,1,.44.29Z"/><path class="cls-8" d="M174.42,751.82a25,25,0,0,1-.06,12.43A25.15,25.15,0,0,1,133,739.42a25.15,25.15,0,0,1,41.44,12.4Z"/><path class="cls-7" d="M150.23,754.48l-17.51,4.37a3.43,3.43,0,1,1-1.67-6.65l17.51-4.38a3.43,3.43,0,0,1,1.67,6.66Zm17.05,6a3.43,3.43,0,0,0-4.16-2.49l-5,1.25a3.43,3.43,0,0,0,1.67,6.66l5-1.26A3.43,3.43,0,0,0,167.28,760.51ZM158,739.11a3.43,3.43,0,0,0-4.16-2.5l-1.6.4a3.43,3.43,0,1,0,1.67,6.65l1.59-.4A3.42,3.42,0,0,0,158,739.11Z"/><path class="cls-9" d="M181.71,753.53,120,769a3.43,3.43,0,1,1-1.66-6.66l61.72-15.43a3.43,3.43,0,1,1,1.66,6.66Z"/><path class="cls-10" d="M243.61,904.66a3.45,3.45,0,0,1-2.54,3.06,3.1,3.1,0,0,1-1.14.1l-43.45-3.3,16.23,34.74a3.43,3.43,0,0,1-5.56,3.86,3.55,3.55,0,0,1-.65-1l-18.17-38.88a3.42,3.42,0,0,1-1.26-2.71L185.41,897a3.43,3.43,0,1,1,6.21-2.9l1.53,3.27,47.3,3.59a3.45,3.45,0,0,1,3.16,3.68Z"/><path class="cls-11" d="M255,816.36l-22.4,37.18a2.28,2.28,0,0,1-2,1.11H23.8a2.29,2.29,0,0,1-2.29-2.29V778a2.29,2.29,0,0,1,2.29-2.29H230.59a2.28,2.28,0,0,1,2,1.11L255,814A2.27,2.27,0,0,1,255,816.36Z"/><path class="cls-12" d="M36,854.65H23.8a2.29,2.29,0,0,1-2.29-2.29V778a2.29,2.29,0,0,1,2.29-2.29H36A2.29,2.29,0,0,0,33.74,778v74.36A2.29,2.29,0,0,0,36,854.65Z"/><path class="cls-13" d="M195.3,846.74v54.88A2.29,2.29,0,0,1,193,903.9H60.38a2.28,2.28,0,0,1-2.28-2.28V846.74a2.28,2.28,0,0,1,2.28-2.29H193a2.29,2.29,0,0,1,2.29,2.29Z"/><path class="cls-14" d="M72,903.9H60.38a2.28,2.28,0,0,1-2.28-2.28V846.74a2.28,2.28,0,0,1,2.28-2.29H72a2.28,2.28,0,0,0-2.28,2.29v54.88A2.28,2.28,0,0,0,72,903.9Z"/><path class="cls-15" d="M171.34,796.88l.29,29.88a3.56,3.56,0,0,1-2.39,3.55,3.4,3.4,0,0,1-3.83-1.43L150,806.5v21.33a3,3,0,0,1-5.94,0V797a3,3,0,0,1,5.41-1.69L165.6,818.7l-.21-21.76a3,3,0,0,1,6-.06ZM108,793.94a3,3,0,0,0-3,3v30.92a3,3,0,0,0,5.94,0V796.91A3,3,0,0,0,108,793.94Zm26.88,6.22a3,3,0,1,0,0-5.94H122a3,3,0,0,0-3,3v30.64a3,3,0,0,0,3,3h12.91a3,3,0,1,0,0-5.94H125v-9.38h9a3,3,0,0,0,0-5.94h-9v-9.38Zm94.69,24.7h-9.94v-9.38h9a3,3,0,0,0,0-5.94h-9v-9.38h9.94a3,3,0,1,0,0-5.94H216.69a3,3,0,0,0-3,3v30.64a3,3,0,0,0,3,3H229.6a3,3,0,1,0,0-5.94ZM97,821.19a3,3,0,0,0-4.19.37,8.8,8.8,0,0,1-1,1,9.47,9.47,0,0,1-6.51,2.32,12.49,12.49,0,1,1,7-22.85,3,3,0,1,0,3.33-4.92A18.43,18.43,0,1,0,85.33,830.8,15.42,15.42,0,0,0,95.79,827a15.73,15.73,0,0,0,1.56-1.6,3,3,0,0,0-.37-4.19Zm110.87,0a3,3,0,0,0-4.19.37,9.88,9.88,0,0,1-1,1,9.43,9.43,0,0,1-6.5,2.32,12.49,12.49,0,1,1,7-22.85,3,3,0,1,0,3.32-4.92,18.43,18.43,0,1,0-10.3,33.71A15.45,15.45,0,0,0,206.66,827a15.63,15.63,0,0,0,1.55-1.6,3,3,0,0,0-.36-4.19ZM54.7,809.83c-3.94-1.46-7.6-3.05-8.57-3.47A3,3,0,0,1,45,803.45,4.08,4.08,0,0,1,48,800.24c4.84-1.46,9.23,2,9.34,2.13a3,3,0,0,0,3.81-4.56c-.27-.23-6.87-5.67-14.86-3.26a10,10,0,0,0-7.26,8.05,9,9,0,0,0,4,8.86,3.23,3.23,0,0,0,.41.22c.18.08,4.41,2,9.18,3.72,3.31,1.22,5,3.12,4.63,5.21s-2.83,4.25-6.28,4.25a11.67,11.67,0,0,1-8.58-3.61,3,3,0,1,0-4.4,4,17.69,17.69,0,0,0,13,5.56c6,0,11.2-3.93,12.13-9.15.71-3.95-1.14-9.14-8.42-11.82Z"/><path class="cls-16" d="M118.51,858.1l0-.08a3.67,3.67,0,0,0-3.4-2.28h0a3.66,3.66,0,0,0-3.4,2.29s0,0,0,.06l-11.61,30.49a3,3,0,0,0,1.72,3.83,2.76,2.76,0,0,0,1,.2,3,3,0,0,0,2.78-1.91l2.16-5.68h14.56l2.14,5.67a3,3,0,0,0,5.56-2.1Zm-8.48,21,5-13.24,5,13.24Zm32.25-20.36v30.93a3,3,0,0,1-5.95,0V858.71a3,3,0,0,1,5.95,0Zm-44.2.23a3,3,0,0,1-3,3H85.64V871h8.48a3,3,0,0,1,0,5.94H85.64v12.67a3,3,0,0,1-6,0v-30.7a3,3,0,0,1,3-3H95.1a3,3,0,0,1,3,3Zm66.67,18.67a11,11,0,0,0-1.87-21.87h-8.23a3,3,0,0,0-3,3v30.93a3,3,0,0,0,5.95,0V878.52l11.51,13.08a3,3,0,1,0,4.46-3.93Zm-1.87-15.92a5.08,5.08,0,1,1,0,10.12l-5.2,0c0-1.78,0-3.92,0-5.08,0-1,0-3.2,0-5.06Z"/><path class="cls-17" d="M204.85,907.36a13.72,13.72,0,1,1-18.63-18.57.16.16,0,0,1,.22.21,13.59,13.59,0,0,0-1.22,5.84,13.76,13.76,0,0,0,13.55,13.55,13.57,13.57,0,0,0,5.88-1.24A.15.15,0,0,1,204.85,907.36Zm43,2.86a11.43,11.43,0,1,1-15.53-15.47.13.13,0,0,1,.19.17,11.45,11.45,0,0,0,15.18,15.13.12.12,0,0,1,.16.17Zm-28.82,36.52a11.43,11.43,0,1,1-15.52-15.48.14.14,0,0,1,.19.18A11.44,11.44,0,0,0,214,947.6a11.31,11.31,0,0,0,4.9-1,.13.13,0,0,1,.16.18Zm-54.56,1.75a9.15,9.15,0,1,1-12.42-12.38.11.11,0,0,1,.15.14,9.15,9.15,0,0,0,12.14,12.1.1.1,0,0,1,.13.14Z"/><path class="cls-18" d="M206.49,900.84a13.79,13.79,0,0,1-1.67,6.58,13.74,13.74,0,0,1-20.3-12,13.62,13.62,0,0,1,1.68-6.57,13.71,13.71,0,0,1,20.29,12Zm42.77,3.95a11.38,11.38,0,0,1-1.4,5.48,11.43,11.43,0,0,1-15.51-15.52,11.44,11.44,0,0,1,16.91,10Zm-28.82,36.52a11.4,11.4,0,0,1-1.39,5.48,11.44,11.44,0,0,1-15.52-15.52,11.43,11.43,0,0,1,16.91,10Zm-54.83,2.84a9.14,9.14,0,0,1-1.12,4.38,9.14,9.14,0,0,1-12.41-12.41,9,9,0,0,1,4.38-1.12A9.15,9.15,0,0,1,165.61,944.15Z"/><path class="cls-7" d="M231.19,876.25a9.15,9.15,0,1,1-12.42-12.38.11.11,0,0,1,.16.14,9.06,9.06,0,0,0-.82,3.9,9.17,9.17,0,0,0,9,9,9,9,0,0,0,3.92-.83A.1.1,0,0,1,231.19,876.25Zm-94.51,51.82a9.15,9.15,0,1,1-12.42-12.38.11.11,0,0,1,.15.14,9.15,9.15,0,0,0,12.14,12.1A.1.1,0,0,1,136.68,928.07Z"/><path class="cls-8" d="M232.29,871.91a9.14,9.14,0,0,1-1.12,4.38,9.14,9.14,0,0,1-12.41-12.41,9,9,0,0,1,4.38-1.12A9.15,9.15,0,0,1,232.29,871.91Zm-94.51,51.82a9.11,9.11,0,0,1-1.12,4.38,9.14,9.14,0,0,1-12.41-12.41,9.14,9.14,0,0,1,13.53,8Z"/><path class="cls-8" d="M99.14,936.33l-6.42,11.12a4.57,4.57,0,0,1-6.24,1.67l-4.69-2.7a30.82,30.82,0,0,1-8.18,4.73v5.4A4.57,4.57,0,0,1,69,961.12H56.21a4.58,4.58,0,0,1-4.57-4.57v-5.4a30.82,30.82,0,0,1-8.18-4.73l-4.68,2.7a4.58,4.58,0,0,1-6.25-1.67l-6.42-11.12a4.57,4.57,0,0,1,1.68-6.24l4.68-2.71a30.29,30.29,0,0,1,0-9.44l-4.68-2.71A4.57,4.57,0,0,1,26.11,909l6.42-11.11a4.58,4.58,0,0,1,6.25-1.68l4.68,2.71a30.28,30.28,0,0,1,8.18-4.73v-5.4a4.58,4.58,0,0,1,4.57-4.58H69a4.57,4.57,0,0,1,4.57,4.58v5.4a30.28,30.28,0,0,1,8.18,4.73l4.69-2.71a4.57,4.57,0,0,1,6.24,1.68L99.14,909a4.57,4.57,0,0,1-1.68,6.24l-4.68,2.71a30.29,30.29,0,0,1,0,9.44l4.68,2.71a4.57,4.57,0,0,1,1.68,6.24Z"/><path class="cls-7" d="M84.6,922.66l-11,19h-22l-11-19,11-19h22Z"/><path class="cls-5" d="M76.06,922.66l-6.72,11.63H55.91L49.2,922.66,55.91,911H69.34Z"/><circle class="cls-19" cx="342.01" cy="584.15" r="122.35"/><path class="cls-20" d="M248.13,532.88H230.9a121.82,121.82,0,0,0-11.23,51.27c0,2.17.05,4.33.17,6.48h28.29Z"/><path class="cls-21" d="M427.09,622.22H416.36v40.39h10.73a5,5,0,0,0,5-5v-30.4A5,5,0,0,0,427.09,622.22Z"/><polygon class="cls-22" points="360.34 620.35 360.34 664.49 401.66 689.14 401.66 595.7 360.34 620.35"/><path class="cls-17" d="M416.86,697a2.51,2.51,0,0,1-2.5,2.49H403.65a2.5,2.5,0,0,1-2.49-2.49V587.8a2.5,2.5,0,0,1,2.49-2.5h10.71a2.51,2.51,0,0,1,2.5,2.5Z"/><path class="cls-23" d="M409.73,697V587.8a2.51,2.51,0,0,1,2.5-2.5h-8.58a2.5,2.5,0,0,0-2.49,2.5V697a2.5,2.5,0,0,0,2.49,2.49h8.58A2.51,2.51,0,0,1,409.73,697Z"/><path class="cls-22" d="M315,623.92H303.43a2.51,2.51,0,0,0-2.5,2.5v32a2.51,2.51,0,0,0,2.5,2.5H315Z"/><path class="cls-24" d="M308.18,658.41v-32a2.51,2.51,0,0,1,2.49-2.5h-7.24a2.51,2.51,0,0,0-2.5,2.5v32a2.51,2.51,0,0,0,2.5,2.5h7.24A2.5,2.5,0,0,1,308.18,658.41Z"/><path class="cls-17" d="M360.84,664.73a2.5,2.5,0,0,1-2.5,2.49H317a2.5,2.5,0,0,1-2.49-2.49V620.1a2.5,2.5,0,0,1,2.49-2.49h41.34a2.5,2.5,0,0,1,2.5,2.49Z"/><path class="cls-23" d="M324.41,664.73V620.1a2.51,2.51,0,0,1,2.5-2.49H317a2.5,2.5,0,0,0-2.49,2.49v44.63a2.5,2.5,0,0,0,2.49,2.49h9.91A2.51,2.51,0,0,1,324.41,664.73Z"/><path class="cls-25" d="M461.62,495.58a2.51,2.51,0,0,0-2.49-2.5H391a2.51,2.51,0,0,0-2.5,2.5V543a2.5,2.5,0,0,0,2.5,2.49h20.57a5.63,5.63,0,0,1,4,2l8,10.72a1.76,1.76,0,0,0,3,0l8-10.72a5.61,5.61,0,0,1,4-2h20.57a2.5,2.5,0,0,0,2.49-2.49V495.58Z"/><path class="cls-26" d="M398.4,543V495.58a2.51,2.51,0,0,1,2.5-2.5H391a2.51,2.51,0,0,0-2.5,2.5V543a2.5,2.5,0,0,0,2.5,2.49h9.91A2.5,2.5,0,0,1,398.4,543Z"/><path class="cls-16" d="M446.45,511.61H403.66a3.75,3.75,0,0,1,0-7.49h42.79a3.75,3.75,0,1,1,0,7.49Z"/><path class="cls-16" d="M446.45,523.22H403.66a3.75,3.75,0,0,1,0-7.49h42.79a3.75,3.75,0,1,1,0,7.49Z"/><path class="cls-16" d="M425.14,534.83H403.66a3.75,3.75,0,0,1,0-7.49h21.48a3.75,3.75,0,1,1,0,7.49Z"/><circle class="cls-17" cx="353.5" cy="483.08" r="27.77"/><path class="cls-23" d="M335.64,483.08a27.77,27.77,0,0,1,22.81-27.32,27.77,27.77,0,1,0,0,54.64A27.77,27.77,0,0,1,335.64,483.08Z"/><path class="cls-16" d="M353.45,498.36a1.66,1.66,0,0,1-1.19-.49l-13.12-13.23a8.52,8.52,0,0,1,0-12,8.33,8.33,0,0,1,11.86,0l2.5,2.52,2.5-2.52a8.33,8.33,0,0,1,11.86,0,8.52,8.52,0,0,1,0,12l-13.22,13.23A1.66,1.66,0,0,1,353.45,498.36Z"/><path class="cls-17" d="M258.2,637a1.4,1.4,0,0,1-1-.42l-11.08-11.16a7.18,7.18,0,0,1,0-10.09,7,7,0,0,1,10,0l2.11,2.12,2.12-2.12a7,7,0,0,1,10,0,7.16,7.16,0,0,1,0,10.09l-11.15,11.17A1.41,1.41,0,0,1,258.2,637Z"/><path class="cls-23" d="M251.7,623.13a7.18,7.18,0,0,1-.23-9.84l-.34,0a7.05,7.05,0,0,0-5,2.09,7.2,7.2,0,0,0,0,10.1l11.08,11.16a1.4,1.4,0,0,0,1,.42,1.46,1.46,0,0,0,1-.41l3-3Z"/><path class="cls-27" d="M312.63,594v-6.89a7,7,0,0,1,7-7h1.61a.5.5,0,0,0,0-1,7,7,0,0,1-7-7v-6.89a7,7,0,0,1,7-7,.5.5,0,1,0,0-1,7,7,0,0,1-7-7v-6.9a7,7,0,0,1,7-7,.5.5,0,0,0,0-1h-3.08a7,7,0,0,1-7-7v-6.89a7,7,0,0,1,5.74-6.88V487.78a7.51,7.51,0,0,0-7.49-7.49H297.76a8.86,8.86,0,0,0-8.51,7.42l-4.69,34.44c-.55,4.06-3.49,7.39-6.54,7.42v64.91h34.64C312.65,594.32,312.63,594.17,312.63,594Z"/><path class="cls-28" d="M309.41,480.29H297.76a8.86,8.86,0,0,0-8.51,7.42l-4.69,34.44c-.55,4.06-3.49,7.39-6.54,7.42v9.91h9.88c3.06,0,6-3.34,6.57-7.43l4.69-34.43a8.86,8.86,0,0,1,8.5-7.42h9.24v-2.42A7.51,7.51,0,0,0,309.41,480.29Z"/><path class="cls-27" d="M319.63,601.49a7.51,7.51,0,0,1-7.49-7.49v-6.89a7.51,7.51,0,0,1,7.49-7.49h40.62a7.51,7.51,0,0,1,7.49,7.49V594a7.51,7.51,0,0,1-7.49,7.49Z"/><path class="cls-21" d="M250.13,602.61a2.5,2.5,0,0,1-2.5-2.49V523.39a2.51,2.51,0,0,1,2.5-2.5H276a2.51,2.51,0,0,1,2.49,2.5v76.73a2.5,2.5,0,0,1-2.49,2.49Z"/><path class="cls-29" d="M257.54,600.12V523.39a2.51,2.51,0,0,1,2.5-2.5h-9.91a2.51,2.51,0,0,0-2.5,2.5v76.73a2.5,2.5,0,0,0,2.5,2.49H260A2.5,2.5,0,0,1,257.54,600.12Z"/><circle class="cls-30" cx="263.08" cy="533.12" r="6.68"/><path class="cls-27" d="M318.16,535.87a7.51,7.51,0,0,1-7.49-7.49v-6.89a7.51,7.51,0,0,1,7.49-7.49h42.09a7.51,7.51,0,0,1,7.49,7.49v6.89a7.51,7.51,0,0,1-7.49,7.49Z"/><path class="cls-27" d="M321.24,557.75a7.51,7.51,0,0,1-7.49-7.49v-6.9a7.51,7.51,0,0,1,7.49-7.49h40.83a7.51,7.51,0,0,1,7.49,7.49v6.9a7.51,7.51,0,0,1-7.49,7.49Z"/><path class="cls-27" d="M321.24,579.62a7.51,7.51,0,0,1-7.49-7.49v-6.89a7.51,7.51,0,0,1,7.49-7.49h40.83a7.51,7.51,0,0,1,7.49,7.49v6.89a7.51,7.51,0,0,1-7.49,7.49Z"/><path class="cls-28" d="M327.34,593.78a7.51,7.51,0,0,1-7.49-7.49v-6.67h-.22a7.51,7.51,0,0,0-7.49,7.49V594a7.51,7.51,0,0,0,7.49,7.49h40.62a7.51,7.51,0,0,0,7.49-7.49v-.22Z"/><path class="cls-28" d="M325.87,528.16a7.51,7.51,0,0,1-7.49-7.49V514h-.22a7.51,7.51,0,0,0-7.49,7.49v6.89a7.51,7.51,0,0,0,7.49,7.49h42.09a7.51,7.51,0,0,0,7.49-7.49v-.22Z"/><path class="cls-28" d="M329,550a7.51,7.51,0,0,1-7.49-7.49v-6.67h-.22a7.51,7.51,0,0,0-7.49,7.49v6.9a7.51,7.51,0,0,0,7.49,7.49h40.83a7.51,7.51,0,0,0,7.49-7.49V550Z"/><path class="cls-28" d="M329,571.91a7.51,7.51,0,0,1-7.49-7.49v-6.67h-.22a7.51,7.51,0,0,0-7.49,7.49v6.89a7.51,7.51,0,0,0,7.49,7.49h40.83a7.51,7.51,0,0,0,7.49-7.49v-.22Z"/><path class="cls-13" d="M280.58,647.64H235.91a1,1,0,0,0-1,1V677.3a1,1,0,0,0,1,1h44.67a1,1,0,0,0,1-1V648.64A1,1,0,0,0,280.58,647.64Z"/><path class="cls-14" d="M244.83,677.3V655.47L235.16,648a.54.54,0,0,1,.15-.15,1,1,0,0,0-.39.79V677.3a1,1,0,0,0,1,1h9.91A1,1,0,0,1,244.83,677.3Z"/><path class="cls-31" d="M280.58,647.64H235.91a1,1,0,0,0-.75.36l22.3,17.23a1.34,1.34,0,0,0,1.57,0L281.33,648A1,1,0,0,0,280.58,647.64Z"/><path class="cls-13" d="M474.35,569H429.68a1,1,0,0,0-1,1v28.66a1,1,0,0,0,1,1h44.67a1,1,0,0,0,1-1V570A1,1,0,0,0,474.35,569Z"/><path class="cls-14" d="M438.59,598.65V576.82l-9.67-7.47.15-.14a1,1,0,0,0-.38.78v28.66a1,1,0,0,0,1,1h9.91A1,1,0,0,1,438.59,598.65Z"/><path class="cls-31" d="M474.35,569H429.68a1,1,0,0,0-.76.36l22.31,17.24a1.37,1.37,0,0,0,1.57,0l22.3-17.24A1,1,0,0,0,474.35,569Z"/><path class="cls-15" d="M258.85,221.51c0,15-12.59,26.15-12.59,26.15s-12.59-11.14-12.59-26.15a12.59,12.59,0,0,1,25.18,0Z"/><circle class="cls-32" cx="246.26" cy="221.51" r="7.62"/><path class="cls-15" d="M225.85,323.51c0,15-12.59,26.15-12.59,26.15s-12.59-11.14-12.59-26.15a12.59,12.59,0,0,1,25.18,0Z"/><circle class="cls-32" cx="213.26" cy="323.51" r="7.62"/><path class="cls-15" d="M167.85,299.51c0,15-12.59,26.15-12.59,26.15s-12.59-11.14-12.59-26.15a12.59,12.59,0,0,1,25.18,0Z"/><circle class="cls-32" cx="155.26" cy="299.51" r="7.62"/><path class="cls-15" d="M260.77,358.76c0,15-12.59,26.15-12.59,26.15s-12.59-11.14-12.59-26.15a12.59,12.59,0,1,1,25.18,0Z"/><circle class="cls-32" cx="248.18" cy="358.76" r="7.62"/><path class="cls-33" d="M1138.25,291.57a30.38,30.38,0,0,1-35.6,19.37,29.3,29.3,0,0,1-18.21-13.48,30.72,30.72,0,0,1-3.38-23.5c2.73-10.79-3.87-22-18.61-31.72a30.39,30.39,0,0,1-11.56-36.19,32,32,0,0,1,3-6,30.47,30.47,0,0,1,19.39-13.59,29.18,29.18,0,0,1,22.31,4.14c54.48,35.75,47.2,83.89,43.67,97.81a32.29,32.29,0,0,1-1,3.17Z"/><path class="cls-34" d="M1138.25,291.57a30.38,30.38,0,0,1-35.6,19.37,29.3,29.3,0,0,1-18.21-13.48,30.72,30.72,0,0,1-3.38-23.5c2.73-10.79-3.87-22-18.61-31.72a30.39,30.39,0,0,1-11.56-36.19,32,32,0,0,1,3-6,30.47,30.47,0,0,1,19.39-13.59,29.18,29.18,0,0,1,22.31,4.14c54.48,35.75,47.2,83.89,43.67,97.81a32.29,32.29,0,0,1-1,3.17Z"/><path class="cls-35" d="M1138.25,291.57a30.38,30.38,0,0,1-35.6,19.37,29.3,29.3,0,0,1-18.21-13.48,30.72,30.72,0,0,1-3.38-23.5c2.73-10.79-3.87-22-18.61-31.72a30.39,30.39,0,0,1-11.56-36.19,32,32,0,0,1,3-6,30.47,30.47,0,0,1,19.39-13.59,29.18,29.18,0,0,1,22.31,4.14c54.48,35.75,47.2,83.89,43.67,97.81a32.29,32.29,0,0,1-1,3.17Z"/><g class="cls-36"><path class="cls-37" d="M1128.19,287.06a20.18,20.18,0,0,1-23.56,13,19.16,19.16,0,0,1-11.9-8.83,20.47,20.47,0,0,1-2.23-15.72c2.14-8.46,2.14-25-22-40.84a20.44,20.44,0,0,1-7.58-24.07,21.31,21.31,0,0,1,2-4.06,20.27,20.27,0,0,1,12.9-9.07,19,19,0,0,1,14.57,2.69c47.68,31.3,41.47,72.79,38.43,84.77a20.72,20.72,0,0,1-.67,2.16Z"/><g class="cls-36"><path class="cls-38" d="M1090.2,217.39a7.45,7.45,0,1,1-9.57,4.41,7.46,7.46,0,0,1,9.57-4.41Z"/><g class="cls-36"><path class="cls-39" d="M1110.13,276.37a5.59,5.59,0,1,1-7.18,3.31,5.59,5.59,0,0,1,7.18-3.31Z"/><g class="cls-36"><path class="cls-38" d="M1108.59,232.12a5.59,5.59,0,1,1-7.18,3.31,5.59,5.59,0,0,1,7.18-3.31Z"/><g class="cls-36"><path class="cls-38" d="M1104.8,258.52a1.87,1.87,0,0,1-.39.61,2.07,2.07,0,0,1-.58.44,2,2,0,0,1-.71.16,1.94,1.94,0,0,1-.72-.11,2,2,0,0,1-1.05-1,2.22,2.22,0,0,1-.16-.72,1.92,1.92,0,0,1,1.07-1.77,2,2,0,0,1,1.43,0,1.73,1.73,0,0,1,.62.38,1.94,1.94,0,0,1,.44.58,2,2,0,0,1,0,1.43Z"/><g class="cls-36"><path class="cls-38" d="M1119.24,267.82a1.75,1.75,0,0,1-.38.61,2.22,2.22,0,0,1-.58.44,2,2,0,0,1-.71.16,1.75,1.75,0,0,1-.72-.11,1.9,1.9,0,0,1-1-1,2,2,0,0,1-.16-.71,1.86,1.86,0,1,1,3.6.57Z"/><g class="cls-36"><path class="cls-38" d="M1117.87,255.4a1.77,1.77,0,0,1-.39.61,1.94,1.94,0,0,1-.58.44,1.89,1.89,0,0,1-.71.16,1.73,1.73,0,0,1-.71-.11,2,2,0,0,1-1.06-1,2.2,2.2,0,0,1-.15-.71,1.87,1.87,0,0,1,1.07-1.77,1.91,1.91,0,0,1,1.43-.05,2,2,0,0,1,.61.38,2.07,2.07,0,0,1,.44.58,2,2,0,0,1,0,1.43Z"/><g class="cls-36"><path class="cls-38" d="M1071.89,218.58a2.15,2.15,0,0,1-.38.61,2.12,2.12,0,0,1-.59.44,1.89,1.89,0,0,1-.71.16,1.92,1.92,0,0,1-.71-.11,2,2,0,0,1-1.06-1,2.2,2.2,0,0,1-.15-.72,1.92,1.92,0,0,1,1.07-1.77,2,2,0,0,1,1.43,0,2,2,0,0,1,.61.39,1.94,1.94,0,0,1,.44.58,2,2,0,0,1,.05,1.43Z"/><g class="cls-36"><path class="cls-38" d="M1083.39,208.92a1.73,1.73,0,0,1-.38.62,2.53,2.53,0,0,1-.58.44,2,2,0,0,1-.71.15,1.93,1.93,0,0,1-.72-.1,2,2,0,0,1-1-1,2.22,2.22,0,0,1-.16-.71,1.92,1.92,0,0,1,1.07-1.77,2,2,0,0,1,1.43-.05,1.77,1.77,0,0,1,.61.39,1.82,1.82,0,0,1,.45.58,1.94,1.94,0,0,1,0,1.42Z"/></g></g></g></g></g></g></g></g></g><path class="cls-39" d="M1118.11,265.35a2,2,0,1,1-2.5,1.16,2,2,0,0,1,2.5-1.16Z"/><path class="cls-39" d="M1116.71,252.94a2,2,0,0,1-1.35,3.66,2,2,0,1,1,1.35-3.66Z"/><path class="cls-39" d="M1103.75,256.07a2,2,0,1,1-2.5,1.15,1.95,1.95,0,0,1,2.5-1.15Z"/><path class="cls-39" d="M1070.81,216.11a2,2,0,0,1-1.35,3.66,2,2,0,1,1,1.35-3.66Z"/><path class="cls-39" d="M1090.35,217.4a7.58,7.58,0,1,1-9.73,4.48,7.57,7.57,0,0,1,9.73-4.48Z"/><path class="cls-39" d="M1108.74,232a5.72,5.72,0,1,1-7.35,3.39,5.73,5.73,0,0,1,7.35-3.39Z"/><path class="cls-39" d="M1082.31,206.41a2,2,0,1,1-2.5,1.16,2,2,0,0,1,2.5-1.16Z"/><path class="cls-33" d="M1261.25,123.57a30.38,30.38,0,0,1-35.6,19.37,29.3,29.3,0,0,1-18.21-13.48,30.72,30.72,0,0,1-3.38-23.5c2.73-10.79-3.87-22-18.61-31.72a30.39,30.39,0,0,1-11.56-36.19,32,32,0,0,1,3-6,30.47,30.47,0,0,1,19.39-13.59,29.18,29.18,0,0,1,22.31,4.14c54.48,35.75,47.2,83.89,43.67,97.81a32.29,32.29,0,0,1-1,3.17Z"/><path class="cls-34" d="M1261.25,123.57a30.38,30.38,0,0,1-35.6,19.37,29.3,29.3,0,0,1-18.21-13.48,30.72,30.72,0,0,1-3.38-23.5c2.73-10.79-3.87-22-18.61-31.72a30.39,30.39,0,0,1-11.56-36.19,32,32,0,0,1,3-6,30.47,30.47,0,0,1,19.39-13.59,29.18,29.18,0,0,1,22.31,4.14c54.48,35.75,47.2,83.89,43.67,97.81a32.29,32.29,0,0,1-1,3.17Z"/><path class="cls-35" d="M1261.25,123.57a30.38,30.38,0,0,1-35.6,19.37,29.3,29.3,0,0,1-18.21-13.48,30.72,30.72,0,0,1-3.38-23.5c2.73-10.79-3.87-22-18.61-31.72a30.39,30.39,0,0,1-11.56-36.19,32,32,0,0,1,3-6,30.47,30.47,0,0,1,19.39-13.59,29.18,29.18,0,0,1,22.31,4.14c54.48,35.75,47.2,83.89,43.67,97.81a32.29,32.29,0,0,1-1,3.17Z"/><g class="cls-40"><path class="cls-37" d="M1251.19,119.06a20.18,20.18,0,0,1-23.56,13,19.16,19.16,0,0,1-11.9-8.83,20.47,20.47,0,0,1-2.23-15.72c2.14-8.46,2.14-25-22-40.84A20.44,20.44,0,0,1,1184,42.57a21.31,21.31,0,0,1,2-4.06,20.27,20.27,0,0,1,12.9-9.07,19,19,0,0,1,14.57,2.69c47.68,31.3,41.47,72.79,38.43,84.77a20.72,20.72,0,0,1-.67,2.16Z"/><g class="cls-40"><path class="cls-38" d="M1213.2,49.39a7.45,7.45,0,1,1-9.57,4.41,7.46,7.46,0,0,1,9.57-4.41Z"/><g class="cls-40"><path class="cls-39" d="M1233.13,108.37a5.59,5.59,0,1,1-7.18,3.31,5.59,5.59,0,0,1,7.18-3.31Z"/><g class="cls-40"><path class="cls-38" d="M1231.59,64.12a5.59,5.59,0,1,1-7.18,3.31,5.59,5.59,0,0,1,7.18-3.31Z"/><g class="cls-40"><path class="cls-38" d="M1227.8,90.52a1.87,1.87,0,0,1-.39.61,2.07,2.07,0,0,1-.58.44,2,2,0,0,1-.71.16,1.94,1.94,0,0,1-.72-.11,2,2,0,0,1-1.05-1,2.22,2.22,0,0,1-.16-.72,1.92,1.92,0,0,1,1.07-1.77,2,2,0,0,1,1.43,0,1.73,1.73,0,0,1,.62.38,1.94,1.94,0,0,1,.44.58,2,2,0,0,1,0,1.43Z"/><g class="cls-40"><path class="cls-38" d="M1242.24,99.82a1.75,1.75,0,0,1-.38.61,2.22,2.22,0,0,1-.58.44,2,2,0,0,1-.71.16,1.75,1.75,0,0,1-.72-.11,1.9,1.9,0,0,1-1-1,2,2,0,0,1-.16-.71,1.86,1.86,0,1,1,3.6.57Z"/><g class="cls-40"><path class="cls-38" d="M1240.87,87.4a1.77,1.77,0,0,1-.39.61,1.94,1.94,0,0,1-.58.44,1.89,1.89,0,0,1-.71.16,1.73,1.73,0,0,1-.71-.11,2,2,0,0,1-1.06-1,2.2,2.2,0,0,1-.15-.71,1.87,1.87,0,0,1,1.07-1.77,1.91,1.91,0,0,1,1.43,0,2,2,0,0,1,.61.38,2.07,2.07,0,0,1,.44.58,2,2,0,0,1,0,1.43Z"/><g class="cls-40"><path class="cls-38" d="M1194.89,50.58a2.15,2.15,0,0,1-.38.61,2.12,2.12,0,0,1-.59.44,1.89,1.89,0,0,1-.71.16,1.92,1.92,0,0,1-.71-.11,2,2,0,0,1-1.06-1,2.2,2.2,0,0,1-.15-.72,1.92,1.92,0,0,1,1.07-1.77,2,2,0,0,1,1.43,0,2,2,0,0,1,.61.39,1.94,1.94,0,0,1,.44.58,2,2,0,0,1,.05,1.43Z"/><g class="cls-40"><path class="cls-38" d="M1206.39,40.92a1.73,1.73,0,0,1-.38.62,2.53,2.53,0,0,1-.58.44,2,2,0,0,1-.71.15,1.93,1.93,0,0,1-.72-.1,2,2,0,0,1-1-1,2.22,2.22,0,0,1-.16-.71,1.92,1.92,0,0,1,1.07-1.77,2,2,0,0,1,1.43,0,1.77,1.77,0,0,1,.61.39,1.82,1.82,0,0,1,.45.58,1.94,1.94,0,0,1,0,1.42Z"/></g></g></g></g></g></g></g></g></g><path class="cls-39" d="M1241.11,97.35a2,2,0,1,1-2.5,1.16,2,2,0,0,1,2.5-1.16Z"/><path class="cls-39" d="M1239.71,84.94a2,2,0,0,1-1.35,3.66,2,2,0,1,1,1.35-3.66Z"/><path class="cls-39" d="M1226.75,88.07a2,2,0,1,1-2.5,1.15,1.95,1.95,0,0,1,2.5-1.15Z"/><path class="cls-39" d="M1193.81,48.11a2,2,0,0,1-1.35,3.66,2,2,0,1,1,1.35-3.66Z"/><path class="cls-39" d="M1213.35,49.4a7.58,7.58,0,1,1-9.73,4.48,7.57,7.57,0,0,1,9.73-4.48Z"/><path class="cls-39" d="M1231.74,64a5.72,5.72,0,1,1-7.35,3.39,5.73,5.73,0,0,1,7.35-3.39Z"/><path class="cls-39" d="M1205.31,38.41a2,2,0,1,1-2.5,1.16,2,2,0,0,1,2.5-1.16Z"/><path class="cls-33" d="M769,5.33a18.63,18.63,0,0,1,20,14.78,17.9,17.9,0,0,1-2.79,13.6A18.76,18.76,0,0,1,774,41.66c-6.7,1.27-11.25,7.86-12.81,18.54A18.62,18.62,0,0,1,744.05,76a19.47,19.47,0,0,1-4.11-.1,18.71,18.71,0,0,1-12.57-7.26,17.91,17.91,0,0,1-3.46-13.47C729.69,15.64,758.32,7.24,767,5.61a19.24,19.24,0,0,1,2-.28Z"/><path class="cls-34" d="M769,5.33a18.63,18.63,0,0,1,20,14.78,17.9,17.9,0,0,1-2.79,13.6A18.76,18.76,0,0,1,774,41.66c-6.7,1.27-11.25,7.86-12.81,18.54A18.62,18.62,0,0,1,744.05,76a19.47,19.47,0,0,1-4.11-.1,18.71,18.71,0,0,1-12.57-7.26,17.91,17.91,0,0,1-3.46-13.47C729.69,15.64,758.32,7.24,767,5.61a19.24,19.24,0,0,1,2-.28Z"/><path class="cls-35" d="M769,5.33a18.63,18.63,0,0,1,20,14.78,17.9,17.9,0,0,1-2.79,13.6A18.76,18.76,0,0,1,774,41.66c-6.7,1.27-11.25,7.86-12.81,18.54A18.62,18.62,0,0,1,744.05,76a19.47,19.47,0,0,1-4.11-.1,18.71,18.71,0,0,1-12.57-7.26,17.91,17.91,0,0,1-3.46-13.47C729.69,15.64,758.32,7.24,767,5.61a19.24,19.24,0,0,1,2-.28Z"/><g class="cls-41"><path class="cls-37" d="M769.08,12.09a12.36,12.36,0,0,1,13.29,9.74,11.7,11.7,0,0,1-1.83,8.89A12.51,12.51,0,0,1,772.39,36c-5.26,1-14.46,5.27-17,22.76A12.51,12.51,0,0,1,744,69.22a12.91,12.91,0,0,1-2.78-.06,12.49,12.49,0,0,1-8.38-4.83,11.67,11.67,0,0,1-2.26-8.79C735.6,21,760.27,13.68,767.7,12.28a13.07,13.07,0,0,1,1.38-.19Z"/><g class="cls-41"><path class="cls-38" d="M740.19,51.21a4.57,4.57,0,1,1,4.92,4.18,4.56,4.56,0,0,1-4.92-4.18Z"/><g class="cls-41"><path class="cls-39" d="M767.81,24.89A3.42,3.42,0,1,1,771.5,28a3.43,3.43,0,0,1-3.69-3.13Z"/><g class="cls-41"><path class="cls-38" d="M743.62,37.18a3.42,3.42,0,1,1,3.69,3.13,3.42,3.42,0,0,1-3.69-3.13Z"/><g class="cls-41"><path class="cls-38" d="M759.27,32.47a1.32,1.32,0,0,1,.44.05,1.47,1.47,0,0,1,.39.21,1.3,1.3,0,0,1,.4.78,1.23,1.23,0,0,1-.27.84,1.31,1.31,0,0,1-.35.27,1.14,1.14,0,0,1-1.66-.92,1.09,1.09,0,0,1,.06-.44,1,1,0,0,1,.21-.4,1.22,1.22,0,0,1,.78-.39Z"/><g class="cls-41"><path class="cls-38" d="M760.7,22a1.09,1.09,0,0,1,.44.06,1.53,1.53,0,0,1,.4.21,1.31,1.31,0,0,1,.27.35,1.11,1.11,0,0,1,.12.43,1.18,1.18,0,0,1-.26.83,1.22,1.22,0,0,1-.36.27,1.16,1.16,0,0,1-1.26-.13,1.22,1.22,0,0,1-.39-.78,1.3,1.3,0,0,1,.05-.44,1.39,1.39,0,0,1,.21-.4,1.23,1.23,0,0,1,.78-.4Z"/><g class="cls-41"><path class="cls-38" d="M754.15,26a1.3,1.3,0,0,1,.44,0,1.39,1.39,0,0,1,.4.21,1.3,1.3,0,0,1,.4.78,1.23,1.23,0,0,1-.27.84,1.31,1.31,0,0,1-.35.27,1.14,1.14,0,0,1-1.66-.92,1.09,1.09,0,0,1,.06-.44,1,1,0,0,1,1-.79Z"/><g class="cls-41"><path class="cls-38" d="M745.58,61.07a1.09,1.09,0,0,1,.44.06,1.47,1.47,0,0,1,.39.21,1.23,1.23,0,0,1,.4.78,1.18,1.18,0,0,1-.26.83,1.54,1.54,0,0,1-.36.27,1.16,1.16,0,0,1-1.26-.13,1.21,1.21,0,0,1-.4-.78,1.09,1.09,0,0,1,.06-.44,1,1,0,0,1,.21-.4,1.19,1.19,0,0,1,.78-.4Z"/><g class="cls-41"><path class="cls-38" d="M737.24,57.18a1.3,1.3,0,0,1,.44,0,1.53,1.53,0,0,1,.4.21,1.22,1.22,0,0,1,.27.36,1,1,0,0,1,.12.42,1.08,1.08,0,0,1-.62,1.11,1.18,1.18,0,0,1-1.26-.14,1.22,1.22,0,0,1-.39-.78,1.09,1.09,0,0,1,0-.44,1.39,1.39,0,0,1,.21-.4,1.22,1.22,0,0,1,.78-.39Z"/></g></g></g></g></g></g></g></g></g><path class="cls-39" d="M759.62,23.3a1.2,1.2,0,1,1,1.29,1.09,1.2,1.2,0,0,1-1.29-1.09Z"/><path class="cls-39" d="M753.09,27.29A1.18,1.18,0,0,1,754.18,26a1.19,1.19,0,1,1,.2,2.38,1.18,1.18,0,0,1-1.29-1.09Z"/><path class="cls-39" d="M758.17,33.68a1.2,1.2,0,1,1,1.29,1.09,1.2,1.2,0,0,1-1.29-1.09Z"/><path class="cls-39" d="M744.49,62.31a1.19,1.19,0,1,1,1.29,1.1,1.2,1.2,0,0,1-1.29-1.1Z"/><path class="cls-39" d="M740.15,51.12a4.65,4.65,0,1,1,5,4.25,4.64,4.64,0,0,1-5-4.25Z"/><path class="cls-39" d="M743.52,37.12a3.51,3.51,0,1,1,3.78,3.21,3.51,3.51,0,0,1-3.78-3.21Z"/><path class="cls-39" d="M736.12,58.43a1.2,1.2,0,1,1,1.29,1.09,1.2,1.2,0,0,1-1.29-1.09Z"/><path class="cls-42" d="M1031.81,61.13c.74,3.41-1.38,7.32-3,10.66s-4.22,6.23-6.52,9.4-5.51,7.74-7.29,9.58-2.33,1.57-3.39,1.47-.48-.2-2.94-2-9.61-6.85-11.8-9-1.78-2.42-1.31-4.08,5.34-5.72,4.11-5.89-7.7,5.07-11.52,4.91-7.94-3-11.36-5.88-8.22-7.48-9.17-11.62,2.58-10.86,3.48-13.22c-3.52,1.63-8,4.67-11.67,4.29s-7.14-4.05-10.39-6.6A58.21,58.21,0,0,1,940,34.36a9.49,9.49,0,0,1-2.23-6.26c0-1.88.76-3.16,2-5.91s4.94-7.4,7-10.46C950,8.41,952.69,2.6,955.09.92s2.36-.76,4.54.33,6.27,4.48,8.52,6.24A37.18,37.18,0,0,1,973.3,12c1,1.2,1.13,1.43.67,2.77s-3.9,4.85-3.46,5.23,4.12-2.27,6.13-2.95a12.08,12.08,0,0,1,12.16,1.13A51.23,51.23,0,0,1,995.6,24c2,1.86,4.06,3.12,5,5.3s.89,5.38.75,7.8-1.68,5.73-1.63,6.75.59-.17,2-.64,4-2.2,6.31-2.18a13.35,13.35,0,0,1,7.39,2.28,52,52,0,0,1,9,8.09c2.73,3,6.67,6.36,7.42,9.76Z"/><path class="cls-43" d="M958.21,6.81c-4.51,5-8.53,11.38-10,13.17s-3.22,7.19-2.34,11.16c3-.13,9-1.72,10.65-3.07,3.59-2.8,7.17-8.63,10.85-13.71-4.57-4.21,0,0-9.16-7.55Z"/><path class="cls-43" d="M1011.91,84.52a104.07,104.07,0,0,0,10.31-13.25c2.7-4.19,3.65-7.46,2-11.89-3,.13-8.2,2.34-10.62,3.88-3,3.8-6.9,9.05-10.59,14.13,4.58,4.21.06.34,8.9,7.13Z"/><path class="cls-43" d="M951.17,36.21c-.5-1.16-.58,1.41,3.88-.78S973,25.2,978,23s4.23-1.46,6.53-.61,5.59,4.7,7.25,5.74.07-.94-4,1.12-15.95,9-20.24,11.26-3.89,2-5.47,2.3-2.29.5-4-.49-6.37-5-6.86-6.15Z"/><path class="cls-43" d="M978.07,62.38c-.32-1.09-.49,1.42,3.89-.78s17.42-10.22,22.39-12.43,5-1.79,7.46-.83,6.65,5.39,7.13,6.58-.2-1.5-4.26.54-15.85,9.44-20.13,11.72-4,1.7-5.54,2a6.74,6.74,0,0,1-5.14-1c-1.33-1.09-5.48-4.67-5.8-5.76Z"/><path class="cls-43" d="M995.16,32.88c-1.83-.48-9.28,4.09-12.26,6.55s-4.26,5.16-5.67,8.22-4.4,9.48-2.76,10.11,9.39-3.85,12.64-6.32a22.72,22.72,0,0,0,6.75-9.13c1.34-3.09,3.12-9,1.3-9.43Z"/><path class="cls-42" d="M1047.81,759.13c.74,3.41-1.38,7.32-3,10.66s-4.22,6.23-6.52,9.4-5.51,7.74-7.29,9.58-2.33,1.57-3.39,1.47-.48-.2-2.94-2-9.61-6.85-11.8-9-1.78-2.42-1.31-4.08,5.34-5.72,4.11-5.89-7.7,5.07-11.52,4.91-7.94-3-11.36-5.88-8.22-7.48-9.17-11.62,2.58-10.86,3.48-13.22c-3.52,1.63-8,4.67-11.67,4.29s-7.14-4-10.39-6.6a58.21,58.21,0,0,1-9.12-8.71,9.49,9.49,0,0,1-2.23-6.26c0-1.88.76-3.16,2-5.91s4.94-7.4,7-10.46c3.2-3.32,5.89-9.13,8.29-10.81s2.36-.76,4.54.33,6.27,4.48,8.52,6.24A37.18,37.18,0,0,1,989.3,710c1,1.2,1.13,1.43.67,2.77s-3.9,4.85-3.46,5.23,4.12-2.27,6.13-3a12.08,12.08,0,0,1,12.16,1.13,51.23,51.23,0,0,1,6.8,5.84c2,1.86,4.06,3.12,5,5.3s.89,5.38.75,7.8-1.68,5.73-1.63,6.75.59-.17,2-.64,4-2.2,6.31-2.18a13.35,13.35,0,0,1,7.39,2.28,52,52,0,0,1,9,8.09c2.73,3,6.67,6.36,7.42,9.76Z"/><path class="cls-43" d="M974.21,704.81c-4.51,5-8.53,11.38-10,13.17s-3.22,7.19-2.34,11.16c3-.13,9-1.72,10.65-3.07,3.59-2.8,7.17-8.63,10.85-13.71-4.57-4.21,0,0-9.16-7.55Z"/><path class="cls-43" d="M1027.91,782.52a104.07,104.07,0,0,0,10.31-13.25c2.7-4.19,3.65-7.46,2-11.89-3,.13-8.2,2.34-10.62,3.88-3,3.8-6.9,9-10.59,14.13,4.58,4.21.06.34,8.9,7.13Z"/><path class="cls-43" d="M967.17,734.21c-.5-1.16-.58,1.41,3.88-.78S989,723.2,994,721s4.23-1.46,6.53-.61,5.59,4.7,7.25,5.74.07-.94-4,1.12-15.95,9-20.24,11.26-3.89,2-5.47,2.3-2.29.5-4-.49-6.37-5-6.86-6.15Z"/><path class="cls-43" d="M994.07,760.38c-.32-1.09-.49,1.42,3.89-.78s17.42-10.22,22.39-12.43,5-1.79,7.46-.83,6.65,5.39,7.13,6.58-.2-1.5-4.26.54-15.85,9.44-20.13,11.72-4,1.7-5.54,2a6.74,6.74,0,0,1-5.14-1c-1.33-1.09-5.48-4.67-5.8-5.76Z"/><path class="cls-43" d="M1011.16,730.88c-1.83-.48-9.28,4.09-12.26,6.55s-4.26,5.16-5.67,8.22-4.4,9.48-2.76,10.11,9.39-3.85,12.64-6.32a22.72,22.72,0,0,0,6.75-9.13c1.34-3.09,3.12-8.95,1.3-9.43Z"/><path class="cls-42" d="M1217.81,1391.13c.74,3.41-1.38,7.32-3,10.66s-4.22,6.23-6.52,9.4-5.51,7.74-7.29,9.58-2.33,1.57-3.39,1.47-.48-.2-2.94-2-9.61-6.85-11.8-9-1.78-2.42-1.31-4.08,5.34-5.72,4.11-5.89-7.7,5.07-11.52,4.91-7.94-3-11.36-5.88-8.22-7.48-9.17-11.62,2.58-10.86,3.48-13.22c-3.52,1.63-8,4.67-11.67,4.29s-7.14-4.05-10.39-6.6a58.21,58.21,0,0,1-9.12-8.71,9.49,9.49,0,0,1-2.23-6.26c0-1.88.76-3.16,2-5.91s4.94-7.4,7-10.46c3.2-3.32,5.89-9.13,8.29-10.81s2.36-.76,4.54.33,6.27,4.48,8.52,6.24a37.18,37.18,0,0,1,5.15,4.46c1,1.2,1.13,1.43.67,2.77s-3.9,4.85-3.46,5.23,4.12-2.27,6.13-3a12.08,12.08,0,0,1,12.16,1.13,51.23,51.23,0,0,1,6.8,5.84c2,1.86,4.06,3.12,5,5.3s.89,5.38.75,7.8-1.68,5.73-1.63,6.75.59-.17,2-.64,4-2.2,6.31-2.18a13.35,13.35,0,0,1,7.39,2.28,52,52,0,0,1,9,8.09c2.73,3,6.67,6.36,7.42,9.76Z"/><path class="cls-43" d="M1144.21,1336.81c-4.51,5-8.53,11.38-10,13.17s-3.22,7.19-2.34,11.16c3-.13,9-1.72,10.65-3.07,3.59-2.8,7.17-8.63,10.85-13.71-4.57-4.21,0,0-9.16-7.55Z"/><path class="cls-43" d="M1197.91,1414.52a104.07,104.07,0,0,0,10.31-13.25c2.7-4.19,3.65-7.46,2-11.89-3,.13-8.2,2.34-10.62,3.88-3,3.8-6.9,9-10.59,14.13,4.58,4.21.06.34,8.9,7.13Z"/><path class="cls-43" d="M1137.17,1366.21c-.5-1.16-.58,1.41,3.88-.78s18-10.23,22.9-12.39,4.23-1.46,6.53-.61,5.59,4.7,7.25,5.74.07-.94-4,1.12-16,9-20.24,11.26-3.89,2-5.47,2.3-2.29.5-4-.49-6.37-5-6.86-6.15Z"/><path class="cls-43" d="M1164.07,1392.38c-.32-1.09-.49,1.42,3.89-.78s17.42-10.22,22.39-12.43,5-1.79,7.46-.83,6.65,5.39,7.13,6.58-.2-1.5-4.26.54-15.85,9.44-20.13,11.72-4,1.7-5.54,2a6.74,6.74,0,0,1-5.14-1c-1.33-1.09-5.48-4.67-5.8-5.76Z"/><path class="cls-43" d="M1181.16,1362.88c-1.83-.48-9.28,4.09-12.26,6.55s-4.26,5.16-5.67,8.22-4.4,9.48-2.76,10.11,9.39-3.85,12.64-6.32a22.72,22.72,0,0,0,6.75-9.13c1.34-3.09,3.12-9,1.3-9.43Z"/><path class="cls-42" d="M1217.32,694.74c-1.76,1.09-4.36.67-6.54.45a37.44,37.44,0,0,1-6.55-1.79c-2.22-.66-5.42-1.55-6.8-2.18s-1.34-1-1.49-1.61,0-.31.56-2.05,1.94-6.73,2.73-8.39,1-1.47,2-1.54,4.26,1.86,4.1,1.14-4.36-3.31-5-5.47.09-5,1.05-7.52,2.56-6.08,4.69-7.43,6.58-.7,8.08-.66c-1.61-1.65-4.19-3.55-4.71-5.68s.86-4.8,1.64-7.12a35.15,35.15,0,0,1,3.07-6.82,5.61,5.61,0,0,1,3.07-2.48c1-.37,1.91-.2,3.71,0a64.05,64.05,0,0,1,7.24,1.86c2.49,1.14,6.27,1.5,7.68,2.51s.9,1.17.71,2.6a43.32,43.32,0,0,1-1.81,6,22,22,0,0,1-1.47,3.76c-.48.78-.58.92-1.42.92s-3.48-1.22-3.61-.9,2.09,1.86,2.86,2.85a7.2,7.2,0,0,1,1.78,7,31.23,31.23,0,0,1-1.93,4.95c-.65,1.47-.94,2.89-2,3.86a10.77,10.77,0,0,1-4.22,2c-1.38.4-3.53.19-4.09.43s.21.29.74,1,2,1.82,2.47,3.1a8.06,8.06,0,0,1,.19,4.59,31.14,31.14,0,0,1-2.76,6.61c-1.13,2.12-2.24,5-4,6.08Z"/><path class="cls-43" d="M1233.18,642.84c-3.71-1.53-8.06-2.53-9.35-3a9.65,9.65,0,0,0-6.71.89c.66,1.65,2.74,4.7,3.83,5.36,2.27,1.45,6.24,2.3,9.81,3.36,1.45-3.39,0,0,2.42-6.61Z"/><path class="cls-43" d="M1200.31,688.23a61.25,61.25,0,0,0,9.45,3.15c2.87.68,4.89.57,7-1.23a16.86,16.86,0,0,0-4.27-5.18c-2.72-.94-6.43-2.07-10-3.13-1.45,3.39-.18.1-2.23,6.39Z"/><path class="cls-43" d="M1215.34,644.7c.54-.5-.91,0,1.2,2s9.27,8,11.45,10.36,1.66,2.08,1.63,3.54-1.52,4-1.77,5.19.54-.15-1.41-2-8.19-7.14-10.3-9.1-1.89-1.77-2.37-2.6a2.72,2.72,0,0,1-.52-2.35,17.68,17.68,0,0,1,2.09-5.06Z"/><path class="cls-43" d="M1206,664.93c.54-.4-.9,0,1.2,2s9.16,7.73,11.38,10.08,2,2.46,1.94,4a12.62,12.62,0,0,1-2.27,5.29c-.57.5.8-.41-1.15-2.28s-8.41-7-10.53-8.95-1.73-1.88-2.22-2.71a4,4,0,0,1-.43-3.07c.35-1,1.53-4,2.08-4.38Z"/><path class="cls-43" d="M1225.89,668.65c-.09-1.11-4.12-4.37-6.09-5.56a12.35,12.35,0,0,0-5.71-1.55c-2-.18-6.18-.59-6.21.46s4,4.49,6,5.82a13.61,13.61,0,0,0,6.44,2c2,.14,5.63,0,5.54-1.14Z"/><path class="cls-42" d="M1229.24,869.53c-1.34,2.56-4.76,3.92-7.54,5.2s-6,1.73-9.14,2.52-7.61,2-9.72,2.22-2.32-.24-2.94-.86-.19-.39-.78-2.87-2.47-9.46-2.7-12,.15-2.48,1.33-3.29,6.43-.8,5.74-1.56-7.59-.86-9.93-3-3.48-6.1-4.11-9.77-1.25-9.13.35-12.26,7.4-5.54,9.23-6.57c-3.11-.82-7.57-1.26-9.7-3.46s-2.39-6.37-3.11-9.72a49.13,49.13,0,0,1-1.17-10.38,7.81,7.81,0,0,1,1.91-5.16c1-1.19,2.16-1.6,4.44-2.67s7.07-2.09,10-2.93c3.8-.41,8.59-2.67,11-2.46s1.91.76,2.71,2.61a62.15,62.15,0,0,1,2.1,8.5,30.8,30.8,0,0,1,.91,5.56c0,1.29,0,1.52-1,2.12s-5.06,1-5,1.5,3.83.74,5.46,1.37a12,12,0,0,1,4.36,2.44,11.85,11.85,0,0,1,2.78,4.74,41.74,41.74,0,0,1,1.21,7.32c.27,2.23.94,4.14.39,6s-2.28,3.89-3.66,5.36-4.11,2.75-4.62,3.43.46.2,1.59.63,3.73.74,5.17,2a11,11,0,0,1,3.49,5.37,43.7,43.7,0,0,1,1.41,9.91c.15,3.34.86,7.59-.47,10.15Z"/><path class="cls-43" d="M1211.29,795.91c-5.54.8-11.47,2.7-13.36,3.06a13.39,13.39,0,0,0-7.41,5.85c2,1.51,6.63,3.69,8.4,3.71,3.77.12,9.14-1.69,14.18-3-.67-5.11,0,0-1.81-9.66Z"/><path class="cls-43" d="M1204.17,873.83a86.07,86.07,0,0,0,13.59-3c3.94-1.22,6.28-2.8,7.58-6.49-2-1.51-6.45-2.87-8.81-3.18-3.94.81-9.2,2.09-14.24,3.36.68,5.11-.14.25,1.88,9.26Z"/><path class="cls-43" d="M1191.2,810.86c.29-1-1.13.59,2.88,1.57s16.87,3.05,21.14,4.28,3.47,1.32,4.47,3.08,1.06,6,1.57,7.5.54-.56-3.12-1.39-14.92-2.75-18.84-3.59-3.54-.79-4.7-1.44a3.8,3.8,0,0,1-2.31-2.45c-.57-1.55-1.39-6.56-1.09-7.56Z"/><path class="cls-43" d="M1194.41,841.79c.37-.86-1.08.64,2.88,1.57s16.51,2.75,20.84,4,4.15,1.53,5.18,3.44,1.37,7,1,8,.67-1.06-3-1.92-15.08-2.42-19-3.24-3.41-1-4.58-1.67a5.56,5.56,0,0,1-2.72-3.39c-.26-1.4-1-5.88-.62-6.74Z"/><path class="cls-43" d="M1220.94,832.1c-.91-1.28-8.07-2.32-11.28-2.34s-5.45,1-8,2.21-7.84,3.69-7.13,5,8,2.54,11.39,2.69a18.81,18.81,0,0,0,9.14-2.22c2.5-1.25,6.74-4,5.84-5.31Z"/><path class="cls-42" d="M989.76,1100.29c.8,1.8.08,4.21-.41,6.25a35.85,35.85,0,0,1-2.53,6c-.91,2-2.16,4.93-2.93,6.16s-1.11,1.14-1.71,1.21-.29-.06-1.87-.8-6.12-2.68-7.59-3.64-1.27-1.14-1.2-2.11,2.3-3.8,1.6-3.74-3.69,3.7-5.82,4.05-4.75-.72-7-2-5.43-3.2-6.43-5.38.17-6.32.4-7.74c-1.76,1.32-3.89,3.52-6,3.73s-4.43-1.42-6.53-2.46a33.7,33.7,0,0,1-6.06-3.77,5.35,5.35,0,0,1-2-3.22c-.21-1,.06-1.84.45-3.51a57.58,57.58,0,0,1,2.69-6.61c1.39-2.22,2.21-5.75,3.35-7s1.22-.7,2.55-.34a43,43,0,0,1,5.45,2.48,21.58,21.58,0,0,1,3.37,1.87c.68.56.79.67.69,1.46s-1.6,3.14-1.31,3.3,2-1.73,3.06-2.34a6.84,6.84,0,0,1,6.87-.78,29.14,29.14,0,0,1,4.45,2.45c1.31.8,2.61,1.26,3.4,2.36a10.38,10.38,0,0,1,1.32,4.24c.2,1.36-.27,3.37-.12,3.93s.3-.16,1-.58,2-1.69,3.25-1.94a7.53,7.53,0,0,1,4.37.41,29.53,29.53,0,0,1,5.91,3.45c1.85,1.33,4.43,2.75,5.24,4.56Z"/><path class="cls-43" d="M942.66,1078.67c-1.92,3.31-3.42,7.29-4,8.46a9.21,9.21,0,0,0,0,6.46c1.64-.42,4.8-2,5.56-2.94,1.66-2,3-5.61,4.43-8.85-3-1.81,0,0-6-3.13Z"/><path class="cls-43" d="M981.43,1115.56a59.94,59.94,0,0,0,4.18-8.54c1-2.64,1.16-4.56-.26-6.83a16.27,16.27,0,0,0-5.45,3.38c-1.23,2.46-2.78,5.82-4.23,9.06,3,1.81.07.18,5.76,2.93Z"/><path class="cls-43" d="M942.15,1095.79c-.41-.59-.16.85,2.06-.88s8.8-7.76,11.27-9.52,2.18-1.3,3.55-1.1,3.65,2,4.69,2.35-.07-.53-2.07,1.08-7.81,6.83-9.92,8.58-1.93,1.56-2.77,1.91a2.58,2.58,0,0,1-2.29.2,17,17,0,0,1-4.52-2.62Z"/><path class="cls-43" d="M960.1,1107.19c-.3-.57-.11.85,2.06-.88s8.48-7.68,11-9.48,2.58-1.58,4-1.33a11.83,11.83,0,0,1,4.71,2.83c.41.6-.28-.81-2.3.79s-7.7,7.07-9.81,8.83-2,1.4-2.84,1.75a3.82,3.82,0,0,1-3,0c-.86-.45-3.58-2-3.88-2.53Z"/><path class="cls-43" d="M966.16,1088.85c-1.07,0-4.67,3.34-6,5.06a11.68,11.68,0,0,0-2.19,5.21c-.43,1.85-1.35,5.77-.36,5.93s4.76-3.22,6.28-5a12.85,12.85,0,0,0,2.68-5.84c.39-1.87.7-5.33-.37-5.39Z"/><path class="cls-42" d="M1053.58,1526.11c-2,.21-4-1.23-5.81-2.33a35,35,0,0,1-4.89-4.25c-1.64-1.5-4-3.59-4.94-4.71s-.74-1.41-.62-2,.15-.26,1.34-1.53,4.46-5,5.82-6.08,1.48-.85,2.38-.48,2.89,3.37,3.06,2.68-2.37-4.65-2-6.79,2.16-4.29,4-6,4.72-4.16,7.11-4.44,6,2.13,7.23,2.78c-.7-2.08-2.13-4.79-1.69-6.83s2.73-3.77,4.37-5.45a33,33,0,0,1,5.47-4.58,5.38,5.38,0,0,1,3.67-.87c1,.12,1.73.63,3.2,1.52a59.55,59.55,0,0,1,5.45,4.61c1.67,2,4.77,3.89,5.57,5.35s.28,1.37-.47,2.53a41.61,41.61,0,0,1-4,4.41,20.78,20.78,0,0,1-2.83,2.62c-.74.47-.88.55-1.6.2s-2.49-2.5-2.73-2.27,1,2.46,1.28,3.64a8.23,8.23,0,0,1,.25,3.4,7.89,7.89,0,0,1-1.65,3.37,28.58,28.58,0,0,1-3.71,3.46c-1.17,1-2,2.1-3.3,2.51a10.41,10.41,0,0,1-4.44-.07c-1.35-.23-3.12-1.3-3.7-1.33s.06.34.24,1.14,1,2.41.84,3.69a7.67,7.67,0,0,1-1.75,4,29.45,29.45,0,0,1-5.12,4.55c-1.84,1.35-4,3.36-6,3.56Z"/><path class="cls-43" d="M1088.77,1488.07c-2.55-2.86-5.88-5.52-6.8-6.46a9.08,9.08,0,0,0-6.13-2c-.12,1.69.41,5.18,1.06,6.2,1.35,2.19,4.42,4.57,7,7,2.66-2.31,0,0,4.83-4.68Z"/><path class="cls-43" d="M1041.66,1513.45a58.14,58.14,0,0,0,6.81,6.63c2.19,1.78,4,2.52,6.57,1.87a15.86,15.86,0,0,0-1.52-6.22c-2-1.94-4.67-4.46-7.29-6.85-2.66,2.32-.2,0-4.57,4.57Z"/><path class="cls-43" d="M1072.65,1482.26c.69-.21-.76-.41.2,2.24s4.63,10.77,5.55,13.66.55,2.48-.07,3.72-3,2.86-3.68,3.73.52.1-.39-2.3-4.07-9.55-5.07-12.11-.89-2.31-1-3.22a2.59,2.59,0,0,1,.53-2.24,17.21,17.21,0,0,1,3.89-3.48Z"/><path class="cls-43" d="M1056.23,1495.78c.64-.11-.77-.37.2,2.23s4.67,10.45,5.6,13.39.7,2.94,0,4.25a12,12,0,0,1-4.15,3.61c-.7.19.86,0,0-2.44s-4.32-9.51-5.34-12.06-.71-2.34-.78-3.25a3.82,3.82,0,0,1,.91-2.83c.69-.68,3-2.79,3.6-2.9Z"/><path class="cls-43" d="M1071.78,1507.24c.39-1-1.72-5.48-2.92-7.31a11.66,11.66,0,0,0-4.28-3.71c-1.63-1-5.06-3.07-5.52-2.18s1.58,5.52,2.77,7.51a12.92,12.92,0,0,0,4.72,4.37c1.66.95,4.85,2.32,5.23,1.32Z"/><path class="cls-33" d="M872.75,508.75a27.81,27.81,0,0,1,36.63-5.82A26.76,26.76,0,0,1,921,520.14a28,28,0,0,1-4.27,21.3c-5.66,8.46-3.4,20.2,6.35,33a27.82,27.82,0,0,1-1.1,34.75,28.28,28.28,0,0,1-4.41,4.27,27.85,27.85,0,0,1-20.88,5.79,26.72,26.72,0,0,1-18-10.39c-36-47.5-15-86.8-7.74-97.71a29.16,29.16,0,0,1,1.82-2.44Z"/><path class="cls-34" d="M872.75,508.75a27.81,27.81,0,0,1,36.63-5.82A26.76,26.76,0,0,1,921,520.14a28,28,0,0,1-4.27,21.3c-5.66,8.46-3.4,20.2,6.35,33a27.82,27.82,0,0,1-1.1,34.75,28.28,28.28,0,0,1-4.41,4.27,27.85,27.85,0,0,1-20.88,5.79,26.72,26.72,0,0,1-18-10.39c-36-47.5-15-86.8-7.74-97.71a29.16,29.16,0,0,1,1.82-2.44Z"/><path class="cls-35" d="M872.75,508.75a27.81,27.81,0,0,1,36.63-5.82A26.76,26.76,0,0,1,921,520.14a28,28,0,0,1-4.27,21.3c-5.66,8.46-3.4,20.2,6.35,33a27.82,27.82,0,0,1-1.1,34.75,28.28,28.28,0,0,1-4.41,4.27,27.85,27.85,0,0,1-20.88,5.79,26.72,26.72,0,0,1-18-10.39c-36-47.5-15-86.8-7.74-97.71a29.16,29.16,0,0,1,1.82-2.44Z"/><g class="cls-44"><path class="cls-37" d="M880.05,515.72a18.46,18.46,0,0,1,24.29-4A17.53,17.53,0,0,1,911.9,523,18.75,18.75,0,0,1,909,537.23c-4.44,6.64-9.51,20.93,6.45,41.94a18.72,18.72,0,0,1-.82,23.09,19.8,19.8,0,0,1-3,2.88,18.61,18.61,0,0,1-13.9,3.88A17.42,17.42,0,0,1,886,602.24c-31.55-41.57-13.5-75.47-7.22-84.86a18.36,18.36,0,0,1,1.24-1.66Z"/><g class="cls-44"><path class="cls-38" d="M891.51,587.43a6.82,6.82,0,1,1,9.6-.88,6.82,6.82,0,0,1-9.6.88Z"/><g class="cls-44"><path class="cls-39" d="M892.36,530.46a5.11,5.11,0,1,1,7.2-.66,5.11,5.11,0,0,1-7.2.66Z"/><g class="cls-44"><path class="cls-38" d="M880.15,569.1a5.11,5.11,0,1,1,7.2-.66,5.13,5.13,0,0,1-7.2.66Z"/><g class="cls-44"><path class="cls-38" d="M891.5,547.49a1.6,1.6,0,0,1,.52-.41,2,2,0,0,1,.63-.2,1.62,1.62,0,0,1,.66.08,1.75,1.75,0,0,1,.59.31,1.79,1.79,0,0,1,.61,1.16,2.13,2.13,0,0,1-.08.66,1.75,1.75,0,0,1-1.47,1.2,1.8,1.8,0,0,1-1.24-.4,1.6,1.6,0,0,1-.41-.52,1.74,1.74,0,0,1-.21-.63,1.78,1.78,0,0,1,.4-1.25Z"/><g class="cls-44"><path class="cls-38" d="M881.88,535.05a1.72,1.72,0,0,1,.52-.41,2.09,2.09,0,0,1,.64-.21,1.85,1.85,0,0,1,.66.09,1.63,1.63,0,0,1,.58.31,1.74,1.74,0,0,1,.62,1.15,1.82,1.82,0,0,1-.09.66,1.72,1.72,0,0,1-1.46,1.2,1.82,1.82,0,0,1-1.25-.39,1.72,1.72,0,0,1-.41-.52,1.65,1.65,0,0,1,.19-1.88Z"/><g class="cls-44"><path class="cls-38" d="M879.27,546.18a1.6,1.6,0,0,1,.52-.41,2,2,0,0,1,.63-.2,1.62,1.62,0,0,1,.66.08,1.75,1.75,0,0,1,.59.31,1.79,1.79,0,0,1,.61,1.16,2.13,2.13,0,0,1-.08.66,1.75,1.75,0,0,1-1.47,1.2,1.8,1.8,0,0,1-1.24-.4,1.6,1.6,0,0,1-.41-.52,1.8,1.8,0,0,1-.21-.63,1.82,1.82,0,0,1,.4-1.25Z"/><g class="cls-44"><path class="cls-38" d="M907.66,592a1.6,1.6,0,0,1,.52-.41,2,2,0,0,1,.63-.2,1.82,1.82,0,0,1,.66.08,1.75,1.75,0,0,1,.59.31,1.81,1.81,0,0,1,.61,1.16,2.1,2.1,0,0,1-.08.66,1.68,1.68,0,0,1-2.71.8,1.6,1.6,0,0,1-.41-.52,1.74,1.74,0,0,1-.21-.63,1.82,1.82,0,0,1,.4-1.25Z"/><g class="cls-44"><path class="cls-38" d="M894.78,596.81a1.85,1.85,0,0,1,.52-.41,2.07,2.07,0,0,1,.64-.2,1.8,1.8,0,0,1,1.24.39,1.76,1.76,0,0,1,.62,1.15,1.9,1.9,0,0,1-.09.67,1.72,1.72,0,0,1-1.46,1.19,1.82,1.82,0,0,1-1.25-.39,1.6,1.6,0,0,1-.41-.52,1.78,1.78,0,0,1-.2-.63,1.82,1.82,0,0,1,.39-1.25Z"/></g></g></g></g></g></g></g></g></g><path class="cls-39" d="M882.1,537.52a1.79,1.79,0,1,1,2.52-.23,1.79,1.79,0,0,1-2.52.23Z"/><path class="cls-39" d="M879.52,548.66a1.78,1.78,0,1,1,2.51-.23,1.78,1.78,0,0,1-2.51.23Z"/><path class="cls-39" d="M891.65,549.92a1.78,1.78,0,1,1,2.51-.22,1.78,1.78,0,0,1-2.51.22Z"/><path class="cls-39" d="M907.84,594.46a1.78,1.78,0,1,1,2.51-.23,1.78,1.78,0,0,1-2.51.23Z"/><path class="cls-39" d="M891.37,587.37a6.94,6.94,0,1,1,9.77-.89,6.93,6.93,0,0,1-9.77.89Z"/><path class="cls-39" d="M880,569.14a5.24,5.24,0,1,1,7.37-.67,5.23,5.23,0,0,1-7.37.67Z"/><path class="cls-39" d="M895,599.31a1.79,1.79,0,1,1,2.51-.23,1.79,1.79,0,0,1-2.51.23Z"/><path class="cls-33" d="M1117.89,567.13a27.82,27.82,0,0,1-5.5-36.68A26.79,26.79,0,0,1,1129.7,519a28.1,28.1,0,0,1,21.26,4.46c8.41,5.73,20.17,3.58,33.1-6.06a27.81,27.81,0,0,1,34.74,1.41,29.14,29.14,0,0,1,4.23,4.44,27.92,27.92,0,0,1,5.61,20.94,26.73,26.73,0,0,1-10.55,17.88c-47.82,35.63-86.93,14.28-97.78,6.88a27,27,0,0,1-2.42-1.84Z"/><path class="cls-34" d="M1117.89,567.13a27.82,27.82,0,0,1-5.5-36.68A26.79,26.79,0,0,1,1129.7,519a28.1,28.1,0,0,1,21.26,4.46c8.41,5.73,20.17,3.58,33.1-6.06a27.81,27.81,0,0,1,34.74,1.41,29.14,29.14,0,0,1,4.23,4.44,27.92,27.92,0,0,1,5.61,20.94,26.73,26.73,0,0,1-10.55,17.88c-47.82,35.63-86.93,14.28-97.78,6.88a27,27,0,0,1-2.42-1.84Z"/><path class="cls-35" d="M1117.89,567.13a27.82,27.82,0,0,1-5.5-36.68A26.79,26.79,0,0,1,1129.7,519a28.1,28.1,0,0,1,21.26,4.46c8.41,5.73,20.17,3.58,33.1-6.06a27.81,27.81,0,0,1,34.74,1.41,29.14,29.14,0,0,1,4.23,4.44,27.92,27.92,0,0,1,5.61,20.94,26.73,26.73,0,0,1-10.55,17.88c-47.82,35.63-86.93,14.28-97.78,6.88a27,27,0,0,1-2.42-1.84Z"/><g class="cls-45"><path class="cls-37" d="M1124.92,559.9a18.48,18.48,0,0,1-3.76-24.33,17.56,17.56,0,0,1,11.32-7.46,18.74,18.74,0,0,1,14.21,3c6.6,4.49,20.84,9.68,42-6.09a18.7,18.7,0,0,1,23.07,1,19.34,19.34,0,0,1,2.86,3,18.61,18.61,0,0,1,3.76,13.94,17.46,17.46,0,0,1-6.89,11.68c-41.85,31.18-75.58,12.83-84.92,6.47-.57-.39-1.12-.81-1.65-1.25Z"/><g class="cls-45"><path class="cls-38" d="M1196.73,549.07a6.82,6.82,0,1,1-.8-9.61,6.82,6.82,0,0,1,.8,9.61Z"/><g class="cls-45"><path class="cls-39" d="M1139.77,547.72a5.12,5.12,0,1,1-.59-7.21,5.12,5.12,0,0,1,.59,7.21Z"/><g class="cls-45"><path class="cls-38" d="M1178.3,560.26a5.11,5.11,0,1,1-.6-7.2,5.12,5.12,0,0,1,.6,7.2Z"/><g class="cls-45"><path class="cls-38" d="M1156.79,548.73a1.73,1.73,0,0,1-.4-.53,2,2,0,0,1-.2-.63,1.82,1.82,0,0,1,.09-.66,1.85,1.85,0,0,1,.31-.59,1.83,1.83,0,0,1,1.16-.6,1.9,1.9,0,0,1,.67.09,1.74,1.74,0,0,1,1.18,1.48,1.8,1.8,0,0,1-.4,1.24,1.73,1.73,0,0,1-.53.4,1.6,1.6,0,0,1-.63.2,1.81,1.81,0,0,1-1.25-.4Z"/><g class="cls-45"><path class="cls-38" d="M1144.27,558.23a1.6,1.6,0,0,1-.41-.52,2.07,2.07,0,0,1-.2-.64,1.85,1.85,0,0,1,.09-.66,1.83,1.83,0,0,1,.32-.58,1.76,1.76,0,0,1,1.16-.6,1.85,1.85,0,0,1,.66.09,1.73,1.73,0,0,1,1.18,1.47,1.75,1.75,0,0,1-.4,1.24,1.84,1.84,0,0,1-1.16.61,1.79,1.79,0,0,1-1.24-.41Z"/><g class="cls-45"><path class="cls-38" d="M1155.38,560.94a1.6,1.6,0,0,1-.41-.52,2,2,0,0,1-.2-.64,1.88,1.88,0,0,1,.09-.66,1.65,1.65,0,0,1,.32-.58,1.78,1.78,0,0,1,1.16-.6,1.88,1.88,0,0,1,.66.09,1.73,1.73,0,0,1,1.18,1.47,1.82,1.82,0,0,1-.4,1.25,1.9,1.9,0,0,1-.53.4,1.55,1.55,0,0,1-.63.2,1.79,1.79,0,0,1-1.24-.41Z"/><g class="cls-45"><path class="cls-38" d="M1201.45,533a1.76,1.76,0,0,1-.41-.53,2,2,0,0,1-.2-.63,1.82,1.82,0,0,1,.09-.66,1.69,1.69,0,0,1,1.48-1.19,1.88,1.88,0,0,1,.66.09,1.74,1.74,0,0,1,1.18,1.47,1.66,1.66,0,0,1-.92,1.65,1.65,1.65,0,0,1-.64.2,1.78,1.78,0,0,1-1.24-.4Z"/><g class="cls-45"><path class="cls-38" d="M1206.14,545.87a1.6,1.6,0,0,1-.41-.52,2.05,2.05,0,0,1-.19-.64,1.49,1.49,0,0,1,.09-.66,1.63,1.63,0,0,1,.31-.58,1.76,1.76,0,0,1,1.16-.6,1.85,1.85,0,0,1,.66.09,1.74,1.74,0,0,1,1.19,1.47,1.79,1.79,0,0,1-.41,1.24,1.6,1.6,0,0,1-.52.41,1.84,1.84,0,0,1-.64.2,1.81,1.81,0,0,1-1.24-.41Z"/></g></g></g></g></g></g></g></g></g><path class="cls-39" d="M1146.74,558a1.78,1.78,0,1,1-.21-2.51,1.77,1.77,0,0,1,.21,2.51Z"/><path class="cls-39" d="M1157.86,560.72a1.79,1.79,0,1,1-.21-2.52,1.79,1.79,0,0,1,.21,2.52Z"/><path class="cls-39" d="M1159.23,548.6a1.79,1.79,0,1,1-.21-2.52,1.79,1.79,0,0,1,.21,2.52Z"/><path class="cls-39" d="M1203.91,532.8a1.79,1.79,0,1,1-.21-2.52,1.8,1.8,0,0,1,.21,2.52Z"/><path class="cls-39" d="M1196.67,549.2a6.94,6.94,0,1,1-.8-9.77,6.94,6.94,0,0,1,.8,9.77Z"/><path class="cls-39" d="M1178.34,560.43a5.24,5.24,0,1,1-.6-7.38,5.24,5.24,0,0,1,.6,7.38Z"/><path class="cls-39" d="M1208.64,545.73a1.79,1.79,0,1,1-.21-2.51,1.79,1.79,0,0,1,.21,2.51Z"/><path class="cls-33" d="M975.43,924a27.81,27.81,0,0,1,31.63-19.37,26.78,26.78,0,0,1,17.27,11.48,28.08,28.08,0,0,1,4.19,21.32c-2,10,4.57,20,18.49,28.11A27.79,27.79,0,0,1,1059.26,998a29,29,0,0,1-2.44,5.64,27.85,27.85,0,0,1-17.09,13.32,26.64,26.64,0,0,1-20.57-2.74c-51.46-30.12-47.06-74.46-44.48-87.34a29.63,29.63,0,0,1,.75-2.95Z"/><path class="cls-34" d="M975.43,924a27.81,27.81,0,0,1,31.63-19.37,26.78,26.78,0,0,1,17.27,11.48,28.08,28.08,0,0,1,4.19,21.32c-2,10,4.57,20,18.49,28.11A27.79,27.79,0,0,1,1059.26,998a29,29,0,0,1-2.44,5.64,27.85,27.85,0,0,1-17.09,13.32,26.64,26.64,0,0,1-20.57-2.74c-51.46-30.12-47.06-74.46-44.48-87.34a29.63,29.63,0,0,1,.75-2.95Z"/><path class="cls-35" d="M975.43,924a27.81,27.81,0,0,1,31.63-19.37,26.78,26.78,0,0,1,17.27,11.48,28.08,28.08,0,0,1,4.19,21.32c-2,10,4.57,20,18.49,28.11A27.79,27.79,0,0,1,1059.26,998a29,29,0,0,1-2.44,5.64,27.85,27.85,0,0,1-17.09,13.32,26.64,26.64,0,0,1-20.57-2.74c-51.46-30.12-47.06-74.46-44.48-87.34a29.63,29.63,0,0,1,.75-2.95Z"/><g class="cls-46"><path class="cls-37" d="M984.83,927.61a18.46,18.46,0,0,1,20.93-13,17.55,17.55,0,0,1,11.29,7.51,18.76,18.76,0,0,1,2.77,14.26c-1.56,7.83-.79,23,22,36.3a18.71,18.71,0,0,1,8,21.65,19.08,19.08,0,0,1-1.65,3.8,18.56,18.56,0,0,1-11.36,8.89,17.41,17.41,0,0,1-13.44-1.78c-45-26.37-41.3-64.59-39.09-75.67.14-.68.31-1.35.51-2Z"/><g class="cls-46"><path class="cls-38" d="M1022.81,989.5a6.82,6.82,0,1,1,8.54-4.48,6.83,6.83,0,0,1-8.54,4.48Z"/><g class="cls-46"><path class="cls-39" d="M1001.84,936.53a5.12,5.12,0,1,1,6.4-3.36,5.12,5.12,0,0,1-6.4,3.36Z"/><g class="cls-46"><path class="cls-38" d="M1005.32,976.9a5.12,5.12,0,1,1,6.4-3.36,5.12,5.12,0,0,1-6.4,3.36Z"/><g class="cls-46"><path class="cls-38" d="M1007.55,952.59a1.78,1.78,0,0,1,.32-.57,2.13,2.13,0,0,1,.51-.44,2,2,0,0,1,.65-.17,1.67,1.67,0,0,1,1.66.9,1.8,1.8,0,0,1,.18.64,1.69,1.69,0,0,1-2.2,1.78,1.68,1.68,0,0,1-.58-.33,1.87,1.87,0,0,1-.43-.5,1.8,1.8,0,0,1-.11-1.31Z"/><g class="cls-46"><path class="cls-38" d="M993.91,944.77a1.73,1.73,0,0,1,.32-.58,2.08,2.08,0,0,1,.51-.43,1.85,1.85,0,0,1,.65-.18,1.66,1.66,0,0,1,.66.07,1.72,1.72,0,0,1,1,.83,1.8,1.8,0,0,1,.18.64,1.74,1.74,0,0,1-.9,1.67,1.77,1.77,0,0,1-1.3.11,1.83,1.83,0,0,1-.58-.32,1.91,1.91,0,0,1-.43-.51,1.78,1.78,0,0,1-.11-1.3Z"/><g class="cls-46"><path class="cls-38" d="M995.75,956.05a1.78,1.78,0,0,1,.32-.57,1.75,1.75,0,0,1,.51-.43,1.8,1.8,0,0,1,.64-.18,1.83,1.83,0,0,1,.66.06,1.78,1.78,0,0,1,1,.84,2.34,2.34,0,0,1,.18.64,1.69,1.69,0,0,1-2.2,1.78,1.73,1.73,0,0,1-.58-.32,1.88,1.88,0,0,1-.43-.51,1.8,1.8,0,0,1-.11-1.31Z"/><g class="cls-46"><path class="cls-38" d="M1039.49,987.56a1.83,1.83,0,0,1,.32-.58,2.08,2.08,0,0,1,.51-.43,1.6,1.6,0,0,1,.64-.17,1.46,1.46,0,0,1,.66.06,1.81,1.81,0,0,1,1,.83,2,2,0,0,1,.18.64,1.75,1.75,0,0,1-.9,1.67,1.77,1.77,0,0,1-1.3.11,1.83,1.83,0,0,1-.58-.32,1.63,1.63,0,0,1-.54-1.81Z"/><g class="cls-46"><path class="cls-38" d="M1029.42,996.92a1.68,1.68,0,0,1,.33-.58,1.77,1.77,0,0,1,.51-.43,1.6,1.6,0,0,1,.64-.17,1.48,1.48,0,0,1,.66.06,1.81,1.81,0,0,1,1,.83,2,2,0,0,1,.17.64,1.73,1.73,0,0,1-.89,1.67,1.8,1.8,0,0,1-1.31.11,1.78,1.78,0,0,1-.57-.32,1.63,1.63,0,0,1-.43-.51,1.83,1.83,0,0,1-.12-1.3Z"/></g></g></g></g></g></g></g></g></g><path class="cls-39" d="M995.06,947a1.79,1.79,0,1,1,2.24-1.18,1.79,1.79,0,0,1-2.24,1.18Z"/><path class="cls-39" d="M996.92,958.25a1.79,1.79,0,1,1,2.24-1.17,1.79,1.79,0,0,1-2.24,1.17Z"/><path class="cls-39" d="M1008.62,954.79a1.79,1.79,0,1,1,2.23-1.18,1.79,1.79,0,0,1-2.23,1.18Z"/><path class="cls-39" d="M1040.59,989.76a1.78,1.78,0,1,1,2.24-1.17,1.78,1.78,0,0,1-2.24,1.17Z"/><path class="cls-39" d="M1022.67,989.5a6.93,6.93,0,1,1,8.68-4.56,6.94,6.94,0,0,1-8.68,4.56Z"/><path class="cls-39" d="M1005.18,977a5.24,5.24,0,1,1,6.56-3.44,5.24,5.24,0,0,1-6.56,3.44Z"/><path class="cls-39" d="M1030.53,999.16a1.79,1.79,0,1,1,2.23-1.17,1.77,1.77,0,0,1-2.23,1.17Z"/><path class="cls-33" d="M1237.86,1475.8a27.92,27.92,0,0,1,24.85,27.69,26.56,26.56,0,0,1-8.28,19,28.35,28.35,0,0,1-20.38,7.87c-10.25-.2-19,8-24.55,23.13a28,28,0,0,1-30,17.77,29.6,29.6,0,0,1-6-1.41,28,28,0,0,1-16.27-14.46,26.44,26.44,0,0,1-1-20.71c20.64-55.89,65.38-59.37,78.61-59.1a28.62,28.62,0,0,1,3.06.22Z"/><path class="cls-34" d="M1237.86,1475.8a27.92,27.92,0,0,1,24.85,27.69,26.56,26.56,0,0,1-8.28,19,28.35,28.35,0,0,1-20.38,7.87c-10.25-.2-19,8-24.56,23.13a28,28,0,0,1-30,17.77,29.6,29.6,0,0,1-6-1.41,28,28,0,0,1-16.27-14.46,26.44,26.44,0,0,1-1-20.71c20.64-55.89,65.38-59.37,78.61-59.1a28.62,28.62,0,0,1,3.06.22Z"/><path class="cls-35" d="M1237.86,1475.8a27.92,27.92,0,0,1,24.85,27.69,26.56,26.56,0,0,1-8.28,19,28.35,28.35,0,0,1-20.38,7.87c-10.25-.2-19,8-24.56,23.13a28,28,0,0,1-30,17.77,29.6,29.6,0,0,1-6-1.41,28,28,0,0,1-16.27-14.46,26.44,26.44,0,0,1-1-20.71c20.64-55.89,65.38-59.37,78.61-59.1a28.62,28.62,0,0,1,3.06.22Z"/><g class="cls-47"><path class="cls-37" d="M1235.91,1485.69a18.53,18.53,0,0,1,16.59,18.3,17.43,17.43,0,0,1-5.42,12.42,18.94,18.94,0,0,1-13.64,5.23c-8-.16-22.91,3.27-32,28a18.83,18.83,0,0,1-20,11.73,19.34,19.34,0,0,1-4.06-.95,18.73,18.73,0,0,1-10.86-9.61,17.34,17.34,0,0,1-.64-13.53c18.08-48.91,56.62-52,68-51.74q1,0,2.07.15Z"/><g class="cls-47"><path class="cls-38" d="M1181.37,1533.92a6.87,6.87,0,1,1,6,7.61,6.85,6.85,0,0,1-6-7.61Z"/><g class="cls-47"><path class="cls-39" d="M1230.12,1504a5.15,5.15,0,1,1,4.47,5.71,5.13,5.13,0,0,1-4.47-5.71Z"/><g class="cls-47"><path class="cls-38" d="M1190.73,1514.5a5.15,5.15,0,1,1,4.47,5.71,5.13,5.13,0,0,1-4.47-5.71Z"/><g class="cls-47"><path class="cls-38" d="M1215.22,1512.42a1.82,1.82,0,0,1,.63.22,1.88,1.88,0,0,1,.51.42,1.76,1.76,0,0,1,.29.6,1.85,1.85,0,0,1,.06.66,1.81,1.81,0,0,1-.65,1.14,2,2,0,0,1-.6.29,1.79,1.79,0,0,1-1.82-.59,1.77,1.77,0,0,1-.34-1.26,1.64,1.64,0,0,1,.22-.63,1.71,1.71,0,0,1,.42-.51,1.82,1.82,0,0,1,1.28-.34Z"/><g class="cls-47"><path class="cls-38" d="M1220.53,1497.64a1.74,1.74,0,0,1,.63.21,2,2,0,0,1,.52.43,1.86,1.86,0,0,1,.29.6,1.63,1.63,0,0,1,0,.66,1.81,1.81,0,0,1-.64,1.14,2.25,2.25,0,0,1-.61.28,1.73,1.73,0,0,1-1.81-.59,1.83,1.83,0,0,1-.35-1.26,1.91,1.91,0,0,1,.22-.62,1.78,1.78,0,0,1,.43-.52,1.84,1.84,0,0,1,1.27-.33Z"/><g class="cls-47"><path class="cls-38" d="M1209.67,1501.43a1.74,1.74,0,0,1,.63.21,2,2,0,0,1,.52.43,1.86,1.86,0,0,1,.29.6,1.63,1.63,0,0,1,.05.66,1.81,1.81,0,0,1-.64,1.14,2.12,2.12,0,0,1-.61.28,1.73,1.73,0,0,1-1.81-.59,1.77,1.77,0,0,1-.34-1.26,1.69,1.69,0,0,1,.21-.62,1.77,1.77,0,0,1,.43-.51,1.81,1.81,0,0,1,1.27-.34Z"/><g class="cls-47"><path class="cls-38" d="M1186.28,1550a1.82,1.82,0,0,1,.63.22,2.09,2.09,0,0,1,.52.42,1.78,1.78,0,0,1,.28.61,1.46,1.46,0,0,1,.06.66,1.76,1.76,0,0,1-.64,1.13,2,2,0,0,1-.61.29,1.71,1.71,0,0,1-2.16-1.85,1.7,1.7,0,0,1,.22-.62,1.66,1.66,0,0,1,.43-.52,1.8,1.8,0,0,1,1.27-.34Z"/><g class="cls-47"><path class="cls-38" d="M1175.2,1541.73a1.74,1.74,0,0,1,.63.21,2,2,0,0,1,.52.43,1.86,1.86,0,0,1,.29.6,1.63,1.63,0,0,1,0,.66,1.78,1.78,0,0,1-.64,1.14,2,2,0,0,1-.61.28,1.73,1.73,0,0,1-1.81-.59,1.78,1.78,0,0,1-.35-1.26,1.7,1.7,0,0,1,.22-.62,1.63,1.63,0,0,1,.43-.51,1.8,1.8,0,0,1,1.27-.34Z"/></g></g></g></g></g></g></g></g></g><path class="cls-39" d="M1218.55,1499.15a1.8,1.8,0,0,1,2-1.54,1.78,1.78,0,1,1-2,1.54Z"/><path class="cls-39" d="M1207.7,1503a1.8,1.8,0,1,1,1.57,2,1.81,1.81,0,0,1-1.57-2Z"/><path class="cls-39" d="M1213.23,1513.86a1.8,1.8,0,1,1,1.57,2,1.8,1.8,0,0,1-1.57-2Z"/><path class="cls-39" d="M1184.29,1551.45a1.8,1.8,0,1,1,1.56,2,1.79,1.79,0,0,1-1.56-2Z"/><path class="cls-39" d="M1181.34,1533.78a7,7,0,1,1,6.07,7.74,7,7,0,0,1-6.07-7.74Z"/><path class="cls-39" d="M1190.6,1514.39a5.28,5.28,0,1,1,4.58,5.84,5.25,5.25,0,0,1-4.58-5.84Z"/><path class="cls-39" d="M1173.17,1543.21a1.8,1.8,0,1,1,1.56,2,1.79,1.79,0,0,1-1.56-2Z"/><path class="cls-33" d="M1169.67,1201.05a27.8,27.8,0,0,1-30.2-21.51,26.77,26.77,0,0,1,3.79-20.39,28,28,0,0,1,18-12.2c10-2.08,16.58-12,18.62-28a27.82,27.82,0,0,1,25.14-24,28.65,28.65,0,0,1,6.14,0,27.84,27.84,0,0,1,18.95,10.5,26.69,26.69,0,0,1,5.54,20c-7.56,59.14-50.09,72.46-63,75.13a27.67,27.67,0,0,1-3,.46Z"/><path class="cls-34" d="M1169.67,1201.05a27.8,27.8,0,0,1-30.2-21.51,26.77,26.77,0,0,1,3.79-20.39,28,28,0,0,1,18-12.2c10-2.08,16.58-12,18.62-28a27.82,27.82,0,0,1,25.14-24,28.65,28.65,0,0,1,6.14,0,27.84,27.84,0,0,1,18.95,10.5,26.69,26.69,0,0,1,5.54,20c-7.56,59.14-50.09,72.46-63,75.13a27.67,27.67,0,0,1-3,.46Z"/><path class="cls-35" d="M1169.67,1201.05a27.8,27.8,0,0,1-30.2-21.51,26.77,26.77,0,0,1,3.79-20.39,28,28,0,0,1,18-12.2c10-2.08,16.58-12,18.62-28a27.82,27.82,0,0,1,25.14-24,28.65,28.65,0,0,1,6.14,0,27.84,27.84,0,0,1,18.95,10.5,26.69,26.69,0,0,1,5.54,20c-7.56,59.14-50.09,72.46-63,75.13a27.67,27.67,0,0,1-3,.46Z"/><g class="cls-48"><path class="cls-37" d="M1169.36,1191a18.47,18.47,0,0,1-20.12-14.18,17.56,17.56,0,0,1,2.49-13.33,18.77,18.77,0,0,1,12-8.14c7.81-1.63,21.44-8.27,24.78-34.44a18.7,18.7,0,0,1,16.76-15.89,19.19,19.19,0,0,1,4.15,0,18.59,18.59,0,0,1,12.64,7,17.45,17.45,0,0,1,3.62,13.06c-6.63,51.77-43.25,63.3-54.32,65.6a20.57,20.57,0,0,1-2,.32Z"/><g class="cls-48"><path class="cls-38" d="M1211.43,1131.78a6.82,6.82,0,1,1-7.47-6.1,6.83,6.83,0,0,1,7.47,6.1Z"/><g class="cls-48"><path class="cls-39" d="M1170.9,1171.83a5.11,5.11,0,1,1-5.6-4.58,5.11,5.11,0,0,1,5.6,4.58Z"/><g class="cls-48"><path class="cls-38" d="M1206.69,1152.82a5.12,5.12,0,1,1-5.6-4.58,5.12,5.12,0,0,1,5.6,4.58Z"/><g class="cls-48"><path class="cls-38" d="M1183.45,1160.28a1.66,1.66,0,0,1-.66-.07,2.19,2.19,0,0,1-.59-.3,2.09,2.09,0,0,1-.42-.52,2,2,0,0,1-.2-.64,1.82,1.82,0,0,1,.38-1.25,1.72,1.72,0,0,1,.52-.41,1.74,1.74,0,0,1,1.88.17,1.67,1.67,0,0,1,.55,1.81,2.11,2.11,0,0,1-.3.6,1.81,1.81,0,0,1-1.16.61Z"/><g class="cls-48"><path class="cls-38" d="M1181.59,1175.89a1.66,1.66,0,0,1-.66-.07,1.74,1.74,0,0,1-.59-.3,1.78,1.78,0,0,1-.42-.52,2,2,0,0,1-.2-.63,1.85,1.85,0,0,1,.38-1.26,2.09,2.09,0,0,1,.52-.41,1.74,1.74,0,0,1,1.88.17,1.78,1.78,0,0,1,.62,1.16,1.86,1.86,0,0,1-.07.66,1.94,1.94,0,0,1-.3.59,1.81,1.81,0,0,1-1.16.61Z"/><g class="cls-48"><path class="cls-38" d="M1191.26,1169.78a1.64,1.64,0,0,1-.66-.07,1.78,1.78,0,0,1-.6-.3,1.6,1.6,0,0,1-.41-.52,1.68,1.68,0,0,1,.17-1.88,2,2,0,0,1,.53-.42,1.74,1.74,0,0,1,1.88.17,1.81,1.81,0,0,1,.61,1.16,1.83,1.83,0,0,1-.37,1.25,1.77,1.77,0,0,1-1.15.61Z"/><g class="cls-48"><path class="cls-38" d="M1203.11,1117.2a1.86,1.86,0,0,1-.66-.07,2.19,2.19,0,0,1-.59-.3,1.76,1.76,0,0,1-.41-.53,1.55,1.55,0,0,1-.2-.63,1.77,1.77,0,0,1,.37-1.25,1.85,1.85,0,0,1,.52-.41,1.69,1.69,0,0,1,2.5,1.32,1.84,1.84,0,0,1-.07.66,1.88,1.88,0,0,1-.3.6,1.81,1.81,0,0,1-1.16.61Z"/><g class="cls-48"><path class="cls-38" d="M1215.67,1122.79a1.62,1.62,0,0,1-.66-.07,1.88,1.88,0,0,1-.6-.3,1.72,1.72,0,0,1-.41-.52,1.7,1.7,0,0,1,.17-1.89,2.15,2.15,0,0,1,.53-.41,1.74,1.74,0,0,1,1.88.17,1.81,1.81,0,0,1,.61,1.16,1.59,1.59,0,0,1-.07.65,1.69,1.69,0,0,1-.3.6,1.79,1.79,0,0,1-1.15.61Z"/></g></g></g></g></g></g></g></g></g><path class="cls-39" d="M1183.17,1174a1.79,1.79,0,1,1-2-1.6,1.79,1.79,0,0,1,2,1.6Z"/><path class="cls-39" d="M1192.82,1167.84a1.78,1.78,0,1,1-2-1.6,1.79,1.79,0,0,1,2,1.6Z"/><path class="cls-39" d="M1185.05,1158.44a1.78,1.78,0,1,1-2-1.6,1.78,1.78,0,0,1,2,1.6Z"/><path class="cls-39" d="M1204.71,1115.32a1.78,1.78,0,1,1-2-1.6,1.78,1.78,0,0,1,2,1.6Z"/><path class="cls-39" d="M1211.49,1131.91a6.93,6.93,0,1,1-7.6-6.2,6.94,6.94,0,0,1,7.6,6.2Z"/><path class="cls-39" d="M1206.84,1152.9a5.24,5.24,0,1,1-5.74-4.69,5.23,5.23,0,0,1,5.74,4.69Z"/><path class="cls-39" d="M1217.3,1120.9a1.78,1.78,0,1,1-2-1.6,1.78,1.78,0,0,1,2,1.6Z"/><path class="cls-42" d="M1014.53,391.6c3.16-1.82,7.73-.93,11.57-.41s7.56,2.24,11.44,3.54,9.47,3.06,11.88,4.25,2.3,1.84,2.54,2.92-.06.55-1.13,3.59-3.8,11.76-5.29,14.63-1.85,2.54-3.66,2.6-7.4-3.53-7.17-2.25,7.49,6.1,8.53,9.95-.45,8.87-2.28,13.21-4.88,10.57-8.71,12.82-11.66.86-14.3.71c2.74,3,7.19,6.5,8,10.29s-1.79,8.42-3.31,12.47a61.43,61.43,0,0,1-5.82,11.85,9.91,9.91,0,0,1-5.55,4.2c-1.87.58-3.39.24-6.55-.18s-9-2.59-12.66-3.7c-4.33-2.15-11-3-13.41-4.88s-1.51-2.11-1.1-4.63,2.49-7.67,3.54-10.47a39.45,39.45,0,0,1,2.82-6.55c.9-1.35,1.08-1.59,2.56-1.55s6.08,2.36,6.32,1.8-3.57-3.4-4.88-5.19a12.66,12.66,0,0,1-2.72-12.5,54.88,54.88,0,0,1,3.69-8.63c1.23-2.55,1.83-5,3.7-6.69s5.09-2.6,7.55-3.22,6.26-.13,7.25-.51-.35-.53-1.25-1.75-3.47-3.33-4.18-5.62a14.07,14.07,0,0,1,0-8.1,55,55,0,0,1,5.25-11.51c2.11-3.67,4.24-8.67,7.41-10.49Z"/><path class="cls-43" d="M983.51,482.24c6.45,2.92,14.06,4.93,16.32,5.83s8.2.95,11.88-1.18c-1.07-2.94-4.56-8.45-6.43-9.67-3.93-2.7-10.89-4.43-17.12-6.51-2.76,5.9,0,0-4.65,11.53Z"/><path class="cls-43" d="M1044.16,404.09a107.47,107.47,0,0,0-16.48-6.11c-5-1.38-8.6-1.29-12.51,1.75,1.07,2.94,4.93,7.45,7.23,9.38,4.74,1.82,11.22,4,17.45,6.11,2.76-5.9.32-.16,4.31-11.13Z"/><path class="cls-43" d="M1015.1,480c-1,.86,1.6.13-2-3.64s-15.89-14.73-19.6-18.95-2.79-3.77-2.67-6.33,2.93-7.07,3.44-9.06-1,.23,2.37,3.61,14,13.09,17.64,16.65,3.22,3.25,4,4.74,1.23,2.13.79,4.18-3,7.93-4,8.8Z"/><path class="cls-43" d="M1032.74,444.86c-1,.67,1.58.05-2-3.63s-15.7-14.17-19.48-18.44-3.37-4.45-3.18-7.18,3.28-8.35,4.31-9.2-1.43.67,1.89,4.09,14.43,12.84,18.06,16.39,2.94,3.43,3.75,4.91a7,7,0,0,1,.58,5.46c-.67,1.66-2.93,6.94-3.92,7.6Z"/><path class="cls-43" d="M997.88,437.12c.1,2,7,8,10.42,10.17s6.5,2.63,10,3.07,10.86,1.4,11-.44-6.8-8.16-10.3-10.63a23.87,23.87,0,0,0-11.24-3.85c-3.52-.37-9.93-.29-9.84,1.68Z"/><path class="cls-42" d="M1191.38,196.05c.83-3.08,4.21-5.36,6.9-7.41s6.06-3.29,9.27-4.89,7.75-4,10-4.71,2.56-.29,3.37.24.31.37,1.52,2.91,4.93,9.63,5.78,12.33.42,2.72-.66,3.87-6.76,2.39-5.82,3,8.4-.86,11.43.88,5.2,5.76,6.75,9.58,3.52,9.56,2.54,13.32-6.69,7.74-8.41,9.28c3.55.15,8.47-.43,11.3,1.44s4.09,6.31,5.66,9.76a54.68,54.68,0,0,1,3.73,10.93,8.66,8.66,0,0,1-.84,6c-.8,1.52-2,2.24-4.16,3.94s-7.14,3.93-10.12,5.53c-4,1.35-8.65,4.93-11.31,5.28s-2.25-.37-3.55-2.18-3.2-6.29-4.29-8.68a33.57,33.57,0,0,1-2.3-5.79c-.28-1.39-.32-1.65.62-2.54s5.23-2.29,5-2.79-4.3.11-6.22-.19a13.13,13.13,0,0,1-5.28-1.6,12.9,12.9,0,0,1-4.13-4.46,46.41,46.41,0,0,1-3.05-7.62c-.82-2.34-2-4.25-1.85-6.43s1.54-4.75,2.68-6.66,3.79-3.94,4.17-4.79-.54-.11-1.86-.31-4.21.08-6.06-.9a12.26,12.26,0,0,1-5-5,47.8,47.8,0,0,1-3.87-10.36c-1-3.57-2.74-8-1.9-11.07Z"/><path class="cls-43" d="M1228.24,271.3c5.79-2.18,11.74-5.64,13.69-6.48a14.77,14.77,0,0,0,6.62-8.08c-2.47-1.16-8-2.41-10-2-4.09.76-9.47,4-14.61,6.56,1.94,5.36,0,0,4.26,10Z"/><path class="cls-43" d="M1217.43,185.45a94.8,94.8,0,0,0-14,6.41c-4,2.26-6.12,4.52-6.66,8.82,2.48,1.16,7.66,1.56,10.28,1.34,4.05-1.82,9.43-4.45,14.57-7-1.94-5.35.1-.3-4.22-9.55Z"/><path class="cls-43" d="M1246.39,250.38c-.09,1.15,1.07-.91-3.49-1s-18.94.71-23.84.4-4.06-.6-5.57-2.27-2.56-6.18-3.47-7.73-.46.74,3.69.77,16.77-.58,21.21-.6,4,0,5.42.44a4.18,4.18,0,0,1,3.07,2.1c1,1.54,3.06,6.75,3,7.9Z"/><path class="cls-43" d="M1235.58,217.74c-.2,1,1-1-3.49-1s-18.48,1-23.45.64-4.84-.67-6.41-2.47-3.14-7.2-3-8.37-.47,1.31,3.7,1.36,16.86-1,21.31-1,3.93.3,5.35.72a6.17,6.17,0,0,1,3.73,3c.62,1.44,2.48,6.11,2.28,7.13Z"/><path class="cls-43" d="M1209.23,234.5c1.28,1.16,9.26.59,12.73-.15s5.64-2.39,8.08-4.28,7.59-5.85,6.51-7.06-9.25-.83-12.94-.2a20.86,20.86,0,0,0-9.34,4.57c-2.4,2-6.32,6-5,7.12Z"/></g></g></svg>