<svg xmlns="http://www.w3.org/2000/svg" viewBox="0 0 425.68 425.3"><defs><style>.cls-1{fill:#888eba;}.cls-2,.cls-3{fill:none;stroke-miterlimit:8;stroke-width:9px;}.cls-2{stroke:#cbabc8;}.cls-3{stroke:#fff;}.cls-4{fill:#df75a5;}.cls-5{fill:#dd5790;}.cls-6{fill:#ffe07d;}.cls-7{fill:#ffd064;}.cls-8{fill:#b3e59f;}.cls-9{fill:#95d6a4;}.cls-10{fill:#90d8f9;}.cls-11{fill:#75cef9;}.cls-12{fill:#ffddce;}.cls-13{fill:#ffcbbe;}.cls-14{fill:#2d346a;}</style></defs><g id="Слой_2" data-name="Слой 2"><g id="Слой_1-2" data-name="Слой 1"><path class="cls-1" d="M419.56,213c2.37-5,2.1-13-.57-17.57a23,23,0,0,1-1.69-16.8c1.72-4.93.45-12.29-2.75-16a19.85,19.85,0,0,1-3.78-15.24c1.07-4.85-1.11-11.49-4.75-14.46a17.61,17.61,0,0,1-5.67-13.67c.46-4.74-2.55-10.67-6.53-12.9a16.11,16.11,0,0,1-7.35-12.12c-.16-4.59-3.89-9.8-8.11-11.33a15.14,15.14,0,0,1-8.83-10.56A13.16,13.16,0,0,0,360,62.51a14.62,14.62,0,0,1-10.11-9c-1.3-4.19-6.21-8-10.67-8.21a14.4,14.4,0,0,1-11.17-7.43c-1.84-3.93-7.19-7-11.64-6.65a14.39,14.39,0,0,1-12.05-5.87c-2.33-3.64-8-6-12.4-5.09A14.41,14.41,0,0,1,279.29,16c-2.79-3.31-8.75-4.94-13-3.52a13.76,13.76,0,0,1-13.06-2.79c-3.06-2.94-9.33-3.87-13.33-2a14.61,14.61,0,0,1-13.44-1.19C222.93,3.92,217,3.9,213,6.08c-4.65,2.53-9.64,2.55-13.52.44s-10-1.6-13.43,1.17a14.57,14.57,0,0,1-13.34,1.94,12.59,12.59,0,0,0-13.1,2.64,14.51,14.51,0,0,1-13,3.51c-4.3-1.17-10.16.81-12.74,4.29a14.39,14.39,0,0,1-12.42,5.07c-4.42-.63-10,2.07-12.07,5.86a14.38,14.38,0,0,1-11.66,6.64c-4.46,0-9.62,3.36-11.21,7.43a14.51,14.51,0,0,1-10.69,8.21c-4.43.55-9.09,4.68-10.14,9a14.9,14.9,0,0,1-9.52,9.78c-4.32,1.19-8.39,6-8.86,10.56A15.61,15.61,0,0,1,39.19,94c-4.12,1.87-7.52,7.45-7.38,12.13A16.84,16.84,0,0,1,25.24,119c-3.83,2.59-6.45,8.89-5.69,13.7a18.73,18.73,0,0,1-4.78,14.48c-3.44,3.34-5.2,10.36-3.81,15.27a21.42,21.42,0,0,1-2.78,16.05c-3,4.13-3.75,11.87-1.72,16.84S8.18,208,5.87,213"/><path class="cls-2" d="M419.56,213c2.37-5,2.1-13-.57-17.57a23,23,0,0,1-1.69-16.8c1.72-4.93.45-12.29-2.75-16a19.85,19.85,0,0,1-3.78-15.24c1.07-4.85-1.11-11.49-4.75-14.46a17.61,17.61,0,0,1-5.67-13.67c.46-4.74-2.55-10.67-6.53-12.9a16.11,16.11,0,0,1-7.35-12.12c-.16-4.59-3.89-9.8-8.11-11.33a15.14,15.14,0,0,1-8.83-10.56A13.16,13.16,0,0,0,360,62.51a14.62,14.62,0,0,1-10.11-9c-1.3-4.19-6.21-8-10.67-8.21a14.4,14.4,0,0,1-11.17-7.43c-1.84-3.93-7.19-7-11.64-6.65a14.39,14.39,0,0,1-12.05-5.87c-2.33-3.64-8-6-12.4-5.09A14.41,14.41,0,0,1,279.29,16c-2.79-3.31-8.75-4.94-13-3.52a13.76,13.76,0,0,1-13.06-2.79c-3.06-2.94-9.33-3.87-13.33-2a14.61,14.61,0,0,1-13.44-1.19C222.93,3.92,217,3.9,213,6.08c-4.65,2.53-9.64,2.55-13.52.44s-10-1.6-13.43,1.17a14.57,14.57,0,0,1-13.34,1.94,12.59,12.59,0,0,0-13.1,2.64,14.51,14.51,0,0,1-13,3.51c-4.3-1.17-10.16.81-12.74,4.29a14.39,14.39,0,0,1-12.42,5.07c-4.42-.63-10,2.07-12.07,5.86a14.38,14.38,0,0,1-11.66,6.64c-4.46,0-9.62,3.36-11.21,7.43a14.51,14.51,0,0,1-10.69,8.21c-4.43.55-9.09,4.68-10.14,9a14.9,14.9,0,0,1-9.52,9.78c-4.32,1.19-8.39,6-8.86,10.56A15.61,15.61,0,0,1,39.19,94c-4.12,1.87-7.52,7.45-7.38,12.13A16.84,16.84,0,0,1,25.24,119c-3.83,2.59-6.45,8.89-5.69,13.7a18.73,18.73,0,0,1-4.78,14.48c-3.44,3.34-5.2,10.36-3.81,15.27a21.42,21.42,0,0,1-2.78,16.05c-3,4.13-3.75,11.87-1.72,16.84S8.18,208,5.87,213"/><path class="cls-1" d="M419.9,212.19c-2.31,5-2.57,12.69-.6,17.63s1.24,12.73-1.72,16.85a21.48,21.48,0,0,0-2.79,16.07c1.39,4.91-.37,11.93-3.81,15.27a18.74,18.74,0,0,0-4.79,14.49c.75,4.82-1.87,11.12-5.71,13.71a16.88,16.88,0,0,0-6.57,12.92c.13,4.68-3.27,10.25-7.39,12.13a15.61,15.61,0,0,0-8.15,11.35c-.47,4.51-4.55,9.37-8.87,10.56A14.93,14.93,0,0,0,360,363c-1.05,4.31-5.71,8.44-10.15,9a14.55,14.55,0,0,0-10.7,8.21c-1.59,4.07-6.75,7.48-11.21,7.43a14.41,14.41,0,0,0-11.67,6.64c-2.1,3.79-7.66,6.48-12.08,5.85a14.46,14.46,0,0,0-12.43,5.07c-2.58,3.49-8.44,5.46-12.74,4.29a14.52,14.52,0,0,0-13,3.5,12.58,12.58,0,0,1-13.11,2.64,14.57,14.57,0,0,0-13.34,1.94c-3.39,2.76-9.57,3.3-13.44,1.16s-9.52-1.77-13.48.38a12.83,12.83,0,0,1-13.52-.35,14.58,14.58,0,0,0-13.44-1.19c-4,1.9-10.27,1-13.33-2a13.75,13.75,0,0,0-13.06-2.81c-4.22,1.42-10.18-.2-13-3.53a14.44,14.44,0,0,0-12.71-4.31c-4.37.9-10.07-1.44-12.4-5.09a14.36,14.36,0,0,0-12-5.87c-4.44.34-9.8-2.72-11.63-6.66a14.39,14.39,0,0,0-11.18-7.43c-4.45-.25-9.35-4-10.66-8.22a14.63,14.63,0,0,0-10.1-9,13.16,13.16,0,0,1-9.49-9.78,15.13,15.13,0,0,0-8.82-10.55c-4.22-1.54-8-6.75-8.11-11.34a16.1,16.1,0,0,0-7.34-12.12c-4-2.23-7-8.16-6.53-12.9a17.59,17.59,0,0,0-5.66-13.67c-3.64-3-5.82-9.61-4.74-14.46a19.85,19.85,0,0,0-3.77-15.23c-3.21-3.73-4.48-11.09-2.76-16a22.92,22.92,0,0,0-1.68-16.79c-2.67-4.52-2.93-12.6-.56-17.57"/><path class="cls-2" d="M419.9,212.19c-2.31,5-2.57,12.69-.6,17.63s1.24,12.73-1.72,16.85a21.48,21.48,0,0,0-2.79,16.07c1.39,4.91-.37,11.93-3.81,15.27a18.74,18.74,0,0,0-4.79,14.49c.75,4.82-1.87,11.12-5.71,13.71a16.88,16.88,0,0,0-6.57,12.92c.13,4.68-3.27,10.25-7.39,12.13a15.61,15.61,0,0,0-8.15,11.35c-.47,4.51-4.55,9.37-8.87,10.56A14.93,14.93,0,0,0,360,363c-1.05,4.31-5.71,8.44-10.15,9a14.55,14.55,0,0,0-10.7,8.21c-1.59,4.07-6.75,7.48-11.21,7.43a14.41,14.41,0,0,0-11.67,6.64c-2.1,3.79-7.66,6.48-12.08,5.85a14.46,14.46,0,0,0-12.43,5.07c-2.58,3.49-8.44,5.46-12.74,4.29a14.52,14.52,0,0,0-13,3.5,12.58,12.58,0,0,1-13.11,2.64,14.57,14.57,0,0,0-13.34,1.94c-3.39,2.76-9.57,3.3-13.44,1.16s-9.52-1.77-13.48.38a12.83,12.83,0,0,1-13.52-.35,14.58,14.58,0,0,0-13.44-1.19c-4,1.9-10.27,1-13.33-2a13.75,13.75,0,0,0-13.06-2.81c-4.22,1.42-10.18-.2-13-3.53a14.44,14.44,0,0,0-12.71-4.31c-4.37.9-10.07-1.44-12.4-5.09a14.36,14.36,0,0,0-12-5.87c-4.44.34-9.8-2.72-11.63-6.66a14.39,14.39,0,0,0-11.18-7.43c-4.45-.25-9.35-4-10.66-8.22a14.63,14.63,0,0,0-10.1-9,13.16,13.16,0,0,1-9.49-9.78,15.13,15.13,0,0,0-8.82-10.55c-4.22-1.54-8-6.75-8.11-11.34a16.1,16.1,0,0,0-7.34-12.12c-4-2.23-7-8.16-6.53-12.9a17.59,17.59,0,0,0-5.66-13.67c-3.64-3-5.82-9.61-4.74-14.46a19.85,19.85,0,0,0-3.77-15.23c-3.21-3.73-4.48-11.09-2.76-16a22.92,22.92,0,0,0-1.68-16.79c-2.67-4.52-2.93-12.6-.56-17.57"/><path class="cls-3" d="M419.56,213c2.37-5,2.1-13-.57-17.57a23,23,0,0,1-1.69-16.8c1.72-4.93.45-12.29-2.75-16a19.85,19.85,0,0,1-3.78-15.24c1.07-4.85-1.11-11.49-4.75-14.46a17.61,17.61,0,0,1-5.67-13.67c.46-4.74-2.55-10.67-6.53-12.9a16.11,16.11,0,0,1-7.35-12.12c-.16-4.59-3.89-9.8-8.11-11.33a15.14,15.14,0,0,1-8.83-10.56A13.16,13.16,0,0,0,360,62.51a14.62,14.62,0,0,1-10.11-9c-1.3-4.19-6.21-8-10.67-8.21a14.4,14.4,0,0,1-11.17-7.43c-1.84-3.93-7.19-7-11.64-6.65a14.39,14.39,0,0,1-12.05-5.87c-2.33-3.64-8-6-12.4-5.09A14.41,14.41,0,0,1,279.29,16c-2.79-3.31-8.75-4.94-13-3.52a13.76,13.76,0,0,1-13.06-2.79c-3.06-2.94-9.33-3.87-13.33-2a14.61,14.61,0,0,1-13.44-1.19C222.93,3.92,217,3.9,213,6.08c-4.65,2.53-9.64,2.55-13.52.44s-10-1.6-13.43,1.17a14.57,14.57,0,0,1-13.34,1.94,12.59,12.59,0,0,0-13.1,2.64,14.51,14.51,0,0,1-13,3.51c-4.3-1.17-10.16.81-12.74,4.29a14.39,14.39,0,0,1-12.42,5.07c-4.42-.63-10,2.07-12.07,5.86a14.38,14.38,0,0,1-11.66,6.64c-4.46,0-9.62,3.36-11.21,7.43a14.51,14.51,0,0,1-10.69,8.21c-4.43.55-9.09,4.68-10.14,9a14.9,14.9,0,0,1-9.52,9.78c-4.32,1.19-8.39,6-8.86,10.56A15.61,15.61,0,0,1,39.19,94c-4.12,1.87-7.52,7.45-7.38,12.13A16.84,16.84,0,0,1,25.24,119c-3.83,2.59-6.45,8.89-5.69,13.7a18.73,18.73,0,0,1-4.78,14.48c-3.44,3.34-5.2,10.36-3.81,15.27a21.42,21.42,0,0,1-2.78,16.05c-3,4.13-3.75,11.87-1.72,16.84S8.18,208,5.87,213"/><path class="cls-3" d="M419.9,212.19c-2.31,5-2.57,12.69-.6,17.63s1.24,12.73-1.72,16.85a21.48,21.48,0,0,0-2.79,16.07c1.39,4.91-.37,11.93-3.81,15.27a18.74,18.74,0,0,0-4.79,14.49c.75,4.82-1.87,11.12-5.71,13.71a16.88,16.88,0,0,0-6.57,12.92c.13,4.68-3.27,10.25-7.39,12.13a15.61,15.61,0,0,0-8.15,11.35c-.47,4.51-4.55,9.37-8.87,10.56A14.93,14.93,0,0,0,360,363c-1.05,4.31-5.71,8.44-10.15,9a14.55,14.55,0,0,0-10.7,8.21c-1.59,4.07-6.75,7.48-11.21,7.43a14.41,14.41,0,0,0-11.67,6.64c-2.1,3.79-7.66,6.48-12.08,5.85a14.46,14.46,0,0,0-12.43,5.07c-2.58,3.49-8.44,5.46-12.74,4.29a14.52,14.52,0,0,0-13,3.5,12.58,12.58,0,0,1-13.11,2.64,14.57,14.57,0,0,0-13.34,1.94c-3.39,2.76-9.57,3.3-13.44,1.16s-9.52-1.77-13.48.38a12.83,12.83,0,0,1-13.52-.35,14.58,14.58,0,0,0-13.44-1.19c-4,1.9-10.27,1-13.33-2a13.75,13.75,0,0,0-13.06-2.81c-4.22,1.42-10.18-.2-13-3.53a14.44,14.44,0,0,0-12.71-4.31c-4.37.9-10.07-1.44-12.4-5.09a14.36,14.36,0,0,0-12-5.87c-4.44.34-9.8-2.72-11.63-6.66a14.39,14.39,0,0,0-11.18-7.43c-4.45-.25-9.35-4-10.66-8.22a14.63,14.63,0,0,0-10.1-9,13.16,13.16,0,0,1-9.49-9.78,15.13,15.13,0,0,0-8.82-10.55c-4.22-1.54-8-6.75-8.11-11.34a16.1,16.1,0,0,0-7.34-12.12c-4-2.23-7-8.16-6.53-12.9a17.59,17.59,0,0,0-5.66-13.67c-3.64-3-5.82-9.61-4.74-14.46a19.85,19.85,0,0,0-3.77-15.23c-3.21-3.73-4.48-11.09-2.76-16a22.92,22.92,0,0,0-1.68-16.79c-2.67-4.52-2.93-12.6-.56-17.57"/><path class="cls-4" d="M144.49,153.51H98.64a9.18,9.18,0,0,1-9.17-9.17V98.49a9.18,9.18,0,0,1,9.17-9.17h45.85a9.17,9.17,0,0,1,9.17,9.17v45.85A9.17,9.17,0,0,1,144.49,153.51Z"/><path class="cls-5" d="M145.26,89.32c.1,1.28.15,2.56.15,3.86a50.2,50.2,0,0,1-50.21,50.2,51.71,51.71,0,0,1-5.73-.32v1.24a9.17,9.17,0,0,0,9.17,9.17h45.85a9.16,9.16,0,0,0,9.17-9.17V98.45a9.16,9.16,0,0,0-8.4-9.13Z"/><path class="cls-6" d="M144.49,233.75H98.64a9.18,9.18,0,0,1-9.17-9.17V178.73a9.17,9.17,0,0,1,9.17-9.17h45.85a9.16,9.16,0,0,1,9.17,9.17v45.85A9.17,9.17,0,0,1,144.49,233.75Z"/><path class="cls-7" d="M145.26,169.58c.1,1.27.15,2.56.15,3.86a50.21,50.21,0,0,1-50.21,50.2,49.39,49.39,0,0,1-5.73-.33v1.25a9.18,9.18,0,0,0,9.17,9.17h45.85a9.17,9.17,0,0,0,9.17-9.17V178.71a9.15,9.15,0,0,0-8.4-9.13Z"/><path class="cls-8" d="M283.9,153.51H238.05a9.18,9.18,0,0,1-9.17-9.17V98.49a9.18,9.18,0,0,1,9.17-9.17H283.9a9.17,9.17,0,0,1,9.17,9.17v45.85A9.17,9.17,0,0,1,283.9,153.51Z"/><path class="cls-9" d="M284.67,89.36c.1,1.27.15,2.56.15,3.86a50.2,50.2,0,0,1-50.21,50.2,51.71,51.71,0,0,1-5.73-.32v1.24a9.18,9.18,0,0,0,9.17,9.17H283.9a9.17,9.17,0,0,0,9.17-9.17V98.49a9.16,9.16,0,0,0-8.4-9.13Z"/><path class="cls-10" d="M283.9,233.75H238.05a9.18,9.18,0,0,1-9.17-9.17V178.73a9.17,9.17,0,0,1,9.17-9.17H283.9a9.16,9.16,0,0,1,9.17,9.17v45.85A9.17,9.17,0,0,1,283.9,233.75Z"/><path class="cls-11" d="M284.67,169.6c.1,1.27.15,2.56.15,3.85a50.21,50.21,0,0,1-50.21,50.21,49.39,49.39,0,0,1-5.73-.33v1.25a9.18,9.18,0,0,0,9.17,9.17H283.9a9.17,9.17,0,0,0,9.17-9.17V178.73a9.15,9.15,0,0,0-8.4-9.13Z"/><path class="cls-12" d="M131,331.4l6.41,4.65H228l-5.42-17.54-1-18.18a19.68,19.68,0,0,0-.87-4.82L205,244.91A10.18,10.18,0,0,0,192.78,238a10,10,0,0,0-7,12.64l-3-9.83a10.18,10.18,0,0,0-12.26-7,10,10,0,0,0-7,12.64l-2.89-9.35a10.18,10.18,0,0,0-12.26-7,10,10,0,0,0-7,12.64l-10-32.35a10.18,10.18,0,0,0-12.26-6.95,10,10,0,0,0-7,12.64l17.76,57.5a10,10,0,1,0-19.16,5.92l12.82,41.52A20.14,20.14,0,0,0,131,331.4Z"/><path class="cls-13" d="M167.91,336.05h60l-5.42-17.54-1-18.18a19.68,19.68,0,0,0-.87-4.82l-10-32.52c-3.88,21.72-14.41,52.68-42.72,73.06Z"/><path class="cls-14" d="M98.64,157.23h45.85a12.91,12.91,0,0,0,12.9-12.89V98.49a12.92,12.92,0,0,0-12.9-12.89H119.12a3.72,3.72,0,1,0,0,7.44h25.37a5.46,5.46,0,0,1,5.45,5.45v45.85a5.46,5.46,0,0,1-5.45,5.45H98.64a5.45,5.45,0,0,1-5.44-5.45V98.49A5.45,5.45,0,0,1,98.64,93h3.1a3.72,3.72,0,0,0,0-7.44h-3.1A12.9,12.9,0,0,0,85.75,98.49v45.85a12.9,12.9,0,0,0,12.89,12.89Z"/><path class="cls-14" d="M107.57,140.94a3.73,3.73,0,0,0,4.81-2.15l2.09-5.48h14.22l2.06,5.47a3.74,3.74,0,0,0,3.49,2.41,3.79,3.79,0,0,0,1.31-.24,3.72,3.72,0,0,0,2.17-4.8l-11.94-31.64s0-.07,0-.11a4.44,4.44,0,0,0-4.12-2.75h0a4.44,4.44,0,0,0-4.12,2.76l0,.09-12,31.64A3.72,3.72,0,0,0,107.57,140.94Zm14-26.39,4.27,11.31H117.3Z"/><path class="cls-14" d="M169.71,109.09h27.08a3.72,3.72,0,0,0,0-7.44H169.71a3.72,3.72,0,0,0,0,7.44Z"/><path class="cls-14" d="M169.71,125.14h17a3.73,3.73,0,0,0,0-7.45h-17a3.73,3.73,0,0,0,0,7.45Z"/><path class="cls-14" d="M169.71,141.19h17a3.73,3.73,0,0,0,0-7.45h-17a3.73,3.73,0,0,0,0,7.45Z"/><path class="cls-14" d="M169.71,189.33h27.08a3.73,3.73,0,0,0,0-7.45H169.71a3.73,3.73,0,0,0,0,7.45Z"/><path class="cls-14" d="M169.71,205.37h17a3.72,3.72,0,1,0,0-7.44h-17a3.72,3.72,0,0,0,0,7.44Z"/><path class="cls-14" d="M169.71,221.42h17a3.72,3.72,0,0,0,0-7.44h-17a3.72,3.72,0,0,0,0,7.44Z"/><path class="cls-14" d="M238.05,157.23H283.9a12.91,12.91,0,0,0,12.9-12.89V98.49A12.92,12.92,0,0,0,283.9,85.6H238.05a12.9,12.9,0,0,0-12.89,12.89v45.85A12.9,12.9,0,0,0,238.05,157.23Zm-5.44-58.74A5.45,5.45,0,0,1,238.05,93H283.9a5.46,5.46,0,0,1,5.45,5.45v45.85a5.46,5.46,0,0,1-5.45,5.45H238.05a5.45,5.45,0,0,1-5.44-5.45Z"/><path class="cls-14" d="M264,141.19a16.65,16.65,0,0,0,11.28-4.13,16.3,16.3,0,0,0,1.68-1.74,3.72,3.72,0,0,0-5.71-4.78,9.34,9.34,0,0,1-.92,1,9.19,9.19,0,0,1-6.33,2.24,12.33,12.33,0,1,1,6.88-22.55A3.72,3.72,0,0,0,275,105,19.77,19.77,0,1,0,264,141.19Z"/><path class="cls-14" d="M283.9,165.84H261a3.72,3.72,0,0,0,0,7.44H283.9a5.46,5.46,0,0,1,5.45,5.45v45.85A5.45,5.45,0,0,1,283.9,230H238.05a5.45,5.45,0,0,1-5.44-5.44V178.73a5.45,5.45,0,0,1,5.44-5.45h5.56a3.72,3.72,0,0,0,0-7.44h-5.56a12.91,12.91,0,0,0-12.89,12.89v45.85a12.91,12.91,0,0,0,12.89,12.89H283.9a12.91,12.91,0,0,0,12.9-12.89V178.73a12.91,12.91,0,0,0-12.9-12.89Z"/><path class="cls-14" d="M246.23,217.18a4.4,4.4,0,0,0,1.16,3.16,3.74,3.74,0,0,0,2.63,1.08h0c.28,0,6.76,0,9.34-.07,9.48-.16,16.36-8.45,16.36-19.7,0-11.82-6.71-19.77-16.69-19.77H250a3.72,3.72,0,0,0-3.72,3.73v0h0ZM259,189.33c6.81,0,9.24,6.36,9.24,12.32s-2.79,12.15-9,12.26l-5.51.05c0-3.8,0-9.52,0-12.34,0-2.37,0-8.34,0-12.29Z"/><path class="cls-14" d="M309.12,109.09H336.2a3.72,3.72,0,1,0,0-7.44H309.12a3.72,3.72,0,0,0,0,7.44Z"/><path class="cls-14" d="M309.12,125.14h17.05a3.73,3.73,0,0,0,0-7.45H309.12a3.73,3.73,0,0,0,0,7.45Z"/><path class="cls-14" d="M309.12,141.19h17.05a3.73,3.73,0,0,0,0-7.45H309.12a3.73,3.73,0,0,0,0,7.45Z"/><path class="cls-14" d="M336.2,181.88H309.12a3.73,3.73,0,0,0,0,7.45H336.2a3.73,3.73,0,0,0,0-7.45Z"/><path class="cls-14" d="M326.17,197.93H309.12a3.72,3.72,0,0,0,0,7.44h17.05a3.72,3.72,0,0,0,0-7.44Z"/><path class="cls-14" d="M326.17,214H309.12a3.72,3.72,0,0,0,0,7.44h17.05a3.72,3.72,0,0,0,0-7.44Z"/><path class="cls-14" d="M214.52,263l-5.92-19.17a14,14,0,0,0-16.79-9.45,13.73,13.73,0,0,0-6.15,3.55,13.8,13.8,0,0,0-16.13-7.69,13.62,13.62,0,0,0-6.2,3.61,14.1,14.1,0,0,0-6.28-6.31,13.05,13.05,0,0,0,.33-2.94V178.73a12.9,12.9,0,0,0-12.89-12.89H98.64a12.9,12.9,0,0,0-12.89,12.89v45.85a12.9,12.9,0,0,0,12.89,12.89h16.23l7.9,25.58a13.78,13.78,0,0,0-16.17,13.54,13.91,13.91,0,0,0,.62,4.07l12.83,41.53a23.65,23.65,0,0,0,8.75,12.22l6.41,4.65a3.72,3.72,0,0,0,4.37-6l-6.4-4.64a16.32,16.32,0,0,1-6-8.4l-12.83-41.52a6.31,6.31,0,1,1,12-3.74l7.1,23L131.22,302a3.72,3.72,0,0,0,1.55,5,3.76,3.76,0,0,0,1.74.43,3.72,3.72,0,0,0,3.29-2l3-5.64a3.74,3.74,0,0,0,.27-2.84L115.74,215c-2.1-8.23,9.3-11.57,12.11-3.5L147,273.61a3.72,3.72,0,0,0,7.11-2.2L145,241.7v0a6.3,6.3,0,0,1,4.39-7.92,6.5,6.5,0,0,1,7.74,4.47l9.1,29.46a3.72,3.72,0,0,0,7.12-2.19s-6.21-20.12-6.22-20.13a6.3,6.3,0,0,1,4.39-8,6.5,6.5,0,0,1,7.74,4.46l6.14,19.89c1.39,4.66,8.6,2.39,7.11-2.19l-3.12-10.11a6.32,6.32,0,0,1,4.4-7.91,6.5,6.5,0,0,1,7.74,4.46l5.92,19.16a3.72,3.72,0,1,0,7.11-2.19ZM121.1,196.65h-5.6v-7.33h5.6a3.66,3.66,0,1,1,0,7.32ZM141.35,230l-6.28-20.35v0c0-.2,0-.41,0-.61a12.32,12.32,0,0,0-4.81-9.78,11.1,11.1,0,0,0-9.17-17.36h-9.33a3.73,3.73,0,0,0-3.72,3.72v32.1a3.72,3.72,0,0,0,1.68,3.11l2.84,9.21H98.64a5.45,5.45,0,0,1-5.44-5.44V178.73a5.45,5.45,0,0,1,5.44-5.45h45.85a5.46,5.46,0,0,1,5.45,5.45v45.85a5.52,5.52,0,0,1-.23,1.57,13.06,13.06,0,0,0-2.3.41,13.78,13.78,0,0,0-6.06,3.45Z"/><path class="cls-14" d="M226.23,317.85l-1-17.72a23.93,23.93,0,0,0-1-5.72l-4.58-14.83a3.72,3.72,0,1,0-7.11,2.19l4.58,14.84a16.29,16.29,0,0,1,.7,3.93l1,18.17a3.86,3.86,0,0,0,.16.9l5.41,17.54a3.73,3.73,0,0,0,3.56,2.62,3.8,3.8,0,0,0,1.1-.16,3.72,3.72,0,0,0,2.46-4.66Z"/></g></g></svg>