<svg xmlns="http://www.w3.org/2000/svg" viewBox="0 0 629.64 629.07"><defs><style>.cls-1{fill:#888eba;}.cls-10,.cls-2{fill:none;stroke-miterlimit:8;stroke-width:9px;}.cls-2{stroke:#cbabc8;}.cls-3{fill:#3a69ff;}.cls-4{fill:#1b53a6;}.cls-5{fill:#fed759;}.cls-6{fill:#ffb3d0;}.cls-7{fill:#e67199;}.cls-8{fill:#83a1ff;}.cls-9{fill:#5f86fe;}.cls-10{stroke:#fff;}.cls-11{fill:#ff525d;}.cls-12{fill:#f9eed7;}.cls-13{fill:#ffd15c;}</style></defs><g id="Слой_2" data-name="Слой 2"><g id="Слой_1-2" data-name="Слой 1"><path class="cls-1" d="M622.59,315c3.72-7.4,3.32-19.44-.84-26.17s-5.18-17.68-2.51-25,.85-18.34-4.11-23.84-7.34-15.45-5.63-22.69-1.46-17.19-7.06-21.53-9.22-13.26-8.44-20.36-3.63-16-9.72-19.2-10.81-11.15-10.95-18-5.63-14.72-12.08-16.88-12.12-9.07-13.14-15.72S540.64,92.18,534,91,520.8,84,518.93,77.63s-9.13-12-15.88-12.23-14-5.1-16.64-11.07-10.61-10.58-17.33-9.9-14.51-3.19-17.93-8.74-11.89-9.09-18.47-7.57-14.81-1.35-18.93-6.42-13-7.54-19.3-5.25-14.54.73-19.45-4.16c-4.51-4.57-13.86-5.95-19.85-2.93s-14.7,2.18-20-1.77-14.2-4-20.08-.6c-6.91,4-14.34,4-20.12.66s-15-2.57-20,1.73-13.9,5.55-19.86,2.9c-6.45-2.93-15.08-.93-19.51,3.92s-12.88,7.08-19.33,5.23-15.19,1-19,6.39-11.85,8.6-18.5,7.55-14.94,2.9-18,8.72S150.18,54.16,143.45,54,129,58.82,126.77,65s-9.23,11.49-15.93,12.23S97.17,84.09,95.75,90.65s-7.64,12.83-14.18,14.55-12.65,8.89-13.19,15.73-5.89,14.14-12.13,16.89-11.35,11-11,18.06-4,15.39-9.77,19.23S25.71,188.26,27,195.5s-1.88,16.58-7.12,21.57S12,232.44,14.22,239.8s.36,17.72-4.15,23.9S4.3,281.35,7.52,288.77s2.75,18.81-.88,26.24"/><path class="cls-2" d="M622.59,315c3.72-7.4,3.32-19.44-.84-26.17s-5.18-17.68-2.51-25,.85-18.34-4.11-23.84-7.34-15.45-5.63-22.69-1.46-17.19-7.06-21.53-9.22-13.26-8.44-20.36-3.63-16-9.72-19.2-10.81-11.15-10.95-18-5.63-14.72-12.08-16.88-12.12-9.07-13.14-15.72S540.64,92.18,534,91,520.8,84,518.93,77.63s-9.13-12-15.88-12.23-14-5.1-16.64-11.07-10.61-10.58-17.33-9.9-14.51-3.19-17.93-8.74-11.89-9.09-18.47-7.57-14.81-1.35-18.93-6.42-13-7.54-19.3-5.25-14.54.73-19.45-4.16c-4.51-4.57-13.86-5.95-19.85-2.93s-14.7,2.18-20-1.77-14.2-4-20.08-.6c-6.91,4-14.34,4-20.12.66s-15-2.57-20,1.73-13.9,5.55-19.86,2.9c-6.45-2.93-15.08-.93-19.51,3.92s-12.88,7.08-19.33,5.23-15.19,1-19,6.39-11.85,8.6-18.5,7.55-14.94,2.9-18,8.72S150.18,54.16,143.45,54,129,58.82,126.77,65s-9.23,11.49-15.93,12.23S97.17,84.09,95.75,90.65s-7.64,12.83-14.18,14.55-12.65,8.89-13.19,15.73-5.89,14.14-12.13,16.89-11.35,11-11,18.06-4,15.39-9.77,19.23S25.71,188.26,27,195.5s-1.88,16.58-7.12,21.57S12,232.44,14.22,239.8s.36,17.72-4.15,23.9S4.3,281.35,7.52,288.77s2.75,18.81-.88,26.24"/><path class="cls-1" d="M623.16,313.81c-3.63,7.44-4,18.87-.89,26.26s2,19-2.56,25.09-6.33,16.6-4.16,23.92-.37,17.83-5.68,22.75-8.35,14.38-7.13,21.58-2.62,16.63-8.5,20.4-10.08,12.22-9.78,19.24-4.71,15.39-11,18.07-11.54,10.11-12.14,16.9-6.63,14.08-13.21,15.72-12.72,8.06-14.19,14.56S525.53,551,518.8,551.69s-13.64,6.07-15.94,12.23-9.94,11.3-16.69,11.05-14.3,4.12-17.38,9.89-11.32,9.83-18,8.71-14.71,2.24-18.51,7.55-12.5,8.31-19,6.39-14.88.41-19.34,5.21-13.06,6.85-19.52,3.92c-6-2.65-14.82-1.35-19.86,2.89s-14.24,5.1-20,1.72-14.19-2.81-20.08.56c-6.92,4-14.85,3.48-20.13-.51s-14-4.73-20-1.78-15.34,1.63-19.85-2.93c-4.91-4.9-13.12-6.42-19.45-4.18s-15.21-.13-19.3-5.26-12.36-7.86-18.93-6.42-15.08-2-18.46-7.58-11.24-9.36-17.94-8.75-14.69-3.89-17.32-9.91-9.92-10.79-16.64-11.07-14-5.85-15.87-12.24-8.42-12.16-15-13.39-13.16-7.87-14.12-14.56-6.75-13.49-13.14-15.72-12-9.94-12.07-16.88-4.9-14.75-10.93-18.05-10.57-12.05-9.72-19.2-2.89-16-8.42-20.36-8.86-14.24-7.06-21.52-.74-17.12-5.62-22.69S7.64,372.34,10.39,365s1.58-18.21-2.5-25-4.55-18.76-.84-26.16"/><path class="cls-2" d="M623.16,313.81c-3.63,7.44-4,18.87-.89,26.26s2,19-2.56,25.09-6.33,16.6-4.16,23.92-.37,17.83-5.68,22.75-8.35,14.38-7.13,21.58-2.62,16.63-8.5,20.4-10.08,12.22-9.78,19.24-4.71,15.39-11,18.07-11.54,10.11-12.14,16.9-6.63,14.08-13.21,15.72-12.72,8.06-14.19,14.56S525.53,551,518.8,551.69s-13.64,6.07-15.94,12.23-9.94,11.3-16.69,11.05-14.3,4.12-17.38,9.89-11.32,9.83-18,8.71-14.71,2.24-18.51,7.55-12.5,8.31-19,6.39-14.88.41-19.34,5.21-13.06,6.85-19.52,3.92c-6-2.65-14.82-1.35-19.86,2.89s-14.24,5.1-20,1.72-14.19-2.81-20.08.56c-6.92,4-14.85,3.48-20.13-.51s-14-4.73-20-1.78-15.34,1.63-19.85-2.93c-4.91-4.9-13.12-6.42-19.45-4.18s-15.21-.13-19.3-5.26-12.36-7.86-18.93-6.42-15.08-2-18.46-7.58-11.24-9.36-17.94-8.75-14.69-3.89-17.32-9.91-9.92-10.79-16.64-11.07-14-5.85-15.87-12.24-8.42-12.16-15-13.39-13.16-7.87-14.12-14.56-6.75-13.49-13.14-15.72-12-9.94-12.07-16.88-4.9-14.75-10.93-18.05-10.57-12.05-9.72-19.2-2.89-16-8.42-20.36-8.86-14.24-7.06-21.52-.74-17.12-5.62-22.69S7.64,372.34,10.39,365s1.58-18.21-2.5-25-4.55-18.76-.84-26.16"/><g id="flat"><path class="cls-3" d="M283.23,140.63H480.36V484H283.23Z"/><path class="cls-4" d="M383.62,493.82,368.91,484l-22-88.81a40.28,40.28,0,0,0-10.24-18.41l-44.05-45.21-57.23-.19v31.8h41.33l35,38.15L330.76,484v12.72h52a1.59,1.59,0,0,0,1.58-1.6,1.58,1.58,0,0,0-.71-1.32Z"/><path class="cls-5" d="M276.71,236h-62.6a4.18,4.18,0,0,0-4.17,4.18V331.4h82.67V251.91A15.9,15.9,0,0,0,276.71,236Z"/><path class="cls-4" d="M209.94,331.4l-6.36,57.23-95.39,29,14.4,50a1.6,1.6,0,0,0,3,0L131,450.73l87.72-27.3a31.82,31.82,0,0,0,22.15-26.85l7.24-65.18Z"/><path class="cls-6" d="M283.23,261.78l15,30,8.68,17.34a28.87,28.87,0,0,0,49.72,3.26l35.52-52.54-20-17.44L332.94,299.6l-10.31-21.27-14-28.86Z"/><path class="cls-6" d="M183,256.21l-15,38.21a27.1,27.1,0,0,0,33.08,35.82l74.36-22.49a6.36,6.36,0,0,0,4.3-7.76l-4.37-16a6.37,6.37,0,0,0-7.83-4.45,3.68,3.68,0,0,0-.47.15l-9.75,3.52-1.78-3.66a3.91,3.91,0,0,0-7.43,1.71v4.57L197.22,299.6l12.53-31.22Z"/><path class="cls-5" d="M222.75,236l-21.83,54.36-.36-.14-27-10.08L183,256.21A31.8,31.8,0,0,1,212.56,236Z"/><path class="cls-5" d="M322.63,278.33l-.64.31-23.78,13.11L270.35,236H287.2a23.84,23.84,0,0,1,21.46,13.46Z"/><path class="cls-6" d="M248.26,239.19V210.58H261v28.61a6.36,6.36,0,1,1-12.71,0Z"/><path class="cls-7" d="M254.62,220.12H261v12.71h0a6.35,6.35,0,0,1-6.35-6.35v-6.36Z"/><path class="cls-6" d="M248.09,197.86h22.26v22.26a9.54,9.54,0,0,1-9.54,9.54,12.73,12.73,0,0,1-12.72-12.72Z"/><path class="cls-4" d="M279.89,188.32v6.36a9.54,9.54,0,0,1-9.54,9.54H257.63a12.72,12.72,0,0,1-12.72,12.72h-3.18V202.63A14.31,14.31,0,0,1,256,188.32Z"/><circle class="cls-6" cx="248.09" cy="216.94" r="6.36"/><path class="cls-8" d="M480.36,484,359.54,515.81V172.42l120.82-31.79Z"/><circle class="cls-9" cx="381.8" cy="334.58" r="9.54"/></g><path class="cls-10" d="M622.59,315c3.72-7.4,3.32-19.44-.84-26.17s-5.18-17.68-2.51-25,.85-18.34-4.11-23.84-7.34-15.45-5.63-22.69-1.46-17.19-7.06-21.53-9.22-13.26-8.44-20.36-3.63-16-9.72-19.2-10.81-11.15-10.95-18-5.63-14.72-12.08-16.88-12.12-9.07-13.14-15.72S540.64,92.18,534,91,520.8,84,518.93,77.63s-9.13-12-15.88-12.23-14-5.1-16.64-11.07-10.61-10.58-17.33-9.9-14.51-3.19-17.93-8.74-11.89-9.09-18.47-7.57-14.81-1.35-18.93-6.42-13-7.54-19.3-5.25-14.54.73-19.45-4.16c-4.51-4.57-13.86-5.95-19.85-2.93s-14.7,2.18-20-1.77-14.2-4-20.08-.6c-6.91,4-14.34,4-20.12.66s-15-2.57-20,1.73-13.9,5.55-19.86,2.9c-6.45-2.93-15.08-.93-19.51,3.92s-12.88,7.08-19.33,5.23-15.19,1-19,6.39-11.85,8.6-18.5,7.55-14.94,2.9-18,8.72S150.18,54.16,143.45,54,129,58.82,126.77,65s-9.23,11.49-15.93,12.23S97.17,84.09,95.75,90.65s-7.64,12.83-14.18,14.55-12.65,8.89-13.19,15.73-5.89,14.14-12.13,16.89-11.35,11-11,18.06-4,15.39-9.77,19.23S25.71,188.26,27,195.5s-1.88,16.58-7.12,21.57S12,232.44,14.22,239.8s.36,17.72-4.15,23.9S4.3,281.35,7.52,288.77s2.75,18.81-.88,26.24"/><path class="cls-10" d="M623.16,313.81c-3.63,7.44-4,18.87-.89,26.26s2,19-2.56,25.09-6.33,16.6-4.16,23.92-.37,17.83-5.68,22.75-8.35,14.38-7.13,21.58-2.62,16.63-8.5,20.4-10.08,12.22-9.78,19.24-4.71,15.39-11,18.07-11.54,10.11-12.14,16.9-6.63,14.08-13.21,15.72-12.72,8.06-14.19,14.56S525.53,551,518.8,551.69s-13.64,6.07-15.94,12.23-9.94,11.3-16.69,11.05-14.3,4.12-17.38,9.89-11.32,9.83-18,8.71-14.71,2.24-18.51,7.55-12.5,8.31-19,6.39-14.88.41-19.34,5.21-13.06,6.85-19.52,3.92c-6-2.65-14.82-1.35-19.86,2.89s-14.24,5.1-20,1.72-14.19-2.81-20.08.56c-6.92,4-14.85,3.48-20.13-.51s-14-4.73-20-1.78-15.34,1.63-19.85-2.93c-4.91-4.9-13.12-6.42-19.45-4.18s-15.21-.13-19.3-5.26-12.36-7.86-18.93-6.42-15.08-2-18.46-7.58-11.24-9.36-17.94-8.75-14.69-3.89-17.32-9.91-9.92-10.79-16.64-11.07-14-5.85-15.87-12.24-8.42-12.16-15-13.39-13.16-7.87-14.12-14.56-6.75-13.49-13.14-15.72-12-9.94-12.07-16.88-4.9-14.75-10.93-18.05-10.57-12.05-9.72-19.2-2.89-16-8.42-20.36-8.86-14.24-7.06-21.52-.74-17.12-5.62-22.69S7.64,372.34,10.39,365s1.58-18.21-2.5-25-4.55-18.76-.84-26.16"/><path class="cls-11" d="M502.43,134.35a45.93,45.93,0,0,0-58.62,58.9A13.88,13.88,0,0,1,441.26,207l-5.84,6.83a3,3,0,0,0,3.05,4.75l12.87-3.67a14.08,14.08,0,0,1,11.31,1.64,45.93,45.93,0,1,0,39.78-82.2Z"/><path class="cls-12" d="M495,178.75c-5.65,1.74-6.64,4.08-8.21,8.2-.58,1.51-2,3-5.91,1.47-3.25-1.24-3.91-2.85-2.33-7,2.6-6.81,6.84-8.91,9.9-10,3.46-1.22,8.83-2,10.46-6.25,1.39-3.65-1.11-6.6-5.07-8.11-8.08-3.08-8.67,3.68-12.94,2.05a4.86,4.86,0,0,1-3-6.33c1.63-4.28,9-8.74,19.65-4.66,10.14,3.87,14.72,12.06,11.88,19.51S497.77,177.9,495,178.75Zm-12.36,23.59a6.59,6.59,0,0,1-8.42,3.77,6.53,6.53,0,1,1,8.42-3.77Z"/><path class="cls-13" d="M454.55,167.17a16,16,0,0,0-8.21,13.53l-.09,4a77.24,77.24,0,0,1-7.06,3.36l-5.6-8.84a15.85,15.85,0,0,0-10.51-7.09,48.76,48.76,0,0,1-8-2,46.52,46.52,0,1,1,39.48-3Z"/><path class="cls-12" d="M428.61,153.06a6.7,6.7,0,0,1-8.45,3.85,6.61,6.61,0,1,1,8.45-3.85Zm4.29-15.82c-.95,2.49-4.07,2.49-6,1.76-2.56-1-4.33-2.85-3.38-5.34,3.64-9.54,7.75-23.68,11.4-33.23,1.19-3.13,4.43-3.91,7.72-2.66,3.13,1.2,5.1,4,3.91,7.1C442.9,114.41,436.55,127.7,432.9,137.24Z"/></g></g></svg>