<svg xmlns="http://www.w3.org/2000/svg" xmlns:xlink="http://www.w3.org/1999/xlink" viewBox="0 0 415.48 123.38"><defs><style>.cls-1,.cls-2,.cls-7{fill:none;}.cls-1{clip-rule:evenodd;}.cls-10,.cls-11,.cls-2,.cls-3,.cls-4,.cls-5,.cls-6,.cls-9{fill-rule:evenodd;}.cls-4{fill:#efa289;}.cls-12,.cls-5{fill:#fff;}.cls-6{fill:#e9bd9a;}.cls-7{stroke:#1d1e1c;stroke-miterlimit:8;stroke-width:3px;}.cls-8{clip-path:url(#clip-path);}.cls-9{fill:#f3a28d;}.cls-10{fill:#159f84;opacity:0.57;}.cls-11{fill:#bc8380;}</style><clipPath id="clip-path" transform="translate(-1.95)"><polygon class="cls-1" points="7.13 3.21 0 71.75 70.14 79.04 77.26 10.49 7.13 3.21 7.13 3.21"/></clipPath></defs><g id="Слой_2" data-name="Слой 2"><g id="Слой_1-2" data-name="Слой 1"><path class="cls-3" d="M417.27,92.2c.75,3.4-1.37,7.31-2.95,10.65s-4.22,6.24-6.52,9.4-5.51,7.74-7.29,9.58-2.33,1.58-3.39,1.48-.48-.21-2.94-2.06-9.62-6.84-11.8-9-1.78-2.42-1.32-4.08,5.35-5.72,4.12-5.88-7.71,5.07-11.52,4.91-7.94-3-11.36-5.88-8.22-7.49-9.17-11.63,2.58-10.86,3.47-13.22c-3.51,1.64-8,4.68-11.66,4.29s-7.15-4-10.4-6.6a59,59,0,0,1-9.11-8.7,9.46,9.46,0,0,1-2.23-6.27c0-1.87.76-3.15,2.05-5.91s4.93-7.4,7-10.46c3.21-3.32,5.9-9.13,8.3-10.8s2.36-.77,4.54.32,6.27,4.49,8.51,6.25A36.65,36.65,0,0,1,358.76,43c1,1.21,1.14,1.44.68,2.77S355.54,50.64,356,51s4.12-2.28,6.13-3A14.21,14.21,0,0,1,368,47a14,14,0,0,1,6.24,2.23A51.88,51.88,0,0,1,381.06,55c2,1.85,4.07,3.11,5,5.29s.9,5.38.75,7.8-1.68,5.73-1.62,6.75.58-.17,2-.64,4-2.2,6.32-2.18a13.46,13.46,0,0,1,7.39,2.28,52.43,52.43,0,0,1,9,8.09c2.73,3,6.67,6.36,7.41,9.77Z" transform="translate(-1.95)"/><path class="cls-4" d="M343.68,37.87c-4.51,5-8.54,11.38-10,13.18s-3.23,7.19-2.35,11.15c3-.12,9-1.72,10.66-3.07,3.58-2.79,7.17-8.63,10.85-13.7-4.58-4.22,0,0-9.16-7.56Z" transform="translate(-1.95)"/><path class="cls-4" d="M397.37,115.58a102.47,102.47,0,0,0,10.31-13.25c2.71-4.18,3.65-7.45,2-11.89-3,.13-8.2,2.34-10.63,3.88-3,3.8-6.9,9.06-10.58,14.13,4.57,4.21,0,.34,8.89,7.13Z" transform="translate(-1.95)"/><path class="cls-4" d="M336.63,67.27c-.49-1.15-.58,1.42,3.89-.78s18-10.22,22.89-12.39,4.24-1.46,6.54-.6,5.59,4.7,7.25,5.73.07-.94-4,1.13-16,9-20.24,11.25-3.89,2-5.47,2.31-2.3.5-4-.49-6.37-5-6.87-6.16Z" transform="translate(-1.95)"/><path class="cls-4" d="M363.54,93.44c-.32-1.09-.5,1.43,3.88-.77s17.43-10.23,22.4-12.44,5-1.78,7.46-.83,6.65,5.4,7.13,6.58-.2-1.5-4.27.55S384.29,96,380,98.25s-4,1.69-5.55,2a6.71,6.71,0,0,1-5.14-1c-1.32-1.09-5.47-4.68-5.79-5.77Z" transform="translate(-1.95)"/><path class="cls-4" d="M380.62,63.94c-1.83-.48-9.27,4.09-12.26,6.56s-4.26,5.15-5.66,8.21-4.41,9.48-2.76,10.12,9.38-3.85,12.64-6.32a22.92,22.92,0,0,0,6.74-9.13c1.35-3.1,3.13-9,1.3-9.44Z" transform="translate(-1.95)"/><path class="cls-5" d="M57.82,10.06a18.16,18.16,0,0,1,16,18.2,17.52,17.52,0,0,1-5.47,12.39A18.36,18.36,0,0,1,55.06,45.7c-6.64-.18-12.34,5.15-16,15A18.15,18.15,0,0,1,19.45,72.2a19.22,19.22,0,0,1-3.89-1A18.18,18.18,0,0,1,5.09,61.73a17.44,17.44,0,0,1-.52-13.54C18.25,11.75,47.26,9.67,55.83,9.9a18.84,18.84,0,0,1,2,.16Z" transform="translate(-1.95)"/><path class="cls-6" d="M57.82,10.06a18.16,18.16,0,0,1,16,18.2,17.52,17.52,0,0,1-5.47,12.39A18.36,18.36,0,0,1,55.06,45.7c-6.64-.18-12.34,5.15-16,15A18.15,18.15,0,0,1,19.45,72.2a19.22,19.22,0,0,1-3.89-1A18.18,18.18,0,0,1,5.09,61.73a17.44,17.44,0,0,1-.52-13.54C18.25,11.75,47.26,9.67,55.83,9.9a18.84,18.84,0,0,1,2,.16Z" transform="translate(-1.95)"/><path class="cls-7" d="M57.82,10.06a18.16,18.16,0,0,1,16,18.2,17.52,17.52,0,0,1-5.47,12.39A18.36,18.36,0,0,1,55.06,45.7c-6.64-.18-12.34,5.15-16,15A18.15,18.15,0,0,1,19.45,72.2a19.22,19.22,0,0,1-3.89-1A18.18,18.18,0,0,1,5.09,61.73a17.44,17.44,0,0,1-.52-13.54C18.25,11.75,47.26,9.67,55.83,9.9a18.84,18.84,0,0,1,2,.16Z" transform="translate(-1.95)"/><g class="cls-8"><path class="cls-9" d="M56.5,16.52a12,12,0,0,1,10.65,12,11.42,11.42,0,0,1-3.58,8.1A12.24,12.24,0,0,1,54.71,40c-5.21-.14-14.86,2-20.92,18.16a12.2,12.2,0,0,1-13,7.58,12.47,12.47,0,0,1-2.63-.64,12.14,12.14,0,0,1-7-6.32,11.38,11.38,0,0,1-.34-8.85c12-31.89,37-33.72,44.35-33.52a11.91,11.91,0,0,1,1.34.11Z" transform="translate(-1.95)"/><g class="cls-8"><path class="cls-10" d="M20.9,47.8a4.45,4.45,0,1,1,3.82,5,4.44,4.44,0,0,1-3.82-5Z" transform="translate(-1.95)"/><g class="cls-8"><path class="cls-11" d="M52.65,28.44a3.34,3.34,0,1,1,2.87,3.75,3.34,3.34,0,0,1-2.87-3.75Z" transform="translate(-1.95)"/><g class="cls-8"><path class="cls-10" d="M27.06,35.15a3.34,3.34,0,1,1,2.88,3.75,3.35,3.35,0,0,1-2.88-3.75Z" transform="translate(-1.95)"/><g class="cls-8"><path class="cls-10" d="M43,33.9a1.12,1.12,0,0,1,.4.14,1.3,1.3,0,0,1,.34.28,1.32,1.32,0,0,1,.18.4,1,1,0,0,1,0,.43,1.16,1.16,0,0,1-.42.74,1.44,1.44,0,0,1-.4.18,1.14,1.14,0,0,1-1.17-.39,1.16,1.16,0,0,1-.21-.83,1.12,1.12,0,0,1,.14-.4,1.3,1.3,0,0,1,.28-.34A1.16,1.16,0,0,1,43,33.9Z" transform="translate(-1.95)"/><g class="cls-8"><path class="cls-10" d="M46.47,24.26a1.25,1.25,0,0,1,.41.14,1.26,1.26,0,0,1,.33.28,1,1,0,0,1,.18.4A1.06,1.06,0,0,1,47,26.25a1.38,1.38,0,0,1-.39.18A1.13,1.13,0,0,1,45.44,26a1.17,1.17,0,0,1-.22-.83,1.12,1.12,0,0,1,.14-.4,1.54,1.54,0,0,1,.28-.34,1.17,1.17,0,0,1,.83-.21Z" transform="translate(-1.95)"/><g class="cls-8"><path class="cls-10" d="M39.41,26.69a1.17,1.17,0,0,1,.41.14,1.29,1.29,0,0,1,.33.28,1.14,1.14,0,0,1,.19.4,1,1,0,0,1,0,.43,1.21,1.21,0,0,1-.42.74,1.44,1.44,0,0,1-.4.18,1.14,1.14,0,0,1-1.17-.39,1.22,1.22,0,0,1-.22-.83,1,1,0,0,1,.15-.4,1.13,1.13,0,0,1,.28-.34,1.15,1.15,0,0,1,.82-.21Z" transform="translate(-1.95)"/><g class="cls-8"><path class="cls-10" d="M24,58.32a1.05,1.05,0,0,1,.41.14,1.26,1.26,0,0,1,.33.28,1.18,1.18,0,0,1,.19.39,1.25,1.25,0,0,1,0,.43,1.22,1.22,0,0,1-.43.75,1.38,1.38,0,0,1-.39.18A1.14,1.14,0,0,1,23,60.1a1.18,1.18,0,0,1-.22-.83,1.07,1.07,0,0,1,.15-.41,1.1,1.1,0,0,1,.28-.33,1.13,1.13,0,0,1,.82-.21Z" transform="translate(-1.95)"/><g class="cls-8"><path class="cls-10" d="M16.86,52.88a1.12,1.12,0,0,1,.4.14,1.54,1.54,0,0,1,.34.28,1.44,1.44,0,0,1,.18.4,1,1,0,0,1,0,.43,1.16,1.16,0,0,1-.42.74,1.44,1.44,0,0,1-.4.18,1.09,1.09,0,0,1-1.38-1.21,1.11,1.11,0,0,1,.14-.41,1.3,1.3,0,0,1,.28-.34,1.16,1.16,0,0,1,.83-.21Z" transform="translate(-1.95)"/></g></g></g></g></g></g></g></g></g><path class="cls-11" d="M45.18,25.24a1.17,1.17,0,1,1,1,1.31,1.18,1.18,0,0,1-1-1.31Z" transform="translate(-1.95)"/><path class="cls-11" d="M38.13,27.69a1.16,1.16,0,0,1,2.31.3,1.16,1.16,0,1,1-2.31-.3Z" transform="translate(-1.95)"/><path class="cls-11" d="M41.65,34.83a1.16,1.16,0,1,1,1,1.31,1.18,1.18,0,0,1-1-1.31Z" transform="translate(-1.95)"/><path class="cls-11" d="M22.69,59.27a1.17,1.17,0,1,1,1,1.31,1.18,1.18,0,0,1-1-1.31Z" transform="translate(-1.95)"/><path class="cls-11" d="M20.88,47.71a4.52,4.52,0,1,1,3.89,5.08,4.52,4.52,0,0,1-3.89-5.08Z" transform="translate(-1.95)"/><path class="cls-11" d="M27,35.08a3.42,3.42,0,1,1,2.94,3.83A3.42,3.42,0,0,1,27,35.08Z" transform="translate(-1.95)"/><path class="cls-11" d="M15.53,53.84a1.16,1.16,0,1,1,1,1.31,1.18,1.18,0,0,1-1-1.31Z" transform="translate(-1.95)"/><path class="cls-12" d="M320.14,24.14c4-2.78,3.62-8.25,3-12.61C321.57,1.44,312.25-1.38,303.18.59c-20.24,4.39-36.6,21.23-52.79,33a134.1,134.1,0,0,1-60.24,24.83A130.37,130.37,0,0,1,158,59c-11.62-1.25-23-4.18-34.69-5.12a75,75,0,0,0-54,17.16C57.7,80.69,45.27,95.92,46.54,111.9c.75,9.48,13,8.74,20.11,9a174.42,174.42,0,0,0,36.27-2.83c23.7-4.1,46.68-11.46,70.18-16.47,54.21-11.56,110-10.12,164.2.69-.16,0,.51-5-.13-5.19C299,87,259.31,84.21,220,87.41a387.08,387.08,0,0,0-58.11,9.33c-19.07,4.53-37.94,10-57.26,13.4a187.24,187.24,0,0,1-31.6,3.1,115.2,115.2,0,0,1-16.81-1c-3.93-.56-9-1.73-9.53-6.53l.13,7.18c1-9.35,8.35-19.25,14.43-26.08A76.17,76.17,0,0,1,84.1,69.37a72.78,72.78,0,0,1,27.69-7.6c12-.76,23.81,1.9,35.57,3.91,22.18,3.79,44.66,2.53,66-4.69,21.91-7.38,38.82-21.19,57-34.91,9.47-7.16,19.84-14.42,31.4-17.7,5.32-1.51,11.62-2.1,16.47,1.11a11.66,11.66,0,0,1,4.22,5.1c.95,2.09-.13,4-2.41,6.18-.52.5.52,3.07.08,3.37Z" transform="translate(-1.95)"/></g></g></svg>