<svg xmlns="http://www.w3.org/2000/svg" xmlns:xlink="http://www.w3.org/1999/xlink" viewBox="0 0 375 195.04"><defs><style>.cls-1,.cls-2,.cls-5{fill:none;}.cls-1{clip-rule:evenodd;}.cls-10,.cls-11,.cls-2,.cls-3,.cls-4,.cls-7,.cls-8,.cls-9{fill-rule:evenodd;}.cls-12,.cls-3{fill:#fff;}.cls-4{fill:#e9bd9a;}.cls-5{stroke:#1d1e1c;stroke-miterlimit:8;stroke-width:3px;}.cls-6{clip-path:url(#clip-path);}.cls-7{fill:#f3a28d;}.cls-8{fill:#159f84;opacity:0.57;}.cls-9{fill:#bc8380;}.cls-11{fill:#efa289;}</style><clipPath id="clip-path" transform="translate(-3.71 -18.56)"><polygon class="cls-1" points="31.73 0 0 59.87 61.26 92.34 92.99 32.47 31.73 0 31.73 0"/></clipPath></defs><g id="Слой_2" data-name="Слой 2"><g id="Слой_1-2" data-name="Слой 1"><path class="cls-3" d="M75.42,24.91a17.85,17.85,0,0,1,7.85,22.47,17.14,17.14,0,0,1-9.54,9.28,18,18,0,0,1-13.94-.27c-6-2.61-13.15.15-20.15,7.78a17.85,17.85,0,0,1-22.07,3.27,18.16,18.16,0,0,1-3.2-2.3,17.89,17.89,0,0,1-6-12.53,17.15,17.15,0,0,1,4.51-12.54C38.73,11.89,66,20.67,73.67,24a17.81,17.81,0,0,1,1.75.87Z" transform="translate(-3.71 -18.56)"/><path class="cls-4" d="M75.42,24.91a17.85,17.85,0,0,1,7.85,22.47,17.17,17.17,0,0,1-9.54,9.28,18,18,0,0,1-13.94-.27c-6-2.61-13.15.15-20.15,7.78a17.85,17.85,0,0,1-22.07,3.27,18.16,18.16,0,0,1-3.2-2.3,17.89,17.89,0,0,1-6-12.53,17.15,17.15,0,0,1,4.51-12.54C38.73,11.89,66,20.67,73.67,24a17.81,17.81,0,0,1,1.75.87Z" transform="translate(-3.71 -18.56)"/><path class="cls-5" d="M75.42,24.91a17.85,17.85,0,0,1,7.85,22.47,17.17,17.17,0,0,1-9.54,9.28,18,18,0,0,1-13.94-.27c-6-2.61-13.15.15-20.15,7.78a17.85,17.85,0,0,1-22.07,3.27,18.16,18.16,0,0,1-3.2-2.3,17.89,17.89,0,0,1-6-12.53,17.15,17.15,0,0,1,4.51-12.54C38.73,11.89,66,20.67,73.67,24a17.81,17.81,0,0,1,1.75.87Z" transform="translate(-3.71 -18.56)"/><g class="cls-6"><path class="cls-7" d="M71.85,30.32A11.84,11.84,0,0,1,77.13,45.2a11.21,11.21,0,0,1-6.24,6.06,12.05,12.05,0,0,1-9.32-.19c-4.7-2-14.3-3.62-25.76,8.85A12,12,0,0,1,21.14,62,12.7,12.7,0,0,1,19,60.49a12,12,0,0,1-4-8.34,11.19,11.19,0,0,1,3-8.19C40.55,19.29,64,26.83,70.66,29.72a13.25,13.25,0,0,1,1.19.6Z" transform="translate(-3.71 -18.56)"/><g class="cls-6"><path class="cls-8" d="M27.87,45.73a4.38,4.38,0,1,1,1.65,6,4.37,4.37,0,0,1-1.65-6Z" transform="translate(-3.71 -18.56)"/><g class="cls-6"><path class="cls-9" d="M63.94,39.77a3.28,3.28,0,1,1,1.24,4.47,3.29,3.29,0,0,1-1.24-4.47Z" transform="translate(-3.71 -18.56)"/><g class="cls-6"><path class="cls-8" d="M38.15,36.47a3.28,3.28,0,1,1,1.24,4.47,3.28,3.28,0,0,1-1.24-4.47Z" transform="translate(-3.71 -18.56)"/><g class="cls-6"><path class="cls-8" d="M53.09,41.17a1.22,1.22,0,0,1,.32.28,1.25,1.25,0,0,1,.2.38,1.23,1.23,0,0,1,0,.43.94.94,0,0,1-.13.4,1.11,1.11,0,0,1-.66.52,1.19,1.19,0,0,1-.42,0,1.12,1.12,0,0,1-.93-.79,1.15,1.15,0,0,1,.11-.83,1.22,1.22,0,0,1,.28-.32,1.25,1.25,0,0,1,.38-.2,1.14,1.14,0,0,1,.83.11Z" transform="translate(-3.71 -18.56)"/><g class="cls-6"><path class="cls-8" d="M59.85,33.68a1.08,1.08,0,0,1,.32.28,1.07,1.07,0,0,1,.2.38,1.21,1.21,0,0,1-.11.83,1.16,1.16,0,0,1-.65.52,1.25,1.25,0,0,1-.43,0,1.08,1.08,0,0,1-.82-1.62,1.22,1.22,0,0,1,.28-.32,1.07,1.07,0,0,1,.38-.2,1.14,1.14,0,0,1,.83.11Z" transform="translate(-3.71 -18.56)"/><g class="cls-6"><path class="cls-8" d="M52.52,33.3a1,1,0,0,1,.32.28A1.07,1.07,0,0,1,53,34a1,1,0,0,1,0,.42,1,1,0,0,1-.78.93,1.25,1.25,0,0,1-.43,0A1.08,1.08,0,0,1,51,33.71a1.08,1.08,0,0,1,.28-.32,1.16,1.16,0,0,1,.38-.2,1.14,1.14,0,0,1,.83.11Z" transform="translate(-3.71 -18.56)"/><g class="cls-6"><path class="cls-8" d="M26.82,56.45a1.22,1.22,0,0,1,.32.28,1.54,1.54,0,0,1,.2.38,1.25,1.25,0,0,1,0,.43,1.09,1.09,0,0,1-.79.92,1.49,1.49,0,0,1-.42,0,1.08,1.08,0,0,1-.82-1.62,1,1,0,0,1,.28-.32,1.07,1.07,0,0,1,.38-.2,1.14,1.14,0,0,1,.83.1Z" transform="translate(-3.71 -18.56)"/><g class="cls-6"><path class="cls-8" d="M22.32,48.87a1,1,0,0,1,.31.28,1.28,1.28,0,0,1,.21.38,1.23,1.23,0,0,1,0,.43,1.11,1.11,0,0,1-.13.4,1.14,1.14,0,0,1-.66.52,1.25,1.25,0,0,1-.43,0,1.09,1.09,0,0,1-.92-.79,1.2,1.2,0,0,1,.1-.83,1.26,1.26,0,0,1,.29-.32,1.11,1.11,0,0,1,.37-.2,1.17,1.17,0,0,1,.84.11Z" transform="translate(-3.71 -18.56)"/></g></g></g></g></g></g></g></g></g><path class="cls-9" d="M58.32,34.1a1.14,1.14,0,1,1,.43,1.56,1.14,1.14,0,0,1-.43-1.56Z" transform="translate(-3.71 -18.56)"/><path class="cls-9" d="M51,33.74a1.14,1.14,0,1,1,.43,1.56A1.14,1.14,0,0,1,51,33.74Z" transform="translate(-3.71 -18.56)"/><path class="cls-9" d="M51.57,41.54A1.14,1.14,0,1,1,52,43.1a1.14,1.14,0,0,1-.43-1.56Z" transform="translate(-3.71 -18.56)"/><path class="cls-9" d="M25.29,56.85a1.14,1.14,0,1,1,.43,1.56,1.14,1.14,0,0,1-.43-1.56Z" transform="translate(-3.71 -18.56)"/><path class="cls-9" d="M27.89,45.64a4.45,4.45,0,1,1,1.67,6.07,4.45,4.45,0,0,1-1.67-6.07Z" transform="translate(-3.71 -18.56)"/><path class="cls-9" d="M38.1,36.37A3.36,3.36,0,1,1,39.37,41a3.36,3.36,0,0,1-1.27-4.58Z" transform="translate(-3.71 -18.56)"/><path class="cls-9" d="M20.76,49.26a1.14,1.14,0,1,1,.43,1.56,1.14,1.14,0,0,1-.43-1.56Z" transform="translate(-3.71 -18.56)"/><path class="cls-10" d="M322.59,213.54c-2.28-.38-4.15-2.65-5.82-4.45s-2.78-4.13-4.16-6.33-3.39-5.3-4.09-6.85-.38-1.82-.06-2.45.25-.24,2-1.29,6.59-4.22,8.47-5,1.93-.5,2.83.2,2.19,4.7,2.6,4-1.21-6-.17-8.29,3.79-4.14,6.43-5.52,6.63-3.2,9.41-2.76,6,4.27,7.26,5.4c-.14-2.56-.9-6.06.25-8.23s4.26-3.38,6.63-4.75a39.08,39.08,0,0,1,7.6-3.45,6.28,6.28,0,0,1,4.4.18c1.15.47,1.75,1.25,3.13,2.72s3.32,4.87,4.69,6.9c1.25,2.79,4.15,5.88,4.59,7.77s-.12,1.64-1.33,2.71a50.89,50.89,0,0,1-5.94,3.69,24.82,24.82,0,0,1-4,2.06c-1,.3-1.16.34-1.87-.27s-2-3.6-2.36-3.42.38,3.09.3,4.5a9.59,9.59,0,0,1-.79,3.91,9.27,9.27,0,0,1-2.92,3.28,34,34,0,0,1-5.27,2.73c-1.63.75-2.92,1.73-4.5,1.78a12.22,12.22,0,0,1-5-1.47c-1.45-.69-3.1-2.45-3.74-2.67s0,.4-.09,1.37.35,3-.22,4.42a9,9,0,0,1-3.24,4,35.05,35.05,0,0,1-7.18,3.5c-2.51.95-5.57,2.53-7.84,2.14Z" transform="translate(-3.71 -18.56)"/><path class="cls-11" d="M374.18,181.76c-2-4-4.88-8.06-5.62-9.4a10.66,10.66,0,0,0-6.28-4.2c-.66,1.86-1.17,6-.75,7.31.83,2.89,3.53,6.54,5.74,10.05,3.72-1.77,0,0,6.91-3.76Z" transform="translate(-3.71 -18.56)"/><path class="cls-11" d="M313.14,195.53a68.39,68.39,0,0,0,5.59,9.61c1.91,2.7,3.68,4.09,6.81,4.18a18.92,18.92,0,0,0,.25-7.49c-1.59-2.79-3.86-6.48-6.07-10-3.72,1.77-.22-.05-6.58,3.7Z" transform="translate(-3.71 -18.56)"/><path class="cls-11" d="M357.86,170.16c.83,0-.73-.71-.49,2.58s1.83,13.59,1.95,17.13-.15,3-1.24,4.17-4.27,2.27-5.32,3,.56.27.29-2.72-1.58-12-1.91-15.22-.27-2.88-.06-3.93a3,3,0,0,1,1.3-2.35c1-.82,4.64-2.68,5.48-2.7Z" transform="translate(-3.71 -18.56)"/><path class="cls-11" d="M335.12,180.22c.75.07-.76-.66-.49,2.58s2,13.23,2.1,16.84-.14,3.53-1.33,4.78a14,14,0,0,1-5.81,2.76c-.85,0,1,.25.72-2.76s-1.88-12.07-2.22-15.27-.06-2.85.14-3.9a4.5,4.5,0,0,1,1.91-2.9c1-.54,4.23-2.21,5-2.13Z" transform="translate(-3.71 -18.56)"/><path class="cls-11" d="M349,198c.75-1-.22-6.7-1-9.15a13.58,13.58,0,0,0-3.64-5.51c-1.53-1.62-4.74-5.06-5.53-4.2s0,6.72.75,9.33a15.17,15.17,0,0,0,3.94,6.4c1.57,1.59,4.73,4.14,5.48,3.13Z" transform="translate(-3.71 -18.56)"/><path class="cls-12" d="M60.5,159.34c6.8,8.79,18.75,12.55,29.33,14.29,11.79,1.93,23.85,1.33,35.63-.31,24.12-3.36,47.31-11.23,71.27-15.37,11.61-2,23.43-3.12,35.21-2.26,12.41.89,24.27,4.59,36.44,6.9,24.35,4.61,46.75-2.35,68.36-13.39,5-2.57,10-5.31,14.9-8.09,4.62-2.62,10.15-5.14,13.33-9.6,3.31-4.65,3.54-15.31-.11-19.87-3.18-4-9.58-6-14.05-8-5.66-2.54-11.44-4.81-17.27-6.94-11.89-4.33-24-8.16-36-12-24.42-7.67-49.1-15.23-74.18-20.41-24.45-5.06-48.57-5.47-71.32,5.94-11,5.53-21.22,12.55-32,18.47s-23.58,12.36-36.23,9.54c-6.7-1.5-12.89-4.65-19.62-6.05a63.14,63.14,0,0,0-19.59-.76C30.14,93,17.06,98.57,4,104.38c-.71.32.43,5.35.13,5.44,12.08-3.75,24.53-7.56,37.09-9.23a69.5,69.5,0,0,1,17.88-.23c6.67.85,12.71,3.27,19,5.5,5.74,2,11.31,3.3,17.41,2.25,5.8-1,11.46-3.35,16.76-5.83,10.19-4.77,19.59-11,29.27-16.68,10.07-5.91,20.55-11.24,32.05-13.7,12.79-2.74,26-2.19,38.89-.23,25.78,3.92,51.25,11.9,76.1,19.62,14,4.35,28,8.87,41.76,13.83,7,2.52,14,5.23,20.78,8.33,3.24,1.48,6.55,3,9.63,4.74a24.9,24.9,0,0,1,2.4,1.52c.53.4,3.4,2.78,3.42,3.23l.06-6.14c-1.3,9.43-14.93,14.74-22.15,18.86-9.33,5.32-18.9,10.34-29,14a91.36,91.36,0,0,1-30.74,5.89c-11.22,0-22.09-2.92-33-5.35-21.24-4.75-41.85-3.68-63.06.71s-41.91,11-63.38,14c-11.49,1.65-23.24,2.3-34.77.58C80.33,164,67.9,160.75,60.35,153.34c.8.78-.81,4.76.15,6Z" transform="translate(-3.71 -18.56)"/></g></g></svg>