<svg xmlns="http://www.w3.org/2000/svg" xmlns:xlink="http://www.w3.org/1999/xlink" viewBox="0 0 1497.04 231.07"><defs><style>.cls-1{stroke:#fff;stroke-miterlimit:8;stroke-width:6px;fill:url(#Безымянный_градиент_47);}.cls-2{fill:#86919e;}.cls-3{fill:#fce49d;}.cls-4{fill:#84eaf5;}.cls-5{fill:#13adc1;}.cls-6{fill:#feda5f;}.cls-7{fill:#f4c84e;}.cls-8{fill:#f0a8d0;}.cls-9{fill:#ea89bf;}.cls-10{fill:#ebd2ff;}.cls-10,.cls-11,.cls-12,.cls-13,.cls-14,.cls-15,.cls-17,.cls-18,.cls-19,.cls-20,.cls-21,.cls-22,.cls-23,.cls-24,.cls-25,.cls-26,.cls-27{fill-rule:evenodd;}.cls-11{fill:#d7bef0;}.cls-12{fill:#d09080;}.cls-13{fill:#ff6978;}.cls-14{fill:#ccf49f;}.cls-15{fill:#ecf4ff;}.cls-16,.cls-20{fill:#477b9e;}.cls-17{fill:#ffcbbe;}.cls-18{fill:#ffe5a0;}.cls-19{fill:#d8a595;}.cls-21{fill:#365e7d;}.cls-22{fill:#f7beaf;}.cls-23{fill:#be694f;}.cls-24{fill:#f2ce7e;}.cls-25{fill:#cf4351;}.cls-26{fill:#b3e59f;}.cls-27{fill:#ddeafb;}</style><radialGradient id="Безымянный_градиент_47" cx="748.52" cy="115.54" r="722.06" gradientUnits="userSpaceOnUse"><stop offset="0" stop-color="#b4b8d4"/><stop offset="0.27" stop-color="#acb1d1"/><stop offset="0.7" stop-color="#969ec7"/><stop offset="0.99" stop-color="#838ebf"/></radialGradient></defs><g id="Слой_2" data-name="Слой 2"><g id="Слой_1-2" data-name="Слой 1"><path class="cls-1" d="M1494,20.55a34.73,34.73,0,0,1-6.58-5.18,34.84,34.84,0,0,0-49.28-.06,34.86,34.86,0,0,1-49.29-.06,34.84,34.84,0,0,0-49.28-.06,34.84,34.84,0,0,1-49.28-.06,34.85,34.85,0,0,0-49.28-.06,34.86,34.86,0,0,1-49.29-.05,34.83,34.83,0,0,0-49.28-.06,34.85,34.85,0,0,1-49.28-.06,34.86,34.86,0,0,0-49.29-.06,34.84,34.84,0,0,1-49.28-.06,34.85,34.85,0,0,0-49.28-.06c-13.63,13.6-34.75,14.32-48.93-.47C883.36.62,860.77.6,847.14,14.19a34.84,34.84,0,0,1-49.28-.06C784.26.51,763,1.44,748.57,14.07c-17,14.84-35.8,13.91-49.39.28a34.84,34.84,0,0,0-49.28,0c-13.63,13.59-36.22,13.57-49.29-.06-14.17-14.8-35.3-14.07-48.92-.48a34.85,34.85,0,0,1-49.29-.06,34.84,34.84,0,0,0-49.28,0,34.85,34.85,0,0,1-49.28-.06,34.84,34.84,0,0,0-49.28-.06,34.86,34.86,0,0,1-49.29-.06A34.85,34.85,0,0,0,256,13.41a34.84,34.84,0,0,1-49.28-.06,34.85,34.85,0,0,0-49.28-.06,34.86,34.86,0,0,1-49.29,0,34.83,34.83,0,0,0-49.28-.06,34.85,34.85,0,0,1-49.28-.06A34.64,34.64,0,0,0,3,7.94V210.53a34.64,34.64,0,0,1,6.58,5.18,34.85,34.85,0,0,0,49.28.06,34.84,34.84,0,0,1,49.28,0,34.85,34.85,0,0,0,49.29.06,34.85,34.85,0,0,1,49.28.06A34.84,34.84,0,0,0,256,216a34.86,34.86,0,0,1,49.29.06,34.85,34.85,0,0,0,49.28.06,34.83,34.83,0,0,1,49.28.06,34.84,34.84,0,0,0,49.28,0,34.86,34.86,0,0,1,49.29.06,34.84,34.84,0,0,0,49.28.06c13.62-13.59,34.75-14.32,48.93.48,13.06,13.63,35.65,13.65,49.28,0a34.85,34.85,0,0,1,49.28.06c13.59,13.63,32.43,14.56,49.4-.28,14.44-12.64,35.69-13.56,49.28.06a34.84,34.84,0,0,0,49.28.06c13.63-13.59,36.22-13.58,49.28.06,14.18,14.79,35.31,14.06,48.93.47a34.85,34.85,0,0,1,49.28.06,34.86,34.86,0,0,0,49.29.06,34.84,34.84,0,0,1,49.28.06,34.85,34.85,0,0,0,49.28.06,34.84,34.84,0,0,1,49.28,0,34.85,34.85,0,0,0,49.29.06,34.85,34.85,0,0,1,49.28.06,34.84,34.84,0,0,0,49.28.06,34.84,34.84,0,0,1,49.28.06,34.86,34.86,0,0,0,49.29.06,34.83,34.83,0,0,1,49.28.06,35.13,35.13,0,0,0,6.58,5.18Z"/><path class="cls-2" d="M1222.48,85.49v6.35a2.28,2.28,0,0,0,2.28,2.28h5.13a2.28,2.28,0,0,0,2.28-2.28V85.49a2.29,2.29,0,0,0-2.28-2.28h-5.13A2.29,2.29,0,0,0,1222.48,85.49Z"/><path class="cls-3" d="M1255.45,82.43a2.37,2.37,0,0,1-1.24-.36l-5-3.14a2.36,2.36,0,0,1,2.5-4l5,3.14a2.36,2.36,0,0,1-1.26,4.36Z"/><path class="cls-3" d="M1251.06,48.48a2.33,2.33,0,0,1-2-1.11,2.35,2.35,0,0,1,.75-3.25l5-3.14a2.36,2.36,0,1,1,2.5,4l-5,3.14A2.38,2.38,0,0,1,1251.06,48.48Z"/><path class="cls-3" d="M1261.12,63.88h-6.29a2.36,2.36,0,1,1,0-4.71h6.29a2.36,2.36,0,0,1,0,4.71Z"/><path class="cls-3" d="M1199.19,82.43a2.36,2.36,0,0,1-1.25-4.36l5-3.14a2.36,2.36,0,1,1,2.5,4l-5,3.14A2.38,2.38,0,0,1,1199.19,82.43Z"/><path class="cls-3" d="M1203.59,48.48a2.38,2.38,0,0,1-1.25-.36l-5-3.14a2.36,2.36,0,0,1,2.5-4l5,3.14a2.36,2.36,0,0,1-1.25,4.36Z"/><path class="cls-3" d="M1199.82,63.88h-6.29a2.36,2.36,0,1,1,0-4.71h6.29a2.36,2.36,0,1,1,0,4.71Z"/><path class="cls-4" d="M1203.71,110.41l-24.88-41.26a5.93,5.93,0,0,0-8.16-2l-10.81,6.54a6,6,0,0,0-2,8.17l25.57,42.4Z"/><path class="cls-5" d="M1198.14,101.17l-6.44,3.89a2.36,2.36,0,1,1-2.44-4l6.44-3.9Z"/><path class="cls-5" d="M1190.93,89.2l-9.1,5.51a2.36,2.36,0,1,1-2.44-4l9.1-5.5Z"/><path class="cls-5" d="M1183.71,77.24l-6.44,3.89a2.36,2.36,0,1,1-2.44-4l6.44-3.9Z"/><path class="cls-6" d="M1245.84,61.2a18.52,18.52,0,1,0-25.92,17v4.4a4.05,4.05,0,0,0,4,4.06h6.7a4.06,4.06,0,0,0,4.06-4.06v-4.4A18.52,18.52,0,0,0,1245.84,61.2Z"/><path class="cls-3" d="M1280.37,109.25l11.55-19.15-.16-23.83-21.16,11-11.39,18.89Z"/><path class="cls-7" d="M1279.49,86.63h0l-8.88-9.37-21.74,36.12,8,10.85,12.73,3,22.32-37.12Z"/><path class="cls-6" d="M1269.6,127.22l22.32-37.12-12.43-3.47-18.69,30.85Z"/><path class="cls-2" d="M1291.76,66.27l-7.55,3.93,7.61,4.68Z"/><path class="cls-8" d="M1238.33,168.8h30.72a18.15,18.15,0,0,0,1.25-36.26,18,18,0,0,0,.44-4,18.15,18.15,0,0,0-27-15.88,18.16,18.16,0,0,0-33.55,0,18.16,18.16,0,0,0-27,15.88,17.76,17.76,0,0,0,.46,4,18.15,18.15,0,0,0,1.88,36.21Z"/><path class="cls-9" d="M1270.3,132.54a18,18,0,0,0,.44-4,18.14,18.14,0,0,0-25.06-16.79,18.16,18.16,0,0,1,11.23,16.79,18,18,0,0,1-.44,4,18.15,18.15,0,0,1-1.26,36.26h13.84a18.15,18.15,0,0,0,1.25-36.26Z"/><path class="cls-6" d="M1222.09,132.84l17.18.21-9.49,24.51,15.69.41L1212,199.47l11.63-30.67-14.49-.18Z"/><path class="cls-10" d="M224.06,130.93h19.28c6.3,1.89,11.75,5.58,11.75,9.82v25.19H212.31V140.75c0-4.24,5.45-7.93,11.75-9.82Z"/><path class="cls-11" d="M247.85,140.75v25.19h7.24V140.75c0-4.24-5.45-7.93-11.75-9.82H236.1C242.4,132.82,247.85,136.51,247.85,140.75Z"/><path class="cls-12" d="M185.46,164.78h11.4l9.32-1.3,9.23,1.3H252l9.1-1.79,9.46,1.79h11.4v17.45H185.46Z"/><path class="cls-13" d="M159.58,179.05V141.94a8.33,8.33,0,0,1,8.3-8.31H181.6c.24,0,.47,0,.7,0a6.36,6.36,0,0,1,5.7,2.49l11.15,14.78a2.58,2.58,0,0,0,2.29,1.14h14a6.36,6.36,0,1,1,0,12.71H196.86a6.36,6.36,0,0,1-5.07-2.53l-1.88-2.5v22.48H162.76A3.94,3.94,0,0,1,159.58,179.05Z"/><path class="cls-14" d="M307.82,179.05V141.94a8.34,8.34,0,0,0-8.31-8.31h-13.7c-.24,0-.48,0-.71,0a6.35,6.35,0,0,0-5.7,2.49l-11.16,14.78a2.55,2.55,0,0,1-2.28,1.14H252a6.36,6.36,0,1,0,0,12.71h18.56a6.36,6.36,0,0,0,5.07-2.53l1.89-2.5v22.48h27.14A3.94,3.94,0,0,0,307.82,179.05Z"/><path class="cls-15" d="M225.59,95.17H262l9.22,9.22c.73.73,1.57.3,1.57-.66V95.17a8.56,8.56,0,0,0,8.53-8.53V65.1a8.56,8.56,0,0,0-8.53-8.54H225.59a8.57,8.57,0,0,0-8.54,8.54V86.64a8.57,8.57,0,0,0,8.54,8.53Z"/><path class="cls-15" d="M182.93,86.57h38.32a11.36,11.36,0,0,0,11.32-11.33V50.18a11.35,11.35,0,0,0-11.32-11.32H172.14a11.36,11.36,0,0,0-11.33,11.32V75.24a11.36,11.36,0,0,0,11.33,11.32v8.57a.88.88,0,0,0,1.57.65Z"/><path class="cls-16" d="M176,53.12a2.18,2.18,0,0,1,0-4.35h41.4a2.18,2.18,0,1,1,0,4.35Zm0,23.53a2.17,2.17,0,0,1,0-4.34h20.7a2.17,2.17,0,1,1,0,4.34Zm0-11.77a2.17,2.17,0,1,1,0-4.34h41.4a2.17,2.17,0,1,1,0,4.34Z"/><path class="cls-17" d="M245.77,124.49a12.07,12.07,0,0,1-24.14,0V111.56a6.78,6.78,0,0,1,6.76-6.76H244a1.62,1.62,0,0,1,1.8,1.8Z"/><path class="cls-18" d="M221.63,111.56v3.89h24.14V106.6a1.62,1.62,0,0,0-1.8-1.8H228.39A6.78,6.78,0,0,0,221.63,111.56Z"/><path class="cls-17" d="M162.67,124.49a12.07,12.07,0,1,0,24.14,0V111.56a6.78,6.78,0,0,0-6.75-6.76H169.43a6.78,6.78,0,0,0-6.76,6.76Z"/><path class="cls-19" d="M304.73,124.49a12.07,12.07,0,1,1-24.14,0V111.56a6.78,6.78,0,0,1,6.75-6.76H298a6.78,6.78,0,0,1,6.75,6.76Z"/><path class="cls-12" d="M304.73,124.49a12.1,12.1,0,0,1-12.07,12.07A11.72,11.72,0,0,1,289,136a12.15,12.15,0,0,0,8.4-10.34,16.08,16.08,0,0,0,7.28-.75v-.42Z"/><path class="cls-12" d="M186.81,111.56v4.7a9,9,0,0,1-7.82-.71c-1.27-.72-1.49-.72-1.64.44-.45,3.4-2,12.75-14.67,8.92V111.56a6.77,6.77,0,0,1,6.76-6.76h10.63a6.78,6.78,0,0,1,6.75,6.76Z"/><path class="cls-20" d="M280.59,111.56v4.7a9,9,0,0,0,7.83-.71c1.26-.72,1.48-.72,1.63.44.44,3.4,2,12.75,14.67,8.92V111.56A6.78,6.78,0,0,0,298,104.8H287.34a6.78,6.78,0,0,0-6.75,6.76Z"/><path class="cls-21" d="M297.49,111.56v12.93a11.33,11.33,0,0,1-.05,1.17,16.08,16.08,0,0,0,7.28-.75V111.56a6.77,6.77,0,0,0-6.28-6.74,3.77,3.77,0,0,0-.47,0h-7.24a6.78,6.78,0,0,1,6.75,6.76Z"/><path class="cls-22" d="M179.57,124.49A12.13,12.13,0,0,1,171.12,136a12.09,12.09,0,0,0,15.69-11.52v-8.23a9,9,0,0,1-7.24-.4Z"/><path class="cls-23" d="M172.82,104.8a6.77,6.77,0,0,1,6.75,6.76v4.3a9,9,0,0,0,7.24.4v-4.7a6.78,6.78,0,0,0-6.75-6.76Z"/><path class="cls-22" d="M238.53,124.49A12.13,12.13,0,0,1,230.08,136a12.09,12.09,0,0,0,15.69-11.52v-9h-7.24Z"/><path class="cls-24" d="M238.53,106.6v8.85h7.24V106.6a1.62,1.62,0,0,0-1.8-1.8h-7.23A1.62,1.62,0,0,1,238.53,106.6Z"/><path class="cls-25" d="M183.54,151.33a.48.48,0,0,0-.87.29v30.61h7.23V159.75Z"/><path class="cls-26" d="M300.58,141.94v37.11a3.93,3.93,0,0,1-3.17,3.18h7.23a3.94,3.94,0,0,0,3.18-3.18V141.94a8.35,8.35,0,0,0-7.35-8.26,12.05,12.05,0,0,1-2.93,1.84,8.29,8.29,0,0,1,3,6.42Z"/><path class="cls-27" d="M217.14,87.85a8.58,8.58,0,0,0,8.45,7.32H262l9.22,9.22c.73.73,1.57.3,1.57-.66V95.17a8.56,8.56,0,0,0,8.53-8.53V65.1A8.55,8.55,0,0,0,274,56.65a8,8,0,0,1,.09,1.21V79.4a8.57,8.57,0,0,1-8.53,8.54H218.35a9.71,9.71,0,0,1-1.21-.09Z"/><path class="cls-27" d="M225.34,68a11.4,11.4,0,0,1-8.29,10.92,11.27,11.27,0,0,1-3,.41H164.9a11.33,11.33,0,0,1-3.52-.56,11.36,11.36,0,0,0,10.76,7.79v8.57a.88.88,0,0,0,1.57.65l9.22-9.22h38.32a11.35,11.35,0,0,0,11.32-11.32V50.18a11.36,11.36,0,0,0-7.8-10.76,11.14,11.14,0,0,1,.57,3.52V68Z"/><path class="cls-23" d="M270.26,164.78h7.24v17.45h-7.24Z"/></g></g></svg>