<svg xmlns="http://www.w3.org/2000/svg" viewBox="0 0 425.68 425.3"><defs><style>.cls-1{fill:#888eba;}.cls-2,.cls-3{fill:none;stroke-miterlimit:8;stroke-width:9px;}.cls-2{stroke:#cbabc8;}.cls-3{stroke:#fff;}.cls-4{fill:#fbe2cb;}.cls-5{fill:#e4c95c;}.cls-6{fill:#e8f3ff;}.cls-7{fill:#c3cce9;}.cls-8{fill:#fff;}.cls-9{fill:#2d346a;}</style></defs><g id="Слой_2" data-name="Слой 2"><g id="Слой_1-2" data-name="Слой 1"><path class="cls-1" d="M419.56,213c2.36-5,2.1-13-.57-17.57a23,23,0,0,1-1.69-16.8c1.72-4.93.45-12.29-2.75-16a19.84,19.84,0,0,1-3.78-15.24c1.08-4.85-1.11-11.49-4.75-14.46a17.61,17.61,0,0,1-5.67-13.67c.46-4.74-2.55-10.67-6.53-12.9a16.11,16.11,0,0,1-7.35-12.12c-.16-4.59-3.89-9.8-8.11-11.33a15.14,15.14,0,0,1-8.83-10.56A13.16,13.16,0,0,0,360,62.51a14.62,14.62,0,0,1-10.11-9c-1.3-4.19-6.21-8-10.67-8.21a14.4,14.4,0,0,1-11.17-7.43c-1.84-3.93-7.19-7-11.64-6.65a14.39,14.39,0,0,1-12.05-5.87c-2.33-3.64-8-6-12.4-5.09A14.41,14.41,0,0,1,279.29,16c-2.79-3.31-8.75-4.94-13-3.52a13.76,13.76,0,0,1-13.06-2.79c-3.06-2.94-9.33-3.87-13.33-2a14.58,14.58,0,0,1-13.44-1.19C222.93,3.92,217,3.9,213,6.08c-4.65,2.53-9.64,2.55-13.52.44s-10-1.6-13.43,1.17a14.57,14.57,0,0,1-13.34,1.94,12.59,12.59,0,0,0-13.1,2.64,14.51,14.51,0,0,1-13,3.51c-4.3-1.17-10.16.81-12.74,4.29a14.39,14.39,0,0,1-12.42,5.07c-4.42-.63-10,2.07-12.07,5.86a14.38,14.38,0,0,1-11.66,6.64c-4.46,0-9.62,3.36-11.21,7.43a14.53,14.53,0,0,1-10.69,8.21c-4.43.55-9.09,4.68-10.14,9a14.9,14.9,0,0,1-9.52,9.78c-4.32,1.19-8.39,6-8.86,10.56A15.61,15.61,0,0,1,39.19,94c-4.12,1.87-7.52,7.45-7.38,12.13A16.84,16.84,0,0,1,25.24,119c-3.83,2.59-6.45,8.89-5.69,13.7a18.73,18.73,0,0,1-4.78,14.48c-3.44,3.34-5.2,10.36-3.81,15.27a21.42,21.42,0,0,1-2.78,16.05c-3,4.13-3.75,11.87-1.72,16.84S8.18,208,5.87,213"/><path class="cls-2" d="M419.56,213c2.36-5,2.1-13-.57-17.57a23,23,0,0,1-1.69-16.8c1.72-4.93.45-12.29-2.75-16a19.84,19.84,0,0,1-3.78-15.24c1.08-4.85-1.11-11.49-4.75-14.46a17.61,17.61,0,0,1-5.67-13.67c.46-4.74-2.55-10.67-6.53-12.9a16.11,16.11,0,0,1-7.35-12.12c-.16-4.59-3.89-9.8-8.11-11.33a15.14,15.14,0,0,1-8.83-10.56A13.16,13.16,0,0,0,360,62.51a14.62,14.62,0,0,1-10.11-9c-1.3-4.19-6.21-8-10.67-8.21a14.4,14.4,0,0,1-11.17-7.43c-1.84-3.93-7.19-7-11.64-6.65a14.39,14.39,0,0,1-12.05-5.87c-2.33-3.64-8-6-12.4-5.09A14.41,14.41,0,0,1,279.29,16c-2.79-3.31-8.75-4.94-13-3.52a13.76,13.76,0,0,1-13.06-2.79c-3.06-2.94-9.33-3.87-13.33-2a14.58,14.58,0,0,1-13.44-1.19C222.93,3.92,217,3.9,213,6.08c-4.65,2.53-9.64,2.55-13.52.44s-10-1.6-13.43,1.17a14.57,14.57,0,0,1-13.34,1.94,12.59,12.59,0,0,0-13.1,2.64,14.51,14.51,0,0,1-13,3.51c-4.3-1.17-10.16.81-12.74,4.29a14.39,14.39,0,0,1-12.42,5.07c-4.42-.63-10,2.07-12.07,5.86a14.38,14.38,0,0,1-11.66,6.64c-4.46,0-9.62,3.36-11.21,7.43a14.53,14.53,0,0,1-10.69,8.21c-4.43.55-9.09,4.68-10.14,9a14.9,14.9,0,0,1-9.52,9.78c-4.32,1.19-8.39,6-8.86,10.56A15.61,15.61,0,0,1,39.19,94c-4.12,1.87-7.52,7.45-7.38,12.13A16.84,16.84,0,0,1,25.24,119c-3.83,2.59-6.45,8.89-5.69,13.7a18.73,18.73,0,0,1-4.78,14.48c-3.44,3.34-5.2,10.36-3.81,15.27a21.42,21.42,0,0,1-2.78,16.05c-3,4.13-3.75,11.87-1.72,16.84S8.18,208,5.87,213"/><path class="cls-1" d="M419.9,212.19c-2.31,5-2.57,12.68-.6,17.63s1.24,12.72-1.72,16.85a21.48,21.48,0,0,0-2.79,16.07c1.39,4.91-.37,11.93-3.81,15.27a18.74,18.74,0,0,0-4.79,14.49c.75,4.82-1.87,11.12-5.71,13.71a16.88,16.88,0,0,0-6.57,12.92c.13,4.68-3.27,10.25-7.39,12.13a15.64,15.64,0,0,0-8.15,11.35c-.47,4.51-4.55,9.37-8.87,10.56A14.91,14.91,0,0,0,360,363c-1.05,4.31-5.71,8.44-10.15,9a14.55,14.55,0,0,0-10.7,8.21c-1.59,4.07-6.75,7.48-11.21,7.43a14.41,14.41,0,0,0-11.67,6.64c-2.1,3.79-7.66,6.48-12.08,5.85a14.46,14.46,0,0,0-12.43,5.07c-2.58,3.49-8.44,5.46-12.74,4.29a14.52,14.52,0,0,0-13,3.5,12.58,12.58,0,0,1-13.11,2.64,14.57,14.57,0,0,0-13.34,1.94c-3.39,2.76-9.57,3.29-13.44,1.16s-9.52-1.77-13.48.38a12.83,12.83,0,0,1-13.52-.35,14.58,14.58,0,0,0-13.44-1.19c-4,1.9-10.27,1-13.33-2a13.75,13.75,0,0,0-13.06-2.81c-4.22,1.42-10.18-.2-13-3.53a14.44,14.44,0,0,0-12.71-4.31c-4.37.9-10.07-1.44-12.4-5.09a14.36,14.36,0,0,0-12-5.87c-4.44.34-9.8-2.72-11.63-6.66a14.39,14.39,0,0,0-11.18-7.43c-4.45-.25-9.35-4-10.66-8.22a14.63,14.63,0,0,0-10.1-9,13.16,13.16,0,0,1-9.49-9.78,15.13,15.13,0,0,0-8.82-10.55c-4.22-1.54-8-6.75-8.11-11.34a16.1,16.1,0,0,0-7.34-12.12c-4-2.23-7-8.16-6.53-12.9a17.59,17.59,0,0,0-5.66-13.67c-3.64-3-5.82-9.61-4.74-14.46a19.85,19.85,0,0,0-3.77-15.23c-3.21-3.73-4.48-11.09-2.76-16a22.92,22.92,0,0,0-1.68-16.79c-2.67-4.52-2.93-12.6-.56-17.57"/><path class="cls-2" d="M419.9,212.19c-2.31,5-2.57,12.68-.6,17.63s1.24,12.72-1.72,16.85a21.48,21.48,0,0,0-2.79,16.07c1.39,4.91-.37,11.93-3.81,15.27a18.74,18.74,0,0,0-4.79,14.49c.75,4.82-1.87,11.12-5.71,13.71a16.88,16.88,0,0,0-6.57,12.92c.13,4.68-3.27,10.25-7.39,12.13a15.64,15.64,0,0,0-8.15,11.35c-.47,4.51-4.55,9.37-8.87,10.56A14.91,14.91,0,0,0,360,363c-1.05,4.31-5.71,8.44-10.15,9a14.55,14.55,0,0,0-10.7,8.21c-1.59,4.07-6.75,7.48-11.21,7.43a14.41,14.41,0,0,0-11.67,6.64c-2.1,3.79-7.66,6.48-12.08,5.85a14.46,14.46,0,0,0-12.43,5.07c-2.58,3.49-8.44,5.46-12.74,4.29a14.52,14.52,0,0,0-13,3.5,12.58,12.58,0,0,1-13.11,2.64,14.57,14.57,0,0,0-13.34,1.94c-3.39,2.76-9.57,3.29-13.44,1.16s-9.52-1.77-13.48.38a12.83,12.83,0,0,1-13.52-.35,14.58,14.58,0,0,0-13.44-1.19c-4,1.9-10.27,1-13.33-2a13.75,13.75,0,0,0-13.06-2.81c-4.22,1.42-10.18-.2-13-3.53a14.44,14.44,0,0,0-12.71-4.31c-4.37.9-10.07-1.44-12.4-5.09a14.36,14.36,0,0,0-12-5.87c-4.44.34-9.8-2.72-11.63-6.66a14.39,14.39,0,0,0-11.18-7.43c-4.45-.25-9.35-4-10.66-8.22a14.63,14.63,0,0,0-10.1-9,13.16,13.16,0,0,1-9.49-9.78,15.13,15.13,0,0,0-8.82-10.55c-4.22-1.54-8-6.75-8.11-11.34a16.1,16.1,0,0,0-7.34-12.12c-4-2.23-7-8.16-6.53-12.9a17.59,17.59,0,0,0-5.66-13.67c-3.64-3-5.82-9.61-4.74-14.46a19.85,19.85,0,0,0-3.77-15.23c-3.21-3.73-4.48-11.09-2.76-16a22.92,22.92,0,0,0-1.68-16.79c-2.67-4.52-2.93-12.6-.56-17.57"/><path class="cls-3" d="M419.56,213c2.36-5,2.1-13-.57-17.57a23,23,0,0,1-1.69-16.8c1.72-4.93.45-12.29-2.75-16a19.84,19.84,0,0,1-3.78-15.24c1.08-4.85-1.11-11.49-4.75-14.46a17.61,17.61,0,0,1-5.67-13.67c.46-4.74-2.55-10.67-6.53-12.9a16.11,16.11,0,0,1-7.35-12.12c-.16-4.59-3.89-9.8-8.11-11.33a15.14,15.14,0,0,1-8.83-10.56A13.16,13.16,0,0,0,360,62.51a14.62,14.62,0,0,1-10.11-9c-1.3-4.19-6.21-8-10.67-8.21a14.4,14.4,0,0,1-11.17-7.43c-1.84-3.93-7.19-7-11.64-6.65a14.39,14.39,0,0,1-12.05-5.87c-2.33-3.64-8-6-12.4-5.09A14.41,14.41,0,0,1,279.29,16c-2.79-3.31-8.75-4.94-13-3.52a13.76,13.76,0,0,1-13.06-2.79c-3.06-2.94-9.33-3.87-13.33-2a14.58,14.58,0,0,1-13.44-1.19C222.93,3.92,217,3.9,213,6.08c-4.65,2.53-9.64,2.55-13.52.44s-10-1.6-13.43,1.17a14.57,14.57,0,0,1-13.34,1.94,12.59,12.59,0,0,0-13.1,2.64,14.51,14.51,0,0,1-13,3.51c-4.3-1.17-10.16.81-12.74,4.29a14.39,14.39,0,0,1-12.42,5.07c-4.42-.63-10,2.07-12.07,5.86a14.38,14.38,0,0,1-11.66,6.64c-4.46,0-9.62,3.36-11.21,7.43a14.53,14.53,0,0,1-10.69,8.21c-4.43.55-9.09,4.68-10.14,9a14.9,14.9,0,0,1-9.52,9.78c-4.32,1.19-8.39,6-8.86,10.56A15.61,15.61,0,0,1,39.19,94c-4.12,1.87-7.52,7.45-7.38,12.13A16.84,16.84,0,0,1,25.24,119c-3.83,2.59-6.45,8.89-5.69,13.7a18.73,18.73,0,0,1-4.78,14.48c-3.44,3.34-5.2,10.36-3.81,15.27a21.42,21.42,0,0,1-2.78,16.05c-3,4.13-3.75,11.87-1.72,16.84S8.18,208,5.87,213"/><path class="cls-3" d="M419.9,212.19c-2.31,5-2.57,12.68-.6,17.63s1.24,12.72-1.72,16.85a21.48,21.48,0,0,0-2.79,16.07c1.39,4.91-.37,11.93-3.81,15.27a18.74,18.74,0,0,0-4.79,14.49c.75,4.82-1.87,11.12-5.71,13.71a16.88,16.88,0,0,0-6.57,12.92c.13,4.68-3.27,10.25-7.39,12.13a15.64,15.64,0,0,0-8.15,11.35c-.47,4.51-4.55,9.37-8.87,10.56A14.91,14.91,0,0,0,360,363c-1.05,4.31-5.71,8.44-10.15,9a14.55,14.55,0,0,0-10.7,8.21c-1.59,4.07-6.75,7.48-11.21,7.43a14.41,14.41,0,0,0-11.67,6.64c-2.1,3.79-7.66,6.48-12.08,5.85a14.46,14.46,0,0,0-12.43,5.07c-2.58,3.49-8.44,5.46-12.74,4.29a14.52,14.52,0,0,0-13,3.5,12.58,12.58,0,0,1-13.11,2.64,14.57,14.57,0,0,0-13.34,1.94c-3.39,2.76-9.57,3.29-13.44,1.16s-9.52-1.77-13.48.38a12.83,12.83,0,0,1-13.52-.35,14.58,14.58,0,0,0-13.44-1.19c-4,1.9-10.27,1-13.33-2a13.75,13.75,0,0,0-13.06-2.81c-4.22,1.42-10.18-.2-13-3.53a14.44,14.44,0,0,0-12.71-4.31c-4.37.9-10.07-1.44-12.4-5.09a14.36,14.36,0,0,0-12-5.87c-4.44.34-9.8-2.72-11.63-6.66a14.39,14.39,0,0,0-11.18-7.43c-4.45-.25-9.35-4-10.66-8.22a14.63,14.63,0,0,0-10.1-9,13.16,13.16,0,0,1-9.49-9.78,15.13,15.13,0,0,0-8.82-10.55c-4.22-1.54-8-6.75-8.11-11.34a16.1,16.1,0,0,0-7.34-12.12c-4-2.23-7-8.16-6.53-12.9a17.59,17.59,0,0,0-5.66-13.67c-3.64-3-5.82-9.61-4.74-14.46a19.85,19.85,0,0,0-3.77-15.23c-3.21-3.73-4.48-11.09-2.76-16a22.92,22.92,0,0,0-1.68-16.79c-2.67-4.52-2.93-12.6-.56-17.57"/><circle class="cls-4" cx="214.11" cy="211.01" r="131.17"/><path class="cls-5" d="M338.85,93.83l-3.37.93a6.22,6.22,0,0,0-4.33,4.33l-.93,3.37-.93-3.37A6.19,6.19,0,0,0,325,94.77l-3.38-.94L325,92.9a6.19,6.19,0,0,0,4.32-4.32l.93-3.37.93,3.37a6.19,6.19,0,0,0,4.33,4.32Z"/><path class="cls-5" d="M342.61,259.6l-1.83.51a3.37,3.37,0,0,0-2.34,2.34l-.5,1.82-.5-1.82a3.37,3.37,0,0,0-2.34-2.34l-1.83-.51,1.83-.5a3.37,3.37,0,0,0,2.34-2.34l.5-1.82.5,1.82a3.37,3.37,0,0,0,2.34,2.34Z"/><path class="cls-5" d="M105.74,95.34l-2.31.64a4.22,4.22,0,0,0-3,3l-.64,2.31-.64-2.31a4.23,4.23,0,0,0-3-3l-2.31-.64,2.31-.64a4.23,4.23,0,0,0,3-3l.64-2.31.64,2.31a4.22,4.22,0,0,0,3,3Z"/><path class="cls-5" d="M203.9,95l-.84.23A1.55,1.55,0,0,0,202,96.31l-.23.84-.23-.84a1.57,1.57,0,0,0-1.08-1.08L199.6,95l.84-.23a1.58,1.58,0,0,0,1.08-1.08l.23-.84.23.84a1.57,1.57,0,0,0,1.08,1.08Z"/><path class="cls-5" d="M340.09,216.14l-.84.23a1.55,1.55,0,0,0-1.08,1.07l-.23.84-.23-.84a1.53,1.53,0,0,0-1.08-1.07l-.84-.23.84-.24a1.53,1.53,0,0,0,1.08-1.07l.23-.84.23.84a1.55,1.55,0,0,0,1.08,1.07Z"/><path class="cls-5" d="M92.06,218.28l-.84.24a1.55,1.55,0,0,0-1.08,1.07l-.23.84-.23-.84a1.52,1.52,0,0,0-1.08-1.07l-.84-.24.84-.23A1.52,1.52,0,0,0,89.68,217l.23-.84.23.84a1.55,1.55,0,0,0,1.08,1.07Z"/><path class="cls-5" d="M251.23,95l-.21.06a.4.4,0,0,0-.28.27l-.06.22-.06-.22a.39.39,0,0,0-.27-.27l-.21-.06.21-.06a.39.39,0,0,0,.27-.27l.06-.22.06.22a.4.4,0,0,0,.28.27Z"/><path class="cls-6" d="M298.15,229.36l-41.63-9.05L212.09,232l-44.47-11.66L126,229.36a4.09,4.09,0,0,1-4.85-5L129,191.73l-11.67-34.45L129,122.81l-7.88-32.73a4.1,4.1,0,0,1,4.86-5l41.63,9L212,82.51,256.5,94.17l41.65-9a4.09,4.09,0,0,1,4.86,5l-7.87,32.68L306.8,157.2,295.14,192,303,224.39a4.1,4.1,0,0,1-4.85,5Z"/><path class="cls-7" d="M145,118H279.15v78.5H145Z"/><path class="cls-8" d="M145,196.49,196.62,151l18,45.46,26.16-39.25,38.34,39.25Z"/><circle class="cls-5" cx="222.17" cy="141.63" r="5.71"/><circle class="cls-5" cx="127.9" cy="263.95" r="12.23"/><circle class="cls-5" cx="212.59" cy="263.95" r="12.23"/><circle class="cls-5" cx="297.34" cy="263.95" r="12.23"/><path class="cls-9" d="M344.91,338.78H301.4V287.22a46.47,46.47,0,0,0,38.24,20.13,4.1,4.1,0,0,0,0-8.2,38.21,38.21,0,0,1-34.15-21.07,16.33,16.33,0,1,0-16.35,0,38.2,38.2,0,0,1-68.33,0,16.34,16.34,0,1,0-15.21.65,38.2,38.2,0,0,1-70.67,0,16.32,16.32,0,1,0-13.16.41,38.27,38.27,0,0,1-35.38,23.7,4.1,4.1,0,0,0,0,8.19A46.42,46.42,0,0,0,123.82,292v46.76H80.76a4.1,4.1,0,1,0,0,8.2H344.91a4.1,4.1,0,0,0,0-8.2Zm-55.69-74.84a8.12,8.12,0,1,1,8.12,8.15A8.14,8.14,0,0,1,289.22,263.94ZM255,307.35a46.43,46.43,0,0,0,38.25-20.17v51.6H216.71V287.22A46.47,46.47,0,0,0,255,307.35Zm-50.5-43.41a8.14,8.14,0,1,1,8.16,8.15A8.15,8.15,0,0,1,204.45,263.94Zm-84.69,0a8.14,8.14,0,1,1,8.16,8.15A8.15,8.15,0,0,1,119.76,263.94ZM132,290.42a46.38,46.38,0,0,0,76.49,0v48.4H132Z"/><path class="cls-9" d="M124.71,191.92l-7.59,31.54a8.2,8.2,0,0,0,9.74,9.91l40.68-8.85L211,236a4,4,0,0,0,1,.13,4.06,4.06,0,0,0,1-.13l43.48-11.43,40.67,8.84a8.17,8.17,0,0,0,9.71-9.92l-7.55-31.32,11.27-33.6a4.12,4.12,0,0,0,0-2.62l-11.26-33.35L307,91a8.22,8.22,0,0,0-9.75-9.92L289,82.91a4.1,4.1,0,0,0,1.76,8L299,89.11l-7.87,32.67a4.08,4.08,0,0,0,.11,2.27l11.2,33.17-11.21,33.41a4.17,4.17,0,0,0-.1,2.27L299,225.36l-41.65-9.06a4,4,0,0,0-1.91,0l-43.39,11.41-43.4-11.41a4,4,0,0,0-1.91,0l-41.67,9.06L133,192.69a4,4,0,0,0-.1-2.27l-11.2-33.12,11.2-33.16a4.08,4.08,0,0,0,.1-2.27l-7.85-32.75,41.61,9.06a4.11,4.11,0,0,0,1.91,0L212,86.73l43.43,11.41a4.25,4.25,0,0,0,1.91,0l11.89-2.59a4.1,4.1,0,1,0-1.74-8L256.59,90,213.07,78.52a4.07,4.07,0,0,0-2.08,0L167.5,90,126.81,81.1a8.23,8.23,0,0,0-7.61,2.34A8.14,8.14,0,0,0,117.12,91l7.6,31.6L113.45,156a4.05,4.05,0,0,0,0,2.62Z"/><path class="cls-9" d="M140.87,118v78.46a4.13,4.13,0,0,0,4.1,4.14H279.14a4.11,4.11,0,0,0,4.1-4.14V118a4.06,4.06,0,0,0-4.1-4.1H145A4.09,4.09,0,0,0,140.87,118Zm15,74.4L194.94,158l13.69,34.44Zm66.49,0,19.1-28.7,28,28.7Zm-73.25-70.3H275v64.31l-31.32-32a4.12,4.12,0,0,0-3.28-1.19,4,4,0,0,0-3,1.8l-21.85,32.71-15.13-38.16a4.18,4.18,0,0,0-2.87-2.5,4.08,4.08,0,0,0-3.64.94l-44.85,39.48V122.11Z"/></g></g></svg>