<svg xmlns="http://www.w3.org/2000/svg" xmlns:xlink="http://www.w3.org/1999/xlink" viewBox="0 0 367.21 167.79"><defs><style>.cls-1,.cls-2,.cls-5{fill:none;}.cls-1{clip-rule:evenodd;}.cls-10,.cls-11,.cls-2,.cls-3,.cls-4,.cls-7,.cls-8,.cls-9{fill-rule:evenodd;}.cls-12,.cls-3{fill:#fff;}.cls-4{fill:#e9bd9a;}.cls-5{stroke:#1d1e1c;stroke-miterlimit:8;stroke-width:3px;}.cls-6{clip-path:url(#clip-path);}.cls-7{fill:#f3a28d;}.cls-8{fill:#159f84;opacity:0.57;}.cls-9{fill:#bc8380;}.cls-11{fill:#efa289;}</style><clipPath id="clip-path"><polygon class="cls-1" points="234.18 99.74 241.96 170.01 313.86 162.05 306.08 91.78 234.18 99.74 234.18 99.74"/></clipPath></defs><g id="Слой_2" data-name="Слой 2"><g id="Слой_1-2" data-name="Слой 1"><path class="cls-3" d="M286.49,95.58a18.61,18.61,0,0,1,20,14.77A18,18,0,0,1,303.67,124a18.84,18.84,0,0,1-12.19,8c-6.69,1.27-11.25,7.85-12.81,18.54a18.6,18.6,0,0,1-17.12,15.77,18.83,18.83,0,0,1-4.11-.1,18.63,18.63,0,0,1-12.56-7.26,17.85,17.85,0,0,1-3.47-13.46c5.78-39.52,34.42-47.92,43.06-49.55a17.19,17.19,0,0,1,2-.27Z"/><path class="cls-4" d="M286.49,95.58a18.61,18.61,0,0,1,20,14.77A18,18,0,0,1,303.67,124a18.84,18.84,0,0,1-12.19,8c-6.69,1.27-11.25,7.85-12.81,18.54a18.6,18.6,0,0,1-17.12,15.77,18.83,18.83,0,0,1-4.11-.1,18.63,18.63,0,0,1-12.56-7.26,17.85,17.85,0,0,1-3.47-13.46c5.78-39.52,34.42-47.92,43.06-49.55a17.19,17.19,0,0,1,2-.27Z"/><path class="cls-5" d="M286.49,95.58a18.61,18.61,0,0,1,20,14.77A18,18,0,0,1,303.67,124a18.84,18.84,0,0,1-12.19,8c-6.69,1.27-11.25,7.85-12.81,18.54a18.6,18.6,0,0,1-17.12,15.77,18.83,18.83,0,0,1-4.11-.1,18.63,18.63,0,0,1-12.56-7.26,17.85,17.85,0,0,1-3.47-13.46c5.78-39.52,34.42-47.92,43.06-49.55a17.19,17.19,0,0,1,2-.27Z"/><g class="cls-6"><path class="cls-7" d="M286.58,102.33a12.38,12.38,0,0,1,13.3,9.74,11.74,11.74,0,0,1-1.83,8.9,12.58,12.58,0,0,1-8.16,5.3c-5.25,1-14.46,5.28-17,22.76a12.53,12.53,0,0,1-11.42,10.44,13.51,13.51,0,0,1-2.77-.07,12.44,12.44,0,0,1-8.38-4.82,11.7,11.7,0,0,1-2.27-8.79c5.07-34.59,29.73-41.86,37.17-43.27a12.54,12.54,0,0,1,1.37-.19Z"/><g class="cls-6"><path class="cls-8" d="M257.69,141.45a4.57,4.57,0,1,1,4.93,4.18,4.57,4.57,0,0,1-4.93-4.18Z"/><g class="cls-6"><path class="cls-9" d="M285.31,115.13a3.43,3.43,0,1,1,3.7,3.13,3.43,3.43,0,0,1-3.7-3.13Z"/><g class="cls-6"><path class="cls-8" d="M261.12,127.43a3.43,3.43,0,1,1,3.7,3.13,3.44,3.44,0,0,1-3.7-3.13Z"/><g class="cls-6"><path class="cls-8" d="M276.77,122.71a1.09,1.09,0,0,1,.44.06,1.25,1.25,0,0,1,.4.2,1.36,1.36,0,0,1,.27.36,1.25,1.25,0,0,1,.12.43,1.2,1.2,0,0,1-.26.83,1.22,1.22,0,0,1-.36.27,1.16,1.16,0,0,1-1.26-.14,1.22,1.22,0,0,1-.39-.78,1.09,1.09,0,0,1,0-.44,1.33,1.33,0,0,1,.21-.39,1.19,1.19,0,0,1,.78-.4Z"/><g class="cls-6"><path class="cls-8" d="M278.21,112.28a1.35,1.35,0,0,1,.44,0,1.47,1.47,0,0,1,.39.21,1.3,1.3,0,0,1,.4.78,1.23,1.23,0,0,1-.27.84,1.31,1.31,0,0,1-.35.27,1.14,1.14,0,0,1-1.66-.92,1.09,1.09,0,0,1,.06-.44,1,1,0,0,1,1-.79Z"/><g class="cls-6"><path class="cls-8" d="M271.66,116.25a1.09,1.09,0,0,1,.44.06,1.23,1.23,0,0,1,.39.21,1,1,0,0,1,.27.35,1.08,1.08,0,0,1,.13.43,1.18,1.18,0,0,1-.26.83,1.54,1.54,0,0,1-.36.27,1.16,1.16,0,0,1-1.26-.14,1.23,1.23,0,0,1-.4-.78,1.09,1.09,0,0,1,.06-.44,1.06,1.06,0,0,1,.21-.39,1.19,1.19,0,0,1,.78-.4Z"/><g class="cls-6"><path class="cls-8" d="M263.08,151.32a1.3,1.3,0,0,1,.44.05,1.53,1.53,0,0,1,.4.21,1.22,1.22,0,0,1,.27.36,1,1,0,0,1,.12.42,1.08,1.08,0,0,1-.62,1.11,1.18,1.18,0,0,1-1.26-.14,1.22,1.22,0,0,1-.39-.78,1.3,1.3,0,0,1,0-.44,1.53,1.53,0,0,1,.21-.4,1.22,1.22,0,0,1,.78-.39Z"/><g class="cls-6"><path class="cls-8" d="M254.74,147.42a1.09,1.09,0,0,1,.44.06,1.16,1.16,0,0,1,.4.2,1.36,1.36,0,0,1,.27.36,1.26,1.26,0,0,1,.13.43,1.2,1.2,0,0,1-.27.83,1.31,1.31,0,0,1-.35.27,1.16,1.16,0,0,1-1.26-.14,1.19,1.19,0,0,1-.4-.78,1.09,1.09,0,0,1,.06-.44,1.11,1.11,0,0,1,.2-.39,1.21,1.21,0,0,1,.78-.4Z"/></g></g></g></g></g></g></g></g></g><path class="cls-9" d="M277.13,113.54a1.19,1.19,0,1,1,1.29,1.1,1.2,1.2,0,0,1-1.29-1.1Z"/><path class="cls-9" d="M270.59,117.53a1.19,1.19,0,1,1,1.29,1.1,1.19,1.19,0,0,1-1.29-1.1Z"/><path class="cls-9" d="M275.68,123.93a1.19,1.19,0,0,1,2.38-.2,1.19,1.19,0,0,1-2.38.2Z"/><path class="cls-9" d="M262,152.56a1.2,1.2,0,0,1,1.09-1.29,1.19,1.19,0,1,1-1.09,1.29Z"/><path class="cls-9" d="M257.65,141.36a4.65,4.65,0,1,1,5,4.25,4.65,4.65,0,0,1-5-4.25Z"/><path class="cls-9" d="M261,127.37a3.51,3.51,0,1,1,3.78,3.21,3.51,3.51,0,0,1-3.78-3.21Z"/><path class="cls-9" d="M253.63,148.67a1.18,1.18,0,0,1,1.09-1.29,1.2,1.2,0,0,1,1.29,1.09,1.19,1.19,0,0,1-2.38.2Z"/><path class="cls-10" d="M28.21,48.19C25.42,46.74,23.94,43,22.53,40s-1.88-6.52-2.74-9.94-2.19-8.28-2.44-10.58.26-2.52.94-3.2.42-.22,3.12-.85,10.29-2.71,13.07-3,2.7.16,3.58,1.44.88,7,1.7,6.25S40.7,11.88,43,9.34s6.64-3.79,10.63-4.48S63.57,3.48,67,5.22s6,8.05,7.15,10C75,11.88,75.51,7,77.9,4.7s6.93-2.61,10.58-3.39A53,53,0,0,1,99.77,0a8.48,8.48,0,0,1,5.62,2.07c1.3,1.09,1.75,2.35,2.91,4.83s2.28,7.69,3.2,10.9c.45,4.13,2.92,9.35,2.7,12s-.83,2.08-2.85,2.95-6.72,1.76-9.24,2.3a33.32,33.32,0,0,1-6.06,1c-1.39,0-1.65,0-2.3-1.14s-1.12-5.5-1.64-5.41-.8,4.16-1.49,6A13,13,0,0,1,88,40.19a12.76,12.76,0,0,1-5.15,3,46.2,46.2,0,0,1-8,1.33c-2.42.3-4.5,1-6.57.43S64,42.5,62.44,41s-3-4.47-3.74-5-.22.5-.69,1.73-.8,4.06-2.13,5.63A12.15,12.15,0,0,1,50,47.15a47.88,47.88,0,0,1-10.78,1.54c-3.63.17-8.26,1-11-.5Z"/><path class="cls-11" d="M108.32,28.56c-.88-6-3-12.48-3.35-14.53A14.55,14.55,0,0,0,98.59,6c-1.63,2.14-4,7.23-4,9.15-.14,4.1,1.84,10,3.23,15.43,5.56-.74,0,0,10.52-2Z"/><path class="cls-11" d="M23.49,20.9a94.91,94.91,0,0,0,3.23,14.79C28.06,40,29.78,42.53,33.8,44c1.64-2.14,3.11-7,3.45-9.6-.89-4.29-2.29-10-3.68-15.49-5.56.74-.27-.16-10.08,2Z"/><path class="cls-11" d="M92,6.71c1.09.33-.65-1.22-1.7,3.14s-3.3,18.37-4.64,23-1.43,3.77-3.35,4.87-6.48,1.16-8.16,1.72.61.59,1.51-3.4,3-16.24,3.89-20.52.85-3.84,1.56-5.11a4.1,4.1,0,0,1,2.66-2.51c1.69-.63,7.14-1.53,8.23-1.21Z"/><path class="cls-11" d="M58.36,10.24c.94.41-.7-1.16-1.7,3.14s-3,18-4.32,22.7-1.66,4.51-3.73,5.64-7.57,1.5-8.67,1.14,1.15.73,2.08-3.27,2.62-16.42,3.5-20.7,1.11-3.73,1.82-5a6.06,6.06,0,0,1,3.68-3c1.52-.28,6.4-1.09,7.34-.69Z"/><path class="cls-11" d="M68.94,39.11c1.38-1,2.51-8.79,2.53-12.28s-1.11-5.93-2.42-8.66-4-8.53-5.41-7.75-2.75,8.72-2.92,12.4a20.51,20.51,0,0,0,2.43,9.94c1.37,2.72,4.4,7.34,5.79,6.35Z"/><path class="cls-12" d="M219.49,125.83c-17.28,10-37,17.38-56.27,22.39a214.68,214.68,0,0,1-60.74,7.24,192.78,192.78,0,0,1-59.73-11.13c-9.37-3.41-19-7.41-27.15-13.16A38.81,38.81,0,0,1,4.81,120.29a25.08,25.08,0,0,1-3.17-6.92c-.71-2.84.28-5.11,1.86-8C8.14,97,17,90.48,24.9,85.38a103.86,103.86,0,0,1,25-11.67,107,107,0,0,1,56.07-2.42c10.16,2.35,19.19,6.86,28.73,10.9,10.47,4.43,21.05,5.84,32.18,3.09,21.94-5.42,38.64-21.76,58.14-32.17,10.31-5.51,21.82-9.69,33.69-8.87,12.07.85,22.58,7.13,33.22,12.27,23.32,11.26,49.51,16.19,75.19,12.06.27,0,0-4.56-.11-4.56-24.15-.44-48.32-4.5-70.49-14.39C286.11,45,276.3,38.6,265.13,36s-22.33-.34-32.64,4.09c-21.05,9-37.63,26.08-59.28,33.93-11.09,4-22.57,4.8-33.79.87-10.49-3.66-20-9.35-30.82-12.21a106.83,106.83,0,0,0-59,1.54A104.36,104.36,0,0,0,23.41,76.68C15.36,82,6.14,88.89,2.19,98c-2.91,6.71-2.61,16-.91,23,2.49,10.27,10.59,17.61,19.45,22.68C39.2,154.31,60.85,160.43,81.88,163c23.42,2.89,47.57,1.08,70.52-4.23,24.47-5.66,46.28-16.1,67.17-29.84.53-.35-.38-3-.08-3.13Z"/></g></g></svg>