<svg xmlns="http://www.w3.org/2000/svg" viewBox="0 0 521.15 520.68"><defs><style>.cls-1{fill:#888eba;}.cls-11,.cls-2{fill:none;stroke-miterlimit:8;stroke-width:9px;}.cls-2{stroke:#cbabc8;}.cls-3{fill:#fff;fill-rule:evenodd;}.cls-4{fill:#3a69ff;}.cls-5{fill:#1b53a6;}.cls-6{fill:#fed759;}.cls-7{fill:#ffb3d0;}.cls-8{fill:#e67199;}.cls-9{fill:#83a1ff;}.cls-10{fill:#5f86fe;}.cls-11{stroke:#fff;}.cls-12{fill:#ff525d;}.cls-13{fill:#f9eed7;}.cls-14{fill:#ffd15c;}</style></defs><g id="Слой_2" data-name="Слой 2"><g id="Слой_1-2" data-name="Слой 1"><path class="cls-1" d="M514.67,260.72c2.9-6.11,2.58-16-.7-21.61s-4.12-14.62-2.08-20.64.55-15.11-3.39-19.69-5.9-12.8-4.64-18.73-1.36-14.13-5.84-17.77-7.46-11-7-16.81-3.14-13.11-8-15.86a19.75,19.75,0,0,1-9-14.89c-.2-5.64-4.78-12-10-13.93a18.63,18.63,0,0,1-10.85-13c-.91-5.42-6.28-10.94-11.67-12s-10.77-6-12.42-11.06S421.45,55,416,54.65s-11.44-4.34-13.74-9.14-8.83-8.59-14.3-8.17S376,34.56,373.12,30.13s-9.88-7.36-15.25-6.26-12.17-1.26-15.62-5.29-10.75-6.07-15.94-4.33-12,.43-16.05-3.44c-3.76-3.61-11.47-4.75-16.39-2.42a17.92,17.92,0,0,1-16.51-1.45c-4.38-3.15-11.72-3.18-16.58-.5-5.7,3.12-11.85,3.13-16.61.54s-12.34-2-16.51,1.44-11.51,4.42-16.39,2.39a15.47,15.47,0,0,0-16.11,3.24c-3.72,3.82-10.68,5.69-16,4.31s-12.47,1-15.64,5.28-9.86,7-15.28,6.24-12.25,2.53-14.83,7.2-8.87,8.17-14.34,8.16-11.81,4.12-13.77,9.12S97.62,63.72,92.2,64.45,81,70.21,79.74,75.51a18.29,18.29,0,0,1-11.7,12C62.73,89,57.72,95,57.15,100.5a19.21,19.21,0,0,1-10,14c-5.06,2.3-9.23,9.15-9.07,14.91A20.7,20.7,0,0,1,30,145.23c-4.71,3.18-7.93,10.92-7,16.84s-1.7,13.63-5.87,17.8-6.38,12.72-4.68,18.76.14,14.6-3.42,19.73-4.61,14.58-2.11,20.7S9,254.58,6.19,260.72"/><path class="cls-2" d="M514.67,260.72c2.9-6.11,2.58-16-.7-21.61s-4.12-14.62-2.08-20.64.55-15.11-3.39-19.69-5.9-12.8-4.64-18.73-1.36-14.13-5.84-17.77-7.46-11-7-16.81-3.14-13.11-8-15.86a19.75,19.75,0,0,1-9-14.89c-.2-5.64-4.78-12-10-13.93a18.63,18.63,0,0,1-10.85-13c-.91-5.42-6.28-10.94-11.67-12s-10.77-6-12.42-11.06S421.45,55,416,54.65s-11.44-4.34-13.74-9.14-8.83-8.59-14.3-8.17S376,34.56,373.12,30.13s-9.88-7.36-15.25-6.26-12.17-1.26-15.62-5.29-10.75-6.07-15.94-4.33-12,.43-16.05-3.44c-3.76-3.61-11.47-4.75-16.39-2.42a17.92,17.92,0,0,1-16.51-1.45c-4.38-3.15-11.72-3.18-16.58-.5-5.7,3.12-11.85,3.13-16.61.54s-12.34-2-16.51,1.44-11.51,4.42-16.39,2.39a15.47,15.47,0,0,0-16.11,3.24c-3.72,3.82-10.68,5.69-16,4.31s-12.47,1-15.64,5.28-9.86,7-15.28,6.24-12.25,2.53-14.83,7.2-8.87,8.17-14.34,8.16-11.81,4.12-13.77,9.12S97.62,63.72,92.2,64.45,81,70.21,79.74,75.51a18.29,18.29,0,0,1-11.7,12C62.73,89,57.72,95,57.15,100.5a19.21,19.21,0,0,1-10,14c-5.06,2.3-9.23,9.15-9.07,14.91A20.7,20.7,0,0,1,30,145.23c-4.71,3.18-7.93,10.92-7,16.84s-1.7,13.63-5.87,17.8-6.38,12.72-4.68,18.76.14,14.6-3.42,19.73-4.61,14.58-2.11,20.7S9,254.58,6.19,260.72"/><path class="cls-1" d="M515.08,259.78c-2.83,6.14-3.15,15.59-.73,21.67s1.52,15.64-2.11,20.71-5.07,13.74-3.44,19.75-.45,14.67-4.69,18.78-6.74,11.93-5.88,17.81-2.3,13.66-7,16.84a20.75,20.75,0,0,0-8.08,15.88c.16,5.75-4,12.61-9.08,14.92a19.19,19.19,0,0,0-10,13.94c-.58,5.55-5.59,11.52-10.91,13s-10.38,6.76-11.71,12-7,10.37-12.47,11.05-11.16,5.13-13.15,10.09-8.3,9.19-13.79,9.12-11.72,3.55-14.34,8.17-9.41,8-14.85,7.19-12.08,2-15.28,6.24-10.36,6.7-15.65,5.27-12.25.49-16,4.3a15.43,15.43,0,0,1-16.11,3.24c-4.89-2-12.21-.95-16.4,2.39s-11.76,4.05-16.51,1.42-11.72-2.17-16.58.47c-5.71,3.13-12.25,2.71-16.62-.43a17.93,17.93,0,0,0-16.51-1.47c-4.92,2.34-12.64,1.19-16.39-2.42a16.93,16.93,0,0,0-16.06-3.44c-5.18,1.73-12.51-.26-15.93-4.34s-10.27-6.35-15.63-5.3-12.38-1.78-15.24-6.26-9.36-7.59-14.81-7.22-12-3.34-14.3-8.18-8.28-8.78-13.73-9.14S93.6,460.89,92,455.74s-7.06-9.93-12.41-11.06-10.75-6.6-11.67-12a18.59,18.59,0,0,0-10.84-13c-5.19-1.89-9.78-8.3-10-13.94a19.74,19.74,0,0,0-9-14.89c-4.89-2.74-8.58-10-8-15.86s-2.53-13.11-6.95-16.81-7.16-11.8-5.83-17.77-.76-14.08-4.64-18.72S7.14,308.07,9.25,302s1.14-15-2.07-20.64-3.6-15.48-.69-21.59"/><path class="cls-2" d="M515.08,259.78c-2.83,6.14-3.15,15.59-.73,21.67s1.52,15.64-2.11,20.71-5.07,13.74-3.44,19.75-.45,14.67-4.69,18.78-6.74,11.93-5.88,17.81-2.3,13.66-7,16.84a20.75,20.75,0,0,0-8.08,15.88c.16,5.75-4,12.61-9.08,14.92a19.19,19.19,0,0,0-10,13.94c-.58,5.55-5.59,11.52-10.91,13s-10.38,6.76-11.71,12-7,10.37-12.47,11.05-11.16,5.13-13.15,10.09-8.3,9.19-13.79,9.12-11.72,3.55-14.34,8.17-9.41,8-14.85,7.19-12.08,2-15.28,6.24-10.36,6.7-15.65,5.27-12.25.49-16,4.3a15.43,15.43,0,0,1-16.11,3.24c-4.89-2-12.21-.95-16.4,2.39s-11.76,4.05-16.51,1.42-11.72-2.17-16.58.47c-5.71,3.13-12.25,2.71-16.62-.43a17.93,17.93,0,0,0-16.51-1.47c-4.92,2.34-12.64,1.19-16.39-2.42a16.93,16.93,0,0,0-16.06-3.44c-5.18,1.73-12.51-.26-15.93-4.34s-10.27-6.35-15.63-5.3-12.38-1.78-15.24-6.26-9.36-7.59-14.81-7.22-12-3.34-14.3-8.18-8.28-8.78-13.73-9.14S93.6,460.89,92,455.74s-7.06-9.93-12.41-11.06-10.75-6.6-11.67-12a18.59,18.59,0,0,0-10.84-13c-5.19-1.89-9.78-8.3-10-13.94a19.74,19.74,0,0,0-9-14.89c-4.89-2.74-8.58-10-8-15.86s-2.53-13.11-6.95-16.81-7.16-11.8-5.83-17.77-.76-14.08-4.64-18.72S7.14,308.07,9.25,302s1.14-15-2.07-20.64-3.6-15.48-.69-21.59"/><path class="cls-3" d="M455,149.12q1.11,1.95,2.19,3.95c.72,1.33,1.37,2.63,1.95,3.88l-2.1,1-4-7.13a1.58,1.58,0,0,0-1-.9,2.28,2.28,0,0,0-1.48.4l-3.59,2,4.27,7.58-2.1,1.19-4.28-7.58-4.59,2.59a2.27,2.27,0,0,0-1.11,1.05,1.57,1.57,0,0,0,.25,1.32l4,7.14-1.93,1.26c-.78-1.14-1.55-2.36-2.31-3.67s-1.52-2.62-2.25-3.92a4.43,4.43,0,0,1-.62-3.13,3.61,3.61,0,0,1,1.81-2.31l11.62-6.56a3.58,3.58,0,0,1,2.91-.34,4.46,4.46,0,0,1,2.36,2.14Z"/><path class="cls-3" d="M458.08,167.34l.16.34c.4.9.8,1.87,1.2,2.92s.73,2,1,2.93l-2,.67c-.36-.84-.72-1.69-1.09-2.54s-.74-1.7-1.13-2.53a9.11,9.11,0,0,0-1.33-2.34c-.38-.38-.9-.4-1.58-.06s-.94.63-1,1a5.49,5.49,0,0,0,.14,1.65l.84,4.17a5,5,0,0,1-.1,2.9,3.93,3.93,0,0,1-2.16,1.92c-1.58.75-2.83.78-3.78.09a10.11,10.11,0,0,1-2.73-4q-.35-.69-.93-2.13a34.36,34.36,0,0,1-1.16-3.3l2-.72c.24.64.53,1.34.87,2.12s.72,1.6,1.12,2.46a9.64,9.64,0,0,0,1.7,2.81,1.34,1.34,0,0,0,1.68.16,1.38,1.38,0,0,0,.93-1.09,6,6,0,0,0-.19-1.7l-.81-4.12a4.53,4.53,0,0,1,.19-2.92,4.26,4.26,0,0,1,2.16-1.85c1.46-.7,2.65-.76,3.56-.17a7.85,7.85,0,0,1,2.42,3.32Z"/><path class="cls-3" d="M464.85,183.19a18.11,18.11,0,0,1,.71,2.27,10.79,10.79,0,0,1,.34,2.51l-1.86.31c-.21-.66-.43-1.32-.66-2s-.44-1.25-.63-1.74a4.35,4.35,0,0,0-2.27-2.85c-1-.35-2.37-.16-4.22.58s-3,1.51-3.51,2.42a4.33,4.33,0,0,0,.23,3.63c.17.43.42,1,.75,1.75a23,23,0,0,0,1.12,2.15l-1.72,1a12.5,12.5,0,0,1-1.44-2.06,15.83,15.83,0,0,1-1.14-2.39c-.95-2.35-1.06-4.23-.35-5.66s2.36-2.62,5-3.6,4.64-1.27,6.13-.69,2.67,2.05,3.55,4.41Z"/><path class="cls-3" d="M461.2,197.39a1.76,1.76,0,0,0-.91-1.16,2,2,0,0,0-1.37,0l-.74.23a2,2,0,0,0-1.34.94,2.25,2.25,0,0,0,0,1.68,6.66,6.66,0,0,0,1.14,2.1,8.41,8.41,0,0,0,2.28,2l2.49-.76-1.56-5.09Zm8.67.53a5.77,5.77,0,0,1,.15,4q-.64,1.58-3.24,2.37l-9.72,3-.66-2.17,2.1-1a8.85,8.85,0,0,1-2.3-1.73,7.55,7.55,0,0,1-1.86-3.1,4.75,4.75,0,0,1,.07-3.4A3.93,3.93,0,0,1,457,193.8l1.46-.44a3.43,3.43,0,0,1,2.89.23,4.5,4.5,0,0,1,1.8,2.64l1.72,5.61,1.09-.33a2.3,2.3,0,0,0,1.59-1.14,3.64,3.64,0,0,0-.18-2.33c-.22-.71-.53-1.59-.92-2.63s-.81-2.1-1.24-3.18l1.95-.88c.49,1,1,2.05,1.5,3.26a35.2,35.2,0,0,1,1.23,3.31Z"/><path class="cls-3" d="M471.81,215.5a5.23,5.23,0,0,0-1-2.1,15.36,15.36,0,0,0-2.1-2.15l-7.24,1.6c0,.87,0,1.65,0,2.37a10.12,10.12,0,0,0,.23,2.12,2.84,2.84,0,0,0,1.52,2.31c.8.36,2.19.32,4.17-.13a8.47,8.47,0,0,0,3.84-1.55,2.34,2.34,0,0,0,.63-2.47Zm2.67.42a4.13,4.13,0,0,1-1.15,4.15,11.2,11.2,0,0,1-5.38,2.37c-2.72.6-4.74.58-6.06-.08a4.91,4.91,0,0,1-2.52-3.72,10.18,10.18,0,0,1-.25-2.75,9.45,9.45,0,0,1,.54-2.74c-.49.16-1,.29-1.43.41s-1,.23-1.45.32l-4,.88-.61-2.8,20.06-4.42.51,2.33-2.14.69a8.58,8.58,0,0,1,2.47,2.34,8.37,8.37,0,0,1,1.41,3Z"/><path class="cls-3" d="M474.66,231.33a3.8,3.8,0,0,0-1.3-2.82,5.36,5.36,0,0,0-3.6-.45l.8,5.78a1.22,1.22,0,0,0,.8,1.08,2.82,2.82,0,0,0,1.33.07,2.22,2.22,0,0,0,1.77-1,4.41,4.41,0,0,0,.2-2.65Zm2.34-.91a3,3,0,0,1,.06.43q.46,3.35-.56,5a4.36,4.36,0,0,1-3.41,2,4.82,4.82,0,0,1-3.17-.42,3.29,3.29,0,0,1-1.47-2.52l-.9-6.49a4.24,4.24,0,0,0-2.91,1.66,4.86,4.86,0,0,0-.28,3.19c.1.76.26,1.59.45,2.49s.4,1.74.61,2.53l-1.86.53a10.93,10.93,0,0,1-1-2.66,22.41,22.41,0,0,1-.61-2.94q-.57-3.73,1-5.61t5.68-2.41c2.81-.41,4.87-.15,6.16.76a6.35,6.35,0,0,1,2.29,4.45Z"/><path class="cls-3" d="M482.39,254.63c0-.59,0-1.14-.05-1.67,0-.71,0-1.35-.08-1.92l-7.24.2.11,4.18a4.41,4.41,0,0,0,.87,3,3.78,3.78,0,0,0,2.92.77,3.67,3.67,0,0,0,2.83-.92,4.43,4.43,0,0,0,.65-3c0-.2,0-.4,0-.6Zm2.6,1a7.71,7.71,0,0,1-1.13,4.82q-1.28,1.65-4.68,1.72a6.48,6.48,0,0,1-3.75-.77,4,4,0,0,1-1.62-2.89h-.15a3.45,3.45,0,0,1-.89,1.54,4.59,4.59,0,0,1-2,1.14l-6.46,2.11-.09-3.19,6.38-1.94a3.08,3.08,0,0,0,1.57-1,2.57,2.57,0,0,0,.43-1.63l-.09-4.25-8.52.23-.08-2.95,20.63-.56c.1.74.18,1.45.23,2.12s.1,1.42.14,2.22.06,1.75.09,2.86c0,.15,0,.3,0,.44Z"/><path class="cls-3" d="M476.35,272.48a3.4,3.4,0,0,0-.94-2.89c-.73-.62-2.11-1-4.12-1.07s-3.37.07-4.17.61a4.92,4.92,0,0,0-.35,6.21c.74.63,2.1,1,4.08,1.07s3.41-.07,4.21-.61a3.58,3.58,0,0,0,1.27-3c0-.09,0-.19,0-.28Zm2.43.41c-.12,2.52-.8,4.28-2.06,5.29s-3.27,1.42-6,1.24-4.69-.76-5.81-1.9-1.61-3-1.44-5.48.79-4.28,2-5.29,3.24-1.42,6-1.24,4.72.76,5.86,1.9,1.62,3,1.46,5.48Z"/><path class="cls-3" d="M474.73,289.6a3.39,3.39,0,0,0-.7-3c-.69-.68-2-1.15-4-1.4s-3.37-.19-4.21.28a4.95,4.95,0,0,0-.84,6.16c.69.69,2,1.15,4,1.39s3.4.21,4.24-.27a3.55,3.55,0,0,0,1.5-2.93c0-.1,0-.19,0-.27Zm2.39.6q-.47,3.74-2.47,5.1t-6.11.76c-2.73-.34-4.62-1.12-5.65-2.35s-1.37-3.09-1-5.58,1.13-4.2,2.45-5.11,3.35-1.16,6.07-.77,4.65,1.14,5.69,2.37,1.39,3.09,1,5.58Z"/><path class="cls-3" d="M473.64,309.47a4.21,4.21,0,0,1-1.19,2.2,3.33,3.33,0,0,1-2.14.81,11.55,11.55,0,0,1,1.18,3.24,7.08,7.08,0,0,1-.05,2.94,3.9,3.9,0,0,1-1.68,2.59,4.17,4.17,0,0,1-3.16.28L456,319l.66-2.76,9.83,2.36a2.92,2.92,0,0,0,1.91-.05,2,2,0,0,0,.94-1.46,4.15,4.15,0,0,0,0-2,20.13,20.13,0,0,0-1-2.85l-10.1-2.42.65-2.7,9.83,2.35a2.68,2.68,0,0,0,2-.07,2,2,0,0,0,.89-1.43,4.1,4.1,0,0,0,0-2,20.19,20.19,0,0,0-1-2.89l-10.12-2.42.66-2.79,14.2,3.39-.56,2.33-2.18-.37a12.18,12.18,0,0,1,1.19,3.27,7.08,7.08,0,0,1,0,3Z"/><path class="cls-3" d="M470.65,339.36c-.53,1.4-1.07,2.8-1.64,4.21s-1.14,2.74-1.74,4l-2.12-1,2.92-7.66a1.55,1.55,0,0,0,.05-1.34,2.22,2.22,0,0,0-1.25-.88L463,335.23l-3.11,8.13-2.26-.87,3.11-8.13-4.92-1.88a2.27,2.27,0,0,0-1.52-.18,1.57,1.57,0,0,0-.85,1L450.53,341l-2.2-.68c.38-1.33.83-2.7,1.35-4.13s1.05-2.83,1.59-4.23a4.4,4.4,0,0,1,2-2.47,3.58,3.58,0,0,1,2.93-.08l12.47,4.76a3.58,3.58,0,0,1,2.12,2,4.4,4.4,0,0,1-.15,3.17Z"/><path class="cls-3" d="M458.59,353.41c-.06.11-.11.23-.17.34-.43.88-.92,1.81-1.48,2.79s-1.09,1.85-1.62,2.62l-1.79-1.1c.41-.82.84-1.64,1.26-2.47s.83-1.65,1.23-2.48a8.37,8.37,0,0,0,.94-2.52c.06-.53-.26-.95-.95-1.25a1.51,1.51,0,0,0-1.44-.11,5.45,5.45,0,0,0-1.18,1.16l-2.67,3.31a5,5,0,0,1-2.31,1.77,3.94,3.94,0,0,1-2.85-.44c-1.59-.73-2.41-1.68-2.48-2.85a10.15,10.15,0,0,1,1.36-4.68c.21-.47.56-1.16,1-2.07s1.09-1.91,1.81-3l1.85,1.11c-.34.58-.7,1.26-1.08,2s-.77,1.57-1.18,2.43a9.84,9.84,0,0,0-1.08,3.1,1.35,1.35,0,0,0,.95,1.4,1.38,1.38,0,0,0,1.43,0,6.12,6.12,0,0,0,1.19-1.23L452,348a4.57,4.57,0,0,1,2.37-1.72,4.2,4.2,0,0,1,2.8.49c1.48.67,2.27,1.55,2.4,2.63a7.84,7.84,0,0,1-1,4Z"/><path class="cls-3" d="M450.72,368.69a17.55,17.55,0,0,1-1.3,2,11.46,11.46,0,0,1-1.71,1.87l-1.43-1.25c.38-.58.75-1.17,1.12-1.78s.68-1.13.94-1.59a4.36,4.36,0,0,0,.74-3.57q-.51-1.44-3.14-2.88c-1.74-1-3.1-1.38-4.1-1.16a4.36,4.36,0,0,0-2.65,2.5c-.23.41-.52,1-.87,1.7a23.8,23.8,0,0,0-.94,2.22l-1.83-.71a12.4,12.4,0,0,1,.67-2.42,17,17,0,0,1,1.11-2.41c1.2-2.22,2.58-3.52,4.13-3.88s3.54.15,6,1.53,3.93,2.77,4.44,4.28.13,3.37-1.13,5.55Z"/><path class="cls-3" d="M437.43,375a1.79,1.79,0,0,0,.3-1.44,2,2,0,0,0-.9-1l-.65-.43a2.05,2.05,0,0,0-1.58-.43,2.27,2.27,0,0,0-1.29,1.09,6.78,6.78,0,0,0-.89,2.21,8.51,8.51,0,0,0-.1,3l2.18,1.43,2.93-4.45Zm5.11,7a5.85,5.85,0,0,1-3,2.66c-1.07.33-2.37,0-3.88-1l-8.5-5.59,1.25-1.89,2.1,1a9,9,0,0,1-.14-2.88,7.73,7.73,0,0,1,1.21-3.41,4.72,4.72,0,0,1,2.66-2.11,3.94,3.94,0,0,1,3.23.66l1.28.84a3.46,3.46,0,0,1,1.66,2.38,4.48,4.48,0,0,1-.89,3.07l-3.22,4.9.95.62a2.3,2.3,0,0,0,1.89.51,3.55,3.55,0,0,0,1.68-1.63c.41-.62.89-1.42,1.44-2.39s1.1-2,1.66-3l1.92.94c-.43,1-.95,2.08-1.55,3.23s-1.19,2.18-1.77,3.07Z"/><path class="cls-3" d="M430.29,394.67a5.37,5.37,0,0,0,1-2.12,15.11,15.11,0,0,0,.32-3L425.72,385c-.69.53-1.3,1-1.85,1.49a10.21,10.21,0,0,0-1.48,1.53,2.86,2.86,0,0,0-.82,2.64c.24.85,1.16,1.89,2.77,3.13a8.61,8.61,0,0,0,3.65,2,2.34,2.34,0,0,0,2.3-1.09Zm1.38,2.32a4.13,4.13,0,0,1-3.93,1.76,11.29,11.29,0,0,1-5.26-2.62c-2.2-1.72-3.47-3.29-3.8-4.73a4.89,4.89,0,0,1,1.25-4.31,10.59,10.59,0,0,1,2-1.94,9.23,9.23,0,0,1,2.45-1.34q-.64-.4-1.23-.84c-.38-.28-.77-.58-1.16-.91l-3.24-2.51,1.76-2.27,16.22,12.63-1.47,1.88-1.9-1.21a8.74,8.74,0,0,1-.23,3.4,8.46,8.46,0,0,1-1.42,3Z"/><path class="cls-3" d="M419.88,407a3.81,3.81,0,0,0,1.35-2.81,5.37,5.37,0,0,0-2-3.05l-3.94,4.3a1.23,1.23,0,0,0-.32,1.3,2.75,2.75,0,0,0,.79,1.08,2.19,2.19,0,0,0,1.9.71,4.29,4.29,0,0,0,2.17-1.53Zm2.2,1.22c-.09.11-.19.21-.29.32q-2.28,2.49-4.23,2.78a4.41,4.41,0,0,1-3.71-1.36,4.84,4.84,0,0,1-1.69-2.72,3.27,3.27,0,0,1,1-2.73l4.43-4.84a4.24,4.24,0,0,0-3.13-1.18,4.89,4.89,0,0,0-2.65,1.82c-.52.57-1.06,1.22-1.62,1.94s-1.09,1.41-1.57,2.08l-1.59-1.1a10.52,10.52,0,0,1,1.38-2.49,22.2,22.2,0,0,1,1.88-2.35c1.67-1.88,3.32-2.82,4.93-2.83s3.44.93,5.48,2.83,3.22,3.65,3.34,5.23a6.3,6.3,0,0,1-2,4.6Z"/><path class="cls-3" d="M406.85,427.83l1.26-1.11c.53-.46,1-.89,1.43-1.28L404.77,420l-3.15,2.76a4.38,4.38,0,0,0-1.76,2.58,3.77,3.77,0,0,0,1.27,2.73,3.64,3.64,0,0,0,2.52,1.6,4.39,4.39,0,0,0,2.75-1.44l.45-.39Zm.86,2.66a7.56,7.56,0,0,1-4.42,2.2q-2.09.09-4.31-2.51a6.44,6.44,0,0,1-1.8-3.37,3.93,3.93,0,0,1,1.19-3.09l-.1-.11a3.57,3.57,0,0,1-1.75.29,4.44,4.44,0,0,1-2.17-.83l-5.76-3.63,2.41-2.11,5.56,3.68a3.12,3.12,0,0,0,1.79.55,2.5,2.5,0,0,0,1.53-.71l3.22-2.77-5.61-6.42,2.23-2,13.58,15.54c-.51.55-1,1.06-1.49,1.53s-1,1-1.62,1.52l-2.14,1.9-.34.29Z"/><path class="cls-3" d="M389.31,434.52a3.43,3.43,0,0,0,1.63-2.57c0-1-.59-2.25-1.8-3.85s-2.21-2.56-3.13-2.83a4.95,4.95,0,0,0-5,3.69c0,1,.58,2.25,1.78,3.83s2.23,2.58,3.16,2.85a3.57,3.57,0,0,0,3.15-1l.22-.16Zm1.23,2.13c-2,1.52-3.8,2.11-5.38,1.79s-3.18-1.61-4.8-3.86-2.41-4.09-2.25-5.69,1.26-3.13,3.3-4.61,3.8-2.11,5.37-1.8,3.17,1.59,4.78,3.82,2.43,4.12,2.27,5.73-1.25,3.15-3.29,4.62Z"/><path class="cls-3" d="M375,444.26a3.42,3.42,0,0,0,1.83-2.43c.09-1-.41-2.29-1.49-4a7.07,7.07,0,0,0-2.9-3.06,4.95,4.95,0,0,0-5.28,3.29c-.09,1,.4,2.28,1.47,3.95s2,2.75,2.92,3.1a3.57,3.57,0,0,0,3.22-.72l.23-.14Zm1.06,2.22q-3.18,2-5.5,1.36t-4.49-4.22c-1.48-2.33-2.07-4.28-1.79-5.86s1.51-3,3.66-4.32,3.95-1.82,5.49-1.38,3,1.84,4.47,4.19,2.09,4.3,1.81,5.89-1.5,3-3.65,4.34Z"/><path class="cls-3" d="M359,456.11a4.13,4.13,0,0,1-2.45.49,3.23,3.23,0,0,1-2-1.13,11.42,11.42,0,0,1-1.74,3,7,7,0,0,1-2.3,1.84,3.88,3.88,0,0,1-3.06.36,4.17,4.17,0,0,1-2.23-2.25l-4.84-9.82,2.55-1.25,4.46,9.07a3,3,0,0,0,1.26,1.44,2,2,0,0,0,1.72-.21,4.17,4.17,0,0,0,1.56-1.32,20.48,20.48,0,0,0,1.54-2.61l-4.58-9.31,2.49-1.23,4.47,9.07a2.69,2.69,0,0,0,1.3,1.46,2.06,2.06,0,0,0,1.67-.22,4.35,4.35,0,0,0,1.54-1.29,20.58,20.58,0,0,0,1.58-2.62l-4.6-9.33,2.57-1.27,6.45,13.09-2.14,1.06-1.11-1.92a12.55,12.55,0,0,1-1.75,3,7.12,7.12,0,0,1-2.37,1.91Z"/><path class="cls-3" d="M334.05,472.91l-4.29,1.42c-1.45.46-2.84.86-4.18,1.19l-.6-2.25,7.76-2.63a1.57,1.57,0,0,0,1.07-.82,2.19,2.19,0,0,0-.12-1.52l-1.33-3.92-8.24,2.79-.78-2.29,8.25-2.79-1.69-5a2.24,2.24,0,0,0-.83-1.28,1.55,1.55,0,0,0-1.34,0L320,458.44l-.88-2.13c1.27-.55,2.62-1.08,4-1.59s2.86-1,4.27-1.47a4.43,4.43,0,0,1,3.19,0,3.62,3.62,0,0,1,1.94,2.21l4.27,12.64a3.53,3.53,0,0,1-.2,2.92,4.47,4.47,0,0,1-2.54,1.92Z"/><path class="cls-3" d="M315.47,472.58l-.36.09c-1,.23-2,.44-3.1.63s-2.12.34-3.05.42l-.29-2.08,2.7-.6c.91-.19,1.81-.41,2.7-.63a8.91,8.91,0,0,0,2.54-.87c.45-.3.57-.81.36-1.54s-.44-1-.83-1.17a5.22,5.22,0,0,0-1.65-.18l-4.25,0a5.07,5.07,0,0,1-2.84-.64,4,4,0,0,1-1.48-2.48c-.44-1.69-.23-2.93.63-3.73a10.09,10.09,0,0,1,4.47-1.93c.5-.13,1.25-.3,2.26-.51s2.16-.38,3.46-.52l.33,2.13c-.67.11-1.42.26-2.25.46s-1.7.4-2.62.64a9.65,9.65,0,0,0-3.08,1.13,1.37,1.37,0,0,0-.48,1.63,1.4,1.4,0,0,0,.9,1.11,5.65,5.65,0,0,0,1.71.14l4.19,0a4.62,4.62,0,0,1,2.84.74,4.22,4.22,0,0,1,1.41,2.47c.42,1.57.25,2.74-.5,3.52a7.75,7.75,0,0,1-3.72,1.76Z"/><path class="cls-3" d="M298.7,476.24a18.11,18.11,0,0,1-2.37.27,11,11,0,0,1-2.53-.13l.05-1.89,2.08-.27c.71-.1,1.31-.2,1.83-.3a4.3,4.3,0,0,0,3.22-1.69c.53-.88.61-2.3.22-4.26s-.9-3.27-1.71-3.9a4.32,4.32,0,0,0-3.61-.45c-.46.08-1.08.22-1.87.41a23.53,23.53,0,0,0-2.31.69l-.61-1.86a13.08,13.08,0,0,1,2.29-1,17.87,17.87,0,0,1,2.56-.67q3.72-.73,5.63.72t2.6,5.56q.79,4.11-.48,6.15c-.84,1.35-2.51,2.24-5,2.66Z"/><path class="cls-3" d="M285.37,470a1.78,1.78,0,0,0,1.31-.68,2,2,0,0,0,.22-1.35l-.09-.77a2,2,0,0,0-.68-1.49,2.23,2.23,0,0,0-1.65-.31,6.94,6.94,0,0,0-2.27.72,8.68,8.68,0,0,0-2.42,1.87l.28,2.59,5.3-.58Zm-2.16,8.42a5.78,5.78,0,0,1-3.94-.61c-.95-.62-1.52-1.82-1.72-3.62l-1.09-10.11,2.25-.25.58,2.26a8.84,8.84,0,0,1,2.12-1.94,7.82,7.82,0,0,1,3.4-1.25,4.71,4.71,0,0,1,3.32.72,3.92,3.92,0,0,1,1.55,2.91l.17,1.51a3.43,3.43,0,0,1-.78,2.8,4.47,4.47,0,0,1-2.93,1.27l-5.83.63.12,1.14a2.26,2.26,0,0,0,.82,1.77,3.54,3.54,0,0,0,2.32.27q1.11-.14,2.76-.42c1.09-.19,2.21-.39,3.36-.61l.49,2.08c-1,.3-2.2.59-3.48.86s-2.44.47-3.49.59Z"/><path class="cls-3" d="M265.64,477a5.26,5.26,0,0,0,2.25-.6,14.94,14.94,0,0,0,2.51-1.66l-.21-7.42c-.85-.19-1.62-.35-2.32-.48a10.81,10.81,0,0,0-2.13-.17,2.87,2.87,0,0,0-2.56,1.06c-.5.72-.72,2.09-.65,4.12a8.59,8.59,0,0,0,.8,4.07,2.36,2.36,0,0,0,2.31,1.08Zm-.91,2.54a4.11,4.11,0,0,1-3.86-1.91,11.24,11.24,0,0,1-1.33-5.72q-.12-4.19,1.22-5.94a4.89,4.89,0,0,1,4.13-1.78,10.5,10.5,0,0,1,2.74.27,9.31,9.31,0,0,1,2.59,1c-.06-.5-.1-1-.13-1.48s0-1,0-1.48l-.12-4.09,2.87-.09.59,20.54L271,479l-.28-2.23a9,9,0,0,1-2.76,2,8.41,8.41,0,0,1-3.23.81Z"/><path class="cls-3" d="M249.55,476.85a3.73,3.73,0,0,0,3-.75,5.42,5.42,0,0,0,1.12-3.45l-5.83-.29a1.24,1.24,0,0,0-1.21.58,2.68,2.68,0,0,0-.32,1.29,2.2,2.2,0,0,0,.66,1.93,4.31,4.31,0,0,0,2.56.69Zm.46,2.48-.43,0c-2.25-.12-3.87-.62-4.84-1.5a4.37,4.37,0,0,1-1.31-3.72,4.83,4.83,0,0,1,1-3,3.27,3.27,0,0,1,2.75-1l6.55.32a4.23,4.23,0,0,0-1.09-3.16,4.88,4.88,0,0,0-3.09-.88c-.77,0-1.61,0-2.52,0s-1.79.07-2.6.12l-.18-1.92a11.07,11.07,0,0,1,2.81-.53,23.61,23.61,0,0,1,3,0c2.52.09,4.29.76,5.33,2s1.47,3.25,1.31,6-.76,4.82-1.9,5.91a6.35,6.35,0,0,1-4.8,1.43Z"/><path class="cls-3" d="M225.21,480.1l1.66.27,1.89.28,1.16-7.15-4.14-.67a4.41,4.41,0,0,0-3.1.29,3.8,3.8,0,0,0-1.3,2.72,3.66,3.66,0,0,0,.38,3,4.42,4.42,0,0,0,2.86,1.21l.59.09Zm-1.5,2.36a7.66,7.66,0,0,1-4.52-2c-.92-1-1.2-2.68-.81-4.92a6.42,6.42,0,0,1,1.45-3.54A3.92,3.92,0,0,1,223,471l0-.15a3.4,3.4,0,0,1-1.35-1.16,4.45,4.45,0,0,1-.74-2.21l-.88-6.74,3.16.51.71,6.63a3.22,3.22,0,0,0,.72,1.73,2.62,2.62,0,0,0,1.52.72l4.19.71,1.37-8.42,2.92.48-3.3,20.37c-.75,0-1.45-.1-2.13-.17s-1.4-.16-2.2-.28-1.73-.26-2.83-.44l-.44-.07Z"/><path class="cls-3" d="M208.81,470.85a3.37,3.37,0,0,0,3-.38c.76-.61,1.36-1.89,1.82-3.85s.56-3.32.18-4.21a4.93,4.93,0,0,0-6-1.49c-.75.6-1.35,1.87-1.81,3.81s-.57,3.36-.18,4.25a3.56,3.56,0,0,0,2.75,1.81l.27.06Zm-.86,2.31c-2.44-.57-4-1.57-4.81-3s-.79-3.48-.1-6.16,1.62-4.47,3-5.36,3.22-1,5.65-.4,4.06,1.57,4.82,3,.8,3.45.11,6.12-1.62,4.49-3,5.4-3.22,1.05-5.66.41Z"/><path class="cls-3" d="M192.29,466.09a3.38,3.38,0,0,0,3-.14c.79-.55,1.5-1.78,2.11-3.69s.82-3.28.51-4.19a3.56,3.56,0,0,0-2.6-2,3.6,3.6,0,0,0-3.3.06q-1.2.82-2.1,3.66c-.66,1.9-.84,3.31-.52,4.22a3.56,3.56,0,0,0,2.6,2l.26.08Zm-1,2.24q-3.6-1.15-4.56-3.37t.38-6.15q1.28-3.93,3.37-5.12c1.4-.78,3.28-.77,5.66.05s3.92,1.89,4.57,3.36.52,3.51-.38,6.11-2,4.35-3.37,5.15-3.3.79-5.67,0Z"/><path class="cls-3" d="M173,461.33a4.18,4.18,0,0,1-1.94-1.58,3.26,3.26,0,0,1-.4-2.25,12,12,0,0,1-3.41.56,6.94,6.94,0,0,1-2.88-.6,3.93,3.93,0,0,1-2.23-2.13,4.16,4.16,0,0,1,.31-3.15l4.48-10,2.59,1.16-4.14,9.22a3,3,0,0,0-.31,1.89,2,2,0,0,0,1.26,1.19,4.2,4.2,0,0,0,2,.36,21,21,0,0,0,3-.47l4.24-9.47,2.54,1.14-4.14,9.22a2.7,2.7,0,0,0-.29,1.93,2,2,0,0,0,1.24,1.15,4.21,4.21,0,0,0,2,.36,19.51,19.51,0,0,0,3-.45l4.26-9.5,2.62,1.18-6,13.31-2.19-1,.77-2.08a12.29,12.29,0,0,1-3.43.57,7.09,7.09,0,0,1-3-.6Z"/><path class="cls-3" d="M144.08,452.8q-1.91-1.17-3.83-2.4c-1.27-.81-2.47-1.63-3.58-2.45L138,446l7,4.31a1.55,1.55,0,0,0,1.31.3,2.24,2.24,0,0,0,1.09-1.07l2.17-3.51-7.41-4.57,1.27-2.06,7.41,4.57,2.77-4.49a2.23,2.23,0,0,0,.46-1.46,1.57,1.57,0,0,0-.86-1l-7-4.3,1.08-2c1.23.63,2.5,1.33,3.8,2.1s2.59,1.56,3.86,2.35a4.37,4.37,0,0,1,2.05,2.44,3.58,3.58,0,0,1-.46,2.89l-7,11.36a3.54,3.54,0,0,1-2.38,1.7,4.42,4.42,0,0,1-3.1-.73Z"/><path class="cls-3" d="M132.55,438.33l-.3-.22c-.79-.6-1.61-1.25-2.47-2s-1.61-1.42-2.27-2.09l1.42-1.55,2.18,1.7c.74.57,1.47,1.13,2.21,1.67a8.51,8.51,0,0,0,2.3,1.4c.51.16,1-.08,1.41-.7a1.47,1.47,0,0,0,.37-1.39,5,5,0,0,0-.91-1.38l-2.75-3.25a5,5,0,0,1-1.31-2.59,4,4,0,0,1,1-2.72c1-1.42,2.11-2.05,3.27-1.9a10.1,10.1,0,0,1,4.34,2.21c.42.3,1,.77,1.84,1.41s1.67,1.42,2.61,2.33L144,430.9c-.52-.44-1.11-.93-1.79-1.44s-1.4-1.06-2.17-1.61a9.66,9.66,0,0,0-2.84-1.65,1.35,1.35,0,0,0-1.55.67,1.39,1.39,0,0,0-.29,1.4,6.13,6.13,0,0,0,1,1.41l2.7,3.21a4.63,4.63,0,0,1,1.24,2.66,4.24,4.24,0,0,1-1,2.66c-.94,1.32-2,1.94-3,1.86a7.85,7.85,0,0,1-3.73-1.74Z"/><path class="cls-3" d="M119,427.71a18.38,18.38,0,0,1-1.72-1.65,11.73,11.73,0,0,1-1.52-2l1.49-1.17c.5.48,1,1,1.54,1.43s1,.89,1.39,1.22a4.33,4.33,0,0,0,3.36,1.4c1-.15,2.15-1,3.42-2.54s1.94-2.79,1.91-3.81a4.34,4.34,0,0,0-2-3.07c-.35-.3-.85-.69-1.5-1.18s-1.32-.93-2-1.34l1-1.66a13.47,13.47,0,0,1,2.26,1.11,17.57,17.57,0,0,1,2.16,1.54q2.92,2.4,3,4.79t-2.62,5.56q-2.66,3.24-5,3.55c-1.58.21-3.33-.5-5.23-2.14Z"/><path class="cls-3" d="M115.32,413.5a1.75,1.75,0,0,0,1.36.57,2,2,0,0,0,1.18-.69l.54-.56a2,2,0,0,0,.72-1.47,2.31,2.31,0,0,0-.82-1.47,6.58,6.58,0,0,0-2-1.29,8.54,8.54,0,0,0-3-.67l-1.82,1.87,3.82,3.71Zm-7.85,3.71a5.79,5.79,0,0,1-2-3.43c-.13-1.12.43-2.33,1.69-3.63l7.09-7.29,1.63,1.58-1.37,1.88a9,9,0,0,1,2.85.4,7.67,7.67,0,0,1,3.12,1.82,4.71,4.71,0,0,1,1.57,3,3.9,3.9,0,0,1-1.25,3.05l-1.06,1.1a3.44,3.44,0,0,1-2.65,1.18,4.44,4.44,0,0,1-2.85-1.44L110,411.35l-.79.82a2.32,2.32,0,0,0-.85,1.76,3.6,3.6,0,0,0,1.28,2c.54.51,1.23,1.13,2.08,1.86s1.72,1.45,2.61,2.19L113,421.65q-1.35-.91-2.88-2.13c-1-.81-1.92-1.58-2.68-2.31Z"/><path class="cls-3" d="M97.32,402.77a5.45,5.45,0,0,0,1.9,1.35,15.6,15.6,0,0,0,2.88.87l5.57-4.89q-.58-1.17-1.11-2.1a10.37,10.37,0,0,0-1.22-1.75,2.87,2.87,0,0,0-2.45-1.29c-.87.07-2.07.78-3.59,2.13a8.57,8.57,0,0,0-2.62,3.21,2.37,2.37,0,0,0,.64,2.47Zm-2.54.91a4.13,4.13,0,0,1-1-4.19,11.32,11.32,0,0,1,3.57-4.67c2.09-1.84,3.88-2.79,5.35-2.85a4.9,4.9,0,0,1,4,2,10.33,10.33,0,0,1,1.54,2.29,9.3,9.3,0,0,1,.85,2.66c.35-.37.7-.71,1.06-1s.72-.66,1.11-1l3.08-2.7,1.89,2.15L100.8,409.94l-1.58-1.79,1.55-1.64a8.69,8.69,0,0,1-3.3-.86,8.48,8.48,0,0,1-2.69-2Z"/><path class="cls-3" d="M87.19,390.26a3.79,3.79,0,0,0,2.5,1.85,5.43,5.43,0,0,0,3.37-1.35l-3.5-4.67a1.22,1.22,0,0,0-1.21-.56,2.81,2.81,0,0,0-1.21.57,2.26,2.26,0,0,0-1.06,1.74,4.42,4.42,0,0,0,1.11,2.42Zm-1.62,1.93-.26-.34c-1.34-1.81-2-3.37-1.93-4.68a4.39,4.39,0,0,1,2-3.39,4.83,4.83,0,0,1,3-1.15,3.23,3.23,0,0,1,2.5,1.5l3.93,5.24a4.2,4.2,0,0,0,1.74-2.85,4.91,4.91,0,0,0-1.29-2.94c-.46-.61-1-1.26-1.6-1.95s-1.19-1.34-1.75-1.93l1.37-1.36a11.28,11.28,0,0,1,2.2,1.82,23.38,23.38,0,0,1,2,2.28q2.3,3,1.86,5.38c-.3,1.59-1.56,3.21-3.81,4.85s-4.19,2.49-5.76,2.31a6.35,6.35,0,0,1-4.16-2.79Z"/><path class="cls-3" d="M69.11,373.51,70,375c.36.61.69,1.15,1,1.64l6.24-3.67-2.13-3.61a4.4,4.4,0,0,0-2.2-2.21,3.8,3.8,0,0,0-2.93.74c-1.21.69-1.89,1.42-2,2.18a4.5,4.5,0,0,0,.91,3l.3.52Zm-2.77.35A7.68,7.68,0,0,1,65,369.1c.21-1.37,1.3-2.63,3.27-3.76a6.46,6.46,0,0,1,3.65-1.15,4,4,0,0,1,2.81,1.75l.13-.08a3.49,3.49,0,0,1,0-1.78,4.37,4.37,0,0,1,1.22-2l4.63-5,1.62,2.76-4.64,4.78a3.18,3.18,0,0,0-.88,1.66,2.55,2.55,0,0,0,.42,1.63l2.13,3.68,7.34-4.32,1.5,2.54L70.45,380.32q-.66-.9-1.23-1.74c-.38-.57-.77-1.19-1.19-1.87s-.91-1.51-1.47-2.47c-.08-.12-.15-.25-.22-.38Z"/><path class="cls-3" d="M65.73,354.92A3.37,3.37,0,0,0,68,357c.94.2,2.32-.16,4.12-1.05s2.92-1.7,3.36-2.56a4.93,4.93,0,0,0-2.71-5.6c-1-.19-2.31.16-4.09,1s-2.95,1.71-3.38,2.57a3.56,3.56,0,0,0,.36,3.28l.12.25Zm-2.33.82c-1.11-2.26-1.37-4.13-.75-5.62s2.17-2.83,4.67-4,4.47-1.61,6-1.16,2.85,1.82,3.92,4.1,1.37,4.12.77,5.61-2.15,2.82-4.64,4-4.5,1.61-6,1.16-2.86-1.81-3.93-4.08Z"/><path class="cls-3" d="M58.87,339.2a3.4,3.4,0,0,0,2.05,2.24c.93.27,2.32,0,4.19-.73s3-1.45,3.55-2.28a3.57,3.57,0,0,0-.1-3.29,3.54,3.54,0,0,0-2.15-2.5c-.93-.27-2.32,0-4.16.71s-3.08,1.47-3.58,2.29a3.57,3.57,0,0,0,.1,3.3c0,.09.07.17.1.26Zm-2.38.63q-1.41-3.51-.31-5.67t5-3.62q3.83-1.55,6.08-.67c1.5.57,2.69,2,3.58,4.39s1,4.22.33,5.66-2.37,2.64-5,3.61-4.61,1.25-6.12.68-2.71-2-3.59-4.38Z"/><path class="cls-3" d="M50.2,321.22a4.22,4.22,0,0,1,0-2.49A3.27,3.27,0,0,1,51.67,317a11.64,11.64,0,0,1-2.61-2.27,7.09,7.09,0,0,1-1.37-2.6,3.93,3.93,0,0,1,.22-3.08,4.15,4.15,0,0,1,2.63-1.76l10.55-2.91.76,2.73-9.75,2.69a2.94,2.94,0,0,0-1.65,1,2,2,0,0,0-.12,1.73,4.23,4.23,0,0,0,1,1.78,20.42,20.42,0,0,0,2.28,2l10-2.75.73,2.67-9.74,2.69a2.69,2.69,0,0,0-1.68,1,2,2,0,0,0-.09,1.68,4.13,4.13,0,0,0,1,1.75,19.77,19.77,0,0,0,2.27,2.05l10-2.77.76,2.76-14.07,3.88-.63-2.3,2.09-.73a12.48,12.48,0,0,1-2.63-2.28,7.33,7.33,0,0,1-1.44-2.69Z"/><path class="cls-3" d="M38.41,293.58c-.21-1.48-.41-3-.59-4.47s-.31-2.95-.39-4.33l2.33-.17,1.12,8.12a1.55,1.55,0,0,0,.6,1.2,2.26,2.26,0,0,0,1.52.17l4.1-.57-1.19-8.62,2.39-.33,1.19,8.62,5.22-.72a2.27,2.27,0,0,0,1.42-.57,1.56,1.56,0,0,0,.25-1.32l-1.12-8.12,2.26-.46c.3,1.34.57,2.77.8,4.27s.45,3,.65,4.47a4.46,4.46,0,0,1-.58,3.14,3.59,3.59,0,0,1-2.53,1.48l-13.21,1.82a3.59,3.59,0,0,1-2.84-.75,4.41,4.41,0,0,1-1.4-2.86Z"/><path class="cls-3" d="M42.23,275.46c0-.12,0-.25,0-.37-.05-1-.06-2-.05-3.16s.08-2.15.17-3.08l2.1.11c0,.91,0,1.83.07,2.76s.07,1.85.12,2.77a8.89,8.89,0,0,0,.38,2.66c.21.5.69.71,1.45.64a1.46,1.46,0,0,0,1.3-.6,5,5,0,0,0,.48-1.58l.76-4.18a5,5,0,0,1,1.17-2.67,3.93,3.93,0,0,1,2.71-1q2.61-.18,3.54,1.32a10.06,10.06,0,0,1,1.06,4.75c0,.51.07,1.28.08,2.32a34.06,34.06,0,0,1-.14,3.49l-2.16-.07c0-.68,0-1.45,0-2.3s-.08-1.75-.14-2.7a9.53,9.53,0,0,0-.54-3.23,1.35,1.35,0,0,0-1.5-.78,1.37,1.37,0,0,0-1.26.67,6,6,0,0,0-.46,1.66L50.57,277a4.55,4.55,0,0,1-1.26,2.64,4.18,4.18,0,0,1-2.69.92c-1.62.12-2.74-.27-3.36-1.15a7.73,7.73,0,0,1-1-4Z"/><path class="cls-3" d="M41.78,258.29a19.54,19.54,0,0,1,.17-2.38,10.81,10.81,0,0,1,.61-2.46l1.85.4c0,.69-.09,1.39-.13,2.1s-.05,1.32-.05,1.85a4.35,4.35,0,0,0,1.06,3.48c.76.68,2.14,1,4.14,1s3.38-.28,4.15-1a4.33,4.33,0,0,0,1.12-3.46c0-.47,0-1.1-.05-1.91a21.21,21.21,0,0,0-.25-2.4l2-.26a12.56,12.56,0,0,1,.58,2.45,18,18,0,0,1,.19,2.64q0,3.8-1.76,5.39t-6,1.52q-4.2,0-5.95-1.62t-1.68-5.4Z"/><path class="cls-3" d="M50.4,246.37a1.79,1.79,0,0,0,.42,1.41,2,2,0,0,0,1.29.46l.78.07a2,2,0,0,0,1.59-.39,2.26,2.26,0,0,0,.6-1.57A6.49,6.49,0,0,0,54.8,244a8.47,8.47,0,0,0-1.38-2.73l-2.6-.2-.42,5.31Zm-7.86-3.7a5.8,5.8,0,0,1,1.33-3.76c.78-.81,2.07-1.15,3.88-1l10.13.81L57.7,241l-2.32.14a9,9,0,0,1,1.51,2.45,7.73,7.73,0,0,1,.59,3.57,4.74,4.74,0,0,1-1.32,3.13,4,4,0,0,1-3.15,1l-1.52-.12a3.44,3.44,0,0,1-2.61-1.29,4.51,4.51,0,0,1-.7-3.11l.47-5.85-1.13-.09a2.28,2.28,0,0,0-1.9.47,3.54,3.54,0,0,0-.69,2.24c-.06.74-.1,1.67-.11,2.78s0,2.25,0,3.42l-2.14.09c-.09-1.08-.16-2.27-.19-3.58s0-2.48.08-3.54Z"/><path class="cls-3" d="M47.18,225.68a5.3,5.3,0,0,0,.17,2.32,14.62,14.62,0,0,0,1.17,2.77L55.85,232q.51-1.2.9-2.19a9.81,9.81,0,0,0,.56-2.06,2.86,2.86,0,0,0-.56-2.71q-.91-.94-3.93-1.41a8.63,8.63,0,0,0-4.14,0,2.37,2.37,0,0,0-1.5,2.07Zm-2.32-1.37a4.12,4.12,0,0,1,2.59-3.44,11.41,11.41,0,0,1,5.87-.23q4.14.66,5.61,2.3a4.9,4.9,0,0,1,1,4.38,10.93,10.93,0,0,1-.78,2.65,9.32,9.32,0,0,1-1.51,2.35c.51,0,1,.09,1.48.15s1,.14,1.46.23l4.05.65-.46,2.83-20.29-3.24.38-2.36,2.25.14a8.61,8.61,0,0,1-1.44-3.09,8.39,8.39,0,0,1-.2-3.32Z"/><path class="cls-3" d="M50.34,209.89a3.8,3.8,0,0,0,.18,3.11,5.38,5.38,0,0,0,3.18,1.73l1.37-5.67a1.24,1.24,0,0,0-.34-1.3,2.8,2.8,0,0,0-1.21-.55,2.22,2.22,0,0,0-2,.29,4.38,4.38,0,0,0-1.16,2.39Zm-2.51,0c0-.13.06-.28.1-.42q.8-3.28,2.36-4.47a4.4,4.4,0,0,1,3.9-.6A4.78,4.78,0,0,1,57,206a3.26,3.26,0,0,1,.44,2.88L55.9,215.2a4.23,4.23,0,0,0,3.31-.48,4.94,4.94,0,0,0,1.44-2.87c.17-.75.33-1.58.48-2.48s.26-1.76.36-2.58l1.93.19a11.27,11.27,0,0,1,0,2.85,26.23,26.23,0,0,1-.51,3q-.84,3.69-3,4.87c-1.41.79-3.46.84-6.16.17s-4.59-1.65-5.45-3a6.34,6.34,0,0,1-.51-5Z"/><path class="cls-3" d="M51.67,185.38,51.1,187c-.23.67-.44,1.27-.62,1.81l6.81,2.46,1.42-3.94a4.4,4.4,0,0,0,.29-3.1,3.8,3.8,0,0,0-2.44-1.78,3.65,3.65,0,0,0-3-.18,4.42,4.42,0,0,0-1.72,2.59c-.07.19-.13.38-.2.56Zm-2-1.91a7.64,7.64,0,0,1,2.8-4.07q1.78-1.08,5,.11a6.45,6.45,0,0,1,3.2,2.08,3.93,3.93,0,0,1,.46,3.28l.14,0a3.49,3.49,0,0,1,1.39-1.1,4.6,4.6,0,0,1,2.31-.33l6.79.4-1.09,3L64,186.36a3.12,3.12,0,0,0-1.83.39,2.5,2.5,0,0,0-1,1.36l-1.48,4,8,2.9-1,2.78-19.41-7c.18-.72.36-1.41.56-2.06s.42-1.35.68-2.11.58-1.65,1-2.7l.15-.42Z"/><path class="cls-3" d="M63.81,171a3.4,3.4,0,0,0-.19,3c.46.85,1.61,1.69,3.45,2.5s3.16,1.17,4.1,1a4.93,4.93,0,0,0,2.59-5.66c-.45-.85-1.59-1.68-3.41-2.48s-3.2-1.19-4.14-1a3.57,3.57,0,0,0-2.29,2.37,1.89,1.89,0,0,0-.11.25Zm-2.12-1.27q1.55-3.45,3.85-4.17t6.07,1c2.51,1.12,4.09,2.42,4.72,3.9s.41,3.35-.66,5.63-2.3,3.69-3.83,4.17-3.54.15-6-1-4.12-2.43-4.76-3.91-.43-3.36.64-5.63Z"/><path class="cls-3" d="M71.56,155.63a3.4,3.4,0,0,0-.42,3c.38.89,1.46,1.81,3.23,2.77a7,7,0,0,0,4,1.28,4.93,4.93,0,0,0,3-5.43c-.39-.89-1.46-1.81-3.2-2.75s-3.1-1.44-4.06-1.3a3.61,3.61,0,0,0-2.47,2.18l-.13.24Zm-2-1.43q1.8-3.31,4.17-3.85t6,1.52c2.41,1.32,3.88,2.74,4.39,4.26s.15,3.37-1.1,5.56-2.58,3.49-4.15,3.86-3.54-.14-5.93-1.51-3.91-2.75-4.43-4.28-.17-3.38,1.08-5.56Z"/><path class="cls-3" d="M79.84,137.54a4.29,4.29,0,0,1,1.91-1.62,3.37,3.37,0,0,1,2.3,0,11.19,11.19,0,0,1,.08-3.45,7,7,0,0,1,1.12-2.71,3.94,3.94,0,0,1,2.52-1.8,4.17,4.17,0,0,1,3,.9l9,6.27-1.63,2.32-8.28-5.79a2.86,2.86,0,0,0-1.8-.65,2,2,0,0,0-1.41,1,4.18,4.18,0,0,0-.73,1.9,22.12,22.12,0,0,0-.09,3l8.51,5.94-1.59,2.28-8.29-5.79a2.67,2.67,0,0,0-1.84-.65,2,2,0,0,0-1.36,1,4.08,4.08,0,0,0-.72,1.87,19.73,19.73,0,0,0-.13,3.05l8.54,6L87.31,153l-12-8.36,1.37-2,1.89,1.14a12.86,12.86,0,0,1,.08-3.48,7.21,7.21,0,0,1,1.15-2.81Z"/><path class="cls-3" d="M93.59,110.81c1-1.1,2-2.21,3.08-3.31s2.07-2.12,3.08-3l1.62,1.68-5.54,6a1.54,1.54,0,0,0-.54,1.23,2.2,2.2,0,0,0,.84,1.28l3.05,2.79,5.88-6.42,1.78,1.64L101,119.1l3.88,3.56a2.22,2.22,0,0,0,1.35.73,1.6,1.6,0,0,0,1.18-.65l5.53-6,1.8,1.44c-.84,1.09-1.77,2.21-2.77,3.34s-2,2.25-3,3.35a4.43,4.43,0,0,1-2.79,1.56,3.56,3.56,0,0,1-2.75-1l-9.84-9a3.59,3.59,0,0,1-1.23-2.67,4.47,4.47,0,0,1,1.3-2.9Z"/><path class="cls-3" d="M110,102.17l.28-.25c.73-.66,1.53-1.34,2.4-2s1.7-1.31,2.48-1.84l1.26,1.69-2.09,1.82c-.7.62-1.38,1.23-2,1.86a8.6,8.6,0,0,0-1.81,2c-.25.47-.11,1,.43,1.52a1.5,1.5,0,0,0,1.29.63,5.51,5.51,0,0,0,1.53-.64l3.7-2.09a5.13,5.13,0,0,1,2.8-.8,4,4,0,0,1,2.49,1.46c1.2,1.26,1.62,2.45,1.25,3.56a10.12,10.12,0,0,1-3,3.85c-.38.36-1,.87-1.74,1.54a33.8,33.8,0,0,1-2.78,2.12l-1.32-1.71c.53-.42,1.12-.91,1.75-1.48s1.3-1.17,2-1.83A9.47,9.47,0,0,0,121,109a1.69,1.69,0,0,0-1.68-2.19,5.81,5.81,0,0,0-1.57.7l-3.66,2a4.59,4.59,0,0,1-2.84.72,4.23,4.23,0,0,1-2.43-1.48q-1.68-1.77-1.26-3.33a7.92,7.92,0,0,1,2.41-3.34Z"/><path class="cls-3" d="M122.93,90.88a17.13,17.13,0,0,1,1.95-1.38,11.38,11.38,0,0,1,2.28-1.11l.87,1.68c-.56.4-1.13.82-1.69,1.25s-1.06.8-1.46,1.13a4.34,4.34,0,0,0-2,3c0,1,.58,2.3,1.86,3.84s2.37,2.42,3.38,2.59a4.34,4.34,0,0,0,3.38-1.35c.37-.29.85-.71,1.44-1.25a21.21,21.21,0,0,0,1.69-1.73l1.44,1.34a12.87,12.87,0,0,1-1.51,2,18.4,18.4,0,0,1-1.92,1.83q-2.91,2.43-5.27,2.08c-1.58-.24-3.23-1.44-5-3.61s-2.63-4-2.54-5.62,1.11-3.18,3.08-4.74Z"/><path class="cls-3" d="M137.62,89.91a1.78,1.78,0,0,0-.81,1.22,2,2,0,0,0,.46,1.29l.44.64A2,2,0,0,0,139,94a2.24,2.24,0,0,0,1.59-.53,6.7,6.7,0,0,0,1.64-1.73,8.45,8.45,0,0,0,1.22-2.8L142,86.85l-4.36,3.06Zm-2.17-8.41a5.75,5.75,0,0,1,3.74-1.37c1.13.08,2.22.86,3.26,2.34l5.84,8.32-1.86,1.31-1.59-1.7a9.23,9.23,0,0,1-.92,2.73,7.79,7.79,0,0,1-2.38,2.73,4.77,4.77,0,0,1-3.25,1,4,4,0,0,1-2.77-1.8l-.87-1.25A3.45,3.45,0,0,1,134,91a4.51,4.51,0,0,1,2-2.53l4.8-3.37-.65-.93A2.34,2.34,0,0,0,138.5,83a3.6,3.6,0,0,0-2.16.89c-.61.43-1.34,1-2.21,1.69l-2.65,2.16L130,86.13c.77-.76,1.65-1.58,2.64-2.43a34.36,34.36,0,0,1,2.77-2.2Z"/><path class="cls-3" d="M151.57,74.19a5.24,5.24,0,0,0-1.68,1.61,15.52,15.52,0,0,0-1.39,2.67l3.78,6.38c.83-.24,1.58-.47,2.26-.7a10.62,10.62,0,0,0,2-.88,2.86,2.86,0,0,0,1.72-2.16c.09-.87-.38-2.18-1.43-3.92A8.38,8.38,0,0,0,154.11,74a2.34,2.34,0,0,0-2.54.17Zm-.43-2.67a4.13,4.13,0,0,1,4.3-.2,11.34,11.34,0,0,1,3.93,4.37q2.13,3.6,1.81,5.79A4.92,4.92,0,0,1,158.43,85a10.69,10.69,0,0,1-2.53,1.09,9.48,9.48,0,0,1-2.77.34c.29.41.57.82.83,1.23s.51.83.75,1.27l2.08,3.53L154.33,94,143.87,76.27l2.06-1.21,1.32,1.82a8.72,8.72,0,0,1,1.46-3.08,8.45,8.45,0,0,1,2.43-2.28Z"/><path class="cls-3" d="M165.83,66.49a3.81,3.81,0,0,0-2.28,2.12,5.38,5.38,0,0,0,.7,3.56l5.24-2.57a1.23,1.23,0,0,0,.77-1.09,2.76,2.76,0,0,0-.34-1.29,2.2,2.2,0,0,0-1.51-1.36,4.35,4.35,0,0,0-2.58.63Zm-1.6-1.94a3.54,3.54,0,0,1,.39-.19c2-1,3.68-1.34,4.95-1a4.39,4.39,0,0,1,3,2.62,4.88,4.88,0,0,1,.59,3.15,3.29,3.29,0,0,1-1.94,2.18l-5.88,2.88a4.25,4.25,0,0,0,2.48,2.25,5,5,0,0,0,3.13-.73c.69-.34,1.42-.74,2.21-1.21s1.53-.92,2.22-1.36l1.08,1.6a10.77,10.77,0,0,1-2.19,1.82A22.65,22.65,0,0,1,171.61,78c-2.25,1.14-4.12,1.42-5.63.83s-2.86-2.12-4.06-4.63-1.66-4.58-1.2-6.09a6.32,6.32,0,0,1,3.51-3.57Z"/><path class="cls-3" d="M185.55,51.87l-1.58.57-1.79.68,2.44,6.81,3.95-1.41a4.35,4.35,0,0,0,2.57-1.76,3.75,3.75,0,0,0-.18-3,3.66,3.66,0,0,0-1.76-2.41,4.43,4.43,0,0,0-3.09.33l-.56.2Zm.17-2.79a7.63,7.63,0,0,1,4.92-.43q2,.69,3.1,3.91a6.52,6.52,0,0,1,.44,3.8,4,4,0,0,1-2.24,2.44l.05.14a3.49,3.49,0,0,1,1.74.37,4.48,4.48,0,0,1,1.72,1.57l4,5.48-3,1.08L192.64,62a3.1,3.1,0,0,0-1.47-1.17,2.53,2.53,0,0,0-1.68.11l-4,1.4,2.88,8-2.79,1-7-19.43c.67-.32,1.31-.62,1.94-.88s1.31-.54,2.06-.82l2.69-1,.42-.15Z"/><path class="cls-3" d="M204.34,52.05a3.38,3.38,0,0,0-2.45,1.8c-.37.89-.28,2.31.26,4.24s1.12,3.19,1.88,3.78a4.94,4.94,0,0,0,6-1.61c.37-.89.28-2.3-.26-4.21s-1.12-3.22-1.89-3.81a3.56,3.56,0,0,0-3.28-.25l-.27.06ZM204,49.62c2.43-.68,4.31-.58,5.67.31s2.37,2.66,3.06,5.34.74,4.69,0,6.12-2.32,2.46-4.76,3.08-4.31.58-5.66-.29-2.37-2.64-3-5.31-.75-4.72,0-6.16,2.32-2.47,4.75-3.09Z"/><path class="cls-3" d="M221.15,48.25a3.39,3.39,0,0,0-2.59,1.59c-.43.86-.46,2.28-.07,4.25s.86,3.27,1.57,3.92a5,5,0,0,0,6.12-1.12,7.06,7.06,0,0,0,.08-4.22c-.34-2-.87-3.3-1.58-4a3.59,3.59,0,0,0-3.26-.52l-.27,0ZM221,45.79q3.71-.72,5.62.76c1.28,1,2.15,2.85,2.63,5.58s.36,4.73-.49,6.1-2.51,2.26-5,2.68-4.34.24-5.61-.74-2.15-2.82-2.62-5.53-.37-4.77.48-6.14,2.5-2.28,5-2.71Z"/><path class="cls-3" d="M240.39,43.12a4.16,4.16,0,0,1,2.46.45,3.31,3.31,0,0,1,1.44,1.79A11.39,11.39,0,0,1,247,43.22a7,7,0,0,1,2.81-.85,3.9,3.9,0,0,1,3,.79A4.2,4.2,0,0,1,254,46.07L254.91,57l-2.82.22-.81-10.07a3,3,0,0,0-.64-1.81,2,2,0,0,0-1.68-.44,4.19,4.19,0,0,0-1.93.65,21.09,21.09,0,0,0-2.4,1.86l.83,10.35-2.77.22-.81-10.08a2.71,2.71,0,0,0-.67-1.84,2.09,2.09,0,0,0-1.64-.41,4.29,4.29,0,0,0-1.9.64,19.32,19.32,0,0,0-2.43,1.84l.83,10.38-2.86.23L232,44.18l2.39-.19.32,2.19A12.46,12.46,0,0,1,237.49,44a7.12,7.12,0,0,1,2.9-.91Z"/><path class="cls-3" d="M269.74,36.71c1.49.07,3,.16,4.51.26s3,.25,4.32.43l-.27,2.32-8.18-.42a1.57,1.57,0,0,0-1.29.37,2.24,2.24,0,0,0-.45,1.46l-.21,4.13,8.69.44-.12,2.42-8.69-.45-.27,5.26a2.26,2.26,0,0,0,.3,1.51,1.57,1.57,0,0,0,1.24.49l8.19.42,0,2.3c-1.38.05-2.83,0-4.34,0s-3-.12-4.51-.2a4.43,4.43,0,0,1-3-1.15,3.55,3.55,0,0,1-1-2.76l.67-13.33a3.55,3.55,0,0,1,1.28-2.64,4.41,4.41,0,0,1,3.06-.85Z"/><path class="cls-3" d="M286.82,43.84l.37.06c1,.13,2,.32,3.11.54s2.1.47,3,.74l-.5,2-2.73-.44c-.92-.15-1.83-.28-2.74-.4a8.72,8.72,0,0,0-2.69-.12c-.52.11-.82.54-.9,1.3a1.5,1.5,0,0,0,.35,1.39,5.21,5.21,0,0,0,1.46.77l4,1.52a5.09,5.09,0,0,1,2.41,1.65,4,4,0,0,1,.46,2.84q-.31,2.61-1.95,3.24a10.09,10.09,0,0,1-4.86.15c-.52,0-1.28-.17-2.3-.35s-2.15-.44-3.41-.79l.48-2.1c.66.14,1.42.28,2.26.4s1.73.25,2.67.37a9.64,9.64,0,0,0,3.29.07,1.36,1.36,0,0,0,1-1.34,1.38,1.38,0,0,0-.43-1.36,5.65,5.65,0,0,0-1.54-.75l-3.91-1.52A4.59,4.59,0,0,1,281.36,50a4.21,4.21,0,0,1-.4-2.81c.19-1.61.77-2.64,1.76-3.09a7.68,7.68,0,0,1,4.1-.28Z"/><path class="cls-3" d="M303.79,46.6a16.72,16.72,0,0,1,2.3.62,11.11,11.11,0,0,1,2.31,1.05L307.66,50q-1-.27-2-.51c-.69-.17-1.29-.3-1.81-.4a4.31,4.31,0,0,0-3.61.4c-.82.62-1.41,1.91-1.77,3.88s-.35,3.37.16,4.25a4.34,4.34,0,0,0,3.2,1.74c.45.1,1.08.2,1.88.31a21.75,21.75,0,0,0,2.41.2l-.11,2a12.77,12.77,0,0,1-2.51.12,17.78,17.78,0,0,1-2.64-.31c-2.48-.46-4.14-1.37-5-2.73s-1-3.41-.39-6.13,1.41-4.59,2.7-5.54,3.16-1.17,5.62-.65Z"/><path class="cls-3" d="M313.89,57.28a1.76,1.76,0,0,0-1.46.16,2,2,0,0,0-.7,1.17l-.21.76a2,2,0,0,0,.09,1.63,2.25,2.25,0,0,0,1.43.89,6.77,6.77,0,0,0,2.37.16,8.51,8.51,0,0,0,2.94-.85l.68-2.51-5.14-1.41Zm5.09-7a5.85,5.85,0,0,1,3.45,2c.65.92.74,2.25.27,4L320,66.06l-2.19-.6.29-2.31a8.84,8.84,0,0,1-2.69,1,7.7,7.7,0,0,1-3.62-.09A4.74,4.74,0,0,1,309,62.22a4,4,0,0,1-.37-3.28l.4-1.47a3.43,3.43,0,0,1,1.75-2.32A4.44,4.44,0,0,1,314,55l5.66,1.54.3-1.1a2.33,2.33,0,0,0-.11-1.95,3.6,3.6,0,0,0-2.07-1.09c-.72-.19-1.63-.4-2.72-.63l-3.35-.66L312,49c1.08.1,2.27.26,3.56.47s2.44.46,3.46.73Z"/><path class="cls-3" d="M334.82,58a5.3,5.3,0,0,0-2.31-.26,15.66,15.66,0,0,0-2.94.63l-2.51,7c.72.49,1.38.92,2,1.3a11.33,11.33,0,0,0,1.92.93,2.86,2.86,0,0,0,2.77-.05c.73-.48,1.43-1.68,2.11-3.6a8.58,8.58,0,0,0,.74-4.08A2.37,2.37,0,0,0,334.82,58Zm1.78-2a4.13,4.13,0,0,1,2.9,3.19,11.36,11.36,0,0,1-.86,5.81c-.94,2.63-2.05,4.32-3.31,5.08a4.88,4.88,0,0,1-4.48.16,10.58,10.58,0,0,1-2.46-1.26,9.17,9.17,0,0,1-2-1.91c-.13.49-.27,1-.42,1.42s-.31.92-.5,1.39l-1.39,3.86-2.69-1,6.95-19.34,2.25.81L330,56.35a8.64,8.64,0,0,1,3.3-.84,8.47,8.47,0,0,1,3.3.42Z"/><path class="cls-3" d="M349.74,64a3.78,3.78,0,0,0-3.08-.4,5.38,5.38,0,0,0-2.3,2.81l5.32,2.39A1.24,1.24,0,0,0,351,68.7a2.77,2.77,0,0,0,.77-1.09,2.22,2.22,0,0,0,.09-2A4.38,4.38,0,0,0,349.74,64Zm.48-2.47.39.18q3.09,1.39,4,3.15a4.39,4.39,0,0,1-.13,4,4.8,4.8,0,0,1-2.05,2.45,3.25,3.25,0,0,1-2.92-.1l-6-2.69a4.28,4.28,0,0,0-.15,3.35,5,5,0,0,0,2.56,1.94c.7.31,1.48.63,2.35.94s1.68.59,2.46.83l-.54,1.86a11.08,11.08,0,0,1-2.8-.53,26.38,26.38,0,0,1-2.82-1q-3.46-1.51-4.23-3.81c-.51-1.53-.19-3.56,1-6.09s2.46-4.2,3.92-4.8a6.31,6.31,0,0,1,5,.42Z"/><path class="cls-3" d="M373.59,69.86,372.15,69l-1.67-1-3.69,6.24,3.61,2.13a4.36,4.36,0,0,0,3,.86,3.78,3.78,0,0,0,2.2-2.06,3.67,3.67,0,0,0,.73-2.89,4.46,4.46,0,0,0-2.23-2.17l-.51-.3Zm2.26-1.65a7.63,7.63,0,0,1,3.47,3.51c.49,1.31.14,2.93-1,4.88a6.37,6.37,0,0,1-2.65,2.76,3.93,3.93,0,0,1-3.3-.16l-.08.13a3.42,3.42,0,0,1,.83,1.57,4.6,4.6,0,0,1-.11,2.33l-1.65,6.6-2.76-1.63,1.76-6.44a3.07,3.07,0,0,0,0-1.87,2.55,2.55,0,0,0-1.15-1.23l-3.64-2.19-4.34,7.34-2.55-1.51,10.52-17.76q1,.46,1.92.93c.6.32,1.24.67,1.94,1.07s1.52.88,2.47,1.44l.39.23Z"/><path class="cls-3" d="M385.49,84.48a3.37,3.37,0,0,0-2.94-.75c-.93.29-2,1.26-3.11,2.92s-1.73,2.89-1.7,3.85a4.92,4.92,0,0,0,5.07,3.6c.92-.29,1.95-1.25,3.08-2.88s1.76-2.92,1.72-3.89a3.54,3.54,0,0,0-1.9-2.69l-.22-.16Zm1.64-1.84q3.11,2.14,3.38,4.56T388.35,93q-2.37,3.39-4.71,3.91t-5.41-1.7c-2.06-1.44-3.19-3-3.38-4.55s.52-3.5,2.13-5.73,3.16-3.59,4.74-3.94,3.38.2,5.41,1.68Z"/><path class="cls-3" d="M399.09,95a3.38,3.38,0,0,0-2.87-1c-1,.22-2.05,1.1-3.33,2.66s-2,2.74-2,3.71a4.94,4.94,0,0,0,4.77,4c.94-.21,2-1.09,3.3-2.63s2-2.77,2-3.73a3.54,3.54,0,0,0-1.68-2.84l-.21-.18Zm1.79-1.7q2.91,2.4,3,4.81t-2.62,5.58q-2.61,3.19-5,3.52T391,105q-2.92-2.39-3-4.79t2.59-5.55c1.76-2.14,3.43-3.32,5-3.55s3.36.47,5.27,2.11Z"/><path class="cls-3" d="M415.33,106.5a4.25,4.25,0,0,1,1.22,2.17,3.3,3.3,0,0,1-.46,2.25,11.56,11.56,0,0,1,3.37.73,6.94,6.94,0,0,1,2.46,1.62,3.85,3.85,0,0,1,1.29,2.8,4.13,4.13,0,0,1-1.45,2.82l-7.84,7.64-2-2,7.24-7a2.88,2.88,0,0,0,1-1.64,2,2,0,0,0-.73-1.57,4.11,4.11,0,0,0-1.73-1.08,20.66,20.66,0,0,0-3-.66l-7.44,7.24-1.94-2,7.25-7a2.72,2.72,0,0,0,1-1.69,2,2,0,0,0-.73-1.52,4.14,4.14,0,0,0-1.7-1.06,18.26,18.26,0,0,0-3-.7L400.73,113l-2-2,10.45-10.18,1.67,1.71-1.48,1.65a12.08,12.08,0,0,1,3.4.73,7,7,0,0,1,2.56,1.66Z"/><g id="flat"><path class="cls-4" d="M234.48,124.34H397.31V392.89H234.48Z"/><path class="cls-5" d="M317.41,400.56l-12.15-7.67-18.19-69.45a31.13,31.13,0,0,0-8.46-14.4l-36.38-35.35L195,273.54v24.87H229.1L258,328.24l15.75,64.65v9.95h42.94a1.28,1.28,0,0,0,1.31-1.25,1.23,1.23,0,0,0-.58-1Z"/><path class="cls-6" d="M229.1,198.94H177.39A3.35,3.35,0,0,0,174,202.2v71.34h68.28V211.37C242.23,204.5,236.35,198.94,229.1,198.94Z"/><path class="cls-5" d="M174,273.54l-5.26,44.76L89.91,340.94,101.8,380a1.34,1.34,0,0,0,2.52,0l4.41-13.18,72.45-21.35c10-2.94,17.15-11.18,18.3-21l6-51Z"/><path class="cls-7" d="M234.48,219.09l12.38,23.44L254,256.08c5.89,11.15,20.21,15.67,32,10.1a23.42,23.42,0,0,0,9.09-7.55l29.34-41.09-16.55-13.63-32.34,44.76L267,232l-11.54-22.57Z"/><path class="cls-7" d="M151.65,214.73l-12.36,29.89c-4.51,10.89,1.17,23.19,12.68,27.46a23.64,23.64,0,0,0,14.64.55L228,255a4.94,4.94,0,0,0,3.55-6.07L228,236.46a5.31,5.31,0,0,0-6.46-3.49l-.39.12-8.05,2.76L211.6,233a3.31,3.31,0,0,0-4.32-1.41,3.05,3.05,0,0,0-1.82,2.75v3.58l-42,10.77,10.35-24.42Z"/><path class="cls-6" d="M184.53,198.94l-18,42.5-.3-.11-22.29-7.87,7.74-18.73c3.94-9.53,13.65-15.8,24.46-15.79Z"/><path class="cls-6" d="M267,232l-.53.24-19.64,10.26-23-43.59h13.92a19.79,19.79,0,0,1,17.73,10.52Z"/><path class="cls-7" d="M205.6,201.42V179h10.5v22.38a5.26,5.26,0,0,1-10.5,0Z"/><path class="cls-8" d="M210.85,186.5h5.25v9.95h0a5.12,5.12,0,0,1-5.25-5v-5Z"/><path class="cls-7" d="M205.46,169.1h18.38v17.4A7.67,7.67,0,0,1,216,194,10.23,10.23,0,0,1,205.46,184Z"/><path class="cls-5" d="M231.72,161.64v5a7.67,7.67,0,0,1-7.88,7.46h-10.5a10.24,10.24,0,0,1-10.51,10h-2.62V172.83c0-6.18,5.29-11.19,11.82-11.19Z"/><ellipse class="cls-7" cx="205.46" cy="184.02" rx="5.25" ry="4.97"/><path class="cls-9" d="M397.31,392.89l-99.8,24.87V149.2l99.8-24.86Z"/><ellipse class="cls-10" cx="315.9" cy="276.02" rx="7.88" ry="7.46"/></g><path class="cls-11" d="M514.67,260.72c2.9-6.11,2.58-16-.7-21.61s-4.12-14.62-2.08-20.64.55-15.11-3.39-19.69-5.9-12.8-4.64-18.73-1.36-14.13-5.84-17.77-7.46-11-7-16.81-3.14-13.11-8-15.86a19.75,19.75,0,0,1-9-14.89c-.2-5.64-4.78-12-10-13.93a18.63,18.63,0,0,1-10.85-13c-.91-5.42-6.28-10.94-11.67-12s-10.77-6-12.42-11.06S421.45,55,416,54.65s-11.44-4.34-13.74-9.14-8.83-8.59-14.3-8.17S376,34.56,373.12,30.13s-9.88-7.36-15.25-6.26-12.17-1.26-15.62-5.29-10.75-6.07-15.94-4.33-12,.43-16.05-3.44c-3.76-3.61-11.47-4.75-16.39-2.42a17.92,17.92,0,0,1-16.51-1.45c-4.38-3.15-11.72-3.18-16.58-.5-5.7,3.12-11.85,3.13-16.61.54s-12.34-2-16.51,1.44-11.51,4.42-16.39,2.39a15.47,15.47,0,0,0-16.11,3.24c-3.72,3.82-10.68,5.69-16,4.31s-12.47,1-15.64,5.28-9.86,7-15.28,6.24-12.25,2.53-14.83,7.2-8.87,8.17-14.34,8.16-11.81,4.12-13.77,9.12S97.62,63.72,92.2,64.45,81,70.21,79.74,75.51a18.29,18.29,0,0,1-11.7,12C62.73,89,57.72,95,57.15,100.5a19.21,19.21,0,0,1-10,14c-5.06,2.3-9.23,9.15-9.07,14.91A20.7,20.7,0,0,1,30,145.23c-4.71,3.18-7.93,10.92-7,16.84s-1.7,13.63-5.87,17.8-6.38,12.72-4.68,18.76.14,14.6-3.42,19.73-4.61,14.58-2.11,20.7S9,254.58,6.19,260.72"/><path class="cls-11" d="M515.08,259.78c-2.83,6.14-3.15,15.59-.73,21.67s1.52,15.64-2.11,20.71-5.07,13.74-3.44,19.75-.45,14.67-4.69,18.78-6.74,11.93-5.88,17.81-2.3,13.66-7,16.84a20.75,20.75,0,0,0-8.08,15.88c.16,5.75-4,12.61-9.08,14.92a19.19,19.19,0,0,0-10,13.94c-.58,5.55-5.59,11.52-10.91,13s-10.38,6.76-11.71,12-7,10.37-12.47,11.05-11.16,5.13-13.15,10.09-8.3,9.19-13.79,9.12-11.72,3.55-14.34,8.17-9.41,8-14.85,7.19-12.08,2-15.28,6.24-10.36,6.7-15.65,5.27-12.25.49-16,4.3a15.43,15.43,0,0,1-16.11,3.24c-4.89-2-12.21-.95-16.4,2.39s-11.76,4.05-16.51,1.42-11.72-2.17-16.58.47c-5.71,3.13-12.25,2.71-16.62-.43a17.93,17.93,0,0,0-16.51-1.47c-4.92,2.34-12.64,1.19-16.39-2.42a16.93,16.93,0,0,0-16.06-3.44c-5.18,1.73-12.51-.26-15.93-4.34s-10.27-6.35-15.63-5.3-12.38-1.78-15.24-6.26-9.36-7.59-14.81-7.22-12-3.34-14.3-8.18-8.28-8.78-13.73-9.14S93.6,460.89,92,455.74s-7.06-9.93-12.41-11.06-10.75-6.6-11.67-12a18.59,18.59,0,0,0-10.84-13c-5.19-1.89-9.78-8.3-10-13.94a19.74,19.74,0,0,0-9-14.89c-4.89-2.74-8.58-10-8-15.86s-2.53-13.11-6.95-16.81-7.16-11.8-5.83-17.77-.76-14.08-4.64-18.72S7.14,308.07,9.25,302s1.14-15-2.07-20.64-3.6-15.48-.69-21.59"/><path class="cls-12" d="M415.54,119.42c-18.88-6.39-40,2.43-47.74,20a34.06,34.06,0,0,0-.68,26.12A10.4,10.4,0,0,1,365,176.24l-4.82,5.34a2.33,2.33,0,0,0,2.52,3.72l10.63-2.87a12.2,12.2,0,0,1,9.34,1.28,39.11,39.11,0,0,0,9.6,4.06c18.34,5,38-3.82,45.43-20.48C446.24,148.21,436.07,126.37,415.54,119.42Z"/><path class="cls-13" d="M409.4,154.15c-4.67,1.36-5.49,3.19-6.78,6.41-.48,1.18-1.68,2.31-4.89,1.15-2.68-1-3.22-2.23-1.92-5.45a12.51,12.51,0,0,1,8.18-7.83c2.85-1,7.29-1.55,8.64-4.9,1.15-2.84-.92-5.15-4.19-6.34-6.67-2.41-7.16,2.88-10.69,1.61-1.76-.64-3.47-2.54-2.5-5,1.35-3.35,7.4-6.84,16.23-3.64,8.37,3,12.16,9.43,9.81,15.25S411.69,153.48,409.4,154.15ZM399.19,172.6a5.54,5.54,0,0,1-7,2.94,5,5,0,0,1-3.05-6.56,5.47,5.47,0,0,1,6.9-3A5.07,5.07,0,0,1,399.19,172.6Z"/><path class="cls-14" d="M376,145.09a12.45,12.45,0,0,0-6.79,10.58l-.07,3.14a63.66,63.66,0,0,1-5.83,2.63l-4.62-6.91A13.12,13.12,0,0,0,350,149a42.26,42.26,0,0,1-6.62-1.56c-19.83-7.17-29.77-28.19-22.2-47s29.79-28.18,49.59-21,29.77,28.19,22.2,47A36.86,36.86,0,0,1,376,145.09Z"/><path class="cls-13" d="M354.56,134.06a5.64,5.64,0,0,1-7,3,5.09,5.09,0,0,1-3.15-6.67,5.51,5.51,0,0,1,7.05-3A5.11,5.11,0,0,1,354.56,134.06Zm3.55-12.37c-.78,1.94-3.37,1.94-5,1.37-2.12-.77-3.58-2.23-2.79-4.17,3-7.47,6.4-18.53,9.41-26,1-2.45,3.66-3.06,6.38-2.08s4.21,3.1,3.23,5.55C366.37,103.83,361.12,114.22,358.11,121.69Z"/></g></g></svg>