<svg xmlns="http://www.w3.org/2000/svg" viewBox="0 0 1161.76 357.53"><defs><style>.cls-1{fill:#fff;opacity:0.67;}.cls-2{fill:none;stroke:#696b7b;stroke-miterlimit:8;stroke-width:4px;}</style></defs><g id="Слой_2" data-name="Слой 2"><g id="Слой_1-2" data-name="Слой 1"><path class="cls-1" d="M1147.87,166.12a31.92,31.92,0,0,0,0,45.15,31.92,31.92,0,0,1-.06,45.15c-12.48,12.45-13.07,32,0,45.15s10.35,32.5-2.36,44.72-32.7,12.43-45.15-.05a31.92,31.92,0,0,0-45.15-.06,31.92,31.92,0,0,1-45.15-.05,31.93,31.93,0,0,0-45.15-.06A31.92,31.92,0,0,1,919.6,346a31.92,31.92,0,0,0-45.15,0,31.92,31.92,0,0,1-45.15-.06,31.93,31.93,0,0,0-45.15-.05,31.93,31.93,0,0,1-45.15-.05,31.92,31.92,0,0,0-45.15-.06,31.92,31.92,0,0,1-45.15-.05,31.92,31.92,0,0,0-45.15-.05,31.93,31.93,0,0,1-45.15-.06,31.93,31.93,0,0,0-45.15,0,31.92,31.92,0,0,1-45.15-.06,31.93,31.93,0,0,0-45.15-.05,31.93,31.93,0,0,1-45.15-.05,31.93,31.93,0,0,0-45.15-.06,31.92,31.92,0,0,1-45.15-.05,31.92,31.92,0,0,0-45.15,0,31.92,31.92,0,0,1-45.15-.06,31.93,31.93,0,0,0-45.15-.05,31.93,31.93,0,0,1-45.15-.05A31.92,31.92,0,0,0,61.75,345C49.27,357.46,30,356.4,16.6,345A58.56,58.56,0,0,1,9.88,337c-10.4-14.25-11.28-32.48,2-45.48,11.13-10.88,12.87-32.73.41-45.21a31.92,31.92,0,0,1,.06-45.15A31.93,31.93,0,0,0,12.42,156C0,143.56-1.4,122.55,12.47,110.89S26.12,79.14,14.14,66.2,3.46,33.6,15.89,21.09C20,16.94,26.18,12,31.12,9.53c14.41-7.2,33.5-10.74,46,1.74a31.92,31.92,0,0,0,45.15.05,31.93,31.93,0,0,1,45.15.06,31.93,31.93,0,0,0,45.15,0,31.93,31.93,0,0,1,45.15.05,31.92,31.92,0,0,0,45.15.06,31.93,31.93,0,0,1,45.15.05,31.93,31.93,0,0,0,45.15.06,31.92,31.92,0,0,1,45.15,0,31.91,31.91,0,0,0,45.14.05,31.92,31.92,0,0,1,45.15.06,31.93,31.93,0,0,0,45.15,0,31.93,31.93,0,0,1,45.15.05A31.92,31.92,0,0,0,664,12a31.92,31.92,0,0,1,45.15,0,31.92,31.92,0,0,0,45.15.05,31.93,31.93,0,0,1,45.15.06,31.92,31.92,0,0,0,45.15,0,31.92,31.92,0,0,1,45.15.06,31.93,31.93,0,0,0,45.15,0,31.93,31.93,0,0,1,45.15.05,31.92,31.92,0,0,0,45.15.06,31.92,31.92,0,0,1,45.15,0c10.48,12.29,20.34,22.87,36.22,9.48,13.48-11.36,26.44-10.54,38.74,2.09,1.53,1.57,4.53,4.74,6,6.33,12.06,12.86,10.91,33.5-2,45.48s-15.14,31.11-1.74,45.11C1160.6,134.55,1160.35,153.67,1147.87,166.12Z"/><path class="cls-2" d="M1147.87,166.12a31.92,31.92,0,0,0,0,45.15,31.92,31.92,0,0,1-.06,45.15c-12.48,12.45-13.07,32,0,45.15s10.35,32.5-2.36,44.72-32.7,12.43-45.15-.05a31.92,31.92,0,0,0-45.15-.06,31.92,31.92,0,0,1-45.15-.05,31.93,31.93,0,0,0-45.15-.06A31.92,31.92,0,0,1,919.6,346a31.92,31.92,0,0,0-45.15,0,31.92,31.92,0,0,1-45.15-.06,31.93,31.93,0,0,0-45.15-.05,31.93,31.93,0,0,1-45.15-.05,31.92,31.92,0,0,0-45.15-.06,31.92,31.92,0,0,1-45.15-.05,31.92,31.92,0,0,0-45.15-.05,31.93,31.93,0,0,1-45.15-.06,31.93,31.93,0,0,0-45.15,0,31.92,31.92,0,0,1-45.15-.06,31.93,31.93,0,0,0-45.15-.05,31.93,31.93,0,0,1-45.15-.05,31.93,31.93,0,0,0-45.15-.06,31.92,31.92,0,0,1-45.15-.05,31.92,31.92,0,0,0-45.15,0,31.92,31.92,0,0,1-45.15-.06,31.93,31.93,0,0,0-45.15-.05,31.93,31.93,0,0,1-45.15-.05A31.92,31.92,0,0,0,61.75,345C49.27,357.46,30,356.4,16.6,345A58.56,58.56,0,0,1,9.88,337c-10.4-14.25-11.28-32.48,2-45.48,11.13-10.88,12.87-32.73.41-45.21a31.92,31.92,0,0,1,.06-45.15A31.93,31.93,0,0,0,12.42,156C0,143.56-1.4,122.55,12.47,110.89S26.12,79.14,14.14,66.2,3.46,33.6,15.89,21.09C20,16.94,26.18,12,31.12,9.53c14.41-7.2,33.5-10.74,46,1.74a31.92,31.92,0,0,0,45.15.05,31.93,31.93,0,0,1,45.15.06,31.93,31.93,0,0,0,45.15,0,31.93,31.93,0,0,1,45.15.05,31.92,31.92,0,0,0,45.15.06,31.93,31.93,0,0,1,45.15.05,31.93,31.93,0,0,0,45.15.06,31.92,31.92,0,0,1,45.15,0,31.91,31.91,0,0,0,45.14.05,31.92,31.92,0,0,1,45.15.06,31.93,31.93,0,0,0,45.15,0,31.93,31.93,0,0,1,45.15.05A31.92,31.92,0,0,0,664,12a31.92,31.92,0,0,1,45.15,0,31.92,31.92,0,0,0,45.15.05,31.93,31.93,0,0,1,45.15.06,31.92,31.92,0,0,0,45.15,0,31.92,31.92,0,0,1,45.15.06,31.93,31.93,0,0,0,45.15,0,31.93,31.93,0,0,1,45.15.05,31.92,31.92,0,0,0,45.15.06,31.92,31.92,0,0,1,45.15,0c10.48,12.29,20.34,22.87,36.22,9.48,13.48-11.36,26.44-10.54,38.74,2.09,1.53,1.57,4.53,4.74,6,6.33,12.06,12.86,10.91,33.5-2,45.48s-15.14,31.11-1.74,45.11C1160.6,134.55,1160.35,153.67,1147.87,166.12Z"/></g></g></svg>