<svg xmlns="http://www.w3.org/2000/svg" viewBox="0 0 258 55"><defs><style>.cls-1{fill:#9c7884;stroke:#fff;stroke-miterlimit:8;stroke-width:2px;}.cls-2{fill:#fff;}</style></defs><g id="Слой_2" data-name="Слой 2"><g id="Слой_1-2" data-name="Слой 1"><rect class="cls-1" x="1" y="1" width="256" height="53" rx="20.89"/><path class="cls-2" d="M48.27,39.12l-2.42-8.81c-.65-2-1.76-2.83-3.56-2.83l-5.83,0V39.12H32.41V10.83a83.15,83.15,0,0,1,9.88-.37c6.64,0,9.34,1.85,9.34,8.2,0,4.47-1.43,6.73-5.2,7.22v.2A5.37,5.37,0,0,1,50,30.18l2.67,8.94ZM42.2,24c4,0,5.29-1.15,5.29-5S46.18,14,42.2,14C40,14,38,14,36.46,14V24Z"/><path class="cls-2" d="M73.49,35.8l.37,2.63a23.62,23.62,0,0,1-7.92,1.19c-7,0-9.63-2.83-9.63-10.54,0-7.91,2.79-10.5,9.26-10.5,6.24,0,8.78,2.34,8.78,6.73,0,3.6-1.52,5.74-4.88,5.74h-9c.41,4.34,2.13,5.24,6,5.24A68.52,68.52,0,0,0,73.49,35.8ZM60.41,28h8c1.68,0,2-1.43,2-2.66,0-2.42-1.19-3.37-4.59-3.37C61.88,21.94,60.57,23.21,60.41,28Z"/><path class="cls-2" d="M96,25.18V39.12H92.84L92.39,36a11.56,11.56,0,0,1-8,3.52c-3.65,0-6.11-2-6.11-5.66V31.74c0-3.2,2-5,5.66-5h8V25.18c0-2.46-.9-3.24-4-3.24-2,0-5.37.25-8.49.5l-.37-2.92a65.78,65.78,0,0,1,9.72-.94C93.5,18.58,96,20.14,96,25.18ZM82.3,33.34c0,2,.9,2.79,2.91,2.79A10.7,10.7,0,0,0,92,33.3V29.73h-7.3c-1.85.09-2.38,1-2.38,2.55Z"/><path class="cls-2" d="M119.37,39.12h-3.12l-.33-2.74a12.36,12.36,0,0,1-7.87,3.24c-5,0-7-3.7-7-10.58,0-7.87,2.54-10.46,7.63-10.46a13.72,13.72,0,0,1,6.88,1.81c-.12-1.32-.16-2.55-.16-3.94v-6h4Zm-10-2.95c2.13,0,3.41-.74,6-2.5V23a21.47,21.47,0,0,0-5.74-1c-3.28,0-4.51,1.27-4.51,7S106.37,36.17,109.4,36.17Z"/><path class="cls-2" d="M164.46,24.12v15h-3.89V25.26c0-2.33-.78-3.32-2.91-3.32-1.93,0-3.24.82-6.19,3V39.12h-3.81V25.26c0-2.46-.95-3.32-2.92-3.32s-3.19.78-6.19,2.91V39.12h-3.93v-20h3.28l.2,3c2.67-2.3,5.25-3.57,8-3.57s4.43,1.19,5.08,3.49c2.67-2.34,5.21-3.49,7.87-3.49C162.58,18.58,164.46,20.51,164.46,24.12Z"/><path class="cls-2" d="M188.66,29.16c0,7.63-2.59,10.5-9.56,10.5s-9.55-2.87-9.55-10.5,2.58-10.58,9.55-10.58S188.66,21.49,188.66,29.16Zm-15,0c0,5.54,1.27,7.17,5.41,7.17s5.41-1.63,5.41-7.17-1.27-7.22-5.41-7.22S173.69,23.54,173.69,29.16Z"/><path class="cls-2" d="M206.24,22.31H205c-2.13,0-4.1.86-7.17,2.3V39.12h-4v-20h3.08l.41,3.07c2.83-2.26,5.74-3.61,8.4-3.61h.94Z"/><path class="cls-2" d="M226.25,35.8l.37,2.63a23.56,23.56,0,0,1-7.91,1.19c-7,0-9.64-2.83-9.64-10.54,0-7.91,2.79-10.5,9.27-10.5,6.23,0,8.77,2.34,8.77,6.73,0,3.6-1.51,5.74-4.88,5.74h-9c.42,4.34,2.14,5.24,6,5.24A68.32,68.32,0,0,0,226.25,35.8ZM213.17,28h8c1.68,0,2-1.43,2-2.66,0-2.42-1.19-3.37-4.6-3.37C214.65,21.94,213.34,23.21,213.17,28Z"/></g></g></svg>