<svg xmlns="http://www.w3.org/2000/svg" viewBox="0 0 324.8 324.8"><defs><style>.cls-1{fill:#888eba;stroke:#cbabc8;stroke-miterlimit:8;stroke-width:17px;}.cls-2{fill:#d9edff;}.cls-3{fill:#b4dbff;}.cls-4{fill:#ff8088;}.cls-5{fill:#ff646f;}.cls-6{fill:#ff4755;}.cls-7{fill:#8bcaff;}.cls-8{fill:#ffe55a;}.cls-9{fill:#ffd500;}.cls-10{fill:#fbc700;}</style></defs><g id="Слой_2" data-name="Слой 2"><g id="Слой_1-2" data-name="Слой 1"><circle class="cls-1" cx="162.4" cy="162.4" r="153.9"/><path class="cls-2" d="M137.16,200.87a77,77,0,0,0,19.15,4.57c-.11-1.53-.15-3.09-.13-4.65a53.81,53.81,0,0,1,10.69-31.43l-8.35-13.77a33.28,33.28,0,0,1-4.83-17.26V64.87H121.24v73.46a33.2,33.2,0,0,1-4.84,17.26L91.26,197.05C100,193.9,111.38,191.33,137.16,200.87Z"/><path class="cls-3" d="M105.15,194.22l23.43-38.63a33.28,33.28,0,0,0,4.83-17.26V64.87H121.24v73.46a33.2,33.2,0,0,1-4.84,17.26L91.26,197.05A43.44,43.44,0,0,1,105.15,194.22Z"/><path class="cls-4" d="M156.21,203.66a70.63,70.63,0,0,1-20.1-4.45c-25.53-9.45-35.93-6.18-44.32-3L72,228.89c-7.26,12,1.45,27.2,15.55,27.2h99.93A18.11,18.11,0,0,0,196,254C173.68,247.58,157.12,227.47,156.21,203.66Z"/><path class="cls-5" d="M84.12,228.89,105.88,193a43,43,0,0,0-14.09,3.17L72,228.89c-7.26,12,1.45,27.2,15.55,27.2H99.67C85.57,256.09,76.87,240.86,84.12,228.89Z"/><path class="cls-5" d="M122.51,227.52a7.1,7.1,0,1,0-7.1,7A7.07,7.07,0,0,0,122.51,227.52Z"/><path class="cls-6" d="M116.93,227.52a7,7,0,0,1,2.79-5.58,7,7,0,1,0,0,11.16A7,7,0,0,1,116.93,227.52Z"/><path class="cls-5" d="M133.54,218.48a3,3,0,1,1,3.08-3A3.06,3.06,0,0,1,133.54,218.48Z"/><path class="cls-3" d="M154.49,54.39H120.43a3.88,3.88,0,0,0-3.89,3.85v4a3.88,3.88,0,0,0,3.89,3.85h34.06a3.89,3.89,0,0,0,3.9-3.85v-4A3.89,3.89,0,0,0,154.49,54.39Z"/><path class="cls-7" d="M154.49,58.18H120.43a3.9,3.9,0,0,1-3.34-1.9,3.78,3.78,0,0,0-.55,2v4a3.88,3.88,0,0,0,3.89,3.85h34.06a3.89,3.89,0,0,0,3.9-3.85v-4a3.88,3.88,0,0,0-.55-2A3.93,3.93,0,0,1,154.49,58.18Z"/><path class="cls-2" d="M211.57,178.71c22.69,8.48,38.21,2.27,46.16-3a54.71,54.71,0,0,0-27.13-24.49,10.76,10.76,0,0,1-6.66-9.95V93.71h-28.3v47.6a10.71,10.71,0,0,1-6.61,9.93,54.64,54.64,0,0,0-28.38,26.88C164.65,175.74,181.68,167.53,211.57,178.71Z"/><path class="cls-3" d="M175.34,173.46a54.66,54.66,0,0,1,25.87-22.22,10.73,10.73,0,0,0,6.61-9.93V93.71H195.64v47.6a10.71,10.71,0,0,1-6.61,9.93,54.64,54.64,0,0,0-28.38,26.88A38.91,38.91,0,0,1,175.34,173.46Z"/><path class="cls-8" d="M211.52,177.34c-33.52-12.53-50.45,0-50.5,0a54.47,54.47,0,1,0,95.85-3.13C249.24,179.36,234,185.74,211.52,177.34Z"/><path class="cls-9" d="M215.88,255.75c-39.58-4.45-61.69-49.37-39.8-83.5-10,1.36-15,5.07-15.06,5.09a54.49,54.49,0,0,0,54.86,78.41Z"/><path class="cls-9" d="M216.2,213.05a10.71,10.71,0,1,1-10.71-10.71A10.72,10.72,0,0,1,216.2,213.05Z"/><path class="cls-9" d="M193.57,191a5.2,5.2,0,1,1-5.2-5.19A5.2,5.2,0,0,1,193.57,191Z"/><path class="cls-10" d="M202.49,213.05a10.71,10.71,0,0,1,6.85-10,10.72,10.72,0,1,0,0,20A10.71,10.71,0,0,1,202.49,213.05Z"/><path class="cls-10" d="M190.89,191a5.15,5.15,0,0,1,1.34-3.47,5.2,5.2,0,1,0,0,6.94A5.15,5.15,0,0,1,190.89,191Z"/><path class="cls-3" d="M224.18,83.23H195.41a3.87,3.87,0,0,0-3.86,3.85v4a3.88,3.88,0,0,0,3.86,3.86h28.77A3.87,3.87,0,0,0,228,91.07v-4A3.86,3.86,0,0,0,224.18,83.23Z"/><path class="cls-7" d="M224.18,87H195.41a3.85,3.85,0,0,1-3.31-1.9,3.78,3.78,0,0,0-.55,2v4a3.88,3.88,0,0,0,3.86,3.86h28.77A3.87,3.87,0,0,0,228,91.07v-4a3.87,3.87,0,0,0-.54-2A3.87,3.87,0,0,1,224.18,87Z"/></g></g></svg>