<svg id="Слой_1" data-name="Слой 1" xmlns="http://www.w3.org/2000/svg" viewBox="0 0 607 121.46"><defs><style>.cls-1{fill:#fff;}.cls-2{fill:#9297ab;}.cls-3{fill:#323c6b;}.cls-4{fill:#84879c;}.cls-5{fill:#e1e6e9;}</style></defs><g id="Слой_2" data-name="Слой 2"><g id="Слой_1-2" data-name="Слой 1-2"><path class="cls-1" d="M175.39,82.86a4.77,4.77,0,0,1-5,3.88H158.1c-2.47,0-4.69-1.54-4.95-3.88L150,57.33c-.27-2.21-.4-4.56-.54-6.77h-1.14c-.13,2.28-.27,4.63-.53,6.84L144.7,82.86c-.26,2.34-2.47,3.88-4.95,3.88h-12.4a4.77,4.77,0,0,1-5-3.88l-5.76-42.35H131l2.34,28.34c.14,2.28.27,4.76.27,7.71h1.07c.34-2.35.81-5.36,1.08-7.77l3.08-24a4.73,4.73,0,0,1,4.89-4.29h10.38A4.76,4.76,0,0,1,159,44.8l3.14,24.12c.27,2.41.67,5.23,1,7.64h1.07c0-2.48.2-5.29.34-7.57l2.27-28.48h14.34Z"/><path class="cls-1" d="M220.68,70.06c0,12.86-5,17.49-18.69,17.49s-18.76-4.63-18.76-17.49c0-13.07,5-17.76,18.76-17.76S220.68,57,220.68,70.06Zm-22.71,0c0,6.7.74,8,4,8s3.95-1.27,3.95-8c0-6.9-.74-8.24-3.95-8.24s-4,1.34-4,8.24Z"/><path class="cls-1" d="M251.37,65.17h-3.55a58.34,58.34,0,0,0-8.45.67v20.9H225.3V53.24h11l1.27,4.89c4.23-4,8.78-5.83,13.07-5.83h1.94Z"/><path class="cls-1" d="M269.19,72.27a34.89,34.89,0,0,1,.47,4.89v9.58H255.59V39.84h14.07v18a42.38,42.38,0,0,1-.54,6.56h1.94l6.37-11.12h15.41l-7,11a12.36,12.36,0,0,1-3.88,4v.27A13.26,13.26,0,0,1,285.8,73l8.31,13.73H278.64L271,72.27Z"/><path class="cls-1" d="M327.81,53.78,326.94,62h-13.2c-4.49,0-5-.06-5,.81s.74.73,3.95,1.6l7.71,2c6,1.67,8.84,4.29,8.84,10.11,0,8.51-4.55,11.06-16.21,11.06a104.79,104.79,0,0,1-17.42-1.41l.87-8.17H308.4c6.37,0,7.24,0,7.24-1,0-.8-.87-.8-4.36-1.81l-7.37-2c-7.37-2.15-8.77-5.77-8.77-11,0-6.1,3.75-9.79,15.54-9.79A102.38,102.38,0,0,1,327.81,53.78Z"/><path class="cls-1" d="M369.49,61.68V86.74H355.42V66.17c0-1.47-.67-2-2.41-2a17.37,17.37,0,0,0-5.5.81V86.74H333.44V39.84h14.07l.07,10a41.15,41.15,0,0,1-.67,7.43,20.38,20.38,0,0,1,12.66-5C366.07,52.3,369.49,55.52,369.49,61.68Z"/><path class="cls-1" d="M411.36,70.06c0,12.86-5,17.49-18.69,17.49s-18.76-4.63-18.76-17.49c0-13.07,5-17.76,18.76-17.76S411.36,57,411.36,70.06Zm-22.71,0c0,6.7.74,8,4,8s4-1.27,4-8c0-6.9-.74-8.24-4-8.24S388.65,63.16,388.65,70.06Z"/><path class="cls-1" d="M452.77,70.39c0,13.81-4.36,17.29-12.67,17.29-3.88,0-7.57-.8-10.25-2.81.14,2.34.27,5,.2,7.3V98.8H416V53.24h11.26l1.14,4.56c2.08-2.95,7-5.36,12.33-5.36C449.42,52.44,452.77,59,452.77,70.39Zm-14.48.14c0-7.24-1.07-8-3.61-8a8.85,8.85,0,0,0-4.63,1.2v13.9a11.17,11.17,0,0,0,4.42.87c2.75,0,3.82-.8,3.82-8Z"/><path class="cls-1" d="M489,53.78,488.08,62h-13.2c-4.49,0-5-.06-5,.81s.74.73,3.95,1.6l7.71,2c6,1.67,8.84,4.29,8.84,10.11,0,8.51-4.55,11.06-16.21,11.06a104.79,104.79,0,0,1-17.42-1.41l.87-8.17h11.93c6.36,0,7.23,0,7.23-1,0-.8-.87-.8-4.35-1.81l-7.37-2c-7.37-2.15-8.78-5.77-8.78-11,0-6.1,3.75-9.79,15.54-9.79A103,103,0,0,1,489,53.78Z"/><path class="cls-2" d="M52.5,120.58a8.38,8.38,0,0,0,8.36-8.36v-1.89H44.14v1.88a8.36,8.36,0,0,0,8.35,8.37h0Z"/><path class="cls-3" d="M52.5,121.46a9.26,9.26,0,0,1-9.25-9.25v-2.77h18.5v2.77A9.27,9.27,0,0,1,52.5,121.46ZM45,111.22v1a7.48,7.48,0,0,0,15,.55,5,5,0,0,0,0-.55v-1Z"/><path class="cls-2" d="M34.26,86.52H70.73v17.83a7.5,7.5,0,0,1-7.49,7.51H41.77a7.51,7.51,0,0,1-7.51-7.51h0Z"/><path class="cls-4" d="M70.73,86.51v17.84a7.52,7.52,0,0,1-7.51,7.52H58a7.52,7.52,0,0,0,7.51-7.52V86.51Z"/><path class="cls-3" d="M34.26,94.05H70.74v1.78H34.26Z"/><path class="cls-3" d="M34.26,102.55H70.74v1.78H34.26Z"/><path class="cls-3" d="M20.64.73,22.26,0l4.2,9.29L24.84,10Z"/><path class="cls-3" d="M7.15,11.68l1.11-1.39,7.93,6.42-1.12,1.38Z"/><path class="cls-3" d="M0,27.49l.38-1.74,10,2.17L10,29.66Z"/><path class="cls-3" d="M78.52,9.3,82.72,0l1.62.73L80.14,10Z"/><path class="cls-3" d="M88.75,16.69l7.93-6.41,1.12,1.38-7.93,6.41Z"/><path class="cls-3" d="M94.64,27.93l10-2.17L105,27.5,95,29.67Z"/><path class="cls-3" d="M49.54,74.49h7.51v1.78H49.54Z"/><path class="cls-3" d="M49.54,21.93h7.51v1.78H49.54Z"/><path class="cls-3" d="M71.85,55.19A.88.88,0,0,1,71,54.3a.91.91,0,0,1,.21-.57A11.64,11.64,0,0,1,80,48.94c5.39,0,9.33,4.59,9.5,4.79A.9.9,0,0,1,89.43,55h0a.9.9,0,0,1-1.23-.11S84.59,50.72,80,50.72h0a10,10,0,0,0-7.5,4.15A.87.87,0,0,1,71.85,55.19Z"/><path class="cls-3" d="M78.76,50.81a.71.71,0,0,1-.29,0,11.13,11.13,0,0,1-6.77-7.05.88.88,0,0,1,.62-1.08h0a.89.89,0,0,1,1.09.63h0a9.49,9.49,0,0,0,5.63,5.82.89.89,0,0,1-.29,1.73Z"/><path class="cls-3" d="M69.21,21a.89.89,0,0,1-.89-.89.88.88,0,0,1,.48-.79,12.81,12.81,0,0,1,8.72-1.17.89.89,0,0,1,.6,1.11h0a.88.88,0,0,1-1.07.6,11.33,11.33,0,0,0-7.44,1,.79.79,0,0,1-.4.1Z"/><path class="cls-3" d="M81.69,73.91a13.94,13.94,0,0,1-10.79-4.1.89.89,0,1,1,1.32-1.2c1.5,1.64,4.39,3.6,9.74,3.52h0a.89.89,0,0,1,.9.88h0a.91.91,0,0,1-.89.9Z"/><circle class="cls-5" cx="65.99" cy="22.01" r="3.75"/><path class="cls-3" d="M66,26.65A4.64,4.64,0,1,1,70.63,22h0A4.64,4.64,0,0,1,66,26.65Zm0-7.49A2.86,2.86,0,1,0,68.85,22v0h0A2.87,2.87,0,0,0,66,19.15Z"/><circle class="cls-5" cx="71.69" cy="39.86" r="3.75"/><path class="cls-3" d="M71.69,44.5a4.64,4.64,0,1,1,4.64-4.64h0a4.63,4.63,0,0,1-4.62,4.64Zm0-7.5a2.86,2.86,0,1,0,2.86,2.86A2.86,2.86,0,0,0,71.69,37Z"/><circle class="cls-5" cx="69.74" cy="65.92" r="3.75"/><path class="cls-3" d="M69.74,70.56a4.64,4.64,0,1,1,4.64-4.64h0A4.66,4.66,0,0,1,69.74,70.56Zm0-7.49a2.86,2.86,0,1,0,2.86,2.86h0a2.86,2.86,0,0,0-2.86-2.85Z"/><path class="cls-3" d="M33.14,55.19a.89.89,0,0,1-.68-.31A10,10,0,0,0,25,50.72h0c-4.55,0-8.1,4.12-8.14,4.16a.89.89,0,0,1-1.45-1,.58.58,0,0,1,.1-.12c.16-.2,4.1-4.79,9.49-4.79a11.66,11.66,0,0,1,8.87,4.79.89.89,0,0,1-.1,1.25.94.94,0,0,1-.58.21Z"/><path class="cls-3" d="M26.24,50.81a.89.89,0,0,1-.89-.89.91.91,0,0,1,.59-.84,9.47,9.47,0,0,0,5.63-5.81.89.89,0,1,1,1.73.45h0a11.13,11.13,0,0,1-6.77,7A.75.75,0,0,1,26.24,50.81Z"/><path class="cls-3" d="M35.79,21a1,1,0,0,1-.41-.1,11.05,11.05,0,0,0-7.43-1,.89.89,0,0,1-.48-1.71,12.87,12.87,0,0,1,8.72,1.17A.89.89,0,0,1,35.78,21Z"/><path class="cls-3" d="M23.3,73.91H23a.89.89,0,0,1,0-1.78h.28a12.21,12.21,0,0,0,9.48-3.52.89.89,0,0,1,1.38,1.12l-.07.08a13.93,13.93,0,0,1-10.79,4.1Z"/><circle class="cls-5" cx="39" cy="22.01" r="3.75"/><path class="cls-3" d="M39,26.65A4.64,4.64,0,1,1,43.64,22h0A4.66,4.66,0,0,1,39,26.65Zm0-7.49A2.86,2.86,0,1,0,41.86,22v0h0A2.88,2.88,0,0,0,39,19.15Z"/><circle class="cls-5" cx="33.3" cy="39.86" r="3.75"/><path class="cls-3" d="M33.3,44.5a4.64,4.64,0,1,1,4.64-4.64h0A4.66,4.66,0,0,1,33.3,44.5Zm0-7.5a2.86,2.86,0,1,0,2.86,2.87h0A2.87,2.87,0,0,0,33.3,37Z"/><circle class="cls-5" cx="35.25" cy="65.92" r="3.75"/><path class="cls-3" d="M35.25,70.56a4.64,4.64,0,1,1,4.64-4.64h0A4.64,4.64,0,0,1,35.25,70.56Zm0-7.49a2.86,2.86,0,1,0,2.86,2.86h0a2.86,2.86,0,0,0-2.86-2.86Z"/><path class="cls-3" d="M65.54,117.87a.89.89,0,0,1-.89-.89.88.88,0,0,1,.73-.87,12,12,0,0,0,9.79-11.35.89.89,0,1,1,1.78-.12,1.09,1.09,0,0,1,0,.18h0a13.8,13.8,0,0,1-11.23,13Z"/><path class="cls-3" d="M76.07,101.64a.89.89,0,0,1-.89-.89V100A.91.91,0,0,1,77,100v.78a.89.89,0,0,1-.92.86Z"/><path class="cls-3" d="M31.38,6.15a.89.89,0,0,1-.52-1.61l.19-.14c.19-.14.39-.28.59-.4a.89.89,0,0,1,1.24.24.9.9,0,0,1-.24,1.25c-.17.11-.34.24-.51.36L31.89,6A.85.85,0,0,1,31.38,6.15Z"/><path class="cls-3" d="M49.38,4.3A.87.87,0,0,1,49,4.19a14.92,14.92,0,0,0-7-1.6h-.5a19.47,19.47,0,0,0-5,1,.89.89,0,0,1-1.09-1.41A.93.93,0,0,1,35.86,2h0A21.54,21.54,0,0,1,41.42.82H42a16.49,16.49,0,0,1,7.8,1.8.88.88,0,0,1,.38,1.2.9.9,0,0,1-.79.48Z"/><path class="cls-3" d="M65.48,87.5A11.22,11.22,0,0,1,54,76.68V12.61c.74-4.21,4.11-6.52,9.22-6.47C69.93,6.6,75,10.79,78,18.26A14.6,14.6,0,0,1,88.73,31.74a10.8,10.8,0,0,1-.08,1.39A14.37,14.37,0,0,1,94.3,44.41a14,14,0,0,1-4.32,10,13.64,13.64,0,0,1,1.51,6.23,14.55,14.55,0,0,1-8.68,12.93c-1,7.84-8.5,13.89-17.33,13.89ZM63,7.92c-2.41,0-6.5.65-7.25,4.85V76.68a9.41,9.41,0,0,0,9.64,9c8.23,0,15.08-5.61,15.71-12.78a.89.89,0,0,1,.54-.73A12.86,12.86,0,0,0,89.7,60.69a11.71,11.71,0,0,0-1.61-6,.87.87,0,0,1,.18-1.11,12.33,12.33,0,0,0,4.24-9.21,12.65,12.65,0,0,0-5.36-10.19.88.88,0,0,1-.34-.92A7.11,7.11,0,0,0,87,31.74,12.88,12.88,0,0,0,77,19.85a.86.86,0,0,1-.6-.54c-2.67-7.14-7.16-11-13.34-11.39Z"/><path class="cls-3" d="M39.64,87.5c-9,0-16.45-6-17.44-13.87a14.54,14.54,0,0,1-8.67-12.94A13.31,13.31,0,0,1,15,54.47a14,14,0,0,1-4.32-10,14.36,14.36,0,0,1,5.64-11.28,10.8,10.8,0,0,1-.08-1.39A14.58,14.58,0,0,1,27.06,18.26C30,10.79,35.07,6.6,41.79,6.15H42c5.06,0,8.36,2.29,9.07,6.31V76.68A11.19,11.19,0,0,1,39.64,87.5ZM42,7.92h-.14c-6.13.42-10.62,4.25-13.29,11.39a.91.91,0,0,1-.59.54,12.88,12.88,0,0,0-9.92,11.89,6.81,6.81,0,0,0,.14,1.56.88.88,0,0,1-.34.92A12.65,12.65,0,0,0,12.5,44.41a12.33,12.33,0,0,0,4.24,9.21.87.87,0,0,1,.18,1.1,11.81,11.81,0,0,0-1.61,6,12.85,12.85,0,0,0,8.08,11.52.88.88,0,0,1,.53.73c.64,7.17,7.49,12.78,15.6,12.78a9.44,9.44,0,0,0,9.76-9V12.61C48.54,8.61,44.46,7.92,42,7.92Z"/><path class="cls-3" d="M63.23,112.75H41.77a8.4,8.4,0,0,1-8.4-8.4h0V85.63H71.62v18.72A8.4,8.4,0,0,1,63.23,112.75ZM35.15,87.41v17A6.63,6.63,0,0,0,41.77,111H63.23a6.64,6.64,0,0,0,6.62-6.62v-17Z"/><path class="cls-1" d="M44.47,46a1.14,1.14,0,0,1,1.15,1.15h0V59.28a1.15,1.15,0,0,1-2.3,0V47.15A1.14,1.14,0,0,1,44.47,46Z"/><path class="cls-1" d="M44.46,41.71a1.14,1.14,0,0,1,1.15,1.13h0v.61a1.15,1.15,0,0,1-2.3,0h0v-.61A1.15,1.15,0,0,1,44.46,41.71Z"/><path class="cls-2" d="M554.5,120.58a8.38,8.38,0,0,0,8.36-8.36v-1.89H546.14v1.88a8.36,8.36,0,0,0,8.35,8.37Z"/><path class="cls-3" d="M554.5,121.46a9.26,9.26,0,0,1-9.25-9.25v-2.77h18.5v2.77A9.27,9.27,0,0,1,554.5,121.46ZM547,111.22v1a7.5,7.5,0,1,0,15,0v-1Z"/><path class="cls-2" d="M536.26,86.52h36.47v17.83a7.5,7.5,0,0,1-7.49,7.51H543.77a7.51,7.51,0,0,1-7.51-7.51h0Z"/><path class="cls-4" d="M572.73,86.51v17.84a7.52,7.52,0,0,1-7.51,7.52H560a7.52,7.52,0,0,0,7.51-7.52V86.51Z"/><path class="cls-3" d="M536.26,94.05h36.48v1.78H536.26Z"/><path class="cls-3" d="M536.26,102.55h36.48v1.78H536.26Z"/><path class="cls-3" d="M522.64.73,524.26,0l4.2,9.29-1.62.73Z"/><path class="cls-3" d="M509.15,11.68l1.11-1.39,7.93,6.42-1.12,1.38Z"/><path class="cls-3" d="M502,27.49l.38-1.74,10,2.17L512,29.66Z"/><path class="cls-3" d="M580.52,9.3l4.2-9.3,1.62.73L582.14,10Z"/><path class="cls-3" d="M590.75,16.69l7.93-6.41,1.12,1.38-7.93,6.41Z"/><path class="cls-3" d="M596.64,27.93l10-2.17L607,27.5l-10,2.17Z"/><path class="cls-3" d="M551.54,74.49h7.51v1.78h-7.51Z"/><path class="cls-3" d="M551.54,21.93h7.51v1.78h-7.51Z"/><path class="cls-3" d="M573.85,55.19a.89.89,0,0,1-.89-.89h0a.91.91,0,0,1,.21-.57A11.64,11.64,0,0,1,582,48.94c5.39,0,9.33,4.59,9.5,4.79a.89.89,0,0,1-.13,1.25.9.9,0,0,1-1.23-.11s-3.59-4.15-8.14-4.15h0a10,10,0,0,0-7.5,4.15A.87.87,0,0,1,573.85,55.19Z"/><path class="cls-3" d="M580.76,50.81a.71.71,0,0,1-.29,0,11.13,11.13,0,0,1-6.77-7.05.88.88,0,0,1,.62-1.08h0a.89.89,0,0,1,1.09.63h0a9.49,9.49,0,0,0,5.63,5.82.89.89,0,0,1-.29,1.73Z"/><path class="cls-3" d="M571.21,21a.89.89,0,0,1-.89-.89h0a.88.88,0,0,1,.48-.79,12.81,12.81,0,0,1,8.72-1.17.89.89,0,0,1,.6,1.11h0a.88.88,0,0,1-1.07.6,11.33,11.33,0,0,0-7.44,1,.79.79,0,0,1-.4.1Z"/><path class="cls-3" d="M583.69,73.91a13.94,13.94,0,0,1-10.79-4.1.89.89,0,0,1,1.32-1.2c1.5,1.64,4.39,3.6,9.74,3.52h0a.89.89,0,0,1,.9.88h0a.91.91,0,0,1-.89.9Z"/><circle class="cls-5" cx="567.99" cy="22.01" r="3.75"/><path class="cls-3" d="M568,26.65A4.64,4.64,0,1,1,572.63,22h0A4.64,4.64,0,0,1,568,26.65Zm0-7.49A2.86,2.86,0,1,0,570.85,22v0h0A2.87,2.87,0,0,0,568,19.15Z"/><circle class="cls-5" cx="573.69" cy="39.86" r="3.75"/><path class="cls-3" d="M573.69,44.5a4.64,4.64,0,1,1,4.64-4.64,4.64,4.64,0,0,1-4.64,4.64Zm0-7.5a2.86,2.86,0,1,0,2.86,2.86h0A2.86,2.86,0,0,0,573.69,37Z"/><circle class="cls-5" cx="571.74" cy="65.92" r="3.75"/><path class="cls-3" d="M571.74,70.56a4.64,4.64,0,1,1,4.64-4.64h0A4.66,4.66,0,0,1,571.74,70.56Zm0-7.49a2.86,2.86,0,1,0,2.86,2.86h0a2.86,2.86,0,0,0-2.86-2.85Z"/><path class="cls-3" d="M535.14,55.19a.89.89,0,0,1-.68-.31,10,10,0,0,0-7.5-4.16h0c-4.55,0-8.1,4.12-8.14,4.16a.89.89,0,1,1-1.45-1,.58.58,0,0,1,.1-.12c.16-.2,4.1-4.79,9.49-4.79a11.66,11.66,0,0,1,8.87,4.79.89.89,0,0,1-.1,1.25.94.94,0,0,1-.58.21Z"/><path class="cls-3" d="M528.24,50.81a.89.89,0,0,1-.89-.89h0a.91.91,0,0,1,.59-.84,9.47,9.47,0,0,0,5.63-5.81.89.89,0,0,1,1.73.45h0a11.13,11.13,0,0,1-6.77,7A.75.75,0,0,1,528.24,50.81Z"/><path class="cls-3" d="M537.79,21a1,1,0,0,1-.41-.1,11.05,11.05,0,0,0-7.43-1,.89.89,0,0,1-.48-1.71,12.87,12.87,0,0,1,8.72,1.17.88.88,0,0,1,.38,1.2.9.9,0,0,1-.79.48Z"/><path class="cls-3" d="M525.3,73.91H525a.89.89,0,1,1,0-1.78h.28a12.21,12.21,0,0,0,9.48-3.52.89.89,0,1,1,1.38,1.12l-.07.08a13.93,13.93,0,0,1-10.79,4.1Z"/><circle class="cls-5" cx="541" cy="22.01" r="3.75"/><path class="cls-3" d="M541,26.65A4.64,4.64,0,1,1,545.64,22h0A4.66,4.66,0,0,1,541,26.65Zm0-7.49A2.86,2.86,0,1,0,543.86,22v0h0A2.88,2.88,0,0,0,541,19.15Z"/><circle class="cls-5" cx="535.3" cy="39.86" r="3.75"/><path class="cls-3" d="M535.3,44.5a4.64,4.64,0,1,1,4.64-4.64h0A4.66,4.66,0,0,1,535.3,44.5Zm0-7.5a2.86,2.86,0,1,0,2.86,2.87h0A2.87,2.87,0,0,0,535.3,37Z"/><circle class="cls-5" cx="537.25" cy="65.92" r="3.75"/><path class="cls-3" d="M537.25,70.56a4.64,4.64,0,1,1,4.64-4.64h0a4.64,4.64,0,0,1-4.64,4.64Zm0-7.49a2.86,2.86,0,1,0,2.86,2.86h0A2.86,2.86,0,0,0,537.25,63.07Z"/><path class="cls-3" d="M567.54,117.87a.89.89,0,0,1-.89-.89h0a.88.88,0,0,1,.73-.87,12,12,0,0,0,9.79-11.35.89.89,0,1,1,1.78-.12,1.09,1.09,0,0,1,0,.18h0a13.8,13.8,0,0,1-11.23,13Z"/><path class="cls-3" d="M578.07,101.64a.89.89,0,0,1-.89-.89h0V100a.89.89,0,1,1,1.78,0h0v.78A.89.89,0,0,1,578.07,101.64Z"/><path class="cls-3" d="M533.38,6.15a.89.89,0,0,1-.52-1.61l.19-.14c.19-.14.39-.28.59-.4a.9.9,0,0,1,1.25.24.91.91,0,0,1-.25,1.25l-.51.36-.19.14A.86.86,0,0,1,533.38,6.15Z"/><path class="cls-3" d="M551.38,4.3a.87.87,0,0,1-.41-.11,14.92,14.92,0,0,0-7-1.6h-.5a19.47,19.47,0,0,0-5,1,.89.89,0,0,1-1.25-.16.88.88,0,0,1,.16-1.24.84.84,0,0,1,.48-.19h0A21.54,21.54,0,0,1,543.42.82H544a16.46,16.46,0,0,1,7.82,1.81.88.88,0,0,1,.38,1.2.9.9,0,0,1-.79.48Z"/><path class="cls-3" d="M567.48,87.5A11.22,11.22,0,0,1,556,76.68V12.61c.74-4.21,4.11-6.52,9.22-6.47C571.93,6.6,577,10.79,580,18.26a14.6,14.6,0,0,1,10.78,13.48,10.8,10.8,0,0,1-.08,1.39,14.37,14.37,0,0,1,5.65,11.28,14,14,0,0,1-4.32,10,13.64,13.64,0,0,1,1.51,6.23,14.55,14.55,0,0,1-8.68,12.93c-1,7.84-8.5,13.89-17.33,13.89ZM565,7.92c-2.41,0-6.5.65-7.25,4.85V76.68a9.41,9.41,0,0,0,9.64,9c8.23,0,15.08-5.61,15.71-12.78a.89.89,0,0,1,.54-.73,12.85,12.85,0,0,0,8.08-11.52,11.71,11.71,0,0,0-1.61-6,.88.88,0,0,1,.18-1.11,12.33,12.33,0,0,0,4.24-9.21,12.65,12.65,0,0,0-5.36-10.19.88.88,0,0,1-.34-.92,6.81,6.81,0,0,0,.14-1.56,12.88,12.88,0,0,0-10-11.81.86.86,0,0,1-.6-.54c-2.67-7.14-7.16-11-13.34-11.39Z"/><path class="cls-3" d="M541.64,87.5c-9,0-16.45-6-17.44-13.87a14.54,14.54,0,0,1-8.67-12.94A13.31,13.31,0,0,1,517,54.47a14,14,0,0,1-4.32-10,14.36,14.36,0,0,1,5.64-11.28,10.8,10.8,0,0,1-.08-1.39A14.59,14.59,0,0,1,529,18.31C532,10.84,537,6.65,543.75,6.2H544c5.06,0,8.36,2.29,9.07,6.31V76.68A11.19,11.19,0,0,1,541.64,87.5ZM544,7.92h-.14c-6.13.42-10.62,4.25-13.29,11.39a.91.91,0,0,1-.59.54,12.88,12.88,0,0,0-9.92,11.89,6.81,6.81,0,0,0,.14,1.56.88.88,0,0,1-.34.92,12.65,12.65,0,0,0-5.36,10.19,12.33,12.33,0,0,0,4.24,9.21.87.87,0,0,1,.18,1.1,11.81,11.81,0,0,0-1.61,6,12.85,12.85,0,0,0,8.08,11.52.88.88,0,0,1,.53.73c.64,7.17,7.49,12.78,15.6,12.78a9.44,9.44,0,0,0,9.76-9V12.61C550.54,8.61,546.46,7.92,544,7.92Z"/><path class="cls-3" d="M565.23,112.75H543.77a8.4,8.4,0,0,1-8.4-8.4h0V85.63h38.25v18.72A8.4,8.4,0,0,1,565.23,112.75ZM537.15,87.41v17a6.64,6.64,0,0,0,6.62,6.62h21.46a6.64,6.64,0,0,0,6.62-6.62v-17Z"/><path class="cls-1" d="M546.47,46a1.14,1.14,0,0,1,1.15,1.15h0V59.28a1.15,1.15,0,0,1-2.3,0V47.15A1.14,1.14,0,0,1,546.47,46Z"/><path class="cls-1" d="M546.46,41.71a1.14,1.14,0,0,1,1.15,1.13h0v.61a1.15,1.15,0,0,1-2.3,0h0v-.61A1.15,1.15,0,0,1,546.46,41.71Z"/></g></g></svg>