<svg id="Слой_1" data-name="Слой 1" xmlns="http://www.w3.org/2000/svg" viewBox="0 0 1170.28 628"><defs><style>.cls-1{fill:none;stroke:#696b7b;stroke-miterlimit:8;stroke-width:4px;}</style></defs><path class="cls-1" d="M13.26,292.51C.33,303.59.57,325.35,13,337.83A31.93,31.93,0,0,1,13,383h0a31.93,31.93,0,0,0-.07,45.14h0a31.92,31.92,0,0,1,0,45.14h0C.38,485.74-3.47,506.51,12.8,518.43s16.83,32.23,3.89,44.21-12.42,31.23-2,45.47a59.33,59.33,0,0,0,6.7,7.89c13.4,11.45,32.67,12.5,45.15,0a31.92,31.92,0,0,1,45.15,0,31.93,31.93,0,0,0,45.14.07h0a31.92,31.92,0,0,1,45.14,0h0a31.92,31.92,0,0,0,45.14,0h0a31.92,31.92,0,0,1,45.14,0h0a31.92,31.92,0,0,0,45.15,0,31.93,31.93,0,0,1,45.15.05,31.93,31.93,0,0,0,45.14.07h0a31.93,31.93,0,0,1,45.15.05,31.93,31.93,0,0,0,45.15.06,31.92,31.92,0,0,1,45.14,0h0a31.92,31.92,0,0,0,45.14.06h0a31.92,31.92,0,0,1,45.14,0h0a31.93,31.93,0,0,0,45.15,0,31.93,31.93,0,0,1,45.14,0,31.93,31.93,0,0,0,45.14.07h0a31.92,31.92,0,0,1,45.14,0h0a31.92,31.92,0,0,0,45.14,0h0a31.93,31.93,0,0,1,45.15.06,31.92,31.92,0,0,0,45.14,0h0a31.92,31.92,0,0,1,45.14.05h0a31.92,31.92,0,0,0,45.15,0,31.93,31.93,0,0,1,45.15,0c12.46,12.49,32.44,12.27,45.15.06s13.72-32.18,1.75-45.12S1138.53,539,1153,527.1c13-10.63,12.5-32.66,0-45.15a31.92,31.92,0,0,1,0-45.15,31.93,31.93,0,0,0,.06-45.15,31.92,31.92,0,0,1,0-45.14h0a31.92,31.92,0,0,0,0-45.14h0a31.92,31.92,0,0,1,0-45.14h0a31.93,31.93,0,0,0,0-45.14c-12.45-12.49-12.84-35.09,1.22-45.54s13.73-32.18,1.75-45.12a31.92,31.92,0,0,1,1.74-45.11h0c13-12,14.1-32.62,2-45.48-1.49-1.59-4.5-4.76-6-6.33-12.31-12.63-25.26-13.45-38.75-2.09-15.88,13.39-25.74,2.81-36.21-9.48a31.92,31.92,0,0,0-45.14,0h0a31.92,31.92,0,0,1-45.14-.05h0a31.93,31.93,0,0,0-45.15,0,31.92,31.92,0,0,1-45.15,0,31.92,31.92,0,0,0-45.14-.07h0a31.92,31.92,0,0,1-45.14,0h0a31.93,31.93,0,0,0-45.15-.06,31.92,31.92,0,0,1-44.89.32,31.92,31.92,0,0,0-45.14,0h0A31.92,31.92,0,0,1,627.64,12h0a31.93,31.93,0,0,0-45.15,0,31.92,31.92,0,0,1-45.15,0,31.93,31.93,0,0,0-45.14-.07h0A31.92,31.92,0,0,1,447,11.74l0,0a31.92,31.92,0,0,0-45.14,0h0a31.93,31.93,0,0,1-45.15-.06,31.93,31.93,0,0,0-45.15-.05,31.92,31.92,0,0,1-45.14-.05h0a31.93,31.93,0,0,0-45.15,0,31.92,31.92,0,0,1-45.15,0,31.93,31.93,0,0,0-45.1-.16,31.92,31.92,0,0,1-45.14,0h0c-12.47-12.48-31.57-8.94-46-1.74C34.94,12,28.76,16.94,24.64,21.09,12.21,33.6,10.92,53.26,22.89,66.2a31.93,31.93,0,0,1-1.74,45.12c-12.94,12-14.66,33.24-1.75,45.12,13.13,12.07,11.27,33.65-1.67,45.62A31.93,31.93,0,0,0,16,247.18a31.33,31.33,0,0,1-1.55,44.28C14.06,291.82,13.66,292.17,13.26,292.51Z" transform="translate(0 -0.08)"/></svg>