<svg xmlns="http://www.w3.org/2000/svg" viewBox="0 0 1170.51 628.61"><defs><style>.cls-1{fill:#fff;opacity:0.94;}.cls-2{fill:none;stroke:#696b7b;stroke-miterlimit:8;stroke-width:4px;}</style></defs><g id="Слой_2" data-name="Слой 2"><g id="Слой_1-2" data-name="Слой 1"><path class="cls-1" d="M13.07,292.68A31.93,31.93,0,0,0,13,337.83,31.93,31.93,0,0,1,13,383a31.92,31.92,0,0,0-.06,45.15,31.92,31.92,0,0,1-.05,45.15C.38,485.74-3.47,506.51,12.8,518.43s16.83,32.23,3.89,44.21-12.42,31.23-2,45.47A58.73,58.73,0,0,0,21.39,616c13.4,11.45,32.67,12.5,45.15.05a31.93,31.93,0,0,1,45.15,0,31.92,31.92,0,0,0,45.15.06,31.92,31.92,0,0,1,45.15,0,31.92,31.92,0,0,0,45.15,0,31.92,31.92,0,0,1,45.15.06,31.93,31.93,0,0,0,45.15,0,31.93,31.93,0,0,1,45.15.05,31.92,31.92,0,0,0,45.15.06,31.93,31.93,0,0,1,45.15.05,31.93,31.93,0,0,0,45.15.06,31.92,31.92,0,0,1,45.15,0,31.92,31.92,0,0,0,45.15.05,31.92,31.92,0,0,1,45.15.06,31.93,31.93,0,0,0,45.15.05,31.92,31.92,0,0,1,45.14,0,31.92,31.92,0,0,0,45.15.06,31.92,31.92,0,0,1,45.15,0,31.92,31.92,0,0,0,45.15,0,31.93,31.93,0,0,1,45.15.06,31.92,31.92,0,0,0,45.15,0,31.92,31.92,0,0,1,45.15.06,31.93,31.93,0,0,0,45.15,0,31.93,31.93,0,0,1,45.15.05c12.46,12.49,32.44,12.27,45.15.06s13.72-32.18,1.75-45.12-13.35-32.75,1.12-44.62c13-10.63,12.5-32.66,0-45.15a31.93,31.93,0,0,1,0-45.15,31.93,31.93,0,0,0,.06-45.15,31.92,31.92,0,0,1,0-45.15,31.92,31.92,0,0,0,0-45.15,31.92,31.92,0,0,1,.06-45.15,31.92,31.92,0,0,0,0-45.14c-12.45-12.49-12.84-35.09,1.22-45.54s13.73-32.18,1.75-45.12a31.92,31.92,0,0,1,1.74-45.11c13-12,14.1-32.62,2-45.48-1.49-1.59-4.5-4.76-6-6.33-12.31-12.63-25.26-13.45-38.75-2.09-15.88,13.39-25.74,2.81-36.21-9.48a31.92,31.92,0,0,0-45.15,0,31.92,31.92,0,0,1-45.15-.06,31.93,31.93,0,0,0-45.15-.05,31.93,31.93,0,0,1-45.15,0,31.92,31.92,0,0,0-45.15-.06,31.92,31.92,0,0,1-45.15,0,31.93,31.93,0,0,0-45.15-.06A31.92,31.92,0,0,1,717.93,12a31.92,31.92,0,0,0-45.15,0,31.92,31.92,0,0,1-45.15-.06,31.93,31.93,0,0,0-45.15-.05,31.93,31.93,0,0,1-45.15,0,31.92,31.92,0,0,0-45.15-.06A31.92,31.92,0,0,1,447,11.7a31.92,31.92,0,0,0-45.15,0,31.93,31.93,0,0,1-45.15-.06,31.93,31.93,0,0,0-45.15-.05,31.92,31.92,0,0,1-45.15-.06,31.93,31.93,0,0,0-45.15-.05,31.93,31.93,0,0,1-45.15,0A31.93,31.93,0,0,0,131,11.32a31.92,31.92,0,0,1-45.15-.05C73.38-1.21,54.28,2.33,39.88,9.53,34.94,12,28.76,16.94,24.64,21.09,12.21,33.6,10.92,53.26,22.89,66.2a31.93,31.93,0,0,1-1.74,45.12c-12.94,12-14.66,33.24-1.75,45.12,13.13,12.07,11.27,33.65-1.67,45.62A31.93,31.93,0,0,0,16,247.18a31.94,31.94,0,0,1-1.75,45.12"/><path class="cls-2" d="M13.26,292.51C.33,303.59.57,325.35,13,337.83A31.93,31.93,0,0,1,13,383a31.92,31.92,0,0,0-.06,45.15,31.92,31.92,0,0,1-.05,45.15C.38,485.74-3.47,506.51,12.8,518.43s16.83,32.23,3.89,44.21-12.42,31.23-2,45.47A58.73,58.73,0,0,0,21.39,616c13.4,11.45,32.67,12.5,45.15.05a31.93,31.93,0,0,1,45.15,0,31.92,31.92,0,0,0,45.15.06,31.92,31.92,0,0,1,45.15,0,31.92,31.92,0,0,0,45.15,0,31.92,31.92,0,0,1,45.15.06,31.93,31.93,0,0,0,45.15,0,31.93,31.93,0,0,1,45.15.05,31.92,31.92,0,0,0,45.15.06,31.93,31.93,0,0,1,45.15.05,31.93,31.93,0,0,0,45.15.06,31.92,31.92,0,0,1,45.15,0,31.92,31.92,0,0,0,45.15.05,31.92,31.92,0,0,1,45.15.06,31.93,31.93,0,0,0,45.15.05,31.92,31.92,0,0,1,45.14,0,31.92,31.92,0,0,0,45.15.06,31.92,31.92,0,0,1,45.15,0,31.92,31.92,0,0,0,45.15,0,31.93,31.93,0,0,1,45.15.06,31.92,31.92,0,0,0,45.15,0,31.92,31.92,0,0,1,45.15.06,31.93,31.93,0,0,0,45.15,0,31.93,31.93,0,0,1,45.15.05c12.46,12.49,32.44,12.27,45.15.06s13.72-32.18,1.75-45.12-13.35-32.75,1.12-44.62c13-10.63,12.5-32.66,0-45.15a31.93,31.93,0,0,1,0-45.15,31.93,31.93,0,0,0,.06-45.15,31.92,31.92,0,0,1,0-45.15,31.92,31.92,0,0,0,0-45.15,31.92,31.92,0,0,1,.06-45.15,31.92,31.92,0,0,0,0-45.14c-12.45-12.49-12.84-35.09,1.22-45.54s13.73-32.18,1.75-45.12a31.92,31.92,0,0,1,1.74-45.11c13-12,14.1-32.62,2-45.48-1.49-1.59-4.5-4.76-6-6.33-12.31-12.63-25.26-13.45-38.75-2.09-15.88,13.39-25.74,2.81-36.21-9.48a31.92,31.92,0,0,0-45.15,0,31.92,31.92,0,0,1-45.15-.06,31.93,31.93,0,0,0-45.15-.05,31.93,31.93,0,0,1-45.15,0,31.92,31.92,0,0,0-45.15-.06,31.92,31.92,0,0,1-45.15,0,31.93,31.93,0,0,0-45.15-.06A31.92,31.92,0,0,1,717.93,12a31.92,31.92,0,0,0-45.15,0,31.92,31.92,0,0,1-45.15-.06,31.93,31.93,0,0,0-45.15-.05,31.93,31.93,0,0,1-45.15,0,31.92,31.92,0,0,0-45.15-.06A31.92,31.92,0,0,1,447,11.7a31.92,31.92,0,0,0-45.15,0,31.93,31.93,0,0,1-45.15-.06,31.93,31.93,0,0,0-45.15-.05,31.92,31.92,0,0,1-45.15-.06,31.93,31.93,0,0,0-45.15-.05,31.93,31.93,0,0,1-45.15,0A31.93,31.93,0,0,0,131,11.32a31.92,31.92,0,0,1-45.15-.05C73.38-1.21,54.28,2.33,39.88,9.53,34.94,12,28.76,16.94,24.64,21.09,12.21,33.6,10.92,53.26,22.89,66.2a31.93,31.93,0,0,1-1.74,45.12c-12.94,12-14.66,33.24-1.75,45.12,13.13,12.07,11.27,33.65-1.67,45.62A31.93,31.93,0,0,0,16,247.18,31.33,31.33,0,0,1,13.26,292.51Z"/></g></g></svg>