<svg xmlns="http://www.w3.org/2000/svg" xmlns:xlink="http://www.w3.org/1999/xlink" viewBox="0 0 1239.62 340.93"><defs><style>.cls-1,.cls-2,.cls-4{fill:none;}.cls-1{clip-rule:evenodd;}.cls-2{fill-rule:evenodd;}.cls-3,.cls-6{fill:#5b69aa;}.cls-4,.cls-6{stroke:#37416b;stroke-miterlimit:8;stroke-width:6px;}.cls-5{clip-path:url(#clip-path);}.cls-7{fill:#495080;}</style><clipPath id="clip-path" transform="translate(-0.46 -0.46)"><polygon class="cls-1" points="0 341.86 1267.54 341.86 1267.54 0 0 0 0 341.86 0 341.86"/></clipPath></defs><g id="Слой_2" data-name="Слой 2"><g id="Слой_1-2" data-name="Слой 1"><path class="cls-3" d="M1114.63,106.19v156a75.43,75.43,0,0,1-75.44,75.42H41.3A37.55,37.55,0,0,1,3.75,300.13V116.25l-.29.23A32.11,32.11,0,0,0,6.24,114a31.92,31.92,0,0,1,45.15.06,31.93,31.93,0,0,0,45.15.05,31.93,31.93,0,0,1,45.15,0,31.92,31.92,0,0,0,45.15.06,31.92,31.92,0,0,1,45.15,0,31.92,31.92,0,0,0,45.15,0,31.93,31.93,0,0,1,45.15.06,31.92,31.92,0,0,0,45.15,0,31.92,31.92,0,0,1,45.15.06,31.93,31.93,0,0,0,45.15,0,31.93,31.93,0,0,1,45.15,0,31.92,31.92,0,0,0,45.15.06,31.92,31.92,0,0,1,45.15,0,31.92,31.92,0,0,0,45.15.05,31.92,31.92,0,0,1,45.15.06,31.93,31.93,0,0,0,45.15.05,31.92,31.92,0,0,1,45.14,0,31.92,31.92,0,0,0,45.15.06c12.49-12.45,31.84-13.12,44.83.43,12,12.49,32.67,12.51,45.15.06a31.92,31.92,0,0,1,45.15,0c12.45,12.48,29.71,13.34,45.25-.26,13.23-11.57,32.7-12.43,45.15.06a31.93,31.93,0,0,0,45.15.05,32.23,32.23,0,0,1,24.73-9.27" transform="translate(-0.46 -0.46)"/><path class="cls-4" d="M41,3.46H1038.9a75.43,75.43,0,0,1,75.44,75.42V263a75.43,75.43,0,0,1-75.44,75.42H41A37.55,37.55,0,0,1,3.46,300.86V41A37.55,37.55,0,0,1,41,3.46Z" transform="translate(-0.46 -0.46)"/><g class="cls-5"><g class="cls-5"><rect class="cls-6" x="1145.75" y="132.37" width="90.87" height="76.18" rx="12.7"/></g><rect class="cls-6" x="1114.44" y="81.68" width="39.75" height="177.58" rx="11.74"/></g><path class="cls-4" d="M1103.49,39.87a31.81,31.81,0,0,0-16.28,8.7,31.92,31.92,0,0,1-45.15,0,31.92,31.92,0,0,0-45.15-.05c-12.48,12.45-33.18,12.43-45.15-.06-13-13.55-32.34-12.88-44.83-.43a31.92,31.92,0,0,1-45.15-.06,31.92,31.92,0,0,0-45.14-.05,31.93,31.93,0,0,1-45.15,0,31.92,31.92,0,0,0-45.15-.06,31.92,31.92,0,0,1-45.15,0A31.92,31.92,0,0,0,636,47.66a31.92,31.92,0,0,1-45.15-.06,31.93,31.93,0,0,0-45.15-.05,31.93,31.93,0,0,1-45.15,0,31.92,31.92,0,0,0-45.15-.06,31.92,31.92,0,0,1-45.15,0,31.93,31.93,0,0,0-45.15-.06,31.92,31.92,0,0,1-45.15,0,31.92,31.92,0,0,0-45.15-.05,31.92,31.92,0,0,1-45.15-.06,31.93,31.93,0,0,0-45.15-.05,31.93,31.93,0,0,1-45.15,0A31.92,31.92,0,0,0,94.24,47a31.92,31.92,0,0,1-45.15,0,31.92,31.92,0,0,0-45.15-.05" transform="translate(-0.46 -0.46)"/><path class="cls-4" d="M1114.28,75.74a31.43,31.43,0,0,0-7.67,5.63,31.93,31.93,0,0,1-45.15-.05c-12.45-12.49-31.92-11.63-45.15-.06-15.54,13.6-32.8,12.74-45.25.26a31.92,31.92,0,0,0-45.15,0c-12.48,12.45-33.18,12.43-45.15-.06-13-13.55-32.34-12.88-44.83-.43a31.92,31.92,0,0,1-45.15-.06,31.92,31.92,0,0,0-45.14,0,31.93,31.93,0,0,1-45.15-.05,31.92,31.92,0,0,0-45.15-.06,31.92,31.92,0,0,1-45.15-.05,31.92,31.92,0,0,0-45.15,0,31.92,31.92,0,0,1-45.15-.06,31.93,31.93,0,0,0-45.15,0,31.93,31.93,0,0,1-45.15,0,31.92,31.92,0,0,0-45.15-.06,31.92,31.92,0,0,1-45.15,0,31.93,31.93,0,0,0-45.15-.06,31.92,31.92,0,0,1-45.15,0,31.92,31.92,0,0,0-45.15,0,31.92,31.92,0,0,1-45.15-.06,31.93,31.93,0,0,0-45.15,0,31.93,31.93,0,0,1-45.15-.05A31.92,31.92,0,0,0,23.24,80,31.81,31.81,0,0,1,3.46,89.22" transform="translate(-0.46 -0.46)"/><path class="cls-4" d="M1114.34,106.1a32.23,32.23,0,0,0-24.73,9.27,31.93,31.93,0,0,1-45.15-.05c-12.45-12.49-31.92-11.63-45.15-.06-15.54,13.6-32.8,12.74-45.25.26a31.92,31.92,0,0,0-45.15,0c-12.48,12.45-33.18,12.43-45.15-.06-13-13.55-32.34-12.88-44.83-.43a31.92,31.92,0,0,1-45.15-.06,31.92,31.92,0,0,0-45.14,0,31.93,31.93,0,0,1-45.15-.05,31.92,31.92,0,0,0-45.15-.06,31.92,31.92,0,0,1-45.15-.05,31.92,31.92,0,0,0-45.15,0,31.92,31.92,0,0,1-45.15-.06,31.93,31.93,0,0,0-45.15,0,31.93,31.93,0,0,1-45.15,0,31.92,31.92,0,0,0-45.15-.06,31.92,31.92,0,0,1-45.15,0,31.93,31.93,0,0,0-45.15-.06,31.92,31.92,0,0,1-45.15,0,31.92,31.92,0,0,0-45.15,0,31.92,31.92,0,0,1-45.15-.06,31.93,31.93,0,0,0-45.15,0,31.93,31.93,0,0,1-45.15-.05A31.92,31.92,0,0,0,6.24,114a32.11,32.11,0,0,1-2.78,2.47" transform="translate(-0.46 -0.46)"/><circle class="cls-7" cx="84.31" cy="194.4" r="24"/><circle class="cls-7" cx="168.74" cy="291.68" r="13.71"/><circle class="cls-7" cx="270.31" cy="166.4" r="24"/><circle class="cls-7" cx="328.31" cy="296.4" r="24"/><circle class="cls-7" cx="406.31" cy="175.4" r="13.71"/><circle class="cls-7" cx="569.31" cy="286.4" r="24"/><circle class="cls-7" cx="633.31" cy="175.4" r="24"/><circle class="cls-7" cx="756.31" cy="286.4" r="24"/><circle class="cls-7" cx="872.59" cy="152.11" r="13.71"/><circle class="cls-7" cx="886.31" cy="295.4" r="24"/><circle class="cls-7" cx="1055.88" cy="291.83" r="13.71"/><circle class="cls-7" cx="1032.31" cy="161.4" r="24"/><circle class="cls-7" cx="336.63" cy="216.75" r="8.08"/><circle class="cls-7" cx="748.67" cy="183.21" r="8.08"/><circle class="cls-7" cx="959.51" cy="235.48" r="8.08"/><circle class="cls-7" cx="1000.54" cy="298.83" r="8.08"/><circle class="cls-7" cx="64.63" cy="286.75" r="8.08"/><circle class="cls-7" cx="190.67" cy="175.21" r="8.08"/><circle class="cls-7" cx="445.51" cy="303.48" r="8.08"/><circle class="cls-7" cx="521.54" cy="188.83" r="8.08"/></g></g></svg>