<svg xmlns="http://www.w3.org/2000/svg" viewBox="0 0 589.78 23.29"><defs><style>.cls-1{fill:none;stroke:#696b7b;stroke-miterlimit:8;stroke-width:4px;}</style></defs><g id="Слой_2" data-name="Слой 2"><g id="Слой_1-2" data-name="Слой 1"><path class="cls-1" d="M588.36,12a31.92,31.92,0,0,0-45.15,0,31.92,31.92,0,0,1-45.15-.06,31.93,31.93,0,0,0-45.15-.05,31.93,31.93,0,0,1-45.15,0,31.92,31.92,0,0,0-45.15-.06,31.92,31.92,0,0,1-45.15-.05,31.92,31.92,0,0,0-45.15,0,31.93,31.93,0,0,1-45.15-.06A31.93,31.93,0,0,0,182,11.54a31.92,31.92,0,0,1-45.15-.06,31.93,31.93,0,0,0-45.15-.05,31.93,31.93,0,0,1-45.15,0,31.93,31.93,0,0,0-45.15-.06"/></g></g></svg>