<svg xmlns="http://www.w3.org/2000/svg" viewBox="0 0 493.85 1404.6"><defs><style>.cls-1{fill:none;}.cls-1,.cls-2{stroke:#000;stroke-miterlimit:10;}.cls-2{fill:#fff;}</style></defs><g id="Слой_2" data-name="Слой 2"><g id="Слой_1-2" data-name="Слой 1"><path class="cls-1" d="M475.52,1398.1V114.77A25.67,25.67,0,0,0,449.84,89.1H26.18A25.68,25.68,0,0,1,.5,63.42l0-37.2A25.68,25.68,0,0,1,26.22.54L450.67.5a25.68,25.68,0,0,1,25.68,25.68V59.6"/><circle class="cls-2" cx="475.35" cy="130.1" r="13"/><circle class="cls-2" cx="475.35" cy="247.1" r="9"/><circle class="cls-2" cx="475.35" cy="486.1" r="10"/><circle class="cls-2" cx="475.35" cy="364.1" r="10"/><circle class="cls-2" cx="475.35" cy="726.1" r="9"/><circle class="cls-2" cx="475.35" cy="1026.1" r="11"/><circle class="cls-2" cx="475.35" cy="848.1" r="11"/><circle class="cls-2" cx="475.35" cy="616.1" r="9"/><circle class="cls-2" cx="475.35" cy="1192.1" r="12"/><circle class="cls-2" cx="475.35" cy="1386.1" r="18"/></g></g></svg>