<svg xmlns="http://www.w3.org/2000/svg" viewBox="0 0 553 2147"><defs><style>.cls-1{fill:#fff;stroke:#000;stroke-miterlimit:10;}</style></defs><g id="Слой_2" data-name="Слой 2"><g id="Слой_1-2" data-name="Слой 1"><path class="cls-1" d="M423.5,2128.5c-83-19-199.56-55.59-212-125-23.81-132.82,354.3-270.1,328-372-26.2-101.5-424.26-53.94-439-131-16.27-85.07,455.67-212.06,441-303-14.94-92.61-520-57.77-532-141-12.67-87.68,535.15-213.38,522-300-11.87-78.21-469.24-46.63-484-136-14.25-86.29,398.79-196.43,383-297-12.82-81.67-295.69-76.05-309-164-8-52.6,84.85-109.73,152-145"/><circle class="cls-1" cx="121.5" cy="159.5" r="13"/><circle class="cls-1" cx="430.5" cy="323.5" r="9"/><circle class="cls-1" cx="47.5" cy="620.5" r="10"/><circle class="cls-1" cx="531.5" cy="756.5" r="10"/><circle class="cls-1" cx="9.5" cy="1056.5" r="9"/><circle class="cls-1" cx="541.5" cy="1197.5" r="11"/><circle class="cls-1" cx="100.5" cy="1500.5" r="11"/><circle class="cls-1" cx="539.5" cy="1631.5" r="9"/><circle class="cls-1" cx="211.5" cy="2003.5" r="12"/><circle class="cls-1" cx="423.5" cy="2128.5" r="18"/><circle class="cls-1" cx="273.5" cy="14.5" r="14"/></g></g></svg>