<svg xmlns="http://www.w3.org/2000/svg" viewBox="0 0 324.8 324.8"><defs><style>.cls-1,.cls-2{fill:#888eba;}.cls-1{stroke:#cbabc8;stroke-miterlimit:8;stroke-width:17px;}.cls-3{fill:#5b69aa;}.cls-4{fill:#eabe9b;}.cls-5{fill:#cbabc8;}.cls-6{fill:#fba58e;}.cls-7{fill:#fff;}.cls-8{fill:#e1a472;}.cls-9{fill:#f9805e;}.cls-10{fill:#4d5b96;}</style></defs><g id="Слой_2" data-name="Слой 2"><g id="Слой_1-2" data-name="Слой 1"><circle class="cls-1" cx="162.4" cy="162.4" r="153.9"/><path class="cls-2" d="M282.34,162.37a120.68,120.68,0,0,1-.65,12.53c-.89,8.58-18.59,12.06-21.18,20-1.71,5.22,12.15,15.11,9.78,20a120.07,120.07,0,0,1-9.78,16.58c-4.84,6.88-32,8.46-38.17,14.17-9.05,8.42,2.28,20.24-9,25.57a120.55,120.55,0,0,1-102,.25c-9.14-4.25-5.25-9.63-13-15.94-8.5-6.95-28.43-15.05-34.76-24.05a119.08,119.08,0,0,1-9.78-16.58c-3-6.16,5-15.14,3-21.83S43.11,182,42.38,174.9A120.32,120.32,0,0,1,228,61.75c7.77,5.1.71,16.94,7.09,23.65s26.17,8.3,30.87,16.34A119.88,119.88,0,0,1,274,118.33c2.39,6.08-14.9,12.41-13.51,18.93,1.45,6.82,21.52,13.86,21.76,21.06,0,1.34.07,2.69.07,4.05Z"/><path class="cls-3" d="M266,101.74H151v-40h77A120.8,120.8,0,0,1,266,101.74Z"/><path class="cls-4" d="M171,81.75a20,20,0,0,1-20,20H41.73v-40H151A20,20,0,0,1,171,81.75Z"/><path class="cls-3" d="M173.4,174.9v40H53.78a119.3,119.3,0,0,1-11.4-40Z"/><path class="cls-4" d="M281.69,174.9a119.53,119.53,0,0,1-11.4,40H173.4a20,20,0,0,1,0-40Z"/><path class="cls-5" d="M282.27,158.32H162.21v-40H274a119.67,119.67,0,0,1,8.25,40Z"/><path class="cls-6" d="M182,137.88l-19.19,20-105,.39-16.13.06v-40H162.05Z"/><path class="cls-5" d="M162.21,231.48v40H111.29a120.6,120.6,0,0,1-47.73-40Z"/><path class="cls-6" d="M260.51,231.48a120.67,120.67,0,0,1-47.2,39.74L161.6,271l-19.18-20,20-19.55Z"/><path class="cls-7" d="M119.65,122.52a4.19,4.19,0,0,0-3.89-2.61h0a4.19,4.19,0,0,0-3.88,2.61l0,.08L100.67,152a3.53,3.53,0,0,0,2,4.55,3.41,3.41,0,0,0,1.25.23,3.53,3.53,0,0,0,3.3-2.27l1.91-5h13.1l1.9,5a3.52,3.52,0,1,0,6.59-2.49l-11.07-29.35A.36.36,0,0,1,119.65,122.52Zm-7.79,19.85,3.89-10.22,3.86,10.22Z"/><path class="cls-7" d="M206.79,235.77l0-.1a4.2,4.2,0,0,0-3.89-2.6h0a4.18,4.18,0,0,0-3.88,2.61l0,.08-11.17,29.35a3.52,3.52,0,1,0,6.58,2.51l1.92-5h13.1l1.89,5a3.54,3.54,0,0,0,3.3,2.28,3.63,3.63,0,0,0,1.25-.23,3.52,3.52,0,0,0,2.05-4.54ZM199,255.53l3.89-10.22,3.86,10.22Z"/><path class="cls-7" d="M129.58,191.38h-8.91a3.52,3.52,0,1,0,0,7h5c-.92,4.12-3.59,7.84-9,7.84a11.36,11.36,0,1,1,6.35-20.78,3.53,3.53,0,0,0,4-5.84,18.41,18.41,0,1,0-10.3,33.67c9.64,0,16.37-7.57,16.37-18.41A3.51,3.51,0,0,0,129.58,191.38Z"/><path class="cls-7" d="M204.54,100.15c9.64,0,16.38-7.57,16.38-18.41a3.53,3.53,0,0,0-3.53-3.52h-8.9a3.53,3.53,0,1,0,0,7h5c-.92,4.12-3.58,7.83-9,7.83a11.36,11.36,0,1,1,6.35-20.78,3.53,3.53,0,1,0,4-5.84,18.41,18.41,0,1,0-10.3,33.67Z"/><path class="cls-7" d="M217.92,202.88a3.52,3.52,0,0,0-5,.44,10.12,10.12,0,0,1-.85.88,8.48,8.48,0,0,1-5.83,2.06,11.36,11.36,0,1,1,6.35-20.78,3.53,3.53,0,0,0,4-5.84,18.41,18.41,0,1,0-10.3,33.67,15.49,15.49,0,0,0,10.51-3.85,15.93,15.93,0,0,0,1.57-1.61,3.53,3.53,0,0,0-.44-5Z"/><path class="cls-7" d="M118.47,100.15A15.55,15.55,0,0,0,129,96.31a17.2,17.2,0,0,0,1.57-1.62,3.53,3.53,0,0,0-5.41-4.53,7.87,7.87,0,0,1-.85.88,8.45,8.45,0,0,1-5.82,2.06,11.36,11.36,0,1,1,6.35-20.78,3.52,3.52,0,0,0,3.94-5.84,18.41,18.41,0,1,0-10.29,33.67Z"/><path class="cls-7" d="M203.49,156.73a3.53,3.53,0,0,0,3.53-3.52V127h4.73a3.53,3.53,0,0,0,0-7H195.31a3.53,3.53,0,1,0,0,7H200v26.25a3.53,3.53,0,0,0,3.52,3.52Z"/><path class="cls-7" d="M123.93,233.07H107.49a3.53,3.53,0,0,0,0,7.05h4.67v26.24a3.52,3.52,0,1,0,7,0V240.12h4.73a3.53,3.53,0,1,0,0-7.05Z"/><path class="cls-8" d="M41.73,61.75H57.86v40H41.73Z"/><path class="cls-9" d="M41.73,118.33H57.86v39.93l-16.13.06Z"/><path class="cls-10" d="M42.38,174.9H57.86v40H53.78A119.3,119.3,0,0,1,42.38,174.9Z"/></g></g></svg>