<svg xmlns="http://www.w3.org/2000/svg" viewBox="0 0 324.8 324.8"><defs><style>.cls-1{fill:#888eba;stroke:#cbabc8;stroke-miterlimit:8;stroke-width:17px;}.cls-2{fill:#cbabc8;}.cls-3{fill:#eabe9b;}.cls-4{fill:#4d5b96;}</style></defs><g id="Слой_2" data-name="Слой 2"><g id="Слой_1-2" data-name="Слой 1"><circle class="cls-1" cx="162.4" cy="162.4" r="153.9"/><polygon class="cls-2" points="132.51 262.79 158.91 256.74 184.77 234.44 193.14 212.98 195.56 189.46 182.02 160 164.03 144.49 158.91 136.9 158.91 123.7 158.91 84.77 167.16 82.48 173.14 75.98 171.02 70.03 164.03 65.87 101.4 65.87 95.35 67.58 92.14 70.98 92.14 76.45 95.14 79.98 98.37 82.48 102.14 83.98 106.1 84.77 106.1 138.82 103.14 142.98 96.11 148.7 87.14 154.98 73.1 176.9 69.14 204.98 78.14 230.98 94.14 249.98 110.47 259.03 132.51 262.79"/><path class="cls-3" d="M221.63,136.9l-19.81,9.9v26.4l19.81,9.91,19.8-9.91V146.8Z"/><path class="cls-3" d="M132.51,156.7l-23,40.2a26.08,26.08,0,0,0,22.65,39h.65a26.09,26.09,0,0,0,22.64-39Z"/><path class="cls-4" d="M139.77,194.33l-4,5.28v-19.8h-6.6v34.94l-7.57-7.57L117,211.84l12.24,12.24v28.34h6.6V210.61l9.24-12.32Z"/><path class="cls-4" d="M223.1,154.61l-2.95-5.91-8.43,4.22v14.16l8.43,4.22,2.95-5.91L218.33,163v-6Z"/><path class="cls-4" d="M264.53,210.12V181.07l-19.8-9.91V148.84l18-9-2.95-5.91-18.33,9.17-16.5-8.25V112.53l16.5-8.25,18.33,9.16,2.95-5.9-18-9V74.19h-6.6V98.55l-16.5,8.25L203.3,97.64l-3,5.9,18,9v22.33l-16.51,8.25-16.5-8.25V113.19a9.9,9.9,0,1,0-6.6,0v21.67L165,141.74a10.38,10.38,0,0,1-2.73-7.08V87.39a13.21,13.21,0,0,0,0-26.41H102.8a13.21,13.21,0,0,0,0,26.41v47.38a9.86,9.86,0,0,1-4.57,8.48A66,66,0,0,0,125,265.2a67.86,67.86,0,0,0,7.64.43,65.18,65.18,0,0,0,43.9-16.83,66,66,0,0,0,18.8-29l3.2,1.6v26.41l21.63,10.81,3-5.9-18-9V221.45l18-9,1.83-.91v-26.4l16.5-8.26,16.5,8.26v25a9.91,9.91,0,1,0,6.6,0Zm-66-61.28v22.32l-5.24,2.62A65.62,65.62,0,0,0,171,146.08l11-5.49ZM182,100.59a3.3,3.3,0,1,1-3.3,3.3A3.3,3.3,0,0,1,182,100.59Zm-9.9,143.3a58.88,58.88,0,0,1-46.41,14.75,59.37,59.37,0,0,1-24-109.74,16.19,16.19,0,0,0,6.82-8.7h20.72v-6.6h-19.8V127h26.4v-6.61h-26.4v-6.6h19.8v-6.6h-19.8v-6.6h26.4V94h-26.4V80.79H102.8a6.61,6.61,0,0,1,0-13.21h59.42a6.61,6.61,0,0,1,0,13.21H122.61v6.6h33v47.27a16.73,16.73,0,0,0,7.81,14.28,59.35,59.35,0,0,1,8.7,94.95Zm29.7-28.17-4.75-2.37a65.68,65.68,0,0,0,1.45-13.74,66.41,66.41,0,0,0-3-19.58l6.26-3.14,16.51,8.26v22.32Zm36.31-44.56-16.5,8.26-16.51-8.26V148.84l16.51-8.25,16.5,8.25Zm23.1,51.55a3.3,3.3,0,1,1,3.3-3.3A3.3,3.3,0,0,1,261.23,222.71Z"/></g></g></svg>