<svg xmlns="http://www.w3.org/2000/svg" viewBox="0 0 324.8 324.8"><defs><style>.cls-1{fill:#888eba;stroke:#cbabc8;stroke-miterlimit:8;stroke-width:17px;}.cls-2{fill:#3a69ff;}.cls-3{fill:#1b53a6;}.cls-4{fill:#fed759;}.cls-5{fill:#ffb3d0;}.cls-6{fill:#e67199;}.cls-7{fill:#83a1ff;}.cls-8{fill:#5f86fe;}</style></defs><g id="Слой_2" data-name="Слой 2"><g id="Слой_1-2" data-name="Слой 1"><circle class="cls-1" cx="162.4" cy="162.4" r="153.9"/><g id="flat"><path class="cls-2" d="M143.3,69.87h100V244.13h-100Z"/><path class="cls-3" d="M194.25,249.11l-7.46-5-11.18-45.07a20.41,20.41,0,0,0-5.19-9.34l-22.36-22.94-29-.1v16.14h21l17.75,19.36,9.68,41.95v6.45H193.8a.8.8,0,0,0,.81-.8.82.82,0,0,0-.36-.67Z"/><path class="cls-4" d="M140,118.27H108.23a2.12,2.12,0,0,0-2.12,2.12v46.29h42V126.34A8.07,8.07,0,0,0,140,118.27Z"/><path class="cls-3" d="M106.11,166.68l-3.23,29-48.4,14.7,7.3,25.35a.81.81,0,0,0,1,.55.83.83,0,0,0,.55-.53L66,227.24l44.51-13.86a16.14,16.14,0,0,0,11.25-13.62l3.67-33.08Z"/><path class="cls-5" d="M143.3,131.35l7.61,15.21,4.4,8.8A14.64,14.64,0,0,0,180.54,157l18-26.66L188.4,121.5l-19.87,29.05-5.23-10.8-7.09-14.65Z"/><path class="cls-5" d="M92.41,128.52l-7.59,19.4a13.75,13.75,0,0,0,16.78,18.17l37.74-11.41a3.23,3.23,0,0,0,2.18-3.94l-2.22-8.12a3.23,3.23,0,0,0-4-2.26l-.24.08-5,1.79-.9-1.86a2,2,0,0,0-3.77.87v2.31l-25.82,7L106,134.7Z"/><path class="cls-4" d="M112.61,118.27l-11.08,27.59-.18-.07-13.7-5.12,4.76-12.15a16.15,16.15,0,0,1,15-10.25Z"/><path class="cls-4" d="M163.3,139.75l-.33.15-12.06,6.66-14.15-28.29h8.56a12.11,12.11,0,0,1,10.89,6.83Z"/><path class="cls-5" d="M125.55,119.89V105.37H132v14.52a3.23,3.23,0,0,1-6.46,0Z"/><path class="cls-6" d="M128.78,110.21H132v6.45h0a3.23,3.23,0,0,1-3.23-3.23v-3.22Z"/><path class="cls-5" d="M125.47,98.91h11.3v11.3a4.84,4.84,0,0,1-4.84,4.84,6.46,6.46,0,0,1-6.46-6.46Z"/><path class="cls-3" d="M141.61,94.07V97.3a4.84,4.84,0,0,1-4.84,4.84h-6.46a6.45,6.45,0,0,1-6.45,6.45h-1.62v-7.26a7.26,7.26,0,0,1,7.26-7.26Z"/><circle class="cls-5" cx="125.47" cy="108.59" r="3.23"/><path class="cls-7" d="M243.34,244.13,182,260.27V86l61.31-16.13Z"/><circle class="cls-8" cx="193.32" cy="168.29" r="4.84"/></g></g></g></svg>