<svg xmlns="http://www.w3.org/2000/svg" viewBox="0 0 324.8 324.8"><defs><style>.cls-1{fill:#888eba;stroke:#cbabc8;stroke-miterlimit:8;stroke-width:17px;}.cls-2{fill:#d0cee7;}.cls-3{fill:#beb9dd;}.cls-4{fill:#26457d;}.cls-5{fill:#21386b;}.cls-6{fill:#7398d3;}.cls-7{fill:#707dd3;}.cls-8{fill:#d3effb;}.cls-9{fill:#a7a2d3;}</style></defs><g id="Слой_2" data-name="Слой 2"><g id="Слой_1-2" data-name="Слой 1"><circle class="cls-1" cx="162.4" cy="162.4" r="153.9"/><path class="cls-2" d="M146.93,84.24h49.26a12.35,12.35,0,0,1,8.74,3.62l22.56,22.56a12.35,12.35,0,0,1,3.62,8.74v77.89a12.35,12.35,0,0,1-3.62,8.74l-18.28,18.28a12.38,12.38,0,0,1-8.73,3.61h-51a2.49,2.49,0,0,1-2.5-2.49V193.56a2.49,2.49,0,0,1,2.5-2.49H191a8.18,8.18,0,0,0,5.78-2.4l9.82-9.82a8.17,8.17,0,0,0,2.39-5.78V138.71a8.18,8.18,0,0,0-2.49-5.88l-9.74-9.41a8.14,8.14,0,0,0-5.68-2.3H146.93Z"/><path class="cls-3" d="M227.49,110.42,204.93,87.86a12.35,12.35,0,0,0-8.74-3.62h-9A12.35,12.35,0,0,1,196,87.86l22.56,22.56a12.35,12.35,0,0,1,3.62,8.74v77.89a12.35,12.35,0,0,1-3.62,8.74l-18.28,18.28a12.38,12.38,0,0,1-8.74,3.61h9a12.38,12.38,0,0,0,8.73-3.61l18.28-18.28a12.35,12.35,0,0,0,3.62-8.74V119.16a12.35,12.35,0,0,0-3.62-8.74Z"/><path class="cls-3" d="M146.93,84.24h7.39v36.88h-7.39Z"/><path class="cls-4" d="M142.28,77.81H112.81V54.05a1.82,1.82,0,0,1,1.82-1.82h25.83a1.82,1.82,0,0,1,1.82,1.82Z"/><path class="cls-5" d="M135.52,52.23V77.81h6.76V54.05a1.82,1.82,0,0,0-1.82-1.82Z"/><path class="cls-6" d="M145.42,77.81H109.67a1.52,1.52,0,0,0-1.51,1.51v52.19a1.52,1.52,0,0,0,1.51,1.51h35.75a1.51,1.51,0,0,0,1.51-1.51V79.32A1.51,1.51,0,0,0,145.42,77.81Z"/><path class="cls-7" d="M139.13,77.81V133h6.29a1.51,1.51,0,0,0,1.51-1.51V79.32a1.51,1.51,0,0,0-1.51-1.51Z"/><path class="cls-2" d="M117.14,133H138v18.75H117.14Z"/><path class="cls-3" d="M131,133h7v18.75h-7Z"/><path class="cls-4" d="M136,162H95.13a2,2,0,0,1-2-2v-6.23a2,2,0,0,1,2-2H138V160A2,2,0,0,1,136,162Z"/><path class="cls-5" d="M131,151.77V162h5a2,2,0,0,0,2-2v-8.21Z"/><path class="cls-8" d="M105.37,174h-2.16a5.58,5.58,0,0,1-5.59-5.58V162H111v6.44A5.58,5.58,0,0,1,105.37,174Z"/><path class="cls-8" d="M127.9,174h-2.16a5.58,5.58,0,0,1-5.58-5.58V162h13.33v6.44A5.58,5.58,0,0,1,127.9,174Z"/><path class="cls-4" d="M246.42,257H87.15a1.81,1.81,0,0,1-1.81-1.81v-6.51a8.58,8.58,0,0,1,8.59-8.59H239.64a8.58,8.58,0,0,1,8.59,8.59v6.51A1.81,1.81,0,0,1,246.42,257Z"/><path class="cls-5" d="M239.64,240.13h-9.16a8.59,8.59,0,0,1,8.6,8.59V257h7.34a1.81,1.81,0,0,0,1.81-1.81v-6.51A8.58,8.58,0,0,0,239.64,240.13Z"/><path class="cls-4" d="M146.93,211.52h-56a10.65,10.65,0,0,1-10.65-10.65v-1.52a1.26,1.26,0,0,1,1.26-1.26h65.38v13.43Z"/><path class="cls-5" d="M139.13,198.09h7.8v13.43h-7.8Z"/><path class="cls-6" d="M213.73,240.13H169.47V223.75a22.13,22.13,0,0,1,44.26,0v16.38Z"/><path class="cls-7" d="M191.6,201.62a22.53,22.53,0,0,0-4.53.46,22.15,22.15,0,0,1,17.61,21.67v16.38h9V223.75A22.13,22.13,0,0,0,191.6,201.62Z"/><path class="cls-9" d="M161.64,98.36h-2.45a3.09,3.09,0,1,1,0-6.18h2.45a3.09,3.09,0,1,1,0,6.18Z"/><path class="cls-9" d="M161.64,113.68h-2.45a3.1,3.1,0,0,1,0-6.19h2.45a3.1,3.1,0,0,1,0,6.19Z"/><path class="cls-2" d="M122,71.44A3.09,3.09,0,0,1,119,68.35V61.68a3.09,3.09,0,1,1,6.18,0v6.67A3.09,3.09,0,0,1,122,71.44Z"/><path class="cls-2" d="M133.05,71.44A3.09,3.09,0,0,1,130,68.35V61.68a3.09,3.09,0,1,1,6.18,0v6.67A3.09,3.09,0,0,1,133.05,71.44Z"/><path class="cls-5" d="M121.2,222.7H108.32a2.87,2.87,0,0,1-2.87-2.87v-8.31h18.62v8.31A2.87,2.87,0,0,1,121.2,222.7Z"/><path class="cls-7" d="M191.6,224a3.09,3.09,0,0,1-3.09-3.09v-3.76a3.09,3.09,0,1,1,6.18,0v3.76A3.09,3.09,0,0,1,191.6,224Z"/></g></g></svg>