<svg xmlns="http://www.w3.org/2000/svg" viewBox="0 0 588.69 1031.92"><defs><style>.cls-1{fill:#5c5e6c;}.cls-2{fill:#42434d;}.cls-3{fill:#6f7cb5;}.cls-4{fill:#ecc6a7;}.cls-5{fill:#969bc3;}.cls-5,.cls-6{fill-rule:evenodd;}.cls-6{fill:#6e75ab;}.cls-7{fill:#eabe9b;}.cls-8{fill:#eeefee;}</style></defs><g id="Слой_2" data-name="Слой 2"><g id="Слой_1-2" data-name="Слой 1"><path class="cls-1" d="M467.26,781.51V910.35a272.87,272.87,0,0,1-59.12,36.15Q400.39,950,392.47,953a273.71,273.71,0,0,1-267.25-42.61V781.51Z"/><path class="cls-2" d="M209.09,781.51V956.18a273.19,273.19,0,0,1-83.87-45.82V781.51Z"/><path class="cls-2" d="M408.14,808.8V946.5Q400.39,950,392.47,953V808.8c0-5.3,3.51-9.6,7.84-9.6S408.14,803.5,408.14,808.8Z"/><path class="cls-2" d="M467.26,781.51V792l-171,65.2-171-65.2V781.51Z"/><path class="cls-1" d="M552.24,713.32v35.79l-256,97.6-256-97.6V713.32l256-97.6Z"/><path class="cls-2" d="M296.24,810.92v35.79l-256-97.6V713.32Z"/><path class="cls-3" d="M427.76,995.87a7.84,7.84,0,0,1-7.83-7.84V765.83L293,708.37a7.84,7.84,0,0,1,6.46-14.29L431,753.64a7.84,7.84,0,0,1,4.6,7.14V988A7.84,7.84,0,0,1,427.76,995.87Z"/><path class="cls-4" d="M449.71,1010a21.95,21.95,0,1,1-21.94-22A21.94,21.94,0,0,1,449.71,1010Z"/><g id="Layer_1" data-name="Layer 1"><path class="cls-5" d="M47,442.48c3.76,3.3,7.46,8.55,8,10.06s-8.45,12-5.73,21.43,6.93,19.08,10.39,18.63,10.24-14.54,10.55-26.43-2.69-34.23,6.74-37.66,30.13-2,32.19-8,11.22-20.88,14.06-31c2-7.25,13.05-18.05,20.65-23.19,6.42-4.34-26.27-23.05-39.81-20.62-18.15,3.26-25.65,3.87-32.25,10.67s-15.9,5.63-19.85,8.89S44.05,376.11,43,380.08s-.41,5.19-9,5.44-26.78-7.3-25.52,0,9.78,11.13,13.26,15,7,10.14,6.48,12.73-9.7,5.46-8.39,9.34c5.78,17.13,19.3,13,27.19,19.91Z"/><path class="cls-6" d="M47,442.48c3.76,3.3,7.46,8.55,8,10.06s-8.46,12-5.74,21.44,6.93,19.07,10.39,18.62,10.24-14.54,10.55-26.43c.14-5.59-.45-13.49-.13-20.65-4.26-.08-10.72,2-13.48.48-3.92-2.17-5.29-10-6.44-12.45s-9.36-3.2-13.2-8.9,8.35-7.28,7.76-11.86S31,402.47,35.56,393.3s10.11-.24,12.84-7.21,6-7.75,7.08-14.81c.34-2.14,1.87-5.33,4-8.78-3.08.76-5.82,1.34-7.54,2.75C48,368.52,44,376.11,43,380.07s-.41,5.19-9,5.45-26.78-7.3-25.52,0,9.78,11.12,13.26,15,7,10.13,6.47,12.73-9.7,5.45-8.39,9.34c5.79,17.13,19.31,13,27.2,19.91Z"/><path class="cls-5" d="M98,321.07c3.46-3.67,1.41-17.92,7.39-15s12.57,2,16.19,5.73S133,322.64,133.86,326s8,13.76-1.65,10.66-14.25-7.36-19.39-7.83-12,.88-13.28-1.6A19.3,19.3,0,0,1,98,321.07Z"/><path class="cls-5" d="M0,297.42c3.46,1,23-2.48,25.71-5.09s12-13,14-18.45,11.52-19.3,14.15-12.25,4.09,12.1,11.28,9.18,17,1.22,19.41,4,8.57,13.22,11.54,15.59-6.61,5.36-12.43,9.5-11,7.33-11,15-5.4,18.19-9.28,19.51-14-4.41-15.41-12.11-3.18-17.22-9.31-16.83S23,307.91,19,308.07s-15.49.44-19-10.65Z"/><path class="cls-5" d="M155.18,331.52c3.69,3.8,16.47,7.42,20.3,8.77s3.86,10,8.29,16.68,4.87,9.42,7.55,11.65,15.54-7.42,19.23-2.9,10.15,10.76,15.91,9.3,10.87-3.44,10.19-9.71-4.63-18.65,2.86-20.7,20.16-5.14,22.72,2.42-4.78,12.2-1.5,19,8.09,18.92,6.49,32,1.26,37.84,3.64,37,4.61-16.24,16.82-24.22,28.43-10.59,29.84-17.8,6.36-26.7,12.81-20.46,26.71,0,36.47,5.71,4.88,10.5,16.68,6.26,14.7-2.08,27.54.31,22.48,13.09,34,19.52,4.55,2.8,18.13,8.79S476.42,421,483.86,423s13.33-.42,18.91-11,17.62-24,22.61-19.92,24.44.39,28.13,2.75,11.23-2.36,7.65-12.94,1.75-26.82,1.38-29.34-14-10,2.73-16.81,28.06-12.39,21.56-14.52-16.37-1.44-23.76-9-46-45.56-46.35-46.64-1.67-17-10-18-16.58.08-19-3.44-2.13-42.59-27.09-46.66-26.88-12.56-14.27-29.34,34.17-31.3,42.1-30.62,18.86-6.86,13.74-22-8.52-33.69-5.21-36.74,20.65-9.39,18.52-17.1S502,52.78,497.71,49.41s-.85,3.9-6.88,8.83-5.08,8.45-13.15,9.5S443.19,76.05,434,79.4s-19.43,7.3-28.88,6.41-15.55-11.1-23.47-9.62-61.69,4-71.68,10.06-21.77,15.31-28.16,22-11,12.89-20.25,15.52-26.5,7-26.5,7-32.6,28.12-42.54,30-28.22,7.63-29.13,14.2-3.32,15.08-6.76,18.41-14.16,8.64-18.24,14.36-19.71,24.24-16.32,41.38,11.48,19.7,17.24,18.23,5.71,19.72,6.17,25.34,7.15,18.28,7.15,18.28-7.14,13,2.57,20.43Z"/><path class="cls-6" d="M155.18,331.52c3.69,3.8,16.47,7.42,20.3,8.77s3.86,10,8.29,16.68,4.87,9.43,7.55,11.65,15.54-7.43,19.23-2.9,10.15,10.77,15.91,9.3,10.87-3.44,10.19-9.71-4.63-18.65,2.86-20.7,20.16-5.14,22.72,2.42-4.78,12.2-1.5,19,8.09,18.91,6.49,32,1.26,37.84,3.63,37,4.61-16.24,16.83-24.22,28.42-10.59,29.84-17.8,6.36-26.7,12.81-20.46,26.71,0,36.46,5.71,4.88,10.5,16.69,6.27,14.69-2.09,27.53.3S433.5,398,445.06,404.39s4.55,2.8,18.13,8.79S476.42,421,483.86,423s13.33-.42,18.9-11,17.63-24,22.62-19.93,24.44.39,28.12,2.75c3.33,2.13,9.79-1.5,8.4-10a302.21,302.21,0,0,0-37.5-11.27c-12.83-2.95-12.9,6.3-22.65,6.15-11.52-.18-31.81-9.45-34-9.23-7.51.75-14.81,7.4-20,4.39s-8.82-13.73-33.57-28.63-30.9,7.47-34.84,6.41-18.25-2.77-26.84-3.45-14-7.8-21.69-12.95-18.83,27.26-18.83,27.26a35.93,35.93,0,0,1-14.95-23c-2.93-15.72-29.26-26.51-33.74-29.17s-19.11,5.28-25.15,13.89S226.53,337,222.42,337.17s-14.88-6.9-21.53-14.21S182,322.1,172,327.39s-7.55-8.19-11.73-22.3,9.36-25.25,7.19-31.68,4-14.5,4-18.08-7.57-11.76-11.86-12.1-6.3-9.8-5.45-17.86,6.23-6.28,7.64-10.94,8.89-10.77,17.07-20.1,17-6.34,26.94-13.89,26.48,4.16,30.77,4.5,7.63-12.73,18.13-24,15.58,5.47,15.65-19,5.33-7.18,24.39-21.39c13.61-10.14,15.55-23.24,23.18-36.9A29.57,29.57,0,0,0,310,86.26c-10,6-21.78,15.31-28.16,22s-11,12.88-20.26,15.52-26.49,7-26.49,7-32.6,28.12-42.54,30-28.22,7.62-29.13,14.19-3.32,15.08-6.76,18.41-14.16,8.64-18.24,14.36-19.71,24.24-16.32,41.38,11.48,19.7,17.24,18.23,5.71,19.73,6.17,25.34,7.15,18.28,7.15,18.28-7.14,13,2.57,20.42Z"/><path class="cls-5" d="M379,291.73s-12,1.65,4,21.75,20.73,24.27,28,31.45,7.75-7,1.62-22.21-12-29.65-12.83-32.24S379,291.73,379,291.73Z"/></g><path class="cls-7" d="M520.42,24.81c0,29.58-24.81,51.53-24.81,51.53s-24.81-22-24.81-51.53a24.81,24.81,0,1,1,49.62,0Z"/><circle class="cls-8" cx="495.61" cy="24.81" r="15.02"/><path class="cls-7" d="M455.4,225.79c0,29.59-24.81,51.53-24.81,51.53s-24.82-21.94-24.82-51.53a24.82,24.82,0,0,1,49.63,0Z"/><circle class="cls-8" cx="430.59" cy="225.79" r="15.02"/><path class="cls-7" d="M341.11,178.5c0,29.59-24.81,51.53-24.81,51.53s-24.81-21.94-24.81-51.53a24.81,24.81,0,0,1,49.62,0Z"/><circle class="cls-8" cx="316.3" cy="178.5" r="15.02"/><path class="cls-7" d="M524.21,295.24c0,29.58-24.81,51.53-24.81,51.53s-24.82-21.95-24.82-51.53a24.82,24.82,0,0,1,49.63,0Z"/><circle class="cls-8" cx="499.4" cy="295.24" r="15.02"/></g></g></svg>