<svg xmlns="http://www.w3.org/2000/svg" viewBox="0 0 1605.08 398.13"><defs><style>.cls-1{fill:#fff;opacity:0.57;}.cls-2{fill:none;stroke:#696b7b;stroke-miterlimit:8;stroke-width:4px;}</style></defs><g id="Слой_2" data-name="Слой 2"><g id="Слой_1-2" data-name="Слой 1"><path class="cls-1" d="M253.6,16.09a47.75,47.75,0,0,0,67.54.08,47.77,47.77,0,0,1,67.55.08,47.75,47.75,0,0,0,67.54.08,47.76,47.76,0,0,1,67.54.08,47.75,47.75,0,0,0,67.54.08,47.77,47.77,0,0,1,67.55.08,47.75,47.75,0,0,0,67.54.08,47.77,47.77,0,0,1,67.54.08,47.75,47.75,0,0,0,67.54.08A47.76,47.76,0,0,1,929,16.9a47.78,47.78,0,0,0,67.55.08,47.75,47.75,0,0,1,67.54.08,47.76,47.76,0,0,0,67.54.08,47.75,47.75,0,0,1,67.54.08,47.76,47.76,0,0,0,67.54.08,47.76,47.76,0,0,1,67.55.08,47.76,47.76,0,0,0,67.54.08,47.75,47.75,0,0,1,67.54.08c15.67,18.38,30.42,34.2,54.18,14.18,20.17-17,39.55-15.76,58,3.13,2.28,2.34,6.78,7.08,9,9.47,18,19.23,16.33,50.11-3,68a47.76,47.76,0,0,0-2.61,67.5,47.75,47.75,0,0,1-2.61,67.49,47.75,47.75,0,0,0-2.61,67.49c17.91,19.36,16.4,49.21-2.61,67.49s-48.92,18.59-67.55-.08a47.76,47.76,0,0,0-67.54-.08,47.76,47.76,0,0,1-67.54-.08,47.76,47.76,0,0,0-67.54-.08,47.77,47.77,0,0,1-67.55-.08,47.76,47.76,0,0,0-67.54-.08,47.76,47.76,0,0,1-67.54-.08,47.76,47.76,0,0,0-67.54-.08,47.76,47.76,0,0,1-67.54-.08,47.76,47.76,0,0,0-67.55-.08,47.76,47.76,0,0,1-67.54-.08,47.75,47.75,0,0,0-67.54-.08,47.76,47.76,0,0,1-67.54-.08,47.76,47.76,0,0,0-67.55-.08,47.76,47.76,0,0,1-67.54-.08,47.75,47.75,0,0,0-67.54-.08,47.76,47.76,0,0,1-67.54-.08,47.75,47.75,0,0,0-67.54-.08,47.77,47.77,0,0,1-67.55-.08,47.75,47.75,0,0,0-67.54-.08c-18.67,18.62-47.33,19.94-67.54-.08-19.35-19.17-48.78-18.87-67.46-.25s-47.49,17.06-67.54-.08c-3.12-2.66-7.87-8.84-10.06-11.85-15.55-21.31-16.33-50.11,3-68a47.76,47.76,0,0,0,2.61-67.5,47.75,47.75,0,0,1,2.61-67.49A47.75,47.75,0,0,0,24.45,98c-17.91-19.36-16-48.78,2.61-67.49,6.17-6.21,15.41-13.6,22.8-17.29C71.41,2.39,100-2.9,118.6,15.77s50.07,20.21,67.55.08C202.28-2.73,235-2.58,253.6,16.09Z"/><path class="cls-2" d="M253.6,16.09a47.75,47.75,0,0,0,67.54.08,47.77,47.77,0,0,1,67.55.08,47.75,47.75,0,0,0,67.54.08,47.76,47.76,0,0,1,67.54.08,47.75,47.75,0,0,0,67.54.08,47.77,47.77,0,0,1,67.55.08,47.75,47.75,0,0,0,67.54.08,47.77,47.77,0,0,1,67.54.08,47.75,47.75,0,0,0,67.54.08A47.76,47.76,0,0,1,929,16.9a47.78,47.78,0,0,0,67.55.08,47.75,47.75,0,0,1,67.54.08,47.76,47.76,0,0,0,67.54.08,47.75,47.75,0,0,1,67.54.08,47.76,47.76,0,0,0,67.54.08,47.76,47.76,0,0,1,67.55.08,47.76,47.76,0,0,0,67.54.08,47.75,47.75,0,0,1,67.54.08c15.67,18.38,30.42,34.2,54.18,14.18,20.17-17,39.55-15.76,58,3.13,2.28,2.34,6.78,7.08,9,9.47,18,19.23,16.33,50.11-3,68a47.76,47.76,0,0,0-2.61,67.5,47.75,47.75,0,0,1-2.61,67.49,47.75,47.75,0,0,0-2.61,67.49c17.91,19.36,16.4,49.21-2.61,67.49s-48.92,18.59-67.55-.08a47.76,47.76,0,0,0-67.54-.08,47.76,47.76,0,0,1-67.54-.08,47.76,47.76,0,0,0-67.54-.08,47.77,47.77,0,0,1-67.55-.08,47.76,47.76,0,0,0-67.54-.08,47.76,47.76,0,0,1-67.54-.08,47.76,47.76,0,0,0-67.54-.08,47.76,47.76,0,0,1-67.54-.08,47.76,47.76,0,0,0-67.55-.08,47.76,47.76,0,0,1-67.54-.08,47.75,47.75,0,0,0-67.54-.08,47.76,47.76,0,0,1-67.54-.08,47.76,47.76,0,0,0-67.55-.08,47.76,47.76,0,0,1-67.54-.08,47.75,47.75,0,0,0-67.54-.08,47.76,47.76,0,0,1-67.54-.08,47.75,47.75,0,0,0-67.54-.08,47.77,47.77,0,0,1-67.55-.08,47.75,47.75,0,0,0-67.54-.08c-18.67,18.62-47.33,19.94-67.54-.08-19.35-19.17-48.78-18.87-67.46-.25s-47.49,17.06-67.54-.08c-3.12-2.66-7.87-8.84-10.06-11.85-15.55-21.31-16.33-50.11,3-68a47.76,47.76,0,0,0,2.61-67.5,47.75,47.75,0,0,1,2.61-67.49A47.75,47.75,0,0,0,24.45,98c-17.91-19.36-16-48.78,2.61-67.49,6.17-6.21,15.41-13.6,22.8-17.29C71.41,2.39,100-2.9,118.6,15.77s50.07,20.21,67.55.08C202.28-2.73,235-2.58,253.6,16.09Z"/></g></g></svg>