<svg xmlns="http://www.w3.org/2000/svg" viewBox="0 0 957 35.36"><defs><style>.cls-1{fill:none;stroke:#696b7b;stroke-miterlimit:8;stroke-width:4px;}</style></defs><g id="Слой_2" data-name="Слой 2"><g id="Слой_1-2" data-name="Слой 1"><path class="cls-1" d="M1.42,17.07a51.9,51.9,0,0,0,73.39.09,51.9,51.9,0,0,1,73.4.08,51.89,51.89,0,0,0,73.4.09,51.91,51.91,0,0,1,73.4.09,51.91,51.91,0,0,0,73.4.09,51.89,51.89,0,0,1,73.39.08,51.89,51.89,0,0,0,73.4.09,51.91,51.91,0,0,1,73.4.09,51.91,51.91,0,0,0,73.4.09,51.89,51.89,0,0,1,73.39.08,51.91,51.91,0,0,0,73.4.09,51.9,51.9,0,0,1,73.4.09,51.9,51.9,0,0,0,73.4.08"/></g></g></svg>