<svg xmlns="http://www.w3.org/2000/svg" viewBox="0 0 232.28 232.28"><defs><style>.cls-1{fill:#e36414;}.cls-2{fill:#b24e10;}.cls-3{fill:#ef917b;}.cls-4,.cls-6{fill:#e96b4e;}.cls-5{fill:#f7c9ab;}.cls-6{fill-rule:evenodd;}.cls-7{fill:#ebeae0;}.cls-8{fill:#f5f4ef;}.cls-9{fill:#db3429;}.cls-10{fill:#d7d5c1;}.cls-11{fill:#f3ab7d;}.cls-12{fill:#b3271e;}</style></defs><g id="Слой_2" data-name="Слой 2"><g id="Слой_1-2" data-name="Слой 1"><path class="cls-1" d="M222.57,134.19s9.71-8.75,9.71-31.19-19.2-43.31-21.61-61.63C208.36,23.64,201.14,0,163.57,0c-34.75,0-40.95,30.26-40.95,47.29S128.17,81.9,129.56,93v41.18Z"/><path class="cls-2" d="M202.35,45.11c.78,8.8-5.93,20-3.38,27.72s10.69,26.14-2.78,38.31-40.25,13-50.2-3.14-15.5-60.71-15.5-60.71Z"/><path class="cls-3" d="M138.81,184.67,137.2,169.4l11.47-63.11c4.81-.93,9.49-4.21,11.24-8.7L158.2,85.28l20-5.23,1.66,15c14.07,12.26,26.93,5.09,36.23,16,13,15.23,3.24,61,0,81.86s6.57,39.33,6.57,39.33H149Z"/><path class="cls-4" d="M216.09,193c3.24-20.82,12.95-66.63,0-81.85,0,15-36.56,89.07-18.65,121.18h25.22s-9.81-18.51-6.57-39.33"/><path class="cls-5" d="M188.88,100.73c-.88,1.3-17.21,24.62-22.44,41.37,0,0-11.57-10.6-14.67-23.23l-3.1-12.58c4.81-.93,9.49-4.21,11.29-8.7l-1.71-12.31,19.94-5.23,1.67,15a30.54,30.54,0,0,0,9,5.69"/><path class="cls-6" d="M87.45,214.7H15.27v17.58H87.45Z"/><path class="cls-7" d="M79.68,81.62,77.46,95.78,84.12,104l32,18.65V214.7H15.27v17.58H0s.79-94.16,8-111.51c5.46-13.14,32.94-19.16,32.94-19.16l11.57-6.48L55,78.71Z"/><path class="cls-8" d="M84.12,104l-6.66-8.19L61.08,106.33,52.47,95.09,40.9,101.57,50,115.45l11.11-9.12L67.33,118l10.59-6.89Z"/><path class="cls-9" d="M149.92,141.13l1.85-22.3s3.93-6.2,3-8.75-9.43-4.86-9.43-4.86,4.07-8,.6-10.36-11.57,4.39-11.57,4.39S127,88.15,124.19,90s-5.27,10-5.27,10S96.15,89.77,96.15,95.09a23.4,23.4,0,0,0,2.41,10s-21.38-3.47-21.38,1.85c0,5.09,4.26,11.24,4.26,11.24l.92,23Z"/><path class="cls-10" d="M81.9,217H15.27a2.34,2.34,0,0,1-2-1.15l-5.55-9.63a2.27,2.27,0,0,1,0-2.36l4.35-7,6.48-64,4.58.46L16.7,197.86a2.07,2.07,0,0,1-.32,1l-3.93,6.25,4.16,7.26H81.9Z"/><path class="cls-11" d="M79.68,81.62,77.46,95.78,61.08,106.33,52.47,95.09,55,78.66Z"/><path class="cls-9" d="M101.8,47.29S107.07,38.45,112,29c6.07-11.47-11.29-24.2-21.1-26.51a21.15,21.15,0,0,0-16.7,2.91S68.85,0,57,0,34.52,8.42,34.24,20C34,28.78,40.9,41.18,40.9,41.18L70.8,61.77Z"/><path class="cls-11" d="M110,56.45A11.23,11.23,0,0,1,96.8,61.17l5-13.88a8.09,8.09,0,0,1,7.08-2c4.35.84,3.61,6.85,1.11,11.2"/><path class="cls-11" d="M42.11,54.65c-5.69,1.25-9.53-1.76-11.76-7.36s-.41-9.16,4-9.72,6.52,3.61,6.52,3.61Z"/><path class="cls-5" d="M101.8,47.29,91,77.18l-17.54,6.9L60.06,82.59,43.5,70.19l-2.6-29C54.88,41.55,59.32,6.43,71,20,86.85,7,88.47,47.84,101.8,47.29"/><path class="cls-2" d="M62,47.1c-3.42-3.79-6.71-1.34-7.31-.83l-3-3.47A9.59,9.59,0,0,1,65.43,44Z"/><path class="cls-2" d="M65.29,37.57c-5.78-5.6-13.37-1.39-13.47-1.34l-2.26-4c3.7-2.09,12.4-4.31,19,2Z"/><path class="cls-2" d="M91.9,40.44c-5.7-5.55-13.15-1.53-13.47-1.34l-2.27-4c3.7-2.08,12.4-4.3,19,2Z"/><path class="cls-1" d="M70.06,69.45a17.73,17.73,0,0,1-11.71-4.58l3.19-3.33c.28.28,6.71,6.2,14.76,1.53l2.32,4a16.86,16.86,0,0,1-8.56,2.36"/><path class="cls-11" d="M179.35,90.78,178.19,80.1l-19.94,5.22,1.2,8.8a34.17,34.17,0,0,0,10.64,1.66c2.27,0,5.74-2,9.26-5"/><path class="cls-5" d="M191.38,41.18l-2,22c-.74,8.23-15.83,23.32-22.07,23.32-12.5,0-24.34-6.71-29.15-18l-7.68-21.19c5.09-6.11,25.45-35.72,38.4-33.64,3.7,10,15.27,26.61,22.49,27.53"/><path class="cls-11" d="M201.24,49.37C199,54.92,196,55.62,190,55.76l1.34-14.62s2.08-4.17,6.52-3.61,5.56,6.29,3.34,11.84"/><path class="cls-2" d="M166.44,41l-3.33-3.24c6.38-6.57,15.13-4.58,18.88-2.63l-2.13,4.11c-.33-.18-7.91-4-13.42,1.76"/><path class="cls-2" d="M139.93,44.47l-3.43-3.1c6.71-7.41,17-2.78,17.49-2.59L152.05,43c-.28-.14-7.68-3.38-12.12,1.48"/><path class="cls-4" d="M162.46,72.83a14.29,14.29,0,0,1-7.22-2l2.31-4a9.93,9.93,0,0,0,11.62-1.21l3.19,3.33a15.11,15.11,0,0,1-9.9,3.89"/><path class="cls-2" d="M87.73,50.11c-3.42-3.65-6.89-1.48-7.54-1l-2.73-3.7A10.11,10.11,0,0,1,91.11,47Z"/><path class="cls-2" d="M170,50.44l-3.51-3c4.44-5.28,9.71-4,12.49-2.5l.79-.37,1.94,4.21-1.94.88a2.39,2.39,0,0,1-2.46-.32c-.64-.47-4-2.83-7.31,1.11"/><path class="cls-2" d="M142.66,55a2.22,2.22,0,0,1-.79-.14l-2.5-.93L141,49.6l1.11.42a10,10,0,0,1,12.49-.83L152,53l1.29-1.9L152,53a5.42,5.42,0,0,0-7.5,1.2,2.44,2.44,0,0,1-1.8.84"/><path class="cls-9" d="M124.19,177.68l-.69,9.3c6,6.94,20.22,13.24,22.49,20s3,25.26,3,25.26H80.84s0-19.11,2.5-25.91,17.25-9,25.44-19.39l-.69-9.3Z"/><path class="cls-11" d="M129.47,192.26a16.36,16.36,0,0,1-13.42,6.94,13.45,13.45,0,0,1-12.31-7.27,31,31,0,0,0,5-5l-.69-9.3h16.15l-.69,9.3a34.58,34.58,0,0,0,5.92,5.28"/><path class="cls-8" d="M116.05,201.51a15.64,15.64,0,0,1-14.44-8.7l4.21-1.85-2.13.93,2.13-1a11.18,11.18,0,0,0,10.23,6A13.94,13.94,0,0,0,127.52,191l3.94,2.45a18.62,18.62,0,0,1-15.41,8"/><path class="cls-5" d="M90.09,208.5l9.39-4.67,3-11s-2.41-6.48-5-6.25S87,190.69,86.3,196.7s3.79,11.8,3.79,11.8"/><path class="cls-5" d="M216.09,111.1c10.92,9.53-13.74,73.25-13.74,73.25L149,196.79a56,56,0,0,0-6.15,5.65,70,70,0,0,1-6.66,6.06l-6.67-5.6s-2.12-12.4,2.09-16.75c1.66-1.76,14.39-1.76,14.39-1.76l42.52-18.14s3.7-36.09,6.48-45.67,12.31-17.12,21.1-9.48"/><path class="cls-9" d="M64.73,113.18,60,119.94l2,76.85L48,214.1,40.9,197.58l14.16-78.43-1.85-6.39,7.87-6.43Z"/><path class="cls-12" d="M55.06,119.15l4.95.79.19,7.72-6.57-.6Z"/><path class="cls-11" d="M142.79,155.1h5.28a7,7,0,0,0,0-14.06h-2.13Z"/><path class="cls-11" d="M89.44,155.1H84.21a7,7,0,1,1,0-14.06h2.13Z"/><path class="cls-5" d="M146,141.08s-1.07,18.74-7.55,26.93-22.3,12.4-22.3,12.4-15.68-4.12-22.3-12.4-7.54-26.93-7.54-26.93,7.12-12.44,8.42-20.77c0,0,8.47-4.86,21.42-4.86a45.61,45.61,0,0,1,22.21,5.78s.6,17.82,7.64,19.85"/><path class="cls-1" d="M116.14,164.73c-5.87,0-9.3-4.4-10-5.28l3.75-2.77a7.53,7.53,0,0,0,12.4-.05l3.75,2.82a14.24,14.24,0,0,1-9.81,5.28Z"/><path class="cls-2" d="M95.92,137.1,93.56,133a17.51,17.51,0,0,1,8.89-2.54h.09a17.13,17.13,0,0,1,8.79,2.54l-2.36,4a12.89,12.89,0,0,0-6.48-1.76,12.39,12.39,0,0,0-6.57,1.8"/><path class="cls-2" d="M136.36,137a12.71,12.71,0,0,0-6.52-1.9h-.09a12.55,12.55,0,0,0-6.48,1.9l-2.36-4a17.13,17.13,0,0,1,8.79-2.49h.09a17.41,17.41,0,0,1,8.89,2.49Z"/><path class="cls-2" d="M108,145.29c-.37-.14-.74-.32-1.21-.55a9,9,0,0,0-4.3-1.34,8.9,8.9,0,0,0-5,1.66l-2.68-3.79a12.58,12.58,0,0,1,14.16-.7l.6.33Z"/><path class="cls-2" d="M124.29,145.29l-1.58-4.35a5.66,5.66,0,0,0,.6-.27,13.33,13.33,0,0,1,6.48-1.86h.09a13.3,13.3,0,0,1,7.64,2.5l-2.68,3.8a8.66,8.66,0,0,0-5-1.67h-.05a8.73,8.73,0,0,0-4.26,1.3,9.88,9.88,0,0,1-1.24.55"/></g></g></svg>