<svg xmlns="http://www.w3.org/2000/svg" viewBox="0 0 1480.93 60.3"><defs><style>.cls-1{fill:#fff;}</style></defs><g id="Слой_2" data-name="Слой 2"><g id="Слой_1-2" data-name="Слой 1"><path class="cls-1" d="M2.21,60.06c78.54-50,175.33-68.7,266.79-51,48.9,9.45,95.87,27.05,145.62,32.32,50.49,5.36,100.71-.2,150.06-11.25C590,24.44,615.27,18,641.07,14.82a232.42,232.42,0,0,1,76.87,3.08c23.63,4.92,46.63,12.34,70.12,17.84a270.89,270.89,0,0,0,68.13,7.51c46.47-1,91.75-13,136.94-22.69,48.62-10.46,97-17.18,146.52-9.24,25,4,49.6,10.23,74.48,15a464.08,464.08,0,0,0,74.26,8.07c51.23,1.41,102.29-4.76,152.85-12.37,12.88-1.93,25.74-4,38.6-6,1.91-.3,1.1-3.19-.79-2.89-52.69,8.36-105.6,16.7-159,18.23a495.42,495.42,0,0,1-78.72-3.61c-25.61-3.37-50.72-9.53-76-14.7-23.63-4.83-47.47-8.63-71.65-8.68-23.19,0-46.28,2.82-69.08,6.89-47.22,8.41-93.5,22.2-141.3,27.23-24,2.53-48.26,2.67-72.14-1.14s-47-11-70.28-17.08S694.15,9.56,670.08,9.78c-24.29.23-48.31,4.56-72,9.71-24.74,5.38-49.28,11.66-74.31,15.6a431.17,431.17,0,0,1-80.73,5.22C390.8,38.66,342.1,23,291.68,10.93,203.59-10.12,111-1,30.05,40.57,20,45.74,10.23,51.41.7,57.47c-1.63,1-.12,3.63,1.51,2.59Z"/></g></g></svg>