<svg xmlns="http://www.w3.org/2000/svg" viewBox="0 0 1527.81 193.94"><defs><style>.cls-1{fill:#5b69aa;}.cls-1,.cls-2,.cls-3{stroke:#37416b;stroke-miterlimit:8;stroke-width:6px;}.cls-2{fill:#838ebf;}.cls-3{fill:#6f7cb5;}</style></defs><g id="Слой_2" data-name="Слой 2"><g id="Слой_1-2" data-name="Слой 1"><circle class="cls-1" cx="1168.09" cy="143.44" r="28.5"/><circle class="cls-1" cx="1089.09" cy="89.44" r="28.5"/><circle class="cls-2" cx="1192.09" cy="67.44" r="16.5"/><circle class="cls-2" cx="611.09" cy="122.44" r="22.5"/><circle class="cls-1" cx="179.59" cy="55.94" r="35"/><circle class="cls-3" cx="1489.81" cy="38" r="35"/><circle class="cls-2" cx="1301.24" cy="77.89" r="39.27"/><circle class="cls-1" cx="1397.37" cy="117.34" r="25.26"/><circle class="cls-1" cx="1490" cy="145.2" r="27.4"/><circle class="cls-1" cx="22.25" cy="55.31" r="19.25"/><circle class="cls-1" cx="76.3" cy="87.06" r="19.25"/><circle class="cls-2" cx="31.04" cy="112.74" r="11.15"/><circle class="cls-1" cx="696.09" cy="55.44" r="28.5"/><circle class="cls-3" cx="940.06" cy="134.1" r="28.5"/><circle class="cls-2" cx="940.06" cy="65.1" r="16.5"/><circle class="cls-2" cx="379.09" cy="56.44" r="16.5"/><circle class="cls-1" cx="847.06" cy="134.1" r="16.5"/><circle class="cls-1" cx="491.68" cy="104.48" r="39.27"/><circle class="cls-1" cx="741.09" cy="162.44" r="28.5"/><circle class="cls-2" cx="215.09" cy="139.44" r="16.5"/><circle class="cls-1" cx="304.68" cy="133.48" r="39.27"/></g></g></svg>