<svg xmlns="http://www.w3.org/2000/svg" viewBox="0 0 1284.57 30.66"><defs><style>.cls-1{fill:none;stroke:#fff;stroke-miterlimit:8;stroke-width:4px;}</style></defs><g id="Слой_2" data-name="Слой 2"><g id="Слой_1-2" data-name="Слой 1"><path class="cls-1" d="M1.42,14.53a43.14,43.14,0,0,0,61,.07,43.16,43.16,0,0,1,61,.08,43.16,43.16,0,0,0,61,.07,43.17,43.17,0,0,1,61,.07,43.14,43.14,0,0,0,61,.07,43.16,43.16,0,0,1,61,.08,43.16,43.16,0,0,0,61,.07,43.17,43.17,0,0,1,61,.07,43.14,43.14,0,0,0,61,.07,43.16,43.16,0,0,1,61,.08,43.16,43.16,0,0,0,61,.07,43.17,43.17,0,0,1,61,.07,43.14,43.14,0,0,0,61,.07,43.16,43.16,0,0,1,61,.08,43.16,43.16,0,0,0,61,.07,43.17,43.17,0,0,1,61,.07,43.14,43.14,0,0,0,61,.07,43.16,43.16,0,0,1,61,.08,43.16,43.16,0,0,0,61,.07,43.17,43.17,0,0,1,61,.07,43.14,43.14,0,0,0,61,.07"/></g></g></svg>