<svg xmlns="http://www.w3.org/2000/svg" viewBox="0 0 1546.12 193.78"><defs><style>.cls-1{fill:#838ebf;}.cls-1,.cls-2,.cls-3{stroke:#37416b;stroke-miterlimit:8;stroke-width:6px;}.cls-2{fill:#5b69aa;}.cls-3{fill:#6f7cb5;}</style></defs><g id="Слой_2" data-name="Слой 2"><g id="Слой_1-2" data-name="Слой 1"><circle class="cls-1" cx="638.04" cy="164.04" r="11.15"/><circle class="cls-1" cx="486.04" cy="153.04" r="11.15"/><circle class="cls-2" cx="222.25" cy="69.62" r="19.25"/><circle class="cls-3" cx="1409.06" cy="55.4" r="28.5"/><circle class="cls-3" cx="1205.31" cy="53.81" r="28.5"/><circle class="cls-2" cx="1314.24" cy="131.2" r="39.27"/><circle class="cls-2" cx="1074.25" cy="116.62" r="19.25"/><circle class="cls-2" cx="399.25" cy="81.62" r="19.25"/><circle class="cls-2" cx="1128.3" cy="148.37" r="19.25"/><circle class="cls-1" cx="1083.04" cy="174.04" r="11.15"/><circle class="cls-2" cx="607.25" cy="62.62" r="19.25"/><circle class="cls-2" cx="732.3" cy="78.37" r="19.25"/><circle class="cls-2" cx="22.25" cy="94.62" r="19.25"/><circle class="cls-2" cx="76.3" cy="126.37" r="19.25"/><circle class="cls-1" cx="31.04" cy="152.04" r="11.15"/><circle class="cls-2" cx="360.3" cy="148.37" r="19.25"/><circle class="cls-1" cx="244.04" cy="148.04" r="11.15"/><circle class="cls-3" cx="1519.48" cy="167.14" r="23.65"/><circle class="cls-1" cx="923.88" cy="164.18" r="26.53"/><circle class="cls-2" cx="1501.93" cy="29.54" r="26.53"/><circle class="cls-2" cx="782.35" cy="157.71" r="26.53"/><circle class="cls-1" cx="855.88" cy="82.18" r="26.53"/><circle class="cls-2" cx="474.35" cy="78.71" r="26.53"/></g></g></svg>