<svg id="Слой_1" data-name="Слой 1" xmlns="http://www.w3.org/2000/svg" xmlns:xlink="http://www.w3.org/1999/xlink" viewBox="0 0 404 407.16"><defs><style>.cls-1,.cls-11,.cls-2{fill:none;}.cls-2{clip-path:url(#clip-path);}.cls-3{clip-path:url(#clip-path-2);}.cls-4{clip-path:url(#clip-path-3);}.cls-5{fill:#87dcff;}.cls-6{fill:#bee86e;}.cls-7{fill:#00c3ff;}.cls-8{fill:#afd755;}.cls-9{clip-path:url(#clip-path-4);}.cls-10{fill:#ff7c80;fill-rule:evenodd;}.cls-11{stroke:#2f528f;stroke-miterlimit:8;stroke-width:6px;}.cls-12{isolation:isolate;}.cls-13{fill:#fff;}</style><clipPath id="clip-path"><polygon class="cls-1" points="-0.11 404.08 404.08 404.08 404.08 -0.23 -0.11 -0.23 -0.11 404.08 -0.11 404.08"/></clipPath><clipPath id="clip-path-2" transform="translate(0 3.17)"><polygon class="cls-2" points="3 3 400.97 3 400.97 400.98 3 400.98 3 3 3 3"/></clipPath><clipPath id="clip-path-3" transform="translate(0 3.17)"><polygon class="cls-1" points="3 400.98 400.97 400.98 400.97 3 3 3 3 400.98 3 400.98"/></clipPath><clipPath id="clip-path-4" transform="translate(0 3.17)"><polygon class="cls-1" points="-0.11 404.08 404.08 404.08 404.08 -0.23 -0.11 -0.23 -0.11 404.08 -0.11 404.08"/></clipPath></defs><g id="Слой_2" data-name="Слой 2"><g id="Слой_1-2" data-name="Слой 1-2"><g class="cls-3"><g class="cls-4"><path class="cls-5" d="M400.89,202.32C400.89,312,312,400.86,202.36,400.86S3.77,312,3.77,202.32,92.66,3.77,202.31,3.77,400.89,92.67,400.89,202.32Z" transform="translate(0 3.17)"/><path class="cls-6" d="M225.43,5.16l-8.2,25.54A19.21,19.21,0,0,1,204,43.36L183.46,49a18.92,18.92,0,0,1-5.08.69H147.61a6.41,6.41,0,0,0-6.35,5.56L137.73,81.7l-19.65,1A6.4,6.4,0,0,0,112,88.84l-.68,17.08a6.41,6.41,0,0,0,6.13,6.66,7.12,7.12,0,0,0,.8,0l13.09-1.09a11.54,11.54,0,0,0,8.41-4.77l12.12-16.86,25.89-.92a7.72,7.72,0,0,1,8,7.46,7.56,7.56,0,0,1-.53,3.08c-4.51,11.59-4.51,12.58-4.51,13.6a6.4,6.4,0,0,0,12.71,1.09c.44-1.48,2.39-6.6,5-13.09a3.61,3.61,0,0,1,6.37-.68l1.65,2.5a12.81,12.81,0,0,0,14.11,5.29L231.89,105a10.37,10.37,0,0,0,7-6.33l2.19-5.82a12.8,12.8,0,0,1,9.4-8l7.41-1.55c5-1,10.36,2,11.23,7.06a8.94,8.94,0,0,1-7.27,10.34l-.56.08-17.82.47a6.8,6.8,0,0,0-6.62,6.65v1.7a3.55,3.55,0,0,0,1.94,3.26L249,118.08a7.29,7.29,0,0,1,3.16,9.81,6,6,0,0,1-.45.77h0a7.3,7.3,0,0,1-6,3.18H191.64a11.47,11.47,0,0,1-4.13-.78l-45.35-17.87a9.41,9.41,0,0,0-9.83,1.84l-43,39.74a12.81,12.81,0,0,0-3.74,12.47l8.73,35.48a12.83,12.83,0,0,0,11.75,9.73l48.39,2.6a19.21,19.21,0,0,1,18.1,17.42l3.67,39.86a25,25,0,0,0,2.36,8.55c4.08,8.51,13.58,27.85,18.87,34.53,6.8,8.61,23.57,8.95,29.22,3.81L266.07,287a19.23,19.23,0,0,0,6.08-11.44L276.76,244,308,209.53a6.4,6.4,0,0,0-.43-9,6.53,6.53,0,0,0-1.76-1.13l-.56.37a16.87,16.87,0,0,1-7.93,2.8c-.5.05-1,.07-1.5.07a16.83,16.83,0,0,1-14.29-7.9l-23.85-37.88a6.41,6.41,0,0,1,10.6-7.21,4,4,0,0,1,.24.38l23.86,37.88a4.06,4.06,0,0,0,3.82,1.91,4.12,4.12,0,0,0,1.92-.69l32.25-17.67a6.17,6.17,0,0,0,2.45-8.38,6.44,6.44,0,0,0-.59-.88h0a6.18,6.18,0,0,0-5.54-2.29l-6.77.78a6.39,6.39,0,0,1-5-1.59l-20.28-18.14a6.41,6.41,0,0,1,8.39-9.7l.16.15,18.14,16.23,11-1.27a6.38,6.38,0,0,1,5.9,2.58l2.12,2.9,10.74-1.29a12.82,12.82,0,0,1,12.8,6.62l21.69,40.1a12.86,12.86,0,0,0,7.37,6.11l7.8,2.74c0-1.26.09-2.51.09-3.78,0-101.83-76.66-185.7-175.41-197.16Zm82.93,109.61a6.39,6.39,0,0,1-8.87-1.71h0L286.13,93.29a6.4,6.4,0,0,1,10.61-7.16l13.34,19.74a6.38,6.38,0,0,1-1.68,8.86l0,0Z" transform="translate(0 3.17)"/><path class="cls-7" d="M267.42,335.77c-109.65,0-198.53-88.91-198.53-198.56a197.6,197.6,0,0,1,29.42-104A198.37,198.37,0,0,0,3.77,202.32C3.77,312,92.66,400.86,202.31,400.86a198.39,198.39,0,0,0,169.11-94.53,197.6,197.6,0,0,1-104,29.42Z" transform="translate(0 3.17)"/><path class="cls-6" d="M288.76,307.2a6.4,6.4,0,0,1-4.87-10.53l16.81-20a6.4,6.4,0,0,1,9.8,8.24l-16.81,20a6.41,6.41,0,0,1-4.91,2.29Z" transform="translate(0 3.17)"/><path class="cls-6" d="M147.69,11.45l-5.7,17a6.43,6.43,0,0,0,4,8.11,6.17,6.17,0,0,0,2,.33,6.41,6.41,0,0,0,6.07-4.36l8.38-24.76c-5,1-9.9,2.28-14.75,3.66Z" transform="translate(0 3.17)"/><path class="cls-8" d="M37,312.3,42.57,262a12.82,12.82,0,0,0-3.84-10.64l-34.18-32A197.44,197.44,0,0,0,37,312.27Z" transform="translate(0 3.17)"/><path class="cls-6" d="M202.31,3.77a198.5,198.5,0,0,0-21.25,1.15l-.67,15a9.62,9.62,0,0,0,6.07,12.16h0a9.87,9.87,0,0,0,3,.49A9.61,9.61,0,0,0,198.57,26L206,3.87c-1.23,0-2.45-.09-3.69-.09Z" transform="translate(0 3.17)"/></g></g><g class="cls-9"><path class="cls-10" d="M198.57,3C308.45,1.15,399.06,88.69,400.94,198.57A198.93,198.93,0,0,1,369,310.1L202,202,198.62,3Z" transform="translate(0 3.17)"/><path class="cls-11" d="M198.57,3C308.45,1.15,399.06,88.69,400.94,198.57A198.93,198.93,0,0,1,369,310.1L202,202,198.62,3Z" transform="translate(0 3.17)"/><g class="cls-9"><path class="cls-11" d="M3,202C3,92.09,92.09,3,202,3S401,92.08,401,202,311.91,401,202,401,3,311.9,3,202Z" transform="translate(0 3.17)"/><g class="cls-9"><g class="cls-12"><path class="cls-13" d="M260.44,132.55c0,6.15-1.31,9.95-6.84,10.82v.24c6,.94,7.89,4.23,8,10.76.13,9.08-4,12.81-15.42,12.81A113.73,113.73,0,0,1,230.71,166l.38-8.4c5.41.32,8.14.38,11.87.38,5.48,0,7.09-.81,7.09-5.16,0-3.67-1-5.1-5.59-5l-8.21.06v-7.46h8.21c4.66,0,5.09-1.74,5-4.66,0-3.48-1.24-4-5.59-4s-8.77.06-11.94.12l-.38-8.08A87,87,0,0,1,246,122.54C256.46,122.54,260.44,124.9,260.44,132.55Z" transform="translate(0 3.17)"/><path class="cls-13" d="M301.79,144.86c0,16.72-4.54,22.32-17.6,22.32s-17.47-5.6-17.47-22.32,4.47-22.32,17.47-22.32S301.79,128.13,301.79,144.86Zm-23.57,0c0,11.38,1.3,13.43,5.91,13.43,4.78,0,6.09-2,6.09-13.43s-1.31-13.43-6.09-13.43C279.52,131.43,278.22,133.48,278.22,144.86Z" transform="translate(0 3.17)"/><path class="cls-13" d="M328,135.34c0,9.7-2.86,12.81-11.06,12.81S306,145,306,135.34s2.8-12.8,10.95-12.8S328,125.65,328,135.34Zm-13.74,0c0,6,.5,6.78,2.68,6.78s2.73-.74,2.73-6.78-.5-6.77-2.73-6.77S314.28,129.38,314.28,135.34Zm2.61,31,24.57-42.9h7l-24.56,42.9Zm42.6-12c0,9.7-2.86,12.81-11.07,12.81s-10.94-3.11-10.94-12.81,2.79-12.81,10.94-12.81S359.49,144.61,359.49,154.31Zm-13.74,0c-.07,6,.43,6.78,2.67,6.78s2.74-.81,2.74-6.78-.56-6.72-2.74-6.72S345.68,148.28,345.75,154.31Z" transform="translate(0 3.17)"/></g></g></g></g></g></g></svg>