<svg xmlns="http://www.w3.org/2000/svg" viewBox="0 0 428.41 14.88"><defs><style>.cls-1{fill:none;stroke:#fff;stroke-miterlimit:8;stroke-width:3px;}</style></defs><g id="Слой_2" data-name="Слой 2"><g id="Слой_1-2" data-name="Слой 1"><path class="cls-1" d="M427.35,7.38a20.1,20.1,0,0,0-28.42,0,20.1,20.1,0,0,1-28.42,0,20.09,20.09,0,0,0-28.42,0,20.1,20.1,0,0,1-28.42,0,20.09,20.09,0,0,0-28.42,0,20.09,20.09,0,0,1-28.42,0,20.1,20.1,0,0,0-28.42,0,20.1,20.1,0,0,1-28.42,0,20.09,20.09,0,0,0-28.42,0,20.09,20.09,0,0,1-28.41,0,20.09,20.09,0,0,0-28.42,0,20.09,20.09,0,0,1-28.42,0,20.1,20.1,0,0,0-28.42,0,20.1,20.1,0,0,1-28.42,0,20.1,20.1,0,0,0-28.42,0"/></g></g></svg>