<svg xmlns="http://www.w3.org/2000/svg" xmlns:xlink="http://www.w3.org/1999/xlink" viewBox="0 0 343.91 277.19"><defs><style>.cls-1,.cls-10,.cls-2,.cls-5{fill:none;}.cls-1{clip-rule:evenodd;}.cls-12,.cls-13,.cls-2,.cls-3,.cls-4,.cls-7,.cls-8,.cls-9{fill-rule:evenodd;}.cls-3{fill:#fff;}.cls-4{fill:#e9bd9a;}.cls-10,.cls-5{stroke:#1d1e1c;stroke-miterlimit:8;}.cls-5{stroke-width:4px;}.cls-6{clip-path:url(#clip-path);}.cls-7{fill:#f3a28d;}.cls-8{fill:#159f84;opacity:0.57;}.cls-9{fill:#bc8380;}.cls-10{stroke-width:3px;}.cls-11{clip-path:url(#clip-path-10);}.cls-13{fill:#efa289;}</style><clipPath id="clip-path" transform="translate(-24.69 -35.35)"><polygon class="cls-1" points="148.55 376.07 272.38 230.88 123.82 104.19 0 249.38 148.55 376.07 148.55 376.07"/></clipPath><clipPath id="clip-path-10" transform="translate(-24.69 -35.35)"><polygon class="cls-1" points="213.95 0 151.84 97.23 251.32 160.78 313.43 63.55 213.95 0 213.95 0"/></clipPath></defs><g id="Слой_2" data-name="Слой 2"><g id="Слой_1-2" data-name="Слой 1"><path class="cls-3" d="M43.68,280.88a50.25,50.25,0,0,1-7.85-66.56,48.4,48.4,0,0,1,31.91-19.67,50.75,50.75,0,0,1,38.16,9.26c14.87,10.83,36.23,7.61,60.14-9.07a50.24,50.24,0,0,1,62.66,4.51,51.43,51.43,0,0,1,7.4,8.27A50.41,50.41,0,0,1,245,245.75,48.25,48.25,0,0,1,225,277.45c-88.39,61.66-157.83,20.88-177,6.9a52.57,52.57,0,0,1-4.27-3.47Z" transform="translate(-24.69 -35.35)"/><path class="cls-4" d="M43.68,280.88a50.25,50.25,0,0,1-7.85-66.56,48.4,48.4,0,0,1,31.91-19.67,50.75,50.75,0,0,1,38.16,9.26c14.87,10.83,36.23,7.61,60.14-9.07a50.24,50.24,0,0,1,62.66,4.51,51.43,51.43,0,0,1,7.4,8.27A50.41,50.41,0,0,1,245,245.75,48.25,48.25,0,0,1,225,277.45c-88.39,61.66-157.83,20.88-177,6.9a52.57,52.57,0,0,1-4.27-3.47Z" transform="translate(-24.69 -35.35)"/><path class="cls-5" d="M43.68,280.88a50.25,50.25,0,0,1-7.85-66.56,48.4,48.4,0,0,1,31.91-19.67,50.75,50.75,0,0,1,38.16,9.26c14.87,10.83,36.23,7.61,60.14-9.07a50.24,50.24,0,0,1,62.66,4.51,51.43,51.43,0,0,1,7.4,8.27A50.41,50.41,0,0,1,245,245.75,48.25,48.25,0,0,1,225,277.45c-88.39,61.66-157.83,20.88-177,6.9a52.57,52.57,0,0,1-4.27-3.47Z" transform="translate(-24.69 -35.35)"/><g class="cls-6"><path class="cls-7" d="M56.8,268.21a33.37,33.37,0,0,1-5.42-44.15,31.7,31.7,0,0,1,20.87-12.84,33.88,33.88,0,0,1,25.5,6.24c11.67,8.5,37.1,18.68,76.21-8.61A33.83,33.83,0,0,1,215.59,212a35.74,35.74,0,0,1,5,5.58,33.61,33.61,0,0,1,6,25.4,31.48,31.48,0,0,1-13.09,20.7c-77.37,54-137.26,18.91-153.78,6.88a36,36,0,0,1-2.9-2.36Z" transform="translate(-24.69 -35.35)"/><g class="cls-6"><path class="cls-8" d="M187.12,252.72a12.32,12.32,0,1,1-.88-17.4,12.32,12.32,0,0,1,.88,17.4Z" transform="translate(-24.69 -35.35)"/><g class="cls-6"><path class="cls-9" d="M84.31,247.05A9.24,9.24,0,1,1,83.65,234a9.24,9.24,0,0,1,.66,13.05Z" transform="translate(-24.69 -35.35)"/><g class="cls-6"><path class="cls-8" d="M153.2,271.9a9.24,9.24,0,1,1-.67-13,9.25,9.25,0,0,1,.67,13Z" transform="translate(-24.69 -35.35)"/><g class="cls-6"><path class="cls-8" d="M115,249.84a3.17,3.17,0,0,1-.7-1,3.63,3.63,0,0,1-.32-1.17,3.39,3.39,0,0,1,.8-2.22,3.24,3.24,0,0,1,2.13-1,3.42,3.42,0,0,1,1.19.2,3.13,3.13,0,0,1,2.06,2.73,3.28,3.28,0,0,1-.8,2.22,3.19,3.19,0,0,1-1,.71,3.4,3.4,0,0,1-1.16.32,3.27,3.27,0,0,1-2.23-.81Z" transform="translate(-24.69 -35.35)"/><g class="cls-6"><path class="cls-8" d="M91.84,266.3a3,3,0,0,1-.71-1,3.63,3.63,0,0,1-.32-1.17A3.19,3.19,0,0,1,91,263a3,3,0,0,1,.61-1,3.19,3.19,0,0,1,2.12-1,3.42,3.42,0,0,1,1.19.2A3.13,3.13,0,0,1,97,263.86a3.23,3.23,0,0,1-.8,2.22,3.08,3.08,0,0,1-1,.71,3.34,3.34,0,0,1-1.16.32,3.22,3.22,0,0,1-2.22-.81Z" transform="translate(-24.69 -35.35)"/><g class="cls-6"><path class="cls-8" d="M111.75,271.83a3.17,3.17,0,0,1-.7-1,3.63,3.63,0,0,1-.32-1.17,3.39,3.39,0,0,1,.8-2.22,3.26,3.26,0,0,1,2.13-1,3.46,3.46,0,0,1,1.19.2,3.14,3.14,0,0,1,2.06,2.73,3.24,3.24,0,0,1-.81,2.22,2.8,2.8,0,0,1-1,.7,3.1,3.1,0,0,1-1.16.33,3.24,3.24,0,0,1-2.22-.81Z" transform="translate(-24.69 -35.35)"/><g class="cls-6"><path class="cls-8" d="M196.56,223.89a3.34,3.34,0,0,1-.7-1,3.4,3.4,0,0,1-.32-1.16,3.2,3.2,0,0,1,.2-1.19,3,3,0,0,1,.6-1,3.2,3.2,0,0,1,2.13-1,3.76,3.76,0,0,1,1.19.2,3.14,3.14,0,0,1,2.05,2.73,3.21,3.21,0,0,1-.8,2.23,3.39,3.39,0,0,1-2.13,1,3.28,3.28,0,0,1-2.22-.8Z" transform="translate(-24.69 -35.35)"/><g class="cls-6"><path class="cls-8" d="M204.31,247.49a3.19,3.19,0,0,1-.71-1,3.65,3.65,0,0,1-.32-1.16,3.2,3.2,0,0,1,.2-1.19,3,3,0,0,1,2.73-2.06,3.67,3.67,0,0,1,1.19.2,3.15,3.15,0,0,1,2.06,2.73,3.22,3.22,0,0,1-.8,2.22,3.08,3.08,0,0,1-1,.71,3.14,3.14,0,0,1-1.16.32,3.26,3.26,0,0,1-2.22-.8Z" transform="translate(-24.69 -35.35)"/></g></g></g></g></g></g></g></g></g><path class="cls-9" d="M96.32,266.08a3.23,3.23,0,1,1-.23-4.55,3.23,3.23,0,0,1,.23,4.55Z" transform="translate(-24.69 -35.35)"/><path class="cls-9" d="M116.25,271.56A3.23,3.23,0,1,1,116,267a3.23,3.23,0,0,1,.24,4.55Z" transform="translate(-24.69 -35.35)"/><path class="cls-9" d="M119.41,249.75a3.23,3.23,0,1,1-.23-4.56,3.24,3.24,0,0,1,.23,4.56Z" transform="translate(-24.69 -35.35)"/><path class="cls-9" d="M201,223.74a3.23,3.23,0,1,1-.24-4.55,3.23,3.23,0,0,1,.24,4.55Z" transform="translate(-24.69 -35.35)"/><path class="cls-9" d="M187,253a12.54,12.54,0,1,1-.9-17.7A12.53,12.53,0,0,1,187,253Z" transform="translate(-24.69 -35.35)"/><path class="cls-9" d="M153.27,272.2a9.46,9.46,0,1,1-.68-13.36,9.46,9.46,0,0,1,.68,13.36Z" transform="translate(-24.69 -35.35)"/><path class="cls-9" d="M208.83,247.37a3.23,3.23,0,1,1-.24-4.55,3.23,3.23,0,0,1,.24,4.55Z" transform="translate(-24.69 -35.35)"/><path class="cls-3" d="M284.66,48.31a30.39,30.39,0,0,1,10.22,39.22A29.23,29.23,0,0,1,277.4,102a30.68,30.68,0,0,1-23.62-2.38C244,94.32,231.45,98,218.51,110a30.37,30.37,0,0,1-37.9,2.5,31.7,31.7,0,0,1-5.12-4.34A30.51,30.51,0,0,1,167,86.05a29.24,29.24,0,0,1,9.39-20.65c47.83-44.26,92.8-25.59,105.45-18.81a31.69,31.69,0,0,1,2.85,1.72Z" transform="translate(-24.69 -35.35)"/><path class="cls-4" d="M284.66,48.31a30.39,30.39,0,0,1,10.22,39.22A29.23,29.23,0,0,1,277.4,102a30.68,30.68,0,0,1-23.62-2.38C244,94.32,231.45,98,218.51,110a30.37,30.37,0,0,1-37.9,2.5,31.7,31.7,0,0,1-5.12-4.34A30.51,30.51,0,0,1,167,86.05a29.24,29.24,0,0,1,9.39-20.65c47.83-44.26,92.8-25.59,105.45-18.81a29.53,29.53,0,0,1,2.85,1.72Z" transform="translate(-24.69 -35.35)"/><path class="cls-10" d="M284.66,48.31a30.39,30.39,0,0,1,10.22,39.22A29.23,29.23,0,0,1,277.4,102a30.68,30.68,0,0,1-23.62-2.38C244,94.32,231.45,98,218.51,110a30.37,30.37,0,0,1-37.9,2.5,31.7,31.7,0,0,1-5.12-4.34A30.51,30.51,0,0,1,167,86.05a29.24,29.24,0,0,1,9.39-20.65c47.83-44.26,92.8-25.59,105.45-18.81a29.53,29.53,0,0,1,2.85,1.72Z" transform="translate(-24.69 -35.35)"/><g class="cls-11"><path class="cls-7" d="M277.85,57a20.18,20.18,0,0,1,6.91,26,19.12,19.12,0,0,1-11.44,9.42,20.51,20.51,0,0,1-15.79-1.62c-7.69-4.12-23.76-8.11-44.92,11.48a20.46,20.46,0,0,1-25.2,1.56,21.4,21.4,0,0,1-3.45-2.93,20.34,20.34,0,0,1-5.7-14.71,19.06,19.06,0,0,1,6.13-13.49C226.25,34,265,50,275.92,55.82A21,21,0,0,1,277.85,57Z" transform="translate(-24.69 -35.35)"/><g class="cls-11"><path class="cls-8" d="M201.08,77.07a7.45,7.45,0,1,1,2,10.35,7.46,7.46,0,0,1-2-10.35Z" transform="translate(-24.69 -35.35)"/><g class="cls-11"><path class="cls-9" d="M263.13,71.94a5.59,5.59,0,1,1,1.48,7.76,5.58,5.58,0,0,1-1.48-7.76Z" transform="translate(-24.69 -35.35)"/><g class="cls-11"><path class="cls-8" d="M219.81,62.77a5.59,5.59,0,1,1,1.48,7.77,5.59,5.59,0,0,1-1.48-7.77Z" transform="translate(-24.69 -35.35)"/><g class="cls-11"><path class="cls-8" d="M244.52,72.82a1.77,1.77,0,0,1,.5.52,2.23,2.23,0,0,1,.29.67,1.93,1.93,0,0,1,0,.72,2,2,0,0,1-.28.67,1.91,1.91,0,0,1-1.19.79,2,2,0,0,1-.73,0,1.91,1.91,0,0,1-1.46-1.46,2,2,0,0,1,.3-1.4,1.77,1.77,0,0,1,.52-.5,1.82,1.82,0,0,1,.67-.29,2,2,0,0,1,1.4.3Z" transform="translate(-24.69 -35.35)"/><g class="cls-11"><path class="cls-8" d="M257,61a1.66,1.66,0,0,1,.5.52,2.23,2.23,0,0,1,.29.67,1.75,1.75,0,0,1,0,.72,1.79,1.79,0,0,1-.27.67,1.91,1.91,0,0,1-1.19.79,2,2,0,0,1-.73,0,1.91,1.91,0,0,1-1.46-1.46,2,2,0,0,1,.3-1.4A1.77,1.77,0,0,1,255,61a1.82,1.82,0,0,1,.67-.29,1.94,1.94,0,0,1,1.4.3Z" transform="translate(-24.69 -35.35)"/><g class="cls-11"><path class="cls-8" d="M244.64,59.38a1.77,1.77,0,0,1,.5.52,2,2,0,0,1,.29.67,1.93,1.93,0,0,1,0,.72,1.8,1.8,0,0,1-.28.67,1.89,1.89,0,0,1-1.19.79,1.94,1.94,0,0,1-.72,0,1.87,1.87,0,0,1-1.46-1.46,2,2,0,0,1,.29-1.4,2,2,0,0,1,1.19-.79,2,2,0,0,1,1.4.3Z" transform="translate(-24.69 -35.35)"/><g class="cls-11"><path class="cls-8" d="M197.82,95.13a1.94,1.94,0,0,1,.51.52,2,2,0,0,1,.28.67,1.8,1.8,0,0,1,0,.73,1.85,1.85,0,0,1-.27.67,2,2,0,0,1-1.19.79,2.24,2.24,0,0,1-.73,0A1.89,1.89,0,0,1,194.94,97a1.92,1.92,0,0,1,.3-1.4,1.77,1.77,0,0,1,.52-.5,1.82,1.82,0,0,1,.67-.29,2,2,0,0,1,1.39.3Z" transform="translate(-24.69 -35.35)"/><g class="cls-11"><path class="cls-8" d="M191.23,81.64a1.77,1.77,0,0,1,.5.52,2.23,2.23,0,0,1,.29.67,1.74,1.74,0,0,1,0,.72,1.79,1.79,0,0,1-.27.67,1.91,1.91,0,0,1-1.19.79,2,2,0,0,1-.73,0,1.91,1.91,0,0,1-1.46-1.46,2,2,0,0,1,.3-1.4,1.77,1.77,0,0,1,.52-.5,1.82,1.82,0,0,1,.67-.29,2,2,0,0,1,1.4.3Z" transform="translate(-24.69 -35.35)"/></g></g></g></g></g></g></g></g></g><path class="cls-9" d="M254.36,61.54a2,2,0,1,1,.52,2.71,2,2,0,0,1-.52-2.71Z" transform="translate(-24.69 -35.35)"/><path class="cls-9" d="M242,59.91a2,2,0,1,1,.52,2.71,2,2,0,0,1-.52-2.71Z" transform="translate(-24.69 -35.35)"/><path class="cls-9" d="M241.88,73.24A2,2,0,1,1,242.4,76a2,2,0,0,1-.52-2.71Z" transform="translate(-24.69 -35.35)"/><path class="cls-9" d="M195.17,95.58a1.95,1.95,0,1,1,.51,2.71,1.95,1.95,0,0,1-.51-2.71Z" transform="translate(-24.69 -35.35)"/><path class="cls-9" d="M201.13,76.92a7.58,7.58,0,1,1,2,10.53,7.57,7.57,0,0,1-2-10.53Z" transform="translate(-24.69 -35.35)"/><path class="cls-9" d="M219.74,62.6a5.72,5.72,0,1,1,1.52,7.95,5.73,5.73,0,0,1-1.52-7.95Z" transform="translate(-24.69 -35.35)"/><path class="cls-9" d="M188.53,82.08a2,2,0,1,1,.52,2.71,2,2,0,0,1-.52-2.71Z" transform="translate(-24.69 -35.35)"/><path class="cls-12" d="M92.28,77c.76-3.48,4.39-6.2,7.28-8.63s6.57-4,10.06-6,8.41-4.84,10.84-5.79,2.84-.47,3.78.07.36.4,1.85,3.17,6,10.44,7.11,13.4.62,3-.52,4.35-7.4,3-6.32,3.71,9.31-1.43,12.78.35,6.11,6.13,8,10.3,4.45,10.44,3.56,14.69-7,9-8.85,10.79c4,0,9.4-.94,12.65,1s4.91,6.8,6.84,10.55a60,60,0,0,1,4.75,12,9.58,9.58,0,0,1-.6,6.76c-.8,1.73-2,2.6-4.41,4.61s-7.74,4.77-11,6.72c-4.39,1.72-9.36,6-12.3,6.5s-2.52-.29-4.07-2.24-3.92-6.83-5.25-9.42a38.16,38.16,0,0,1-2.89-6.33c-.38-1.53-.44-1.81.56-2.85s5.69-2.85,5.44-3.39-4.79.36-6.95.13a14.77,14.77,0,0,1-6-1.49,14.43,14.43,0,0,1-4.85-4.74,51.84,51.84,0,0,1-3.81-8.32c-1-2.56-2.45-4.62-2.42-7.06s1.46-5.37,2.63-7.56,4-4.6,4.38-5.57-.61-.09-2.1-.24-4.67.33-6.78-.66a13.72,13.72,0,0,1-5.9-5.27A53.45,53.45,0,0,1,95,89.24c-1.27-3.92-3.49-8.75-2.73-12.22Z" transform="translate(-24.69 -35.35)"/><path class="cls-13" d="M137.46,158.79c6.33-2.75,12.77-6.93,14.89-8s6.06-5.3,6.93-9.36c-2.82-1.15-9.09-2.24-11.2-1.69-4.52,1.07-10.33,5-15.91,8.11,2.46,5.85,0,0,5.29,10.91Z" transform="translate(-24.69 -35.35)"/><path class="cls-13" d="M120.71,63.79A105.65,105.65,0,0,0,105.5,71.7c-4.29,2.73-6.56,5.36-6.92,10.18,2.82,1.15,8.61,1.32,11.51.92,4.42-2.24,10.26-5.47,15.84-8.61-2.45-5.86.1-.33-5.22-10.4Z" transform="translate(-24.69 -35.35)"/><path class="cls-13" d="M156.52,134.5c0,1.28,1.14-1.07-3.94-.93s-21.05,1.83-26.53,1.75-4.55-.45-6.32-2.22-3.19-6.75-4.29-8.41-.47.84,4.16.64,18.64-1.56,23.58-1.83,4.46-.2,6.06.19,2.34.51,3.53,2.17,3.78,7.36,3.75,8.64Z" transform="translate(-24.69 -35.35)"/><path class="cls-13" d="M142.69,98.75c-.17,1.14,1.07-1.11-3.94-.94s-20.52,2.07-26.08,2-5.43-.48-7.27-2.41-3.89-7.84-3.82-9.14-.46,1.47,4.19,1.31,18.73-2,23.67-2.31,4.4.12,6,.51a6.86,6.86,0,0,1,4.33,3.15c.76,1.57,3.09,6.67,2.92,7.82Z" transform="translate(-24.69 -35.35)"/><path class="cls-13" d="M114.27,118.86c1.49,1.22,10.35.15,14.17-.87s6.15-3,8.76-5.21,8.13-6.93,6.87-8.21-10.35-.43-14.43.48a23.34,23.34,0,0,0-10.15,5.6c-2.56,2.3-6.71,7-5.22,8.21Z" transform="translate(-24.69 -35.35)"/><path class="cls-12" d="M288.39,146c1.77-4.29,7.05-7,11.31-9.42S309,132.92,314,131.2s11.89-4.3,15.24-5,3.74.05,4.82,1,.37.6,1.66,4.48,5.33,14.78,6.07,18.83.11,4-1.66,5.46-10.19,2.21-9,3.32,12.27.29,16.32,3.36,6.44,9.26,8,15.05,3.32,14.41,1.22,19.66-11.06,9.93-13.82,11.84c5.08.87,12.28.93,16,4.14s4.75,9.85,6.37,15.11,3.2,12.27,3.38,16.43a12.61,12.61,0,0,1-2.31,8.54c-1.43,2.05-3.23,2.88-6.72,4.92s-11,4.36-15.61,6.12c-6,1.21-13.37,5.53-17.27,5.54s-3.16-.95-4.71-3.8-3.47-9.65-4.59-13.29-2.11-6.72-2.26-8.77-.15-2.43,1.37-3.54,7.94-2.36,7.75-3.11-6.23-.64-8.94-1.42-5.25-1.53-7.32-3.27a18.8,18.8,0,0,1-5.14-7.18c-1.36-3.12-2.25-8-3-11.55s-2.09-6.49-1.49-9.6,3.09-6.56,5.09-9.11,6.18-5,6.89-6.15-.77-.26-2.63-.79-6.07-.65-8.56-2.4a17.83,17.83,0,0,1-6.36-8.1c-1.68-3.95-2.95-10.32-3.68-15.64s-2.48-12-.71-16.31Z" transform="translate(-24.69 -35.35)"/><path class="cls-13" d="M327.73,261.18c8.75-2.08,18-6,20.93-6.83s9-5.42,11-10.43c-3.35-2.12-11.15-4.94-14-4.72-6,.35-14.38,4-22.26,6.78,1.82,8.07,0,0,4.3,15.2Z" transform="translate(-24.69 -35.35)"/><path class="cls-13" d="M327.89,135.46a136.56,136.56,0,0,0-21.32,6.68c-6.14,2.53-9.65,5.39-11.21,11.49,3.36,2.12,10.75,3.65,14.57,3.81,6.17-1.87,14.41-4.68,22.29-7.44-1.82-8.08.19-.41-4.33-14.54Z" transform="translate(-24.69 -35.35)"/><path class="cls-13" d="M357.73,234.36c-.34,1.64,1.7-1.11-4.84-2.09s-27.44-2.46-34.45-3.8-5.74-1.62-7.6-4.29-2.56-9.38-3.59-11.78-.79,1,5.18,1.78,24.28,2.25,30.68,3,5.77.76,7.73,1.63,2.89,1.19,4,3.59,3.18,10.3,2.85,11.94Z" transform="translate(-24.69 -35.35)"/><path class="cls-13" d="M348.13,185.32c-.48,1.44,1.62-1.18-4.84-2.09s-26.81-2-33.93-3.37-6.86-1.85-8.79-4.75-3.19-10.94-2.82-12.6-.91,1.79,5.08,2.64,24.5,1.69,30.91,2.43,5.62,1.15,7.58,2,4.21,2.83,4.84,5,2.45,9.26,2,10.69Z" transform="translate(-24.69 -35.35)"/><path class="cls-13" d="M307.07,204.66c1.64,1.91,13.25,2.55,18.38,2.12s8.57-2.42,12.43-4.7,12-7,10.69-9-13.19-2.91-18.63-2.67a30.44,30.44,0,0,0-14.3,4.88c-3.81,2.36-10.2,7.43-8.57,9.34Z" transform="translate(-24.69 -35.35)"/></g></g></svg>