<svg xmlns="http://www.w3.org/2000/svg" viewBox="0 0 288.63 289.22"><defs><style>.cls-1{fill:#c7e0e5;}.cls-2{fill:#f8a88e;}.cls-3{fill:#c48986;}.cls-4,.cls-5{fill-rule:evenodd;}.cls-5{fill:#efa289;}.cls-6{fill:#daeaef;}</style></defs><g id="Слой_2" data-name="Слой 2"><g id="Слой_1-2" data-name="Слой 1"><path class="cls-1" d="M101,151l-2.73-17.18,157.07-25a3.25,3.25,0,0,1,3.72,2.7,14.89,14.89,0,0,1-10,16.47L144.71,162.62a16.69,16.69,0,0,1-18.86-6.16,16.69,16.69,0,0,0-16.23-6.8Z" transform="translate(0)"/><path class="cls-2" d="M2.72,120.78l-.23,2.38a29.44,29.44,0,0,0,13,13.41,14.53,14.53,0,0,1,1.17-1.36A13.67,13.67,0,0,1,28,119.85a23.49,23.49,0,0,1,20.94,7.32,56.5,56.5,0,0,0,6.52,6.07l3.74,1.14,24.09-3.83,1.63-2A40,40,0,0,1,61.06,116a40,40,0,0,0-35.73-12.43A30.07,30.07,0,0,0,2.72,120.78Z" transform="translate(0)"/><path class="cls-3" d="M107.33,148.42l-2.21-13.93a7.27,7.27,0,0,0-8.33-6,40.05,40.05,0,0,1-11.87.1l-29.46,4.69c.69.54,1.39,1.07,2.1,1.58a7,7,0,0,1-3,12.68l-24.53,3.9a10.74,10.74,0,0,1-12.3-8.93l-1.12-7,0-.26a26.3,26.3,0,0,1-13.9-14.43A29.89,29.89,0,0,0,.38,138l1.27,8a26.27,26.27,0,0,0,30.06,21.81l69.58-11.07a7.27,7.27,0,0,0,6-8.33Z" transform="translate(0)"/><path class="cls-2" d="M115.13,270.18l-4-1.92a10.75,10.75,0,0,1-5-14.36L117,231.55a6.58,6.58,0,0,1,6.44-4l1.68-1.63c-.66-1.45-1.36-2.92-1.88-3.79a46.47,46.47,0,0,1-6.19-25.5L116,196l-25,51.63c-5.07,10.46-3,22.2,4.91,29.87l4.8,2.3a37.25,37.25,0,0,0,15.25-6.56Z" transform="translate(0)"/><path class="cls-3" d="M150.57,272.27a39.62,39.62,0,0,0-1.56-37.8,40,40,0,0,1-1.56-37.79,7.27,7.27,0,0,0-3.38-9.72l-12.69-6.15a7.27,7.27,0,0,0-9.72,3.37L116,196a40,40,0,0,0,5,26.76,41.08,41.08,0,0,1,2.45,4.87,7,7,0,0,1,6.55,4.8,57.12,57.12,0,0,0,4.83,10.46,23.47,23.47,0,0,1,.95,22.17,13.66,13.66,0,0,1-18.23,6.33l-2.42-1.17a30.13,30.13,0,0,1-19.28,7.28,25.93,25.93,0,0,0,7.27,5.2l7.31,3.55a30.05,30.05,0,0,0,40.14-13.94Z" transform="translate(0)"/><path class="cls-4" d="M137,44.05c1.09-6.83,7.83-12.54,13.17-17.58S162.45,18,169,13.78,184.78,3.43,189.41,1.3,194.86.08,196.74,1s.75.74,4,5.93S213.55,26.57,216,32.19s1.55,5.77-.51,8.5-14,6.73-11.86,7.92,17.92-3.82,24.86-.77,12.55,11.22,16.78,19.09,9.81,19.79,8.58,28.14-12.62,18.24-16,22c7.69-.49,18.17-2.88,24.69.48s10.3,12.66,14.48,19.73,8.88,16.71,10.58,22.7,1,9.73-.4,13.2-3.68,5.29-8.05,9.46c-4.21,4.09-14.49,10.14-20.55,14.29-8.33,3.83-17.5,12.65-23.16,14s-4.92-.28-8.15-3.88S219,194.2,216.07,189.31s-5.39-9-6.32-12-1.07-3.48.76-5.61,10.72-6.17,10.17-7.2-9.26,1.24-13.47,1-8.14-.41-11.76-2.22a28.13,28.13,0,0,1-9.94-8.65c-3-4.06-6-10.86-8.35-15.72s-5.28-8.7-5.49-13.44,2.23-10.6,4.25-15,7.24-9.39,7.87-11.31-1.2-.11-4.09-.24-9,1.16-13.26-.52a26.67,26.67,0,0,1-12-9.56c-3.8-5.17-7.85-14-10.75-21.45s-7.76-16.6-6.68-23.44Z" transform="translate(0)"/><path class="cls-5" d="M234,197.76c12-6.06,24-14.9,28-17.17s11.16-11,12.4-19c-5.62-1.92-17.91-3.32-21.95-2-8.66,2.58-19.5,10.8-30,17.53,5.43,11.1-.06,0,11.5,20.6Z" transform="translate(0)"/><path class="cls-5" d="M190.7,15.14a205.15,205.15,0,0,0-28.65,17.08c-8,5.79-12.14,11.16-12.3,20.56,5.61,1.92,16.87,1.59,22.47.49,8.32-4.85,19.31-11.78,29.79-18.51-5.43-11.1.15-.67-11.31-19.62Z" transform="translate(0)"/><path class="cls-5" d="M268.23,148.43c.09,2.5,2.1-2.21-7.75-1.37s-40.68,5.94-51.33,6.4-8.89-.35-12.52-3.59-7-12.74-9.29-15.86-.81,1.69,8.15.78,36-5.13,45.59-6.22,8.64-.89,11.79-.31,4.61.73,7.1,3.82,8.18,13.85,8.26,16.35Z" transform="translate(0)"/><path class="cls-5" d="M237.33,80.55c-.19,2.25,1.95-2.28-7.75-1.36S190,85.53,179.15,86s-10.59-.32-14.4-3.85-8.43-14.78-8.45-17.32-.71,2.92,8.29,2.07,36.15-6,45.72-7.16,8.55-.27,11.7.31,7.1,2.65,8.76,5.63,6.76,12.6,6.56,14.85Z" transform="translate(0)"/><path class="cls-5" d="M184.41,122.82c3,2.21,20.11-.88,27.42-3.28s11.61-6.47,16.42-11.11,15-14.37,12.41-16.73-20.14.35-28,2.57-14.36,7.27-19.08,12-12.25,14.33-9.21,16.53Z" transform="translate(0)"/><path class="cls-6" d="M127.07,186.08l15.66,7.58L212.07,50.53a3.25,3.25,0,0,0-1.51-4.34A14.9,14.9,0,0,0,191.89,51l-63.29,89.9a16.72,16.72,0,0,0,.44,19.84,16.71,16.71,0,0,1,1.82,17.5Z" transform="translate(0)"/><circle class="cls-1" cx="150.08" cy="141.8" r="3.53"/></g></g></svg>