<svg xmlns="http://www.w3.org/2000/svg" xmlns:xlink="http://www.w3.org/1999/xlink" viewBox="0 0 489.36 248.7"><defs><style>.cls-1{fill:url(#Безымянный_градиент_60);}.cls-2{fill:url(#Безымянный_градиент_67);}.cls-3,.cls-4{stroke:#404d7f;stroke-miterlimit:10;stroke-width:6px;}.cls-3{fill:url(#Безымянный_градиент_71);}.cls-4{fill:none;}</style><radialGradient id="Безымянный_градиент_60" cx="219.01" cy="21.36" fx="207.61695278303952" r="72.9" gradientTransform="matrix(-1, -0.07, 0.14, -1.97, 459.41, 109.22)" gradientUnits="userSpaceOnUse"><stop offset="0" stop-color="#cbabc8"/><stop offset="0.07" stop-color="#ab98bf"/><stop offset="0.16" stop-color="#8884b6"/><stop offset="0.25" stop-color="#6f75af"/><stop offset="0.33" stop-color="#606cab"/><stop offset="0.39" stop-color="#5b69aa"/><stop offset="0.56" stop-color="#515f9a"/><stop offset="0.9" stop-color="#404d7f"/></radialGradient><radialGradient id="Безымянный_градиент_67" cx="139.16" cy="51.61" fx="99.8126467958181" r="196.15" gradientTransform="matrix(-0.32, 0.95, -1.74, -0.59, 273.69, -49.58)" gradientUnits="userSpaceOnUse"><stop offset="0.09" stop-color="#cbabc8"/><stop offset="0.16" stop-color="#ab98bf"/><stop offset="0.24" stop-color="#8e87b8"/><stop offset="0.33" stop-color="#777ab2"/><stop offset="0.42" stop-color="#6770ad"/><stop offset="0.53" stop-color="#5e6bab"/><stop offset="0.67" stop-color="#5b69aa"/><stop offset="0.77" stop-color="#5764a3"/><stop offset="0.91" stop-color="#4a5890"/><stop offset="1" stop-color="#404d7f"/></radialGradient><radialGradient id="Безымянный_градиент_71" cx="422.21" cy="25.68" fx="395.2649497029447" r="256.78" gradientTransform="matrix(-0.85, 0.53, -0.82, -1.33, 861.79, -96.29)" gradientUnits="userSpaceOnUse"><stop offset="0.07" stop-color="#cbabc8"/><stop offset="0.09" stop-color="#bfa4c5"/><stop offset="0.15" stop-color="#a092bd"/><stop offset="0.22" stop-color="#8783b6"/><stop offset="0.29" stop-color="#7377b1"/><stop offset="0.38" stop-color="#656fad"/><stop offset="0.48" stop-color="#5d6aab"/><stop offset="0.67" stop-color="#5b69aa"/><stop offset="0.75" stop-color="#5866a5"/><stop offset="0.85" stop-color="#4f5c96"/><stop offset="0.96" stop-color="#404d7f"/></radialGradient></defs><g id="Слой_2" data-name="Слой 2"><g id="Слой_1-2" data-name="Слой 1"><ellipse class="cls-1" cx="201.6" cy="61.23" rx="56" ry="62.08" transform="translate(32.28 186.63) rotate(-53.42)"/><ellipse class="cls-2" cx="116.35" cy="134.99" rx="113.35" ry="106.27"/><ellipse class="cls-3" cx="370.88" cy="131.52" rx="134.59" ry="90.84" transform="translate(13.11 295.38) rotate(-44.13)"/><path class="cls-4" d="M235,16.27c-27.53-20.44-64.79-16.87-83.22,8a50.48,50.48,0,0,0-5,8.36,120.38,120.38,0,0,0-30.38-3.87C53.75,28.72,3,76.3,3,135S53.75,241.25,116.35,241.25,229.7,193.67,229.7,135a100,100,0,0,0-1.84-19.15,51.68,51.68,0,0,0,23.59-17.61C269.88,73.4,262.5,36.7,235,16.27Z"/></g></g></svg>