<svg xmlns="http://www.w3.org/2000/svg" viewBox="0 0 302.29 82.68"><defs><style>.cls-1{fill:#fff;}.cls-2{fill:none;stroke:#fff;stroke-miterlimit:10;}</style></defs><g id="Слой_2" data-name="Слой 2"><g id="Слой_1-2" data-name="Слой 1"><path class="cls-1" d="M19.3,5.4l-.5,5c-2.22,0-3.68-.06-6.7-.06-2.15,0-2.69,1.07-2.69,5.52s.54,5.52,2.69,5.52a65.69,65.69,0,0,0,7.17-.26l.51,5a21.55,21.55,0,0,1-7.68,1.05c-7.26,0-9.93-3-9.93-11.32S4.84,4.54,12.1,4.54A23.05,23.05,0,0,1,19.3,5.4Z" transform="translate(0 -4.54)"/><path class="cls-1" d="M38.91,18.91c0,6.09-2.38,8.28-8.85,8.28S21.18,25,21.18,18.91s2.38-8.41,8.88-8.41S38.91,12.73,38.91,18.91Zm-10.75,0c0,3.17.35,3.78,1.9,3.78s1.87-.61,1.87-3.78S31.58,15,30.06,15,28.16,15.64,28.16,18.91Z" transform="translate(0 -4.54)"/><path class="cls-1" d="M58.17,15V26.81H51.51V17.07c0-.7-.32-.95-1.14-.95a8.14,8.14,0,0,0-2.6.38V26.81H41.1V11h5.24l.6,2.35a9.75,9.75,0,0,1,6.54-2.8C56.55,10.5,58.17,12,58.17,15Z" transform="translate(0 -4.54)"/><path class="cls-1" d="M69.12,21c0,.82.38,1.14,1.36,1.14h1.68l.73,4.25a17.1,17.1,0,0,1-5.39.82c-3.08,0-5-1.64-5-4.44V15h-2.7V11.11L62.43,11V6.79h6.69V11H73v4H69.12Z" transform="translate(0 -4.54)"/><path class="cls-1" d="M90.85,17v9.83h-5.3L85,24.59a6.72,6.72,0,0,1-5.49,2.66c-2.95,0-5.45-1.52-5.45-4.5V21.16c0-2.53,2-4.09,5.23-4.09h5v-.13c0-1.11-.48-1.58-1.87-1.58-1.65,0-4.16,0-6.85.16l-.61-4.22a61.33,61.33,0,0,1,9-.8C88.38,10.5,90.85,12,90.85,17ZM80.48,21.77c0,.57.44,1,1.33,1A5,5,0,0,0,84.19,22V20.28H81.68c-.79,0-1.2.41-1.2,1Z" transform="translate(0 -4.54)"/><path class="cls-1" d="M108,11.68l-.67,4.12h-4.82c-2,0-2.67.61-2.67,3.05s.64,3.07,2.67,3.07a47.52,47.52,0,0,0,5.11-.22l.6,4.16a15.62,15.62,0,0,1-6.92,1.33c-6.21,0-8.43-2.22-8.43-8.34s2.25-8.35,8.5-8.35A16.79,16.79,0,0,1,108,11.68Z" transform="translate(0 -4.54)"/><path class="cls-1" d="M118.49,21c0,.82.38,1.14,1.36,1.14h1.68l.73,4.25a17.1,17.1,0,0,1-5.39.82c-3.08,0-5-1.64-5-4.44V15h-2.7V11.11l2.66-.13V6.79h6.7V11h3.84v4h-3.84Z" transform="translate(0 -4.54)"/><path class="cls-1" d="M147.52,26.81h-5.24l-.6-2.31a9.09,9.09,0,0,1-6.34,2.75c-3.11,0-4.7-1.52-4.7-4.44V11h6.66v9.74c0,.7.35,1,1.18,1a7,7,0,0,0,2.34-.38V11h6.7Z" transform="translate(0 -4.54)"/><path class="cls-1" d="M165.13,11.2l-.42,3.87h-6.25c-2.12,0-2.37,0-2.37.38s.34.35,1.87.76l3.65.92c2.82.8,4.18,2,4.18,4.79,0,4-2.15,5.24-7.67,5.24a49.24,49.24,0,0,1-8.25-.67l.41-3.87h5.65c3,0,3.42,0,3.42-.47s-.41-.38-2.06-.86l-3.49-.95c-3.49-1-4.15-2.73-4.15-5.2,0-2.89,1.77-4.64,7.36-4.64A48.75,48.75,0,0,1,165.13,11.2Z" transform="translate(0 -4.54)"/><path class="cls-1" d="M12.07,57.63H9.71A.72.72,0,0,1,9,56.92V51.59H7.62a.71.71,0,0,1-.72-.71V48.6a.72.72,0,0,1,.72-.72H9V46.74A3.91,3.91,0,0,1,10,44a3.72,3.72,0,0,1,2.73-1.06h1.8a.71.71,0,0,1,.72.71v2.12a.71.71,0,0,1-.72.71H13.34c-.37,0-.46.07-.48.09s-.07.15-.07.44v.9h1.67a.71.71,0,0,1,.72.72v2.28a.71.71,0,0,1-.71.71H12.79v5.33A.72.72,0,0,1,12.07,57.63Zm-2.21-.86h2.06V51.21a.48.48,0,0,1,.48-.48h1.92v-2H12.4a.49.49,0,0,1-.48-.48V47a1.5,1.5,0,0,1,.29-1,1.46,1.46,0,0,1,1.13-.39H14.4V43.76H12.75a2.72,2.72,0,0,0-2.89,3v1.53a.49.49,0,0,1-.48.48H7.77v2H9.38a.48.48,0,0,1,.48.48Zm4.69-13Z" transform="translate(0 -4.54)"/><circle class="cls-2" cx="11.46" cy="45.47" r="9.97"/><path class="cls-1" d="M13.45,70.14h-6A3.53,3.53,0,0,0,4,73.66v6a3.53,3.53,0,0,0,3.52,3.52h6A3.53,3.53,0,0,0,17,79.63v-6A3.53,3.53,0,0,0,13.45,70.14Zm2.76,9.49a2.77,2.77,0,0,1-2.76,2.76h-6a2.77,2.77,0,0,1-2.76-2.76v-6A2.77,2.77,0,0,1,7.48,70.9h6a2.77,2.77,0,0,1,2.76,2.76Z" transform="translate(0 -4.54)"/><path class="cls-1" d="M10.47,73.09A3.56,3.56,0,1,0,14,76.65,3.56,3.56,0,0,0,10.47,73.09Zm0,6.35a2.8,2.8,0,1,1,2.79-2.79A2.79,2.79,0,0,1,10.47,79.44Z" transform="translate(0 -4.54)"/><path class="cls-1" d="M14.11,71.82a1.06,1.06,0,1,0,1.05,1.06A1.06,1.06,0,0,0,14.11,71.82Zm0,1.34a.29.29,0,1,1,.29-.28A.29.29,0,0,1,14.11,73.16Z" transform="translate(0 -4.54)"/><circle class="cls-2" cx="10.47" cy="72.15" r="9.97"/><path class="cls-1" d="M137,57.3c-2.46,0-4.41-.43-5.34-1.17l0,0v0a.74.74,0,0,1-.2-.79v0a.77.77,0,0,1,.7-.49,6.15,6.15,0,0,0,1.68-.23,3.17,3.17,0,0,1-1.68-1.94.69.69,0,0,1,.24-.8.53.53,0,0,1,.21-.11,4.6,4.6,0,0,1-.95-1.71v0a.72.72,0,0,1,.33-.77.69.69,0,0,1,.34-.09,3.22,3.22,0,0,1-.27-.83,3.44,3.44,0,0,1,.37-2.31l.09-.18a.51.51,0,0,1,.37-.28.54.54,0,0,1,.44.14l.17.17A7.9,7.9,0,0,0,138,48.29a3.58,3.58,0,0,1,1-2.08,3.4,3.4,0,0,1,2.44-1.07h0a4.86,4.86,0,0,1,2,.65c.44-.14,1-.36,1.5-.59a.69.69,0,0,1,.77.13.67.67,0,0,1,.15.74c0,.11-.09.22-.14.33a.69.69,0,0,1,.2.13.75.75,0,0,1,.19.7v0A2.83,2.83,0,0,1,145,48.81C144.89,53.51,141.35,57.3,137,57.3Zm-4.51-1.66a10.14,10.14,0,0,0,4.51.8,6.74,6.74,0,0,0,5-2.28,8.12,8.12,0,0,0,2.1-5.53v0a.51.51,0,0,1,.27-.45,1.86,1.86,0,0,0,.8-.88.51.51,0,0,1-.49-.81,3,3,0,0,0,.19-.3c-.47.2-.92.37-1.3.49a.54.54,0,0,1-.43,0,4.25,4.25,0,0,0-1.71-.61,2.68,2.68,0,0,0-2.59,2.72.54.54,0,0,1-.18.4.55.55,0,0,1-.43.1,8.89,8.89,0,0,1-5.19-2.61,2.57,2.57,0,0,0-.16,1.49,3.08,3.08,0,0,0,.74,1.46.5.5,0,0,1-.51.82,2,2,0,0,1-.48-.18,4.32,4.32,0,0,0,1.48,1.71.51.51,0,0,1,.19.59.5.5,0,0,1-.51.34,2.27,2.27,0,0,1-.68-.14A2.34,2.34,0,0,0,135,54a.51.51,0,0,1,.16,1A6,6,0,0,1,132.5,55.64Z" transform="translate(0 -4.54)"/><circle class="cls-2" cx="138.5" cy="46.27" r="9.97"/><path class="cls-1" d="M145.71,72.35H132a.5.5,0,0,0-.5.5v8a.5.5,0,0,0,.5.5h13.74a.5.5,0,0,0,.5-.5v-8A.51.51,0,0,0,145.71,72.35Zm-13.38,1.24,4.14,2.74-4.14,3.6Zm6.51,3.28-5.51-3.66h11Zm-1.63,0,1.35.9a.53.53,0,0,0,.56,0l1.35-.9,4.15,3.62H133.05Zm4-.5,4.13-2.74v6.34Z" transform="translate(0 -4.54)"/><circle class="cls-2" cx="138.77" cy="72.22" r="9.97"/><path class="cls-1" d="M37.65,45.42c1.27,0,2,.51,2,1.88v4.42H39l-.1-1.08a4.75,4.75,0,0,1-3,1.18c-1.1,0-1.82-.55-1.82-1.6v-.74c0-.9.58-1.42,1.62-1.42h3.09v-.73c0-.75-.29-1.16-1.34-1.16H35.64c-2.53,0-2.89.18-2.89,3.65s.36,3.75,3.32,3.75h3.55v.68c-1.17,0-2.35.08-3.54.08-3.75.05-4.17-.48-4.17-4.5s.36-4.39,3.72-4.41ZM36,48.67c-.72,0-1,.3-1,.91v.5c0,.7.39,1,1.11,1a4.6,4.6,0,0,0,2.75-1V48.61Z" transform="translate(0 -4.54)"/><path class="cls-1" d="M42.64,43.87a.27.27,0,0,1,.3.3V45a.26.26,0,0,1-.3.29h-.41c-.21,0-.3-.1-.3-.29v-.82a.26.26,0,0,1,.3-.3ZM42,53.57V46.75h.89v6.82Z" transform="translate(0 -4.54)"/><path class="cls-1" d="M50.37,47.33a2.17,2.17,0,0,1,.39,1.41c0,1.46-.75,2.12-2.85,2.12a5.19,5.19,0,0,1-1.55-.18c-.41.52-.39,1.26.52,1.41l2.63.44c1.27.2,1.65.76,1.65,1.87,0,1.55-.82,2.06-3.18,2.06s-3.21-.51-3.21-2a1.73,1.73,0,0,1,1.15-1.8,1.3,1.3,0,0,1,0-2.15,1.77,1.77,0,0,1-.85-1.74c0-1.5.75-2.18,2.86-2.18a5,5,0,0,1,1.54.19h2.11l-.05.5Zm-1.29,5.88-2.55-.4-.06,0a1.59,1.59,0,0,0-.83,1.53c0,1,.55,1.32,2.34,1.32s2.3-.3,2.3-1.32C50.28,53.6,50.07,53.36,49.08,53.21Zm.84-4.47c0-1-.51-1.47-2-1.47s-2,.44-2,1.47.54,1.43,2,1.43S49.92,49.74,49.92,48.74Z" transform="translate(0 -4.54)"/><path class="cls-1" d="M58.33,52.8l.1.6a8.91,8.91,0,0,1-2.58.34c-2.28,0-3.17-1-3.17-3.61s.89-3.57,3.06-3.57c2,0,2.83.72,2.85,2.13,0,1.23-.45,1.91-1.57,1.91h-3.4c.1,1.86.79,2.36,2.36,2.36A20.36,20.36,0,0,0,58.33,52.8Zm-4.72-2.91h3.2c.71,0,.89-.51.88-1.18,0-1-.58-1.37-1.91-1.37C54.2,47.34,53.65,48,53.61,49.89Z" transform="translate(0 -4.54)"/><path class="cls-1" d="M70.6,48.44v5.13h-.89V48.68c0-.93-.38-1.34-1.21-1.34a4.21,4.21,0,0,0-2.5,1.2v5h-.86V48.68c0-1-.4-1.34-1.21-1.34a4.17,4.17,0,0,0-2.49,1.18v5h-.89V46.75h.73l.06,1.14a4.38,4.38,0,0,1,2.87-1.33A1.58,1.58,0,0,1,66,47.86a4.33,4.33,0,0,1,2.85-1.3A1.65,1.65,0,0,1,70.6,48.44Z" transform="translate(0 -4.54)"/><path class="cls-1" d="M78.23,52.8l.1.6a8.91,8.91,0,0,1-2.58.34c-2.28,0-3.17-1-3.17-3.61s.89-3.57,3.06-3.57c2,0,2.83.72,2.85,2.13,0,1.23-.46,1.91-1.57,1.91h-3.4c.1,1.86.79,2.36,2.36,2.36A20.52,20.52,0,0,0,78.23,52.8Zm-4.72-2.91h3.2c.7,0,.89-.51.87-1.18,0-1-.58-1.37-1.9-1.37C74.1,47.34,73.55,48,73.51,49.89Z" transform="translate(0 -4.54)"/><path class="cls-1" d="M85.44,46.78l-.09.64c-.84,0-1.75-.08-2.59-.08-1.36,0-1.86,0-1.86,1.08,0,.82.36,1,1,1.15L84,50a1.65,1.65,0,0,1,1.58,1.83c0,1.7-1,1.94-2.83,1.94a17.1,17.1,0,0,1-2.61-.19l.07-.66a20,20,0,0,0,2.38.08c1.59,0,2.12-.16,2.12-1.17,0-.8-.46-1-1.12-1.11l-2.09-.39A1.64,1.64,0,0,1,80,48.42c0-1.63.83-1.87,2.62-1.86A23.83,23.83,0,0,1,85.44,46.78Z" transform="translate(0 -4.54)"/><path class="cls-1" d="M88.92,51.88c0,.69.32,1,1,1H91l.12.67a8.92,8.92,0,0,1-1.43.14A1.51,1.51,0,0,1,88,52V47.45H86.79v-.63L88,46.75V44.67h.89v2.08h2.31v.7H88.92Z" transform="translate(0 -4.54)"/><path class="cls-1" d="M37.65,72.45c1.27,0,2,.51,2,1.88v4.42H39l-.1-1.08a4.81,4.81,0,0,1-3,1.18c-1.1,0-1.82-.55-1.82-1.61v-.73c0-.9.58-1.42,1.62-1.42h3.09v-.74c0-.74-.29-1.15-1.34-1.15H35.64c-2.53,0-2.89.18-2.89,3.65s.36,3.75,3.32,3.75h3.55v.68c-1.17,0-2.35.08-3.54.08-3.75,0-4.17-.48-4.17-4.5s.36-4.4,3.72-4.41ZM36,75.69c-.72,0-1,.31-1,.92v.49c0,.71.39,1,1.11,1a4.55,4.55,0,0,0,2.75-1V75.64Z" transform="translate(0 -4.54)"/><path class="cls-1" d="M42.64,70.9a.27.27,0,0,1,.3.3V72a.27.27,0,0,1-.3.3h-.41a.26.26,0,0,1-.3-.3V71.2a.26.26,0,0,1,.3-.3ZM42,80.6V73.78h.89V80.6Z" transform="translate(0 -4.54)"/><path class="cls-1" d="M50.37,74.35a2.2,2.2,0,0,1,.39,1.41c0,1.47-.75,2.13-2.85,2.13a5.19,5.19,0,0,1-1.55-.18c-.41.52-.39,1.25.52,1.41l2.63.44c1.27.19,1.65.76,1.65,1.87,0,1.55-.82,2.06-3.18,2.06s-3.21-.51-3.21-2a1.73,1.73,0,0,1,1.15-1.8,1.3,1.3,0,0,1,0-2.15,1.78,1.78,0,0,1-.85-1.75c0-1.49.75-2.17,2.86-2.17a5,5,0,0,1,1.54.19h2.11l-.05.5Zm-1.29,5.88-2.55-.39-.06,0a1.57,1.57,0,0,0-.83,1.52c0,1,.55,1.33,2.34,1.33s2.3-.3,2.3-1.33C50.28,80.63,50.07,80.39,49.08,80.23Zm.84-4.47c0-1-.51-1.46-2-1.46s-2,.43-2,1.46.54,1.44,2,1.44S49.92,76.76,49.92,75.76Z" transform="translate(0 -4.54)"/><path class="cls-1" d="M58.33,79.82l.1.61a8.91,8.91,0,0,1-2.58.34c-2.28,0-3.17-1-3.17-3.61s.89-3.57,3.06-3.57c2,0,2.83.72,2.85,2.13,0,1.23-.45,1.9-1.57,1.9h-3.4c.1,1.87.79,2.37,2.36,2.37A18.24,18.24,0,0,0,58.33,79.82Zm-4.72-2.9h3.2c.71,0,.89-.51.88-1.18,0-1-.58-1.37-1.91-1.37C54.2,74.37,53.65,75,53.61,76.92Z" transform="translate(0 -4.54)"/><path class="cls-1" d="M70.6,75.47V80.6h-.89V75.71c0-.93-.38-1.34-1.21-1.34a4.21,4.21,0,0,0-2.5,1.2v5h-.86V75.71c0-1-.4-1.34-1.21-1.34a4.17,4.17,0,0,0-2.49,1.18v5h-.89V73.78h.73l.06,1.14a4.34,4.34,0,0,1,2.87-1.33A1.58,1.58,0,0,1,66,74.89a4.33,4.33,0,0,1,2.85-1.3A1.65,1.65,0,0,1,70.6,75.47Z" transform="translate(0 -4.54)"/><path class="cls-1" d="M78.23,79.82l.1.61a8.91,8.91,0,0,1-2.58.34c-2.28,0-3.17-1-3.17-3.61s.89-3.57,3.06-3.57c2,0,2.83.72,2.85,2.13,0,1.23-.46,1.9-1.57,1.9h-3.4c.1,1.87.79,2.37,2.36,2.37A18.38,18.38,0,0,0,78.23,79.82Zm-4.72-2.9h3.2c.7,0,.89-.51.87-1.18,0-1-.58-1.37-1.9-1.37C74.1,74.37,73.55,75,73.51,76.92Z" transform="translate(0 -4.54)"/><path class="cls-1" d="M85.44,73.8l-.09.65c-.84,0-1.75-.08-2.59-.08-1.36,0-1.86,0-1.86,1.08,0,.82.36,1,1,1.15L84,77a1.65,1.65,0,0,1,1.58,1.83c0,1.69-1,1.93-2.83,1.93a16.82,16.82,0,0,1-2.61-.18l.07-.66a20,20,0,0,0,2.38.08c1.59,0,2.12-.17,2.12-1.17,0-.8-.46-1-1.12-1.11l-2.09-.4A1.64,1.64,0,0,1,80,75.45c0-1.63.83-1.87,2.62-1.86A26.18,26.18,0,0,1,85.44,73.8Z" transform="translate(0 -4.54)"/><path class="cls-1" d="M88.92,78.91c0,.69.32,1,1,1H91l.12.68a8.92,8.92,0,0,1-1.43.14A1.51,1.51,0,0,1,88,79V74.48H86.79v-.63L88,73.78V71.7h.89v2.08h2.31v.7H88.92Z" transform="translate(0 -4.54)"/><path class="cls-1" d="M98.71,77.19c0,2.62-.84,3.58-3.13,3.58s-3.15-1-3.15-3.58.85-3.6,3.15-3.6S98.71,74.57,98.71,77.19Zm-5.33,0c0,2.15.55,2.82,2.2,2.82s2.2-.67,2.2-2.82-.55-2.82-2.2-2.82S93.38,75,93.38,77.19Z" transform="translate(0 -4.54)"/><path class="cls-1" d="M106.55,75.47V80.6h-.89V75.71c0-1-.36-1.34-1.19-1.34a5.38,5.38,0,0,0-2.85,1.18l0,5h-.9V73.78h.74l.06,1.12a5.35,5.35,0,0,1,3.17-1.31A1.66,1.66,0,0,1,106.55,75.47Z" transform="translate(0 -4.54)"/><path class="cls-1" d="M109.58,70.9a.27.27,0,0,1,.3.3V72a.27.27,0,0,1-.3.3h-.41a.26.26,0,0,1-.3-.3V71.2a.26.26,0,0,1,.3-.3Zm-.65,9.7V73.78h.89V80.6Z" transform="translate(0 -4.54)"/><path class="cls-1" d="M117.6,75.69V80.6h-.7l-.12-1.2a4.52,4.52,0,0,1-3,1.31,1.74,1.74,0,0,1-1.94-1.84v-.79a1.58,1.58,0,0,1,1.79-1.67h3.06v-.72c0-.86-.33-1.32-1.45-1.32a29.48,29.48,0,0,0-3,.2l-.08-.67a22.59,22.59,0,0,1,3.29-.31C116.81,73.59,117.6,74.13,117.6,75.69Zm-.9,3.09V77.1l-2.92,0a.94.94,0,0,0-1,1.06v.59c0,.78.4,1.14,1.2,1.14A4.5,4.5,0,0,0,116.7,78.78Z" transform="translate(0 -4.54)"/><path class="cls-1" d="M166.14,46.06c1.27,0,2,.51,2,1.88v4.42h-.67l-.09-1.08a4.78,4.78,0,0,1-3,1.18c-1.1,0-1.81-.55-1.81-1.6v-.74c0-.9.57-1.42,1.62-1.42h3.09V48c0-.74-.3-1.15-1.34-1.15h-1.85c-2.54,0-2.89.18-2.89,3.65s.35,3.75,3.31,3.75h3.55v.68c-1.17,0-2.35.08-3.53.08-3.75,0-4.18-.48-4.18-4.5s.37-4.39,3.72-4.41ZM164.5,49.3c-.71,0-1,.31-1,.92v.49c0,.71.4,1,1.12,1a4.6,4.6,0,0,0,2.75-1V49.25Z" transform="translate(0 -4.54)"/><path class="cls-1" d="M171.13,44.51a.27.27,0,0,1,.3.3v.81a.27.27,0,0,1-.3.3h-.41c-.21,0-.29-.1-.29-.3v-.81c0-.2.08-.3.29-.3Zm-.65,9.7V47.39h.89v6.82Z" transform="translate(0 -4.54)"/><path class="cls-1" d="M178.86,48a2.22,2.22,0,0,1,.4,1.42c0,1.46-.75,2.12-2.85,2.12a5.1,5.1,0,0,1-1.55-.18c-.41.52-.4,1.26.52,1.41l2.62.44c1.27.2,1.65.76,1.65,1.87,0,1.55-.82,2.06-3.17,2.06s-3.22-.51-3.22-2a1.72,1.72,0,0,1,1.16-1.8,1.3,1.3,0,0,1,0-2.15,1.78,1.78,0,0,1-.85-1.74c0-1.5.75-2.18,2.87-2.18a5,5,0,0,1,1.53.19h2.12l-.06.5Zm-1.28,5.88L175,53.45l-.06,0a1.58,1.58,0,0,0-.83,1.52c0,1.05.55,1.33,2.34,1.33s2.3-.3,2.3-1.33C178.78,54.24,178.56,54,177.58,53.84Zm.83-4.46c0-1-.51-1.47-2-1.47s-2,.44-2,1.47.53,1.43,2,1.43S178.41,50.38,178.41,49.38Z" transform="translate(0 -4.54)"/><path class="cls-1" d="M186.83,53.44l.1.6a9,9,0,0,1-2.58.34c-2.29,0-3.18-1-3.18-3.61s.89-3.57,3.06-3.57c2,0,2.84.72,2.85,2.13,0,1.23-.45,1.91-1.56,1.91h-3.4c.1,1.86.79,2.36,2.35,2.36A20.54,20.54,0,0,0,186.83,53.44Zm-4.73-2.91h3.2c.71,0,.89-.51.88-1.18,0-1-.58-1.37-1.9-1.37C182.7,48,182.15,48.6,182.1,50.53Z" transform="translate(0 -4.54)"/><path class="cls-1" d="M199.1,49.08v5.13h-.89V49.32c0-.93-.38-1.34-1.22-1.34s-1.39.38-2.49,1.2v5h-.86V49.32c0-1-.41-1.34-1.21-1.34a4.17,4.17,0,0,0-2.5,1.18v5.05H189V47.39h.74l.05,1.14a4.39,4.39,0,0,1,2.88-1.33,1.57,1.57,0,0,1,1.73,1.3,4.35,4.35,0,0,1,2.85-1.3A1.66,1.66,0,0,1,199.1,49.08Z" transform="translate(0 -4.54)"/><path class="cls-1" d="M206.73,53.44l.09.6a8.86,8.86,0,0,1-2.58.34c-2.28,0-3.17-1-3.17-3.61s.89-3.57,3.06-3.57c2,0,2.83.72,2.85,2.13,0,1.23-.45,1.91-1.57,1.91H202c.1,1.86.79,2.36,2.35,2.36A20.71,20.71,0,0,0,206.73,53.44ZM202,50.53h3.2c.71,0,.89-.51.88-1.18,0-1-.58-1.37-1.91-1.37C202.59,48,202,48.6,202,50.53Z" transform="translate(0 -4.54)"/><path class="cls-1" d="M213.93,47.42l-.08.64c-.85,0-1.75-.08-2.6-.08-1.35,0-1.86,0-1.86,1.08,0,.82.37,1,1,1.15l2.1.39a1.65,1.65,0,0,1,1.58,1.83c0,1.7-.94,1.94-2.83,1.94a17.26,17.26,0,0,1-2.61-.19l.07-.66a20,20,0,0,0,2.38.08c1.6,0,2.12-.16,2.12-1.17,0-.8-.45-1-1.11-1.11L210,50.93a1.65,1.65,0,0,1-1.52-1.87c0-1.63.83-1.87,2.62-1.86A23.66,23.66,0,0,1,213.93,47.42Z" transform="translate(0 -4.54)"/><path class="cls-1" d="M217.41,52.52c0,.69.33,1,1,1h1.11l.11.67a8.8,8.8,0,0,1-1.42.14,1.51,1.51,0,0,1-1.69-1.7V48.09h-1.24v-.63l1.24-.07V45.31h.88v2.08h2.32v.7h-2.32Z" transform="translate(0 -4.54)"/><path class="cls-1" d="M227.2,50.8c0,2.62-.83,3.58-3.13,3.58s-3.14-1-3.14-3.58.84-3.6,3.14-3.6S227.2,48.18,227.2,50.8Zm-5.33,0c0,2.16.55,2.82,2.2,2.82s2.2-.66,2.2-2.82-.55-2.82-2.2-2.82S221.87,48.64,221.87,50.8Z" transform="translate(0 -4.54)"/><path class="cls-1" d="M235,49.08v5.13h-.89V49.32c0-1-.35-1.34-1.18-1.34a5.35,5.35,0,0,0-2.85,1.18v5.05h-.9V47.39H230l.06,1.12a5.3,5.3,0,0,1,3.17-1.31A1.66,1.66,0,0,1,235,49.08Z" transform="translate(0 -4.54)"/><path class="cls-1" d="M238.07,44.51a.27.27,0,0,1,.3.3v.81a.27.27,0,0,1-.3.3h-.41c-.21,0-.29-.1-.29-.3v-.81c0-.2.08-.3.29-.3Zm-.65,9.7V47.39h.89v6.82Z" transform="translate(0 -4.54)"/><path class="cls-1" d="M246.09,49.3v4.91h-.7l-.11-1.2a4.51,4.51,0,0,1-3,1.31,1.74,1.74,0,0,1-1.95-1.84v-.79A1.58,1.58,0,0,1,242.13,50h3.06V49.3c0-.86-.32-1.32-1.45-1.32a29.13,29.13,0,0,0-3,.2l-.09-.67a22.73,22.73,0,0,1,3.29-.31C245.31,47.2,246.09,47.74,246.09,49.3Zm-.9,3.09V50.71l-2.92,0a.94.94,0,0,0-1,1.06v.59c0,.78.39,1.14,1.19,1.14A4.47,4.47,0,0,0,245.19,52.39Z" transform="translate(0 -4.54)"/><path class="cls-1" d="M165.75,80.46l.09.61a8.86,8.86,0,0,1-2.58.34c-2.28,0-3.17-1-3.17-3.61s.89-3.57,3.06-3.57c2,0,2.84.72,2.85,2.13,0,1.23-.45,1.9-1.57,1.9H161c.1,1.86.79,2.37,2.35,2.37A18.4,18.4,0,0,0,165.75,80.46ZM161,77.56h3.2c.71,0,.89-.51.88-1.18,0-1-.58-1.37-1.91-1.37C161.62,75,161.06,75.63,161,77.56Z" transform="translate(0 -4.54)"/><path class="cls-1" d="M173,74.44l-.08.65c-.85,0-1.75-.08-2.6-.08-1.35,0-1.86,0-1.86,1.08,0,.82.37,1,1.05,1.15l2.1.39a1.64,1.64,0,0,1,1.57,1.83c0,1.69-.94,1.93-2.83,1.93a17,17,0,0,1-2.61-.18l.07-.66a20.12,20.12,0,0,0,2.39.08c1.59,0,2.11-.17,2.11-1.17,0-.8-.45-1-1.11-1.11l-2.09-.4a1.64,1.64,0,0,1-1.52-1.86c0-1.63.83-1.87,2.62-1.86A25.8,25.8,0,0,1,173,74.44Z" transform="translate(0 -4.54)"/><path class="cls-1" d="M176.44,79.55c0,.69.32,1,1,1h1.11l.11.68a8.7,8.7,0,0,1-1.42.14,1.51,1.51,0,0,1-1.69-1.7V75.12h-1.24v-.63l1.24-.07V72.34h.89v2.08h2.31v.7h-2.31Z" transform="translate(0 -4.54)"/><path class="cls-1" d="M186.22,77.83c0,2.62-.83,3.58-3.13,3.58s-3.14-1-3.14-3.58.84-3.6,3.14-3.6S186.22,75.21,186.22,77.83Zm-5.33,0c0,2.15.55,2.82,2.2,2.82s2.2-.67,2.2-2.82-.55-2.82-2.2-2.82S180.89,75.67,180.89,77.83Z" transform="translate(0 -4.54)"/><path class="cls-1" d="M194.06,76.11v5.13h-.89V76.35c0-1-.35-1.34-1.18-1.34a5.35,5.35,0,0,0-2.85,1.18l0,5h-.91V74.42H189l.06,1.12a5.33,5.33,0,0,1,3.17-1.31A1.66,1.66,0,0,1,194.06,76.11Z" transform="translate(0 -4.54)"/><path class="cls-1" d="M197.09,71.54a.26.26,0,0,1,.3.29v.82a.27.27,0,0,1-.3.3h-.41c-.21,0-.29-.1-.29-.3v-.82c0-.19.08-.29.29-.29Zm-.64,9.7V74.42h.88v6.82Z" transform="translate(0 -4.54)"/><path class="cls-1" d="M205.12,76.33v4.91h-.71L204.3,80a4.54,4.54,0,0,1-3,1.31,1.75,1.75,0,0,1-1.95-1.85v-.78a1.58,1.58,0,0,1,1.79-1.67h3.06v-.72c0-.86-.32-1.32-1.45-1.32a29.13,29.13,0,0,0-3,.2l-.08-.67a22.58,22.58,0,0,1,3.28-.31C204.33,74.23,205.12,74.77,205.12,76.33Zm-.91,3.09V77.74l-2.91,0a.94.94,0,0,0-1,1.06v.59c0,.78.39,1.14,1.19,1.14A4.47,4.47,0,0,0,204.21,79.42Z" transform="translate(0 -4.54)"/><path class="cls-1" d="M208.78,79.55c0,.69.33,1,1,1h1.11l.11.68a8.8,8.8,0,0,1-1.42.14,1.51,1.51,0,0,1-1.69-1.7V75.12h-1.24v-.63l1.24-.07V72.34h.88v2.08h2.32v.7h-2.32Z" transform="translate(0 -4.54)"/><path class="cls-1" d="M218.25,81.24h-.71l-.07-1.07a4.9,4.9,0,0,1-3,1.24,1.66,1.66,0,0,1-1.85-1.86V74.42h.89v4.89c0,.94.37,1.32,1.25,1.32a4.83,4.83,0,0,0,2.63-1.11v-5.1h.89Z" transform="translate(0 -4.54)"/><path class="cls-1" d="M221.33,71.54a.26.26,0,0,1,.3.29v.82a.27.27,0,0,1-.3.3h-.41c-.21,0-.29-.1-.29-.3v-.82c0-.19.08-.29.29-.29Zm-.64,9.7V74.42h.88v6.82Z" transform="translate(0 -4.54)"/><path class="cls-1" d="M225.34,79.55c0,.69.32,1,1,1h1.11l.12.68a8.92,8.92,0,0,1-1.43.14,1.51,1.51,0,0,1-1.69-1.7V75.12h-1.24v-.63l1.24-.07V72.34h.89v2.08h2.31v.7h-2.31Z" transform="translate(0 -4.54)"/><path class="cls-1" d="M234.9,73.09c1.27,0,2,.51,2,1.87v4.43h-.66l-.1-1.08a4.79,4.79,0,0,1-3,1.18c-1.1,0-1.82-.55-1.82-1.61v-.73c0-.9.58-1.42,1.63-1.42h3.08V75c0-.74-.29-1.15-1.34-1.15H232.9c-2.54,0-2.89.18-2.89,3.65s.35,3.75,3.31,3.75h3.55v.68c-1.17,0-2.35.08-3.54.08-3.75,0-4.17-.48-4.17-4.5s.37-4.4,3.72-4.41Zm-1.64,3.24c-.72,0-1,.31-1,.92v.49c0,.71.39,1,1.11,1a4.55,4.55,0,0,0,2.75-1V76.28Z" transform="translate(0 -4.54)"/><path class="cls-1" d="M244.26,75a2.21,2.21,0,0,1,.4,1.41c0,1.47-.75,2.13-2.85,2.13a5.1,5.1,0,0,1-1.55-.18c-.41.52-.4,1.25.52,1.41l2.62.44c1.27.19,1.65.76,1.65,1.87,0,1.55-.82,2.06-3.17,2.06s-3.21-.51-3.21-2a1.75,1.75,0,0,1,1.15-1.81,1.3,1.3,0,0,1,0-2.14A1.79,1.79,0,0,1,239,76.4c0-1.49.74-2.17,2.86-2.17a5.08,5.08,0,0,1,1.54.19h2.11l-.06.5ZM243,80.87l-2.55-.39-.06,0a1.57,1.57,0,0,0-.83,1.52c0,1,.55,1.33,2.34,1.33s2.3-.3,2.3-1.33C244.18,81.27,244,81,243,80.87Zm.83-4.47c0-1-.51-1.46-2-1.46s-2,.43-2,1.46.53,1.44,2,1.44S243.81,77.4,243.81,76.4Z" transform="translate(0 -4.54)"/><path class="cls-1" d="M257,76.11v5.13h-.89V76.35c0-.93-.38-1.34-1.21-1.34s-1.4.38-2.5,1.2v5h-.86V76.35c0-1-.41-1.34-1.21-1.34a4.19,4.19,0,0,0-2.5,1.18v5H247V74.42h.74l.05,1.14a4.36,4.36,0,0,1,2.88-1.33,1.57,1.57,0,0,1,1.73,1.3,4.35,4.35,0,0,1,2.85-1.3A1.66,1.66,0,0,1,257,76.11Z" transform="translate(0 -4.54)"/><path class="cls-1" d="M264.72,76.33v4.91H264l-.11-1.2a4.56,4.56,0,0,1-3,1.31A1.74,1.74,0,0,1,259,79.5v-.78a1.58,1.58,0,0,1,1.79-1.67h3.06v-.72c0-.86-.32-1.32-1.45-1.32a29.13,29.13,0,0,0-3,.2l-.09-.67a22.59,22.59,0,0,1,3.29-.31C263.93,74.23,264.72,74.77,264.72,76.33Zm-.9,3.09V77.74l-2.92,0a.94.94,0,0,0-1,1.06v.59c0,.78.4,1.14,1.2,1.14A4.5,4.5,0,0,0,263.82,79.42Z" transform="translate(0 -4.54)"/><path class="cls-1" d="M267.74,71.54a.26.26,0,0,1,.3.29v.82a.27.27,0,0,1-.3.3h-.41c-.21,0-.29-.1-.29-.3v-.82c0-.19.08-.29.29-.29Zm-.65,9.7V74.42H268v6.82Z" transform="translate(0 -4.54)"/><path class="cls-1" d="M271.29,79.55a.89.89,0,0,0,1,1H273l.1.68a4.23,4.23,0,0,1-1.12.14,1.48,1.48,0,0,1-1.58-1.63V71.37h.88Z" transform="translate(0 -4.54)"/><path class="cls-1" d="M275,79.73c.26,0,.35.1.35.35v.81c0,.25-.09.35-.35.35h-.31c-.24,0-.34-.1-.34-.35v-.81c0-.25.1-.35.34-.35Z" transform="translate(0 -4.54)"/><path class="cls-1" d="M282.52,74.54l-.14.58a14.88,14.88,0,0,0-1.82-.11c-1.78,0-2.41.63-2.41,2.82s.63,2.8,2.41,2.8a13.14,13.14,0,0,0,2-.15l.1.62a8.12,8.12,0,0,1-2.23.31c-2.34,0-3.2-1-3.2-3.58s.86-3.6,3.2-3.6A6.73,6.73,0,0,1,282.52,74.54Z" transform="translate(0 -4.54)"/><path class="cls-1" d="M290.2,77.83c0,2.62-.83,3.58-3.13,3.58s-3.14-1-3.14-3.58.85-3.6,3.14-3.6S290.2,75.21,290.2,77.83Zm-5.32,0c0,2.15.54,2.82,2.19,2.82s2.2-.67,2.2-2.82-.55-2.82-2.2-2.82S284.88,75.67,284.88,77.83Z" transform="translate(0 -4.54)"/><path class="cls-1" d="M302.29,76.11v5.13h-.89V76.35c0-.93-.38-1.34-1.21-1.34s-1.4.38-2.5,1.2v5h-.86V76.35c0-1-.41-1.34-1.21-1.34a4.19,4.19,0,0,0-2.5,1.18v5h-.88V74.42H293l.06,1.14a4.32,4.32,0,0,1,2.87-1.33,1.58,1.58,0,0,1,1.74,1.3,4.31,4.31,0,0,1,2.84-1.3A1.66,1.66,0,0,1,302.29,76.11Z" transform="translate(0 -4.54)"/></g></g></svg>