<svg xmlns="http://www.w3.org/2000/svg" xmlns:xlink="http://www.w3.org/1999/xlink" viewBox="0 0 403.97 403.97"><defs><style>.cls-1,.cls-13,.cls-2,.cls-3,.cls-4{fill:none;}.cls-1,.cls-2{clip-rule:evenodd;}.cls-2{clip-path:url(#clip-path);}.cls-12,.cls-4{fill-rule:evenodd;}.cls-5{clip-path:url(#clip-path-2);}.cls-6{clip-path:url(#clip-path-3);}.cls-7{fill:#87dcff;}.cls-8{fill:#bee86e;}.cls-9{fill:#00c3ff;}.cls-10{fill:#afd755;}.cls-11{clip-path:url(#clip-path-4);}.cls-12{fill:#ff7c80;}.cls-13{stroke:#2f528f;stroke-miterlimit:8;stroke-width:6px;}.cls-14{font-size:62.18px;fill:#fff;font-family:Exo2-Black, "Exo 2";font-weight:800;}</style><clipPath id="clip-path"><polygon class="cls-1" points="0 404.31 404.19 404.31 404.19 0 0 0 0 404.31 0 404.31"/></clipPath><clipPath id="clip-path-2" transform="translate(-0.11 -0.23)"><polygon class="cls-2" points="3.11 3.23 401.08 3.23 401.08 401.21 3.11 401.21 3.11 3.23 3.11 3.23"/></clipPath><clipPath id="clip-path-3" transform="translate(-0.11 -0.23)"><polygon class="cls-3" points="3.11 401.21 401.08 401.21 401.08 3.23 3.11 3.23 3.11 401.21 3.11 401.21"/></clipPath><clipPath id="clip-path-4" transform="translate(-0.11 -0.23)"><polygon class="cls-1" points="0 404.31 404.19 404.31 404.19 0 0 0 0 404.31 0 404.31"/></clipPath></defs><g id="Слой_2" data-name="Слой 2"><g id="Слой_1-2" data-name="Слой 1"><g class="cls-5"><g class="cls-6"><path class="cls-7" d="M401,202.55c0,109.65-88.88,198.54-198.53,198.54S3.88,312.2,3.88,202.55,92.77,4,202.42,4,401,92.9,401,202.55Z" transform="translate(-0.11 -0.23)"/><path class="cls-8" d="M225.54,5.39l-8.2,25.54a19.21,19.21,0,0,1-13.21,12.66l-20.56,5.63a19,19,0,0,1-5.08.69H147.72a6.41,6.41,0,0,0-6.35,5.56l-3.53,26.46-19.65,1a6.4,6.4,0,0,0-6.06,6.14l-.68,17.08a6.4,6.4,0,0,0,6.93,6.64l13.09-1.09a11.54,11.54,0,0,0,8.41-4.77L152,90.07l25.89-.92a7.72,7.72,0,0,1,7.44,10.54c-4.51,11.59-4.51,12.58-4.51,13.6a6.4,6.4,0,0,0,12.71,1.09c.44-1.48,2.39-6.6,4.95-13.09a3.61,3.61,0,0,1,6.37-.68l1.65,2.5a12.81,12.81,0,0,0,14.11,5.29L232,105.22A10.37,10.37,0,0,0,239,98.89l2.19-5.82a12.81,12.81,0,0,1,9.4-8L258,83.52c5-1,10.36,2,11.23,7.06A8.94,8.94,0,0,1,261.4,101l-17.82.47a6.8,6.8,0,0,0-6.62,6.65l0,1.7a3.55,3.55,0,0,0,1.94,3.26l10.25,5.23a7.29,7.29,0,0,1,2.71,10.58h0a7.29,7.29,0,0,1-6,3.18H191.75a11.47,11.47,0,0,1-4.13-.78l-45.35-17.87a9.41,9.41,0,0,0-9.83,1.84L89.49,155a12.81,12.81,0,0,0-3.74,12.47l8.73,35.48a12.82,12.82,0,0,0,11.75,9.73l48.39,2.6a19.21,19.21,0,0,1,18.1,17.42l3.67,39.86a25,25,0,0,0,2.36,8.55c4.08,8.51,13.58,27.85,18.87,34.53,6.8,8.61,23.57,8.95,29.22,3.81l39.34-32.2a19.23,19.23,0,0,0,6.08-11.44l4.61-31.62,31.24-34.43a6.39,6.39,0,0,0-2.19-10.16l-.56.37a16.94,16.94,0,0,1-7.93,2.8c-.5.05-1,.07-1.5.07a16.82,16.82,0,0,1-14.29-7.9l-23.85-37.88a6.41,6.41,0,1,1,10.84-6.83l23.86,37.88a4.07,4.07,0,0,0,3.82,1.91,4.16,4.16,0,0,0,1.92-.69l32.25-17.67a6.17,6.17,0,0,0,1.86-9.26h0a6.18,6.18,0,0,0-5.54-2.29l-6.77.78a6.42,6.42,0,0,1-5-1.59l-20.28-18.14a6.41,6.41,0,1,1,8.55-9.55l18.14,16.23,11-1.27a6.37,6.37,0,0,1,5.9,2.58l2.12,2.9,10.74-1.29A12.81,12.81,0,0,1,364,157.38l21.69,40.1a12.86,12.86,0,0,0,7.37,6.11l7.8,2.74c0-1.26.09-2.51.09-3.78,0-101.83-76.66-185.7-175.41-197.16ZM308.47,115a6.39,6.39,0,0,1-8.88-1.72L286.24,93.52a6.4,6.4,0,0,1,10.61-7.16l13.34,19.74a6.38,6.38,0,0,1-1.72,8.89Z" transform="translate(-0.11 -0.23)"/><path class="cls-9" d="M267.53,336C157.88,336,69,247.09,69,137.44a197.53,197.53,0,0,1,29.42-104A198.38,198.38,0,0,0,3.88,202.55c0,109.65,88.89,198.54,198.54,198.54a198.38,198.38,0,0,0,169.11-94.53,197.59,197.59,0,0,1-104,29.42Z" transform="translate(-0.11 -0.23)"/><path class="cls-8" d="M288.87,307.43A6.4,6.4,0,0,1,284,296.9l16.81-20a6.4,6.4,0,0,1,9.8,8.24l-16.81,20a6.38,6.38,0,0,1-4.91,2.29Z" transform="translate(-0.11 -0.23)"/><path class="cls-8" d="M147.8,11.68l-5.7,17a6.42,6.42,0,0,0,4,8.11,6.27,6.27,0,0,0,2,.33,6.42,6.42,0,0,0,6.07-4.36L162.55,8c-5,1-9.9,2.28-14.75,3.66Z" transform="translate(-0.11 -0.23)"/><path class="cls-10" d="M37.13,312.53l5.55-50.34a12.82,12.82,0,0,0-3.84-10.64l-34.18-32a197.48,197.48,0,0,0,32.47,92.95Z" transform="translate(-0.11 -0.23)"/><path class="cls-8" d="M202.42,4a198.85,198.85,0,0,0-21.25,1.15l-.67,15a9.61,9.61,0,0,0,6.07,12.16,9.76,9.76,0,0,0,3,.49,9.61,9.61,0,0,0,9.11-6.57L206.11,4.1c-1.23,0-2.45-.09-3.69-.09Z" transform="translate(-0.11 -0.23)"/></g></g><g class="cls-11"><path class="cls-12" d="M198.68,3.26C308.56,1.38,399.17,88.92,401.05,198.8a198.93,198.93,0,0,1-31.9,111.53l-167-108.11-3.42-199Z" transform="translate(-0.11 -0.23)"/><path class="cls-13" d="M198.68,3.26C308.56,1.38,399.17,88.92,401.05,198.8a198.93,198.93,0,0,1-31.9,111.53l-167-108.11-3.42-199Z" transform="translate(-0.11 -0.23)"/><g class="cls-11"><path class="cls-13" d="M3.11,202.22c0-109.9,89.09-199,199-199s199,89.09,199,199-89.09,199-199,199-199-89.09-199-199Z" transform="translate(-0.11 -0.23)"/><g class="cls-11"><text class="cls-14" transform="translate(228.6 166.31)">30%</text></g></g></g></g></g></svg>