<svg xmlns="http://www.w3.org/2000/svg" xmlns:xlink="http://www.w3.org/1999/xlink" viewBox="0 0 250.63 231.81"><defs><style>.cls-1,.cls-2,.cls-5{fill:none;}.cls-1{clip-rule:evenodd;}.cls-10,.cls-11,.cls-2,.cls-3,.cls-4,.cls-7,.cls-8,.cls-9{fill-rule:evenodd;}.cls-3{fill:#fff;}.cls-4{fill:#e9bd9a;}.cls-5{stroke:#1d1e1c;stroke-miterlimit:8;stroke-width:3px;}.cls-6{clip-path:url(#clip-path);}.cls-7{fill:#f3a28d;}.cls-8{fill:#159f84;opacity:0.57;}.cls-9{fill:#bc8380;}.cls-11{fill:#efa289;}.cls-12{clip-path:url(#clip-path-10);}</style><clipPath id="clip-path" transform="translate(-13.14)"><polygon class="cls-1" points="117.37 4.62 117.37 119.99 235.42 119.99 235.42 4.62 117.37 4.62 117.37 4.62"/></clipPath><clipPath id="clip-path-10" transform="translate(-13.14)"><polygon class="cls-1" points="84.35 259.44 150.31 177 65.96 109.51 0 191.96 84.35 259.44 84.35 259.44"/></clipPath></defs><g id="Слой_2" data-name="Слой 2"><g id="Слой_1-2" data-name="Слой 1"><path class="cls-3" d="M203,7.26a30.38,30.38,0,0,1,29.72,27.55,29.26,29.26,0,0,1-7,21.56,30.66,30.66,0,0,1-21.19,10.71c-11.09.86-19.65,10.72-24.11,27.77a30.38,30.38,0,0,1-30.6,22.51,31,31,0,0,1-6.64-.9,30.54,30.54,0,0,1-19.08-14A29.18,29.18,0,0,1,120.91,80c16.47-63,64.42-71.53,78.73-72.63,1.11-.08,2.22-.11,3.33-.08Z" transform="translate(-13.14)"/><path class="cls-4" d="M203,7.26a30.38,30.38,0,0,1,29.72,27.55,29.26,29.26,0,0,1-7,21.56,30.66,30.66,0,0,1-21.19,10.71c-11.09.86-19.65,10.72-24.11,27.77a30.38,30.38,0,0,1-30.6,22.51,31,31,0,0,1-6.64-.9,30.54,30.54,0,0,1-19.08-14A29.18,29.18,0,0,1,120.91,80c16.47-63,64.42-71.53,78.73-72.63,1.11-.08,2.22-.11,3.33-.08Z" transform="translate(-13.14)"/><path class="cls-5" d="M203,7.26a30.38,30.38,0,0,1,29.72,27.55,29.26,29.26,0,0,1-7,21.56,30.66,30.66,0,0,1-21.19,10.71c-11.09.86-19.65,10.72-24.11,27.77a30.38,30.38,0,0,1-30.6,22.51,31,31,0,0,1-6.64-.9,30.54,30.54,0,0,1-19.08-14A29.18,29.18,0,0,1,120.91,80c16.47-63,64.42-71.53,78.73-72.63,1.11-.08,2.22-.11,3.33-.08Z" transform="translate(-13.14)"/><g class="cls-6"><path class="cls-7" d="M201.9,18.24a20.18,20.18,0,0,1,19.82,18.18,19.18,19.18,0,0,1-4.57,14.1A20.5,20.5,0,0,1,203,57.65c-8.7.67-24.39,6-31.68,33.86a20.44,20.44,0,0,1-20.39,14.88,21.28,21.28,0,0,1-4.49-.61,20.31,20.31,0,0,1-12.72-9.33,19,19,0,0,1-2.1-14.66c14.42-55.18,55.73-62.55,68-63.5a18.9,18.9,0,0,1,2.26-.05Z" transform="translate(-13.14)"/><g class="cls-6"><path class="cls-8" d="M148,76.49a7.45,7.45,0,1,1,7.24,7.66A7.45,7.45,0,0,1,148,76.49Z" transform="translate(-13.14)"/><g class="cls-6"><path class="cls-9" d="M197.54,38.76A5.59,5.59,0,1,1,203,44.51a5.59,5.59,0,0,1-5.43-5.75Z" transform="translate(-13.14)"/><g class="cls-6"><path class="cls-8" d="M156.1,54.36a5.59,5.59,0,1,1,5.43,5.74,5.6,5.6,0,0,1-5.43-5.74Z" transform="translate(-13.14)"/><g class="cls-6"><path class="cls-8" d="M182.33,49.52a1.89,1.89,0,0,1,.7.17,2.11,2.11,0,0,1,.61.41,1.9,1.9,0,0,1,.37.63,1.87,1.87,0,0,1,.13.71,1.93,1.93,0,0,1-.58,1.3,2.2,2.2,0,0,1-.62.38,1.91,1.91,0,0,1-2-.45,1.94,1.94,0,0,1-.5-1.34,1.88,1.88,0,0,1,.16-.7A1.94,1.94,0,0,1,181,50a2,2,0,0,1,1.34-.51Z" transform="translate(-13.14)"/><g class="cls-6"><path class="cls-8" d="M186.53,32.86a1.89,1.89,0,0,1,.7.17,2.11,2.11,0,0,1,.61.41,1.86,1.86,0,0,1,.37.62,2,2,0,0,1,.13.72,1.93,1.93,0,0,1-.58,1.3,2.2,2.2,0,0,1-.62.38,1.91,1.91,0,0,1-2-.45,2,2,0,0,1-.51-1.34,2.07,2.07,0,0,1,.58-1.31,2,2,0,0,1,1.34-.5Z" transform="translate(-13.14)"/><g class="cls-6"><path class="cls-8" d="M175.2,38.13a1.89,1.89,0,0,1,.7.17,2.25,2.25,0,0,1,.61.41,1.86,1.86,0,0,1,.37.62,1.84,1.84,0,0,1-.45,2,2.2,2.2,0,0,1-.62.38,1.91,1.91,0,0,1-2-.45,2,2,0,0,1-.51-1.34,1.89,1.89,0,0,1,.17-.7,2.11,2.11,0,0,1,.41-.61,2,2,0,0,1,1.34-.5Z" transform="translate(-13.14)"/><g class="cls-6"><path class="cls-8" d="M155,93.46a1.9,1.9,0,0,1,.71.17,2.21,2.21,0,0,1,.6.41,1.9,1.9,0,0,1,.37.63,1.72,1.72,0,0,1,.13.71,1.92,1.92,0,0,1-.57,1.3,2.25,2.25,0,0,1-.63.38,1.92,1.92,0,0,1-2-.45,1.94,1.94,0,0,1-.5-1.34,1.89,1.89,0,0,1,.17-.7,1.65,1.65,0,0,1,.41-.6,2,2,0,0,1,1.33-.51Z" transform="translate(-13.14)"/><g class="cls-6"><path class="cls-8" d="M142.17,85.65a1.88,1.88,0,0,1,.7.16,2.33,2.33,0,0,1,.61.41,2,2,0,0,1,.37.63,1.94,1.94,0,0,1,.13.71,2,2,0,0,1-.58,1.31,2.17,2.17,0,0,1-.62.37,1.89,1.89,0,0,1-2-.45,1.92,1.92,0,0,1-.5-1.34,1.88,1.88,0,0,1,.16-.7,2.06,2.06,0,0,1,.41-.6,2,2,0,0,1,1.34-.5Z" transform="translate(-13.14)"/></g></g></g></g></g></g></g></g></g><path class="cls-9" d="M184.55,34.72a2,2,0,1,1,3.9.11,2,2,0,0,1-3.9-.11Z" transform="translate(-13.14)"/><path class="cls-9" d="M173.24,40a2,2,0,1,1,1.89,2,1.95,1.95,0,0,1-1.89-2Z" transform="translate(-13.14)"/><path class="cls-9" d="M180.34,51.3a2,2,0,1,1,1.89,2,2,2,0,0,1-1.89-2Z" transform="translate(-13.14)"/><path class="cls-9" d="M153,95.28a2,2,0,1,1,1.89,2,2,2,0,0,1-1.89-2Z" transform="translate(-13.14)"/><path class="cls-9" d="M148,76.34a7.58,7.58,0,1,1,7.36,7.79A7.57,7.57,0,0,1,148,76.34Z" transform="translate(-13.14)"/><path class="cls-9" d="M156,54.25a5.72,5.72,0,1,1,5.56,5.88A5.73,5.73,0,0,1,156,54.25Z" transform="translate(-13.14)"/><path class="cls-9" d="M140.14,87.47a2,2,0,0,1,3.9.11,2,2,0,0,1-2,1.9,1.94,1.94,0,0,1-1.89-2Z" transform="translate(-13.14)"/><path class="cls-10" d="M263.62,200.63c.75,3.4-1.37,7.31-2.95,10.65s-4.22,6.23-6.52,9.4-5.51,7.74-7.29,9.58-2.33,1.57-3.39,1.48-.48-.21-2.94-2.06-9.62-6.85-11.8-9-1.78-2.42-1.32-4.08,5.35-5.72,4.12-5.89-7.71,5.07-11.52,4.91-7.94-3-11.36-5.88-8.22-7.48-9.17-11.62,2.58-10.86,3.47-13.22c-3.51,1.64-8,4.68-11.66,4.29s-7.15-4-10.4-6.6a58.55,58.55,0,0,1-9.11-8.71,9.44,9.44,0,0,1-2.23-6.26c0-1.88.76-3.16,2-5.91s4.93-7.4,7-10.46c3.2-3.32,5.89-9.13,8.29-10.81s2.36-.76,4.54.33,6.27,4.48,8.51,6.25a36.65,36.65,0,0,1,5.15,4.45c1,1.2,1.14,1.43.68,2.77s-3.9,4.85-3.46,5.23,4.12-2.27,6.13-2.95a14.56,14.56,0,0,1,5.92-1.11,14.18,14.18,0,0,1,6.24,2.24,51.79,51.79,0,0,1,6.79,5.84c2,1.86,4.07,3.12,5,5.3s.9,5.38.75,7.8-1.68,5.73-1.62,6.75.58-.17,2-.64,4-2.2,6.32-2.18a13.37,13.37,0,0,1,7.39,2.28,52.43,52.43,0,0,1,9,8.09c2.73,3,6.67,6.36,7.41,9.77Z" transform="translate(-13.14)"/><path class="cls-11" d="M190,146.3c-4.51,5-8.54,11.38-10,13.17s-3.23,7.19-2.35,11.16c3-.12,9-1.72,10.66-3.07,3.59-2.8,7.17-8.63,10.85-13.71-4.58-4.21,0,0-9.16-7.55Z" transform="translate(-13.14)"/><path class="cls-11" d="M243.72,224A103.16,103.16,0,0,0,254,210.76c2.71-4.19,3.65-7.46,2-11.89-3,.13-8.2,2.34-10.63,3.88-3,3.8-6.9,9.06-10.58,14.13,4.57,4.21,0,.34,8.89,7.13Z" transform="translate(-13.14)"/><path class="cls-11" d="M183,175.7c-.49-1.16-.58,1.42,3.89-.78s18-10.22,22.89-12.39,4.24-1.46,6.54-.61,5.59,4.7,7.25,5.74.07-.94-4,1.12-16,9-20.24,11.26-3.89,2-5.47,2.3-2.3.51-4-.49-6.37-5-6.87-6.15Z" transform="translate(-13.14)"/><path class="cls-11" d="M209.89,201.87c-.32-1.09-.5,1.43,3.88-.78s17.43-10.22,22.4-12.43,5-1.79,7.46-.83,6.65,5.39,7.13,6.58-.2-1.5-4.27.55-15.85,9.43-20.12,11.72-4,1.69-5.55,2a6.75,6.75,0,0,1-5.14-1c-1.32-1.1-5.47-4.68-5.79-5.77Z" transform="translate(-13.14)"/><path class="cls-11" d="M227,172.37c-1.82-.48-9.27,4.09-12.26,6.55s-4.26,5.16-5.66,8.22-4.41,9.48-2.76,10.11,9.38-3.84,12.64-6.32a22.91,22.91,0,0,0,6.75-9.13c1.34-3.09,3.12-9,1.29-9.43Z" transform="translate(-13.14)"/><path class="cls-3" d="M24.7,208.62a27.82,27.82,0,0,1-5.49-36.68,26.84,26.84,0,0,1,17.3-11.43A28.13,28.13,0,0,1,57.78,165c8.41,5.73,20.17,3.58,33.1-6.06a27.8,27.8,0,0,1,34.73,1.41,28.79,28.79,0,0,1,4.24,4.45,27.88,27.88,0,0,1,5.6,20.93,26.67,26.67,0,0,1-10.55,17.88C77.09,239.21,38,217.86,27.13,210.46a28.7,28.7,0,0,1-2.43-1.84Z" transform="translate(-13.14)"/><path class="cls-4" d="M24.7,208.62a27.82,27.82,0,0,1-5.49-36.68,26.84,26.84,0,0,1,17.3-11.43A28.13,28.13,0,0,1,57.78,165c8.41,5.73,20.17,3.58,33.1-6.06a27.8,27.8,0,0,1,34.73,1.41,28.79,28.79,0,0,1,4.24,4.45,27.88,27.88,0,0,1,5.6,20.93,26.67,26.67,0,0,1-10.55,17.88C77.09,239.21,38,217.86,27.13,210.46a28.7,28.7,0,0,1-2.43-1.84Z" transform="translate(-13.14)"/><path class="cls-5" d="M24.7,208.62a27.82,27.82,0,0,1-5.49-36.68,26.84,26.84,0,0,1,17.3-11.43A28.13,28.13,0,0,1,57.78,165c8.41,5.73,20.17,3.58,33.1-6.06a27.8,27.8,0,0,1,34.73,1.41,28.79,28.79,0,0,1,4.24,4.45,27.88,27.88,0,0,1,5.6,20.93,26.67,26.67,0,0,1-10.55,17.88C77.09,239.21,38,217.86,27.13,210.46a28.7,28.7,0,0,1-2.43-1.84Z" transform="translate(-13.14)"/><g class="cls-12"><path class="cls-7" d="M31.74,201.39A18.44,18.44,0,0,1,28,177.07,17.48,17.48,0,0,1,39.3,169.6a18.75,18.75,0,0,1,14.21,3c6.6,4.49,20.84,9.69,42-6.09a18.72,18.72,0,0,1,23.08,1,19.28,19.28,0,0,1,2.85,3,18.58,18.58,0,0,1,3.76,13.94,17.41,17.41,0,0,1-6.88,11.68C76.46,227.35,42.73,209,33.39,202.64c-.57-.39-1.12-.81-1.65-1.25Z" transform="translate(-13.14)"/><g class="cls-12"><path class="cls-8" d="M103.54,190.56a6.82,6.82,0,1,1-.79-9.61,6.81,6.81,0,0,1,.79,9.61Z" transform="translate(-13.14)"/><g class="cls-12"><path class="cls-9" d="M46.59,189.21A5.12,5.12,0,1,1,46,182a5.12,5.12,0,0,1,.6,7.21Z" transform="translate(-13.14)"/><g class="cls-12"><path class="cls-8" d="M85.12,201.75a5.12,5.12,0,1,1-.6-7.2,5.12,5.12,0,0,1,.6,7.2Z" transform="translate(-13.14)"/><g class="cls-12"><path class="cls-8" d="M63.61,190.22a1.76,1.76,0,0,1-.41-.53,1.92,1.92,0,0,1-.19-.63,1.47,1.47,0,0,1,.09-.66,1.55,1.55,0,0,1,.31-.58,1.77,1.77,0,0,1,1.16-.61,1.85,1.85,0,0,1,.66.09,1.75,1.75,0,0,1,1.19,1.48A1.81,1.81,0,0,1,66,190a1.6,1.6,0,0,1-.52.41,1.82,1.82,0,0,1-.64.19,1.8,1.8,0,0,1-1.24-.4Z" transform="translate(-13.14)"/><g class="cls-12"><path class="cls-8" d="M51.08,199.72a1.58,1.58,0,0,1-.4-.52,2,2,0,0,1-.2-.64,1.88,1.88,0,0,1,.09-.66,1.65,1.65,0,0,1,.32-.58,1.74,1.74,0,0,1,1.15-.6,1.82,1.82,0,0,1,.66.09,1.72,1.72,0,0,1,1.19,1.47,1.78,1.78,0,0,1-.4,1.24,1.76,1.76,0,0,1-.53.41,1.78,1.78,0,0,1-.63.2,1.83,1.83,0,0,1-1.25-.41Z" transform="translate(-13.14)"/><g class="cls-12"><path class="cls-8" d="M62.19,202.44a1.73,1.73,0,0,1-.4-.53,1.78,1.78,0,0,1-.2-.63,1.9,1.9,0,0,1,.09-.67A1.63,1.63,0,0,1,62,200a1.64,1.64,0,0,1,1.82-.51A1.72,1.72,0,0,1,65,201a1.78,1.78,0,0,1-.41,1.25,1.58,1.58,0,0,1-.52.4,1.6,1.6,0,0,1-.64.2,1.8,1.8,0,0,1-1.24-.4Z" transform="translate(-13.14)"/><g class="cls-12"><path class="cls-8" d="M108.26,174.45a1.73,1.73,0,0,1-.4-.53,1.78,1.78,0,0,1-.2-.63,1.82,1.82,0,0,1,.09-.66,1.67,1.67,0,0,1,.31-.59,1.64,1.64,0,0,1,1.82-.51,1.74,1.74,0,0,1,1.19,1.48,1.76,1.76,0,0,1-.41,1.24,1.45,1.45,0,0,1-.52.4,1.6,1.6,0,0,1-.64.2,1.8,1.8,0,0,1-1.24-.4Z" transform="translate(-13.14)"/><g class="cls-12"><path class="cls-8" d="M113,187.36a1.6,1.6,0,0,1-.41-.52,2,2,0,0,1-.2-.64,1.88,1.88,0,0,1,.09-.66,1.83,1.83,0,0,1,.32-.58,1.78,1.78,0,0,1,1.16-.6,1.88,1.88,0,0,1,.66.09,1.73,1.73,0,0,1,1.18,1.47,1.82,1.82,0,0,1-.4,1.25,2,2,0,0,1-.52.4,1.84,1.84,0,0,1-.64.2,1.79,1.79,0,0,1-1.24-.41Z" transform="translate(-13.14)"/></g></g></g></g></g></g></g></g></g><path class="cls-9" d="M53.56,199.52a1.78,1.78,0,1,1-.21-2.51,1.78,1.78,0,0,1,.21,2.51Z" transform="translate(-13.14)"/><path class="cls-9" d="M64.67,202.21a1.78,1.78,0,1,1-.2-2.52,1.79,1.79,0,0,1,.2,2.52Z" transform="translate(-13.14)"/><path class="cls-9" d="M66,190.09a1.78,1.78,0,1,1-.2-2.52,1.79,1.79,0,0,1,.2,2.52Z" transform="translate(-13.14)"/><path class="cls-9" d="M110.72,174.29a1.78,1.78,0,1,1-.2-2.51,1.78,1.78,0,0,1,.2,2.51Z" transform="translate(-13.14)"/><path class="cls-9" d="M103.49,190.69a6.94,6.94,0,1,1-.81-9.77,6.94,6.94,0,0,1,.81,9.77Z" transform="translate(-13.14)"/><path class="cls-9" d="M85.16,201.92a5.24,5.24,0,1,1-.61-7.38,5.23,5.23,0,0,1,.61,7.38Z" transform="translate(-13.14)"/><path class="cls-9" d="M115.45,187.22a1.78,1.78,0,1,1-2.72-2.31,1.78,1.78,0,0,1,2.72,2.31Z" transform="translate(-13.14)"/><path class="cls-10" d="M59.34,1.09C62.51-.73,67.08.16,70.92.68s7.55,2.24,11.44,3.54,9.47,3.06,11.87,4.25,2.31,1.84,2.54,2.92,0,.55-1.12,3.59-3.8,11.76-5.29,14.63-1.86,2.55-3.66,2.6S79.3,28.68,79.52,30s7.5,6.09,8.54,10-.45,8.86-2.28,13.2S80.9,63.69,77.06,65.94s-11.66.86-14.3.71c2.75,3,7.2,6.5,8,10.29s-1.79,8.42-3.31,12.47a62,62,0,0,1-5.81,11.85,9.93,9.93,0,0,1-5.55,4.2c-1.88.59-3.39.24-6.55-.18s-8.95-2.59-12.66-3.7c-4.33-2.15-11-3-13.41-4.87s-1.51-2.12-1.11-4.64,2.5-7.67,3.55-10.47a38.17,38.17,0,0,1,2.82-6.55c.9-1.35,1.08-1.59,2.55-1.55s6.08,2.36,6.32,1.8S34,71.9,32.69,70.11a15.13,15.13,0,0,1-3-5.56A15,15,0,0,1,30,57.61c.66-2.59,2.47-6.07,3.7-8.63s1.82-5,3.7-6.69,5.08-2.59,7.55-3.21,6.25-.14,7.25-.51-.35-.53-1.26-1.76-3.46-3.33-4.17-5.62a14.14,14.14,0,0,1-.06-8.1,55.48,55.48,0,0,1,5.25-11.51C54,7.92,56.18,2.91,59.34,1.09Z" transform="translate(-13.14)"/><path class="cls-11" d="M28.33,91.73c6.45,2.92,14.06,4.93,16.31,5.83s8.2,1,11.89-1.18c-1.07-2.94-4.56-8.45-6.44-9.67C46.17,84,39.21,82.28,33,80.2c-2.76,5.9,0,0-4.65,11.53Z" transform="translate(-13.14)"/><path class="cls-11" d="M89,13.58A108.61,108.61,0,0,0,72.49,7.47c-5-1.38-8.59-1.29-12.5,1.75,1.06,2.94,4.92,7.45,7.23,9.39,4.74,1.81,11.22,4,17.45,6.1,2.76-5.9.32-.16,4.31-11.13Z" transform="translate(-13.14)"/><path class="cls-11" d="M59.91,89.49c-1,.86,1.6.13-2-3.63S42,71.12,38.31,66.9s-2.8-3.76-2.67-6.33,2.93-7.07,3.44-9-1,.22,2.37,3.6,14,13.09,17.63,16.66,3.23,3.24,4,4.73,1.22,2.13.78,4.18-3,7.94-4,8.8Z" transform="translate(-13.14)"/><path class="cls-11" d="M77.55,54.36c-1,.66,1.58,0-2-3.64S59.84,36.55,56.06,32.28s-3.37-4.45-3.18-7.18,3.28-8.35,4.32-9.2-1.43.67,1.89,4.09,14.43,12.85,18.06,16.4,2.94,3.42,3.74,4.9a7.07,7.07,0,0,1,.59,5.46c-.67,1.67-2.94,6.94-3.93,7.61Z" transform="translate(-13.14)"/><path class="cls-11" d="M42.7,46.61c.1,2,7,8,10.41,10.17s6.5,2.63,10,3.07,10.86,1.4,11-.44-6.81-8.16-10.3-10.63a23.9,23.9,0,0,0-11.25-3.85c-3.51-.36-9.93-.29-9.83,1.68Z" transform="translate(-13.14)"/></g></g></svg>