<svg xmlns="http://www.w3.org/2000/svg" viewBox="0 0 1164.63 461.6"><defs><style>.cls-1{fill:#fff;opacity:0.57;}.cls-2{fill:none;stroke:#696b7b;stroke-miterlimit:8;stroke-width:4px;}.cls-3{fill:#696b7b;}</style></defs><g id="Слой_2" data-name="Слой 2"><g id="Слой_1-2" data-name="Слой 1"><path class="cls-1" d="M34,9.53c14.41-7.2,33.5-10.74,46,1.74a31.92,31.92,0,0,0,45.15.05,31.93,31.93,0,0,1,45.15.06,31.93,31.93,0,0,0,45.15,0,31.92,31.92,0,0,1,45.14.05,31.92,31.92,0,0,0,45.15.06,31.93,31.93,0,0,1,45.15.05,31.93,31.93,0,0,0,45.15.06,31.92,31.92,0,0,1,45.15,0,31.92,31.92,0,0,0,45.15.05,31.92,31.92,0,0,1,45.15.06,31.93,31.93,0,0,0,45.15,0,31.93,31.93,0,0,1,45.15.05,31.92,31.92,0,0,0,45.15.06A31.92,31.92,0,0,1,712,12a31.92,31.92,0,0,0,45.15.05,31.93,31.93,0,0,1,45.15.06,31.92,31.92,0,0,0,45.15,0,31.92,31.92,0,0,1,45.15.06,31.93,31.93,0,0,0,45.15,0,31.93,31.93,0,0,1,45.15.05,31.92,31.92,0,0,0,45.15.06,31.92,31.92,0,0,1,45.15,0c10.48,12.29,20.34,22.87,36.22,9.48,13.48-11.36,26.44-10.54,38.74,2.09,1.53,1.57,4.53,4.74,6,6.33,12.06,12.86,10.91,33.5-2,45.48a31.92,31.92,0,0,0-1.75,45.11,31.93,31.93,0,0,1-1.74,45.12,31.92,31.92,0,0,0-1.75,45.11c12,12.94,11,32.9-1.74,45.12s-32.7,12.43-45.15-.05a31.92,31.92,0,0,0-45.15-.06,31.92,31.92,0,0,1-45.15-.05,31.93,31.93,0,0,0-45.15-.06,31.92,31.92,0,0,1-45.15-.05,31.92,31.92,0,0,0-45.15,0,31.92,31.92,0,0,1-45.15-.06,31.93,31.93,0,0,0-45.15,0,31.93,31.93,0,0,1-45.15-.05,31.92,31.92,0,0,0-45.15-.06,31.92,31.92,0,0,1-45.15-.05,31.92,31.92,0,0,0-45.15,0,31.93,31.93,0,0,1-45.15-.06,31.93,31.93,0,0,0-45.15-.05,31.92,31.92,0,0,1-45.15-.06,31.93,31.93,0,0,0-45.15,0,31.93,31.93,0,0,1-45.15-.05,31.93,31.93,0,0,0-45.15-.06,31.92,31.92,0,0,1-45.15,0,31.92,31.92,0,0,0-45.15-.05,31.92,31.92,0,0,1-45.15-.06,31.93,31.93,0,0,0-45.15,0,31.93,31.93,0,0,1-45.15-.05A31.92,31.92,0,0,0,61.62,255c-12.48,12.46-31.74,11.4-45.15-.05A58.56,58.56,0,0,1,9.75,247c-10.4-14.25-10.92-33.5,2-45.48a31.92,31.92,0,0,0,1.75-45.11,31.93,31.93,0,0,1,1.74-45.12A31.93,31.93,0,0,0,17,66.2C5,53.26,6.33,33.6,18.76,21.09,22.88,16.94,29.05,12,34,9.53Z"/><path class="cls-2" d="M34,9.53c14.41-7.2,33.5-10.74,46,1.74a31.92,31.92,0,0,0,45.15.05,31.93,31.93,0,0,1,45.15.06,31.93,31.93,0,0,0,45.15,0,31.92,31.92,0,0,1,45.14.05,31.92,31.92,0,0,0,45.15.06,31.93,31.93,0,0,1,45.15.05,31.93,31.93,0,0,0,45.15.06,31.92,31.92,0,0,1,45.15,0,31.92,31.92,0,0,0,45.15.05,31.92,31.92,0,0,1,45.15.06,31.93,31.93,0,0,0,45.15,0,31.93,31.93,0,0,1,45.15.05,31.92,31.92,0,0,0,45.15.06A31.92,31.92,0,0,1,712,12a31.92,31.92,0,0,0,45.15.05,31.93,31.93,0,0,1,45.15.06,31.92,31.92,0,0,0,45.15,0,31.92,31.92,0,0,1,45.15.06,31.93,31.93,0,0,0,45.15,0,31.93,31.93,0,0,1,45.15.05,31.92,31.92,0,0,0,45.15.06,31.92,31.92,0,0,1,45.15,0c10.48,12.29,20.34,22.87,36.22,9.48,13.48-11.36,26.44-10.54,38.74,2.09,1.53,1.57,4.53,4.74,6,6.33,12.06,12.86,10.91,33.5-2,45.48a31.92,31.92,0,0,0-1.75,45.11,31.93,31.93,0,0,1-1.74,45.12,31.92,31.92,0,0,0-1.75,45.11c12,12.94,11,32.9-1.74,45.12s-32.7,12.43-45.15-.05a31.92,31.92,0,0,0-45.15-.06,31.92,31.92,0,0,1-45.15-.05,31.93,31.93,0,0,0-45.15-.06,31.92,31.92,0,0,1-45.15-.05,31.92,31.92,0,0,0-45.15,0,31.92,31.92,0,0,1-45.15-.06,31.93,31.93,0,0,0-45.15,0,31.93,31.93,0,0,1-45.15-.05,31.92,31.92,0,0,0-45.15-.06,31.92,31.92,0,0,1-45.15-.05,31.92,31.92,0,0,0-45.15,0,31.93,31.93,0,0,1-45.15-.06,31.93,31.93,0,0,0-45.15-.05,31.92,31.92,0,0,1-45.15-.06,31.93,31.93,0,0,0-45.15,0,31.93,31.93,0,0,1-45.15-.05,31.93,31.93,0,0,0-45.15-.06,31.92,31.92,0,0,1-45.15,0,31.92,31.92,0,0,0-45.15-.05,31.92,31.92,0,0,1-45.15-.06,31.93,31.93,0,0,0-45.15,0,31.93,31.93,0,0,1-45.15-.05A31.92,31.92,0,0,0,61.62,255c-12.48,12.46-31.74,11.4-45.15-.05A58.56,58.56,0,0,1,9.75,247c-10.4-14.25-10.92-33.5,2-45.48a31.92,31.92,0,0,0,1.75-45.11,31.93,31.93,0,0,1,1.74-45.12A31.93,31.93,0,0,0,17,66.2C5,53.26,6.33,33.6,18.76,21.09,22.88,16.94,29.05,12,34,9.53Z"/><path class="cls-3" d="M437.39,295.93l-63.45,2v3c27.11-3.38,54.44-4.72,81.7-6.08q41.42-2.07,82.87-3.25t83.1-1.46c27.55-.19,55.13-.3,82.66.6,13.57.45,27.14,1.18,40.66,2.43,12.3,1.14,24.9,2.58,36.62,6.7,2.15.76,6,1.69,7.3,3.71s-3.09,3.54-4.37,4.05c-5.41,2.21-11.34,3.4-17,4.71-12.18,2.79-24.51,4.88-36.88,6.57-26.16,3.59-52.53,5.47-78.85,7.58q-41.19,3.31-82.35,7c-27.33,2.45-54.66,4.94-81.95,7.79-13.37,1.39-26.72,2.93-40,4.75-12.37,1.69-25.12,3.1-37.06,6.88a38.11,38.11,0,0,0-12.13,5.91,1.51,1.51,0,0,0,.66,2.51c19.26,4.16,39.1,4.82,58.73,5,21,.25,42,.1,63-.09,42-.37,84-1,126-.09,23.46.54,46.91,1.61,70.3,3.53l-.4-3c-42.23,8.75-85.47,10.7-128,17.11-5.63.84-11.3,1.65-16.87,2.85-3.48.75-9.22,1.76-10.91,5.44-.36.79-.15,2,.89,2.21,29.42,4.91,59.38,2.07,89,3.11a227.62,227.62,0,0,1,25.16,2.11v-2.89q-31.74,6.41-63.29,13.71-7.69,1.79-15.37,3.62c-4.1,1-9.35,1.56-12.76,4.27-2.69,2.15-2,5.43,1,6.74a17.41,17.41,0,0,0,5.31,1c2.82.25,5.64.44,8.46.66l36.34,2.85-.4-2.95-24.89,9.29c-2.41.9-7.14,1.78-8.19,4.55-.59,1.56.31,2.9,1.63,3.69,4.25,2.56,9.75,2.06,14.13,4.32,3.83,2,.92,4.73-1.67,6.14-3.49,1.89-7.44,2.92-11.23,4a1.5,1.5,0,0,0,.8,2.89,70.52,70.52,0,0,0,10.78-3.75c2.38-1.13,5.13-2.74,6-5.4,1.91-5.66-5.47-7.55-9.44-8.51a40.93,40.93,0,0,1-7.16-1.94,2.85,2.85,0,0,1-1-.54c-.19-.22-.22-.24-.1-.08,0,.33.16.28.48-.16,1.9-.58,3.85-1.64,5.74-2.35l24.89-9.29a1.5,1.5,0,0,0-.4-2.94l-28.59-2.24-14.7-1.15c-1.82-.15-4.26,0-5.89-1-2.2-1.26,2.08-2.74,3.06-3.07,4.41-1.5,9.1-2.35,13.64-3.43s8.94-2.1,13.42-3.13q13.92-3.21,27.88-6.23,16.11-3.5,32.25-6.75c1.39-.28,1.47-2.67,0-2.89C647,392.38,617,395.3,587.29,394a205.66,205.66,0,0,1-24.89-2.47l.9,2.21c.7-1.52,2.55-2.17,4-2.69a48.3,48.3,0,0,1,7.13-1.79c4.92-.93,9.87-1.69,14.83-2.44,10.55-1.59,21.14-2.9,31.73-4.11,20.71-2.38,41.46-4.39,62.11-7.23,11.46-1.58,22.88-3.42,34.2-5.76,1.76-.37,1.19-2.82-.39-2.95-41.51-3.41-83.17-4.1-124.79-4-41.93.09-83.85,1-125.78.73-22.26-.12-44.86-.28-66.71-5l.66,2.51c4.12-3.23,9.42-4.86,14.41-6.19a180.7,180.7,0,0,1,18.34-3.63c13.6-2.13,27.25-3.86,40.93-5.4,27.77-3.12,55.62-5.63,83.46-8.16s55.68-4.93,83.54-7.21c26.94-2.2,53.94-4,80.78-7.31,12.56-1.54,25.1-3.4,37.51-5.89,6.05-1.22,12.08-2.59,18.05-4.17,4.41-1.16,10.73-2.33,13.8-6.07,6.55-8-17.94-12.64-22-13.45C756.3,290.88,743.1,289.86,730,289c-27.77-1.84-55.63-1.95-83.44-1.94q-42.21,0-84.39,1t-84.61,2.8c-27.84,1.24-55.74,2.45-83.49,5q-10.09.92-20.14,2.15c-1.85.23-2,3.06,0,3l63.45-2c1.92-.07,1.93-3.07,0-3Z"/></g></g></svg>