<svg xmlns="http://www.w3.org/2000/svg" viewBox="0 0 480 577.2"><defs><style>.cls-1{fill:#fff;}.cls-2{fill:#696b7b;}.cls-3{fill:#bd8481;}.cls-4{fill:#eabe9b;}.cls-5{fill:#93d2ff;}</style></defs><g id="Слой_2" data-name="Слой 2"><g id="Слой_1-2" data-name="Слой 1"><rect class="cls-1" x="36.58" y="4.28" width="406.78" height="407.3" rx="20.28"/><path class="cls-2" d="M423.07,415.85H56.86A24.58,24.58,0,0,1,32.31,391.3V24.55A24.59,24.59,0,0,1,56.86,0H423.07a24.59,24.59,0,0,1,24.55,24.55V391.29A24.57,24.57,0,0,1,423.07,415.85ZM56.86,8.56a16,16,0,0,0-16,16V391.29a16,16,0,0,0,16,16H423.07a16,16,0,0,0,16-16V24.55a16,16,0,0,0-16-16Z"/><path class="cls-1" d="M245.55,235.16,203.29,322.4l-37.51-87.24L180.53,143h50.94Z"/><path class="cls-2" d="M203.07,332.69l-41.71-96.95.19-1.23,15.28-95.77H235.1l14.83,97.09Zm-32.86-98.08,33.32,77.49,37.56-77.61-13.3-87.19H184.17Z"/><path class="cls-3" d="M406.94,294.24,380.6,253.83l-31.37-8.64c6-5.64-4.22-2.41-12.4-8.17-11.72-8.2-35.07-33.82-96.13-41.46,0,22.85-23.19,31.94-35,31.94s-35-9.09-35-31.94c-16.49,6.6-40.14,19.24-51.86,27.45-23.67,16.55-43.91,38.33-43.69,78.06V411.24H302.71l.17-122.88c67.86,10.56,104.06,5.88,104.06,5.88Z"/><path class="cls-1" d="M256.88,119.15v-1.86c.71-30.54-22.45-56.49-51.86-56.85S151.76,84.61,151.76,115a136,136,0,0,0,4.06,27.06c8.66,26.93,29,40.77,40.45,46.62a17.64,17.64,0,0,0,16.18,0c11.5-5.92,32.08-19.92,40.58-47.24,2.59-6.78,3.85-22.28,3.85-22.28Z"/><path class="cls-2" d="M204.33,195a21.84,21.84,0,0,1-10-2.41c-12-6.16-33.44-20.72-42.56-49.13v-.17A139.73,139.73,0,0,1,147.52,115a59.25,59.25,0,0,1,17.59-42.51,55.12,55.12,0,0,1,78-.26c.39.38.76.77,1.14,1.16a61.78,61.78,0,0,1,17,44.06v2.1c0,.66-1.36,16-4.07,23.35-9,28.73-30.62,43.45-42.71,49.67A22.06,22.06,0,0,1,204.33,195Zm-44.41-54c8.2,25.41,27.51,38.51,38.33,44.05a13.42,13.42,0,0,0,12.27,0c10.91-5.63,30.44-18.89,38.49-44.72l.08-.23c1.89-5,3.2-16.61,3.57-20.94v-1.82A53.08,53.08,0,0,0,238,79.33a46.58,46.58,0,0,0-33.06-14.62h-.59a47.05,47.05,0,0,0-33.26,13.8A50.68,50.68,0,0,0,156,115a130.57,130.57,0,0,0,3.88,25.93Z"/><path class="cls-4" d="M152.68,104.76s17.13-10.94,23.07-26.54c0,0,31.08,25.08,69.95,11.07a96.94,96.94,0,0,1,10.15,15.46s.54,18.55,0,24c0,0,21.25-15.46,9-54.79-8.28-26.64-35.2-38.87-67.31-37.52s-37.84,16.8-36.08,24a17.2,17.2,0,0,0-13,4.34c-9.89,8.42-15.41,52.86,5.08,66.72C153.54,131.49,151.26,110.72,152.68,104.76Z"/><path class="cls-3" d="M269.67,185.41,380.73,287.55a28.17,28.17,0,0,0,39.82-1.63,30.45,30.45,0,0,0,2.05-2.49,28.13,28.13,0,0,0-6.09-39.26L294.87,155a19.8,19.8,0,0,0-27.78,3.61l-.27.37A19.74,19.74,0,0,0,269.67,185.41Z"/><path class="cls-2" d="M399.82,299.26a32.53,32.53,0,0,1-22-8.56l-111-102.11a24,24,0,0,1,30.64-37L419,240.73a32.41,32.41,0,0,1-16,58.39C401.94,299.21,400.87,299.26,399.82,299.26Zm-117-144.11a15.47,15.47,0,0,0-10.34,27h0L383.58,284.34a23.88,23.88,0,0,0,32.49-35,26.37,26.37,0,0,0-2.15-1.78L292.34,158.43A15.4,15.4,0,0,0,282.81,155.15Z"/><path class="cls-1" d="M266.82,159a19.74,19.74,0,0,0,2.85,26.42L296.33,210l25.14-35.46L294.87,155a19.8,19.8,0,0,0-27.77,3.6l-.28.38Z"/><path class="cls-2" d="M297.05,216.45,266.79,188.6a24.05,24.05,0,0,1,30.26-37.32l.41.3,30,22Zm-14.24-61.3a15.46,15.46,0,0,0-10.33,27l23.18,21.32,19.89-28.06-23.24-17.05a15.5,15.5,0,0,0-9.5-3.26Z"/><path class="cls-1" d="M4.26,466.08v-3.6c0,17.76,14.42,21,32.2,21,0,0,8.21,89.39,203.51,89.39s203.5-89.39,203.5-89.39c17.78,0,32.2-3.29,32.2-21v3.6a13.83,13.83,0,0,0-13.83-13.82H18.09A13.83,13.83,0,0,0,4.26,466.08Z"/><path class="cls-2" d="M240,577.2c-82,0-141.85-15.38-177.75-45.7-21.25-18-27.53-36-29.31-43.71-11.42-.2-30.64-2.25-32.7-21.71H0v-3.6H.39A18.15,18.15,0,0,1,18.15,448H461.84a18.13,18.13,0,0,1,17.75,14.51H480v3.6h-.18c-2.08,19.5-21.3,21.51-32.69,21.71-1.79,7.72-8.07,25.76-29.31,43.71C381.81,561.82,322,577.2,240,577.2ZM8.62,464.74c.93,10.54,8.77,14.52,27.83,14.52h3.9l.36,3.89c0,.19,2.44,21.41,27.7,42.38,23.67,19.68,72.65,43.11,171.56,43.11s147.87-23.45,171.56-43.11c25.25-21,27.67-42.19,27.69-42.4l.4-3.84h3.87c19.05,0,26.89-4,27.82-14.52a9.59,9.59,0,0,0-9.47-8.2H18.09A9.58,9.58,0,0,0,8.62,464.74Z"/><path class="cls-1" d="M261.6,451.55H218.33V410.17l-3.24-4.43V381.32a24.88,24.88,0,0,1,49.76,0v25.93l-3.25,3.25Z"/><path class="cls-2" d="M265.9,455.83H214V411.57l-3.25-4.43V381.32a29.17,29.17,0,0,1,58.32,0V409l-3.21,3.25Zm-43.28-8.56h34.72V408.72l3.25-3.24V381.32a20.61,20.61,0,0,0-41.21,0v23l3.25,4.43Z"/><rect class="cls-4" x="201.02" y="396.45" width="77.89" height="21.61" rx="10.8"/><path class="cls-5" d="M300.84,425.62H301a15.06,15.06,0,0,1,15.06,15.06v10.87H285.73V440.68a15.05,15.05,0,0,1,15.06-15.06Z"/><path class="cls-2" d="M320.3,455.83H281.44V440.69a19.37,19.37,0,0,1,19.39-19.35H301a19.38,19.38,0,0,1,19.35,19.35ZM290,447.27h21.73v-6.58A10.79,10.79,0,0,0,301,429.9h-.12a10.81,10.81,0,0,0-10.79,10.79Z"/><path class="cls-4" d="M405.29,451.55H358.77l-3.25-71.31h53Z"/><path class="cls-3" d="M177.41,425.62h.16a15.06,15.06,0,0,1,15.05,15.07h0v10.87H162.34V440.69a15.05,15.05,0,0,1,15-15.07Z"/><path class="cls-4" d="M191.43,160.51l2.3-16,30.09,4.32-2.3,16.05Z"/><path class="cls-2" d="M192.62,455.83H162.34a4.3,4.3,0,0,1-4.28-4.27V440.69a19.38,19.38,0,0,1,19.35-19.35h.16a19.37,19.37,0,0,1,19.34,19.35v10.87a4.28,4.28,0,0,1-4.29,4.27Zm-26-8.56h21.74v-6.58a10.81,10.81,0,0,0-10.79-10.79h-.16a10.8,10.8,0,0,0-10.79,10.79Z"/><path class="cls-2" d="M120.32,415.53a4.28,4.28,0,0,1-4.27-4.28V303.54a4.28,4.28,0,1,1,8.56,0V411.25A4.29,4.29,0,0,1,120.32,415.53Z"/><path class="cls-1" d="M270.26,155,190.7,143.49"/><path class="cls-2" d="M270.26,159.24h-.62l-79.55-11.56a4.27,4.27,0,1,1,1.22-8.46h0l79.55,11.47a4.27,4.27,0,0,1-.61,8.51Z"/><path class="cls-2" d="M221.48,169.1a3.11,3.11,0,0,1-.61,0l-30.08-4.32a4.27,4.27,0,0,1-3.63-4.82v0l2.26-16.05a4.27,4.27,0,0,1,4.83-3.63h0l30.08,4.32a4.27,4.27,0,0,1,3.63,4.83v0l-2.25,16A4.28,4.28,0,0,1,221.48,169.1Zm-25.25-12.19L217.84,160l1.12-7.58-21.61-3.1Z"/><path class="cls-2" d="M418.17,487.81H36.46a4.28,4.28,0,1,1,0-8.55H418.17a4.28,4.28,0,0,1,0,8.55Z"/><path class="cls-2" d="M357,415.85H278a4.28,4.28,0,1,1,0-8.55H357a4.28,4.28,0,1,1,0,8.55Z"/><path class="cls-2" d="M423,415.85H408.54a4.28,4.28,0,1,1,0-8.55H423a16,16,0,0,0,16.11-15.9V24.45A16,16,0,0,0,423,8.56H57A16,16,0,0,0,40.85,24.45v367A16,16,0,0,0,57,407.3H200.61a4.28,4.28,0,1,1,0,8.55H57A24.58,24.58,0,0,1,32.3,391.4V24.45A24.58,24.58,0,0,1,57,0H423a24.58,24.58,0,0,1,24.66,24.45v367A24.57,24.57,0,0,1,423,415.85Z"/><path class="cls-2" d="M170.93,207.3h-.68a4.27,4.27,0,0,1-3.55-4.89v0l4.42-27.65a4.27,4.27,0,1,1,8.44,1.35h0l-4.42,27.58A4.28,4.28,0,0,1,170.93,207.3Z"/><path class="cls-2" d="M240.48,206.38a4.27,4.27,0,0,1-4.22-3.63l-4.73-30.95a4.28,4.28,0,0,1,8.46-1.3h0l4.72,31a4.27,4.27,0,0,1-3.62,4.84,4.07,4.07,0,0,1-.61.08Z"/><path class="cls-2" d="M302.71,415.53a4.28,4.28,0,0,1-4.27-4.29l.17-122.88a4.28,4.28,0,0,1,4.28-4.27,4.91,4.91,0,0,1,.66.06C370,294.44,406.05,290,406.41,290a4.28,4.28,0,1,1,1.12,8.49h0c-1.46.19-35.87,4.41-100.33-5.1L307,411.23a4.28,4.28,0,0,1-4.27,4.3Z"/><path class="cls-2" d="M201,415.53h-126a4.28,4.28,0,0,1-4.27-4.29V301.07c-.23-43.89,24.2-66.65,45.52-81.56,12.4-8.65,36.49-21.42,52.73-27.92a4.29,4.29,0,0,1,5.86,4c0,21.1,22.54,27.65,30.73,27.65s30.73-6.55,30.73-27.65a4.27,4.27,0,0,1,4.27-4.27,4.58,4.58,0,0,1,.53,0c21.2,2.64,40.28,7.77,56.72,15.24a4.28,4.28,0,0,1-3.54,7.79h0c-14.49-6.58-31.21-11.27-49.75-13.93-3,22.1-26.17,31.36-39,31.36-12.54,0-35-8.89-38.75-30-15.31,6.68-35,17.31-45.67,24.8-20.82,14.58-42.08,34.83-41.87,74.54v106H201a4.28,4.28,0,0,1,0,8.56Z"/><path class="cls-2" d="M204.33,195a21.84,21.84,0,0,1-10-2.41c-12-6.16-33.44-20.72-42.56-49.13v-.17A139.73,139.73,0,0,1,147.52,115a4.28,4.28,0,1,1,8.56,0,131.25,131.25,0,0,0,3.84,25.93c8.2,25.41,27.51,38.51,38.33,44.05a13.42,13.42,0,0,0,12.27,0c10.91-5.63,30.44-18.89,38.49-44.72l.08-.23c1.89-5,3.2-16.61,3.57-20.94v-1.82a4.28,4.28,0,1,1,8.56.19v1.64a3.84,3.84,0,0,1,0,.48c0,.65-1.36,16-4.07,23.34-9,28.73-30.62,43.45-42.71,49.67A21.91,21.91,0,0,1,204.33,195Z"/><path class="cls-2" d="M153.54,135.77a4.3,4.3,0,0,1-2.4-.74c-9.24-6.25-14.82-18.46-15.69-34.36-.91-16.58,3.5-33.41,10.25-39.16A22.42,22.42,0,0,1,157,56.31a20.37,20.37,0,0,1,4.08-10.09c4.51-5.92,14.38-13.18,36.31-14.1,36.44-1.57,63.23,13.61,71.58,40.51,13,41.78-9.64,58.82-10.61,59.52a4.27,4.27,0,0,1-6.76-3.9c.4-4,.18-16.67,0-22.38a98.58,98.58,0,0,0-7.39-11.57c-31.09,9.84-56.74-3.26-66.7-9.66-6.14,11.43-16.8,19.7-20.88,22.55-.47,5.1.42,16.83,1.19,23.76a4.27,4.27,0,0,1-3.79,4.72,3.44,3.44,0,0,1-.46,0Zm6.38-71.16A13.58,13.58,0,0,0,151.21,68c-4.07,3.46-8.05,17.53-7.25,32.17.26,4.78,1.19,12,4.16,18.23-.31-5.63-.38-11.56.35-14.65a4.29,4.29,0,0,1,1.85-2.61c.16-.1,16-10.41,21.42-24.46a4.29,4.29,0,0,1,5.53-2.47,4.13,4.13,0,0,1,1.15.67c.29.23,29.78,23.37,65.82,10.38A4.27,4.27,0,0,1,249,86.53a101.27,101.27,0,0,1,10.64,16.23,4.37,4.37,0,0,1,.49,1.87c0,.4.16,5.64.22,11.27,3.81-7.8,6.6-20.9.44-40.75-7.14-23-30.7-35.87-63.06-34.51-19.58.82-27.05,7.06-29.84,10.7-2.35,3.12-2.71,6.2-2.25,8a4.28,4.28,0,0,1-3.17,5.16,4.14,4.14,0,0,1-1.68.07,6,6,0,0,0-.85,0Z"/><path class="cls-2" d="M399.82,299.26a32.53,32.53,0,0,1-22-8.56l-111-102.11a24,24,0,0,1,30.64-37L419,240.73a32.41,32.41,0,0,1-16,58.39C401.94,299.21,400.87,299.26,399.82,299.26Zm-117-144.11a15.47,15.47,0,0,0-10.34,27h0L383.58,284.34a23.88,23.88,0,0,0,32.49-35,26.37,26.37,0,0,0-2.15-1.78L292.34,158.43A15.4,15.4,0,0,0,282.81,155.15Z"/><path class="cls-2" d="M240,577.2c-82,0-141.85-15.38-177.75-45.7-21.25-18-27.53-36-29.31-43.71-11-.2-29.31-2.07-32.46-19.8A4.22,4.22,0,0,1,0,466.08v-3.6a4.28,4.28,0,0,1,1.25-3A18.15,18.15,0,0,1,18.16,448H461.84a18.15,18.15,0,0,1,16.91,11.48,4.28,4.28,0,0,1,1.25,3v3.6a4.22,4.22,0,0,1-.45,1.91c-3.1,17.73-21.42,19.6-32.46,19.8-1.79,7.72-8.07,25.76-29.31,43.71-36,30.32-95.78,45.7-177.81,45.7ZM8.62,464.74c.93,10.54,8.77,14.52,27.83,14.52a4.27,4.27,0,0,1,4.26,3.89c0,.19,2.44,21.41,27.7,42.38,23.67,19.68,72.65,43.11,171.56,43.11s147.87-23.45,171.56-43.11c25.25-21,27.67-42.19,27.69-42.4a4.29,4.29,0,0,1,4.27-3.86c19.05,0,26.89-4,27.82-14.52a9.57,9.57,0,0,0-9.47-8.2H18.09a9.58,9.58,0,0,0-9.47,8.19Z"/><path class="cls-2" d="M264.85,400.73a4.3,4.3,0,0,1-4.28-4.28V381.32a20.61,20.61,0,0,0-41.2,0v15.13a4.28,4.28,0,1,1-8.56,0V381.32a29.17,29.17,0,0,1,58.32,0v15.13A4.29,4.29,0,0,1,264.85,400.73Z"/><path class="cls-2" d="M261.6,455.83H218.33a4.29,4.29,0,0,1-4.27-4.27V418.05a4.28,4.28,0,1,1,8.56,0v29.22h34.72V418.05a4.28,4.28,0,1,1,8.56,0v33.5a4.29,4.29,0,0,1-4.29,4.28Z"/><path class="cls-2" d="M268.15,422.34H211.78a15.09,15.09,0,0,1,0-30.17h56.37a15.09,15.09,0,0,1,0,30.17Zm-56.37-21.61a6.52,6.52,0,1,0,0,13h56.37a6.53,6.53,0,0,0,0-13.05Z"/><path class="cls-3" d="M300.84,425.62H301a15.06,15.06,0,0,1,15.06,15.06v10.87H285.73V440.68a15.05,15.05,0,0,1,15.06-15.06Z"/><path class="cls-2" d="M405.29,455.83H358.77a4.29,4.29,0,0,1-4.28-4.08l-3.24-71.31a4.27,4.27,0,0,1,4-4.5H408.5a4.27,4.27,0,0,1,4.28,4.28v.22l-3.25,71.31A4.28,4.28,0,0,1,405.29,455.83Zm-42.44-8.56h38.33L404,384.53H360Z"/><path class="cls-2" d="M296.33,214.2a4.29,4.29,0,0,1-3.48-6.77L318,172a4.28,4.28,0,1,1,7,5l-25.14,35.45A4.28,4.28,0,0,1,296.33,214.2Z"/></g></g></svg>