<svg xmlns="http://www.w3.org/2000/svg" viewBox="0 0 960.48 28.34"><defs><style>.cls-1{fill:none;stroke:#fff;stroke-miterlimit:8;stroke-width:4px;}</style></defs><g id="Слой_2" data-name="Слой 2"><g id="Слой_1-2" data-name="Слой 1"><path class="cls-1" d="M1.42,13.57a39.83,39.83,0,0,0,56.33.06,39.84,39.84,0,0,1,56.33.07,39.84,39.84,0,0,0,56.33.07,39.84,39.84,0,0,1,56.34.06,39.82,39.82,0,0,0,56.33.07,39.82,39.82,0,0,1,56.33.07,39.83,39.83,0,0,0,56.33.06,39.84,39.84,0,0,1,56.33.07,39.83,39.83,0,0,0,56.34.07,39.82,39.82,0,0,1,56.33.07,39.83,39.83,0,0,0,56.33.06,39.84,39.84,0,0,1,56.33.07,39.85,39.85,0,0,0,56.34.07,39.83,39.83,0,0,1,56.33.06,39.82,39.82,0,0,0,56.33.07,39.82,39.82,0,0,1,56.33.07,39.84,39.84,0,0,0,56.34.06"/></g></g></svg>