<svg xmlns="http://www.w3.org/2000/svg" xmlns:xlink="http://www.w3.org/1999/xlink" viewBox="0 0 479.77 478.63"><defs><style>.cls-1{fill:url(#Безымянный_градиент_2);}.cls-2{fill:#ff6c6c;}.cls-3{opacity:0.1;}.cls-4{fill:#00c;}.cls-5{fill:#ff4d4d;}.cls-6{fill:#fff;}.cls-7{fill:#ff9d33;}.cls-8{fill:#ff8b00;}.cls-9{fill:#6c6cff;}.cls-10{fill:#d9d9ff;}.cls-11{fill:#8383ff;}.cls-12{fill:#37416b;}</style><linearGradient id="Безымянный_градиент_2" x1="26.06" y1="-4248.64" x2="455.91" y2="-3818.8" gradientTransform="matrix(1, 0, 0, -1, 0, -3808.47)" gradientUnits="userSpaceOnUse"><stop offset="0" stop-color="#fff3ee" stop-opacity="0"/><stop offset="0.29" stop-color="#ffeade" stop-opacity="0.37"/><stop offset="0.79" stop-color="#ffd6bb"/></linearGradient></defs><g id="Слой_2" data-name="Слой 2"><g id="Слой_1-2" data-name="Слой 1"><path class="cls-1" d="M444.58,152.36c82.48-113,10.37-201.15-117-122.08C191.61,114.7,139,224.91,109.69,183.44c-25.26-35.74,50-112.54,41.05-144-19.85-70-136,.34-148.56,87.47C-12.18,226.15,49.3,258.3,44.83,362.16,44.11,378.93,16,445.74,57.74,469.63c56,32.07,183.15-32.32,277.74-25.95,64.87,4.37,143.59-51.68,122.4-117.34-25-77.38-76.21-87.81-13.3-174Z"/><path class="cls-2" d="M45.7,313.58A4.7,4.7,0,0,1,41,308.86a6,6,0,0,0-5.93-6,4.72,4.72,0,0,1,0-9.44,6,6,0,0,0,5.93-6,4.69,4.69,0,1,1,9.37,0,6,6,0,0,0,5.94,6,4.72,4.72,0,0,1,0,9.44,6,6,0,0,0-5.94,6A4.69,4.69,0,0,1,45.7,313.58Z"/><g class="cls-3"><path class="cls-4" d="M279.86,205.5V173.13a4.71,4.71,0,0,0-4.68-4.72H204.66a4.7,4.7,0,0,0-4.68,4.72V205.5a4.7,4.7,0,0,0,4.68,4.72h70.52A4.71,4.71,0,0,0,279.86,205.5Z"/><path class="cls-4" d="M240.93,54C145.4,54,68,132,68,228.18a174.28,174.28,0,0,0,61.67,133.31H108.25a4.7,4.7,0,0,0-4.69,4.72v81.42a4.7,4.7,0,0,0,4.69,4.72h63a4.69,4.69,0,0,0,4.68-4.72v-58a171.76,171.76,0,0,0,23.92,7.77v12.12a4.7,4.7,0,0,0,4.69,4.72h70.51a4.7,4.7,0,0,0,4.69-4.72V397.93c76.83-17.74,134.14-87,134.14-169.75C413.9,132,336.46,54,240.93,54Zm0,296.64c-67.19,0-121.65-54.83-121.65-122.48S173.74,105.7,240.93,105.7a121.24,121.24,0,0,1,99.34,51.78H309.21a4.69,4.69,0,0,0-4.68,4.71v81.43a4.69,4.69,0,0,0,4.68,4.72h51.72c-9.55,58-59.63,102.32-120,102.32Z"/><path class="cls-4" d="M199.87,439.22H230a4.72,4.72,0,0,0,0-9.43H199.87a4.72,4.72,0,0,0,0,9.43Z"/><path class="cls-4" d="M263.54,447.63H199.87a4.72,4.72,0,0,0,0,9.44h63.67a4.72,4.72,0,0,0,0-9.44Z"/><path class="cls-4" d="M279.86,225.78H249.74a4.72,4.72,0,0,0,0,9.43h30.12a4.72,4.72,0,0,0,0-9.43Z"/><path class="cls-4" d="M279.86,243.62H216.2a4.72,4.72,0,0,0,0,9.44h63.66a4.72,4.72,0,0,0,0-9.44Z"/></g><path class="cls-5" d="M240.93,328c-67.18,0-121.64-54.83-121.64-122.48S173.75,83.06,240.93,83.06l6.56-10.83V42.07l-6.56-10.69c-95.53,0-173,78-173,174.16s77.44,174.16,173,174.16a171.26,171.26,0,0,0,77.7-18.52l.73-13.56-12.14-24.29L295.57,315a120.47,120.47,0,0,1-54.64,13Z"/><path class="cls-6" d="M376.86,313.25a173.88,173.88,0,0,1-58.23,47.92L295.57,315a122.47,122.47,0,0,0,44.63-38.65l12.54,4.13,20.92,21.06Z"/><path class="cls-7" d="M240.93,31.38c95.53,0,173,78,173,174.16a174.14,174.14,0,0,1-37,107.71l-36.66-36.9a122.54,122.54,0,0,0,22.38-70.81c0-67.65-54.46-122.48-121.65-122.48Z"/><path class="cls-8" d="M376.91,162.2v81.42a4.69,4.69,0,0,1-4.68,4.71H354.94a123.6,123.6,0,0,0-2.09-90.85h19.38a4.7,4.7,0,0,1,4.68,4.72Z"/><path class="cls-6" d="M176,362.71V425a4.7,4.7,0,0,1-4.69,4.72h-63a4.7,4.7,0,0,1-4.69-4.72V362.71L124.19,358h31.14Z"/><path class="cls-2" d="M176,362.71V343.56a4.7,4.7,0,0,0-4.68-4.72h-63a4.71,4.71,0,0,0-4.69,4.72v19.15Z"/><path class="cls-9" d="M155.33,387.87a15.57,15.57,0,1,0-26.68,10.95,15.7,15.7,0,0,0-4.46,11,4.69,4.69,0,1,0,9.37,0,6.2,6.2,0,1,1,12.4,0,4.69,4.69,0,1,0,9.37,0,15.7,15.7,0,0,0-4.46-11A15.67,15.67,0,0,0,155.33,387.87Zm-15.57-6.24a6.24,6.24,0,1,1-6.2,6.24A6.23,6.23,0,0,1,139.76,381.63Z"/><path class="cls-10" d="M279.76,370.69v16.18a4.7,4.7,0,0,1-4.68,4.71H236.71l-4.69-10V366h36.2Z"/><path class="cls-11" d="M279.76,354.5v16.19H232v-9.51l4.69-11.4h38.37a4.7,4.7,0,0,1,4.68,4.72Z"/><path class="cls-2" d="M236.71,349.78H204.56a4.71,4.71,0,0,0-4.69,4.72v32.37a4.71,4.71,0,0,0,4.69,4.72h32.15Z"/><path class="cls-6" d="M376.92,158.7V221a4.7,4.7,0,0,1-4.69,4.71h-63a4.7,4.7,0,0,1-4.68-4.71V158.7L325.15,154h31.14Z"/><path class="cls-7" d="M376.92,158.7V139.55a4.7,4.7,0,0,0-4.69-4.72h-63a4.69,4.69,0,0,0-4.68,4.72V158.7Z"/><path class="cls-9" d="M356.29,183.85a15.57,15.57,0,1,0-26.68,11,15.68,15.68,0,0,0-4.46,11,4.69,4.69,0,1,0,9.37,0,6.2,6.2,0,1,1,12.4,0,4.69,4.69,0,1,0,9.37,0,15.68,15.68,0,0,0-4.46-11A15.68,15.68,0,0,0,356.29,183.85Zm-15.57-6.24a6.24,6.24,0,1,1-6.2,6.24A6.23,6.23,0,0,1,340.72,177.61Z"/><path class="cls-10" d="M279.87,166.67v16.19a4.71,4.71,0,0,1-4.69,4.72H236.81l-4.69-7.92V162h36.1Z"/><path class="cls-11" d="M279.87,150.49v16.18H232.12v-9.44l4.69-11.46h38.37A4.7,4.7,0,0,1,279.87,150.49Z"/><path class="cls-7" d="M236.81,145.77H204.66a4.69,4.69,0,0,0-4.68,4.72v32.37a4.69,4.69,0,0,0,4.68,4.71h32.15Z"/><path class="cls-12" d="M240.93,26.67c-98,0-177.65,80.24-177.65,178.87a179.13,179.13,0,0,0,54.17,128.59h-9.2a9.41,9.41,0,0,0-9.37,9.43V425a9.42,9.42,0,0,0,9.37,9.44h63a9.42,9.42,0,0,0,9.37-9.44V373.84q7.19,2.61,14.55,4.58v8.45a9.41,9.41,0,0,0,9.37,9.43h70.51a9.41,9.41,0,0,0,9.37-9.43V379A178.73,178.73,0,0,0,418.59,205.54c0-98.63-79.7-178.87-177.66-178.87ZM108.25,425V343.56h63V425Zm176.19-55.73V354.5a9.41,9.41,0,0,0-9.37-9.43H263.7a4.72,4.72,0,0,0,0,9.43h11.37v32.37H204.56V354.5h32.15a4.72,4.72,0,0,0,0-9.43H204.56a9.41,9.41,0,0,0-9.37,9.43v14.14c-4.91-1.39-9.78-3-14.55-4.86V343.56a9.41,9.41,0,0,0-9.37-9.43H131.36A169.62,169.62,0,0,1,72.65,205.54c0-93.43,75.49-169.44,168.28-169.44s168.29,76,168.29,169.44c0,77.5-51,144-124.78,163.72Z"/><path class="cls-12" d="M199.87,416.58H230a4.72,4.72,0,0,0,0-9.43H199.87a4.72,4.72,0,0,0,0,9.43Z"/><path class="cls-12" d="M263.53,425H199.87a4.72,4.72,0,0,0,0,9.43h63.66a4.72,4.72,0,0,0,0-9.43Z"/><path class="cls-12" d="M372.23,130.12H342.66A126.56,126.56,0,0,0,240.93,78.34c-69.66,0-126.33,57.06-126.33,127.2s56.67,127.2,126.33,127.2A126,126,0,0,0,357.75,254a4.74,4.74,0,0,0-2.55-6.16,4.69,4.69,0,0,0-6.12,2.56A116.62,116.62,0,0,1,240.93,323.3c-64.49,0-117-52.83-117-117.76s52.47-117.77,117-117.77a117.17,117.17,0,0,1,89.82,42.35H309.21a9.41,9.41,0,0,0-9.37,9.43V221a9.41,9.41,0,0,0,9.37,9.43h63A9.41,9.41,0,0,0,381.6,221V139.55a9.41,9.41,0,0,0-9.37-9.43Zm-63,90.86V139.55h63V221Z"/><path class="cls-12" d="M284.55,150.49a9.42,9.42,0,0,0-9.37-9.44H204.66a9.42,9.42,0,0,0-9.37,9.44v32.37a9.41,9.41,0,0,0,9.37,9.43h70.52a9.41,9.41,0,0,0,9.37-9.43Zm-79.89,32.37V150.49h70.52v32.37Z"/><path class="cls-12" d="M279.86,203.13H249.74a4.72,4.72,0,0,0,0,9.44h30.12a4.72,4.72,0,0,0,0-9.44Z"/><path class="cls-12" d="M279.86,221H216.2a4.72,4.72,0,0,0,0,9.43h63.66a4.72,4.72,0,0,0,0-9.43Z"/><path class="cls-2" d="M384.1,69.43a4.69,4.69,0,0,1-4.68-4.71,6,6,0,0,0-5.94-6,4.72,4.72,0,0,1,0-9.43,6,6,0,0,0,5.94-6,4.69,4.69,0,1,1,9.37,0,6,6,0,0,0,5.93,6,4.72,4.72,0,0,1,0,9.43,6,6,0,0,0-5.93,6A4.7,4.7,0,0,1,384.1,69.43Z"/><path class="cls-9" d="M405.34,363a4.69,4.69,0,0,1-4.68-4.72,6,6,0,0,0-5.94-6,4.72,4.72,0,0,1,0-9.44,6,6,0,0,0,5.94-6,4.69,4.69,0,1,1,9.37,0,6,6,0,0,0,5.93,6,4.72,4.72,0,0,1,0,9.44,6,6,0,0,0-5.93,6A4.7,4.7,0,0,1,405.34,363Z"/><path class="cls-9" d="M165.1,182.08a4.7,4.7,0,0,1-4.68-4.72,6,6,0,0,0-5.94-6,4.72,4.72,0,0,1,0-9.44,6,6,0,0,0,5.94-6,4.69,4.69,0,1,1,9.37,0,6,6,0,0,0,5.93,6,4.72,4.72,0,0,1,0,9.44,6,6,0,0,0-5.93,6,4.7,4.7,0,0,1-4.69,4.72Z"/><path class="cls-7" d="M64.84,353.47a4.64,4.64,0,0,1-3.31-1.38l-9.84-9.91a4.74,4.74,0,0,1,0-6.67l9.84-9.91a4.66,4.66,0,0,1,6.62,0L78,335.51a4.74,4.74,0,0,1,0,6.67l-9.84,9.91A4.64,4.64,0,0,1,64.84,353.47Zm-3.21-14.63,3.21,3.24,3.21-3.24-3.21-3.23Z"/></g></g></svg>