<svg xmlns="http://www.w3.org/2000/svg" viewBox="0 0 1527.81 239"><defs><style>.cls-1{fill:#5b69aa;}.cls-1,.cls-2,.cls-3{stroke:#37416b;stroke-miterlimit:8;stroke-width:6px;}.cls-2{fill:#838ebf;}.cls-3{fill:#6f7cb5;}</style></defs><g id="Слой_2" data-name="Слой 2"><g id="Слой_1-2" data-name="Слой 1"><circle class="cls-1" cx="1218.31" cy="153.9" r="28.5"/><circle class="cls-1" cx="1138.31" cy="106.9" r="28.5"/><circle class="cls-2" cx="1205.31" cy="68.9" r="16.5"/><circle class="cls-1" cx="1397.81" cy="47.4" r="35"/><circle class="cls-3" cx="1489.81" cy="67.4" r="35"/><circle class="cls-2" cx="1301.24" cy="107.3" r="39.27"/><circle class="cls-1" cx="1397.37" cy="146.74" r="25.26"/><circle class="cls-1" cx="1490" cy="174.6" r="27.4"/><circle class="cls-1" cx="22.25" cy="84.71" r="19.25"/><circle class="cls-1" cx="76.3" cy="116.47" r="19.25"/><circle class="cls-2" cx="31.04" cy="142.14" r="11.15"/><circle class="cls-1" cx="602.06" cy="31.5" r="28.5"/><circle class="cls-3" cx="940.06" cy="163.5" r="28.5"/><circle class="cls-2" cx="940.06" cy="94.5" r="16.5"/><circle class="cls-2" cx="439.06" cy="65.5" r="16.5"/><circle class="cls-1" cx="847.06" cy="163.5" r="16.5"/><circle class="cls-1" cx="505.68" cy="130.89" r="39.27"/><circle class="cls-1" cx="685.06" cy="202.5" r="28.5"/><circle class="cls-2" cx="334.06" cy="219.5" r="16.5"/><circle class="cls-1" cx="243.68" cy="175.89" r="39.27"/></g></g></svg>