<svg xmlns="http://www.w3.org/2000/svg" viewBox="0 0 1546.12 234.83"><defs><style>.cls-1{fill:#838ebf;}.cls-1,.cls-2,.cls-3{stroke:#37416b;stroke-miterlimit:8;stroke-width:6px;}.cls-2{fill:#5b69aa;}.cls-3{fill:#6f7cb5;}</style></defs><g id="Слой_2" data-name="Слой 2"><g id="Слой_1-2" data-name="Слой 1"><circle class="cls-1" cx="621.04" cy="220.68" r="11.15"/><circle class="cls-2" cx="203.25" cy="22.25" r="19.25"/><circle class="cls-3" cx="1409.06" cy="73.04" r="28.5"/><circle class="cls-3" cx="1205.31" cy="71.44" r="28.5"/><circle class="cls-2" cx="1314.24" cy="148.84" r="39.27"/><circle class="cls-2" cx="1074.25" cy="134.25" r="19.25"/><circle class="cls-2" cx="1128.3" cy="166.01" r="19.25"/><circle class="cls-1" cx="1083.04" cy="191.68" r="11.15"/><circle class="cls-2" cx="612.25" cy="163.25" r="19.25"/><circle class="cls-2" cx="666.3" cy="195.01" r="19.25"/><circle class="cls-2" cx="22.25" cy="112.25" r="19.25"/><circle class="cls-2" cx="76.3" cy="144.01" r="19.25"/><circle class="cls-1" cx="31.04" cy="169.68" r="11.15"/><circle class="cls-2" cx="257.3" cy="54.01" r="19.25"/><circle class="cls-1" cx="212.04" cy="79.68" r="11.15"/><circle class="cls-3" cx="1519.48" cy="184.78" r="23.65"/><circle class="cls-1" cx="918.88" cy="193.82" r="26.53"/><circle class="cls-2" cx="1501.93" cy="47.18" r="26.53"/><circle class="cls-2" cx="722.35" cy="137.35" r="26.53"/><circle class="cls-1" cx="866.88" cy="83.82" r="26.53"/><circle class="cls-2" cx="569.35" cy="73.35" r="26.53"/></g></g></svg>