<svg xmlns="http://www.w3.org/2000/svg" xmlns:xlink="http://www.w3.org/1999/xlink" viewBox="0 0 1243.79 563.62"><defs><style>.cls-1,.cls-2,.cls-3,.cls-4{fill:none;}.cls-1{clip-rule:evenodd;}.cls-12,.cls-2,.cls-6{fill-rule:evenodd;}.cls-4{stroke:#744770;stroke-linecap:round;stroke-linejoin:round;stroke-width:6px;}.cls-5{clip-path:url(#clip-path);}.cls-6{fill:#cbabc8;}.cls-7{clip-path:url(#clip-path-4);}.cls-24,.cls-35,.cls-8{font-size:47.66px;}.cls-12,.cls-13,.cls-17,.cls-20,.cls-24,.cls-35,.cls-8{fill:#744770;}.cls-13,.cls-17,.cls-24,.cls-35,.cls-8{font-family:Exo2-Medium, "Exo 2";font-weight:500;}.cls-35,.cls-9{letter-spacing:0.03em;}.cls-10{letter-spacing:0.03em;}.cls-11{letter-spacing:0.03em;}.cls-13,.cls-17{font-size:35.7px;}.cls-14{letter-spacing:0.03em;}.cls-15,.cls-17{letter-spacing:0.03em;}.cls-16{letter-spacing:0.03em;}.cls-18{letter-spacing:0.03em;}.cls-19{letter-spacing:0em;}.cls-20{font-size:53.55px;font-family:Exo2-Black, "Exo 2";font-weight:800;}.cls-21{letter-spacing:0em;}.cls-22{clip-path:url(#clip-path-14);}.cls-23{clip-path:url(#clip-path-17);}.cls-24,.cls-31{letter-spacing:0.02em;}.cls-25{letter-spacing:0.03em;}.cls-26{letter-spacing:0.03em;}.cls-27{letter-spacing:0em;}.cls-28{letter-spacing:0.03em;}.cls-29{letter-spacing:0.02em;}.cls-30{letter-spacing:0.03em;}.cls-32{letter-spacing:0.03em;}.cls-33{clip-path:url(#clip-path-34);}.cls-34{clip-path:url(#clip-path-36);}.cls-36{letter-spacing:0.03em;}.cls-37{letter-spacing:0.02em;}.cls-38{letter-spacing:0.03em;}.cls-39{letter-spacing:0em;}</style><clipPath id="clip-path" transform="translate(-32.2 -16.42)"><polygon class="cls-1" points="0 233.67 1015.71 233.67 1015.71 0 0 0 0 233.67 0 233.67"/></clipPath><clipPath id="clip-path-4" transform="translate(-32.2 -16.42)"><rect class="cls-3" width="1015.71" height="233.67"/></clipPath><clipPath id="clip-path-14" transform="translate(-32.2 -16.42)"><polygon class="cls-1" points="0.06 419.41 1277.47 419.41 1277.47 233.76 0.06 233.76 0.06 419.41 0.06 419.41"/></clipPath><clipPath id="clip-path-17" transform="translate(-32.2 -16.42)"><rect class="cls-3" x="0.06" y="233.76" width="1277.41" height="185.65"/></clipPath><clipPath id="clip-path-34" transform="translate(-32.2 -16.42)"><polygon class="cls-1" points="0.51 605.35 1134.21 605.35 1134.21 419.7 0.51 419.7 0.51 605.35 0.51 605.35"/></clipPath><clipPath id="clip-path-36" transform="translate(-32.2 -16.42)"><rect class="cls-3" x="0.51" y="419.7" width="1133.71" height="185.65"/></clipPath></defs><g id="Слой_2" data-name="Слой 2"><g id="Слой_1-2" data-name="Слой 1"><line class="cls-4" x1="888.55" y1="169.11" x2="888.55" y2="94.43"/><g class="cls-5"><line class="cls-4" x1="153.63" y1="170.3" x2="979.03" y2="170.3"/><g class="cls-5"><polygon class="cls-6" points="363.38 95.68 731.82 95.68 769.13 132.99 731.82 170.3 363.38 170.3 363.38 95.68 363.38 95.68"/><polygon class="cls-4" points="363.38 95.68 731.82 95.68 769.13 132.99 731.82 170.3 363.38 170.3 363.38 95.68 363.38 95.68"/><g class="cls-5"><g class="cls-7"><text class="cls-8" transform="translate(478.07 152.08)"><tspan class="cls-9">S</tspan><tspan class="cls-10" x="28.17" y="0">IC</tspan><tspan x="70.78" y="0">1</tspan></text><text class="cls-8" transform="translate(569.46 152.08)"><tspan class="cls-11">Δ</tspan><tspan x="31.22" y="0">N</tspan></text></g><g class="cls-5"><line class="cls-4" x1="179.16" y1="170.36" x2="179.16" y2="95.68"/><g class="cls-5"><line class="cls-4" x1="178.62" y1="94.97" x2="292.89" y2="94.97"/><polygon class="cls-12" points="288.43 81.58 315.2 94.97 288.43 108.36 288.43 81.58 288.43 81.58"/><g class="cls-5"><line class="cls-4" x1="841.96" y1="94.43" x2="935.31" y2="94.43"/><g class="cls-5"><g class="cls-7"><text class="cls-13" transform="translate(175.77 30.17)"><tspan class="cls-14">L</tspan><tspan class="cls-15" x="19.28" y="0">e</tspan><tspan class="cls-16" x="39.45" y="0">x</tspan><tspan x="59.44" y="0">A</tspan></text></g><g class="cls-5"><g class="cls-7"><text class="cls-17" transform="translate(175.77 73.01)">pr<tspan class="cls-14" x="37.13" y="0">omo</tspan><tspan class="cls-16" x="111.75" y="0">t</tspan><tspan class="cls-18" x="126.56" y="0">e</tspan><tspan class="cls-19" x="146.73" y="0">r</tspan></text></g><g class="cls-5"><g class="cls-7"><text class="cls-20" transform="translate(0 175.32)">T<tspan class="cls-21" x="33.36" y="0">U</tspan><tspan x="71.17" y="0">1</tspan></text></g></g></g></g></g></g></g></g></g></g><line class="cls-4" x1="1194.04" y1="354.85" x2="1194.04" y2="280.17"/><g class="cls-22"><line class="cls-4" x1="153.69" y1="356.04" x2="1222.25" y2="356.04"/><g class="cls-22"><polygon class="cls-6" points="363.44 281.42 1110.14 281.42 1147.45 318.73 1110.14 356.04 363.44 356.04 363.44 281.42 363.44 281.42"/><polygon class="cls-4" points="363.44 281.42 1110.14 281.42 1147.45 318.73 1110.14 356.04 363.44 356.04 363.44 281.42 363.44 281.42"/><g class="cls-22"><g class="cls-23"><text class="cls-8" transform="translate(386.11 337.82)"><tspan class="cls-9">L</tspan><tspan class="cls-11" x="25.88" y="0">e</tspan><tspan class="cls-9" x="52.81" y="0">x</tspan><tspan x="79.55" y="0">A</tspan></text></g><g class="cls-22"><g class="cls-23"><text class="cls-24" transform="translate(508.39 337.82)">B<tspan class="cls-25" x="30.84" y="0">D</tspan><tspan class="cls-26" x="63.82" y="0"> </tspan><tspan class="cls-9" x="75.59" y="0"> </tspan><tspan class="cls-27" x="87.5" y="0"> </tspan></text></g><g class="cls-22"><g class="cls-23"><text class="cls-8" transform="translate(619.79 337.82)"><tspan class="cls-28">L</tspan><tspan class="cls-11" x="25.88" y="0">i</tspan><tspan class="cls-10" x="39.23" y="0">n</tspan><tspan class="cls-11" x="68.3" y="0">ker</tspan><tspan class="cls-29" x="141.6" y="0"> </tspan><tspan class="cls-30" x="153.18" y="0"> </tspan><tspan x="165.1" y="0"> </tspan></text></g><g class="cls-22"><g class="cls-23"><text class="cls-8" transform="translate(808.83 337.82)"><tspan class="cls-30">S</tspan><tspan class="cls-10" x="28.17" y="0">RCR</tspan><tspan class="cls-31" x="118.39" y="0" xml:space="preserve">  </tspan><tspan class="cls-30" x="141.93" y="0" xml:space="preserve">  V</tspan><tspan class="cls-31" x="196.27" y="0">P</tspan><tspan class="cls-28" x="225.67" y="0">1</tspan><tspan x="246.17" y="0">6</tspan></text></g><g class="cls-22"><line class="cls-4" x1="179.22" y1="356.1" x2="179.22" y2="281.42"/><g class="cls-22"><line class="cls-4" x1="178.68" y1="280.71" x2="292.95" y2="280.71"/><polygon class="cls-12" points="288.49 267.32 315.26 280.71 288.49 294.1 288.49 267.32 288.49 267.32"/><g class="cls-22"><line class="cls-4" x1="1147.45" y1="280.17" x2="1240.79" y2="280.17"/><g class="cls-22"><g class="cls-23"><text class="cls-17" transform="translate(189.48 263.79)">G<tspan class="cls-32" x="23.38" y="0">A</tspan><tspan class="cls-14" x="46.77" y="0">L</tspan><tspan class="cls-19" x="66.05" y="0">1</tspan></text></g><g class="cls-22"><g class="cls-23"><text class="cls-20" transform="translate(0.09 361.04)">T<tspan class="cls-21" x="33.36" y="0">U</tspan><tspan x="71.17" y="0">2</tspan></text></g><g class="cls-22"><line class="cls-4" x1="782.57" y1="356.1" x2="782.57" y2="281.42"/><g class="cls-22"><line class="cls-4" x1="594.43" y1="356.1" x2="594.43" y2="281.42"/><g class="cls-22"><line class="cls-4" x1="949.12" y1="356.1" x2="949.12" y2="281.42"/></g></g></g></g></g></g></g></g></g></g></g></g></g></g><line class="cls-4" x1="154.13" y1="542.16" x2="1097.55" y2="542.16"/><g class="cls-33"><polygon class="cls-6" points="363.88 467.37 852.91 467.37 890.3 504.77 852.91 542.16 363.88 542.16 363.88 467.37 363.88 467.37"/><polygon class="cls-4" points="363.88 467.37 852.91 467.37 890.3 504.77 852.91 542.16 363.88 542.16 363.88 467.37 363.88 467.37"/><g class="cls-33"><g class="cls-34"><text class="cls-35" transform="translate(398.37 523.86)">L<tspan class="cls-11" x="25.88" y="0">i</tspan><tspan class="cls-25" x="39.23" y="0">g</tspan><tspan class="cls-26" x="67.25" y="0">a</tspan><tspan class="cls-25" x="94.7" y="0">nd</tspan><tspan class="cls-31" x="152.47" y="0"> </tspan><tspan class="cls-30" x="164.24" y="0" xml:space="preserve">  </tspan><tspan class="cls-26" x="188.07" y="0"> </tspan><tspan class="cls-30" x="199.84" y="0" xml:space="preserve">  </tspan><tspan class="cls-36" x="223.67" y="0" xml:space="preserve"> P</tspan><tspan class="cls-11" x="264.85" y="0">r</tspan><tspan class="cls-31" x="285.34" y="0">o</tspan><tspan class="cls-10" x="313.7" y="0">t</tspan><tspan class="cls-11" x="333.48" y="0">e</tspan><tspan class="cls-37" x="360.41" y="0">a</tspan><tspan class="cls-38" x="387.86" y="0">s</tspan><tspan class="cls-39" x="413.36" y="0">e</tspan></text></g><g class="cls-33"><line class="cls-4" x1="179.66" y1="542.05" x2="179.66" y2="467.37"/><g class="cls-33"><line class="cls-4" x1="179.3" y1="466.83" x2="293.57" y2="466.83"/><polygon class="cls-12" points="289.11 453.44 315.89 466.83 289.11 480.22 289.11 453.44 289.11 453.44"/><g class="cls-33"><g class="cls-34"><text class="cls-17" transform="translate(189.94 449.81)">G<tspan class="cls-32" x="23.38" y="0">A</tspan><tspan class="cls-14" x="46.77" y="0">L</tspan><tspan class="cls-19" x="66.05" y="0">1</tspan></text></g><g class="cls-33"><g class="cls-34"><text class="cls-20" transform="translate(0.53 547.07)">T<tspan class="cls-21" x="33.36" y="0">U</tspan><tspan x="71.17" y="0">3</tspan></text></g><g class="cls-33"><line class="cls-4" x1="583.27" y1="542.05" x2="583.27" y2="467.37"/><g class="cls-33"><line class="cls-4" x1="1002.94" y1="542.05" x2="1002.94" y2="467.37"/><g class="cls-33"><line class="cls-4" x1="956.17" y1="467.37" x2="1049.52" y2="467.37"/></g></g></g></g></g></g></g></g></g></g></g></svg>