<svg id="Слой_1" data-name="Слой 1" xmlns="http://www.w3.org/2000/svg" xmlns:xlink="http://www.w3.org/1999/xlink" viewBox="0 0 1246.04 551.66"><defs><style>.cls-1,.cls-2{fill:none;}.cls-2{stroke:#744770;stroke-linecap:round;stroke-linejoin:round;stroke-width:6px;}.cls-3{clip-path:url(#clip-path);}.cls-4{fill:#cbabc8;}.cls-4,.cls-8{fill-rule:evenodd;}.cls-5{clip-path:url(#clip-path-4);}.cls-6{isolation:isolate;}.cls-7,.cls-8{fill:#744770;}.cls-9{clip-path:url(#clip-path-14);}.cls-10{clip-path:url(#clip-path-17);}.cls-11{clip-path:url(#clip-path-29);}.cls-12{clip-path:url(#clip-path-31);}</style><clipPath id="clip-path" transform="translate(-0.76 -5.63)"><polygon class="cls-1" points="-32.79 220.9 1000.63 220.9 1000.63 -16.66 -32.79 -16.66 -32.79 220.9 -32.79 220.9"/></clipPath><clipPath id="clip-path-4" transform="translate(-0.76 -5.63)"><rect class="cls-1" x="-32.79" y="-16.66" width="1033.42" height="237.56"/></clipPath><clipPath id="clip-path-14" transform="translate(-0.76 -5.63)"><polygon class="cls-1" points="-32.46 409.97 1248.52 409.97 1248.52 221.08 -32.46 221.08 -32.46 409.97 -32.46 409.97"/></clipPath><clipPath id="clip-path-17" transform="translate(-0.76 -5.63)"><rect class="cls-1" x="-32.46" y="221.08" width="1280.97" height="188.89"/></clipPath><clipPath id="clip-path-29" transform="translate(-0.76 -5.63)"><polygon class="cls-1" points="-32.27 599.16 1121.2 599.16 1121.2 410.27 -32.27 410.27 -32.27 599.16 -32.27 599.16"/></clipPath><clipPath id="clip-path-31" transform="translate(-0.76 -5.63)"><rect class="cls-1" x="-32.28" y="410.27" width="1153.48" height="188.89"/></clipPath></defs><g id="Слой_2" data-name="Слой 2"><g id="Слой_1-2" data-name="Слой 1-2"><line class="cls-2" x1="903.25" y1="166.48" x2="903.25" y2="90.5"/><g class="cls-3"><line class="cls-2" x1="155.51" y1="167.69" x2="995.3" y2="167.69"/><g class="cls-3"><polygon class="cls-4" points="368.92 91.77 743.97 91.77 781.92 129.73 743.97 167.69 368.92 167.69 368.92 91.77 368.92 91.77"/><polygon class="cls-2" points="368.92 91.77 743.97 91.77 781.92 129.73 743.97 167.69 368.92 167.69 368.92 91.77 368.92 91.77"/><g class="cls-3"><g class="cls-5"><g class="cls-6"><g class="cls-6"><path class="cls-7" d="M510,121.71l-.29,3.54c-2.81-.1-6.45-.25-9.6-.25-4.56,0-6.3.2-6.3,4.66,0,3.44,1.21,4.36,4,5.09l6.65,1.84c5.18,1.41,6.79,4.51,6.79,9.51,0,7.71-3.35,9.21-11.4,9.21a55.87,55.87,0,0,1-10.52-1l.34-3.59c6.06.2,7.75.25,10.28.25,4.89-.05,6.35-.78,6.35-4.95,0-3.64-1.26-4.41-4-5.14L495.59,139c-4.89-1.36-6.64-4.41-6.64-9.51,0-7.75,3.44-8.82,11-8.82A42.81,42.81,0,0,1,510,121.71Z" transform="translate(-0.76 -5.63)"/></g><g class="cls-6"><path class="cls-7" d="M519.11,154.73V121.27H524v33.46Z" transform="translate(-0.76 -5.63)"/><path class="cls-7" d="M554.8,121.66l-.48,3.73a76.36,76.36,0,0,0-8.78-.39c-6.16,0-8.15,3.16-8.15,13s2,13,8.15,13a56.71,56.71,0,0,0,9.46-.54l.48,3.69a33.16,33.16,0,0,1-9.94,1.16c-9.75,0-13.24-4.56-13.24-17.31s3.49-17.31,13.24-17.31A34.61,34.61,0,0,1,554.8,121.66Z" transform="translate(-0.76 -5.63)"/></g><g class="cls-6"><path class="cls-7" d="M567.75,154.73V128.84a16.08,16.08,0,0,1,.24-3l-8,2.47-.58-3.64,8.39-3.39h4.85v33.46Z" transform="translate(-0.76 -5.63)"/></g></g><g class="cls-6"><g class="cls-6"><path class="cls-7" d="M608.74,154.73H580.47v-1.94l11.68-31.52h4.9l11.69,31.52ZM593.51,129.9l-7.42,20.9H603l-7.32-21a40,40,0,0,1-1.07-3.88C594.24,127.28,593.9,128.59,593.51,129.9Z" transform="translate(-0.76 -5.63)"/></g><g class="cls-6"><path class="cls-7" d="M641.37,152.84c0,1.26-.63,1.89-1.79,1.89H635a2.08,2.08,0,0,1-2.09-1.5l-10.42-22.79a37.3,37.3,0,0,1-2-4.66h-.68a38.7,38.7,0,0,1,.24,4.66v24.29h-4.85V123.16a1.68,1.68,0,0,1,1.85-1.89h4.46a2.17,2.17,0,0,1,2.13,1.5L633.76,145c.63,1.36,1.6,3.3,2.32,5h.73c-.14-1.75-.24-3.45-.24-5.19V121.27h4.8Z" transform="translate(-0.76 -5.63)"/></g></g></g><g class="cls-3"><line class="cls-2" x1="181.48" y1="167.75" x2="181.48" y2="91.77"/><g class="cls-3"><line class="cls-2" x1="181.12" y1="91.05" x2="297.38" y2="91.05"/><polygon class="cls-8" points="292.84 77.42 320.09 91.04 292.84 104.67 292.84 77.42 292.84 77.42"/><g class="cls-3"><line class="cls-2" x1="855.84" y1="90.5" x2="950.82" y2="90.5"/><g class="cls-3"><g class="cls-5"><g class="cls-6"><g class="cls-6"><path class="cls-7" d="M185.43,25.31c0,1.71.62,2.33,2.29,2.33h8.89l.19,2.8c-3.13.29-6.43.32-9.66.32-4,0-5.34-2.1-5.34-4.94V5.63h3.63Z" transform="translate(-0.76 -5.63)"/></g><g class="cls-6"><path class="cls-7" d="M215.54,27.75l.33,2.32a20.65,20.65,0,0,1-7,1.06c-6.17,0-8.53-2.51-8.53-9.34,0-7,2.47-9.29,8.21-9.29,5.52,0,7.77,2.07,7.77,5.95,0,3.2-1.35,5.09-4.32,5.09h-8c.37,3.85,1.89,4.64,5.3,4.64A60.79,60.79,0,0,0,215.54,27.75ZM204,20.81H211c1.49,0,1.74-1.27,1.74-2.36,0-2.14-1.05-3-4.06-3C205.27,15.47,204.1,16.6,204,20.81Z" transform="translate(-0.76 -5.63)"/></g><g class="cls-6"><path class="cls-7" d="M228.29,22.85l-4.79,7.84h-3.81l5.81-9.15L220.12,13h3.78l4.32,7.15h.8L233.34,13h3.78l-5.34,8.57,5.81,9.15h-3.81L229,22.85Z" transform="translate(-0.76 -5.63)"/></g><g class="cls-6"><path class="cls-7" d="M245.66,23.14l-2.33,7.55h-3.7l7.84-24.08a1.33,1.33,0,0,1,1.34-1h3.71a1.29,1.29,0,0,1,1.31,1l7.88,24.08H258l-2.33-7.55Zm6.1-12.68c-.19-.65-.44-1.38-.62-2h-1l-.58,2L246.64,20h8Z" transform="translate(-0.76 -5.63)"/></g></g></g><g class="cls-3"><g class="cls-5"><g class="cls-6"><g class="cls-6"><path class="cls-7" d="M198.1,65.53c0,6.86-2.25,9.19-6.75,9.19a12,12,0,0,1-6.43-1.78,28.71,28.71,0,0,1,.11,3.59v5h-3.49v-25h2.91l.25,2.72a11,11,0,0,1,7.38-3.19C196.36,56.09,198.1,59.46,198.1,65.53Zm-3.63,0c0-4.76-1-6.35-3.59-6.35-1.86,0-3.53.87-5.85,2.57v9a22,22,0,0,0,5.37,1C193.35,71.67,194.47,70.54,194.47,65.49Z" transform="translate(-0.76 -5.63)"/><path class="cls-7" d="M214.81,59.39h-1.09c-1.89,0-3.63.76-6.35,2V74.28h-3.53V56.56h2.73l.36,2.72c2.51-2,5.09-3.19,7.45-3.19h.83Z" transform="translate(-0.76 -5.63)"/></g><g class="cls-6"><path class="cls-7" d="M235.41,65.46c0,6.75-2.29,9.29-8.46,9.29s-8.46-2.54-8.46-9.29,2.29-9.37,8.46-9.37S235.41,58.66,235.41,65.46Zm-13.25,0c0,4.9,1.12,6.35,4.79,6.35s4.79-1.45,4.79-6.35-1.12-6.4-4.79-6.4S222.16,60.48,222.16,65.46Z" transform="translate(-0.76 -5.63)"/><path class="cls-7" d="M267.55,61V74.28H264.1V62c0-2.07-.69-2.95-2.58-2.95-1.7,0-2.86.73-5.48,2.62v12.6h-3.38V62c0-2.18-.83-2.95-2.57-2.95s-2.84.69-5.49,2.58V74.28h-3.48V56.56H244l.18,2.69c2.36-2,4.65-3.16,7.12-3.16s3.92,1,4.5,3.08c2.36-2.07,4.62-3.08,7-3.08C265.88,56.09,267.55,57.79,267.55,61Z" transform="translate(-0.76 -5.63)"/><path class="cls-7" d="M290.07,65.46c0,6.75-2.28,9.29-8.46,9.29s-8.46-2.54-8.46-9.29,2.29-9.37,8.46-9.37S290.07,58.66,290.07,65.46Zm-13.25,0c0,4.9,1.12,6.35,4.79,6.35s4.79-1.45,4.79-6.35-1.12-6.4-4.79-6.4S276.82,60.48,276.82,65.46Z" transform="translate(-0.76 -5.63)"/></g><g class="cls-6"><path class="cls-7" d="M300.14,69.16c0,1.67.61,2.25,2.32,2.25H305l.4,2.72a19.44,19.44,0,0,1-4.18.48c-3,0-4.61-1.78-4.61-5V59.28h-3.23V56.74l3.23-.18V51.37h3.49v5.19h5.48v2.72h-5.48Z" transform="translate(-0.76 -5.63)"/></g><g class="cls-6"><path class="cls-7" d="M324.69,71.34l.33,2.32a20.65,20.65,0,0,1-7,1.06c-6.17,0-8.53-2.51-8.53-9.34,0-7,2.47-9.29,8.21-9.29,5.52,0,7.77,2.07,7.77,5.95,0,3.2-1.35,5.09-4.32,5.09h-8c.37,3.85,1.89,4.64,5.3,4.64A60.79,60.79,0,0,0,324.69,71.34ZM313.11,64.4h7.08c1.49,0,1.74-1.27,1.74-2.36,0-2.14-1.05-3-4.06-3C314.42,59.06,313.25,60.19,313.11,64.4Z" transform="translate(-0.76 -5.63)"/></g><g class="cls-6"><path class="cls-7" d="M341.8,59.39h-1.09c-1.89,0-3.63.76-6.35,2V74.28h-3.53V56.56h2.73l.36,2.72c2.51-2,5.08-3.19,7.45-3.19h.83Z" transform="translate(-0.76 -5.63)"/></g></g></g><g class="cls-3"><g class="cls-5"><g class="cls-6"><g class="cls-6"><path class="cls-7" d="M21.8,148.68v29.7H11.55v-29.7H.76v-7.9H32.64v7.9Z" transform="translate(-0.76 -5.63)"/></g><g class="cls-6"><path class="cls-7" d="M68.76,163.12c0,11.72-4.09,16-15.37,16-12.09,0-16.45-4.3-16.45-16V140.78H47.18v22.34c0,6.43,1.31,8.18,5.67,8.18s5.66-1.75,5.66-8.18V140.78H68.76Z" transform="translate(-0.76 -5.63)"/></g><g class="cls-6"><path class="cls-7" d="M82.27,178.38v-24.9a21.43,21.43,0,0,1,.38-4.47l-8.71,2-1.2-6.48,9.53-3.71H92.46v37.6Z" transform="translate(-0.76 -5.63)"/></g></g></g></g></g></g></g></g></g></g></g></g><line class="cls-2" x1="1138.78" y1="355.55" x2="1138.78" y2="279.57"/><g class="cls-9"><line class="cls-2" x1="155.85" y1="356.76" x2="1243.04" y2="356.76"/><g class="cls-9"><polygon class="cls-4" points="369.25 280.84 986.04 280.84 1023.99 318.8 986.04 356.76 369.25 356.76 369.25 280.84 369.25 280.84"/><polygon class="cls-2" points="369.25 280.84 986.04 280.84 1023.99 318.8 986.04 356.76 369.25 356.76 369.25 280.84 369.25 280.84"/><g class="cls-9"><g class="cls-10"><g class="cls-6"><g class="cls-6"><path class="cls-7" d="M401.91,336.63c0,2.28.82,3.11,3,3.11h11.88l.24,3.73c-4.17.39-8.58.44-12.89.44-5.34,0-7.13-2.82-7.13-6.6v-27h4.85Z" transform="translate(-0.76 -5.63)"/></g><g class="cls-6"><path class="cls-7" d="M442.25,339.88l.44,3.11c-2.33,1-6.55,1.4-9.36,1.4-8.25,0-11.4-3.34-11.4-12.46,0-9.36,3.3-12.42,11-12.42,7.37,0,10.38,2.77,10.38,8,0,4.27-1.8,6.79-5.77,6.79H426.88c.48,5.14,2.52,6.2,7.08,6.2A82.59,82.59,0,0,0,442.25,339.88Zm-15.47-9.26h9.46c2,0,2.32-1.7,2.32-3.15,0-2.86-1.4-4-5.43-4C428.53,323.49,427,325,426.78,330.62Z" transform="translate(-0.76 -5.63)"/></g><g class="cls-6"><path class="cls-7" d="M459.27,333.33l-6.4,10.48h-5.09l7.76-12.22-7.18-11.44h5l5.78,9.55h1.06l5.77-9.55h5.05l-7.13,11.44,7.76,12.22H466.6l-6.41-10.48Z" transform="translate(-0.76 -5.63)"/></g><g class="cls-6"><path class="cls-7" d="M482.5,333.72l-3.11,10.09h-4.94l10.47-32.15a1.77,1.77,0,0,1,1.79-1.31h5a1.72,1.72,0,0,1,1.75,1.31l10.52,32.15h-5l-3.11-10.09Zm8.14-16.92c-.24-.87-.58-1.84-.82-2.72h-1.31l-.78,2.72-3.92,12.7h10.71Z" transform="translate(-0.76 -5.63)"/></g></g></g><g class="cls-9"><g class="cls-10"><g class="cls-6"><g class="cls-6"><path class="cls-7" d="M538.25,326.55c5,.43,6.7,3.58,6.7,8.92,0,6.88-3.06,8.73-10.77,8.73-5.77,0-8.73-.05-12.61-.39V310.35a103.93,103.93,0,0,1,11.16-.39c8.24,0,11.2,1.84,11.2,8.73,0,4.8-1.65,7.27-5.68,7.66Zm-11.92-12.47v10.53h6.78c4.56,0,6.16-1.07,6.16-5.34s-1.74-5.19-6.79-5.19Zm7.12,26c5,0,6.6-1,6.6-5.44,0-4.94-1.7-6.25-6.89-6.3h-6.83V340Z" transform="translate(-0.76 -5.63)"/></g><g class="cls-6"><path class="cls-7" d="M578.26,327.08c0,13-3.49,17.17-13.24,17.17-4.66,0-8.54-.2-12.08-.44V310.35c3.54-.24,7.37-.44,12.08-.44C574.77,309.91,578.26,314.08,578.26,327.08Zm-5.14,0c0-9.75-2-12.95-8.1-12.95-2.77,0-5.09.05-7.23.1v25.7c2.09.05,4.51.1,7.23.1C571.13,340,573.12,336.83,573.12,327.08Z" transform="translate(-0.76 -5.63)"/></g><g class="cls-6"><path class="cls-7" d="M651.68,336.63c0,2.28.82,3.11,3.05,3.11h11.88l.24,3.73c-4.17.39-8.58.44-12.89.44-5.34,0-7.13-2.82-7.13-6.6v-27h4.85Z" transform="translate(-0.76 -5.63)"/></g><g class="cls-6"><path class="cls-7" d="M676.35,310.06a1.22,1.22,0,0,1,1.36,1.36v2.71c0,.92-.43,1.41-1.36,1.41h-2.23c-.92,0-1.35-.49-1.35-1.41v-2.71a1.22,1.22,0,0,1,1.35-1.36Zm-3.44,33.75V320.15h4.66v23.66Z" transform="translate(-0.76 -5.63)"/></g><g class="cls-6"><path class="cls-7" d="M707.44,326.06v17.75h-4.7V327.42c0-3-.78-3.93-3-3.93-2.67,0-5.14,1.36-8.78,3.54l0,16.78h-4.7V320.15h4l.29,3.58c3.5-2.61,7-4.22,10.48-4.22C705.21,319.51,707.44,321.79,707.44,326.06Z" transform="translate(-0.76 -5.63)"/></g><g class="cls-6"><path class="cls-7" d="M720.34,332.17a34.06,34.06,0,0,1,.24,3.69v7.95h-4.7V309.87h4.7l0,14.88a27.19,27.19,0,0,1-.29,4h3l7.08-8.63h5.43l-7.13,8.58a9.83,9.83,0,0,1-1.75,1.74v.1a9.64,9.64,0,0,1,1.75,2l7.9,11.2h-5.43l-7.85-11.64Z" transform="translate(-0.76 -5.63)"/><path class="cls-7" d="M760.78,339.88l.44,3.11c-2.33,1-6.55,1.4-9.36,1.4-8.25,0-11.4-3.34-11.4-12.46,0-9.36,3.3-12.42,11-12.42,7.37,0,10.38,2.77,10.38,8,0,4.27-1.8,6.79-5.77,6.79H745.41c.48,5.14,2.52,6.2,7.08,6.2A82.59,82.59,0,0,0,760.78,339.88Zm-15.47-9.26h9.46c2,0,2.32-1.7,2.32-3.15,0-2.86-1.4-4-5.43-4C747.06,323.49,745.5,325,745.31,330.62Z" transform="translate(-0.76 -5.63)"/><path class="cls-7" d="M783.76,323.93h-1.45c-2.52,0-4.85,1-8.49,2.71v17.17h-4.7V320.15h3.64l.48,3.63c3.35-2.66,6.79-4.27,9.94-4.27h1.12Z" transform="translate(-0.76 -5.63)"/></g><g class="cls-6"><path class="cls-7" d="M878,342.45a1.93,1.93,0,0,1-1.85,1.36h-4.75a1.93,1.93,0,0,1-1.84-1.36l-9.89-32.1h5l7.57,26c.34,1.21.63,2.47.92,3.69h1.31c.24-1.22.58-2.48.92-3.69l7.51-26h5Z" transform="translate(-0.76 -5.63)"/></g><g class="cls-6"><path class="cls-7" d="M916.63,320.48c0,8.35-2.71,10.62-10.38,10.62a65.7,65.7,0,0,1-7.37-.43v13.14H894V310.35a97.69,97.69,0,0,1,11.64-.44C913.92,309.91,916.63,312.24,916.63,320.48Zm-11.06,6.45c4.66,0,6.16-1.35,6.16-6.45s-1.5-6.4-6.16-6.4c-2.57,0-4.85,0-6.69.05v12.8Z" transform="translate(-0.76 -5.63)"/></g><g class="cls-6"><path class="cls-7" d="M929.24,343.81V317.92a16.08,16.08,0,0,1,.24-3l-8.05,2.47-.58-3.64,8.39-3.39h4.85v33.46Z" transform="translate(-0.76 -5.63)"/></g><g class="cls-6"><path class="cls-7" d="M966,332.85c0,6.94-1.6,11.54-10.71,11.54-9.56,0-11.45-3.78-11.45-16.68,0-15.57,4.27-17.94,13.1-17.94a27.4,27.4,0,0,1,6.93.73l-.39,3.54c-2.18-.15-3.54-.15-6.54-.15-5.77,0-8,1.55-8.3,11.25,2.28-2.47,4.56-3.25,8.15-3.25C963.86,321.89,966,324.8,966,332.85Zm-4.6,0c0-5.09-1.21-7-5.87-7-2.57,0-4.36.63-6.93,2.76,0,9.07.58,11.64,6.74,11.64C960.71,340.22,961.39,337.65,961.39,332.85Z" transform="translate(-0.76 -5.63)"/></g></g></g><g class="cls-9"><line class="cls-2" x1="181.82" y1="356.82" x2="181.82" y2="280.84"/><g class="cls-9"><line class="cls-2" x1="181.45" y1="280.11" x2="297.72" y2="280.11"/><polygon class="cls-8" points="293.18 266.49 320.42 280.11 293.18 293.73 293.18 266.49 293.18 266.49"/><g class="cls-9"><line class="cls-2" x1="1091.19" y1="279.57" x2="1186.17" y2="279.57"/><g class="cls-9"><g class="cls-10"><g class="cls-6"><g class="cls-6"><path class="cls-7" d="M213.52,268.48h-2.69l-.36-2.51a10.94,10.94,0,0,1-7.44,3c-5.56,0-7.85-4.1-7.85-13.11,0-10,2.8-12.89,10.68-12.89a29.32,29.32,0,0,1,7,.76l-.36,2.76c-2.29-.22-4.76-.29-6.39-.29-5.23,0-7.05,1.24-7.05,9.92,0,7.19,1.27,9.69,5,9.69a10.34,10.34,0,0,0,5.92-2.21V254h3.56Z" transform="translate(-0.76 -5.63)"/></g><g class="cls-6"><path class="cls-7" d="M223.19,260.93l-2.33,7.55h-3.7L225,244.4a1.33,1.33,0,0,1,1.34-1h3.71a1.29,1.29,0,0,1,1.31,1l7.88,24.08H235.5l-2.33-7.55Zm6.1-12.68c-.19-.65-.44-1.38-.62-2h-1l-.58,2-2.94,9.52h8Z" transform="translate(-0.76 -5.63)"/></g><g class="cls-6"><path class="cls-7" d="M247.23,263.1c0,1.71.62,2.33,2.29,2.33h8.9l.18,2.8c-3.13.29-6.43.32-9.66.32-4,0-5.34-2.1-5.34-4.94V243.42h3.63Z" transform="translate(-0.76 -5.63)"/></g><g class="cls-6"><path class="cls-7" d="M267.25,268.48V249.09a12.13,12.13,0,0,1,.18-2.25l-6,1.85L261,246l6.28-2.54h3.63v25.06Z" transform="translate(-0.76 -5.63)"/></g></g></g><g class="cls-9"><g class="cls-10"><g class="cls-6"><g class="cls-6"><path class="cls-7" d="M22.12,337.74v29.7H11.87v-29.7H1.08v-7.9H33v7.9Z" transform="translate(-0.76 -5.63)"/></g><g class="cls-6"><path class="cls-7" d="M69.08,352.18c0,11.72-4.09,16-15.37,16-12.09,0-16.45-4.3-16.45-16V329.84H47.5v22.34c0,6.43,1.31,8.18,5.67,8.18s5.66-1.75,5.66-8.18V329.84H69.08Z" transform="translate(-0.76 -5.63)"/></g><g class="cls-6"><path class="cls-7" d="M101.88,338.29c0,4.09-.92,6.54-5.88,11.71l-9.27,9.1a21.82,21.82,0,0,1,5.29-.49h10.84v8.83h-28V362.1A5.56,5.56,0,0,1,76.27,358l8.45-8.71c4.25-4.31,6.75-7.69,6.7-9.81,0-1.58-1.25-1.75-4.14-1.75-3.87,0-6.59,0-11.77.28l-.38-7.58a63.52,63.52,0,0,1,13.46-1.25C96.6,329.19,101.88,330.93,101.88,338.29Z" transform="translate(-0.76 -5.63)"/></g></g></g><g class="cls-9"><line class="cls-2" x1="813.13" y1="356.82" x2="813.13" y2="280.84"/><g class="cls-9"><line class="cls-2" x1="604.27" y1="356.82" x2="604.27" y2="280.84"/></g></g></g></g></g></g></g></g></g></g></g><line class="cls-2" x1="156.03" y1="545.76" x2="1115.89" y2="545.76"/><g class="cls-11"><polygon class="cls-4" points="369.43 469.85 867.07 469.85 905.03 507.8 867.07 545.76 369.43 545.76 369.43 469.85 369.43 469.85"/><polygon class="cls-2" points="369.43 469.85 867.07 469.85 905.03 507.8 867.07 545.76 369.43 545.76 369.43 469.85 369.43 469.85"/><g class="cls-11"><g class="cls-12"><g class="cls-6"><g class="cls-6"><path class="cls-7" d="M414.11,525.7c0,2.28.82,3.11,3.05,3.11H429l.24,3.73c-4.17.39-8.58.44-12.9.44-5.33,0-7.12-2.82-7.12-6.6v-27h4.85Z" transform="translate(-0.76 -5.63)"/></g><g class="cls-6"><path class="cls-7" d="M438.88,499.13a1.22,1.22,0,0,1,1.36,1.36v2.71c0,.92-.43,1.41-1.36,1.41h-2.23c-.92,0-1.35-.49-1.35-1.41v-2.71a1.22,1.22,0,0,1,1.35-1.36Zm-3.44,33.75V509.22h4.66v23.66Z" transform="translate(-0.76 -5.63)"/></g><g class="cls-6"><path class="cls-7" d="M467.79,512.08a8.54,8.54,0,0,1,.82,4.12c0,5.28-2.57,7.56-10.28,7.56a25.77,25.77,0,0,1-4.7-.38c-.88,1.35-.73,3.34,1.5,3.68l8.73,1.36c4.56.68,6.21,2.76,6.21,6.74,0,5.62-2.82,7.42-11.45,7.42S447,540.78,447,535.3c0-2.66,1.17-4,3.78-5.43-2.32-1.89-1.79-5.77.34-7.37-2.23-1.16-3.1-3.2-3.1-6.25,0-5.48,2.52-7.67,10.33-7.67a20.12,20.12,0,0,1,5.67.64h7.33l-.25,2.52Zm-6.35,19.78-7.62-1c-1.45,1.21-2.23,2.28-2.23,4,0,3.2,1.36,3.68,7,3.68s6.89-.63,6.89-3.68C465.46,532.64,464.73,532.35,461.44,531.86Zm2.81-15.66c0-3-1.46-4-5.92-4s-6,1-6,4,1.5,4,6,4S464.25,519.11,464.25,516.2Z" transform="translate(-0.76 -5.63)"/></g><g class="cls-6"><path class="cls-7" d="M497,516.39v16.49h-3.69l-.53-3.73a13.65,13.65,0,0,1-9.46,4.17c-4.31,0-7.22-2.38-7.22-6.7v-2.47c0-3.78,2.42-5.91,6.69-5.91h9.5v-1.85c0-2.91-1.06-3.83-4.7-3.83-2.33,0-6.35.29-10,.58l-.44-3.44a77.85,77.85,0,0,1,11.5-1.12C494.07,508.58,497,510.43,497,516.39ZM480.83,526c0,2.33,1.07,3.3,3.44,3.3a12.6,12.6,0,0,0,8-3.35v-4.21h-8.63c-2.18.09-2.81,1.21-2.81,3Z" transform="translate(-0.76 -5.63)"/></g><g class="cls-6"><path class="cls-7" d="M526.41,515.13v17.75h-4.7V516.49c0-3-.78-3.93-3-3.93-2.67,0-5.14,1.36-8.78,3.54l.05,16.78h-4.7V509.22h4l.29,3.58c3.5-2.61,7-4.22,10.48-4.22C524.18,508.58,526.41,510.86,526.41,515.13Z" transform="translate(-0.76 -5.63)"/><path class="cls-7" d="M555.55,532.88h-3.68l-.39-3.25a14.62,14.62,0,0,1-9.31,3.83c-6,0-8.29-4.36-8.29-12.51,0-9.31,3-12.37,9-12.37a16.17,16.17,0,0,1,8.14,2.14c-.14-1.55-.19-3-.19-4.66v-7.12h4.7Zm-11.78-3.49c2.52,0,4-.87,7.08-3V513.82a25.19,25.19,0,0,0-6.79-1.16c-3.88,0-5.34,1.5-5.34,8.24S540.18,529.39,543.77,529.39Z" transform="translate(-0.76 -5.63)"/></g><g class="cls-6"><path class="cls-7" d="M671.25,509.55c0,8.35-2.71,10.62-10.37,10.62a65.4,65.4,0,0,1-7.37-.43v13.14h-4.85V499.42a97.51,97.51,0,0,1,11.63-.44C668.54,499,671.25,501.31,671.25,509.55Zm-11,6.45c4.65,0,6.16-1.35,6.16-6.45s-1.51-6.4-6.16-6.4c-2.57,0-4.85,0-6.69.05V516Z" transform="translate(-0.76 -5.63)"/></g><g class="cls-6"><path class="cls-7" d="M693,513h-1.45c-2.53,0-4.85,1-8.49,2.71v17.17h-4.7V509.22H682l.49,3.63c3.35-2.66,6.79-4.27,9.94-4.27h1.11Z" transform="translate(-0.76 -5.63)"/></g><g class="cls-6"><path class="cls-7" d="M720.72,521.1c0,9-3.06,12.41-11.3,12.41s-11.3-3.39-11.3-12.41,3.06-12.52,11.3-12.52S720.72,512,720.72,521.1Zm-17.7,0c0,6.54,1.5,8.48,6.4,8.48s6.4-1.94,6.4-8.48-1.5-8.54-6.4-8.54S703,514.45,703,521.1Z" transform="translate(-0.76 -5.63)"/></g><g class="cls-6"><path class="cls-7" d="M734.63,526c0,2.23.83,3,3.11,3h3.44l.53,3.64a26.56,26.56,0,0,1-5.57.63c-4,0-6.16-2.38-6.16-6.65V512.85h-4.32v-3.39l4.32-.24v-6.94h4.65v6.94H742v3.63h-7.33Z" transform="translate(-0.76 -5.63)"/></g><g class="cls-6"><path class="cls-7" d="M767.42,529l.44,3.11c-2.33,1-6.55,1.4-9.36,1.4-8.25,0-11.4-3.34-11.4-12.46,0-9.36,3.3-12.42,11-12.42,7.37,0,10.38,2.77,10.38,8,0,4.27-1.8,6.79-5.77,6.79H752.05c.48,5.14,2.52,6.2,7.08,6.2A82.59,82.59,0,0,0,767.42,529ZM752,519.69h9.46c2,0,2.32-1.7,2.32-3.15,0-2.86-1.4-4-5.43-4C753.7,512.56,752.14,514.06,752,519.69Z" transform="translate(-0.76 -5.63)"/></g><g class="cls-6"><path class="cls-7" d="M795.25,516.39v16.49h-3.69l-.53-3.73a13.65,13.65,0,0,1-9.46,4.17c-4.31,0-7.22-2.38-7.22-6.7v-2.47c0-3.78,2.42-5.91,6.69-5.91h9.5v-1.85c0-2.91-1.06-3.83-4.7-3.83-2.33,0-6.35.29-10,.58l-.44-3.44a77.85,77.85,0,0,1,11.5-1.12C792.34,508.58,795.25,510.43,795.25,516.39ZM779.1,526c0,2.33,1.07,3.3,3.44,3.3a12.62,12.62,0,0,0,8-3.35v-4.21h-8.63c-2.18.09-2.81,1.21-2.81,3Z" transform="translate(-0.76 -5.63)"/></g><g class="cls-6"><path class="cls-7" d="M821.68,509.41l-.39,3.39c-2.95-.09-6-.24-9-.24-4.21,0-5.52.05-5.52,2.62,0,2.28,1.11,2.47,3.34,3.1l6.69,1.65c3.84,1,5.53,2.52,5.53,6.65,0,5.81-3.2,6.83-10.28,6.83a62.45,62.45,0,0,1-9.41-.68l.34-3.49c2.19.2,5,.25,8.1.25,5.19,0,6.69-.49,6.69-2.91,0-2.19-1.35-2.43-3.59-3l-6.59-1.65c-3.93-1-5.38-2.86-5.38-6.74,0-5.38,2.76-6.64,9.36-6.6A75.16,75.16,0,0,1,821.68,509.41Z" transform="translate(-0.76 -5.63)"/></g><g class="cls-6"><path class="cls-7" d="M848.69,529l.44,3.11c-2.33,1-6.55,1.4-9.36,1.4-8.25,0-11.4-3.34-11.4-12.46,0-9.36,3.3-12.42,11-12.42,7.37,0,10.38,2.77,10.38,8,0,4.27-1.8,6.79-5.77,6.79H833.32c.48,5.14,2.52,6.2,7.08,6.2A82.59,82.59,0,0,0,848.69,529Zm-15.47-9.26h9.46c2,0,2.32-1.7,2.32-3.15,0-2.86-1.4-4-5.43-4C835,512.56,833.42,514.06,833.22,519.69Z" transform="translate(-0.76 -5.63)"/></g></g></g><g class="cls-11"><line class="cls-2" x1="182" y1="545.83" x2="182" y2="469.85"/><g class="cls-11"><line class="cls-2" x1="181.64" y1="469.3" x2="297.9" y2="469.3"/><polygon class="cls-8" points="293.36 455.68 320.6 469.3 293.36 482.92 293.36 455.68 293.36 455.68"/><g class="cls-11"><g class="cls-12"><g class="cls-6"><g class="cls-6"><path class="cls-7" d="M213.72,457.56H211l-.37-2.51a10.94,10.94,0,0,1-7.44,3c-5.56,0-7.85-4.1-7.85-13.11,0-10,2.8-12.89,10.68-12.89a29.32,29.32,0,0,1,7,.76l-.36,2.76c-2.29-.22-4.76-.29-6.39-.29-5.23,0-7.05,1.24-7.05,9.92,0,7.19,1.27,9.69,5,9.69a10.34,10.34,0,0,0,5.92-2.21v-9.55h3.56Z" transform="translate(-0.76 -5.63)"/></g><g class="cls-6"><path class="cls-7" d="M223.39,450l-2.33,7.55h-3.7l7.84-24.08a1.33,1.33,0,0,1,1.34-1h3.71a1.29,1.29,0,0,1,1.31,1l7.88,24.08H235.7L233.37,450Zm6.1-12.68c-.19-.65-.44-1.38-.62-2h-1l-.58,2-2.94,9.52h8Z" transform="translate(-0.76 -5.63)"/></g><g class="cls-6"><path class="cls-7" d="M247.43,452.18c0,1.71.62,2.33,2.29,2.33h8.89l.19,2.8c-3.13.29-6.43.32-9.66.32-4,0-5.34-2.1-5.34-4.94V432.5h3.63Z" transform="translate(-0.76 -5.63)"/></g><g class="cls-6"><path class="cls-7" d="M267.45,457.56V438.17a12.13,12.13,0,0,1,.18-2.25l-6,1.85-.43-2.73,6.28-2.54h3.63v25.06Z" transform="translate(-0.76 -5.63)"/></g></g></g><g class="cls-11"><g class="cls-12"><g class="cls-6"><g class="cls-6"><path class="cls-7" d="M22.33,526.83v29.7H12.08v-29.7H1.29v-7.9H33.17v7.9Z" transform="translate(-0.76 -5.63)"/></g><g class="cls-6"><path class="cls-7" d="M69.29,541.27c0,11.72-4.09,16-15.37,16-12.09,0-16.45-4.3-16.45-16V518.93H47.71v22.34c0,6.43,1.31,8.18,5.67,8.18S59,547.7,59,541.27V518.93H69.29Z" transform="translate(-0.76 -5.63)"/></g><g class="cls-6"><path class="cls-7" d="M100.84,526.94c0,5.4-1.15,8.72-6,9.48v.22c5.29.82,6.92,3.71,7,9.43.11,7.95-3.54,11.22-13.51,11.22a99,99,0,0,1-13.52-1l.33-7.36c4.74.27,7.14.33,10.41.33,4.79,0,6.21-.71,6.21-4.52,0-3.22-.87-4.47-4.91-4.42l-7.19.06v-6.54h7.19c4.09,0,4.47-1.53,4.42-4.09,0-3.05-1.09-3.54-4.91-3.54s-7.68.05-10.46.11l-.32-7.08a76.16,76.16,0,0,1,12.58-1C97.35,518.17,100.84,520.24,100.84,526.94Z" transform="translate(-0.76 -5.63)"/></g></g></g><g class="cls-11"><line class="cls-2" x1="592.64" y1="545.83" x2="592.64" y2="469.85"/><g class="cls-11"><line class="cls-2" x1="1019.64" y1="545.83" x2="1019.64" y2="469.85"/><g class="cls-11"><line class="cls-2" x1="972.05" y1="469.85" x2="1067.03" y2="469.85"/></g></g></g></g></g></g></g></g></g></g></g></svg>