<svg xmlns="http://www.w3.org/2000/svg" viewBox="0 0 481 480"><defs><style>.cls-1{fill:#f2d6c0;}.cls-2{fill:#e1a472;}.cls-3{fill:#d4dae8;}.cls-4{fill:#4c7891;}.cls-5{fill:#bac1ce;}.cls-6{fill:#525566;}.cls-7{fill:#fff;}.cls-8{fill:#e4e8f4;}.cls-9{isolation:isolate;}.cls-10{fill:#f9607f;}.cls-11{fill:#748bfd;}.cls-12{fill:#9ad898;}.cls-13{fill:#576cfb;}.cls-14{fill:#f9bb4a;}.cls-15{fill:#75ca75;}.cls-16{fill:#6eba6e;}.cls-17{fill:#474b59;}.cls-18{fill:#cad0dd;}.cls-19{fill:#4e5161;}.cls-20{fill:#37617b;}.cls-21{fill:#eaf0f6;}.cls-22{fill:#5b5e71;}.cls-23{fill:#416e84;}.cls-24{fill:#363a44;}.cls-25{fill:#afb5bf;}.cls-26{fill:#fa5168;}.cls-27{fill:#fed57a;}.cls-28{fill:#f34858;}.cls-29{opacity:0.3;}</style></defs><g id="Слой_2" data-name="Слой 2"><g id="Слой_1-2" data-name="Слой 1"><path class="cls-1" d="M481,240c0,132.55-107.45,240-240,240S1,372.55,1,240A239.9,239.9,0,0,1,241,0C373.55,0,481,107.45,481,240Z"/><ellipse class="cls-2" cx="280.07" cy="314.6" rx="103.5" ry="147.43" transform="translate(-98.19 499.89) rotate(-74.42)"/><path class="cls-3" d="M261.73,289.77,103.91,380.9a3.64,3.64,0,0,1-3.31,0L39,345.1a1.11,1.11,0,0,1-.64-.94l0-5a.77.77,0,0,0,.15.34c-.22-.46,0-.94.56-1.28l157.82-91.14a3.71,3.71,0,0,1,3.31,0l61.61,35.84a1,1,0,0,1,.63,1l0,5A1.11,1.11,0,0,1,261.73,289.77Z"/><path class="cls-3" d="M298.88,296l0,.07c.15,0,.34,0,.45.08l110.9,64.39a.23.23,0,0,0-.15,0,2.17,2.17,0,0,1,1.12,2.22,7.35,7.35,0,0,1-3.34,5.78,3,3,0,0,1-1.54.49,1.65,1.65,0,0,1-1-.34.36.36,0,0,0,.19.15l-110.9-64.46a1.89,1.89,0,0,1-.71-.83l-6.39-7.21-1.13-1.28-1.2-1.31,1.88.3,1.8.34Z"/><path class="cls-3" d="M413.08,377.82l0,4.58L294.3,451,248,424.1c-10.29-.71-20.24-3.3-28.13-7.89-.53-.3-1-.6-1.51-.94,0,0-.07,0-.07-.07-.11.11-.19.3-.34.38l-5.67,3.3c0,.15,0,.3,0,.45,0,1.77-.61,3-1.66,3.61L156.46,455.1c-1,.63-2.48.56-4.09-.38a12.5,12.5,0,0,1-5.64-9.77,4,4,0,0,1,1.66-3.64h0l54.2-32.16c1-.6,2.44-.52,4,.41.19.12.38.27.57.38l3-1.77a19,19,0,0,1-3.87-8.3L156.28,370.8v-4.59L275.1,297.62Z"/><path class="cls-3" d="M475.7,163.17,342.76,86.42c-1.51-.83-2.86-.94-3.8-.34l-6.08,3.53c-1,.53-1.62,1.73-1.62,3.42L331,190.36h0l-6.91,4.06v0L285.5,172l40.69-23.52a3.34,3.34,0,0,0,1.91-2.85,3.39,3.39,0,0,0-1.84-2.82l-7-4.06,0-12.73a2.26,2.26,0,0,0-1.24-1.85l-4.54-2.62,4.58-2.67a2.1,2.1,0,0,0,1.28-1.77l-.08-18.48a2.19,2.19,0,0,0-1.24-1.8l-5.41-3.16L318,90.51a2.14,2.14,0,0,0,1.28-1.76l-.08-18.49a2.15,2.15,0,0,0-1.24-1.8l-5.52-3.23v-.15L318,61.89a2.21,2.21,0,0,0,1.28-1.77l-.08-18.48A2.2,2.2,0,0,0,318,39.8L257,4.41a6.54,6.54,0,0,0-6.08,0L189.52,39.87a2.23,2.23,0,0,0-1.24,1.81l.08,18.44a2.2,2.2,0,0,0,1.2,1.77l5,2.89v.83l-5,2.89a2.21,2.21,0,0,0-1.24,1.8l.08,18.45a2.17,2.17,0,0,0,1.2,1.76l5,2.9v.52l-5,2.93a2.23,2.23,0,0,0-1.24,1.8l.08,18.41a2.1,2.1,0,0,0,1.2,1.77l4.62,2.7-4.66,2.67a2.21,2.21,0,0,0-1.24,1.8l0,12.85-6.87,4a3.27,3.27,0,0,0-1.85,2.82,3.21,3.21,0,0,0,1.85,2.74l34.29,19.95-41,23.44,0-6.27L174.61,76.8c0-2.85-1.05-4.84-2.67-5.82h0v0l-7.06-4.09c-1.61-1-3.91-.76-6.46.67L9.09,153.66c-5,2.93-9.09,10-9.09,15.74L.26,278.19l.08,10.34c0,2.85,1,4.88,2.67,5.93l4.32,2.41L10,298.41s0,0,0-.08c1.66,1,4,.9,6.58-.6l48.31-27.87c-6.2,6-9.2,12.17-9.17,17.09v4.77A8.8,8.8,0,0,0,60,299.61c8.94,5.18,32.38,0,52.56-11.69,14.91-8.6,23.81-15.7,23.78-22.27v-7.48c0,.08,0,.19,0,.3a6.22,6.22,0,0,0-3.38-5.86c-3.91-2.25-11.46-3-20.44-2.21l0-8,53.16-30.7c5-2.93,9.09-9.95,9.09-15.77V194l42.9-24.53,32,18.63a8.62,8.62,0,0,0,4,.94,8.18,8.18,0,0,0,3.87-.9l26.11-15.06,38.58,22.42-75.4,43.81a3.69,3.69,0,0,0-2.18,3.23l-.07,8.26a3.88,3.88,0,0,0,2.25,3.12l133,76.75a11.69,11.69,0,0,0,10.59,0l84.15-48.5,0-8.87,6.16-3.57.3-97.33a11.79,11.79,0,0,0-5.3-9.2ZM256.58,186.5a7.08,7.08,0,0,1-6-.08l-68.23-39.67c-.56-.34-.9-.71-.9-1.09s.34-.83.9-1.2l6-3.42v3.42a2.17,2.17,0,0,0,1.2,1.76l61,35.39a6.84,6.84,0,0,0,6.05.08L318,146.22a2.18,2.18,0,0,0,1.28-1.76v-3.57l6,3.49c.6.38.94.79.94,1.21a1.68,1.68,0,0,1-1,1.24Z"/><path class="cls-4" d="M253.66,189a8.19,8.19,0,0,1-4-.95l-68.24-39.67a3.26,3.26,0,0,1-1.85-2.73,3.33,3.33,0,0,1,1.84-2.8l68.76-39.68a8.22,8.22,0,0,1,7.75-.07l68.32,39.66a3.1,3.1,0,0,1-.07,5.69l-68.68,39.67A8.3,8.3,0,0,1,253.66,189Zm.5-84.95a6.09,6.09,0,0,0-3,.74l-68.76,39.67c-.58.35-.92.78-.91,1.18s.33.78.91,1.11h0l68.23,39.67a7,7,0,0,0,6,.06l68.65-39.65c.62-.37,1-.83,1-1.25a1.57,1.57,0,0,0-.92-1.2L257,104.74a5.71,5.71,0,0,0-2.84-.68Z"/><path class="cls-4" d="M284.13,171.35l40,23.25-.95,1.63-40-23.25Z"/><path class="cls-4" d="M216.84,167.77l.93,1.63-47,26.86-.93-1.63Z"/><path class="cls-5" d="M332.8,89.64a3.72,3.72,0,0,1,3.8.37l132.94,76.75a11.7,11.7,0,0,1,5.3,9.18l-.29,97.34,6.15-3.57.28-97.35a11.69,11.69,0,0,0-5.29-9.18L342.74,86.43a3.78,3.78,0,0,0-3.79-.37Z"/><path class="cls-6" d="M336.59,90c-2.94-1.69-5.32-.33-5.33,3L331,190.38l143.58,82.9.28-97.34a11.65,11.65,0,0,0-5.3-9.18Z"/><path class="cls-7" d="M335.63,186.83l134.31,77.51.27-88.58a5.64,5.64,0,0,0-2.16-3.6L335.9,95.91Z"/><path class="cls-6" d="M474.54,273.28l0,8.87-84.15,48.49a11.61,11.61,0,0,1-10.61,0L246.83,253.87a3.75,3.75,0,0,1-2.26-3.09l.08-8.39a3.69,3.69,0,0,0,2.21,3.05l132.93,76.77a11.78,11.78,0,0,0,10.57,0Z"/><path class="cls-8" d="M474.54,273.28l-84.16,48.91a11.71,11.71,0,0,1-10.6,0L246.85,245.44c-2.95-1.71-3-4.46,0-6.15L331,190.38Z"/><path class="cls-5" d="M316.92,278.74l27.51,16a4.84,4.84,0,0,0,4.83,0l17.59-10.17a2.36,2.36,0,0,0,0-4.14l-27.51-16a4.84,4.84,0,0,0-4.83,0l-17.59,10.18A2.42,2.42,0,0,0,316.92,278.74Z"/><path class="cls-5" d="M454.65,268.4c.29.16.29.42,0,.58l-3.23,1.88a1.17,1.17,0,0,1-1,0l-5-2.87c-.28-.17-.27-.44,0-.6l3.23-1.88a1.12,1.12,0,0,1,1,0Z"/><path class="cls-5" d="M463.77,273.66c.27.15.27.41,0,.58l-3.23,1.87a1.13,1.13,0,0,1-1,0l-6.12-3.53c-.28-.17-.26-.44,0-.6l3.23-1.88a1.12,1.12,0,0,1,1,0Z"/><path class="cls-5" d="M398.12,282.14c.27.15.27.41,0,.59l-6.76,3.92a1.08,1.08,0,0,1-1,0l-5.49-3.17c-.26-.15-.26-.41,0-.57l6.76-3.93a1.1,1.1,0,0,1,1,0Z"/><path class="cls-5" d="M416,253.26c.27.15.27.41,0,.57L410.52,257a1.15,1.15,0,0,1-1,0L404,253.87c-.29-.17-.29-.43,0-.6l5.46-3.18a1.14,1.14,0,0,1,1,0Z"/><path class="cls-5" d="M358.1,239.23c.26.15.29.42,0,.6L352.62,243a1.19,1.19,0,0,1-1,0l-5.48-3.17c-.27-.15-.27-.41,0-.58l5.46-3.18a1.12,1.12,0,0,1,1,0Z"/><path class="cls-5" d="M329.25,242.37c.26.16.26.41,0,.59l-6.76,3.93a1.11,1.11,0,0,1-1,0L316,243.73a.31.31,0,0,1,0-.58l6.76-3.93a1.08,1.08,0,0,1,1,0Z"/><path class="cls-5" d="M345.38,241.8c.28.16.29.42,0,.59l-5.46,3.17a1.1,1.1,0,0,1-1,0l-5.48-3.16c-.27-.15-.27-.41,0-.59l5.46-3.18a1.13,1.13,0,0,1,1,0Z"/><path class="cls-5" d="M303.13,217.41c.29.16.29.42,0,.58l-5.47,3.18a1.1,1.1,0,0,1-1,0L291.15,218c-.26-.16-.27-.41,0-.59l5.47-3.18a1.11,1.11,0,0,1,1,0Z"/><path class="cls-5" d="M328.14,231.84c.26.16.26.41,0,.58l-5.47,3.18a1.12,1.12,0,0,1-1,0l-22-12.68c-.26-.15-.26-.41,0-.58l5.47-3.18a1.05,1.05,0,0,1,1,0Z"/><g class="cls-9"><path class="cls-5" d="M349.43,234.22c.26.16.26.41,0,.59L343.92,238a1.12,1.12,0,0,1-1,0l-5.48-3.17c-.27-.15-.27-.41,0-.58l5.47-3.18a1.07,1.07,0,0,1,1,0Z"/><path class="cls-5" d="M336.69,236.78c.26.15.26.41,0,.57l-5.47,3.18a1.1,1.1,0,0,1-1,0l-5.51-3.18c-.26-.15-.26-.41,0-.59l5.47-3.18a1.11,1.11,0,0,1,1,0Z"/></g><path class="cls-5" d="M374.87,222.33c.28.17.29.42,0,.59l-3.23,1.87a1.13,1.13,0,0,1-1,0l-5-2.88c-.29-.16-.27-.43,0-.59l3.23-1.88a1.06,1.06,0,0,1,1,0Z"/><g class="cls-9"><path class="cls-5" d="M382.85,226.94c.29.16.29.42,0,.59l-3.23,1.87a1.12,1.12,0,0,1-1,0l-5-2.87c-.29-.16-.27-.43,0-.6l3.22-1.87a1.08,1.08,0,0,1,1,0Z"/><path class="cls-5" d="M373.08,228.48c.27.15.27.41,0,.57l-5.47,3.18a1.09,1.09,0,0,1-1,0l-5.48-3.16a.32.32,0,0,1,0-.6l5.47-3.18a1.15,1.15,0,0,1,1,0Z"/><path class="cls-5" d="M390.84,231.55c.26.15.26.41,0,.57L387.59,234a1.12,1.12,0,0,1-1,0l-5-2.88c-.26-.15-.24-.42,0-.59l3.23-1.87a1.08,1.08,0,0,1,1,0Z"/><path class="cls-5" d="M360.34,230.63c.26.16.27.42,0,.59l-5.47,3.18a1.11,1.11,0,0,1-1,0l-5.48-3.17a.31.31,0,0,1,0-.58l5.47-3.18a1.15,1.15,0,0,1,1,0Z"/><path class="cls-5" d="M381.65,233.43c.29.16.29.42,0,.58l-5.47,3.18a1.08,1.08,0,0,1-1,0L369.67,234c-.26-.16-.26-.42,0-.59l5.47-3.18a1.11,1.11,0,0,1,1,0Z"/><path class="cls-5" d="M398.82,236.16c.26.15.26.41,0,.57l-3.23,1.88a1.16,1.16,0,0,1-1,0l-5-2.88c-.26-.15-.24-.42,0-.59l3.23-1.88a1.11,1.11,0,0,1,1,0Z"/><path class="cls-5" d="M369,235.62c.27.15.27.41,0,.58l-5.47,3.18a1.07,1.07,0,0,1-1,0L357,236.23a.31.31,0,0,1,0-.59l5.47-3.18a1.17,1.17,0,0,1,1,0Z"/><path class="cls-5" d="M390.25,238.39c.26.15.26.41,0,.57l-5.47,3.18a1.12,1.12,0,0,1-1,0L378.26,239c-.26-.16-.26-.41,0-.59l5.47-3.18a1.11,1.11,0,0,1,1,0Z"/><path class="cls-5" d="M406.8,240.77c.26.15.27.41,0,.57l-3.23,1.88a1.16,1.16,0,0,1-1,0l-5-2.88c-.27-.16-.25-.43,0-.59l3.23-1.88a1.11,1.11,0,0,1,1,0Z"/><path class="cls-5" d="M377.6,240.6c.27.15.27.41,0,.59l-5.47,3.18a1.11,1.11,0,0,1-1,0l-5.49-3.17a.31.31,0,0,1,0-.58l5.47-3.18a1.1,1.1,0,0,1,1,0Z"/><path class="cls-5" d="M414.76,245.36c.29.17.29.43,0,.59l-3.23,1.88a1.19,1.19,0,0,1-1,0l-5-2.88a.31.31,0,0,1,0-.59l3.23-1.88a1.18,1.18,0,0,1,1,0Z"/><path class="cls-5" d="M386.24,245.59c.26.15.26.41,0,.58l-5.47,3.18a1.05,1.05,0,0,1-1,0l-5.48-3.16c-.27-.16-.27-.41,0-.58l5.47-3.18a1.12,1.12,0,0,1,1,0Z"/><path class="cls-5" d="M407.41,248.3c.28.16.29.42,0,.58l-5.47,3.18a1.08,1.08,0,0,1-1,0l-5.48-3.16c-.27-.16-.27-.42,0-.59l5.47-3.18a1.13,1.13,0,0,1,1,0Z"/><path class="cls-5" d="M375.45,249.25c.28.16.28.42,0,.59L370,253a1.08,1.08,0,0,1-1,0l-5.49-3.16c-.26-.16-.26-.41,0-.59L369,246.1a1.12,1.12,0,0,1,1,0Z"/><path class="cls-5" d="M394.87,250.57c.26.15.27.41,0,.59l-5.47,3.17a1.08,1.08,0,0,1-1,0l-5.48-3.17c-.27-.15-.27-.41,0-.57l5.47-3.18a1.12,1.12,0,0,1,1,0Z"/><path class="cls-5" d="M384.12,254.25c.28.17.29.42,0,.6L378.63,258a1.13,1.13,0,0,1-1,0l-5.48-3.17c-.27-.15-.27-.41,0-.58l5.47-3.18a1.09,1.09,0,0,1,1,0Z"/><path class="cls-5" d="M403.5,255.55a.32.32,0,0,1,0,.6L398,259.33a1.18,1.18,0,0,1-1,0l-5.48-3.17c-.26-.15-.27-.41,0-.57l5.47-3.18a1.12,1.12,0,0,1,1,0Z"/><path class="cls-5" d="M371.52,256.89c.27.15.27.41,0,.58L366,260.64a1.12,1.12,0,0,1-1,0l-5.48-3.17c-.26-.15-.27-.41,0-.59l5.47-3.17a1.05,1.05,0,0,1,1,0Z"/><path class="cls-5" d="M392.79,259.26c.29.16.29.42,0,.6L387.31,263a1.15,1.15,0,0,1-1,0l-5.48-3.17c-.26-.15-.26-.41,0-.58l5.47-3.18a1.1,1.1,0,0,1,1,0Z"/><path class="cls-5" d="M380.24,261.92c.26.15.26.41,0,.58l-5.47,3.17a1.1,1.1,0,0,1-1,0l-5.49-3.17c-.28-.16-.28-.42,0-.6l5.47-3.17a1.06,1.06,0,0,1,1,0Z"/></g><path class="cls-5" d="M438.71,259.19c.26.15.27.41,0,.57l-3.23,1.88a1.12,1.12,0,0,1-1,0l-5-2.88c-.27-.15-.25-.42,0-.59l3.23-1.87a1.08,1.08,0,0,1,1,0Z"/><path class="cls-5" d="M430.73,254.58c.26.15.26.41,0,.58L427.48,257a1.13,1.13,0,0,1-1,0l-5-2.89c-.26-.15-.24-.42,0-.59l3.23-1.87a1.05,1.05,0,0,1,1,0Z"/><path class="cls-5" d="M424.57,258.2c.29.17.29.43,0,.59L419.11,262a1.15,1.15,0,0,1-1,0l-5.48-3.17c-.26-.15-.26-.41,0-.58l5.47-3.18a1.11,1.11,0,0,1,1,0Z"/><g class="cls-9"><path class="cls-5" d="M412.13,260.54c.27.15.29.42,0,.6l-5.47,3.17a1.09,1.09,0,0,1-1,0l-5.49-3.16c-.26-.15-.26-.41,0-.58l5.47-3.17a1.1,1.1,0,0,1,1,0Z"/><path class="cls-5" d="M401.47,264.27c.28.16.28.42,0,.6L396,268a1.11,1.11,0,0,1-1,0l-5.49-3.17c-.26-.15-.26-.41,0-.59l5.47-3.18a1.12,1.12,0,0,1,1,0Z"/><path class="cls-5" d="M420.77,265.52c.26.15.28.42,0,.6l-5.47,3.18a1.15,1.15,0,0,1-1,0l-5.48-3.17c-.27-.15-.27-.41,0-.57l5.47-3.18a1.07,1.07,0,0,1,1,0Z"/><path class="cls-5" d="M410.14,269.27c.28.17.28.43,0,.6l-5.47,3.18a1.08,1.08,0,0,1-1,0l-5.48-3.16c-.27-.16-.27-.41,0-.59l5.47-3.18a1.15,1.15,0,0,1,1,0Z"/></g><g class="cls-9"><path class="cls-5" d="M433.16,263.17c.27.15.27.41,0,.57l-5.47,3.18a1.12,1.12,0,0,1-1,0l-5.49-3.17c-.26-.15-.28-.42,0-.59l5.47-3.18a1.12,1.12,0,0,1,1,0Z"/><path class="cls-5" d="M441.74,268.11c.28.17.28.43,0,.59l-5.47,3.18a1.13,1.13,0,0,1-1,0l-5.49-3.17c-.26-.15-.26-.41,0-.58l5.47-3.18a1.11,1.11,0,0,1,1,0Z"/><path class="cls-5" d="M429.4,270.51c.28.16.29.42,0,.59l-5.47,3.18a1.06,1.06,0,0,1-1,0l-5.48-3.16c-.27-.16-.27-.41,0-.58l5.47-3.18a1.15,1.15,0,0,1,1,0Z"/><path class="cls-5" d="M418.83,274.29c.27.16.27.41,0,.59l-5.47,3.18a1.15,1.15,0,0,1-1,0l-5.5-3.18c-.26-.15-.27-.41,0-.58l5.47-3.18a1.07,1.07,0,0,1,1,0Z"/><path class="cls-5" d="M438,275.49c.29.16.29.42,0,.6l-5.47,3.18a1.14,1.14,0,0,1-1,0l-5.48-3.17c-.26-.15-.27-.41,0-.57l5.47-3.18a1.1,1.1,0,0,1,1,0Z"/><path class="cls-5" d="M427.51,279.3c.26.15.26.41,0,.59L422,283.07a1.12,1.12,0,0,1-1,0l-5.49-3.17c-.28-.16-.28-.42,0-.59l5.47-3.18a1.08,1.08,0,0,1,1,0Z"/><path class="cls-5" d="M449.37,282c.26.16.26.41,0,.59l-5.47,3.18a1.11,1.11,0,0,1-1,0L434.5,281c-.28-.17-.29-.42,0-.59l5.47-3.18a1.13,1.13,0,0,1,1,0Z"/><path class="cls-5" d="M415.07,282c.28.17.29.43,0,.59l-5.47,3.18a1.13,1.13,0,0,1-1,0l-5.48-3.17c-.27-.15-.27-.41,0-.58l5.46-3.18a1.13,1.13,0,0,1,1,0Z"/><path class="cls-5" d="M440.83,287c.26.16.27.41,0,.59l-5.47,3.18a1.12,1.12,0,0,1-1,0l-10-5.79c-.27-.15-.27-.41,0-.59l5.46-3.18a1.15,1.15,0,0,1,1,0Z"/><path class="cls-5" d="M432.27,292c.27.15.27.41,0,.57l-5.47,3.18a1.07,1.07,0,0,1-1,0l-14.55-8.39c-.26-.16-.26-.41,0-.59l5.47-3.18a1.11,1.11,0,0,1,1,0Z"/><path class="cls-5" d="M294.62,222.65c.29.16.29.42,0,.6l-6.76,3.92a1.08,1.08,0,0,1-1,0L281.35,224c-.26-.15-.27-.41,0-.58l6.76-3.92a1.1,1.1,0,0,1,1,0Z"/><path class="cls-5" d="M303.18,227.59c.26.15.26.41,0,.58l-6.76,3.93a1.11,1.11,0,0,1-1,0L289.9,229c-.28-.17-.28-.43,0-.59l6.76-3.93a1.08,1.08,0,0,1,1,0Z"/><path class="cls-5" d="M311.71,232.51c.26.15.26.41,0,.59L304.91,237a1.11,1.11,0,0,1-1,0l-5.49-3.17c-.28-.16-.28-.42,0-.59l6.76-3.92a1.11,1.11,0,0,1,1,0Z"/><g class="cls-9"><path class="cls-5" d="M415.12,291.81c.26.16.26.41,0,.59l-2.26,1.31a1.1,1.1,0,0,1-1,0l-5.49-3.17c-.26-.15-.26-.41,0-.59l2.26-1.31a1.12,1.12,0,0,1,1,0Z"/><path class="cls-5" d="M410.54,294.48c.26.15.26.41,0,.58l-2.28,1.33a1.11,1.11,0,0,1-1,0l-5.49-3.17c-.26-.15-.26-.41,0-.57l2.28-1.33a1.12,1.12,0,0,1,1,0Z"/></g><path class="cls-5" d="M419.29,299.53c.26.15.27.41,0,.59L417,301.44a1.05,1.05,0,0,1-1,0l-5.48-3.16c-.27-.15-.27-.41,0-.58l2.28-1.32a1.12,1.12,0,0,1,1,0Z"/><path class="cls-5" d="M401.78,289.42c.27.15.27.41,0,.59l-2.29,1.32a1.08,1.08,0,0,1-1,0L393,288.18c-.27-.15-.27-.41,0-.58l2.28-1.32a1.07,1.07,0,0,1,1,0Z"/></g><path class="cls-5" d="M457.58,277.26c.26.15.26.41,0,.58L452.09,281a1.1,1.1,0,0,1-1,0l-3.86-2.23c-.28-.17-.28-.42,0-.6l5.47-3.18a1.12,1.12,0,0,1,1,0Z"/><path class="cls-5" d="M450.33,273.07c.26.16.26.41,0,.58l-5.47,3.18a1.12,1.12,0,0,1-1,0l-5.48-3.17c-.27-.15-.27-.41,0-.58l5.47-3.18a1.11,1.11,0,0,1,1,0Z"/><path class="cls-5" d="M397.66,272c.27.16.27.41,0,.58l-5.47,3.18a1.15,1.15,0,0,1-1,0l-5.48-3.17c-.28-.16-.28-.42,0-.59l5.47-3.18a1.06,1.06,0,0,1,1,0Z"/><path class="cls-5" d="M389,267c.26.16.26.41,0,.58l-5.47,3.18a1.12,1.12,0,0,1-1,0L377,267.56c-.29-.16-.29-.42,0-.6l5.47-3.17a1.06,1.06,0,0,1,1,0Z"/><path class="cls-5" d="M362.81,251.86a.32.32,0,0,1,0,.59l-5.47,3.18a1.17,1.17,0,0,1-1,0l-5.48-3.17c-.27-.15-.27-.41,0-.59l5.47-3.17a1.08,1.08,0,0,1,1,0Z"/><path class="cls-5" d="M366.77,244.24c.27.15.29.42,0,.6L361.29,248a1.14,1.14,0,0,1-1,0l-5.49-3.17c-.26-.15-.26-.41,0-.59l5.47-3.17a1.1,1.1,0,0,1,1,0Z"/><path class="cls-5" d="M354.09,246.83c.29.16.29.42,0,.59l-5.47,3.17a1.11,1.11,0,0,1-1,0l-5.49-3.17c-.26-.15-.26-.41,0-.59l5.47-3.17a1.08,1.08,0,0,1,1,0Z"/><path class="cls-5" d="M389.59,277.21c.27.16.27.41,0,.59l-6.76,3.93a1.13,1.13,0,0,1-1,0l-48.36-27.92c-.28-.17-.28-.42,0-.59l6.76-3.93a1.13,1.13,0,0,1,1,0Z"/><path class="cls-5" d="M337.82,247.32c.26.15.26.41,0,.59L331,251.84a1.11,1.11,0,0,1-1,0l-5.48-3.17a.31.31,0,0,1,0-.58l6.76-3.93a1.12,1.12,0,0,1,1,0Z"/><path class="cls-5" d="M320.41,237.27c.27.15.27.41,0,.59l-6.76,3.93a1.13,1.13,0,0,1-1,0l-5.48-3.17c-.27-.15-.27-.41,0-.57l6.76-3.93a1.07,1.07,0,0,1,1,0Z"/><path class="cls-5" d="M406.36,277c.28.17.28.43,0,.59l-5.47,3.18a1.13,1.13,0,0,1-1,0l-5.49-3.17c-.26-.15-.26-.41,0-.58l5.47-3.18a1.05,1.05,0,0,1,1,0Z"/><path class="cls-5" d="M343,203.91a.31.31,0,0,1,0,.59l-3.22,1.87a1.15,1.15,0,0,1-1,0l-5-2.87c-.29-.16-.27-.43,0-.6L337,201a1.06,1.06,0,0,1,1,0Z"/><path class="cls-5" d="M350.94,208.52c.27.15.27.41,0,.57L347.7,211a1.16,1.16,0,0,1-1,0l-5-2.88c-.27-.16-.25-.43,0-.59l3.22-1.88a1.13,1.13,0,0,1,1,0Z"/><g class="cls-9"><path class="cls-5" d="M328.88,203c.29.16.29.42,0,.59l-5.47,3.17a1.11,1.11,0,0,1-1,0l-5.49-3.17c-.26-.15-.26-.41,0-.59l5.47-3.18a1.11,1.11,0,0,1,1,0Z"/><path class="cls-5" d="M320.67,207.73c.29.17.29.42,0,.6l-5.46,3.18a1.14,1.14,0,0,1-1,0l-5.48-3.17c-.26-.15-.27-.41,0-.57l5.47-3.18a1.07,1.07,0,0,1,1,0Z"/><path class="cls-5" d="M311.69,212.43c.28.17.28.43,0,.6l-5.47,3.18a1.08,1.08,0,0,1-1,0l-5.48-3.16c-.27-.16-.27-.41,0-.59l5.47-3.18a1.12,1.12,0,0,1,1,0Z"/><path class="cls-5" d="M347.33,213.61a.31.31,0,0,1,0,.58l-5.47,3.18a1.08,1.08,0,0,1-1,0l-15.64-9c-.26-.15-.27-.41,0-.58l5.47-3.18a1.05,1.05,0,0,1,1,0Z"/><path class="cls-5" d="M334.4,215.66c.27.15.27.41,0,.59l-6.65,3.87c-.77.44-.77,1.14,0,1.58l4.64,2.67c.26.15.26.41,0,.58l-5.47,3.18a1.12,1.12,0,0,1-1,0L308.22,218c-.27-.15-.27-.41,0-.59l14-8.13a1.1,1.1,0,0,1,1,0Z"/><path class="cls-5" d="M351.71,225.65c.26.15.26.41,0,.59l-5.47,3.18a1.11,1.11,0,0,1-1,0l-5.48-3.17c-.29-.16-.29-.42,0-.59l5.47-3.17a1.11,1.11,0,0,1,1,0Z"/><path class="cls-5" d="M340.75,229.22c.27.15.27.41,0,.58L335.25,233a1.07,1.07,0,0,1-1,0l-5.49-3.16c-.26-.16-.28-.42,0-.6l5.47-3.18a1.17,1.17,0,0,1,1,0Z"/></g><path class="cls-5" d="M366.91,217.73c.26.16.26.42,0,.58l-3.23,1.88a1.16,1.16,0,0,1-1,0l-5-2.89c-.26-.15-.24-.42,0-.58l3.23-1.88a1.11,1.11,0,0,1,1,0Z"/><path class="cls-5" d="M358.93,213.13c.26.15.26.41,0,.57l-3.23,1.88a1.16,1.16,0,0,1-1,0l-5-2.88c-.26-.16-.24-.43,0-.59l3.23-1.88a1.11,1.11,0,0,1,1,0Z"/><path class="cls-5" d="M355.92,218.57c.26.15.26.41,0,.57l-5.47,3.18a1.07,1.07,0,0,1-1,0l-5.48-3.16c-.29-.17-.29-.42,0-.6l5.47-3.18a1.14,1.14,0,0,1,1,0Z"/><path class="cls-5" d="M343.07,220.67c.27.15.27.41,0,.58l-5.47,3.18a1.05,1.05,0,0,1-1,0l-5.49-3.16c-.28-.17-.28-.43,0-.59l5.47-3.18a1.13,1.13,0,0,1,1,0Z"/><path class="cls-5" d="M398.84,243.35c.26.15.26.41,0,.57l-5.47,3.18a1.07,1.07,0,0,1-1,0L386.86,244c-.29-.17-.29-.43,0-.6l5.47-3.18a1.12,1.12,0,0,1,1,0Z"/><path class="cls-5" d="M364.49,223.52c.29.16.29.42,0,.58L359,227.28a1.1,1.1,0,0,1-1,0l-5.48-3.16c-.27-.16-.27-.41,0-.59l5.46-3.18a1.13,1.13,0,0,1,1,0Z"/><path class="cls-5" d="M446.69,263.8c.27.15.27.41,0,.57l-3.23,1.88a1.15,1.15,0,0,1-1,0l-5-2.88c-.27-.15-.25-.42,0-.59l3.23-1.87a1.1,1.1,0,0,1,1,0Z"/><path class="cls-5" d="M422.74,250a.31.31,0,0,1,0,.59l-3.23,1.87a1.17,1.17,0,0,1-1,0l-5-2.88c-.28-.16-.27-.43,0-.59l3.23-1.88a1.06,1.06,0,0,1,1,0Z"/><path class="cls-5" d="M335,199.3c.28.16.28.42,0,.59l-3.23,1.87a1.1,1.1,0,0,1-1,0l-5-2.87c-.28-.16-.26-.43,0-.6l3.23-1.87a1.06,1.06,0,0,1,1,0Z"/><path class="cls-10" d="M443.87,194.77c-10.23-5.91-18.63-1.19-18.67,10.64,0,5.87,2.08,12.45,5.46,18.3l13.15-7.56Z"/><path class="cls-11" d="M443.81,216.15l-13.15,7.56c3.31,5.81,8,10.86,13.09,13.81,7,4.06,13.05,3,16.27-1.64Z"/><path class="cls-12" d="M443.87,194.77l-.06,21.38L460,235.88a16.08,16.08,0,0,0,2.39-9c0-11.83-8.25-26.18-18.54-32.12Z"/><path class="cls-13" d="M400.91,179.49l-5.67,3.23a16.28,16.28,0,0,0,5.64,6c3,1.76,5.65,1.34,7-.66Z"/><path class="cls-4" d="M400.93,170.3c-4.4-2.55-8-.49-8,4.57a16.21,16.21,0,0,0,2.34,7.85l5.67-3.23Z"/><path class="cls-14" d="M400.93,170.3l0,9.19,7,8.54a7.22,7.22,0,0,0,1-3.91A17.48,17.48,0,0,0,400.93,170.3Z"/><path class="cls-15" d="M380.58,159.76l-3.94,5.73,5.69,9.78c1.44-.82,2.37-2.56,2.38-5.13,0-3.42-1.72-7.42-4.13-10.38Z"/><path class="cls-8" d="M376.64,165.49l-8-4.63c0,5.07,3.57,11.28,8,13.82,2.23,1.29,4.22,1.44,5.71.59Z"/><path class="cls-10" d="M376.67,156.29c-4.41-2.55-8-.49-8,4.57l8,4.63,3.94-5.73a15.29,15.29,0,0,0-3.91-3.47Z"/><g class="cls-9"><path class="cls-16" d="M345.44,143a7.17,7.17,0,0,0-1.07,3.81c0,5.14,3.58,11.28,8.05,13.86l0-9.2Z"/><path class="cls-17" d="M358.11,148.28l-5.67,3.23,0,9.2c4.4,2.54,8,.56,8-4.58A16.83,16.83,0,0,0,358.11,148.28Z"/><path class="cls-4" d="M352.47,142.31c-3-1.75-5.65-1.33-7,.73l7,8.47,5.67-3.23A16.93,16.93,0,0,0,352.47,142.31Z"/></g><path class="cls-18" d="M343.18,129.12v3L464,201.9v-3Z"/><path class="cls-18" d="M343.2,121.35v3L464,194.14v-3Z"/><path class="cls-18" d="M343.22,113.69v3L464,186.48v-3Z"/><path class="cls-18" d="M343.24,106v3l120.84,69.76v-3Z"/><path class="cls-18" d="M343.73,184.32v2.83l74.47,43v-2.84Z"/><path class="cls-18" d="M343.75,177v2.84l74.47,43V220Z"/><path class="cls-18" d="M343.77,169.86v2.83l74.47,43v-2.84Z"/><path class="cls-18" d="M343.79,162.68v2.83l74.47,43v-2.84Z"/><path class="cls-19" d="M81.39,248.8,69,241.6l31.06-17.93,12.39,7.2Z"/><g class="cls-9"><path class="cls-20" d="M55.67,286.84l0,4.89A8.69,8.69,0,0,0,60,299.61c8.95,5.2,32.4-.05,52.59-11.7,14.89-8.6,23.8-15.7,23.78-22.27v-7.48c0,6.57-8.89,16.26-23.79,24.86C92.4,294.67,69,299.92,60,294.72a8.7,8.7,0,0,1-4.33-7.88Z"/><path class="cls-4" d="M75.85,261.68c-20.18,11.65-24.73,27.88-15.85,33s32.4-.05,52.58-11.7,29.31-25.21,20.36-30.42S96,250.07,75.85,261.68Z"/></g><path class="cls-5" d="M81.51,286.06l-9.26-5.38-.12-37.26,9.26,5.38Z"/><path class="cls-18" d="M112.44,230.87l.13,37.26L81.51,286.06l-.12-37.26Z"/><path class="cls-21" d="M53.32,264.54l53.37-31,9.54,6.27-53.37,31Z"/><path class="cls-4" d="M172,71c-1.57-.85-2.74.58-5.22,2.08L17.66,159.13c-5,2.88-7.31,8.9-7.31,14.65L9.91,281.41v10.4c.07,2.87-1.54,5.67.1,6.59l-2.68-1.52L3,294.46c-1.7-1-2.68-3.08-2.68-5.95L.26,278.18,0,169.42c0-5.75,4.12-12.81,9.09-15.76L158.38,67.52c2.54-1.44,4.83-1.64,6.47-.66Z"/><path class="cls-20" d="M174.69,185.52,7.33,282.24,7,173.54c0-5.75,4.12-12.81,9.15-15.75L165.44,71.64c5-2.94,9.15-.59,9.15,5.16Z"/><path class="cls-7" d="M168.7,180.53,13.26,270.32,13,173.52c0-3.57,3-8.73,6.23-10.58L168.59,76.73Z"/><path class="cls-10" d="M168.62,89,13,178.86l0-5.34c0-3.57,3-8.73,6.23-10.58L168.59,76.73Z"/><path class="cls-8" d="M174.69,185.52l0,10.37c0,5.8-4.06,12.86-9.1,15.77L16.52,297.74c-5.07,2.93-9.17.59-9.19-5.21l0-10.37Z"/><path class="cls-5" d="M94.64,241.63a8.62,8.62,0,0,1-3.92,6.75c-2.15,1.27-3.91.26-3.91-2.21a8.56,8.56,0,0,1,3.91-6.81C92.87,238.16,94.64,239.17,94.64,241.63Z"/><path class="cls-7" d="M27,160c1.89-1.09,3.42-.21,3.43,2A7.49,7.49,0,0,1,27,167.83a2.71,2.71,0,0,1-2.06.42l-2.51,4.2-.86-.51,2.54-4.28a2.62,2.62,0,0,1-.55-1.74A7.52,7.52,0,0,1,27,160Zm0,6.42a4.72,4.72,0,0,0,2.16-3.73c0-1.38-1-2-2.17-1.28a4.81,4.81,0,0,0-2.18,3.79c0,1.38,1,1.92,2.19,1.22"/><path class="cls-7" d="M147.61,90.64c1.89-1.09,3.4-.23,3.41,1.94a7.49,7.49,0,0,1-3.39,5.88c-1.87,1.08-3.39.19-3.39-2a7.37,7.37,0,0,1,3.37-5.85Z"/><path class="cls-7" d="M157.85,84.73c1.87-1.08,3.4-.23,3.4,1.94a7.49,7.49,0,0,1-3.38,5.88c-1.88,1.08-3.4.19-3.41-2a7.41,7.41,0,0,1,3.39-5.86Z"/><path class="cls-7" d="M137.39,96.54c1.87-1.08,3.4-.23,3.41,1.94a7.53,7.53,0,0,1-3.39,5.88c-1.87,1.08-3.4.2-3.41-2a7.41,7.41,0,0,1,3.39-5.86Z"/><path class="cls-10" d="M141.15,149.29c10.08-5.82,18.36-1.17,18.4,10.48,0,5.8-2.05,12.28-5.38,18l-13-7.46Z"/><path class="cls-11" d="M141.21,170.36l13,7.46a36.91,36.91,0,0,1-12.9,13.61c-6.93,4-12.86,3-16-1.62Z"/><path class="cls-12" d="M141.15,149.29l.06,21.07-16,19.45a15.79,15.79,0,0,1-2.36-8.87c0-11.65,8.13-25.79,18.27-31.65Z"/><path class="cls-18" d="M163.17,98.62v2.91L18.77,184.9V182Z"/><path class="cls-18" d="M163.25,127.18v3L18.85,213.53v-3Z"/><path class="cls-18" d="M109.34,206.09V209L19,261.17v-2.91Z"/><path class="cls-18" d="M109.32,196.55v3L19,251.69v-3Z"/><path class="cls-18" d="M109.29,187v3L18.93,242.15v-3Z"/><path class="cls-18" d="M109.24,167.93v3L18.88,223.07v-3Z"/><path class="cls-18" d="M109.26,177.47v3L18.91,232.61v-3Z"/><path class="cls-18" d="M163.22,117.64v3L18.83,204v-3Z"/><path class="cls-18" d="M163.2,108.1v3L18.8,194.44v-3Z"/><path class="cls-17" d="M38.3,339.13l0,5a1.12,1.12,0,0,0,.65.95l61.61,35.8a3.62,3.62,0,0,0,3.3,0l157.84-91.13a1.15,1.15,0,0,0,.68-1l0-5a1.13,1.13,0,0,1-.67,1L103.86,375.89a3.62,3.62,0,0,1-3.27,0L39,340.09A1.19,1.19,0,0,1,38.3,339.13Z"/><path class="cls-22" d="M39,338.18a1,1,0,0,0,0,1.91l61.61,35.81a3.64,3.64,0,0,0,3.28,0l157.84-91.13a1,1,0,0,0,0-1.89l-61.62-35.8a3.61,3.61,0,0,0-3.28,0Z"/><path class="cls-5" d="M162,272.83l9.94,5.77,10-5.76-9.94-5.78Z"/><path class="cls-5" d="M113.86,317.94l9.94,5.77,10-5.76-9.94-5.78Z"/><path class="cls-5" d="M149.34,280.11l9.94,5.77,10-5.76-9.94-5.78Z"/><path class="cls-5" d="M116.24,333.93l9.92,5.76,10-5.77-9.92-5.76Z"/><path class="cls-5" d="M128.85,326.65l9.92,5.76,10-5.76-9.92-5.76Z"/><path class="cls-5" d="M141.46,319.37l9.92,5.76,10-5.76-9.91-5.77Z"/><path class="cls-5" d="M217.14,275.67l9.92,5.77,10-5.77-9.92-5.76Z"/><path class="cls-5" d="M204.53,283l9.92,5.76,10-5.76-9.92-5.77Z"/><g class="cls-9"><path class="cls-5" d="M176.92,281.53l9.94,5.77,10-5.76-9.93-5.78Z"/><path class="cls-5" d="M164.31,288.81l9.94,5.77,10-5.76-9.94-5.77Z"/><path class="cls-5" d="M191.92,290.24l9.91,5.76,10-5.76-9.92-5.76Z"/><path class="cls-5" d="M124.11,294.67l9.94,5.78,10-5.77-9.93-5.77Z"/><path class="cls-5" d="M151.7,296.09l9.94,5.78,10-5.77-9.94-5.77Z"/><path class="cls-5" d="M179.3,297.52l9.92,5.76,10-5.76-9.91-5.76Z"/><path class="cls-5" d="M111.5,302l9.94,5.78,10-5.76-9.94-5.78Z"/><path class="cls-5" d="M139.08,303.37l9.94,5.78,10-5.77-9.93-5.77Z"/><path class="cls-5" d="M166.69,304.8l9.92,5.77,10-5.77L176.67,299Z"/><path class="cls-5" d="M98.89,309.24l9.93,5.77,10-5.76-9.94-5.78Z"/><path class="cls-5" d="M126.47,310.65l9.94,5.78,10-5.76-9.94-5.78Z"/><path class="cls-5" d="M154.08,312.09l9.91,5.76,10-5.76-9.92-5.77Z"/><path class="cls-5" d="M86.27,316.52l9.94,5.77,10-5.77-9.93-5.78Z"/><path class="cls-5" d="M101.25,325.22l9.93,5.77,10-5.77-9.94-5.78Z"/><path class="cls-5" d="M121,348.79l9.48,5.51,94-54.25-9.49-5.51Z"/></g><path class="cls-5" d="M189.54,274.24l9.93,5.78,10-5.76-9.94-5.78Z"/><path class="cls-5" d="M174.56,265.54l9.94,5.78,10-5.77-9.93-5.77Z"/><path class="cls-5" d="M202.15,267l9.94,5.78,10-5.77-9.94-5.77Z"/><path class="cls-5" d="M187.18,258.26l9.93,5.78,10-5.77-9.94-5.77Z"/><path class="cls-5" d="M136.73,287.39l9.93,5.77,10-5.76-9.94-5.77Z"/><g class="cls-9"><path class="cls-5" d="M73.68,323.79l9.94,5.77,10-5.76L83.66,318Z"/><path class="cls-5" d="M61.07,331.07,71,336.85l10-5.77-9.94-5.77Z"/><path class="cls-5" d="M88.65,332.49l9.94,5.78,10-5.77-9.93-5.77Z"/><path class="cls-5" d="M48.45,338.35l9.94,5.78,10-5.77-9.93-5.77Z"/><path class="cls-5" d="M76,339.77,86,345.55l10-5.77L86,334Z"/><path class="cls-5" d="M103.64,341.2l9.92,5.77,10-5.77-9.91-5.76Z"/><path class="cls-5" d="M63.43,347.05l9.93,5.78,10-5.76-9.94-5.78Z"/><path class="cls-5" d="M91,348.48l9.92,5.77,10-5.77L101,342.72Z"/><path class="cls-5" d="M78.42,355.77l9.92,5.76,10-5.76L88.4,350Z"/></g><path class="cls-23" d="M188.27,126l.09,18.43a2.18,2.18,0,0,0,1.22,1.77l61,35.38a6.91,6.91,0,0,0,6.05.1L318,146.22a2.19,2.19,0,0,0,1.31-1.77l-.1-18.52a2.22,2.22,0,0,1-1.3,1.86l-61.27,35.38a7.06,7.06,0,0,1-6.15,0l-61-35.47a2,2,0,0,1-1.21-1.68Z"/><path class="cls-4" d="M189.52,127.71l60.92,35.42a7.06,7.06,0,0,0,6.15.06l61.32-35.41c1.75-1,1.68-2.66.06-3.63L257,88.74a6.48,6.48,0,0,0-6.08.06l-61.38,35.42c-1.62,1-1.69,2.52,0,3.49Z"/><path class="cls-24" d="M226.34,128l27.25,15.88L281.14,128l-27.3-15.84Z"/><path class="cls-23" d="M222.79,125.94l3.55,2.06,27.5-15.89V108Z"/><path class="cls-20" d="M253.84,108v4.11L281.14,128l3.55-2.06Z"/><path class="cls-11" d="M260,123.55c3.5,2,3.52,5.26.05,7.27a13.75,13.75,0,0,1-12.52,0c-3.46-2-3.48-5.23,0-7.23a13.73,13.73,0,0,1,12.51,0Z"/><path class="cls-14" d="M294.68,146.86c1.63-1,3-.21,3,1.71a6.65,6.65,0,0,1-3,5.17c-1.64.94-3,.16-3-1.71a6.58,6.58,0,0,1,3-5.17Z"/><path class="cls-15" d="M303.59,141.71c1.63-.94,3-.2,3,1.71a6.67,6.67,0,0,1-3,5.18c-1.63.94-3,.16-3-1.72A6.62,6.62,0,0,1,303.59,141.71Z"/><path class="cls-3" d="M312.5,136.57c1.63-.94,3-.21,3,1.71a6.65,6.65,0,0,1-3,5.17c-1.67,1-3,.16-3-1.71a6.53,6.53,0,0,1,3-5.17Z"/><path class="cls-10" d="M197.29,139.46c-1.46-.84-2.68-.18-2.69,1.53a6,6,0,0,0,2.67,4.63c1.5.87,2.69.15,2.69-1.53A5.81,5.81,0,0,0,197.29,139.46Z"/><path class="cls-10" d="M242.42,166v5l-39.08-22.56v-5Z"/><path class="cls-12" d="M194.51,117.18l.09,9.65a1.92,1.92,0,0,0,1.09,1.59l54.92,31.86a6.24,6.24,0,0,0,5.45.09l55.25-32a2,2,0,0,0,1.17-1.59l-.08-9.74a2,2,0,0,1-1.18,1.68l-55.16,31.86a6.4,6.4,0,0,1-5.54,0L195.6,118.69a1.85,1.85,0,0,1-1.09-1.51Z"/><path class="cls-11" d="M195.64,118.7l54.85,31.89a6.41,6.41,0,0,0,5.54.06l55.21-31.89c1.57-.93,1.52-2.39.06-3.27l-54.92-26.2a5.84,5.84,0,0,0-5.48.06l-55.26,26.2c-1.46.88-1.52,2.28,0,3.15Z"/><path class="cls-23" d="M188.27,98.66l.09,18.43a2.18,2.18,0,0,0,1.22,1.77l61,35.38a6.91,6.91,0,0,0,6.05.09L318,118.86a2.19,2.19,0,0,0,1.31-1.77l-.1-18.53a2.22,2.22,0,0,1-1.3,1.87l-61.27,35.38a7.13,7.13,0,0,1-6.15,0l-61-35.48a2,2,0,0,1-1.21-1.67Z"/><path class="cls-4" d="M189.52,100.35l60.92,35.41a7,7,0,0,0,6.15.07l61.32-35.42c1.75-1,1.68-2.65.06-3.62L257,61.37a6.51,6.51,0,0,0-6.08.07L189.52,96.85c-1.62,1-1.69,2.53,0,3.5Z"/><path class="cls-24" d="M226.34,100.63l27.25,15.89,27.55-15.94-27.3-15.83Z"/><path class="cls-23" d="M222.79,98.58l3.55,2,27.5-15.88V80.63Z"/><path class="cls-20" d="M253.84,80.63v4.12l27.3,15.83,3.55-2.06Z"/><path class="cls-11" d="M260,96.18c3.5,2,3.52,5.26.05,7.28a13.78,13.78,0,0,1-12.52,0c-3.46-2-3.48-5.24,0-7.23A13.76,13.76,0,0,1,260,96.18Z"/><path class="cls-14" d="M294.68,119.49c1.63-.94,3-.2,3,1.71a6.67,6.67,0,0,1-3,5.18c-1.64.94-3,.16-3-1.72a6.6,6.6,0,0,1,3-5.17Z"/><path class="cls-15" d="M303.59,114.35c1.63-.94,3-.21,3,1.71a6.65,6.65,0,0,1-3,5.17c-1.63.94-3,.16-3-1.71A6.61,6.61,0,0,1,303.59,114.35Z"/><path class="cls-11" d="M312.5,109.2c1.63-.94,3-.2,3,1.72a6.65,6.65,0,0,1-3,5.17c-1.67,1-3,.16-3-1.72a6.56,6.56,0,0,1,3-5.17Z"/><path class="cls-8" d="M197.29,112.09c-1.46-.84-2.68-.18-2.69,1.54a6,6,0,0,0,2.67,4.63c1.5.86,2.69.14,2.69-1.53A5.84,5.84,0,0,0,197.29,112.09Z"/><path class="cls-8" d="M242.42,138.62v5L203.33,121v-5Z"/><path class="cls-12" d="M194.51,89.81l.09,9.65a2,2,0,0,0,1.09,1.6l54.92,31.86a6.21,6.21,0,0,0,5.45.08l55.25-31.94a2,2,0,0,0,1.17-1.6l-.08-9.73a2,2,0,0,1-1.18,1.68l-55.16,31.86a6.47,6.47,0,0,1-5.54,0L195.6,91.32a1.84,1.84,0,0,1-1.09-1.51Z"/><path class="cls-11" d="M195.64,91.34l54.85,31.88a6.34,6.34,0,0,0,5.54.06l55.21-31.89c1.57-.93,1.52-2.39.06-3.26L256.38,61.92a5.9,5.9,0,0,0-5.48.06L195.63,88.19C194.18,89.06,194.12,90.46,195.64,91.34Z"/><path class="cls-23" d="M188.27,70.32l.09,18.43a2.18,2.18,0,0,0,1.22,1.77l61,35.38a6.91,6.91,0,0,0,6.05.09L318,90.52a2.19,2.19,0,0,0,1.31-1.77l-.1-18.53a2.22,2.22,0,0,1-1.3,1.87l-61.27,35.38a7.13,7.13,0,0,1-6.15,0L189.48,72a2,2,0,0,1-1.21-1.67Z"/><path class="cls-4" d="M189.52,72l60.92,35.41a7.09,7.09,0,0,0,6.15.07l61.32-35.42c1.75-1,1.68-2.65.06-3.62L257,33a6.51,6.51,0,0,0-6.08.07L189.52,68.51c-1.62,1-1.69,2.53,0,3.5Z"/><path class="cls-14" d="M294.68,91.15c1.63-.94,3-.2,3,1.71a6.63,6.63,0,0,1-3,5.17c-1.64,1-3,.17-3-1.71a6.6,6.6,0,0,1,3-5.17Z"/><path class="cls-15" d="M303.59,86c1.63-.94,3-.21,3,1.71a6.65,6.65,0,0,1-3,5.17c-1.63.94-3,.16-3-1.71A6.61,6.61,0,0,1,303.59,86Z"/><path class="cls-10" d="M312.5,80.86c1.63-.94,3-.2,3,1.71a6.67,6.67,0,0,1-3,5.18c-1.67,1-3,.16-3-1.72a6.56,6.56,0,0,1,3-5.17Z"/><path class="cls-14" d="M197.29,83.75c-1.46-.84-2.68-.18-2.69,1.54a6,6,0,0,0,2.67,4.63c1.5.86,2.69.14,2.69-1.53A5.84,5.84,0,0,0,197.29,83.75Z"/><path class="cls-14" d="M242.42,110.28v5L203.33,92.68v-5Z"/><path class="cls-11" d="M197.29,56c-1.46-.85-2.68-.19-2.69,1.53a6,6,0,0,0,2.67,4.63c1.5.86,2.69.15,2.69-1.53A5.81,5.81,0,0,0,197.29,56Z"/><path class="cls-12" d="M194.51,61.18l.09,9.65a1.94,1.94,0,0,0,1.09,1.59l54.92,31.86a6.24,6.24,0,0,0,5.45.09l55.25-31.95a2,2,0,0,0,1.17-1.59l-.08-9.74a2,2,0,0,1-1.18,1.68L256.06,94.63a6.4,6.4,0,0,1-5.54,0L195.6,62.68a1.83,1.83,0,0,1-1.09-1.5Z"/><path class="cls-11" d="M195.64,62.7l54.85,31.89a6.41,6.41,0,0,0,5.54.06l55.21-31.89c1.57-.94,1.52-2.39.06-3.27l-54.92-26.2a5.87,5.87,0,0,0-5.48.05L195.63,59.55C194.18,60.42,194.12,61.82,195.64,62.7Z"/><path class="cls-23" d="M188.27,41.68l.09,18.43a2.18,2.18,0,0,0,1.22,1.77l61,35.38a6.91,6.91,0,0,0,6.05.1L318,61.88a2.19,2.19,0,0,0,1.31-1.77l-.1-18.52a2.22,2.22,0,0,1-1.3,1.86L256.62,78.83a7.13,7.13,0,0,1-6.15,0l-61-35.47a2,2,0,0,1-1.21-1.68Z"/><path class="cls-4" d="M189.52,43.37l60.92,35.42a7.06,7.06,0,0,0,6.15.06l61.32-35.41c1.75-1,1.68-2.66.06-3.63L257,4.39a6.51,6.51,0,0,0-6.08.07L189.52,39.88c-1.62,1-1.69,2.52,0,3.49Z"/><path class="cls-4" d="M189.52,43.37l60.92,35.42a7.06,7.06,0,0,0,6.15.06l61.32-35.41c1.75-1,1.68-2.66.06-3.63L257,4.39a6.51,6.51,0,0,0-6.08.07L189.52,39.88c-1.62,1-1.69,2.52,0,3.49Z"/><path class="cls-20" d="M253.58,74.75a2.26,2.26,0,0,1-.78-.11L196,41.63l57.26-33,1.33-.05L311.55,41.6,254.21,74.73Z"/><path class="cls-4" d="M209.69,41.64,254,16.1l43.9,25.49-44.3,25.6Z"/><path class="cls-14" d="M294.68,62.51c1.63-.94,3-.2,3,1.72a6.65,6.65,0,0,1-3,5.17c-1.64.94-3,.16-3-1.71a6.62,6.62,0,0,1,3-5.18Z"/><path class="cls-15" d="M303.59,57.37c1.63-.94,3-.2,3,1.71a6.63,6.63,0,0,1-3,5.17c-1.63,1-3,.16-3-1.71A6.61,6.61,0,0,1,303.59,57.37Z"/><path class="cls-10" d="M312.5,52.23c1.63-.95,3-.21,3,1.71a6.65,6.65,0,0,1-3,5.17c-1.67,1-3,.16-3-1.71a6.53,6.53,0,0,1,3-5.17Z"/><path class="cls-11" d="M242.42,81.64v5L203.33,64.05v-5Z"/><path class="cls-11" d="M197.55,55.58c-1.46-.84-2.69-.18-2.69,1.54a5.94,5.94,0,0,0,2.67,4.63c1.5.86,2.69.14,2.69-1.54A5.86,5.86,0,0,0,197.55,55.58Z"/><path class="cls-18" d="M156.28,366.21v4.57l138,80.2v-4.57Z"/><path class="cls-8" d="M156.28,366.21l138,80.2,118.8-68.59-138-80.2Z"/><path class="cls-7" d="M168.17,366.21,294.3,439.53l106.9-61.72L275.08,304.5Z"/><path class="cls-3" d="M294.29,446.41V451l118.8-68.59v-4.57Z"/><path class="cls-18" d="M292,429.88l3.75,2.18,92.54-53.43-3.75-2.18Z"/><path class="cls-18" d="M232.64,338.39l3.39,2,44.86-25.9-3.39-2Z"/><path class="cls-18" d="M249.73,348.33l3.4,2L298,324.4l-3.4-2Z"/><path class="cls-18" d="M266.83,358.26l3.39,2,44.86-25.9-3.39-2Z"/><path class="cls-4" d="M306.17,346.73c-7.28,4.2-7.32,11-.09,15.22l13.19-7.61Z"/><path class="cls-25" d="M310.13,346.73l13.11,7.62L310.08,362c7.21,4.19,19,4.19,26.24,0s7.32-11,.1-15.21-19-4.22-26.29,0Z"/><path class="cls-4" d="M220,345.67l37.21,21.63,6.26-3.62-37.21-21.62Z"/><path class="cls-14" d="M212.7,355.55,245,374.34l6.28-3.62L219,351.92Z"/><path class="cls-12" d="M204.75,365l28.11,16.33,6.26-3.61L211,361.42Z"/><path class="cls-26" d="M276.28,366.27c-7.28,4.2-7.31,11-.1,15.21l13.18-7.61,13.12,7.62c7.28-4.2,7.32-11,.1-15.21S283.56,362.06,276.28,366.27Z"/><path class="cls-18" d="M276.19,383.78c7.23,4.2,19,4.2,26.28,0l-13.1-7.61Z"/><path class="cls-13" d="M242.46,383.51l13.08,7.6,13.18-7.61C261.45,379.32,249.74,379.31,242.46,383.51Z"/><path class="cls-14" d="M242.44,385.8c-7.28,4.21-7.32,11-.06,15.24s19,4.19,26.26,0,7.3-11,.08-15.2l-13.2,7.58Z"/><path class="cls-18" d="M263.68,413.42l3.75,2.18L360,362.17,356.23,360Z"/><path class="cls-18" d="M273.12,418.9l3.75,2.18,92.54-53.43-3.75-2.18Z"/><path class="cls-18" d="M241.18,343.36l3.4,2,44.86-25.9-3.4-2Z"/><path class="cls-18" d="M258.28,353.3l3.39,2,44.86-25.9-3.39-2Z"/><path class="cls-18" d="M282.55,424.39l3.75,2.18,92.55-53.44L375.1,371Z"/><path class="cls-10" d="M196.22,374.22l24.44,14.2,6.26-3.62-24.43-14.2Z"/><path class="cls-27" d="M298.87,296l-4.32,8.33-7.13-8-1.13-1.29-1.22-1.29,1.9.31,1.82.3Z"/><g class="cls-9"><path class="cls-11" d="M410.19,360.58a2.4,2.4,0,0,0-2.35.23,7.51,7.51,0,0,0-3.41,5.83,2.47,2.47,0,0,0,1,2.2L294.53,304.39a2.45,2.45,0,0,1-1-2.2,7.3,7.3,0,0,1,3.41-5.76,2.28,2.28,0,0,1,2.35-.23Z"/><path class="cls-13" d="M407.8,360.83c1.84-1.06,3.35-.2,3.35,1.91a7.37,7.37,0,0,1-3.32,5.82c-1.89,1.09-3.4.23-3.4-1.94A7.37,7.37,0,0,1,407.8,360.83Z"/></g><path class="cls-22" d="M288.79,294.37l-1.37,2-1.13-1.29-1.22-1.29,1.9.31Z"/><path class="cls-17" d="M301.32,396.57c0,7.12-4.68,14.24-14.05,19.65-18.65,10.76-48.86,10.76-67.39,0-.52-.32-1-.6-1.52-1a30.4,30.4,0,0,1-8.08-7.09,18.22,18.22,0,0,1-4.2-11.28l0-7.48c0,1,2.12,1.92,5.72,2.64a.15.15,0,0,0,.12,0,.74.74,0,0,0-.08.28c1.08,5.2,5.08,10.2,11.85,14.2,16.44,9.53,43.21,9.53,59.7,0,7-4,11-9.08,12.13-14.4,0-.12,0-.2-.08-.32a.3.3,0,0,0,.2,0c3.4-.68,5.44-1.52,5.64-2.52a.27.27,0,0,0,0-.17Z"/><path class="cls-22" d="M287.43,369.76C269,359,238.77,359,220.08,369.76c-9.36,5.4-14,12.52-14,19.65s4.6,14,13.8,19.36c18.49,10.77,48.7,10.77,67.35,0,9.33-5.36,14-12.44,14.05-19.48S296.72,375.16,287.43,369.76Zm-4.08,36.81c-16.49,9.53-43.26,9.53-59.7,0-6.77-4-10.77-9-11.85-14.2a.74.74,0,0,1,.08-.28c.84-3.85,3.32-7.57,7.36-10.89a33.13,33.13,0,0,1,4.69-3.2c1-.6,2.12-1.16,3.2-1.68,13.28-6.2,31.65-7.08,46.34-2.68.92.28,1.8.56,2.68.92h0a35.39,35.39,0,0,1,5,2.16s0,0,0,0c.8.44,1.56.84,2.32,1.28a34.44,34.44,0,0,1,4.6,3.2c.68.52,1.32,1.12,1.92,1.68a21.24,21.24,0,0,1,1.6,1.76,18.23,18.23,0,0,1,1.37,1.84,16.1,16.1,0,0,1,2.32,5.37c0,.12,0,.2.08.32-1.08,5.32-5.13,10.4-12.13,14.4Z"/><path class="cls-17" d="M295.6,391.81c0,.12,0,.28-.08.4a1.27,1.27,0,0,0-.12-.36,16.1,16.1,0,0,0-2.32-5.37,18.23,18.23,0,0,0-1.37-1.84,21.24,21.24,0,0,0-1.6-1.76c-.6-.56-1.24-1.16-1.92-1.68a34.44,34.44,0,0,0-4.6-3.2c-.76-.44-1.52-.84-2.32-1.28,0,0,0,0,0,0a35.39,35.39,0,0,0-5-2.16h0c-.88-.36-1.76-.64-2.68-.92-14.69-4.4-33.06-3.52-46.34,2.68-1.08.52-2.16,1.08-3.2,1.68a33.13,33.13,0,0,0-4.69,3.2c-4,3.32-6.52,7-7.36,10.89a.74.74,0,0,0-.08.28.88.88,0,0,1,0-.32c-1.4-7.17,2.68-14.61,12.17-20.05,16.52-9.53,43.29-9.53,59.66,0,9.33,5.36,13.33,12.72,12,19.81Z"/><path class="cls-11" d="M227.13,376.32c-1.08.52-2.16,1.08-3.2,1.68a33.13,33.13,0,0,0-4.69,3.2,33.24,33.24,0,0,1,4.69-3.24,34.49,34.49,0,0,1,3.2-1.64Z"/><path class="cls-11" d="M288.19,381.2a34.44,34.44,0,0,0-4.6-3.2c-.76-.44-1.52-.84-2.32-1.28.8.4,1.6.8,2.36,1.24A33.07,33.07,0,0,1,288.19,381.2Z"/><path class="cls-3" d="M202.26,412.82a2.59,2.59,0,0,1,2.59.25,8.09,8.09,0,0,1,3.64,6.32,2.53,2.53,0,0,1-1.05,2.3l10.51-6.1a2.56,2.56,0,0,0,1.06-2.33,8,8,0,0,0-3.64-6.29,2.52,2.52,0,0,0-2.59-.26Z"/><path class="cls-28" d="M203.15,413.77c-2.3-1.33-4.16-.27-4.16,2.37a9.08,9.08,0,0,0,4.13,7.13c2.3,1.33,4.15.27,4.16-2.34A9.09,9.09,0,0,0,203.15,413.77Z"/><path class="cls-10" d="M148.38,441.33a4,4,0,0,1,4,.4,12.33,12.33,0,0,1,5.67,9.8,3.85,3.85,0,0,1-1.65,3.58l54.26-32.17c1-.58,1.64-1.82,1.64-3.62a12.31,12.31,0,0,0-5.66-9.76c-1.58-.92-3-1-4-.4Z"/><path class="cls-28" d="M152.42,441.72c-3.13-1.81-5.68-.36-5.69,3.24a12.48,12.48,0,0,0,5.66,9.77c3.15,1.82,5.68.35,5.69-3.22a12.45,12.45,0,0,0-5.66-9.79Z"/><g class="cls-29"><path class="cls-11" d="M295.49,392.19c-1.08,5.3-5.13,10.38-12.15,14.37-16.49,9.53-43.25,9.53-59.68,0-6.79-4-10.79-9-11.87-14.2,1.08-5.25,5.14-10.33,12.15-14.38,16.49-9.47,43.31-9.47,59.69,0C290.47,382,294.47,387.05,295.49,392.19Z"/></g></g></g></svg>