<svg xmlns="http://www.w3.org/2000/svg" viewBox="0 0 477.81 477.81"><defs><style>.cls-1{fill:#49b1f7;}.cls-2{fill:#ffaa7b;}.cls-3{fill:#fc9460;}.cls-4{fill:#4b6bb2;}.cls-5{fill:#3c58a0;}.cls-6{fill:#73c3f9;}.cls-7{fill:#6c5475;}.cls-8{fill:#543e5b;}.cls-9{fill:#ffc7ab;}.cls-10{fill:#d3dcfb;}.cls-11{fill:#deeeff;}.cls-12{fill:#bec8f7;}.cls-13{fill:#7255ce;}.cls-14{fill:#9787f4;}.cls-15{fill:#fc90ce;}.cls-16{fill:#856ee5;}.cls-17{fill:#fb7ac0;}.cls-18{fill:#9bd8f9;}.cls-19{fill:#fcc8ea;}</style></defs><g id="Слой_2" data-name="Слой 2"><g id="Слой_1-2" data-name="Слой 1"><path class="cls-1" d="M403.84,396.06a227.69,227.69,0,0,0,53.44-146.9c0-126.27-102.36-228.64-228.64-228.64S0,122.89,0,249.16a228.75,228.75,0,0,0,9.27,64.6Z"/><path class="cls-2" d="M236.83,232.62a104.77,104.77,0,0,1-15.09,14.43,55.21,55.21,0,0,1-33.86,11.57c-1.29,0-2.58-.05-3.86-.14a34.07,34.07,0,0,0,2.45,3.84c-.05,4-1,34.08-16.2,50.12a21.81,21.81,0,0,0-5.39-1.39,197.28,197.28,0,0,0,15.8,12.7,6.29,6.29,0,0,1,2.61,5.39h9.18a6.29,6.29,0,0,1,2.6-5.39c37.39-27.13,45.17-49.89,46.72-59.52l1.31-.54c-4.53-9.57-5.95-21.78-6.27-31.07Z"/><path class="cls-3" d="M187.88,261.86a34.81,34.81,0,0,1-2.2-3.28A55.22,55.22,0,0,1,154,247.05a104.26,104.26,0,0,1-15.09-14.43c-.33,9.46-1.8,22-6.54,31.61H134c1.34,8.31,7.33,26.39,33,48.62a16.34,16.34,0,0,1,3.66,1.27c17.54-17.54,17.3-52.26,17.3-52.26Z"/><path class="cls-1" d="M242,340.17c-4.39,6.41-8.59,11.88-11.36,15.36a8.89,8.89,0,0,1-11.85,1.8c-10.47-7-19.42-17.32-25.09-24.71a6.21,6.21,0,0,1-1.08-5.34h-9.57a6.17,6.17,0,0,1-1.07,5.34c-5.67,7.39-14.63,17.68-25.1,24.71a8.88,8.88,0,0,1-11.84-1.8c-2.77-3.48-7-8.95-11.37-15.36l-1.44-.32L146,462.39c4.12,1.6,8.3,3.06,12.53,4.43l60.28,10.76c3.08.13,6.18.21,9.3.22l15.45-138.26Z"/><path class="cls-4" d="M176.87,366.78a2.06,2.06,0,0,1-.9-.28c-2.34,9.45-11.14,54.58-17.54,100.3a227.58,227.58,0,0,0,60.36,10.78c-6.44-49.18-16.48-100.89-19-111.08a2.06,2.06,0,0,1-.91.28c-3.63.25-7.32,2-11,2s-7.37-1.74-11-2Z"/><path class="cls-5" d="M207.6,464.51a23.77,23.77,0,0,1-19.7-23.43V402.54c0-12.48,9.21-15.77,15.95-16.51-1.84-9.51-3.3-16.43-4.06-19.53a2.06,2.06,0,0,1-.91.28c-3.63.25-7.32,2-11,2s-7.37-1.74-11-2a2.06,2.06,0,0,1-.9-.28c-2.34,9.45-11.14,54.58-17.54,100.3a227.58,227.58,0,0,0,60.36,10.78q-.75-5.68-1.55-11.39Z"/><path class="cls-4" d="M193.74,332.62a6.21,6.21,0,0,1-1.08-5.34h-9.57a6.17,6.17,0,0,1-1.07,5.34A131.64,131.64,0,0,1,165,351.11c3.74,6,7.12,13,10.36,16.74a2.31,2.31,0,0,0,1.55.8c3.64.25,7.32,2,11,2s7.37-1.74,11-2a2.31,2.31,0,0,0,1.56-.8c3.23-3.73,6.61-10.74,10.36-16.74a130.44,130.44,0,0,1-17.06-18.49Z"/><path class="cls-6" d="M240.75,259.44s2.11,27.9-46.5,63.17a7.67,7.67,0,0,0-1.62,10.86c5.26,6.86,14.53,17.7,25.42,25a10.23,10.23,0,0,0,13.72-2.09c3.17-4,7.35-9.47,11.63-15.73l6.18-55.32a31.07,31.07,0,0,0-1.63-14,36.45,36.45,0,0,1-6.27-10.91C241.09,259.78,240.75,259.44,240.75,259.44Z"/><path class="cls-6" d="M181.51,322.61c-5.21-3.77-9.83-7.46-13.93-11.05a23.24,23.24,0,0,0-12.56.36c-8.46,2.58-15.9,9.7-22.12,21.17-.39-.13-.88-.27-1.44-.43l.9,8c4.27,6.26,8.46,11.75,11.62,15.73a10.23,10.23,0,0,0,13.72,2.09c10.9-7.32,20.17-18.16,25.43-25a7.68,7.68,0,0,0-1.62-10.86Z"/><path class="cls-1" d="M170.58,314.12C133.23,283,135,259.44,135,259.44l-.94,1a36.43,36.43,0,0,1-6.26,10.91,30.94,30.94,0,0,0-1.63,14l5.45,48.82c1.25.36,1.94.64,1.94.64,16.6-31.7,37-20.69,37-20.69Z"/><path class="cls-7" d="M186,0c-4.38,5.25-23.66,31.17,0,55.89-.32.42-.72,1-1.19,1.62a34.69,34.69,0,0,0,14-1.64c10.94-3.64,28.1-7.28,42.09-1C257.38,62.29,256,85,255.1,97.49a20.37,20.37,0,0,0,3.07,12.43,37.63,37.63,0,0,1,3.37,6.79,63.13,63.13,0,0,1,2.35,10.62c2.52-1.22,8-2.56,11.09-2.12.38-13.11,1.59-29.11,1.59-29.11C289.83,31.15,235.76-.31,186,0Z"/><path class="cls-8" d="M171.51,1c-49.17,6.69-53.84,34.57-53.86,44.79a5.6,5.6,0,0,1-3.12,5.07C89,63.32,102.75,125.15,102.75,125.15a32.41,32.41,0,0,1,9.12,2.18c.49-3,1.29-7.93,2.43-10.84a37.91,37.91,0,0,1,3.28-6.56,20.17,20.17,0,0,0,3.09-12.33c-.92-12.51-2.34-35.29,14.17-42.72,14-6.29,31.14-2.65,42.09,1a34.45,34.45,0,0,0,9.57,1.75c.85-1.18,1.38-1.84,1.38-1.84-27.12-27.13,0-55.75,0-55.77a112.29,112.29,0,0,0-16.37,1Z"/><path class="cls-9" d="M263.41,116.71a38.3,38.3,0,0,0-3.37-6.79A20.37,20.37,0,0,1,257,97.49c.91-12.54.42-37.07-16-44.47-14-6.3-31.14-2.65-42.09,1a34.68,34.68,0,0,1-13,1.7l.17.18c-3.39,4.49-16.65,23.17-16.65,40.46,0,14,.74,19.31,1.22,21.29a11.88,11.88,0,0,0-3.07,7.29,10.45,10.45,0,0,0,2.73,7.06,12,12,0,0,0-3.07,7.25,11.28,11.28,0,0,0,3.1,7.89,11.77,11.77,0,0,0-2.72,7,10.51,10.51,0,0,0,2.89,7.2c-1.67,3.29-2.8,9.08,2.4,12.81l4.81,12a17.19,17.19,0,0,0-.39,18.84l7.6,10.9c-1.1,1.91-1.94,5.08.29,7.73v7.77c-1.72,2.47-9.68,15.48,1,30.42.58,0,1.16,0,1.75,0a55.21,55.21,0,0,0,33.86-11.57A104.2,104.2,0,0,0,262,167.45l3.89-28.34A45.33,45.33,0,0,0,263.41,116.71Z"/><path class="cls-2" d="M186.57,231.85v-8.76c-3.16-3.16,0-7.21,0-7.21l-8.08-11.59a15.68,15.68,0,0,1,.77-17.93L174,173.21c-6.69-4.43-1.82-12.1-1.82-12.1-7.23-7.23,0-14,0-14-8.1-8.1,0-15.1,0-15.1-7.31-7.31,0-14,0-14s-1.4-2.53-1.4-21.66,17.1-40.57,17.1-40.57a34.78,34.78,0,0,1-11-1.77c-10.94-3.64-28.1-7.29-42.08-1-16.51,7.43-17,32.07-16,44.58a20.18,20.18,0,0,1-3.08,12.32,37.7,37.7,0,0,0-3.29,6.57,45.38,45.38,0,0,0-2.57,22.61l3.9,28.35A104.17,104.17,0,0,0,154,250.29a55.21,55.21,0,0,0,33.86,11.57c-12.3-16.23-1.31-30-1.31-30Z"/><path class="cls-10" d="M271.72,473.74a228.45,228.45,0,0,0,132.12-77.68,313.73,313.73,0,0,0-16.61-57.23,52.52,52.52,0,0,0-27.32-28.61l-80.48-36.11-.44,1.51a57.41,57.41,0,0,1,8.87,12.89,34.43,34.43,0,0,1,3.61,13.71l2.25,43.42a12,12,0,0,1-3.27,8.86l-23,24.24a3.83,3.83,0,0,0,.5,5.72L287.58,399a3.85,3.85,0,0,1,1.45,4Z"/><path class="cls-11" d="M293.34,302.22a34.47,34.47,0,0,0-3.61-13.71,57.34,57.34,0,0,0-10.3-14.4,107.34,107.34,0,0,0-41.08-26.18s.52,10.3,5.42,18.48a30.24,30.24,0,0,1,3.94,18.94L226.2,477.78c.82,0,1.63,0,2.44,0a229.63,229.63,0,0,0,45-4.45L290.89,403a3.83,3.83,0,0,0-1.44-4l-19.64-14.57a3.84,3.84,0,0,1-.5-5.72l23-24.24a12,12,0,0,0,3.27-8.85Z"/><path class="cls-10" d="M85.31,354.5a11.55,11.55,0,0,1-1.86-2.6l-.84,1.29a56.87,56.87,0,0,0-22.76,8.66,49.36,49.36,0,0,0-17.47,19.91,229.82,229.82,0,0,0,52,52.46L86.73,403a3.84,3.84,0,0,1,1.44-4l19.64-14.56a3.85,3.85,0,0,0,.5-5.73Z"/><path class="cls-12" d="M15.85,310.23a51.85,51.85,0,0,0-6.58,3.53,227.66,227.66,0,0,0,34,69.25c12.13-26,40.15-28.51,40.15-28.51.27-.44.54-.87.82-1.29A11.91,11.91,0,0,1,82,345.65l2.25-43.43a34.29,34.29,0,0,1,3.6-13.71,57.74,57.74,0,0,1,8.87-12.89l-.43-1.51Z"/><path class="cls-11" d="M132.9,333.09a44.22,44.22,0,0,0-17.15-1.8c-9.4.87-22.73,5.39-33.14,21.9l-.21,0a11.62,11.62,0,0,0,1,1.28l23,24.24a3.83,3.83,0,0,1-.5,5.72L86.31,399a3.83,3.83,0,0,0-1.45,4l7.23,29.55a228.43,228.43,0,0,0,55.82,30.56L133.3,332.38l-.4.71Z"/><path class="cls-10" d="M133.57,334.81,128,285.35a30.31,30.31,0,0,1,4-18.94c4.9-8.18,5.41-18.48,5.41-18.48a107.29,107.29,0,0,0-41.07,26.18A57.09,57.09,0,0,0,86,288.51a34.47,34.47,0,0,0-3.61,13.71l-2.25,43.43a12,12,0,0,0,3.27,8.85c19.67-31.92,50.13-19.69,50.13-19.69Z"/><path class="cls-13" d="M111.13,171H103a13.57,13.57,0,0,1-13.53-13.53V121.63A13.57,13.57,0,0,1,103,108.1h8.17a5.41,5.41,0,0,1,5.39,5.39v52.14A5.41,5.41,0,0,1,111.13,171Z"/><path class="cls-14" d="M274.68,171h-8.17a5.4,5.4,0,0,1-5.39-5.39V113.49a5.4,5.4,0,0,1,5.39-5.39h8.17a13.57,13.57,0,0,1,13.53,13.53v35.86A13.57,13.57,0,0,1,274.68,171Z"/><path class="cls-11" d="M274.43,118H170.29a11.68,11.68,0,0,0-2.76,6.92,10.45,10.45,0,0,0,2.73,7.06,12,12,0,0,0-3.07,7.25,11.28,11.28,0,0,0,3.1,7.89,11.77,11.77,0,0,0-2.72,7,10.45,10.45,0,0,0,2.72,7H274.44a21.55,21.55,0,0,0,0-43.1Z"/><path class="cls-12" d="M172.18,118h-69a21.55,21.55,0,1,0,0,43.1h69c-7.23-7.23,0-14,0-14-8.1-8.1,0-15.1,0-15.1C164.87,124.7,172.18,118,172.18,118Z"/><path class="cls-6" d="M257.85,139.56A7.65,7.65,0,0,1,265.4,132H170.24a12,12,0,0,0-3.05,7.23,11.27,11.27,0,0,0,3.08,7.87H265.4A7.65,7.65,0,0,1,257.85,139.56Z"/><path class="cls-1" d="M172.18,132h-69a7.55,7.55,0,1,0,0,15.1h69c-8.1-8.1,0-15.1,0-15.1Z"/><path class="cls-15" d="M282,139.56a7.65,7.65,0,0,0-7.55-7.55h-10.9a7.55,7.55,0,0,0,0,15.1h10.9A7.65,7.65,0,0,0,282,139.56Z"/><path class="cls-3" d="M208.29,207.62l-8.15-3.22a4.35,4.35,0,0,0-2.87-.11l-9.39,2.83-9.4-2.83a4.35,4.35,0,0,0-2.87.11l-8.15,3.22a4.38,4.38,0,1,0,3.22,8.15l6.73-2.65,9.16,2.76a4.34,4.34,0,0,0,2.62,0l9.15-2.76,6.74,2.65a4.38,4.38,0,0,0,3.21-8.15Z"/><path class="cls-3" d="M191,223.09h-5.62a4.38,4.38,0,0,0,0,8.76H191a4.38,4.38,0,1,0,0-8.76Z"/><path class="cls-3" d="M212.49,176.71a4.13,4.13,0,0,0-2.63-1.79l-8.11-1.71a3.86,3.86,0,0,0-4.42,1.93l-.09.15a11.73,11.73,0,0,1-18.72,0,1,1,0,0,1-.09-.15,3.88,3.88,0,0,0-4.43-1.93l-8.11,1.71a4.15,4.15,0,1,0,1.72,8.13l4.52-1a1.84,1.84,0,0,1,1.69.5,20.32,20.32,0,0,0,28.12,0,1.86,1.86,0,0,1,1.69-.5l4.52,1a4.16,4.16,0,0,0,4.34-6.35Z"/><path class="cls-16" d="M460.85,12.09H376.59l.26.26c-2.62,5.16-13.66,29.91,6.13,45.39l6,9.94,33.8,34.79-5,16.69c-1,2.14-14.15,30.45,8.27,48.66h34.77a17,17,0,0,0,17-16.95V29.05A17,17,0,0,0,460.85,12.09Z"/><path class="cls-13" d="M334.13,12.09a17,17,0,0,0-17,17V150.87a17,17,0,0,0,17,17h94.22c-24.57-18.28-9.23-48.16-9.23-48.16l5.26-17.58L390.11,66.82l-6.06-10c-21.68-16.69-5.48-44.7-5.48-44.7Z"/><path class="cls-17" d="M371.8,160.19a5.41,5.41,0,0,1,0-7.65c8.06-8,4.64-20.59-1.5-38.78-5.78-17.11-12.32-36.49,1.09-49.9s32.8-6.87,49.9-1.1c18.2,6.14,30.73,9.56,38.79,1.51a5.41,5.41,0,0,1,7.65,7.65c-13.41,13.41-32.8,6.87-49.9,1.1-18.2-6.14-30.73-9.57-38.79-1.51s-4.63,20.59,1.51,38.79c5.77,17.1,12.31,36.49-1.1,49.89A5.4,5.4,0,0,1,371.8,160.19Z"/><path class="cls-15" d="M460.08,64.27c-5.39,5.39-12.79,5.64-22.54,3.38s-7.06,3.69-1.77,10.71c11.67,2.57,23.12,2.4,32-6.44a5.41,5.41,0,0,0-7.65-7.65Z"/><path class="cls-6" d="M327.25,115.65a5.43,5.43,0,0,1,0-7.66c13.41-13.4,32.8-6.86,49.9-1.09,18.2,6.14,30.73,9.56,38.79,1.5s4.63-20.58-1.51-38.78c-5.77-17.11-12.31-36.49,1.1-49.9a5.41,5.41,0,1,1,7.65,7.65c-8.06,8.06-4.63,20.59,1.51,38.79,5.77,17.1,12.31,36.49-1.1,49.9s-32.79,6.86-49.9,1.09c-18.2-6.14-30.73-9.56-38.78-1.5A5.43,5.43,0,0,1,327.25,115.65Z"/><path class="cls-1" d="M377.15,106.9c-17.1-5.77-36.49-12.31-49.9,1.1a5.41,5.41,0,0,0,7.66,7.65c8-8.06,20.59-4.64,38.78,1.5-5.31-7.78,3.46-10.25,3.46-10.25Z"/><path class="cls-18" d="M454.17,65.92,421.53,33.28a4.51,4.51,0,0,0-6.38,6.38L447.79,72.3a4.51,4.51,0,0,0,6.38-6.38Z"/><path class="cls-19" d="M424.38,95.71,391.74,63.07a4.51,4.51,0,0,0-6.38,6.38L418,102.09a4.51,4.51,0,1,0,6.38-6.38Z"/><path class="cls-18" d="M409.62,110.46,377,77.83a4.51,4.51,0,0,0-6.38,6.38l32.64,32.63a4.51,4.51,0,1,0,6.38-6.38Z"/><path class="cls-19" d="M379.83,140.25l-32.64-32.63a4.51,4.51,0,0,0-6.38,6.38l32.64,32.63a4.51,4.51,0,0,0,6.38-6.38Z"/><path class="cls-6" d="M92,242.08C114.42,206,49.63,182.23,61.31,133c4.2-17.72,1.92-29.21-2.73-36.67A227.8,227.8,0,0,0,0,249.16q0,8.37.6,16.59C31.13,267.37,77.46,265.6,92,242.08Z"/><path class="cls-6" d="M321.15,201.27A28,28,0,0,0,311.76,255C352.11,272.48,425.18,286.6,433,351.7a229.39,229.39,0,0,0,17.38-158.31,108.43,108.43,0,0,1-46.58,10C378,203.4,345.72,199.71,321.15,201.27Z"/><path class="cls-12" d="M354.28,388.62a7.19,7.19,0,0,0-12.72,4.59V448a228.64,228.64,0,0,0,29.95-20.35,77,77,0,0,0-17.23-39Z"/></g></g></svg>