<svg xmlns="http://www.w3.org/2000/svg" viewBox="0 0 511.91 510.66"><defs><style>.cls-1{fill:#746bf9;}.cls-2{fill:#42c3fc;}.cls-3{fill:#1aa9e8;}.cls-4{fill:#e9efff;}.cls-5{fill:#bec8f7;}.cls-6{fill:#ff4155;}.cls-7{fill:#e80054;}.cls-8{fill:#ffb332;}.cls-9{fill:#ff9100;}.cls-10{fill:#47477f;}.cls-11{fill:#d3dcfb;}.cls-12{fill:#ff7186;}.cls-13{fill:#827df9;}.cls-14{fill:#5f5f9b;}</style></defs><g id="Слой_2" data-name="Слой 2"><g id="Слой_1-2" data-name="Слой 1"><path class="cls-1" d="M245.7,21.94c-135,0-244.36,109.41-244.36,244.36A246.3,246.3,0,0,0,5,308.57L206.42,507.5a245.63,245.63,0,0,0,39.28,3.16c135,0,244.35-109.4,244.35-244.36S380.65,21.94,245.7,21.94Z"/><circle class="cls-2" cx="315.42" cy="59.06" r="59.06"/><path class="cls-3" d="M341.27,112.17a4.8,4.8,0,0,0-1.46-.84c-15.55-5.41-14.26-17.65-12.48-23.77a4.93,4.93,0,0,0-1.89-5.39c-6.1-4.35-4.17-11.15-2.85-14.24a4.81,4.81,0,0,0,.12-3.52L311.89,34.5a4.91,4.91,0,0,0-2.58-2.77C295.92,25.44,298,10.56,299.43,4.56a4.75,4.75,0,0,0,0-2.34,59.06,59.06,0,1,0,41.87,110Z"/><path class="cls-4" d="M315.42,32.31a47.13,47.13,0,0,0-41,23.77,6,6,0,0,0,0,6,47.17,47.17,0,0,0,81.92,0,6,6,0,0,0,0-6A47.15,47.15,0,0,0,315.42,32.31Z"/><path class="cls-5" d="M325.44,82.17c-6.1-4.35-4.17-11.15-2.85-14.24a4.81,4.81,0,0,0,.12-3.52L311.89,34.5a4.83,4.83,0,0,0-1.32-1.92,47.16,47.16,0,0,0-36.11,23.5,6,6,0,0,0,0,6,47.12,47.12,0,0,0,41,23.78,47.64,47.64,0,0,0,11.72-1.49A5,5,0,0,0,325.44,82.17Z"/><circle class="cls-6" cx="445.44" cy="142.46" r="59.05"/><path class="cls-7" d="M465,162.43a4.63,4.63,0,0,0-3.51-4.05,6.34,6.34,0,0,1-3.19-2,4.24,4.24,0,0,1-.56-.88A44.61,44.61,0,0,0,439.26,137c-9.38-5-8.55-12.09-7.19-15.9a4.61,4.61,0,0,0-1.14-4.85c-11.54-11.27-6-23.36-2.8-28.44a4.69,4.69,0,0,0,.71-2.16,59.06,59.06,0,1,0,60.73,95.85c-20.34.87-24.06-12.13-24.62-19Z"/><path class="cls-4" d="M477.07,128.7c-5.34-9.78-17.88-13-27.6-7.57l-2.38,1.33a3.53,3.53,0,0,1-3.45,0l-2.81-1.57a19.89,19.89,0,0,0-27.36,8.16h0A19.84,19.84,0,0,0,421,155.38a90.07,90.07,0,0,1,21.19,16.81,4.27,4.27,0,0,0,6.29,0,90.13,90.13,0,0,1,21.19-16.81,19.84,19.84,0,0,0,7.37-26.68Z"/><path class="cls-5" d="M421,155.38a90.07,90.07,0,0,1,21.19,16.81,4.26,4.26,0,0,0,6.28,0,87.46,87.46,0,0,1,14.87-12.8,4.77,4.77,0,0,0-1.93-1,6.34,6.34,0,0,1-3.19-2,4.24,4.24,0,0,1-.56-.88A44.61,44.61,0,0,0,439.26,137c-9.38-5-8.55-12.09-7.19-15.9a4.62,4.62,0,0,0,.13-2.65,19.87,19.87,0,0,0-18.73,10.65h0A19.84,19.84,0,0,0,421,155.38Z"/><circle class="cls-8" cx="452.86" cy="294.02" r="59.05" transform="translate(-75.27 406.34) rotate(-45)"/><path class="cls-9" d="M464.56,328.86,450.41,265c-20.82-7.76-12.43-28.08-12.4-28.15a59.07,59.07,0,1,0,36.73,112C460.07,344,464.56,328.86,464.56,328.86Z"/><path class="cls-4" d="M426.41,265h53.06a8.54,8.54,0,0,1,8.52,8.52v37.71a8.55,8.55,0,0,1-8.52,8.53h-7.59a2.49,2.49,0,0,0-2.1,1.13l-5.23,8a3.21,3.21,0,0,1-5.38,0l-5.22-8a2.53,2.53,0,0,0-2.1-1.13H426.4a8.55,8.55,0,0,1-8.52-8.53V273.52a8.55,8.55,0,0,1,8.53-8.52Z"/><path class="cls-5" d="M441.89,311.23V273.52a8.54,8.54,0,0,1,8.52-8.52h-24a8.55,8.55,0,0,0-8.53,8.52v37.71a8.56,8.56,0,0,0,8.53,8.53h24a8.55,8.55,0,0,1-8.52-8.53Z"/><path class="cls-10" d="M300.47,34.73a20,20,0,1,0,29.9,0,47.39,47.39,0,0,0-29.9,0Z"/><path class="cls-11" d="M147.67,400.51a13.11,13.11,0,0,1-15.67-2l-.91-.89-19.87,11.48,39.46,41.33c.87-.42,1.73-.87,2.58-1.36A38.95,38.95,0,0,0,164.13,391Z"/><path class="cls-5" d="M132,398.54l-.91-.89-19.87,11.48,39.46,41.33c.87-.42,1.73-.87,2.58-1.36a38.76,38.76,0,0,0,14.53-14.74c-27.6-6.84-20.11-33.85-20.11-33.85a13.12,13.12,0,0,1-15.68-2Z"/><path class="cls-4" d="M112.31,407.85,67.64,433.64a243.88,243.88,0,0,0,140,74.07Z"/><path class="cls-11" d="M152.23,449.67l-39.92-41.82L67.64,433.64a245.63,245.63,0,0,0,53.08,42.66c-1.07-30.48,31.51-26.63,31.51-26.63Z"/><path class="cls-4" d="M41.67,288.65,28,265A15,15,0,0,0,2,280l13.66,23.65Z"/><path class="cls-11" d="M29.4,267.4c.05.55.08,1.1.08,1.65A16.63,16.63,0,0,1,3.73,283l11.94,20.67,26-15Z"/><path class="cls-12" d="M69.21,435.3l64.43-37.2a15,15,0,0,1-2.48-3.17L63.65,278a15,15,0,0,1-1.51-3.74L4.79,307.37A243.65,243.65,0,0,0,69.21,435.3Z"/><path class="cls-6" d="M94.16,337.34l0-6.41L63.65,278a14.57,14.57,0,0,1-1.5-3.74L4.79,307.37a242.8,242.8,0,0,0,21.84,67.27c1.35-12.84,9.94-17,9.94-17S54,347.4,69.22,339,94.16,337.34,94.16,337.34Z"/><path class="cls-11" d="M207.67,360.94a229.46,229.46,0,0,1,139.57-9.66L209.49,112.69a229.52,229.52,0,0,1-78.15,116,14.68,14.68,0,0,1,7,6.17l67.51,116.93a14.67,14.67,0,0,1,1.85,9.11Z"/><path class="cls-5" d="M257.67,196.14l-48.18-83.45a229.52,229.52,0,0,1-78.15,116,14.68,14.68,0,0,1,7,6.17l32.87,56.94c38.48-27.84,68.14-61.37,86.49-95.7Z"/><path class="cls-6" d="M202.34,370.87,148.51,402a14.75,14.75,0,0,1-20.16-5.4L60.84,279.62a14.75,14.75,0,0,1,5.4-20.16l53.83-31.08a14.77,14.77,0,0,1,20.16,5.4l67.51,116.93a14.75,14.75,0,0,1-5.4,20.16Z"/><path class="cls-7" d="M140.23,233.78a14.77,14.77,0,0,0-20.16-5.4L66.24,259.46a14.75,14.75,0,0,0-5.4,20.16l33.32,57.72c3.81-16.82,17.76-9.26,17.76-9.26l44.74-25.82c2.06-16.17,16.33-11.74,16.33-11.74Z"/><path class="cls-12" d="M90.84,284.08a7.48,7.48,0,0,1-3.74-14l31.77-18.35a7.48,7.48,0,0,1,7.48,13L94.58,283.07a7.48,7.48,0,0,1-3.74,1Z"/><path class="cls-12" d="M104.63,308a7.48,7.48,0,0,1-3.75-14l31.78-18.35a7.48,7.48,0,0,1,7.48,13L108.36,307A7.46,7.46,0,0,1,104.63,308Z"/><path class="cls-12" d="M118.41,331.82a7.48,7.48,0,0,1-3.75-14l31.78-18.34a7.48,7.48,0,1,1,7.48,13l-31.78,18.35A7.43,7.43,0,0,1,118.41,331.82Z"/><path class="cls-12" d="M132.19,355.69a7.48,7.48,0,0,1-3.75-14l31.78-18.34a7.48,7.48,0,0,1,7.48,13l-31.78,18.34A7.41,7.41,0,0,1,132.19,355.69Z"/><path class="cls-12" d="M146,379.57a7.48,7.48,0,0,1-3.74-14L174,347.26a7.48,7.48,0,0,1,7.48,13l-31.77,18.34A7.48,7.48,0,0,1,146,379.57Z"/><path class="cls-4" d="M366.52,358.64a15,15,0,0,1-20.5-5.49L207.26,112.81a15,15,0,0,1,26-15L372,338.14a15,15,0,0,1-5.5,20.5Z"/><path class="cls-11" d="M265.15,181.86a17.58,17.58,0,0,1,16.24-.7L233.26,97.8a15,15,0,0,0-26,15l49.11,85.06a17.6,17.6,0,0,1,8.78-16Z"/><path class="cls-13" d="M422,435.48c-15.51-23.81-42.66-51.2-75.37-47.31-56,6.66-194.6,14.06-89.47,122.22A243.66,243.66,0,0,0,422,435.48Z"/><path class="cls-13" d="M20.22,172C38.78,277.86,172.47,108.88,179.56,71.41c3.18-16.8-5-28.1-15.39-35.52A245.11,245.11,0,0,0,20.22,172Z"/><circle class="cls-14" cx="321.26" cy="45.01" r="7.29"/></g></g></svg>