<svg xmlns="http://www.w3.org/2000/svg" viewBox="0 0 512 512"><defs><style>.cls-1{fill:#faa598;}.cls-2{fill:#232e7a;}.cls-3{fill:#3342ae;}.cls-4{fill:#d5f1fe;}.cls-5{fill:#b4e7fd;}.cls-6{fill:#93dcfc;}.cls-7{fill:#3d4ec6;}.cls-8{fill:#af3030;}.cls-9{fill:#e5554e;}.cls-10{fill:#f76c57;}.cls-11{fill:#cc4646;}.cls-12{fill:#b4d2d7;}.cls-13{fill:#717ed6;}.cls-14{fill:#8c96dd;}</style></defs><g id="Слой_2" data-name="Слой 2"><g id="Слой_1-2" data-name="Слой 1"><path class="cls-1" d="M52.71,411.61A255,255,0,0,1,.05,250.7C2.86,111.71,117.19-.11,256.22,0,397.5.12,512,114.69,512,256a254.86,254.86,0,0,1-52.84,155.78,6.45,6.45,0,0,1-10,.24,256,256,0,0,0-386.29-.09,6.59,6.59,0,0,1-10.18-.32Z"/><path class="cls-2" d="M459.57,325v86.25a256,256,0,0,1-407.14,0V65a15,15,0,0,1,15-15H444.57a15,15,0,0,1,15,15V325Z"/><path class="cls-3" d="M459.57,65V411.25a256,256,0,0,1-407.14,0V65a15,15,0,0,1,15-15H444.57a15,15,0,0,1,15,15Z"/><path class="cls-2" d="M101.45,65V460.1a257.43,257.43,0,0,1-49-48.85V65a15,15,0,0,1,15-15h49A15,15,0,0,0,101.45,65Z"/><path class="cls-4" d="M417.14,85V482.14a5,5,0,0,1-5,5H95a5,5,0,0,1-5-5V85a5,5,0,0,1,5-5H412.14A5,5,0,0,1,417.14,85Z"/><path class="cls-5" d="M95,487.14a5,5,0,0,1-5-5V85a5,5,0,0,1,5-5h19.33a5,5,0,0,0-2.8,4.49V481.63c0,2.76,1.87,5.51,4.63,5.51Z"/><path class="cls-6" d="M310,275a7.5,7.5,0,0,0-7.5-7.5h-105a7.5,7.5,0,0,0,0,15h105A7.5,7.5,0,0,0,310,275Zm-7.5,37.5h-105a7.5,7.5,0,0,1,0-15h105a7.5,7.5,0,0,1,0,15Zm0,30h-105a7.5,7.5,0,0,1,0-15h105a7.5,7.5,0,0,1,0,15ZM165,317.5H125a5,5,0,0,1-5-5v-40a5,5,0,0,1,5-5h40a5,5,0,0,1,5,5v40A5,5,0,0,1,165,317.5ZM302.5,400h-105a7.5,7.5,0,0,1,0-15h105a7.5,7.5,0,0,1,0,15Zm0,30h-105a7.5,7.5,0,0,1,0-15h105a7.5,7.5,0,0,1,0,15Zm0,30h-105a7.5,7.5,0,0,1,0-15h105a7.5,7.5,0,0,1,0,15ZM165,435H125a5,5,0,0,1-5-5V390a5,5,0,0,1,5-5h40a5,5,0,0,1,5,5v40A5,5,0,0,1,165,435Z"/><path class="cls-7" d="M140.18,323.46h0a7.51,7.51,0,0,1-5.41-2.33l-15.43-16.19a7.5,7.5,0,0,1,10.87-10.35l10,10.54L170,274.31a7.5,7.5,0,1,1,10.79,10.43l-35.2,36.43A7.49,7.49,0,0,1,140.18,323.46Zm5.4,115L180.78,402A7.5,7.5,0,0,0,170,391.57l-29.77,30.82-10-10.54a7.5,7.5,0,1,0-10.86,10.35l15.43,16.19a7.51,7.51,0,0,0,5.4,2.33h0a7.53,7.53,0,0,0,5.4-2.29Z"/><path class="cls-7" d="M373.5,170.75v52.5a7.5,7.5,0,0,1-15,0v-52.5a7.5,7.5,0,0,1,15,0Z"/><path class="cls-8" d="M381,432v70a10,10,0,0,1-10,10H361a10,10,0,0,1-10-10V432a10,10,0,0,1,10-10h10A10,10,0,0,1,381,432Z"/><path class="cls-9" d="M386,207V467c0,8.28-.72,15-9,15H355a15,15,0,0,1-15-15V302l8.4-14.64V236.64L340,222V207a15,15,0,0,1,15-15h22C385.28,192,386,198.72,386,207Z"/><path class="cls-10" d="M392,207v15l-6,8.34v63.32l6,8.34V467a15,15,0,0,1-15,15h-2a15,15,0,0,1-15-15V207a15,15,0,0,1,15-15h2A15,15,0,0,1,392,207Z"/><path class="cls-11" d="M392,222v80H340V222Z"/><path class="cls-8" d="M360,302H340V222h20Zm42,170V342a10,10,0,0,0-10-10H380a10,10,0,0,0-10,10V472a10,10,0,0,0,10,10h12A10,10,0,0,0,402,472Z"/><path class="cls-12" d="M311.25,60V97.14a10,10,0,0,1-10,10H205.89a10,10,0,0,1-10-10V60a10,10,0,0,1,10-10h95.36A10,10,0,0,1,311.25,60Z"/><path class="cls-13" d="M329.57,35.37h-16A54.73,54.73,0,0,0,262.43,0H249.57a54.73,54.73,0,0,0-51.13,35.37h-16a10,10,0,0,0-10,10V82.51a10,10,0,0,0,10,10H329.57a10,10,0,0,0,10-10V45.37A10,10,0,0,0,329.57,35.37Zm-114.63,0A39.66,39.66,0,0,1,249.57,15h12.86a39.66,39.66,0,0,1,34.63,20.37Z"/><path class="cls-14" d="M339.57,50V77.88H220.64a10,10,0,0,1-10-10V60a10,10,0,0,1,10-10Z"/><path class="cls-7" d="M247.8,207.07l-28.28,28.28a7.5,7.5,0,1,1-10.61-10.6l15.48-15.49H127a7.5,7.5,0,1,1,0-15h97.38l-15.48-15.48a7.5,7.5,0,0,1,10.61-10.6l28.28,28.28a7.5,7.5,0,0,1,0,10.61Z"/><path class="cls-9" d="M202.72,137.62a7.5,7.5,0,0,1-7.5,7.5H97.84l15.48,15.48a7.5,7.5,0,0,1-10.6,10.6L74.43,142.92a7.5,7.5,0,0,1,0-10.61L102.72,104a7.5,7.5,0,0,1,10.6,10.6L97.84,130.12h97.39a7.49,7.49,0,0,1,7.49,7.5Z"/></g></g></svg>