<svg xmlns="http://www.w3.org/2000/svg" viewBox="0 0 490 512"><defs><style>.cls-1{fill:#746bf9;}.cls-2{fill:#47477f;}.cls-3{fill:#3b3868;}.cls-4{fill:#e9efff;}.cls-5{fill:#d3dcfb;}.cls-6{fill:#2d2d59;}.cls-7{fill:#5f5f9b;}.cls-8{fill:#ffdd40;}.cls-9{fill:#42c3fc;}.cls-10{fill:#ff4155;}.cls-11{fill:#ffb332;}.cls-12{fill:#1aa9e8;}.cls-13{fill:#e80054;}.cls-14{fill:#fcf9eb;}.cls-15{fill:#fceca9;}.cls-16{fill:#b8f0ff;}.cls-17{fill:#8ae1ff;}.cls-18{fill:#fc95a9;}.cls-19{fill:#ff7186;}</style></defs><g id="Слой_2" data-name="Слой 2"><g id="Слой_1-2" data-name="Слой 1"><path class="cls-1" d="M76.06,444.44,390.61,464A244.65,244.65,0,0,0,490,267C490,131.69,380.31,22,245,22S0,131.69,0,267A244.29,244.29,0,0,0,76.06,444.44Z"/><path class="cls-2" d="M277.71,100.9H391.86V52.18A52.33,52.33,0,0,0,339.69,0H127.14A52.33,52.33,0,0,0,75,52.18V201.82H212.28a19.46,19.46,0,0,1,19.44,19.44v93.45a19.47,19.47,0,0,1-19.44,19.44H99.56A7.88,7.88,0,0,0,93,337.72L80,357.46a6.16,6.16,0,0,1-5,2.83v83.08a246.75,246.75,0,0,0,40.92,31.87h0L351,488a245.2,245.2,0,0,0,40.91-24.85v-28H346.15a7.85,7.85,0,0,0-6.61,3.57l-13,19.74a6.28,6.28,0,0,1-10.51,0l-12.95-19.74a7.87,7.87,0,0,0-6.61-3.57H277.71a19.47,19.47,0,0,1-19.44-19.44V322.19a19.47,19.47,0,0,1,19.44-19.44H391.86V233.22H346.15a7.85,7.85,0,0,0-6.61,3.57l-13,19.75a6.29,6.29,0,0,1-10.51,0l-12.95-19.75a7.88,7.88,0,0,0-6.61-3.57H277.71a19.47,19.47,0,0,1-19.44-19.44V120.34a19.46,19.46,0,0,1,19.44-19.44Z"/><path class="cls-3" d="M200.35,0H127.14A52.33,52.33,0,0,0,75,52.18V201.82H196.73V67.56a5.38,5.38,0,0,0-.6-2.49c-3.32-6.32-.56-10.72,2.21-13.25a5.53,5.53,0,0,0,1.33-6.14,8.34,8.34,0,0,1,1.39-8,5.48,5.48,0,0,0,1.05-3.22V21.72a5.56,5.56,0,0,0-1.39-3.62c-6.12-7.06-4-12.4-1.56-15.39A5.69,5.69,0,0,0,200.35,0Z"/><path class="cls-3" d="M196.73,334.15H99.56A7.88,7.88,0,0,0,93,337.72L80,357.46a6.16,6.16,0,0,1-5,2.83v83.08a246.67,246.67,0,0,0,40.91,31.87h0l80.86,4.38V334.15Z"/><path class="cls-4" d="M339.69,32.48H312.36a10.78,10.78,0,0,0-10.78,10.78,14.48,14.48,0,0,1-14.44,14.43H179.68a14.48,14.48,0,0,1-14.44-14.43,10.78,10.78,0,0,0-10.78-10.78H127.14a19.75,19.75,0,0,0-19.7,19.7V201.82H212.28a19.46,19.46,0,0,1,19.44,19.44v93.45a19.47,19.47,0,0,1-19.44,19.44H107.44V469.76A245.19,245.19,0,0,0,359.38,483.7V435.07H346.15a7.86,7.86,0,0,0-6.61,3.58l-13,19.74a6.28,6.28,0,0,1-10.51,0l-12.95-19.74a7.87,7.87,0,0,0-6.61-3.57H277.71a19.47,19.47,0,0,1-19.44-19.44V322.19a19.47,19.47,0,0,1,19.44-19.44h81.67V233.22H346.15a7.87,7.87,0,0,0-6.61,3.57l-13,19.75a6.29,6.29,0,0,1-10.51,0l-12.95-19.75a7.87,7.87,0,0,0-6.61-3.57H277.71a19.47,19.47,0,0,1-19.44-19.44V120.34a19.47,19.47,0,0,1,19.44-19.44h81.67V52.18a19.75,19.75,0,0,0-19.7-19.7Z"/><path class="cls-5" d="M186.6,491v-138a19,19,0,0,1,16.34-18.79h-95.5V469.76a243.77,243.77,0,0,0,88,37.21,19,19,0,0,1-8.82-16Z"/><path class="cls-5" d="M186.6,183.72V82.55a19.07,19.07,0,0,1,15.51-18.67V57.7H179.68a14.49,14.49,0,0,1-14.44-14.44,10.78,10.78,0,0,0-10.78-10.78H127.14a19.75,19.75,0,0,0-19.7,19.7V201.82h92.42a19.06,19.06,0,0,1-13.26-18.1Z"/><path class="cls-3" d="M107.44,210.26A8.43,8.43,0,0,1,99,201.82V52.18a28.16,28.16,0,0,1,28.13-28.13h27.32a19.24,19.24,0,0,1,19.22,19.21,6,6,0,0,0,6,6H287.15a6,6,0,0,0,6-6,19.23,19.23,0,0,1,19.21-19.21h27.33a28.16,28.16,0,0,1,28.13,28.13V100.9a8.44,8.44,0,0,1-16.87,0V52.18a11.28,11.28,0,0,0-11.26-11.27H312.36A2.36,2.36,0,0,0,310,43.26a22.89,22.89,0,0,1-22.87,22.87H179.68a22.9,22.9,0,0,1-22.87-22.87,2.35,2.35,0,0,0-2.35-2.35H127.14a11.29,11.29,0,0,0-11.27,11.27V201.82a8.43,8.43,0,0,1-8.43,8.44Z"/><path class="cls-6" d="M179.68,49.26a6,6,0,0,1-6-6,19.24,19.24,0,0,0-19.22-19.21H127.14A28.17,28.17,0,0,0,99,52.18V201.82a8.44,8.44,0,1,0,16.87,0V52.18a11.28,11.28,0,0,1,11.26-11.27h27.33a2.36,2.36,0,0,1,2.35,2.35,22.89,22.89,0,0,0,22.87,22.87h16.86a5.06,5.06,0,0,0-.41-1.06c-3.33-6.32-.56-10.72,2.21-13.25a5.15,5.15,0,0,0,1.53-2.56Z"/><path class="cls-3" d="M359.38,311.19a8.43,8.43,0,0,1-8.43-8.44V233.22a8.44,8.44,0,1,1,16.87,0v69.53A8.44,8.44,0,0,1,359.38,311.19Z"/><path class="cls-6" d="M115.87,475.23V334.15a8.43,8.43,0,1,0-16.86,0V463.76Q107.18,469.84,115.87,475.23Z"/><path class="cls-3" d="M359.38,426.64a8.43,8.43,0,0,0-8.43,8.43V488q8.63-4.16,16.87-8.94v-44a8.44,8.44,0,0,0-8.44-8.43Z"/><path class="cls-7" d="M265.69,36.46H201.13a8.44,8.44,0,0,1,0-16.87h64.56a8.44,8.44,0,0,1,0,16.87Z"/><path class="cls-8" d="M458.87,99.21H277.71a21.19,21.19,0,0,0-21.12,21.13v93.44a21.19,21.19,0,0,0,21.12,21.13h18.81a6.23,6.23,0,0,1,5.2,2.8l12.95,19.75a8,8,0,0,0,13.33,0L341,237.71a6.22,6.22,0,0,1,5.2-2.81H458.87A21.19,21.19,0,0,0,480,213.78V120.33a21.19,21.19,0,0,0-21.13-21.12Z"/><path class="cls-9" d="M212.28,200.14H31.12A21.18,21.18,0,0,0,10,221.26v93.45a21.18,21.18,0,0,0,21.12,21.12H49.93a6.22,6.22,0,0,1,5.2,2.81l12.95,19.75a8,8,0,0,0,13.33,0l13-19.75a6.22,6.22,0,0,1,5.2-2.81H212.28a21.19,21.19,0,0,0,21.13-21.12V221.26a21.19,21.19,0,0,0-21.13-21.12Z"/><path class="cls-10" d="M458.87,301.07H277.71a21.18,21.18,0,0,0-21.12,21.12v93.45a21.18,21.18,0,0,0,21.12,21.12h18.81a6.23,6.23,0,0,1,5.2,2.81l12.95,19.75a8,8,0,0,0,13.33,0L341,439.57a6.22,6.22,0,0,1,5.2-2.81H458.87A21.19,21.19,0,0,0,480,415.63V322.19a21.19,21.19,0,0,0-21.13-21.12Z"/><path class="cls-11" d="M341.32,213.78V120.34a21.19,21.19,0,0,1,21.12-21.13H277.71a21.19,21.19,0,0,0-21.12,21.13v93.44a21.19,21.19,0,0,0,21.12,21.13h18.81a6.23,6.23,0,0,1,5.2,2.8l12.95,19.75a8,8,0,0,0,13.33,0L341,237.71a6.22,6.22,0,0,1,5.2-2.81h16.3a21.18,21.18,0,0,1-21.13-21.12Z"/><path class="cls-12" d="M94.73,314.71V221.26a21.19,21.19,0,0,1,21.13-21.12H31.12A21.18,21.18,0,0,0,10,221.26v93.45a21.18,21.18,0,0,0,21.12,21.12H49.93a6.22,6.22,0,0,1,5.2,2.81l12.95,19.75a8,8,0,0,0,13.33,0l13-19.75a6.22,6.22,0,0,1,5.2-2.81h16.3A21.19,21.19,0,0,1,94.73,314.71Z"/><path class="cls-13" d="M341.32,415.64V322.19a21.18,21.18,0,0,1,21.12-21.12H277.71a21.18,21.18,0,0,0-21.12,21.12v93.45a21.18,21.18,0,0,0,21.12,21.12h18.81a6.23,6.23,0,0,1,5.2,2.81l12.95,19.75a8,8,0,0,0,13.33,0L341,439.57a6.22,6.22,0,0,1,5.2-2.81h16.3A21.19,21.19,0,0,1,341.32,415.64Z"/><path class="cls-9" d="M156.17,92.65H141.42a8.44,8.44,0,0,1,0-16.87h14.75a8.44,8.44,0,0,1,0,16.87Z"/><path class="cls-14" d="M363.14,143.88H296.32a8.44,8.44,0,0,1,0-16.87h66.82a8.44,8.44,0,0,1,0,16.87Z"/><path class="cls-15" d="M440.26,175.49H296.32a8.44,8.44,0,0,1,0-16.87H440.26a8.44,8.44,0,0,1,0,16.87Z"/><path class="cls-15" d="M440.26,207.1H296.32a8.44,8.44,0,0,1,0-16.87H440.26a8.44,8.44,0,0,1,0,16.87Z"/><path class="cls-16" d="M116.55,244.81H49.74a8.44,8.44,0,1,1,0-16.87h66.81a8.44,8.44,0,0,1,0,16.87Z"/><path class="cls-17" d="M193.67,276.42H49.74a8.44,8.44,0,1,1,0-16.87H193.67a8.44,8.44,0,1,1,0,16.87Z"/><path class="cls-17" d="M193.67,308H49.74a8.44,8.44,0,1,1,0-16.87H193.67a8.44,8.44,0,1,1,0,16.87Z"/><path class="cls-18" d="M363.14,344.61H296.32a8.44,8.44,0,0,1,0-16.87h66.82a8.44,8.44,0,0,1,0,16.87Z"/><path class="cls-19" d="M440.26,377.35H296.32a8.44,8.44,0,0,1,0-16.87H440.26a8.44,8.44,0,0,1,0,16.87Z"/><path class="cls-19" d="M440.26,409H296.32a8.44,8.44,0,0,1,0-16.87H440.26a8.44,8.44,0,0,1,0,16.87Z"/></g></g></svg>