<svg xmlns="http://www.w3.org/2000/svg" viewBox="0 0 490 512"><defs><style>.cls-1{fill:#49b1f7;}.cls-2{fill:#becaf5;}.cls-3{fill:#3c58a0;}.cls-4{fill:#deeeff;}.cls-5{fill:#d3dcfb;}.cls-6{fill:#2a428c;}.cls-7{fill:#1c2e7a;}.cls-8{fill:#ff4155;}.cls-9{fill:#ffdd40;}.cls-10{fill:#88ce65;}.cls-11{fill:#6289cc;}.cls-12{fill:#4b6bb2;}.cls-13{fill:#1fa2ea;}</style></defs><g id="Слой_2" data-name="Слой 2"><g id="Слой_1-2" data-name="Слой 1"><path class="cls-1" d="M42.2,404.49H447.81A243.84,243.84,0,0,0,490,267C490,131.69,380.31,22,245,22S0,131.69,0,267A243.85,243.85,0,0,0,42.2,404.49Z"/><path class="cls-2" d="M159.33,57.35a32.72,32.72,0,0,1-32.72,32.72h321.2V57.35Z"/><path class="cls-3" d="M42.2,57.35V90.07h86.46a32.72,32.72,0,0,0,32.72-32.72Z"/><path class="cls-4" d="M137.93,88l.22.21c-1.57,2.59-5.06,9.44-3.62,17,1,5.14,4.06,9.53,9.14,13.09-2.14,5-9.61,24.89-2.38,41.33,4,9,11.61,15.34,22.79,18.93l23.71,37.32a33.49,33.49,0,0,0-12.09,4.41c-6.66,4.07-14.59,12.56-14.59,29.89V438.29h259a246.21,246.21,0,0,0,27.66-33.81V88Z"/><path class="cls-5" d="M42.2,88V404.49A246.14,246.14,0,0,0,69.85,438.3h92.76V250.15c0-32.2,27.74-33.07,27.74-33.07l-25.29-39.81c-41.5-12.9-19.51-59.54-19.51-59.54C127.22,106,140.07,88,140.07,88Z"/><path class="cls-6" d="M412.08,0H153.54s-9.61,10,0,19.64l1.31,19.09s-8.17,12.36,4.48,20.52H447.81V35.73A35.84,35.84,0,0,0,412.08,0Z"/><path class="cls-7" d="M77.93,0A35.84,35.84,0,0,0,42.2,35.73V59.25H161.38c-12.65-8.16-4.48-20.52-4.48-20.52l-1.31-19.09C146,10,155.59,0,155.59,0Z"/><path class="cls-8" d="M97.69,29.63A11.52,11.52,0,1,1,86.17,18.11,11.52,11.52,0,0,1,97.69,29.63Z"/><path class="cls-9" d="M129.53,29.63A11.52,11.52,0,1,1,118,18.11,11.52,11.52,0,0,1,129.53,29.63Z"/><path class="cls-10" d="M161.38,29.63a11.52,11.52,0,1,1-11.52-11.52A11.52,11.52,0,0,1,161.38,29.63Z"/><path class="cls-3" d="M260.06,29.63a7.68,7.68,0,0,1,7.68-7.69H199.2a7.69,7.69,0,0,0,0,15.37h68.54A7.68,7.68,0,0,1,260.06,29.63Z"/><path class="cls-11" d="M323.48,29.63a7.68,7.68,0,0,0-7.68-7.69H265.69a7.69,7.69,0,0,0,0,15.37H315.8A7.68,7.68,0,0,0,323.48,29.63Z"/><path class="cls-11" d="M408.66,37.31h-10a7.69,7.69,0,0,1,0-15.37h10a7.69,7.69,0,0,1,0,15.37Z"/><path class="cls-3" d="M373.84,37.31h-10a7.69,7.69,0,0,1,0-15.37h10a7.69,7.69,0,0,1,0,15.37Z"/><path class="cls-3" d="M396,117.73H143c.24.18.46.36.71.54-2.14,5-9.61,24.89-2.38,41.33,4,9,11.61,15.34,22.79,18.93l23.71,37.32a33.49,33.49,0,0,0-12.09,4.41c-6.66,4.07-14.59,12.56-14.59,29.89V458.63A78.52,78.52,0,0,0,164,480.56a56.9,56.9,0,0,0,10.55,21.12,245.21,245.21,0,0,0,245.65-63.39V141.9A24.18,24.18,0,0,0,396,117.73Z"/><path class="cls-6" d="M94,117.73A24.17,24.17,0,0,0,69.86,141.9V438.29a244.9,244.9,0,0,0,107.25,64.18c-15.62-17.18-14.5-43.78-14.5-43.78V250.15c0-32.19,27.74-33.07,27.74-33.07l-25.29-39.81c-41.5-12.9-19.5-59.54-19.5-59.54Z"/><path class="cls-9" d="M180.1,265.52H162.61a7.69,7.69,0,0,1,0-15.37H180.1a7.69,7.69,0,0,1,0,15.37Z"/><path class="cls-11" d="M298.87,265.52H209.23a7.69,7.69,0,0,1,0-15.37h89.64a7.69,7.69,0,0,1,0,15.37Z"/><path class="cls-4" d="M298.87,362.1H281.38a7.68,7.68,0,1,1,0-15.36h17.49a7.68,7.68,0,1,1,0,15.36Z"/><path class="cls-9" d="M252.25,362.1H162.61a7.68,7.68,0,1,1,0-15.36h89.64a7.68,7.68,0,1,1,0,15.36Z"/><path class="cls-12" d="M298.87,426.49H281.38a7.68,7.68,0,1,1,0-15.36h17.49a7.68,7.68,0,1,1,0,15.36Z"/><path class="cls-9" d="M252.25,426.49H197.6a7.68,7.68,0,1,1,0-15.36h54.65a7.68,7.68,0,1,1,0,15.36Z"/><path class="cls-4" d="M368.46,265.52h-40.4a7.69,7.69,0,0,1,0-15.37h40.4a7.69,7.69,0,0,1,0,15.37Z"/><path class="cls-1" d="M368.46,329.91H351a7.69,7.69,0,0,1,0-15.37h17.49a7.69,7.69,0,0,1,0,15.37Z"/><path class="cls-11" d="M321.84,329.91H232.21a7.69,7.69,0,1,1,0-15.37h89.63a7.69,7.69,0,1,1,0,15.37Z"/><path class="cls-9" d="M269.16,297.71H162.61a7.68,7.68,0,0,1,0-15.36H269.15a7.68,7.68,0,1,1,0,15.36Z"/><path class="cls-11" d="M368.46,297.71H298.87a7.68,7.68,0,1,1,0-15.36h69.59a7.68,7.68,0,1,1,0,15.36Z"/><path class="cls-1" d="M197.6,458.69h-35a7.69,7.69,0,0,1,0-15.37h35a7.69,7.69,0,0,1,0,15.37Z"/><path class="cls-1" d="M197.6,394.3h-35a7.69,7.69,0,0,1,0-15.37h35a7.69,7.69,0,0,1,0,15.37Z"/><path class="cls-11" d="M321.84,394.3H290.13a7.69,7.69,0,0,1,0-15.37h31.71a7.69,7.69,0,0,1,0,15.37Z"/><path class="cls-11" d="M368.46,394.3H351a7.69,7.69,0,0,1,0-15.37h17.49a7.69,7.69,0,0,1,0,15.37Z"/><path class="cls-11" d="M129.83,265.52h-8.28a7.69,7.69,0,1,1,0-15.37h8.28a7.69,7.69,0,0,1,0,15.37Z"/><path class="cls-11" d="M129.83,297.71h-8.28a7.68,7.68,0,1,1,0-15.36h8.28a7.68,7.68,0,1,1,0,15.36Z"/><path class="cls-11" d="M129.83,362.1h-8.28a7.68,7.68,0,1,1,0-15.36h8.28a7.68,7.68,0,0,1,0,15.36Z"/><path class="cls-11" d="M129.83,329.91h-8.28a7.69,7.69,0,1,1,0-15.37h8.28a7.69,7.69,0,0,1,0,15.37Z"/><path class="cls-11" d="M129.83,458.69h-8.28a7.69,7.69,0,1,1,0-15.37h8.28a7.69,7.69,0,0,1,0,15.37Z"/><path class="cls-11" d="M129.83,394.3h-8.28a7.69,7.69,0,1,1,0-15.37h8.28a7.69,7.69,0,0,1,0,15.37Z"/><path class="cls-11" d="M129.83,426.49h-8.28a7.68,7.68,0,1,1,0-15.36h8.28a7.68,7.68,0,0,1,0,15.36Z"/><path class="cls-13" d="M197.6,220.09a10.22,10.22,0,0,1-7.25-3l-25.29-25.34a10.24,10.24,0,0,1,14.5-14.47l25.29,25.34a10.25,10.25,0,0,1-7.25,17.48Z"/><path class="cls-13" d="M226.43,227.53a10.13,10.13,0,0,1-5-1.34,10.23,10.23,0,0,1-3.87-14l18.57-32.77a10.24,10.24,0,1,1,17.82,10.09l-18.56,32.78a10.24,10.24,0,0,1-8.92,5.2Z"/><path class="cls-13" d="M292.41,220.09a10.25,10.25,0,0,1-7.25-17.48l25.29-25.34A10.24,10.24,0,0,1,325,191.74l-25.29,25.34A10.24,10.24,0,0,1,292.41,220.09Z"/><path class="cls-1" d="M245,194.75a10.24,10.24,0,0,1-8.9-15.3l18.56-32.77a10.25,10.25,0,1,1,17.83,10.1l-18.56,32.77A10.26,10.26,0,0,1,245,194.75Z"/><path class="cls-1" d="M172.31,194.75a10.24,10.24,0,0,1-7.25-17.48l25.29-25.34a10.24,10.24,0,1,1,14.5,14.47l-25.29,25.34a10.2,10.2,0,0,1-7.25,3Z"/><path class="cls-1" d="M317.7,194.75a10.22,10.22,0,0,1-7.26-3L285.15,166.4a10.24,10.24,0,1,1,14.5-14.47L325,177.27a10.24,10.24,0,0,1-7.25,17.48Z"/></g></g></svg>