<svg xmlns="http://www.w3.org/2000/svg" viewBox="0 0 512 478.15"><defs><style>.cls-1{fill:#df75a5;}.cls-2{fill:#dd5790;}.cls-3{fill:#b3e59f;}.cls-4{fill:#95d6a4;}.cls-5{fill:#80b4fb;}.cls-6{fill:#61a2f9;}.cls-7{fill:#ffe07d;}.cls-8{fill:#ffc250;}</style></defs><g id="Слой_2" data-name="Слой 2"><g id="Слой_1-2" data-name="Слой 1"><path class="cls-1" d="M495.14,233.94c0,109.58-88.82,198.4-198.4,198.4s-198.4-88.82-198.4-198.4A198.32,198.32,0,0,1,199.39,61l97.35,172.91Z"/><path class="cls-2" d="M323.75,430.52a200.54,200.54,0,0,1-27,1.82c-109.57,0-198.4-88.82-198.4-198.4A198.32,198.32,0,0,1,199.39,61l15.8,28.06a197.86,197.86,0,0,0-62.83,144.85C152.36,334.35,227,417.34,323.75,430.52Z"/><path class="cls-3" d="M512,198.39H313.6L216.24,25.49A197.52,197.52,0,0,1,313.6,0C423.17,0,512,88.83,512,198.39Z"/><path class="cls-4" d="M313.6,0a198.65,198.65,0,0,1,27,1.83A197.84,197.84,0,0,0,232,53.55l-15.8-28.06A197.52,197.52,0,0,1,313.6,0Z"/><path class="cls-5" d="M385.14,268.37l-81.72,31.2A16,16,0,0,0,299,327l15.7,12.76-60,75.43L137.79,323.2a26.25,26.25,0,0,0-35.12,2.41l-82.4,85.45a26.24,26.24,0,0,0,37.78,36.43L124,379.12,242.8,472.54a26.26,26.26,0,0,0,36.76-4.29l75.9-95.43,11.46,9.32a16,16,0,0,0,25.91-9.9l13.84-86.38a16,16,0,0,0-21.53-17.49Z"/><path class="cls-6" d="M39.38,426l82.4-85.45a26.22,26.22,0,0,1,34-3.17l-18-14.18a26.25,26.25,0,0,0-35.12,2.41l-82.4,85.45a26.25,26.25,0,0,0,14.11,44A26.24,26.24,0,0,1,39.38,426Z"/><path class="cls-6" d="M299,327l15.7,12.76-60,75.38,19.06,15,60-75.43-15.7-12.76a16,16,0,0,1,4.39-27.39l81.73-31.2a17.08,17.08,0,0,1,2.61-.75,16,16,0,0,0-21.72-14.19l-81.72,31.2A16,16,0,0,0,299,327Z"/><circle class="cls-7" cx="89.75" cy="174.34" r="89.75"/><path class="cls-8" d="M104.36,262.9A89.75,89.75,0,1,1,89.75,84.59a89,89,0,0,1,14.61,1.2,89.75,89.75,0,0,0,0,177.11Z"/><path class="cls-8" d="M101.11,166.57c-8-2.83-16.84-6.25-21.87-10.19-1.86-1.47-2.66-4.56-2-7.89s2.85-7.28,7.24-8.61c9.8-2.95,16.3,2.14,17,2.73a7.73,7.73,0,1,0,9.89-11.88,33.38,33.38,0,0,0-14.4-6.6v-4.37a7.73,7.73,0,1,0-15.45,0v4.91l-1.51.42a26.18,26.18,0,0,0-18,20.53c-1.71,9.08,1.23,17.86,7.68,22.92,5.47,4.29,13.08,7.94,26.26,12.6,9.59,3.38,9.38,11.17,8.84,14.36a15.76,15.76,0,0,1-15.64,13.29c-8.56.06-11.47-.4-18.16-4.78a7.73,7.73,0,0,0-8.46,12.93c7.41,4.85,12.63,6.54,18.95,7.08v4.91a7.73,7.73,0,0,0,15.45,0v-5.64C109.9,220,118.2,209,120,198.06c2.39-14.22-5-26.58-18.93-31.49Z"/></g></g></svg>