<svg xmlns="http://www.w3.org/2000/svg" xmlns:xlink="http://www.w3.org/1999/xlink" viewBox="0 0 175.02 269.65"><defs><style>.cls-1,.cls-2,.cls-5{fill:none;}.cls-1{clip-rule:evenodd;}.cls-2,.cls-3,.cls-4,.cls-7,.cls-8{fill-rule:evenodd;}.cls-3{fill:#fff;}.cls-4{fill:#65ddb9;}.cls-4,.cls-5,.cls-7,.cls-8{opacity:0.57;}.cls-5{stroke:#000;stroke-miterlimit:8;stroke-width:8.5px;}.cls-6{clip-path:url(#clip-path);}.cls-7{fill:#46b29d;}.cls-8{fill:#14a085;}</style><clipPath id="clip-path" transform="translate(-76.15 -24.91)"><polygon class="cls-1" points="317.65 114.82 117.48 0 0 204.8 200.16 319.62 317.65 114.82 317.65 114.82"/></clipPath></defs><g id="Слой_2" data-name="Слой 2"><g id="Слой_1-2" data-name="Слой 1"><path class="cls-3" d="M227.87,260.69a60.78,60.78,0,0,1-77.37,24.15A58.51,58.51,0,0,1,120,251.3a61.35,61.35,0,0,1,2.5-47.42c9.56-20.09,1-44.76-24.18-69.46a60.77,60.77,0,0,1-8.6-75.49A62.91,62.91,0,0,1,97.92,48.3a60.93,60.93,0,0,1,43.33-19.12A58.36,58.36,0,0,1,183.41,46c93,91.32,60,183,47.63,208.86a62.46,62.46,0,0,1-3.17,5.86Z" transform="translate(-76.15 -24.91)"/><path class="cls-4" d="M227.87,260.69a60.78,60.78,0,0,1-77.37,24.15A58.51,58.51,0,0,1,120,251.3a61.35,61.35,0,0,1,2.5-47.42c9.56-20.09,1-44.76-24.18-69.46a60.77,60.77,0,0,1-8.6-75.49A62.91,62.91,0,0,1,97.92,48.3a60.93,60.93,0,0,1,43.33-19.12A58.36,58.36,0,0,1,183.41,46c93,91.32,60,183,47.63,208.86a62.46,62.46,0,0,1-3.17,5.86Z" transform="translate(-76.15 -24.91)"/><path class="cls-5" d="M227.87,260.69a60.78,60.78,0,0,1-77.37,24.15A58.51,58.51,0,0,1,120,251.3a61.35,61.35,0,0,1,2.5-47.42c9.56-20.09,1-44.76-24.18-69.46a60.77,60.77,0,0,1-8.6-75.49A62.91,62.91,0,0,1,97.92,48.3a60.93,60.93,0,0,1,43.33-19.12A58.36,58.36,0,0,1,183.41,46c93,91.32,60,183,47.63,208.86a62.46,62.46,0,0,1-3.17,5.86Z" transform="translate(-76.15 -24.91)"/><g class="cls-6"><path class="cls-7" d="M209.89,247.91a40.33,40.33,0,0,1-51.26,16.28,38.28,38.28,0,0,1-19.92-21.94,41,41,0,0,1,1.73-31.71c7.5-15.76,13.94-48.25-27.21-88.65a40.9,40.9,0,0,1-5.52-50.19,42.17,42.17,0,0,1,5.53-7.17,40.56,40.56,0,0,1,28.84-12.79,38.13,38.13,0,0,1,27.53,10.95c81.37,79.94,53,158.94,42.44,181.25a43.56,43.56,0,0,1-2.16,4Z" transform="translate(-76.15 -24.91)"/><g class="cls-6"><path class="cls-8" d="M162.45,96.46A14.91,14.91,0,1,1,142,101.4a14.92,14.92,0,0,1,20.5-4.94Z" transform="translate(-76.15 -24.91)"/><g class="cls-6"><path class="cls-8" d="M178.61,219.93a11.17,11.17,0,1,1-15.36,3.7,11.17,11.17,0,0,1,15.36-3.7Z" transform="translate(-76.15 -24.91)"/><g class="cls-6"><path class="cls-8" d="M192.8,132.51a11.18,11.18,0,1,1-15.37,3.7,11.18,11.18,0,0,1,15.37-3.7Z" transform="translate(-76.15 -24.91)"/><g class="cls-6"><path class="cls-8" d="M175.09,182.83a3.81,3.81,0,0,1-1,1,4.56,4.56,0,0,1-1.31.64,4,4,0,0,1-1.46,0,3.71,3.71,0,0,1-3.05-2.79,4,4,0,0,1,0-1.46,3.8,3.8,0,0,1,2.79-3.06,4,4,0,0,1,2.82.46,3.7,3.7,0,0,1,1,1,3.9,3.9,0,0,1,.64,1.31,4,4,0,0,1-.46,2.82Z" transform="translate(-76.15 -24.91)"/><g class="cls-6"><path class="cls-8" d="M199.82,206.69a3.74,3.74,0,0,1-1,1.06,4.43,4.43,0,0,1-1.31.64,4.16,4.16,0,0,1-2.82-.46,4,4,0,0,1-1.69-2.31,4.16,4.16,0,0,1,0-1.45,3.79,3.79,0,0,1,2.78-3.06,4,4,0,0,1,2.82.46,3.74,3.74,0,0,1,1.06,1,3.57,3.57,0,0,1,.18,4.12Z" transform="translate(-76.15 -24.91)"/><g class="cls-6"><path class="cls-8" d="M202,181.79a3.71,3.71,0,0,1-1,1.06,4.56,4.56,0,0,1-1.31.64,3.77,3.77,0,0,1-1.46,0,3.69,3.69,0,0,1-1.36-.48,3.6,3.6,0,0,1-1.72-3.76,3.82,3.82,0,0,1,2.79-3.06,3.92,3.92,0,0,1,2.82.46,3.81,3.81,0,0,1,1.05,1,3.58,3.58,0,0,1,.18,4.13Z" transform="translate(-76.15 -24.91)"/><g class="cls-6"><path class="cls-8" d="M126.07,91.67a3.7,3.7,0,0,1-1,1,4,4,0,0,1-1.31.64,4,4,0,0,1-2.82-.46,3.91,3.91,0,0,1-1.69-2.3,4.47,4.47,0,0,1,0-1.46,3.82,3.82,0,0,1,2.79-3,3.91,3.91,0,0,1,2.82.46,4,4,0,0,1,1.69,2.3,3.91,3.91,0,0,1-.45,2.82Z" transform="translate(-76.15 -24.91)"/><g class="cls-6"><path class="cls-8" d="M152.39,77.21a4,4,0,0,1-1,1.05,4.56,4.56,0,0,1-1.31.64,3.78,3.78,0,0,1-1.46,0,3.69,3.69,0,0,1-1.36-.48,3.89,3.89,0,0,1-1.69-2.3,4,4,0,0,1,0-1.46,3.8,3.8,0,0,1,2.79-3.06,4,4,0,0,1,2.82.46,3.7,3.7,0,0,1,1.05,1,3.9,3.9,0,0,1,.64,1.31,4,4,0,0,1-.46,2.82Z" transform="translate(-76.15 -24.91)"/></g></g></g></g></g></g></g></g></g></g></g></svg>