<svg xmlns="http://www.w3.org/2000/svg" viewBox="0 0 480 491.38"><defs><style>.cls-1{fill:#e6e7e8;}.cls-2{fill:#fa759e;}.cls-3{fill:#d4fbff;}.cls-4{fill:#fff;}.cls-5{fill:#0089ef;}.cls-6{fill:#6dc9f7;}.cls-7{fill:#ffd7e5;}.cls-8{fill:#3a2c60;}</style></defs><g id="Слой_2" data-name="Слой 2"><g id="Слой_1-2" data-name="Слой 1"><path class="cls-1" d="M446.32,393.2a47.85,47.85,0,0,0-14.45-65.78V267.13h25.52a20,20,0,0,0,20-20V36a20,20,0,0,0-20-20H153.13a20,20,0,0,0-20,20V164.35A59,59,0,0,0,70,261.88H58.61a40,40,0,0,0-40,40v68.48a12,12,0,0,0,12,12h14a48,48,0,0,0,5.11,10.84A36,36,0,0,0,16,429.08v50.3a12,12,0,0,0,12,12H153.28a12,12,0,0,0,12-12v-50.3a36,36,0,0,0-33.67-35.88,47.83,47.83,0,0,0,5.11-10.84h65.21A47.59,47.59,0,0,0,207,393.2a36,36,0,0,0-33.67,35.89v50.29a12,12,0,0,0,12,12H310.64a12,12,0,0,0,12-12V429.09A36,36,0,0,0,289,393.2a47.69,47.69,0,0,0,7.41-25.52,48.33,48.33,0,0,0-76.5-39.13V267.13H390.65v54.65A48.29,48.29,0,0,0,357,367.68a47.7,47.7,0,0,0,7.42,25.52,36,36,0,0,0-33.67,35.88v50.29a12,12,0,0,0,12,12H468a12,12,0,0,0,12-12V429.08a36,36,0,0,0-33.68-35.88Z"/><path class="cls-2" d="M441.39,247.13H137.13a16,16,0,0,1-16-16V20a16,16,0,0,1,16-16H441.39a16,16,0,0,1,16,16V231.13A16,16,0,0,1,441.39,247.13Z"/><path class="cls-3" d="M418.88,224.62H159.64a16,16,0,0,1-16-16V42.51a16,16,0,0,1,16-16H418.88a16,16,0,0,1,16,16V208.62A16,16,0,0,1,418.88,224.62Z"/><path class="cls-4" d="M418.88,26.51H159.64a16,16,0,0,0-16,16v12a16,16,0,0,1,16-16H418.88a16,16,0,0,1,16,16v-12A16,16,0,0,0,418.88,26.51Z"/><path class="cls-5" d="M289.33,186.43h-23.7V67.6a1,1,0,0,1,1-1h21.76a1,1,0,0,1,1,1V186.43Z"/><path class="cls-6" d="M327.18,186.43h-23.7V105.62c0-.18,23.7-.18,23.7,0Z"/><path class="cls-2" d="M365,186.43H341.32V77.1c0-.43,23.71-.43,23.71,0Z"/><path class="cls-7" d="M379.18,129.83h23.7v56.6h-23.7Z"/><path class="cls-7" d="M378.64,247.13h33.23V362.35H378.64Z"/><path class="cls-7" d="M166.64,247.13h33.23V362.35H166.64Z"/><path class="cls-6" d="M174.6,362.35H14.6a8,8,0,0,1-8-8V285.87a36,36,0,0,1,36-36h104a36,36,0,0,1,36,36v68.48A8,8,0,0,1,174.6,362.35Z"/><path class="cls-3" d="M94.6,338.86l36.24-89H58.37Z"/><path class="cls-2" d="M94.6,257.39,82.67,272.13l6.38,19.32h11.11l6.38-19.32Z"/><path class="cls-2" d="M94.6,338.86l7.33-18-1.77-29.41H89.05l-1.77,29.41Z"/><path class="cls-4" d="M149.89,203a55.29,55.29,0,1,1-55.29-55,55.17,55.17,0,0,1,55.29,55Z"/><path class="cls-3" d="M137.28,471.38H12a8,8,0,0,1-8-8v-50.3a32,32,0,0,1,32-32h77.28a32,32,0,0,1,32,32v50.3A8,8,0,0,1,137.28,471.38Z"/><path class="cls-4" d="M119,351.68a44.39,44.39,0,1,1-44.38-44.19A44.28,44.28,0,0,1,119,351.68Z"/><path class="cls-3" d="M294.64,471.38H169.35a8,8,0,0,1-8-8v-50.3a32,32,0,0,1,32-32h77.29a32,32,0,0,1,32,32v50.3A8,8,0,0,1,294.64,471.38Z"/><path class="cls-4" d="M276.38,351.68A44.39,44.39,0,1,1,232,307.49,44.28,44.28,0,0,1,276.38,351.68Z"/><path class="cls-3" d="M452,471.38H326.71a8,8,0,0,1-8-8v-50.3a32,32,0,0,1,32-32H428a32,32,0,0,1,32,32v50.3A8,8,0,0,1,452,471.38Z"/><path class="cls-4" d="M433.74,351.68a44.39,44.39,0,1,1-44.39-44.19A44.29,44.29,0,0,1,433.74,351.68Z"/><path class="cls-8" d="M288.36,62.63H266.6a5,5,0,0,0-5,5V186.43a4,4,0,0,0,4,4h23.71a4,4,0,0,0,4-4V67.6a5,5,0,0,0-5-5Zm-3,119.8H269.62V70.63h15.71Z"/><path class="cls-8" d="M323.52,101.52c-4.47,0-11.91,0-16.38,0-4.28,0-7.66.08-7.66,4.1v80.81a4,4,0,0,0,4,4h23.7a4,4,0,0,0,4-4V105.62C331.18,101.6,327.8,101.57,323.52,101.52Zm-.34,80.91h-15.7V109.52c4.3,0,11.4,0,15.7,0Z"/><path class="cls-8" d="M353.18,72.78c-14.05,0-15.86,0-15.86,4.32V186.43a4,4,0,0,0,4,4H365a4,4,0,0,0,4-4V77.1c0-4.32-1.81-4.32-15.85-4.32ZM361,182.43H345.32V80.84c4.26-.09,11.46-.09,15.71,0Z"/><path class="cls-8" d="M402.88,125.83h-23.7a4,4,0,0,0-4,4v56.6a4,4,0,0,0,4,4h23.7a4,4,0,0,0,4-4v-56.6a4,4,0,0,0-4-4Zm-4,56.6h-15.7v-48.6h15.7Z"/><path class="cls-8" d="M237,98.43H191.64a4,4,0,0,0,0,8H237a4,4,0,0,0,0-8Z"/><path class="cls-8" d="M237,126.43H175.64a4,4,0,0,0,0,8H237a4,4,0,0,0,0-8Z"/><path class="cls-8" d="M237,154.43H175.64a4,4,0,0,0,0,8H237a4,4,0,0,0,0-8Z"/><path class="cls-8" d="M237,182.43H175.64a4,4,0,0,0,0,8H237a4,4,0,0,0,0-8Z"/><path class="cls-8" d="M434.88,90.42a4,4,0,0,0-4,4v32.11a4,4,0,0,0,8,0V94.42A4,4,0,0,0,434.88,90.42Z"/><path class="cls-8" d="M430.32,377.2a47.88,47.88,0,0,0-14.45-65.78V251.13h25.51a20,20,0,0,0,20-20V20a20,20,0,0,0-20-20H137.13a20,20,0,0,0-20,20V148.35A59,59,0,0,0,54,245.87H42.61a40,40,0,0,0-40,40v68.48a12,12,0,0,0,12,12h14a47.9,47.9,0,0,0,5.11,10.85A36,36,0,0,0,0,413.08v50.29a12,12,0,0,0,12,12H137.28a12,12,0,0,0,12-12V413.08a36,36,0,0,0-33.67-35.88,48.1,48.1,0,0,0,5.11-10.85h65.2A47.9,47.9,0,0,0,191,377.2a36,36,0,0,0-33.68,35.88v50.29a12,12,0,0,0,12,12H294.64a12,12,0,0,0,12-12V413.08A36,36,0,0,0,273,377.2a47.72,47.72,0,0,0,7.42-25.52,48.34,48.34,0,0,0-76.51-39.14V251.13H374.64v54.65A48.28,48.28,0,0,0,341,351.68a47.7,47.7,0,0,0,7.42,25.52,36,36,0,0,0-33.68,35.88v50.29a12,12,0,0,0,12,12H452a12,12,0,0,0,12-12V413.08a36,36,0,0,0-33.68-35.88ZM125.13,20a12,12,0,0,1,12-12H441.38a12,12,0,0,1,12,12V231.13a12,12,0,0,1-12,12H137.92a59.37,59.37,0,0,0,11.4-17.47,19.62,19.62,0,0,0,10.32,3H418.88a20,20,0,0,0,20-20V146a4,4,0,0,0-8,0v62.66a12,12,0,0,1-12,12H159.64a11.83,11.83,0,0,1-7.72-2.86,57.68,57.68,0,0,0-4.28-41.06V42.51a12,12,0,0,1,12-12H418.88a12,12,0,0,1,12,12V75.42a4,4,0,1,0,8,0V42.51a20,20,0,0,0-20-20H159.64a20,20,0,0,0-20,20V164.64a59.56,59.56,0,0,0-14.51-12.22ZM143.9,276.79l-19.61,13a4,4,0,0,0-1.23,5.39l6.53,10.91-18.17,14.37a46.68,46.68,0,0,0-3.5-3.67l25.61-62.91h2.15ZM74.64,391.87A40.2,40.2,0,1,1,115,351.68,40.34,40.34,0,0,1,74.64,391.87ZM64.92,289.78l-19.61-13,8.22-22.92h2.15l20.23,49.68c-.43,0-.84-.07-1.27-.07a48.19,48.19,0,0,0-14.88,2.36l6.39-10.67a4,4,0,0,0-1.23-5.39Zm16.25-9.44L85,292l-.67,11.09-7.21-17.72ZM94.6,263.75l7.45,9.2-4.78,14.5H91.94L87.16,273l2.19-2.7Zm-1.78,31.7H96.4l.82,13.63a50.48,50.48,0,0,0-5.08-2.29ZM104.2,292,108,280.34l4,5-7.21,17.71Zm20.27-38.1h.42l-9.37,23L103,261.34a58.85,58.85,0,0,0,21.52-7.47ZM79.56,269.62h0l-5.87,7.25-9.37-23h.42a59.09,59.09,0,0,0,21.52,7.47ZM43.32,202.94A51.29,51.29,0,1,1,94.6,254,51.23,51.23,0,0,1,43.32,202.94ZM14.6,358.35a4,4,0,0,1-4-4V285.87a32,32,0,0,1,32-32H45L36.72,277a4,4,0,0,0,1.56,4.69l19,12.61L51,305a3.93,3.93,0,0,0,.36,4.5,48.2,48.2,0,0,0-25,42.2,47.38,47.38,0,0,0,.52,6.67Zm98.68,26.73a28,28,0,0,1,28,28v50.3a4,4,0,0,1-4,4H12a4,4,0,0,1-4-4v-50.3a28,28,0,0,1,28-28h3.84a48.34,48.34,0,0,0,69.6,0ZM116.09,327l21.21-16.78a4,4,0,0,0,.95-5.19l-6.37-10.64,19.05-12.61a4,4,0,0,0,1.56-4.69l-8.31-23.17h2.42a32,32,0,0,1,32,32v68.48a4,4,0,0,1-4,4H122.5a46.6,46.6,0,0,0-6.41-31.4Zm154.55,58.13a28,28,0,0,1,28,28v50.3a4,4,0,0,1-4,4H169.35a4,4,0,0,1-4-4v-50.3a28,28,0,0,1,28-28h3.85a48.34,48.34,0,0,0,69.6,0Zm1.74-33.4A40.39,40.39,0,1,1,232,311.48,40.34,40.34,0,0,1,272.38,351.68Zm-76.51-31.95a48.18,48.18,0,0,0-9.26,15.43V285.87a39.91,39.91,0,0,0-16-31.89v-2.85h25.23v68.6Zm186.77-68.6h25.23v56a48.19,48.19,0,0,0-18.52-3.69,49.51,49.51,0,0,0-6.71.52Zm6.71,60.35A40.2,40.2,0,1,1,349,351.68a40.35,40.35,0,0,1,40.38-40.2ZM456,463.38a4,4,0,0,1-4,4H326.71a4,4,0,0,1-4-4v-50.3a28,28,0,0,1,28-28h3.84a48.34,48.34,0,0,0,69.6,0H428a28,28,0,0,1,28,28Z"/></g></g></svg>