<svg xmlns="http://www.w3.org/2000/svg" xmlns:xlink="http://www.w3.org/1999/xlink" viewBox="0 0 481.17 481.95"><defs><style>.cls-1,.cls-2,.cls-3{fill:none;}.cls-1,.cls-2{clip-rule:evenodd;}.cls-2{clip-path:url(#clip-path);}.cls-4{clip-path:url(#clip-path-2);}.cls-5{clip-path:url(#clip-path-3);}.cls-6{fill:#97c9e8;}.cls-7{fill:#60b6ff;}.cls-8{fill:#baeb6c;}.cls-9{fill:#96d629;}.cls-10{fill:#49cb5c;}.cls-11{fill:#07b128;}.cls-12{fill:#696b7b;}</style><clipPath id="clip-path"><polygon class="cls-1" points="0 482.78 482.4 482.78 482.4 0 0 0 0 482.78 0 482.78"/></clipPath><clipPath id="clip-path-2" transform="translate(-0.71 -0.71)"><polygon class="cls-2" points="0 0 482.4 0 482.4 482.78 0 482.78 0 0 0 0"/></clipPath><clipPath id="clip-path-3" transform="translate(-0.71 -0.71)"><polygon class="cls-3" points="0 482.78 482.4 482.78 482.4 0 0 0 0 482.78 0 482.78"/></clipPath></defs><g id="Слой_2" data-name="Слой 2"><g id="Слой_1-2" data-name="Слой 1"><g class="cls-4"><g class="cls-5"><path class="cls-6" d="M358.48,281.19c0-86.3-69.72-156.27-155.72-156.27S47,194.89,47,281.19s69.72,156.26,155.72,156.26,155.72-70,155.72-156.26Z" transform="translate(-0.71 -0.71)"/><path class="cls-7" d="M202.76,124.92a155.82,155.82,0,0,0-23.51,1.78c74.84,11.37,132.2,76.21,132.2,154.49S254.09,424.3,179.25,435.68a155.82,155.82,0,0,0,23.51,1.77c86,0,155.72-70,155.72-156.26S288.76,124.92,202.76,124.92Z" transform="translate(-0.71 -0.71)"/><path class="cls-8" d="M182.52,185.65c-24,15-42,39.12-28.49,66.2s43.48,16.55,71.22,12.79,6.75,82,23.24,103.06,63-21.07,58.47-48.15c-6.66-40.09-9-54.16,45-82.75l.15-.05c-18.2-61.65-73.27-107.4-139.58-111.51v.23s-6,45.14-30,60.18Z" transform="translate(-0.71 -0.71)"/><path class="cls-8" d="M300.33,159.41l0,0,0,0Z" transform="translate(-0.71 -0.71)"/><polygon class="cls-8" points="318.66 176.93 318.67 176.94 318.66 176.93 318.66 176.93"/><path class="cls-8" d="M99.31,351.9c-7.2-11,12.74-36.86,17.24-56.42s-22.49-18.05-30.73-24.82-19.49-36.11-27.74-42.88l-1.32-1a156.79,156.79,0,0,0,53.75,180.34l0-3.28s6-25.57-11.24-51.9Z" transform="translate(-0.71 -0.71)"/><path class="cls-8" d="M307,319.55c0-.19-.07-.39-.09-.58a156.35,156.35,0,0,1-12.94,34.3c8.86-10.46,14.78-23.22,13-33.72Z" transform="translate(-0.71 -0.71)"/><path class="cls-9" d="M212.51,125.24v.23s-.51,3.77-1.79,9.49A156.29,156.29,0,0,1,310.8,266.83c6.88-9.42,19.47-18.55,41.14-30l.15-.05c-18.2-61.65-73.27-107.4-139.58-111.51Z" transform="translate(-0.71 -0.71)"/><path class="cls-10" d="M159.73,178.55C84.42,165.77,37.7,70.87,37.7,70.87S113.08-3.29,188.39,9.5s122,107.68,122,107.68S235,191.34,159.73,178.55Z" transform="translate(-0.71 -0.71)"/><path class="cls-11" d="M188.39,9.5a116.79,116.79,0,0,0-42.62,1.07c72.16,16.22,116.67,106.61,116.67,106.61s-49.35,48.53-108.07,60.3c1.77.4,3.55.76,5.36,1.07,75.3,12.79,150.68-61.37,150.68-61.37S263.69,22.29,188.39,9.5Z" transform="translate(-0.71 -0.71)"/><path class="cls-10" d="M361.63,86.45c20.2-47.85,90.19-63.95,90.19-63.95S489.06,84,468.87,131.8s-90.2,63.94-90.2,63.94-37.24-61.45-17-109.29Z" transform="translate(-0.71 -0.71)"/><path class="cls-11" d="M451.83,22.5a187.68,187.68,0,0,0-34.77,12.68c9.67,20.5,25,62.1,10.42,96.62-10.57,25-34.76,41.36-55.44,51.26,3.74,7.91,6.63,12.68,6.63,12.68s70-16.1,90.2-63.94-17-109.3-17-109.3Z" transform="translate(-0.71 -0.71)"/><path class="cls-12" d="M474.64,56.88a194.12,194.12,0,0,0-16.79-38.24,7.19,7.19,0,0,0-7.61-3.22A195.09,195.09,0,0,0,411.15,30c-27.73,13.86-47.1,32.35-56,53.48-7.43,17.6-8.49,39.11-3.23,62.88a200.33,200.33,0,0,0-37.61-32.77A292,292,0,0,0,281.6,63.46c-5.72-7-16.73,1.8-11,8.91a282.05,282.05,0,0,1,26,38.32L232.42,98.15l-61-83.34a99.43,99.43,0,0,1,17.8,1.82c18.76,3.67,37.3,13.24,55.1,28.42,7,6,16-4.88,9.15-10.74C233.76,17.53,213.05,6.92,191.88,2.77c-32.33-6.33-70,2-109,24A281.22,281.22,0,0,0,33.52,62.07a7.48,7.48,0,0,0-.84,9.7,288.34,288.34,0,0,0,31.64,49.7,220.34,220.34,0,0,0,33.35,34.31q-4.94,4.13-9.58,8.67a163.28,163.28,0,0,0,52.76,267.9c8.4,3.4,13.71-9.67,5.31-13.08a149.57,149.57,0,0,1-30.52-16.8c1.21-6.69,4-30.77-12-55.69-2.23-3.48,4.45-17.17,8.45-25.35,4.12-8.43,8.37-17.14,10.36-25.35,2.11-8.71-.27-16-6.87-21.16-4.84-3.77-11.18-5.72-16.77-7.44-3.63-1.12-7.74-2.38-9.21-3.61-3-2.54-8-11.92-12-19.45-4.4-8.36-8.6-16.31-12.89-21.21a150.22,150.22,0,0,1,44.54-58.72c17.71,12.08,37.94,20.42,59.44,22.1-24.94,19.34-33,44-21.47,67.74C160.75,282,188.46,277.6,212.9,273.7c4.23-.67,8.61-1.37,12.8-1.9,1.57-.19,2.05.24,2.36.52,5.35,4.76,5.2,27.52,5.08,44.14-.16,23-.3,44.7,8.25,55.85a21.53,21.53,0,0,0,17.72,8.59A35.56,35.56,0,0,0,273,377.75c21.27-9.12,43.39-36.56,40-58.28-2.95-19-4.9-31.53-.3-41.64,4.25-9.36,14.53-18,34.78-29.07A149,149,0,0,1,185.66,429.24c-9-1-10.56,13-1.54,14a163.93,163.93,0,0,0,132-45.55,163.2,163.2,0,0,0-25.1-253.35c9.32-6.65,16.27-12.4,20.12-15.74a187.93,187.93,0,0,1,75.7,183C370.06,413.57,273.5,482.83,171.61,466A187.38,187.38,0,0,1,17.36,250.55c1.47-8.89-12.44-11.22-13.91-2.3A201.48,201.48,0,0,0,169.31,479.91a203.18,203.18,0,0,0,33.24,2.74,201.67,201.67,0,0,0,184.27-282,203.34,203.34,0,0,0,32.52-12.83c27.73-13.85,47.1-32.35,56-53.48s8.68-47.92-.72-77.47ZM65.19,251c5.25,10,10.22,19.37,15.38,23.69,3.65,3.05,8.73,4.62,14.12,6.28,13.78,4.24,15.39,6.32,14.06,11.78-1.62,6.71-5.53,14.72-9.32,22.47-7.28,14.91-14.16,29-7.64,39.18a67.14,67.14,0,0,1,10.67,37.46C60.44,354,43.33,294.05,59,239.62c2.07,3.56,4.25,7.69,6.2,11.39ZM406.51,112.26,386.46,63.64c9.75-9.13,21.07-16,30.71-20.84a186.52,186.52,0,0,1,22.29-9.39Zm46-73.38a188.57,188.57,0,0,1,8.82,22.57,135,135,0,0,1,6.39,34l-47,19.4,31.77-76ZM368.12,89A67,67,0,0,1,376,75.3l22.82,55.34-20.48,49a188.73,188.73,0,0,1-9.14-23.25c-5.77-18.25-10.64-44.76-1.08-67.4Zm45.2,86.06a186,186,0,0,1-21.59,9.14L413,133.35,467.08,111a68.26,68.26,0,0,1-4.71,17.85c-9.56,22.63-31.95,37.62-49.05,46.2Zm-254.38-4q-3.74-.73-7.37-1.76L229.64,112l64.29,12.54c-23.42,18.46-80.41,57.2-135,46.5ZM87.59,126.87a274.93,274.93,0,0,1-36-49.6l81.81,16L87.59,126.87ZM102,32.67,136.27,79.4,53.93,63.33A277.55,277.55,0,0,1,102,32.67Zm54.64,50.71-41.5-56.65a158.59,158.59,0,0,1,39.43-10.92L212,94.17,156.68,83.38Zm-4.39,13.53,58.5,11.41L135.7,163.41c-14.16-6.55-26.9-16-38-26.42ZM343.71,234.78c-25.43,13.56-37.89,24.21-43.8,37.2-6.34,14-4,28.93-.8,49.66,1.9,12.22-12.61,35-31.63,43.13-7,3-12,2.66-14.9-1.06-5.6-7.3-5.45-29.4-5.33-47.15.17-24.56.31-45.78-9.81-54.79a16.65,16.65,0,0,0-13.48-4c-4.43.55-8.93,1.27-13.28,2-25.93,4.13-42.25,5.79-50.7-11.61-13.7-28.17,14-49,26.58-56.7a44.8,44.8,0,0,0,7.13-5.44c30.35-3.63,59-16.66,84.58-33a149.86,149.86,0,0,1,65.44,81.76Z" transform="translate(-0.71 -0.71)"/></g></g></g></g></svg>