<svg xmlns="http://www.w3.org/2000/svg" xmlns:xlink="http://www.w3.org/1999/xlink" viewBox="0 0 321 296.22"><defs><style>.cls-1{fill:url(#Безымянный_градиент_60);}.cls-2{fill:url(#Безымянный_градиент_67);}.cls-3{fill:none;stroke:#404d7f;stroke-miterlimit:10;stroke-width:6px;}</style><radialGradient id="Безымянный_градиент_60" cx="266.12" cy="25.37" fx="252.24652076146992" r="88.8" gradientTransform="matrix(-1, -0.07, 0.14, -1.97, 558.39, 131.05)" gradientUnits="userSpaceOnUse"><stop offset="0" stop-color="#cbabc8"/><stop offset="0.07" stop-color="#ab98bf"/><stop offset="0.16" stop-color="#8884b6"/><stop offset="0.25" stop-color="#6f75af"/><stop offset="0.33" stop-color="#606cab"/><stop offset="0.39" stop-color="#5b69aa"/><stop offset="0.56" stop-color="#515f9a"/><stop offset="0.9" stop-color="#404d7f"/></radialGradient><radialGradient id="Безымянный_градиент_67" cx="168.86" cy="62.21" fx="120.92872023244749" r="238.93" gradientTransform="matrix(-0.32, 0.95, -1.74, -0.59, 331.38, -60.82)" gradientUnits="userSpaceOnUse"><stop offset="0.09" stop-color="#cbabc8"/><stop offset="0.16" stop-color="#ab98bf"/><stop offset="0.24" stop-color="#8e87b8"/><stop offset="0.33" stop-color="#777ab2"/><stop offset="0.42" stop-color="#6770ad"/><stop offset="0.53" stop-color="#5e6bab"/><stop offset="0.67" stop-color="#5b69aa"/><stop offset="0.77" stop-color="#5764a3"/><stop offset="0.91" stop-color="#4a5890"/><stop offset="1" stop-color="#404d7f"/></radialGradient></defs><g id="Слой_2" data-name="Слой 2"><g id="Слой_1-2" data-name="Слой 1"><ellipse class="cls-1" cx="244.92" cy="73.93" rx="68.21" ry="75.62" transform="translate(39.59 226.55) rotate(-53.42)"/><ellipse class="cls-2" cx="141.07" cy="163.77" rx="138.07" ry="129.44"/><path class="cls-3" d="M285.57,19.16C252-5.73,206.64-1.38,184.19,28.87A61.63,61.63,0,0,0,178.08,39a146.63,146.63,0,0,0-37-4.71C64.82,34.33,3,92.28,3,163.77S64.82,293.22,141.07,293.22s138.08-58,138.08-129.45a122.93,122.93,0,0,0-2.24-23.32A62.86,62.86,0,0,0,305.64,119C328.09,88.75,319.1,44.05,285.57,19.16Z"/></g></g></svg>