<svg xmlns="http://www.w3.org/2000/svg" viewBox="0 0 440 472"><defs><style>.cls-1{fill:#45a7d1;}.cls-2{fill:#e0e0de;}.cls-3{fill:#4db7e5;}.cls-4{fill:#d6d6d4;}.cls-5{fill:#fec9a3;}.cls-6{fill:#fec093;}.cls-7{fill:#95573a;}.cls-8{fill:#8f4d2e;}.cls-9{fill:#c7c7c5;}.cls-10{fill:#f7a468;}.cls-11{fill:#ffb531;}.cls-12{fill:#48add9;}.cls-13{fill:#2a71ad;}.cls-14{fill:#ffa912;}</style></defs><g id="Слой_2" data-name="Слой 2"><g id="Слой_1-2" data-name="Слой 1"><path class="cls-1" d="M336,472H144V200H336Z"/><path class="cls-2" d="M435.26,296.29,397,234.06A71.57,71.57,0,0,0,336,200H296l-56,80-56-80H144a71.57,71.57,0,0,0-61,34.06L72,252V192H8V336a32,32,0,0,0,32,32H54.27A32,32,0,0,0,81.4,353L112,304l32-56V472H336V368h72a32,32,0,0,0,32-32V313.05A32,32,0,0,0,435.26,296.29ZM336,304V248l32,56Z"/><path class="cls-3" d="M240,200H184l32.66,46.66Z"/><path class="cls-3" d="M240,200h56l-32.66,46.66Z"/><path class="cls-4" d="M435.26,296.29,397,234.06a71.57,71.57,0,0,0-18-19.72,268.89,268.89,0,0,1-31.76,53.21L368,304H336V281.3C282.05,344,204.89,382.46,144,404.84V472H336V368h72a32,32,0,0,0,32-32V313.05A32,32,0,0,0,435.26,296.29Z"/><path class="cls-5" d="M168,56H312v72a72,72,0,0,1-144,0Z"/><path class="cls-6" d="M280,56v72a72,72,0,0,1-56,70.15A71.81,71.81,0,0,0,312,128V56Z"/><path class="cls-7" d="M136,8H264a48,48,0,0,1,48,48H168l-3.38-1.69A51.78,51.78,0,0,1,136,8Z"/><path class="cls-8" d="M264,8H232a48,48,0,0,1,48,48h32A48,48,0,0,0,264,8Z"/><path class="cls-3" d="M312,120H256l-16-16-16,16H168a16,16,0,0,1-16-16V72a16,16,0,0,1,16-16H312a16,16,0,0,1,16,16v32A16,16,0,0,1,312,120Z"/><path class="cls-9" d="M64,320a8,8,0,0,1-8-8V192a8,8,0,0,1,16,0V312A8,8,0,0,1,64,320Z"/><path class="cls-9" d="M232,272h16V472H232Z"/><path class="cls-9" d="M144,288h56v16H144Z"/><path class="cls-9" d="M144,400h56v16H144Z"/><path class="cls-10" d="M230.11,160H224V144h6.11a68.33,68.33,0,0,0,30.32-7.16l7.14,14.32A84.24,84.24,0,0,1,230.11,160Z"/><path class="cls-11" d="M96,16H80V0H64V16H48V32H64V48H80V32H96Z"/><path class="cls-11" d="M24,48A24,24,0,1,0,48,72,24,24,0,0,0,24,48Zm0,32a8,8,0,1,1,8-8A8,8,0,0,1,24,80Z"/><path class="cls-3" d="M64,96h48V248a24,24,0,0,1-48,0Z"/><path class="cls-11" d="M64,248a24,24,0,0,0,48,0V224H64Z"/><path class="cls-5" d="M112,128H40A32,32,0,0,0,8,160v32H112Z"/><path class="cls-12" d="M312,56l-60,60,4,4h56a16,16,0,0,0,16-16V72A16,16,0,0,0,312,56Z"/><path class="cls-13" d="M192,80h16V96H192Z"/><path class="cls-13" d="M272,80h16V96H272Z"/><path class="cls-3" d="M272,344V272h32v72l43.2,57.6A24,24,0,0,1,328,440H248a24,24,0,0,1-19.2-38.4Z"/><path class="cls-11" d="M350.59,408A23.91,23.91,0,0,1,328,440H248a23.91,23.91,0,0,1-22.59-32Z"/><path class="cls-12" d="M287.92,408h62.67a24,24,0,0,0-3.39-6.4l-24.31-32.41A193.23,193.23,0,0,1,287.92,408Z"/><path class="cls-14" d="M351.62,411.84a24.46,24.46,0,0,0-1-3.84H287.92A213.12,213.12,0,0,1,240,438.52a23.76,23.76,0,0,0,8,1.48h80a23.93,23.93,0,0,0,23.64-28.06Z"/><path class="cls-5" d="M336,368H264a16,16,0,0,1-16-16V336l-3-3a17,17,0,0,1,12-29h79Z"/><path class="cls-9" d="M392,296H336v16h56a8,8,0,0,0,0-16Z"/></g></g></svg>