<svg xmlns="http://www.w3.org/2000/svg" viewBox="0 0 480 480"><defs><style>.cls-1{fill:#fff;}.cls-2{fill:#fba58e;}.cls-3{fill:#bd2e07;}</style></defs><g id="Слой_2" data-name="Слой 2"><g id="Слой_1-2" data-name="Слой 1"><g id="_282_Headphones_Help_Message_Support" data-name="282, Headphones, Help, Message, Support"><path class="cls-1" d="M412.17,67.83h-62.6V5.22H99.13V433h313Z"/><circle class="cls-2" cx="412.17" cy="323.48" r="62.61"/><path class="cls-3" d="M408,302.58c-3.31,1.37-5.55,3.88-7.42,6.89l-8.27-5.7c4.22-10.12,16.18-14.46,27-11.23a17.36,17.36,0,0,1,10.9,9.18,19.13,19.13,0,0,1,1.75,8.52c0,9.48-5.5,13.61-13.8,18.17a15.59,15.59,0,0,0-6,5.28,7.82,7.82,0,0,0-1,4.05H400.71a22,22,0,0,1,1.52-8.38q1.51-3.71,6.28-6.47c3.5-2.11,8.07-3.78,11-8.14a8.26,8.26,0,0,0-1.38-10.8A10.41,10.41,0,0,0,408,302.58Z"/><path class="cls-2" d="M135.65,349.57h41.74V391.3H135.65Z"/><path class="cls-2" d="M135.65,281.74h41.74v41.74H135.65Z"/><path class="cls-2" d="M135.65,213.91h41.74v41.74H135.65Z"/><path class="cls-2" d="M453.91,125.22A20.87,20.87,0,1,1,433,146.09,20.87,20.87,0,0,1,453.91,125.22Z"/><circle class="cls-3" cx="456.52" cy="221.74" r="7.83"/><circle class="cls-3" cx="440.87" cy="420" r="7.83"/><circle class="cls-3" cx="425.22" cy="28.7" r="7.83"/><path class="cls-2" d="M412.17,67.83h-62.6V5.22Z"/><path class="cls-3" d="M400.89,342.33h10.57v13.14H400.89Z"/><path class="cls-2" d="M349.57,433v41.74H57.39V57.39H99.13V433Z"/><path class="cls-2" d="M135.65,146.09h41.74v41.74H135.65Z"/><path class="cls-2" d="M135.65,78.26h41.74V120H135.65Z"/><circle class="cls-3" cx="33.91" cy="18.26" r="7.83"/><circle class="cls-3" cx="33.91" cy="404.35" r="7.83"/><path class="cls-2" d="M20.87,313A15.66,15.66,0,1,1,5.22,328.7,15.66,15.66,0,0,1,20.87,313Z"/><circle class="cls-3" cx="23.48" cy="216.52" r="7.83"/><path class="cls-3" d="M349.57,480H57.39a5.22,5.22,0,0,1-5.22-5.22V57.39a5.22,5.22,0,0,1,5.22-5.22H99.13a5.22,5.22,0,0,1,0,10.44H62.61v407H344.35V433a5.22,5.22,0,0,1,10.43,0v41.74A5.22,5.22,0,0,1,349.57,480Z"/><path class="cls-3" d="M412.17,73h-62.6a5.21,5.21,0,0,1-5.22-5.21V5.22a5.22,5.22,0,1,1,10.43,0V62.61h57.39a5.22,5.22,0,1,1,0,10.43Z"/><path class="cls-3" d="M20.87,349.57A20.87,20.87,0,1,1,41.74,328.7,20.9,20.9,0,0,1,20.87,349.57Zm0-31.31A10.44,10.44,0,1,0,31.3,328.7,10.45,10.45,0,0,0,20.87,318.26Z"/><path class="cls-3" d="M453.91,172.17A26.09,26.09,0,1,1,480,146.09,26.11,26.11,0,0,1,453.91,172.17Zm0-41.74a15.66,15.66,0,1,0,15.66,15.66A15.68,15.68,0,0,0,453.91,130.43Z"/><path class="cls-3" d="M250.43,36.52H99.13a5.22,5.22,0,1,1,0-10.43h151.3a5.22,5.22,0,1,1,0,10.43Z"/><path class="cls-3" d="M177.39,125.22H135.65a5.22,5.22,0,0,1-5.22-5.22V78.26A5.22,5.22,0,0,1,135.65,73h41.74a5.22,5.22,0,0,1,5.22,5.22V120A5.22,5.22,0,0,1,177.39,125.22Zm-36.52-10.44h31.3V83.48h-31.3Z"/><path class="cls-3" d="M333.91,114.78H198.26a5.22,5.22,0,1,1,0-10.43H333.91a5.22,5.22,0,1,1,0,10.43Z"/><path class="cls-3" d="M245.22,93.91h-47a5.22,5.22,0,1,1,0-10.43h47a5.22,5.22,0,0,1,0,10.43Z"/><path class="cls-3" d="M177.39,193H135.65a5.22,5.22,0,0,1-5.22-5.21V146.09a5.22,5.22,0,0,1,5.22-5.22h41.74a5.22,5.22,0,0,1,5.22,5.22v41.74A5.22,5.22,0,0,1,177.39,193Zm-36.52-10.43h31.3V151.3h-31.3Z"/><path class="cls-3" d="M333.91,182.61H198.26a5.22,5.22,0,1,1,0-10.44H333.91a5.22,5.22,0,0,1,0,10.44Z"/><path class="cls-3" d="M245.22,161.74h-47a5.22,5.22,0,1,1,0-10.44h47a5.22,5.22,0,0,1,0,10.44Z"/><path class="cls-3" d="M177.39,260.87H135.65a5.22,5.22,0,0,1-5.22-5.22V213.91a5.22,5.22,0,0,1,5.22-5.21h41.74a5.22,5.22,0,0,1,5.22,5.21v41.74A5.22,5.22,0,0,1,177.39,260.87Zm-36.52-10.44h31.3v-31.3h-31.3Z"/><path class="cls-3" d="M333.91,250.43H198.26a5.22,5.22,0,1,1,0-10.43H333.91a5.22,5.22,0,1,1,0,10.43Z"/><path class="cls-3" d="M245.22,229.57h-47a5.22,5.22,0,1,1,0-10.44h47a5.22,5.22,0,0,1,0,10.44Z"/><path class="cls-3" d="M177.39,328.7H135.65a5.22,5.22,0,0,1-5.22-5.22V281.74a5.22,5.22,0,0,1,5.22-5.22h41.74a5.22,5.22,0,0,1,5.22,5.22v41.74A5.22,5.22,0,0,1,177.39,328.7Zm-36.52-10.44h31.3V287h-31.3Z"/><path class="cls-3" d="M333.91,318.26H198.26a5.22,5.22,0,1,1,0-10.43H333.91a5.22,5.22,0,1,1,0,10.43Z"/><path class="cls-3" d="M412.17,438.26h-313A5.22,5.22,0,0,1,93.91,433V5.22A5.22,5.22,0,0,1,99.13,0H349.57a5.18,5.18,0,0,1,3.68,1.53l62.61,62.61a5.21,5.21,0,0,1,1.53,3.69v193a5.22,5.22,0,1,1-10.43,0V70L347.4,10.43h-243v417.4H407V386.09a5.22,5.22,0,1,1,10.43,0v47A5.22,5.22,0,0,1,412.17,438.26Z"/><path class="cls-3" d="M380.56,360.31a5.23,5.23,0,0,1-3.69-1.52,49.93,49.93,0,0,1,0-70.62,5.21,5.21,0,1,1,7.37,7.38,39.48,39.48,0,0,0,0,55.85,5.22,5.22,0,0,1-3.68,8.91Z"/><path class="cls-3" d="M443.8,360.31a5.22,5.22,0,0,1-3.69-8.9,39.5,39.5,0,0,0,0-55.86,5.22,5.22,0,0,1,7.38-7.38,49.94,49.94,0,0,1,0,70.61,5.19,5.19,0,0,1-3.69,1.53Z"/><path class="cls-3" d="M245.22,297.39h-47a5.22,5.22,0,1,1,0-10.43h47a5.22,5.22,0,0,1,0,10.43Z"/><path class="cls-3" d="M177.39,396.52H135.65a5.22,5.22,0,0,1-5.22-5.22V349.57a5.22,5.22,0,0,1,5.22-5.22h41.74a5.22,5.22,0,0,1,5.22,5.22V391.3A5.22,5.22,0,0,1,177.39,396.52Zm-36.52-10.43h31.3V354.78h-31.3Z"/><path class="cls-3" d="M333.91,386.09H198.26a5.22,5.22,0,0,1,0-10.44H333.91a5.22,5.22,0,0,1,0,10.44Z"/><path class="cls-3" d="M245.22,365.22h-47a5.22,5.22,0,1,1,0-10.44h47a5.22,5.22,0,0,1,0,10.44Z"/><path class="cls-3" d="M412.17,391.3A67.83,67.83,0,1,1,480,323.48,67.89,67.89,0,0,1,412.17,391.3Zm0-125.21a57.39,57.39,0,1,0,57.4,57.39A57.45,57.45,0,0,0,412.17,266.09Z"/></g></g></g></svg>