<svg xmlns="http://www.w3.org/2000/svg" viewBox="0 0 320.33 282.43"><defs><style>.cls-1{fill:#aa9ea9;}.cls-2{fill:#9b8e99;}.cls-3{fill:#fee97d;}.cls-4{fill:#fedf30;}</style></defs><g id="Слой_2" data-name="Слой 2"><g id="Слой_1-2" data-name="Слой 1"><path class="cls-1" d="M313.15,250.82l-137.4-237-20.38,4.93L17.58,257.41,27,273.78l.53-2.06,23.28,6H297.67A17.91,17.91,0,0,0,313.15,250.82Z"/><path class="cls-2" d="M50.39,250.82,181.77,24.2l-6-10.4-.09-.15a17.9,17.9,0,0,0-31,0L7.18,250.82a17.91,17.91,0,0,0,15.49,26.89H65.88A17.91,17.91,0,0,1,50.39,250.82Z"/><path class="cls-3" d="M293.59,254.76,162.49,28.64a2,2,0,0,0-3.51,0L27.62,256.17A1.74,1.74,0,0,0,29,258.8H291.26a2.69,2.69,0,0,0,2.33-4Z"/><path class="cls-4" d="M162.49,28.64a2,2,0,0,0-3.51,0L27.62,256.17A1.75,1.75,0,0,0,29,258.81H48a17.68,17.68,0,0,1,2.41-8L170.85,43Z"/><path d="M317.24,248.45,230.18,98.29A4.72,4.72,0,1,0,222,103l87.06,150.16A13.19,13.19,0,0,1,297.66,273h-275a13.18,13.18,0,0,1-11.4-19.79L148.76,16a13.18,13.18,0,0,1,22.81,0L211.91,85.6a4.72,4.72,0,1,0,8.17-4.74L179.74,11.28a22.62,22.62,0,0,0-39.15,0L3.09,248.45a22.63,22.63,0,0,0,19.58,34h275a22.63,22.63,0,0,0,19.58-34Z"/><path d="M127.24,90.84a4.73,4.73,0,0,0-8.18-4.74L20.31,256.43a4.74,4.74,0,0,0,4.09,7.1H295.93a4.73,4.73,0,0,0,4.09-7.1L280.66,223a4.73,4.73,0,0,0-8.18,4.74l15.25,26.3H32.6Z"/><path d="M164.25,22.25a4.73,4.73,0,0,0-8.17,0L129.16,68.68a4.73,4.73,0,1,0,8.18,4.74l22.83-39.37L262.38,210.36a4.72,4.72,0,0,0,4.09,2.35,4.64,4.64,0,0,0,2.37-.64,4.71,4.71,0,0,0,1.72-6.45Z"/><path d="M147.93,119.3a4.73,4.73,0,0,0-4.61-8.25,34.62,34.62,0,0,0-17.71,30.17,34.26,34.26,0,0,0,3.08,14.21,36.51,36.51,0,0,0-2.82,5,34.55,34.55,0,0,0-28.43,43.47,4.73,4.73,0,1,0,9.11-2.53,25.11,25.11,0,0,1,16.22-30.54A37.75,37.75,0,0,0,148.6,212.3l-.21.21a25.13,25.13,0,0,1-24.63,6.28,4.73,4.73,0,0,0-2.61,9.09A34.66,34.66,0,0,0,155,219.23a35.19,35.19,0,0,0,4.28-5.13l.85,0c.54,0,1.07,0,1.61,0A34.64,34.64,0,0,0,200,227.88a4.73,4.73,0,1,0-2.61-9.09,25.11,25.11,0,0,1-24.62-6.28c-.14-.13-.27-.27-.4-.41A37.84,37.84,0,0,0,198,176.32a37.08,37.08,0,0,0-.43-5.71,25.12,25.12,0,0,1,17,30.8,4.73,4.73,0,1,0,9.11,2.53,34.62,34.62,0,0,0-9-33.81,34.26,34.26,0,0,0-20.28-9.76,37.87,37.87,0,0,0-2.77-4.94A34.52,34.52,0,0,0,177,111.05a4.73,4.73,0,0,0-4.61,8.25,25.14,25.14,0,0,1,12.87,21.92,24.84,24.84,0,0,1-.78,6.2,37.71,37.71,0,0,0-48.64,0,24.84,24.84,0,0,1-.78-6.2,25.15,25.15,0,0,1,12.86-21.92Zm-16.11,57a28.18,28.18,0,0,1,.8-6.66A25.09,25.09,0,0,1,154,204,28.39,28.39,0,0,1,131.82,176.32ZM167,203.83a25.11,25.11,0,0,1,20.72-34.11A28.3,28.3,0,0,1,167,203.83ZM160.17,148a28.23,28.23,0,0,1,20,8.32,25.06,25.06,0,0,1-40.09,0A28.24,28.24,0,0,1,160.17,148Z"/><path d="M164.89,64.88V60.82a4.73,4.73,0,1,0-9.45,0v4.06a4.73,4.73,0,1,0,9.45,0Z"/><path d="M55,236.55A4.73,4.73,0,0,0,55,246h5.24a4.73,4.73,0,1,0,0-9.46Z"/><path d="M266.07,246a4.73,4.73,0,1,0,0-9.46h-5.24a4.73,4.73,0,0,0,0,9.46Z"/></g></g></svg>