<svg id="Слой_1" data-name="Слой 1" xmlns="http://www.w3.org/2000/svg" viewBox="0 0 675.04 871.61"><defs><style>.cls-1{fill:#fff;}.cls-2{font-size:12px;fill:#6a6c7c;font-family:Exo2-MediumItalic, "Exo 2";font-weight:500;font-style:italic;}.cls-3{letter-spacing:-0.01em;}.cls-4{font-family:Exo2-Medium, "Exo 2";font-style:normal;}.cls-5{letter-spacing:-0.02em;}.cls-6{letter-spacing:0em;}.cls-7{letter-spacing:-0.01em;}.cls-8{letter-spacing:-0.05em;}.cls-9{letter-spacing:-0.02em;}.cls-10{letter-spacing:-0.02em;}.cls-11{letter-spacing:-0.01em;}.cls-12{letter-spacing:-0.01em;}.cls-13{letter-spacing:-0.02em;}.cls-14{letter-spacing:-0.05em;}.cls-15{letter-spacing:-0.01em;}.cls-16{letter-spacing:-0.01em;}.cls-17{letter-spacing:-0.01em;}.cls-18{letter-spacing:-0.01em;}.cls-19{letter-spacing:-0.03em;}.cls-20{letter-spacing:-0.01em;}.cls-21{letter-spacing:-0.01em;}.cls-22{letter-spacing:-0.05em;}.cls-23{letter-spacing:0em;}.cls-24{letter-spacing:-0.03em;}.cls-25{letter-spacing:-0.02em;}.cls-26{letter-spacing:-0.03em;}.cls-27{letter-spacing:-0.02em;}.cls-28{letter-spacing:-0.06em;}.cls-29{letter-spacing:-0.01em;}.cls-30{letter-spacing:-0.04em;}.cls-31{letter-spacing:-0.06em;}.cls-32{letter-spacing:-0.02em;}.cls-33{letter-spacing:0em;}.cls-34{letter-spacing:-0.02em;}.cls-35{letter-spacing:-0.02em;}.cls-36{letter-spacing:0em;}.cls-37{letter-spacing:-0.02em;}.cls-38{letter-spacing:0em;}.cls-39{letter-spacing:-0.02em;}.cls-40{letter-spacing:-0.01em;}.cls-41{letter-spacing:-0.02em;}.cls-42{letter-spacing:-0.01em;}.cls-43{letter-spacing:0em;}.cls-44{letter-spacing:0em;}.cls-45{letter-spacing:-0.03em;}.cls-46{letter-spacing:-0.02em;}.cls-47{letter-spacing:0em;}.cls-48{letter-spacing:0em;}.cls-49{letter-spacing:-0.02em;}.cls-50{letter-spacing:-0.02em;}.cls-51{letter-spacing:0em;}.cls-52{letter-spacing:-0.02em;}.cls-53{letter-spacing:-0.02em;}.cls-54{letter-spacing:0em;}.cls-55{letter-spacing:-0.02em;}.cls-56{letter-spacing:-0.01em;}.cls-57{letter-spacing:0em;}.cls-58{letter-spacing:-0.05em;}.cls-59{letter-spacing:-0.01em;}.cls-60{letter-spacing:-0.05em;}.cls-61{letter-spacing:-0.04em;}.cls-62{letter-spacing:0em;}.cls-63{letter-spacing:0em;}.cls-64{letter-spacing:-0.05em;}.cls-65{letter-spacing:-0.02em;}.cls-66{letter-spacing:-0.05em;}.cls-67{font-size:36px;fill:#8c6672;font-family:Exo2-Black, "Exo 2";font-weight:800;}.cls-68{letter-spacing:-0.08em;}.cls-69{letter-spacing:-0.01em;}.cls-70{letter-spacing:0em;}.cls-71{letter-spacing:0em;}.cls-72,.cls-76{fill:none;stroke-width:2px;}.cls-72{stroke:#6a6c7c;}.cls-72,.cls-73,.cls-74,.cls-75,.cls-76{stroke-miterlimit:8;}.cls-73{fill:#5c6aac;}.cls-73,.cls-74,.cls-75{stroke:#38416b;stroke-width:3px;}.cls-74{fill:#707db6;}.cls-75{fill:#838ec0;}.cls-76{stroke:#696b7c;}</style></defs><path class="cls-1" d="M30.13,863.62a17.29,17.29,0,0,1,24.45,0,17.29,17.29,0,0,0,24.45,0,17.29,17.29,0,0,1,24.45,0,17.29,17.29,0,0,0,24.45,0,17.28,17.28,0,0,1,24.45,0,17.29,17.29,0,0,0,24.45,0,17.28,17.28,0,0,1,24.45,0,17.29,17.29,0,0,0,24.45,0c6.76-6.74,17.24-7.1,24.27.24,6.48,6.76,17.69,6.77,24.45,0a17.28,17.28,0,0,1,24.45,0c6.74,6.76,17.28,6.3,24.45,0,8.42-7.37,17.76-6.9,24.51-.14a17.29,17.29,0,0,0,24.45,0c6.76-6.75,18-6.74,24.45,0,7,7.33,17.51,7,24.27.23a17.29,17.29,0,0,1,24.45,0,17.29,17.29,0,0,0,24.45,0,17.28,17.28,0,0,1,24.45,0,17.29,17.29,0,0,0,24.45,0,17.28,17.28,0,0,1,24.45,0,17.28,17.28,0,0,0,24.45,0,17.29,17.29,0,0,1,24.45,0,17.28,17.28,0,0,0,24.45,0,17.29,17.29,0,0,1,24.45,0c6.74,6.76,19.91,5.29,26.37-1.74,4.5-4.88,7.33-17.47.57-24.21a17.29,17.29,0,0,1,0-24.45,17.28,17.28,0,0,0,0-24.45,17.28,17.28,0,0,1,0-24.45,17.29,17.29,0,0,0,0-24.45,17.28,17.28,0,0,1,0-24.45,17.29,17.29,0,0,0,0-24.45,17.29,17.29,0,0,1,0-24.45,17.29,17.29,0,0,0,0-24.45,17.29,17.29,0,0,1,0-24.45,17.28,17.28,0,0,0,0-24.45,17.29,17.29,0,0,1,0-24.45,17.29,17.29,0,0,0,0-24.45,17.28,17.28,0,0,1,0-24.45c6.74-6.76,7.1-17.24-.24-24.28-6.76-6.48-6.77-17.69,0-24.45a17.28,17.28,0,0,0,0-24.45c-6.76-6.74-6.3-17.28,0-24.45,7.37-8.41,6.9-17.76.14-24.5a17.29,17.29,0,0,1,0-24.45c6.75-6.76,6.74-18,0-24.45-7.34-7-7-17.52-.24-24.28a17.29,17.29,0,0,0,0-24.45,17.29,17.29,0,0,1,0-24.45,17.28,17.28,0,0,0,0-24.45,17.29,17.29,0,0,1,0-24.45,17.28,17.28,0,0,0,0-24.45,17.28,17.28,0,0,1,0-24.45,17.29,17.29,0,0,0,0-24.45,17.28,17.28,0,0,1,0-24.45,17.29,17.29,0,0,0,0-24.45,17.29,17.29,0,0,1,0-24.45,17.29,17.29,0,0,0,0-24.45,17.29,17.29,0,0,1,0-24.45,19,19,0,0,0,1.41-24.65C662.35,0,647-1.73,640.25,5a17.23,17.23,0,0,1-24.36,0,17.22,17.22,0,0,0-24.35,0,17.23,17.23,0,0,1-24.35,0,17.22,17.22,0,0,0-24.36,0,17.23,17.23,0,0,1-24.35,0,17.23,17.23,0,0,0-24.36,0,17.21,17.21,0,0,1-24.35,0,17.24,17.24,0,0,0-24.36,0,17.21,17.21,0,0,1-24.35,0c-6.74-6.72-17.18-7.08-24.18.24a17.23,17.23,0,0,1-24.36,0,17.23,17.23,0,0,0-24.35,0c-6.72,6.74-16,7.2-24.41-.14-7.14-6.24-17.64-6.7-24.36,0a17.21,17.21,0,0,1-24.35,0,17.22,17.22,0,0,0-24.36,0c-7,7.31-17.45,7-24.18.24a17.22,17.22,0,0,0-24.35,0,17.22,17.22,0,0,1-24.36,0,17.23,17.23,0,0,0-24.35,0,17.22,17.22,0,0,1-24.36,0,17.22,17.22,0,0,0-24.35,0,17.23,17.23,0,0,1-24.36,0A17.21,17.21,0,0,0,56,5.94,17.24,17.24,0,0,1,31.67,6c-6.73-6.72-21-4.9-26.53,2.1-5,6.37-5.66,17.25,1.08,24a17.28,17.28,0,0,1,0,24.45A17.29,17.29,0,0,0,6.16,81a17.28,17.28,0,0,1,0,24.45,17.28,17.28,0,0,0,0,24.45,17.29,17.29,0,0,1,0,24.45,17.28,17.28,0,0,0,0,24.45,17.29,17.29,0,0,1,0,24.45,17.29,17.29,0,0,0,0,24.45,17.29,17.29,0,0,1,0,24.45,17.29,17.29,0,0,0,0,24.45A17.28,17.28,0,0,1,5.9,301a17.29,17.29,0,0,0,0,24.45c6.75,6.76,7.11,17.24-.23,24.28-6.76,6.48-6.77,17.69,0,24.45a17.29,17.29,0,0,1,0,24.45c-6.76,6.74-7.22,16.09.14,24.5,6.27,7.17,6.73,17.71,0,24.45a17.29,17.29,0,0,0,0,24.45c6.75,6.76,6.74,18,0,24.45-7.34,7-7,17.52-.23,24.28a17.29,17.29,0,0,1,0,24.45,17.29,17.29,0,0,0,0,24.45,17.29,17.29,0,0,1,0,24.45,17.29,17.29,0,0,0,0,24.45,17.28,17.28,0,0,1,0,24.45,17.29,17.29,0,0,0,0,24.45,17.28,17.28,0,0,1,0,24.45,17.28,17.28,0,0,0,0,24.45,17.29,17.29,0,0,1,0,24.45,17.28,17.28,0,0,0,0,24.45,17.29,17.29,0,0,1,0,24.45,17.29,17.29,0,0,0,0,24.45,17.29,17.29,0,0,1,0,24.45c-6.76,6.74-6.21,16.55-.71,23.74S23.37,870.37,30.13,863.62Z" transform="translate(1 1)"/><text class="cls-2" transform="translate(88.41 191.62)">Ing<tspan class="cls-3" x="17.08" y="0">r</tspan><tspan x="21.8" y="0">edients</tspan><tspan class="cls-4" x="62.31" y="0">:</tspan><tspan class="cls-4"><tspan x="0" y="14.4">YPD </tspan><tspan class="cls-5" x="24.64" y="14.4">(</tspan><tspan class="cls-3" x="28.75" y="14.4">y</tspan><tspan x="35.06" y="14.4">east extract pe</tspan><tspan class="cls-6" x="117.24" y="14.4">p</tspan><tspan x="124.23" y="14.4">tone dext</tspan><tspan class="cls-7" x="176.27" y="14.4">r</tspan><tspan x="181" y="14.4">os</tspan><tspan class="cls-8" x="193.95" y="14.4">e</tspan><tspan x="199.83" y="14.4">) medium</tspan><tspan x="0" y="28.8">100 mM LiAc </tspan><tspan class="cls-9" x="71.09" y="28.8">(</tspan><tspan x="75.18" y="28.8">Lithium</tspan><tspan class="cls-10" x="116.47" y="28.8"> </tspan><tspan x="118.86" y="28.8">A</tspan><tspan class="cls-11" x="126.37" y="28.8">c</tspan><tspan x="132.17" y="28.8">etat</tspan><tspan class="cls-8" x="154.56" y="28.8">e</tspan><tspan x="160.44" y="28.8">)</tspan><tspan x="0" y="43.2">TE buf</tspan><tspan class="cls-12" x="34.78" y="43.2">f</tspan><tspan x="39.32" y="43.2">e</tspan><tspan class="cls-13" x="45.79" y="43.2">r</tspan><tspan x="50.4" y="43.2"> </tspan><tspan class="cls-14" x="53.06" y="43.2">(</tspan><tspan x="56.8" y="43.2">tris</tspan><tspan class="cls-15" x="75.45" y="43.2">(</tspan><tspan x="79.59" y="43.2">h</tspan><tspan class="cls-16" x="86.59" y="43.2">y</tspan><tspan x="92.91" y="43.2">d</tspan><tspan class="cls-17" x="99.81" y="43.2">r</tspan><tspan class="cls-18" x="104.54" y="43.2">o</tspan><tspan x="111.25" y="43.2">xymethy</tspan><tspan class="cls-19" x="159.06" y="43.2">l</tspan><tspan x="162.38" y="43.2">)aminomethane - Ethylenediaminetetraa</tspan><tspan class="cls-20" x="385.8" y="43.2">c</tspan><tspan x="391.59" y="43.2">etic acid buf</tspan><tspan class="cls-21" x="457.8" y="43.2">f</tspan><tspan x="462.35" y="43.2">e</tspan><tspan class="cls-22" x="468.81" y="43.2">r</tspan><tspan class="cls-23" x="473.06" y="43.2">)</tspan><tspan x="0" y="57.6">10 mg</tspan><tspan class="cls-24" x="32" y="57.6">/</tspan><tspan x="37.9" y="57.6">m</tspan><tspan class="cls-25" x="48.4" y="57.6">l</tspan><tspan x="51.73" y="57.6" xml:space="preserve"> Salmon Sperm DN</tspan><tspan class="cls-10" x="153.11" y="57.6">A</tspan><tspan x="160.34" y="57.6"> </tspan><tspan class="cls-26" x="163.01" y="57.6">(</tspan><tspan x="167" y="57.6">SS-DN</tspan><tspan class="cls-27" x="202.29" y="57.6">A</tspan><tspan x="209.54" y="57.6">)</tspan><tspan x="0" y="72">P</tspan><tspan class="cls-12" x="7.1" y="72">E</tspan><tspan x="13.78" y="72">G </tspan><tspan class="cls-9" x="23.99" y="72">(</tspan><tspan class="cls-16" x="28.08" y="72">P</tspan><tspan x="35.11" y="72">o</tspan><tspan class="cls-10" x="41.95" y="72">l</tspan><tspan x="45.3" y="72">y</tspan><tspan class="cls-28" x="51.7" y="72">(</tspan><tspan x="55.34" y="72">ethylene g</tspan><tspan class="cls-10" x="112.81" y="72">l</tspan><tspan class="cls-3" x="116.16" y="72">y</tspan><tspan class="cls-29" x="122.47" y="72">c</tspan><tspan x="128.27" y="72">o</tspan><tspan class="cls-19" x="135.11" y="72">l</tspan><tspan class="cls-30" x="138.43" y="72">)</tspan><tspan x="142.3" y="72">)/LiAc </tspan><tspan class="cls-31" x="178.17" y="72">(</tspan><tspan x="181.82" y="72">40% P</tspan><tspan class="cls-16" x="217.05" y="72">E</tspan><tspan x="223.73" y="72">G 3350 + 100mM LiAc in 1 x</tspan><tspan class="cls-32" x="367.99" y="72"> </tspan><tspan x="370.38" y="72">T</tspan><tspan class="cls-33" x="377.38" y="72">E</tspan><tspan x="384.1" y="72">)</tspan><tspan x="0" y="86.4">DMSO</tspan><tspan x="0" y="115.2">In o</tspan><tspan class="cls-3" x="19.72" y="115.2">r</tspan><tspan x="24.48" y="115.2">de</tspan><tspan class="cls-34" x="37.85" y="115.2">r</tspan><tspan class="cls-35" x="42.46" y="115.2"> </tspan><tspan x="44.9" y="115.2">to </tspan><tspan class="cls-36" x="59.06" y="115.2">g</tspan><tspan x="65.75" y="115.2">enetical</tspan><tspan class="cls-10" x="109.51" y="115.2">l</tspan><tspan class="cls-37" x="112.86" y="115.2">y</tspan><tspan class="cls-35" x="118.99" y="115.2"> </tspan><tspan x="121.44" y="115.2">trans</tspan><tspan class="cls-12" x="150.66" y="115.2">f</tspan><tspan x="155.21" y="115.2">orm</tspan><tspan class="cls-37" x="177.39" y="115.2"> </tspan><tspan class="cls-3" x="179.79" y="115.2">y</tspan><tspan x="186.1" y="115.2">east </tspan><tspan class="cls-29" x="212.61" y="115.2">c</tspan><tspan class="cls-38" x="218.41" y="115.2">ells,</tspan><tspan class="cls-39" x="241.02" y="115.2"> </tspan><tspan x="243.46" y="115.2">the desi</tspan><tspan class="cls-40" x="286.77" y="115.2">r</tspan><tspan x="291.5" y="115.2">ed</tspan><tspan class="cls-41" x="304.87" y="115.2"> </tspan><tspan class="cls-42" x="307.27" y="115.2">y</tspan><tspan x="313.58" y="115.2">east strain</tspan><tspan class="cls-13" x="372.35" y="115.2"> </tspan><tspan class="cls-43" x="374.78" y="115.2">w</tspan><tspan x="384.65" y="115.2">as p</tspan><tspan class="cls-7" x="407.05" y="115.2">r</tspan><tspan x="411.77" y="115.2">e-g</tspan><tspan class="cls-40" x="430.28" y="115.2">r</tspan><tspan class="cls-43" x="435.01" y="115.2">o</tspan><tspan x="441.81" y="115.2">wn in 50 </tspan><tspan x="0" y="129.6">m</tspan><tspan class="cls-10" x="10.5" y="129.6">L</tspan><tspan x="16.4" y="129.6"> </tspan><tspan class="cls-44" x="19.07" y="129.6">o</tspan><tspan class="cls-34" x="25.9" y="129.6">f</tspan><tspan x="30.28" y="129.6" xml:space="preserve"> liquid</tspan><tspan class="cls-45" x="63.29" y="129.6"> </tspan><tspan x="65.63" y="129.6">YPD unti</tspan><tspan class="cls-46" x="111.83" y="129.6">l</tspan><tspan x="115.16" y="129.6" xml:space="preserve"> OD600 0.6-0.8.</tspan><tspan class="cls-10" x="200.39" y="129.6"> </tspan><tspan x="202.77" y="129.6">The</tspan><tspan class="cls-35" x="223.25" y="129.6"> </tspan><tspan x="225.69" y="129.6">trans</tspan><tspan class="cls-16" x="254.91" y="129.6">f</tspan><tspan x="259.46" y="129.6">ormation</tspan><tspan class="cls-13" x="309.8" y="129.6"> </tspan><tspan class="cls-43" x="312.23" y="129.6">w</tspan><tspan class="cls-23" x="322.1" y="129.6">as per</tspan><tspan class="cls-21" x="355.81" y="129.6">f</tspan><tspan x="360.36" y="129.6">ormed based on</tspan><tspan class="cls-35" x="448.04" y="129.6"> </tspan><tspan x="450.49" y="129.6">the </tspan><tspan class="cls-12" x="0" y="144">f</tspan><tspan x="4.55" y="144">oll</tspan><tspan class="cls-43" x="18.64" y="144">o</tspan><tspan x="25.44" y="144">wing p</tspan><tspan class="cls-17" x="61.8" y="144">r</tspan><tspan class="cls-44" x="66.53" y="144">o</tspan><tspan x="73.35" y="144">to</tspan><tspan class="cls-29" x="84.85" y="144">c</tspan><tspan x="90.65" y="144">ol:</tspan><tspan x="0" y="187.2">1. Cel</tspan><tspan class="cls-25" x="27.24" y="187.2">l</tspan><tspan class="cls-47" x="30.58" y="187.2" xml:space="preserve"> cu</tspan><tspan class="cls-29" x="45.99" y="187.2">l</tspan><tspan x="49.52" y="187.2">tu</tspan><tspan class="cls-7" x="61.04" y="187.2">r</tspan><tspan x="65.77" y="187.2">e</tspan><tspan class="cls-34" x="72.24" y="187.2"> </tspan><tspan class="cls-48" x="74.66" y="187.2">w</tspan><tspan x="84.54" y="187.2">as </tspan><tspan class="cls-11" x="99.92" y="187.2">c</tspan><tspan x="105.72" y="187.2">entrifu</tspan><tspan class="cls-36" x="143.22" y="187.2">g</tspan><tspan x="149.9" y="187.2">ed in a sterile 50 m</tspan><tspan class="cls-49" x="252.7" y="187.2">L</tspan><tspan class="cls-50" x="258.61" y="187.2"> </tspan><tspan x="261.08" y="187.2">fal</tspan><tspan class="cls-29" x="275.94" y="187.2">c</tspan><tspan x="281.73" y="187.2">on</tspan><tspan class="cls-35" x="295.57" y="187.2"> </tspan><tspan x="298.02" y="187.2">tube.</tspan><tspan class="cls-32" x="325.68" y="187.2"> </tspan><tspan x="328.06" y="187.2">The supernatant</tspan><tspan class="cls-13" x="419.02" y="187.2"> </tspan><tspan class="cls-43" x="421.45" y="187.2">w</tspan><tspan x="431.32" y="187.2">as </tspan><tspan x="0" y="201.6">disca</tspan><tspan class="cls-3" x="28.56" y="201.6">r</tspan><tspan x="33.32" y="201.6">ded.</tspan><tspan x="0" y="216">2.</tspan><tspan class="cls-10" x="9.55" y="216"> </tspan><tspan x="11.94" y="216">The </tspan><tspan class="cls-11" x="35.08" y="216">c</tspan><tspan x="40.87" y="216">el</tspan><tspan class="cls-25" x="50.96" y="216">l</tspan><tspan x="54.3" y="216" xml:space="preserve"> pellet</tspan><tspan class="cls-34" x="88.81" y="216"> </tspan><tspan class="cls-43" x="91.23" y="216">w</tspan><tspan x="101.11" y="216">as </tspan><tspan class="cls-7" x="116.49" y="216">r</tspan><tspan x="121.22" y="216">esuspended in 1 m</tspan><tspan class="cls-49" x="220.87" y="216">L</tspan><tspan x="226.77" y="216"> </tspan><tspan class="cls-51" x="229.44" y="216">o</tspan><tspan class="cls-52" x="236.26" y="216">f</tspan><tspan x="240.64" y="216" xml:space="preserve"> sterile 100 mM LiAc in</tspan><tspan class="cls-32" x="362.32" y="216"> </tspan><tspan x="364.71" y="216">TE and</tspan><tspan class="cls-35" x="401.63" y="216"> </tspan><tspan x="404.08" y="216">trans</tspan><tspan class="cls-21" x="433.3" y="216">f</tspan><tspan x="437.85" y="216">er</tspan><tspan class="cls-7" x="449.17" y="216">r</tspan><tspan x="453.89" y="216">ed into </tspan><tspan x="0" y="230.4">a 1.5 m</tspan><tspan class="cls-10" x="36.52" y="230.4">L</tspan><tspan class="cls-35" x="42.42" y="230.4"> </tspan><tspan x="44.87" y="230.4">tube.</tspan><tspan x="0" y="244.8">3. Cells</tspan><tspan class="cls-34" x="38.83" y="244.8"> </tspan><tspan class="cls-43" x="41.26" y="244.8">w</tspan><tspan x="51.13" y="244.8">e</tspan><tspan class="cls-17" x="57.6" y="244.8">r</tspan><tspan x="62.33" y="244.8">e </tspan><tspan class="cls-11" x="71.46" y="244.8">c</tspan><tspan x="77.26" y="244.8">entrifu</tspan><tspan class="cls-36" x="114.75" y="244.8">g</tspan><tspan x="121.44" y="244.8">ed at 3600 rpm</tspan><tspan class="cls-53" x="204.56" y="244.8"> </tspan><tspan class="cls-16" x="207.03" y="244.8">f</tspan><tspan x="211.58" y="244.8">o</tspan><tspan class="cls-52" x="218.42" y="244.8">r</tspan><tspan x="223.03" y="244.8" xml:space="preserve"> 60 s.</tspan><tspan class="cls-32" x="251.43" y="244.8"> </tspan><tspan x="253.82" y="244.8">The supernatant</tspan><tspan class="cls-13" x="344.78" y="244.8"> </tspan><tspan class="cls-54" x="347.2" y="244.8">w</tspan><tspan x="357.08" y="244.8">as </tspan><tspan class="cls-7" x="372.46" y="244.8">r</tspan><tspan x="377.19" y="244.8">em</tspan><tspan class="cls-3" x="394.16" y="244.8">ov</tspan><tspan x="407.24" y="244.8">ed and </tspan><tspan class="cls-29" x="446.44" y="244.8">c</tspan><tspan x="452.24" y="244.8">ells </tspan><tspan class="cls-43" x="0" y="259.2">w</tspan><tspan x="9.88" y="259.2">e</tspan><tspan class="cls-17" x="16.34" y="259.2">r</tspan><tspan x="21.07" y="259.2">e </tspan><tspan class="cls-7" x="30.2" y="259.2">r</tspan><tspan x="34.93" y="259.2">esuspended in</tspan><tspan class="cls-35" x="113.92" y="259.2"> </tspan><tspan x="116.37" y="259.2">t</tspan><tspan class="cls-48" x="121.03" y="259.2">w</tspan><tspan x="130.9" y="259.2">o</tspan><tspan class="cls-35" x="137.74" y="259.2"> </tspan><tspan class="cls-47" x="140.19" y="259.2">times </tspan><tspan class="cls-44" x="173.64" y="259.2">o</tspan><tspan class="cls-34" x="180.46" y="259.2">f</tspan><tspan x="184.84" y="259.2"> </tspan><tspan class="cls-11" x="187.51" y="259.2">c</tspan><tspan x="193.3" y="259.2">el</tspan><tspan class="cls-25" x="203.4" y="259.2">l</tspan><tspan class="cls-27" x="206.73" y="259.2"> </tspan><tspan class="cls-3" x="209.13" y="259.2">v</tspan><tspan x="215.46" y="259.2">olume </tspan><tspan class="cls-6" x="252.42" y="259.2">o</tspan><tspan class="cls-13" x="259.24" y="259.2">f</tspan><tspan x="263.62" y="259.2" xml:space="preserve"> 100 mM LiAc in</tspan><tspan class="cls-49" x="347.42" y="259.2"> </tspan><tspan x="349.81" y="259.2">TE.</tspan><tspan x="0" y="273.6">4. Cells</tspan><tspan class="cls-34" x="39.57" y="273.6"> </tspan><tspan class="cls-43" x="42" y="273.6">w</tspan><tspan x="51.88" y="273.6">e</tspan><tspan class="cls-17" x="58.34" y="273.6">r</tspan><tspan x="63.07" y="273.6">e incubated</tspan><tspan class="cls-53" x="126.51" y="273.6"> </tspan><tspan class="cls-16" x="128.99" y="273.6">f</tspan><tspan x="133.53" y="273.6">o</tspan><tspan class="cls-34" x="140.37" y="273.6">r</tspan><tspan x="144.98" y="273.6" xml:space="preserve"> 10 min at </tspan><tspan class="cls-7" x="199.56" y="273.6">r</tspan><tspan x="204.28" y="273.6">oom</tspan><tspan class="cls-35" x="228.46" y="273.6"> </tspan><tspan x="230.91" y="273.6">temperatu</tspan><tspan class="cls-7" x="288.99" y="273.6">r</tspan><tspan x="293.72" y="273.6">e.</tspan><tspan x="0" y="288">5. Single-stranded carrie</tspan><tspan class="cls-34" x="134.71" y="288">r</tspan><tspan x="139.32" y="288" xml:space="preserve"> DN</tspan><tspan class="cls-10" x="158.46" y="288">A</tspan><tspan class="cls-13" x="165.69" y="288"> </tspan><tspan class="cls-48" x="168.12" y="288">w</tspan><tspan x="177.99" y="288">as p</tspan><tspan class="cls-7" x="200.38" y="288">r</tspan><tspan x="205.11" y="288">epa</tspan><tspan class="cls-7" x="225.2" y="288">r</tspan><tspan x="229.93" y="288">ed: Salmon Sperm DNA</tspan><tspan class="cls-26" x="355.09" y="288">(</tspan><tspan x="359.08" y="288">SS-DN</tspan><tspan class="cls-27" x="394.37" y="288">A</tspan><tspan x="401.62" y="288">)</tspan><tspan class="cls-13" x="405.94" y="288"> </tspan><tspan class="cls-54" x="408.37" y="288">w</tspan><tspan x="418.24" y="288">as boiled</tspan><tspan class="cls-50" x="467.38" y="288"> </tspan><tspan class="cls-16" x="469.85" y="288">f</tspan><tspan x="474.4" y="288">o</tspan><tspan class="cls-52" x="481.24" y="288">r</tspan><tspan x="485.85" y="288"> </tspan><tspan x="0" y="302.4">10 min at 100 °C and immediate</tspan><tspan class="cls-10" x="169.17" y="302.4">l</tspan><tspan class="cls-37" x="172.52" y="302.4">y</tspan><tspan x="178.65" y="302.4" xml:space="preserve"> chilled on i</tspan><tspan class="cls-29" x="240.08" y="302.4">c</tspan><tspan x="245.88" y="302.4">e be</tspan><tspan class="cls-16" x="268.35" y="302.4">f</tspan><tspan x="272.9" y="302.4">o</tspan><tspan class="cls-40" x="279.74" y="302.4">r</tspan><tspan class="cls-38" x="284.47" y="302.4">e use.</tspan><tspan class="cls-32" x="315.84" y="302.4"> </tspan><tspan x="318.22" y="302.4">This ensu</tspan><tspan class="cls-7" x="370.48" y="302.4">r</tspan><tspan x="375.21" y="302.4">ed</tspan><tspan class="cls-35" x="388.58" y="302.4"> </tspan><tspan x="391.03" y="302.4">that</tspan><tspan class="cls-35" x="413.95" y="302.4"> </tspan><tspan x="416.4" y="302.4">the DN</tspan><tspan class="cls-32" x="453.66" y="302.4">A</tspan><tspan class="cls-52" x="460.89" y="302.4"> </tspan><tspan class="cls-43" x="463.32" y="302.4">w</tspan><tspan x="473.19" y="302.4">as </tspan><tspan x="0" y="316.8">single-stranded. SS-DN</tspan><tspan class="cls-10" x="128.52" y="316.8">A</tspan><tspan class="cls-34" x="135.75" y="316.8"> </tspan><tspan class="cls-43" x="138.18" y="316.8">w</tspan><tspan x="148.05" y="316.8">as </tspan><tspan class="cls-53" x="163.44" y="316.8">k</tspan><tspan x="169.45" y="316.8">e</tspan><tspan class="cls-6" x="175.92" y="316.8">p</tspan><tspan x="182.91" y="316.8">t on i</tspan><tspan class="cls-11" x="209.78" y="316.8">c</tspan><tspan x="215.58" y="316.8">e</tspan><tspan class="cls-55" x="222.04" y="316.8"> </tspan><tspan class="cls-16" x="224.52" y="316.8">f</tspan><tspan x="229.06" y="316.8">o</tspan><tspan class="cls-13" x="235.9" y="316.8">r</tspan><tspan class="cls-35" x="240.51" y="316.8"> </tspan><tspan x="242.96" y="316.8">the </tspan><tspan class="cls-7" x="263.74" y="316.8">r</tspan><tspan x="268.47" y="316.8">est </tspan><tspan class="cls-6" x="288.37" y="316.8">o</tspan><tspan class="cls-52" x="295.19" y="316.8">f</tspan><tspan class="cls-35" x="299.58" y="316.8"> </tspan><tspan x="302.02" y="316.8">the</tspan><tspan class="cls-35" x="320.14" y="316.8"> </tspan><tspan x="322.59" y="316.8">time be</tspan><tspan class="cls-16" x="363.27" y="316.8">f</tspan><tspan x="367.82" y="316.8">o</tspan><tspan class="cls-7" x="374.66" y="316.8">r</tspan><tspan x="379.39" y="316.8">e use.</tspan><tspan x="0" y="331.2">6. 20 μ</tspan><tspan class="cls-10" x="36.23" y="331.2">L</tspan><tspan x="42.13" y="331.2"> </tspan><tspan class="cls-44" x="44.79" y="331.2">o</tspan><tspan class="cls-34" x="51.62" y="331.2">f</tspan><tspan x="56" y="331.2" xml:space="preserve"> plasmid DN</tspan><tspan class="cls-10" x="121.61" y="331.2">A</tspan><tspan x="128.84" y="331.2"> </tspan><tspan class="cls-5" x="131.51" y="331.2">(</tspan><tspan class="cls-56" x="135.62" y="331.2">y</tspan><tspan x="141.93" y="331.2">east integration</tspan><tspan class="cls-27" x="229.34" y="331.2"> </tspan><tspan class="cls-3" x="231.74" y="331.2">v</tspan><tspan x="238.06" y="331.2">ecto</tspan><tspan class="cls-52" x="261.92" y="331.2">r</tspan><tspan x="266.53" y="331.2"> </tspan><tspan class="cls-7" x="269.19" y="331.2">r</tspan><tspan x="273.92" y="331.2">estricted</tspan><tspan class="cls-13" x="322.96" y="331.2"> </tspan><tspan x="325.39" y="331.2">with p</tspan><tspan class="cls-7" x="359.67" y="331.2">r</tspan><tspan x="364.4" y="331.2">ope</tspan><tspan class="cls-52" x="384.71" y="331.2">r</tspan><tspan x="389.32" y="331.2"> </tspan><tspan class="cls-7" x="391.98" y="331.2">r</tspan><tspan x="396.71" y="331.2">estriction </tspan><tspan x="0" y="345.6">enzym</tspan><tspan class="cls-14" x="36.5" y="345.6">e</tspan><tspan x="42.38" y="345.6">) and 10 μ</tspan><tspan class="cls-10" x="94.49" y="345.6">L</tspan><tspan x="100.39" y="345.6"> </tspan><tspan class="cls-44" x="103.05" y="345.6">o</tspan><tspan class="cls-34" x="109.88" y="345.6">f</tspan><tspan x="114.26" y="345.6" xml:space="preserve"> SS-DN</tspan><tspan class="cls-10" x="152.22" y="345.6">A</tspan><tspan class="cls-34" x="159.45" y="345.6"> </tspan><tspan class="cls-43" x="161.88" y="345.6">w</tspan><tspan x="171.75" y="345.6">as mi</tspan><tspan class="cls-18" x="200.69" y="345.6">x</tspan><tspan class="cls-57" x="206.95" y="345.6">ed in a separate 1.5 m</tspan><tspan class="cls-32" x="323.65" y="345.6">L</tspan><tspan class="cls-35" x="329.55" y="345.6"> </tspan><tspan x="332" y="345.6">tube.</tspan><tspan class="cls-58" x="0" y="360">7</tspan><tspan x="5.63" y="360">. 100 μ</tspan><tspan class="cls-10" x="40.32" y="360">L</tspan><tspan x="46.22" y="360"> </tspan><tspan class="cls-6" x="48.89" y="360">o</tspan><tspan class="cls-13" x="55.71" y="360">f</tspan><tspan class="cls-27" x="60.09" y="360"> </tspan><tspan class="cls-3" x="62.5" y="360">y</tspan><tspan x="68.81" y="360">east </tspan><tspan class="cls-29" x="95.31" y="360">c</tspan><tspan x="101.11" y="360">ompetent </tspan><tspan class="cls-11" x="157.37" y="360">c</tspan><tspan x="163.16" y="360">ells</tspan><tspan class="cls-34" x="182.98" y="360"> </tspan><tspan class="cls-48" x="185.41" y="360">w</tspan><tspan x="195.29" y="360">e</tspan><tspan class="cls-7" x="201.75" y="360">r</tspan><tspan x="206.48" y="360">e added</tspan><tspan class="cls-35" x="249.39" y="360"> </tspan><tspan x="251.84" y="360">to</tspan><tspan class="cls-35" x="263.34" y="360"> </tspan><tspan x="265.79" y="360">the DN</tspan><tspan class="cls-32" x="303.05" y="360">A</tspan><tspan x="310.28" y="360" xml:space="preserve"> and mi</tspan><tspan class="cls-18" x="349.67" y="360">x</tspan><tspan x="355.93" y="360">ed.</tspan><tspan x="0" y="374.4">8.</tspan><tspan class="cls-10" x="10.08" y="374.4"> </tspan><tspan class="cls-59" x="12.47" y="374.4">A</tspan><tspan x="19.84" y="374.4">t</tspan><tspan class="cls-35" x="24.49" y="374.4"> </tspan><tspan x="26.94" y="374.4">the next step, 700 μ</tspan><tspan class="cls-46" x="135.17" y="374.4">l</tspan><tspan x="138.5" y="374.4"> </tspan><tspan class="cls-6" x="141.17" y="374.4">o</tspan><tspan class="cls-34" x="147.99" y="374.4">f</tspan><tspan x="152.37" y="374.4" xml:space="preserve"> sterile P</tspan><tspan class="cls-16" x="200.02" y="374.4">E</tspan><tspan class="cls-57" x="206.7" y="374.4">G/LiAc </tspan><tspan class="cls-28" x="245.8" y="374.4">(</tspan><tspan x="249.45" y="374.4">40% P</tspan><tspan class="cls-16" x="284.68" y="374.4">E</tspan><tspan x="291.36" y="374.4">G 3350 + 100mM LiAc in 1 x</tspan><tspan class="cls-32" x="435.62" y="374.4"> </tspan><tspan x="438.01" y="374.4">T</tspan><tspan class="cls-33" x="445.01" y="374.4">E</tspan><tspan x="451.73" y="374.4">)</tspan><tspan class="cls-13" x="456.06" y="374.4"> </tspan><tspan class="cls-43" x="458.48" y="374.4">w</tspan><tspan x="468.35" y="374.4">e</tspan><tspan class="cls-40" x="474.82" y="374.4">r</tspan><tspan x="479.55" y="374.4">e </tspan><tspan x="0" y="388.8">added.</tspan><tspan x="0" y="403.2">9. Final</tspan><tspan class="cls-10" x="39.11" y="403.2">l</tspan><tspan class="cls-24" x="42.46" y="403.2">y</tspan><tspan x="48.48" y="403.2">, 48 μ</tspan><tspan class="cls-10" x="78.48" y="403.2">L</tspan><tspan x="84.38" y="403.2"> </tspan><tspan class="cls-6" x="87.05" y="403.2">o</tspan><tspan class="cls-13" x="93.87" y="403.2">f</tspan><tspan x="98.25" y="403.2" xml:space="preserve"> DMSO </tspan><tspan class="cls-30" x="136.92" y="403.2">(</tspan><tspan class="cls-60" x="140.78" y="403.2">(</tspan><tspan x="144.54" y="403.2">CH</tspan><tspan class="cls-61" x="159.44" y="403.2">3</tspan><tspan x="165.68" y="403.2">)2S</tspan><tspan class="cls-60" x="183.51" y="403.2">O</tspan><tspan x="190.98" y="403.2">)</tspan><tspan class="cls-13" x="195.3" y="403.2"> </tspan><tspan class="cls-48" x="197.72" y="403.2">w</tspan><tspan class="cls-57" x="207.6" y="403.2">as added and </tspan><tspan class="cls-54" x="282.6" y="403.2">e</tspan><tspan class="cls-3" x="289.03" y="403.2">v</tspan><tspan x="295.35" y="403.2">erything</tspan><tspan class="cls-13" x="341.49" y="403.2"> </tspan><tspan class="cls-43" x="343.92" y="403.2">w</tspan><tspan class="cls-23" x="353.79" y="403.2">as </tspan><tspan class="cls-62" x="369.18" y="403.2">g</tspan><tspan x="375.86" y="403.2">ent</tspan><tspan class="cls-49" x="393.98" y="403.2">l</tspan><tspan class="cls-27" x="397.33" y="403.2">y</tspan><tspan x="403.46" y="403.2" xml:space="preserve"> mi</tspan><tspan class="cls-18" x="419.67" y="403.2">x</tspan><tspan x="425.94" y="403.2">ed </tspan><tspan class="cls-16" x="441.97" y="403.2">b</tspan><tspan class="cls-27" x="448.77" y="403.2">y</tspan><tspan x="454.9" y="403.2"> </tspan><tspan x="0" y="417.6">pipetting.</tspan><tspan x="0" y="432">10.</tspan><tspan class="cls-10" x="14.9" y="432"> </tspan><tspan x="17.29" y="432">The mixtu</tspan><tspan class="cls-7" x="71.89" y="432">r</tspan><tspan x="76.62" y="432">e</tspan><tspan class="cls-34" x="83.09" y="432"> </tspan><tspan class="cls-43" x="85.51" y="432">w</tspan><tspan class="cls-57" x="95.39" y="432">as incubated at </tspan><tspan class="cls-63" x="181.68" y="432">4</tspan><tspan x="189.08" y="432">2 °C</tspan><tspan class="cls-53" x="209.67" y="432"> </tspan><tspan class="cls-21" x="212.15" y="432">f</tspan><tspan x="216.69" y="432">o</tspan><tspan class="cls-13" x="223.53" y="432">r</tspan><tspan x="228.14" y="432" xml:space="preserve"> 40 min </tspan><tspan class="cls-15" x="271.39" y="432">(</tspan><tspan x="275.53" y="432">heat shoc</tspan><tspan class="cls-26" x="328.76" y="432">k</tspan><tspan x="334.64" y="432">).</tspan><tspan x="0" y="446.4">11.</tspan><tspan class="cls-10" x="12.44" y="446.4"> </tspan><tspan class="cls-11" x="14.83" y="446.4">A</tspan><tspan x="22.25" y="446.4">fte</tspan><tspan class="cls-34" x="37.99" y="446.4">r</tspan><tspan class="cls-35" x="42.6" y="446.4"> </tspan><tspan x="45.05" y="446.4">the heat shock,</tspan><tspan class="cls-35" x="128.05" y="446.4"> </tspan><tspan x="130.5" y="446.4">the </tspan><tspan class="cls-11" x="151.28" y="446.4">c</tspan><tspan x="157.08" y="446.4">ells</tspan><tspan class="cls-34" x="176.9" y="446.4"> </tspan><tspan class="cls-48" x="179.33" y="446.4">w</tspan><tspan x="189.2" y="446.4">e</tspan><tspan class="cls-7" x="195.67" y="446.4">r</tspan><tspan x="200.4" y="446.4">e chilled on i</tspan><tspan class="cls-29" x="268.29" y="446.4">c</tspan><tspan x="274.09" y="446.4">e</tspan><tspan class="cls-50" x="280.56" y="446.4"> </tspan><tspan class="cls-21" x="283.03" y="446.4">f</tspan><tspan x="287.58" y="446.4">o</tspan><tspan class="cls-13" x="294.42" y="446.4">r</tspan><tspan x="299.02" y="446.4" xml:space="preserve"> 2 min.</tspan><tspan x="0" y="460.8">12.</tspan><tspan class="cls-10" x="14.38" y="460.8"> </tspan><tspan class="cls-59" x="16.76" y="460.8">A</tspan><tspan x="24.13" y="460.8">t</tspan><tspan class="cls-35" x="28.79" y="460.8"> </tspan><tspan x="31.23" y="460.8">the next step,</tspan><tspan class="cls-35" x="106.22" y="460.8"> </tspan><tspan x="108.67" y="460.8">the </tspan><tspan class="cls-11" x="129.45" y="460.8">c</tspan><tspan x="135.25" y="460.8">ells</tspan><tspan class="cls-34" x="155.07" y="460.8"> </tspan><tspan class="cls-48" x="157.5" y="460.8">w</tspan><tspan x="167.37" y="460.8">e</tspan><tspan class="cls-7" x="173.84" y="460.8">r</tspan><tspan x="178.57" y="460.8">e </tspan><tspan class="cls-29" x="187.7" y="460.8">c</tspan><tspan x="193.5" y="460.8">entrifu</tspan><tspan class="cls-36" x="231" y="460.8">g</tspan><tspan x="237.68" y="460.8">ed</tspan><tspan class="cls-55" x="251.05" y="460.8"> </tspan><tspan class="cls-16" x="253.52" y="460.8">f</tspan><tspan x="258.07" y="460.8">o</tspan><tspan class="cls-13" x="264.91" y="460.8">r</tspan><tspan x="269.52" y="460.8" xml:space="preserve"> 30 s at 6000 rpm at </tspan><tspan class="cls-40" x="381.87" y="460.8">r</tspan><tspan x="386.6" y="460.8">oom</tspan><tspan class="cls-39" x="410.78" y="460.8"> </tspan><tspan x="413.23" y="460.8">temperatu</tspan><tspan class="cls-40" x="471.31" y="460.8">r</tspan><tspan x="476.04" y="460.8">e. </tspan><tspan x="0" y="475.2">The supernatant</tspan><tspan class="cls-34" x="90.96" y="475.2"> </tspan><tspan class="cls-43" x="93.38" y="475.2">w</tspan><tspan x="103.26" y="475.2">as </tspan><tspan class="cls-17" x="118.64" y="475.2">r</tspan><tspan x="123.37" y="475.2">em</tspan><tspan class="cls-3" x="140.34" y="475.2">ov</tspan><tspan x="153.42" y="475.2">ed and</tspan><tspan class="cls-35" x="189.96" y="475.2"> </tspan><tspan x="192.4" y="475.2">the </tspan><tspan class="cls-29" x="213.19" y="475.2">c</tspan><tspan x="218.98" y="475.2">ells</tspan><tspan class="cls-13" x="238.81" y="475.2"> </tspan><tspan class="cls-43" x="241.23" y="475.2">w</tspan><tspan x="251.11" y="475.2">e</tspan><tspan class="cls-40" x="257.57" y="475.2">r</tspan><tspan x="262.3" y="475.2">e </tspan><tspan class="cls-7" x="271.44" y="475.2">r</tspan><tspan x="276.16" y="475.2">esuspended in 1 m</tspan><tspan class="cls-32" x="375.81" y="475.2">L</tspan><tspan x="381.71" y="475.2"> </tspan><tspan class="cls-6" x="384.38" y="475.2">o</tspan><tspan class="cls-13" x="391.21" y="475.2">f</tspan><tspan x="395.59" y="475.2" xml:space="preserve"> sterile 1x</tspan><tspan class="cls-49" x="447.35" y="475.2"> </tspan><tspan x="449.74" y="475.2">TE </tspan><tspan x="0" y="489.6">buf</tspan><tspan class="cls-12" x="18.36" y="489.6">f</tspan><tspan x="22.91" y="489.6">e</tspan><tspan class="cls-64" x="29.38" y="489.6">r</tspan><tspan x="33.59" y="489.6">.</tspan><tspan x="0" y="504">13.</tspan><tspan class="cls-10" x="14.3" y="504"> </tspan><tspan class="cls-11" x="16.69" y="504">A</tspan><tspan x="24.11" y="504">fte</tspan><tspan class="cls-34" x="39.85" y="504">r</tspan><tspan class="cls-35" x="44.46" y="504"> </tspan><tspan x="46.91" y="504">that,</tspan><tspan class="cls-35" x="72.61" y="504"> </tspan><tspan x="75.06" y="504">the </tspan><tspan class="cls-11" x="95.84" y="504">c</tspan><tspan x="101.64" y="504">ells</tspan><tspan class="cls-34" x="121.46" y="504"> </tspan><tspan class="cls-48" x="123.89" y="504">w</tspan><tspan x="133.76" y="504">e</tspan><tspan class="cls-7" x="140.23" y="504">r</tspan><tspan x="144.96" y="504">e </tspan><tspan class="cls-11" x="154.09" y="504">c</tspan><tspan x="159.89" y="504">entrifu</tspan><tspan class="cls-36" x="197.38" y="504">g</tspan><tspan x="204.07" y="504">ed</tspan><tspan class="cls-50" x="217.44" y="504"> </tspan><tspan class="cls-16" x="219.91" y="504">f</tspan><tspan x="224.46" y="504">o</tspan><tspan class="cls-52" x="231.3" y="504">r</tspan><tspan x="235.9" y="504" xml:space="preserve"> 60 s at 3600 rpm at </tspan><tspan class="cls-7" x="347.86" y="504">r</tspan><tspan x="352.59" y="504">oom</tspan><tspan class="cls-35" x="376.77" y="504"> </tspan><tspan x="379.22" y="504">temperatu</tspan><tspan class="cls-7" x="437.3" y="504">r</tspan><tspan x="442.03" y="504">e.</tspan><tspan class="cls-49" x="451.29" y="504"> </tspan><tspan x="453.68" y="504">The </tspan><tspan x="0" y="518.4">supernatant</tspan><tspan class="cls-34" x="67.82" y="518.4"> </tspan><tspan class="cls-43" x="70.25" y="518.4">w</tspan><tspan x="80.12" y="518.4">as disca</tspan><tspan class="cls-56" x="124.07" y="518.4">r</tspan><tspan class="cls-47" x="128.83" y="518.4">ded and</tspan><tspan class="cls-65" x="172.27" y="518.4"> </tspan><tspan x="174.72" y="518.4">the </tspan><tspan class="cls-29" x="195.5" y="518.4">c</tspan><tspan x="201.3" y="518.4">ells</tspan><tspan class="cls-52" x="221.12" y="518.4"> </tspan><tspan class="cls-43" x="223.54" y="518.4">w</tspan><tspan x="233.42" y="518.4">e</tspan><tspan class="cls-7" x="239.89" y="518.4">r</tspan><tspan x="244.62" y="518.4">e </tspan><tspan class="cls-7" x="253.75" y="518.4">r</tspan><tspan x="258.48" y="518.4">esuspended in 200 μ</tspan><tspan class="cls-49" x="371.3" y="518.4">L</tspan><tspan x="377.2" y="518.4"> </tspan><tspan class="cls-6" x="379.87" y="518.4">o</tspan><tspan class="cls-13" x="386.69" y="518.4">f</tspan><tspan x="391.07" y="518.4" xml:space="preserve"> sterile 1x</tspan><tspan class="cls-32" x="442.84" y="518.4"> </tspan><tspan x="445.23" y="518.4">TE buf</tspan><tspan class="cls-16" x="480.01" y="518.4">f</tspan><tspan x="484.55" y="518.4">e</tspan><tspan class="cls-66" x="491.02" y="518.4">r</tspan><tspan x="495.23" y="518.4">.</tspan><tspan x="0" y="532.8">14. Final</tspan><tspan class="cls-10" x="44.47" y="532.8">l</tspan><tspan class="cls-24" x="47.82" y="532.8">y</tspan><tspan x="53.84" y="532.8">, 200 μ</tspan><tspan class="cls-10" x="90.46" y="532.8">L</tspan><tspan x="96.36" y="532.8"> </tspan><tspan class="cls-6" x="99.02" y="532.8">o</tspan><tspan class="cls-13" x="105.85" y="532.8">f</tspan><tspan x="110.23" y="532.8" xml:space="preserve"> suspension</tspan><tspan class="cls-34" x="175.44" y="532.8"> </tspan><tspan class="cls-48" x="177.86" y="532.8">w</tspan><tspan x="187.74" y="532.8">e</tspan><tspan class="cls-7" x="194.21" y="532.8">r</tspan><tspan x="198.93" y="532.8">e</tspan><tspan class="cls-35" x="205.4" y="532.8"> </tspan><tspan x="207.85" y="532.8">trans</tspan><tspan class="cls-16" x="237.07" y="532.8">f</tspan><tspan x="241.62" y="532.8">er</tspan><tspan class="cls-7" x="252.93" y="532.8">r</tspan><tspan class="cls-23" x="257.66" y="532.8">ed on</tspan><tspan class="cls-39" x="287.53" y="532.8"> </tspan><tspan x="289.98" y="532.8">the</tspan><tspan class="cls-27" x="308.1" y="532.8"> </tspan><tspan class="cls-3" x="310.5" y="532.8">y</tspan><tspan x="316.81" y="532.8">east selection plates and </tspan><tspan class="cls-29" x="456.39" y="532.8">c</tspan><tspan x="462.19" y="532.8">ells </tspan><tspan class="cls-43" x="0" y="547.2">w</tspan><tspan x="9.88" y="547.2">e</tspan><tspan class="cls-17" x="16.34" y="547.2">r</tspan><tspan x="21.07" y="547.2">e </tspan><tspan class="cls-43" x="30.2" y="547.2">e</tspan><tspan class="cls-56" x="36.63" y="547.2">v</tspan><tspan x="42.96" y="547.2">en</tspan><tspan class="cls-32" x="56.42" y="547.2">l</tspan><tspan class="cls-27" x="59.77" y="547.2">y</tspan><tspan x="65.9" y="547.2" xml:space="preserve"> sp</tspan><tspan class="cls-7" x="81.68" y="547.2">r</tspan><tspan x="86.41" y="547.2">ead al</tspan><tspan class="cls-46" x="119.29" y="547.2">l</tspan><tspan x="122.63" y="547.2"> </tspan><tspan class="cls-3" x="125.29" y="547.2">ov</tspan><tspan x="138.37" y="547.2">e</tspan><tspan class="cls-13" x="144.84" y="547.2">r</tspan><tspan class="cls-35" x="149.45" y="547.2"> </tspan><tspan x="151.89" y="547.2">the plate surfa</tspan><tspan class="cls-29" x="232.76" y="547.2">c</tspan><tspan x="238.56" y="547.2">e using sterile glass beads.</tspan></tspan></text><text class="cls-67" transform="translate(148.2 132.86)"><tspan class="cls-68">Y</tspan><tspan x="20.59" y="0">east</tspan><tspan class="cls-5" x="98.75" y="0"> </tspan><tspan x="105.69" y="0">t</tspan><tspan class="cls-69" x="121.46" y="0">r</tspan><tspan class="cls-70" x="137.52" y="0">ans</tspan><tspan class="cls-36" x="201.02" y="0">f</tspan><tspan class="cls-71" x="216.25" y="0">ormation</tspan></text><path class="cls-72" d="M191.47,152a12.07,12.07,0,0,0,17.07,0,12.07,12.07,0,0,1,17.06,0,12.07,12.07,0,0,0,17.07,0,12.07,12.07,0,0,1,17.06,0,12.07,12.07,0,0,0,17.07,0,12.08,12.08,0,0,1,17.07,0,12.07,12.07,0,0,0,17.06,0,12.07,12.07,0,0,1,17.07,0,12.07,12.07,0,0,0,17.06,0,12.07,12.07,0,0,1,17.07,0,12.09,12.09,0,0,0,17.07,0,12.06,12.06,0,0,1,17.06,0,12.08,12.08,0,0,0,17.07,0,12.06,12.06,0,0,1,17.06,0,12.08,12.08,0,0,0,17.07,0,12.07,12.07,0,0,1,17.07,0,12.06,12.06,0,0,0,17.06,0" transform="translate(1 1)"/><circle class="cls-73" cx="361.75" cy="832.3" r="8.91"/><circle class="cls-73" cx="567.9" cy="782.29" r="8.91"/><circle class="cls-73" cx="549.81" cy="795.91" r="7.11"/><circle class="cls-74" cx="458.35" cy="779.25" r="8.91"/><circle class="cls-75" cx="417.05" cy="812.23" r="5.16"/><circle class="cls-75" cx="424.33" cy="795.97" r="5.16"/><circle class="cls-75" cx="437.13" cy="783.46" r="5.16"/><circle class="cls-73" cx="477.42" cy="785.42" r="5.16"/><circle class="cls-73" cx="521.23" cy="807.35" r="5.16"/><circle class="cls-75" cx="495.14" cy="791.49" r="5.16"/><circle class="cls-73" cx="400.47" cy="824.61" r="5.16"/><circle class="cls-75" cx="507.99" cy="803.25" r="5.16"/><circle class="cls-75" cx="536.99" cy="805.7" r="5.16"/><circle class="cls-73" cx="383.95" cy="833.15" r="5.16"/><circle class="cls-73" cx="583.55" cy="759.64" r="12.27"/><circle class="cls-73" cx="336.17" cy="819.43" r="12.27"/><circle class="cls-73" cx="346.43" cy="773.27" r="8.91"/><circle class="cls-73" cx="136.91" cy="806.44" r="8.91"/><circle class="cls-73" cx="156.04" cy="794.33" r="7.11"/><circle class="cls-74" cx="245.86" cy="818.33" r="8.91"/><circle class="cls-75" cx="289.69" cy="788.8" r="5.16"/><circle class="cls-75" cx="281.11" cy="804.42" r="5.16"/><circle class="cls-75" cx="267.34" cy="815.85" r="5.16"/><circle class="cls-73" cx="227.35" cy="810.64" r="5.16"/><circle class="cls-73" cx="185.45" cy="785.24" r="5.16"/><circle class="cls-75" cx="210.18" cy="803.16" r="5.16"/><circle class="cls-73" cx="307.22" cy="777.8" r="5.16"/><circle class="cls-75" cx="198.32" cy="790.39" r="5.16"/><circle class="cls-75" cx="169.61" cy="785.6" r="5.16"/><circle class="cls-73" cx="324.38" cy="770.63" r="5.16"/><circle class="cls-73" cx="119.48" cy="827.75" r="12.27"/><circle class="cls-73" cx="370.89" cy="788.17" r="12.27"/><circle class="cls-73" cx="109.25" cy="73.37" r="13.18"/><circle class="cls-75" cx="126.23" cy="38.68" r="7.63"/><circle class="cls-75" cx="65.37" cy="61.14" r="7.63"/><circle class="cls-73" cx="614.74" cy="27.38" r="8.91"/><circle class="cls-73" cx="517.83" cy="75.77" r="8.91"/><circle class="cls-74" cx="571.28" cy="103.81" r="8.91"/><circle class="cls-73" cx="594.31" cy="114.12" r="5.16"/><circle class="cls-75" cx="461.98" cy="61.71" r="5.16"/><circle class="cls-75" cx="569.86" cy="26.11" r="5.16"/><circle class="cls-75" cx="545.04" cy="26.11" r="5.16"/><circle class="cls-75" cx="617.44" cy="120.38" r="5.16"/><circle class="cls-73" cx="603.06" cy="131" r="5.16"/><circle class="cls-74" cx="489.12" cy="63.5" r="8.91"/><circle class="cls-73" cx="480.21" cy="34.76" r="8.91"/><circle class="cls-73" cx="589.65" cy="45.7" r="10.94"/><circle class="cls-74" cx="616" cy="58.8" r="10.94"/><circle class="cls-75" cx="549.9" cy="60.18" r="12.27"/><circle class="cls-73" cx="513.1" cy="37.25" r="12.27"/><circle class="cls-73" cx="581.91" cy="75.77" r="12.27"/><circle class="cls-73" cx="607.85" cy="91.3" r="12.27"/><circle class="cls-75" cx="551.13" cy="86.56" r="7.63"/><path class="cls-76" d="M30.13,863.62a17.29,17.29,0,0,1,24.45,0,17.29,17.29,0,0,0,24.45,0,17.29,17.29,0,0,1,24.45,0,17.29,17.29,0,0,0,24.45,0,17.28,17.28,0,0,1,24.45,0,17.29,17.29,0,0,0,24.45,0,17.28,17.28,0,0,1,24.45,0,17.29,17.29,0,0,0,24.45,0c6.76-6.74,17.24-7.1,24.27.24,6.48,6.76,17.69,6.77,24.45,0a17.28,17.28,0,0,1,24.45,0c6.74,6.76,17.28,6.3,24.45,0,8.42-7.37,17.76-6.9,24.51-.14a17.29,17.29,0,0,0,24.45,0c6.76-6.75,18-6.74,24.45,0,7,7.33,17.51,7,24.27.23a17.29,17.29,0,0,1,24.45,0,17.29,17.29,0,0,0,24.45,0,17.28,17.28,0,0,1,24.45,0,17.29,17.29,0,0,0,24.45,0,17.28,17.28,0,0,1,24.45,0,17.28,17.28,0,0,0,24.45,0,17.29,17.29,0,0,1,24.45,0,17.28,17.28,0,0,0,24.45,0,17.29,17.29,0,0,1,24.45,0c6.74,6.76,19.91,5.29,26.37-1.74,4.5-4.88,7.33-17.47.57-24.21a17.29,17.29,0,0,1,0-24.45,17.28,17.28,0,0,0,0-24.45,17.28,17.28,0,0,1,0-24.45,17.29,17.29,0,0,0,0-24.45,17.28,17.28,0,0,1,0-24.45,17.29,17.29,0,0,0,0-24.45,17.29,17.29,0,0,1,0-24.45,17.29,17.29,0,0,0,0-24.45,17.29,17.29,0,0,1,0-24.45,17.28,17.28,0,0,0,0-24.45,17.29,17.29,0,0,1,0-24.45,17.29,17.29,0,0,0,0-24.45,17.28,17.28,0,0,1,0-24.45c6.74-6.76,7.1-17.24-.24-24.28-6.76-6.48-6.77-17.69,0-24.45a17.28,17.28,0,0,0,0-24.45c-6.76-6.74-6.3-17.28,0-24.45,7.37-8.41,6.9-17.76.14-24.5a17.29,17.29,0,0,1,0-24.45c6.75-6.76,6.74-18,0-24.45-7.34-7-7-17.52-.24-24.28a17.29,17.29,0,0,0,0-24.45,17.29,17.29,0,0,1,0-24.45,17.28,17.28,0,0,0,0-24.45,17.29,17.29,0,0,1,0-24.45,17.28,17.28,0,0,0,0-24.45,17.28,17.28,0,0,1,0-24.45,17.29,17.29,0,0,0,0-24.45,17.28,17.28,0,0,1,0-24.45,17.29,17.29,0,0,0,0-24.45,17.29,17.29,0,0,1,0-24.45,17.29,17.29,0,0,0,0-24.45,17.29,17.29,0,0,1,0-24.45,19,19,0,0,0,1.41-24.65C662.35,0,647-1.73,640.25,5a17.23,17.23,0,0,1-24.36,0,17.22,17.22,0,0,0-24.35,0,17.23,17.23,0,0,1-24.35,0,17.22,17.22,0,0,0-24.36,0,17.23,17.23,0,0,1-24.35,0,17.23,17.23,0,0,0-24.36,0,17.21,17.21,0,0,1-24.35,0,17.24,17.24,0,0,0-24.36,0,17.21,17.21,0,0,1-24.35,0c-6.74-6.72-17.18-7.08-24.18.24a17.23,17.23,0,0,1-24.36,0,17.23,17.23,0,0,0-24.35,0c-6.72,6.74-16,7.2-24.41-.14-7.14-6.24-17.64-6.7-24.36,0a17.21,17.21,0,0,1-24.35,0,17.22,17.22,0,0,0-24.36,0c-7,7.31-17.45,7-24.18.24a17.22,17.22,0,0,0-24.35,0,17.22,17.22,0,0,1-24.36,0,17.23,17.23,0,0,0-24.35,0,17.22,17.22,0,0,1-24.36,0,17.22,17.22,0,0,0-24.35,0,17.23,17.23,0,0,1-24.36,0A17.21,17.21,0,0,0,56,5.94,17.24,17.24,0,0,1,31.67,6c-6.73-6.72-21-4.9-26.53,2.1-5,6.37-5.66,17.25,1.08,24a17.28,17.28,0,0,1,0,24.45A17.29,17.29,0,0,0,6.16,81a17.28,17.28,0,0,1,0,24.45,17.28,17.28,0,0,0,0,24.45,17.29,17.29,0,0,1,0,24.45,17.28,17.28,0,0,0,0,24.45,17.29,17.29,0,0,1,0,24.45,17.29,17.29,0,0,0,0,24.45,17.29,17.29,0,0,1,0,24.45,17.29,17.29,0,0,0,0,24.45A17.28,17.28,0,0,1,5.9,301a17.29,17.29,0,0,0,0,24.45c6.75,6.76,7.11,17.24-.23,24.28-6.76,6.48-6.77,17.69,0,24.45a17.29,17.29,0,0,1,0,24.45c-6.76,6.74-7.22,16.09.14,24.5,6.27,7.17,6.73,17.71,0,24.45a17.29,17.29,0,0,0,0,24.45c6.75,6.76,6.74,18,0,24.45-7.34,7-7,17.52-.23,24.28a17.29,17.29,0,0,1,0,24.45,17.29,17.29,0,0,0,0,24.45,17.29,17.29,0,0,1,0,24.45,17.29,17.29,0,0,0,0,24.45,17.28,17.28,0,0,1,0,24.45,17.29,17.29,0,0,0,0,24.45,17.28,17.28,0,0,1,0,24.45,17.28,17.28,0,0,0,0,24.45,17.29,17.29,0,0,1,0,24.45,17.28,17.28,0,0,0,0,24.45,17.29,17.29,0,0,1,0,24.45,17.29,17.29,0,0,0,0,24.45,17.29,17.29,0,0,1,0,24.45c-6.76,6.74-6.21,16.55-.71,23.74S23.37,870.37,30.13,863.62Z" transform="translate(1 1)"/></svg>