<svg id="Слой_1" data-name="Слой 1" xmlns="http://www.w3.org/2000/svg" viewBox="0 0 36.22 49.3"><defs><style>.cls-1{fill:#fff;stroke:#000;stroke-miterlimit:10;}.cls-2{isolation:isolate;}.cls-3{fill:#696b7b;}</style></defs><g id="Слой_2" data-name="Слой 2"><g id="Слой_1-2" data-name="Слой 1-2"><path class="cls-1" d="M32,23.68C34.52,18,36.84,9.87,35.13,5.47,32.71-.74,27.52.28,22.94,1.18a26.22,26.22,0,0,1-4.83.65,26.22,26.22,0,0,1-4.83-.65C8.7.27,3.52-.74,1.09,5.47-.62,9.86,1.7,18,4.22,23.68a1,1,0,0,1,.08.51,67.76,67.76,0,0,0-.36,7.12c0,6.49,1,17.49,4.66,17.49,3.15,0,3.58-4.18,4.05-8.61.65-6.36,1.44-10.87,5.46-10.87s4.73,4.47,5.38,10.76c.47,4.48.9,8.71,4.13,8.71,3.68,0,4.67-11,4.67-17.49a70.58,70.58,0,0,0-.36-7.12A.86.86,0,0,1,32,23.68Z" transform="translate(0 0)"/><g class="cls-2"><path class="cls-3" d="M24.12,16.16c0,8.11-2.11,9.46-7.83,9.46a20.28,20.28,0,0,1-5-.52l.24-3c1.58,0,2.44,0,4.75,0s3-.89,3.13-4a5.26,5.26,0,0,1-3.7,1.09c-4,0-5.15-2.29-5.15-5.57,0-4.6,1.46-6.57,6.69-6.57C22.92,7.06,24.12,8.9,24.12,16.16ZM17.2,15.9a4.28,4.28,0,0,0,2.27-.68c0-4-.21-4.65-2.27-4.65-1.87,0-2.08.83-2,3C15.12,15.38,15.54,15.9,17.2,15.9Z" transform="translate(0 0)"/></g></g></g></svg>