<svg id="Слой_1" data-name="Слой 1" xmlns="http://www.w3.org/2000/svg" viewBox="0 0 36.22 49.3"><defs><style>.cls-1{fill:#fff;stroke:#000;stroke-miterlimit:10;}.cls-2{isolation:isolate;}.cls-3{fill:#696b7b;}</style></defs><g id="Слой_2" data-name="Слой 2"><g id="Слой_1-2" data-name="Слой 1-2"><path class="cls-1" d="M32,23.68C34.52,18,36.84,9.87,35.13,5.47,32.71-.74,27.52.28,22.94,1.18a26.22,26.22,0,0,1-4.83.65,26.22,26.22,0,0,1-4.83-.65C8.7.27,3.52-.74,1.09,5.47-.62,9.86,1.7,18,4.22,23.68a1,1,0,0,1,.08.51,67.76,67.76,0,0,0-.36,7.12c0,6.49,1,17.49,4.66,17.49,3.15,0,3.58-4.18,4.05-8.61.65-6.36,1.44-10.87,5.46-10.87s4.73,4.47,5.38,10.76c.47,4.48.9,8.71,4.13,8.71,3.68,0,4.67-11,4.67-17.49a70.58,70.58,0,0,0-.36-7.12A.86.86,0,0,1,32,23.68Z" transform="translate(0 0)"/><g class="cls-2"><path class="cls-3" d="M24.07,11.84c0,1.92-.78,3.9-2.73,4.11v.1c2.58.24,3.18,2.4,3.18,4.79,0,3.48-1.35,4.78-7,4.83s-7-1.35-7-4.83c0-2.39.63-4.55,3.2-4.79V16c-1.95-.21-2.73-2.19-2.73-4.11C10.89,8.49,12.06,7,17.47,7S24.07,8.49,24.07,11.84ZM15,19.9c0,1.8.47,2.24,2.5,2.24s2.41-.44,2.41-2.24-.41-2.34-2.39-2.34S15,18.06,15,19.9Zm.26-7.43c0,1.61.44,2,2.29,2s2.16-.39,2.16-2c0-1.77-.42-2.16-2.21-2.16S15.26,10.7,15.26,12.47Z" transform="translate(0 0)"/></g></g></g></svg>