<svg id="Слой_1" data-name="Слой 1" xmlns="http://www.w3.org/2000/svg" viewBox="0 0 36.22 49.3"><defs><style>.cls-1{fill:#fff;stroke:#000;stroke-miterlimit:10;}.cls-2{isolation:isolate;}.cls-3{fill:#696b7b;}</style></defs><g id="Слой_2" data-name="Слой 2"><g id="Слой_1-2" data-name="Слой 1-2"><path class="cls-1" d="M32,23.68C34.52,18,36.84,9.87,35.13,5.47,32.71-.74,27.52.28,22.94,1.18a26.22,26.22,0,0,1-4.83.65,26.22,26.22,0,0,1-4.83-.65C8.7.27,3.52-.74,1.09,5.47-.62,9.86,1.7,18,4.22,23.68a1,1,0,0,1,.08.51,67.76,67.76,0,0,0-.36,7.12c0,6.49,1,17.49,4.66,17.49,3.15,0,3.58-4.18,4.05-8.61.65-6.36,1.44-10.87,5.46-10.87s4.73,4.47,5.38,10.76c.47,4.48.9,8.71,4.13,8.71,3.68,0,4.67-11,4.67-17.49a70.58,70.58,0,0,0-.36-7.12A.86.86,0,0,1,32,23.68Z" transform="translate(0 0)"/><g class="cls-2"><path class="cls-3" d="M23.39,11.19c0,2.57-.54,4.16-2.86,4.53v.1c2.52.39,3.3,1.77,3.33,4.5.05,3.79-1.69,5.35-6.45,5.35A46.69,46.69,0,0,1,11,25.18l.16-3.51c2.26.13,3.41.16,5,.16,2.28,0,3-.34,3-2.16,0-1.54-.42-2.13-2.34-2.11l-3.43,0V14.47h3.43c1.95,0,2.13-.73,2.11-2,0-1.46-.52-1.69-2.34-1.69s-3.67,0-5,.05L11.33,7.5a36.23,36.23,0,0,1,6-.49C21.73,7,23.39,8,23.39,11.19Z" transform="translate(0 0)"/></g></g></g></svg>