<svg id="Слой_1" data-name="Слой 1" xmlns="http://www.w3.org/2000/svg" viewBox="0 0 36.22 49.3"><defs><style>.cls-1{fill:#fff;stroke:#000;stroke-miterlimit:10;}.cls-2{isolation:isolate;}.cls-3{fill:#696b7b;}</style></defs><g id="Слой_2" data-name="Слой 2"><g id="Слой_1-2" data-name="Слой 1-2"><path class="cls-1" d="M32,23.68C34.52,18,36.84,9.87,35.13,5.47,32.71-.74,27.52.28,22.94,1.18a26.22,26.22,0,0,1-4.83.65,26.22,26.22,0,0,1-4.83-.65C8.7.27,3.52-.74,1.09,5.47-.62,9.86,1.7,18,4.22,23.68a1,1,0,0,1,.08.51,67.76,67.76,0,0,0-.36,7.12c0,6.49,1,17.49,4.66,17.49,3.15,0,3.58-4.18,4.05-8.61.65-6.36,1.44-10.87,5.46-10.87s4.73,4.47,5.38,10.76c.47,4.48.9,8.71,4.13,8.71,3.68,0,4.67-11,4.67-17.49a70.58,70.58,0,0,0-.36-7.12A.86.86,0,0,1,32,23.68Z" transform="translate(0 0)"/><g class="cls-2"><path class="cls-3" d="M24.43,19c0,4.48-1.19,6.58-6.68,6.58s-7-1.82-7-9.1c0-8.19,2.63-9.46,7.83-9.46a17.13,17.13,0,0,1,4.63.52l-.21,3c-1.48,0-2.34,0-4.42,0-2.32,0-3,.6-3.12,4a5.36,5.36,0,0,1,3.69-1.07C23.26,13.48,24.43,15.09,24.43,19Zm-4.57.11c0-1.93-.39-2.37-2.11-2.37a4.05,4.05,0,0,0-2.29.68c0,4,.24,4.63,2.32,4.63S19.86,21.28,19.86,19.15Z" transform="translate(0 0)"/></g></g></g></svg>