<svg id="Слой_1" data-name="Слой 1" xmlns="http://www.w3.org/2000/svg" viewBox="0 0 36.22 49.3"><defs><style>.cls-1{fill:#fff;stroke:#000;stroke-miterlimit:10;}.cls-2{isolation:isolate;}.cls-3{fill:#696b7b;}</style></defs><g id="Слой_2" data-name="Слой 2"><g id="Слой_1-2" data-name="Слой 1-2"><path class="cls-1" d="M32,23.68C34.52,18,36.84,9.87,35.13,5.47,32.71-.74,27.52.28,22.94,1.18a26.22,26.22,0,0,1-4.83.65,26.22,26.22,0,0,1-4.83-.65C8.7.27,3.52-.74,1.09,5.47-.62,9.86,1.7,18,4.22,23.68a1,1,0,0,1,.08.51,67.76,67.76,0,0,0-.36,7.12c0,6.49,1,17.49,4.66,17.49,3.15,0,3.58-4.18,4.05-8.61.65-6.36,1.44-10.87,5.46-10.87s4.73,4.47,5.38,10.76c.47,4.48.9,8.71,4.13,8.71,3.68,0,4.67-11,4.67-17.49a70.58,70.58,0,0,0-.36-7.12A.86.86,0,0,1,32,23.68Z" transform="translate(0 0)"/><g class="cls-2"><path class="cls-3" d="M7.68,25.31V13.43a9.68,9.68,0,0,1,.18-2.13l-4.16.93L3.13,9.14,7.68,7.37h4.86V25.31Z" transform="translate(0 0)"/><path class="cls-3" d="M30.37,16.34c0,7-1.89,9.33-7.35,9.33s-7.31-2.34-7.31-9.33S17.58,7,23,7,30.37,9.34,30.37,16.34Zm-9.85,0c0,4.76.55,5.62,2.47,5.62s2.55-.86,2.55-5.62S25,10.72,23,10.72,20.52,11.58,20.52,16.34Z" transform="translate(0 0)"/></g></g></g></svg>