<svg id="Слой_1" data-name="Слой 1" xmlns="http://www.w3.org/2000/svg" viewBox="0 0 36.22 49.3"><defs><style>.cls-1{fill:#fff;stroke:#000;stroke-miterlimit:10;}.cls-2{isolation:isolate;}.cls-3{fill:#696b7b;}</style></defs><g id="Слой_2" data-name="Слой 2"><g id="Слой_1-2" data-name="Слой 1-2"><path class="cls-1" d="M32,23.68C34.52,18,36.84,9.87,35.13,5.47,32.71-.74,27.52.28,22.94,1.18a26.22,26.22,0,0,1-4.83.65,26.22,26.22,0,0,1-4.83-.65C8.7.27,3.52-.74,1.09,5.47-.62,9.86,1.7,18,4.22,23.68a1,1,0,0,1,.08.51,67.76,67.76,0,0,0-.36,7.12c0,6.49,1,17.49,4.66,17.49,3.15,0,3.58-4.18,4.05-8.61.65-6.36,1.44-10.87,5.46-10.87s4.73,4.47,5.38,10.76c.47,4.48.9,8.71,4.13,8.71,3.68,0,4.67-11,4.67-17.49a70.58,70.58,0,0,0-.36-7.12A.86.86,0,0,1,32,23.68Z" transform="translate(0 0)"/><g class="cls-2"><path class="cls-3" d="M8.44,25.31V13.43a9.68,9.68,0,0,1,.18-2.13l-4.16.93L3.89,9.14,8.44,7.37H13.3V25.31Z" transform="translate(0 0)"/><path class="cls-3" d="M29.31,11.4c0,1.95-.44,3.12-2.8,5.59l-4.42,4.34a10.11,10.11,0,0,1,2.52-.23h5.17v4.21H16.42V22.76a2.64,2.64,0,0,1,.67-2l4-4.16c2-2,3.23-3.66,3.2-4.68,0-.75-.6-.83-2-.83-1.85,0-3.15,0-5.62.13l-.18-3.61A29.66,29.66,0,0,1,23,7.06C26.79,7.06,29.31,7.89,29.31,11.4Z" transform="translate(0 0)"/></g></g></g></svg>